<?xml version="1.0" encoding="utf-8"?>
<!-- Generator: Adobe Illustrator 26.2.1, SVG Export Plug-In . SVG Version: 6.00 Build 0)  -->
<svg version="1.1" id="Capa_1" xmlns="http://www.w3.org/2000/svg" xmlns:xlink="http://www.w3.org/1999/xlink" x="0px" y="0px"
	 viewBox="0 0 208 161" style="enable-background:new 0 0 208 161;" xml:space="preserve">
<style type="text/css">
	.st0{fill:#95C11F;}
	.st1{fill:#FFFFFF;}
	.st2{fill:#1D1D1B;}
	.st3{fill:#EC9800;}
	.st4{fill:#319131;}
	.st5{fill:#65A92E;}
	.st6{fill:#00823C;}
	.st7{fill:#939596;}
	.st8{fill:#D7BF9F;}
	.st9{fill:none;stroke:#5D3A00;stroke-width:2.0113;stroke-miterlimit:3.864;}
	.st10{fill:#5D3A00;}
	.st11{fill-rule:evenodd;clip-rule:evenodd;fill:#FFE300;}
	.st12{fill-rule:evenodd;clip-rule:evenodd;fill:#008037;}
	.st13{fill-rule:evenodd;clip-rule:evenodd;fill:#1D1D1B;}
	.st14{fill:#BF1433;}
	.st15{clip-path:url(#SVGID_00000080894636081568607290000011224442204648252067_);}
	.st16{fill:none;}
	.st17{fill:#9F8A4F;}
	.st18{fill:#0090D9;}
	.st19{fill:#932F15;}
	.st20{fill-rule:evenodd;clip-rule:evenodd;fill:#FCDA00;}
	.st21{fill-rule:evenodd;clip-rule:evenodd;fill:#FFFFFF;}
	.st22{fill-rule:evenodd;clip-rule:evenodd;fill:#00864F;}
	.st23{fill:#7EB826;}
	.st24{fill:#FDFDFD;}
	.st25{fill:#FDFDFC;}
	.st26{fill:#FCFDFC;}
	.st27{fill:#EEF6E0;}
	.st28{fill:#DDF6B6;}
	.st29{fill:#C9EA95;}
	.st30{fill:#99C750;}
	.st31{fill:#ABCC77;}
	.st32{fill:#DAE6C2;}
	.st33{fill:#AFD277;}
	.st34{fill:#7FB826;}
	.st35{fill:#80B927;}
	.st36{fill:#80B928;}
	.st37{fill-rule:evenodd;clip-rule:evenodd;fill:#FFFFFF;stroke:#00305E;stroke-width:0.9598;stroke-miterlimit:2.6131;}
	.st38{fill:#00AA8D;}
	.st39{fill:#00305D;}
	.st40{fill:#00305E;}
	.st41{fill:#3D97D3;}
	.st42{fill:#FFEC00;}
	.st43{fill:#65B22E;}
	.st44{fill:#CE7400;}
	.st45{fill-rule:evenodd;clip-rule:evenodd;fill:#3D97D3;}
	.st46{fill:none;stroke:#1D1D1B;stroke-width:0.169;stroke-miterlimit:3.8637;}
	.st47{fill-rule:evenodd;clip-rule:evenodd;}
</style>
<g>
	<polygon class="st41" points="72.2,27.4 75.5,27.4 75.5,36.4 72.3,36.4 72.2,27.4 	"/>
	<polygon class="st42" points="136.6,27.9 140.3,27.9 140.3,37 136.8,37 136.6,27.9 	"/>
	<polygon class="st43" points="72.5,112.3 80,112.3 79.1,134.8 73.2,135.2 72.5,112.3 	"/>
	<polygon class="st44" points="133.2,111.6 139.8,111.2 140.1,133.7 133.5,133.7 133.2,111.6 	"/>
	<path class="st45" d="M98.2,50.7c-0.2,0-0.3,0.1-0.5,0.1c-0.4,0.1-0.6,0.3-1,0.5c-0.5,0.2-0.7,0.3-1.2,0.6c-0.5,0.3-0.8,0.6-1.2,1
		c-0.6,0.5-0.9,0.8-1.4,1.4c-0.7,0.7-1.1,1.2-1.6,2c-0.3,0.4-0.5,0.7-0.7,1.2c-0.3,0.5-0.4,0.8-0.6,1.3c-0.3,0.8-0.4,1.3-0.5,2.1
		c-0.3,1.3-0.3,2.1-0.4,3.4c0,0.6-0.1,0.9,0,1.4c0.1,0.7,0.1,1.1,0.3,1.8c0.2,0.6,0.3,0.9,0.6,1.4c0.3,0.5,0.5,0.8,0.9,1.3
		c0.3,0.4,0.5,0.7,0.9,1.1c0.3,0.4,0.5,0.6,0.9,0.9c0.4,0.4,0.7,0.6,1.1,0.9c0.8,0.6,1.3,0.8,2.2,1.2c0.8,0.4,1.2,0.6,2,0.9
		c0.6,0.2,0.9,0.3,1.5,0.5c0.8,0.3,1.3,0.4,2.1,0.5c0.6,0.1,0.9,0.1,1.6,0c0.5,0,0.8,0,1.3-0.1c0.6-0.1,0.9-0.2,1.5-0.5
		c0.6-0.3,1-0.5,1.6-0.8c0.4-0.2,0.6-0.3,1-0.5c0.4-0.3,0.7-0.4,1.1-0.7c0.6-0.4,0.9-0.6,1.4-1c0.4-0.3,0.7-0.5,1.1-0.9
		c0.5-0.5,0.8-0.8,1.1-1.4c0.3-0.5,0.5-0.7,0.7-1.3c0.2-0.5,0.3-0.8,0.5-1.4c0.1-0.4,0.2-0.7,0.3-1.1c0.1-0.6,0.1-1,0.1-1.6
		c0-0.6,0-0.9,0-1.5c0-0.7,0-1,0-1.7c0-0.6-0.1-0.9-0.2-1.5c-0.2-0.9-0.3-1.3-0.6-2.1c-0.2-0.6-0.4-0.9-0.7-1.5
		c-0.3-0.6-0.5-0.8-0.9-1.4c-0.5-0.6-0.7-1-1.3-1.6c-0.5-0.5-0.8-0.9-1.3-1.3c-0.7-0.5-1.1-0.6-1.9-1c-0.7-0.4-1.2-0.6-2-0.8
		c-0.8-0.2-1.3-0.3-2.1-0.3c-0.8-0.1-1.3,0-2.1,0c-0.7,0-1,0-1.7,0.1C99.4,50.4,99,50.5,98.2,50.7L98.2,50.7z M83.6,43.2l0.1-3.6
		c0,0,0-0.2,0.1-0.2c0.1-0.1,0.3-0.1,0.3-0.1l24.1,0l0.5-0.6l18.5-0.1l0.3,27.8c0,0-0.1,0.3-0.2,0.5c-0.2,0.3-0.9,0.6-0.9,0.6
		l-2.4,1.3l-4.7,2.7c0,0-4.2,2.6-6.9,4.2c-1.5,0.9-2.3,1.4-3.8,2.3c-0.4,0.2-0.6,0.4-1,0.6c-0.5,0.3-0.7,0.5-1.2,0.7
		c-0.3,0.2-0.9,0.3-0.9,0.3L84.3,80c0,0-0.3,0-0.4-0.1c-0.1-0.1-0.2-0.2-0.2-0.2l0.3-10.2l-0.1-9l0-4.4c0,0,0.4,0.2,0.7,0.2
		c0.4,0.1,0.6,0.2,1.1,0.3c0.4,0.1,0.6,0.1,0.9,0.1c0.4,0,0.6-0.1,1-0.2c0.3-0.1,0.7-0.3,0.7-0.3l-0.8-1.7c0,0-0.4-0.7-0.5-1.2
		c-0.2-0.5-0.3-0.9-0.3-1.4c0-0.4,0-0.7,0-1.1c0-0.5,0-0.7,0.1-1.2c0.1-0.5,0.2-0.7,0.5-1.2c0.1-0.3,0.2-0.5,0.4-0.8
		c0.2-0.4,0.4-0.6,0.7-0.9c0.3-0.3,0.5-0.5,0.9-0.7c0.4-0.2,0.6-0.3,1-0.5c0.5-0.2,0.9-0.4,1.4-0.5c0.4-0.1,0.6-0.1,1-0.2
		c0.4,0,0.6,0.1,1,0c0.3,0,0.7-0.1,0.7-0.1c0.2,0,0.2-0.2,0.1-0.3c-0.1-0.2-0.3-0.4-0.5-0.7c-0.3-0.3-0.4-0.4-0.8-0.7
		c-0.4-0.3-0.7-0.5-1.2-0.7c-0.4-0.2-0.7-0.2-1.2-0.4c-0.4-0.1-0.7-0.1-1.2-0.2c-0.6-0.1-0.9-0.1-1.4-0.1c-0.4,0-0.7,0-1.1,0.1
		c-0.4,0.1-0.7,0.1-1.1,0.2c-0.3,0.1-0.5,0.2-0.8,0.3c-0.4,0.2-0.6,0.4-0.9,0.7C84,43.3,83.6,43.2,83.6,43.2L83.6,43.2z"/>
	<path class="st42" d="M99.5,52c0.7-0.2,1-0.2,1.7-0.3c0.6-0.1,0.9-0.1,1.5-0.1c0.4,0,0.7,0,1.1,0c0.5,0,0.7,0.1,1.2,0.1
		c0.6,0.1,0.9,0.1,1.4,0.3c0.6,0.2,0.8,0.3,1.4,0.5c0.6,0.3,0.9,0.5,1.4,0.8c0.4,0.3,0.7,0.4,1,0.7c0.3,0.3,0.5,0.5,0.8,0.8
		c0.4,0.4,0.6,0.6,0.9,1c0.2,0.3,0.3,0.4,0.5,0.7c0.2,0.3,0.3,0.5,0.5,0.8c0.3,0.5,0.5,0.8,0.8,1.4c0.2,0.4,0.2,0.7,0.3,1.1
		c0.2,0.7,0.2,1.1,0.3,1.8c0.1,0.5,0.1,0.8,0.2,1.3c0.1,0.7,0.1,1,0.1,1.7c0,0.5,0,0.8-0.2,1.4c-0.1,0.5-0.2,0.7-0.3,1.2
		c-0.1,0.4-0.2,0.7-0.4,1.1c-0.2,0.4-0.3,0.6-0.5,0.9c-0.2,0.4-0.4,0.6-0.7,1c-0.3,0.4-0.5,0.6-0.9,0.9c-0.5,0.5-0.9,0.6-1.5,1
		c-0.7,0.5-1,0.8-1.7,1.2c-0.3,0.2-0.6,0.3-0.9,0.5c-0.5,0.2-0.7,0.4-1.2,0.6c-0.5,0.2-0.7,0.2-1.2,0.3c-0.6,0.1-0.9,0.2-1.5,0.3
		c-0.8,0.1-1.3-0.1-2-0.2c-0.9-0.1-1.4-0.3-2.3-0.6c-0.6-0.2-0.9-0.3-1.5-0.5c-0.7-0.3-1.1-0.5-1.8-0.9c-0.5-0.3-0.8-0.4-1.2-0.8
		c-0.7-0.5-1-0.8-1.6-1.4c-0.4-0.4-0.6-0.7-0.9-1.2c-0.5-0.6-0.7-1-1-1.7c-0.2-0.5-0.3-0.9-0.4-1.5c-0.2-0.9-0.2-1.4-0.3-2.3
		c0-0.7,0-1.2,0.1-1.9c0.1-0.8,0.2-1.3,0.5-2.1c0.2-0.8,0.4-1.2,0.7-1.9c0.3-0.6,0.4-0.9,0.8-1.4c0.4-0.6,0.7-0.9,1.2-1.5
		c0.5-0.6,0.8-1,1.4-1.5c0.5-0.4,0.8-0.5,1.3-0.8c0.5-0.3,0.8-0.4,1.4-0.6C98.6,52.2,98.9,52.1,99.5,52L99.5,52z"/>
	<path class="st44" d="M84.2,80.3c0.1-0.1,0.5-0.1,0.5-0.1l2.7,0H93c0,0,1.9,0.1,3.1,0.1c1,0,1.5,0,2.5,0c1.2,0,1.8-0.1,3-0.1
		c0.8,0,2-0.1,2-0.1h1.6l0.6,0c0,0,0.3,0.1,0.3,0.2c0,0.2-0.3,0.3-0.3,0.3l-0.5,0.1l-1.8,1.1l-0.8,0.5l-0.9,0.6l-1.2,0.6
		c0,0-0.5,0.3-0.8,0.5c-0.3,0.2-0.4,0.3-0.7,0.4c-0.3,0.2-0.5,0.3-0.8,0.4c-0.3,0.1-0.5,0.1-0.9,0.1c-0.3,0-0.8,0.1-0.8,0.1
		s-0.4,0.1-0.7,0.2c-0.2,0.1-0.3,0.2-0.5,0.4c-0.3,0.2-0.8,0.5-0.8,0.5l-0.8,0.5l-0.9,0.5l-0.8,0.4c0,0-0.4,0.2-0.7,0.4
		c-0.4,0.2-0.6,0.2-0.9,0.4c-0.2,0.2-0.5,0.5-0.5,0.5l-0.7,0.5l-0.4,0.6l-0.3,0.7c0,0-0.2,0.3-0.4,0.4c-0.2,0.2-0.7,0.1-0.7,0.1
		l-0.8,0l-0.4,0.2l-0.4,0.6l-0.3,0.4l-0.4,0.4l-0.3,0.4l-0.3,0.3l-0.2,0.1c0,0-0.2,0.3-0.3,0.3c-0.2,0-0.3-0.2-0.3-0.2l0.2-11.8
		l0-1.6C84.1,80.6,84.1,80.4,84.2,80.3L84.2,80.3z"/>
	<path class="st43" d="M125.3,68.8l0.8-0.6l0.4-0.2c0,0,0.2-0.1,0.3-0.1c0.1,0,0.2,0.2,0.2,0.2l0,0.9l0.1,0.7l-0.1,0.5l-0.3,0.4
		l-0.4,0.2c0,0-0.2,0.1-0.3,0.2c-0.2,0.2-0.1,0.6-0.1,0.6l-0.2,0.4l-0.4,0.4l-0.6,0.4c0,0-0.3,0.3-0.4,0.5c-0.2,0.2-0.3,0.3-0.4,0.5
		c-0.1,0.2-0.1,0.3-0.2,0.5c-0.2,0.3-0.6,0.5-0.6,0.5l-0.8,0.5l-0.8,0.5l-1.4,0.9l-0.7,0.6l-1.2,0.7l-1,0.6l-1.1,0.6
		c0,0-0.7,0.2-1,0.5c-0.2,0.2-0.3,0.5-0.3,0.5l-0.6,0.4c0,0-0.4,0.2-0.7,0.3c-0.2,0.1-0.4,0.1-0.6,0.2c-0.3,0.1-0.4,0.2-0.6,0.5
		c-0.2,0.2-0.3,0.6-0.3,0.6l-0.4,0.4l-0.4,0.3l-0.6,0.4l-0.8,0.1c0,0-0.7,0.1-1.2,0.1c-0.2,0-0.4-0.1-0.6,0
		c-0.2,0.1-0.2,0.2-0.4,0.3c-0.3,0.2-0.9,0.5-0.9,0.5l-1,0.9l-1.1,0.9c0,0-0.3,0.4-0.6,0.6c-0.2,0.1-0.7,0.2-0.7,0.2l-0.7,0.3
		l-0.4,0.4l-0.8,0.6l-0.9,0.8l-0.7,0.5L99,89.8l-0.9,0.1l-0.8,0.3l-0.8,0.5l-0.5,0.4l-0.9,0.7l-0.7,0.6l-0.8,0.5l-1,0.8l-0.5,0.5
		l-1,0.8l-0.9,0.7l-0.7,0.5l-0.4,0.3c0,0-0.3,0.1-0.5,0.2c-0.2,0.1-0.3,0.2-0.5,0.3c-0.2,0.2-0.3,0.3-0.5,0.5
		c-0.2,0.2-0.2,0.4-0.5,0.5c-0.2,0.1-0.3,0.2-0.4,0.2c-0.2,0-0.4-0.1-0.6-0.1c-0.3,0-0.4,0-0.7,0.1c-0.4,0.1-0.5,0.5-0.9,0.5
		c-0.2,0-0.4-0.1-0.6-0.2c-0.2-0.1-0.3-0.2-0.4-0.4c0-0.2,0-0.3,0-0.4c0-0.4-0.1-0.7,0-1.1c0.1-0.3,0.2-0.4,0.3-0.7
		c0.2-0.4,0.3-0.6,0.5-0.9c0.3-0.4,0.9-0.8,0.9-0.8l0.6-0.6l0.5-0.5c0,0,0.1-0.3,0.3-0.4c0.2-0.1,0.6-0.2,0.6-0.2s0.4,0,0.7,0
		c0.3-0.1,0.4-0.1,0.7-0.2c0.3-0.2,0.6-0.7,0.6-0.7s0.3-0.7,0.6-1.1c0.3-0.3,0.9-0.6,0.9-0.6l1.2-0.8l1.7-1l1.5-0.9l0.9-0.6l0.7-0.3
		l1-0.1l1-0.1l0.6-0.4l1-0.8l1.4-0.8l1.2-0.6l1.4-0.9l1.3-0.9l1.4-1.1l2-1.1l1.1-0.8l1.3-0.5l0.8-0.5l0.8-0.4L114,76l0.7-0.6
		l1.6-1.1c0,0,0.8-0.6,1.4-0.9c0.5-0.3,0.7-0.4,1.2-0.7c0.4-0.2,0.7-0.3,1.1-0.6c0.4-0.2,0.7-0.3,1.1-0.5c0.4-0.2,1.1-0.7,1.1-0.7
		l0.9-0.6c0,0,0.4-0.4,0.7-0.6c0.2-0.1,0.5-0.2,0.5-0.2s0.4-0.1,0.6-0.2c0.1-0.1,0.3-0.2,0.3-0.2L125.3,68.8L125.3,68.8z"/>
	<path class="st44" d="M93.3,94.2l0.1-0.3l0.9-0.7l0.9-0.7l1.1-0.7l1-0.8l0.7-0.3l1-0.3c0,0,0.6-0.2,1-0.4c0.3-0.1,0.7-0.4,0.7-0.4
		l0.8-0.8l0.9-0.8l0.3-0.4l0.6-0.3l0.9-0.2l0.6-0.4l1.1-0.9l0.7-0.6l0.6-0.6l0.4-0.4l0.5-0.3l0.5-0.1l0.7,0l0.8-0.1l0.9-0.1
		c0,0,0.4-0.2,0.5,0c0.1,0.2-0.3,0.4-0.3,0.4l-0.7,0.5l-0.9,0.5l-1,0.6l-0.8,0.5l-0.8,0.5l-0.7,0.8l-0.6,0.5l-0.6,0.3l-1,0.3
		l-0.5,0.2l-0.9,0.8l-0.9,0.7L101,91l-1.5,1.1l-0.7,0.5l-0.7,0.6l-0.8,0.5l-0.9,0.5c0,0-0.2,0.2-0.4,0.3c-0.4,0.2-1.2,0-1.2,0
		l-1.2,0.1l-0.3-0.1L93.3,94.2L93.3,94.2z"/>
	<path class="st44" d="M112.1,83l0.2-0.5l0.4-0.5l0.5-0.4l0.6-0.4l0.5-0.1l0.5,0c0,0,0.2,0.1,0.2,0.2c0,0.2-0.3,0.3-0.3,0.3
		l-0.6,0.4l-0.4,0.3l-0.4,0.4l-0.5,0.4l-0.4,0.2c0,0-0.3,0.1-0.4,0C112.1,83.1,112.1,83,112.1,83L112.1,83z"/>
	<path class="st44" d="M115.8,80.2c0.1-0.2,0.2-0.2,0.4-0.2c0.1,0,0.4,0,0.4,0l0.2,0.1l-0.4,0.4l-0.5,0.4l-0.1-0.4
		C115.8,80.5,115.7,80.3,115.8,80.2L115.8,80.2z"/>
	<path class="st43" d="M123.2,76c0,0,0.4-0.4,0.7-0.6c0.2-0.1,0.7-0.3,0.7-0.3l0.5-0.5l0.4-0.1c0,0,0.3-0.1,0.6-0.1
		c0.2,0,0.3,0,0.5,0.1c0.2,0.1,0.3,0.5,0.3,0.5l0.3,0.4c0,0,0.3,0.3,0.3,0.5c0.1,0.2,0,0.6,0,0.6s-0.3,0.5-0.6,0.8
		c-0.3,0.3-0.8,0.8-0.8,0.8l-0.9,0.7l-1,1l-1,0.8l-0.7,0.6l-0.6,0.3c0,0-0.6,0.4-0.7,0.4c-0.1,0-0.8,0.4-0.8,0.4l-1,0.1l-0.6,0.3
		l-0.3,0.5l-0.4,0.6c0,0-0.4,0.4-0.7,0.7c-0.3,0.3-0.4,0.6-0.7,0.9c-0.2,0.2-0.4,0.3-0.7,0.5c-0.3,0.2-0.7,0.5-0.7,0.5l-0.7,0.6
		l-1,0.7l-0.8,0.5l-0.9,0.6l-0.8,0.5l-0.7,0.6c0,0-0.5,0.5-0.9,0.8c-0.3,0.2-0.8,0.4-0.8,0.4l-0.7,0.4l-0.9,0.6l-0.5,0.4l-0.6,0.5
		l-0.7,0.4l-0.7,0.5l-0.8,0.4l-0.8,0.6c0,0-0.5,0.5-0.9,0.9c-0.3,0.3-0.9,0.8-0.9,0.8l-1.1,1.1l-1.1,1l-0.6,0.5L98,99.5l-0.8,0.8
		l-0.3,0.3l-0.5,0.3l-0.9,0.2c0,0-0.6,0.1-1,0c-0.2-0.1-0.3-0.2-0.6-0.3c-0.1-0.1-0.2,0-0.3-0.1c-0.2-0.1-0.1-0.3-0.2-0.5
		c-0.1-0.3-0.1-0.9-0.1-0.9v-1l0.1-0.7c0,0,0.2-0.4,0.3-0.5c0.1-0.1,0.7-0.7,0.7-0.7l0.6-0.6l0.8-0.7l1-0.7l1.7-1l0.9-0.7l0.8-0.8
		l0.8-0.5l1-1l1.2-0.9l0.7-0.5l0.5-0.2l1-0.3l0.8-0.6l0.8-0.7l1.3-1.1l1.4-0.7l1-0.7l1-0.6l1.1-0.7l0.7-0.6l0.5-0.4l0.6-0.5l0.6-0.5
		l0.5-0.3l0.3-0.3l0.9-0.8l0.9-0.5l0.6-0.4l1-0.4l0.7-0.1l0.3-0.1l0.6-0.6l0.7-0.4c0,0,0.5-0.3,0.6-0.4c0.1-0.1,0.6-0.6,0.6-0.6
		L123.2,76L123.2,76z"/>
	<path class="st44" d="M123.3,81.3c0.1-0.2,0.2-0.3,0.4-0.4c0.2-0.1,0.4-0.1,0.6-0.1c0.2-0.1,0.3-0.3,0.5-0.2
		c0.2,0.1,0.2,0.2,0.3,0.3c0.1,0.2,0,0.3-0.1,0.5c-0.1,0.2-0.3,0.3-0.5,0.4c-0.2,0.1-0.3,0.1-0.6,0.1c-0.2,0-0.3,0.1-0.5,0
		c-0.1,0-0.2,0-0.3-0.1c-0.1-0.1,0-0.2,0-0.3C123.1,81.5,123.2,81.4,123.3,81.3L123.3,81.3z"/>
	<path class="st44" d="M119.4,83.4c-0.1,0,0.4-0.5,0.4-0.5l0.5-0.2l0.5-0.1l0.3-0.1l0.5-0.2c0,0,0.3-0.2,0.5-0.1
		c0.1,0,0.2,0.1,0.3,0.2c0.1,0.2,0,0.3-0.1,0.4c-0.1,0.1-0.3,0.2-0.3,0.2l-0.3,0.2l-0.7,0.4l-0.8,0.5l-0.2,0.3l-0.5,0.3l-0.7,0.3
		c0,0-0.3,0.4-0.6,0.3c-0.1,0-0.2,0-0.3-0.1c-0.1-0.2,0.1-0.3,0.2-0.5c0.2-0.3,0.6-0.6,0.6-0.6l0.2-0.4
		C119.1,83.8,119.5,83.4,119.4,83.4L119.4,83.4z"/>
	<path class="st44" d="M113.5,88.5c0.4-0.2,1-0.5,1-0.5l0.8-0.6l0.8-0.6l0.6-0.4c0,0,0.3-0.1,0.4-0.1c0.1,0,0.2,0,0.3,0.1
		c0.1,0.2-0.3,0.5-0.6,0.8c-0.2,0.3-0.4,0.4-0.7,0.6c-0.2,0.2-0.5,0.4-0.5,0.4l-0.7,0.5l-0.6,0.5l-1,0.8l-0.6,0.4l-0.6,0.4l-0.5,0.5
		l-0.3,0.3l-1,1l-0.7,0.8l-0.6,0.6l-0.3,0.3l-0.5,0.3c0,0-0.5,0.1-0.8,0.1c-0.4,0-0.6,0.2-1,0c-0.1-0.1-0.3-0.1-0.3-0.2
		c-0.1-0.2,0.1-0.4,0.3-0.6c0.2-0.2,0.3-0.3,0.5-0.4c0.2-0.1,0.5-0.3,0.5-0.3l0.7-0.6l1-0.6l0.8-0.6l0.8-0.6l0.5-0.4l0.4-0.3
		c0,0,0.3-0.3,0.5-0.5c0.2-0.2,0.3-0.3,0.5-0.4c0.2-0.1,0.3-0.2,0.5-0.4C113.3,88.6,113.4,88.6,113.5,88.5L113.5,88.5z"/>
	<path class="st43" d="M123,82.4l0.9-0.3l0.7-0.2l0.8-0.1l0.8,0l0.6,0.3l0.5,0.4l0.1,0.7v0.8l-0.2,0.5l-0.9,0.6l-0.7,0.6l-0.5,0.4
		l-0.6,0.6l-0.7,0.6l-0.7,0.5l-0.6,0.3l-0.5,0.2l-0.4,0.4l-0.4,0.6l-0.2,0.7l-0.4,0.6l-0.6,0.4l-0.6,0.4l-0.7,0.2l-0.8,0l-0.2,0.2
		l-0.9,0.5l-0.8,0.9l-0.6,0.7l-0.8,0.7l-0.7,0.4l-0.8,0.5l-0.7,0.4l-0.4,0.5l-0.8,0.7l-1.1,1l-0.7,0.6l-0.7,0.4l-0.8,0.4l-0.8,0.3
		l-0.4,0.4l-0.8,0.6l-0.2,0.6c0,0-0.2,0.5-0.4,0.7c-0.2,0.3-0.5,0.6-0.5,0.6l-0.8,0.5l-0.7,0.3l-0.5,0.5l-0.8,0.5l-0.5,0.6
		c0,0-0.4,0.3-0.5,0.5c-0.1,0.2,0,0.3-0.1,0.5c-0.1,0.2-0.1,0.3-0.3,0.5c-0.2,0.2-0.3,0.2-0.6,0.4c-0.2,0.1-0.2,0.2-0.4,0.3
		c-0.4,0.2-0.7-0.1-1.2-0.1c-0.4,0-0.6,0.1-1,0c-0.5,0-0.7-0.2-1.2-0.2c-0.3,0-0.5,0.2-0.7,0.1c-0.2-0.1-0.3-0.2-0.5-0.4
		c-0.2-0.2-0.3-0.3-0.3-0.6c0-0.2-0.1-0.3,0-0.5c0.1-0.3,0.3-0.4,0.6-0.6c0.2-0.2,0.3-0.2,0.6-0.3c0.3-0.1,0.5,0,0.8-0.1
		c0.2-0.1,0.4-0.3,0.4-0.3l0.6-0.8l0.8-0.8l0.7-0.8l0.3-0.5l0.5-0.6l0.8-0.6l0.5-0.3c0,0,0.5,0,0.7-0.2c0.2-0.2,0.4-0.6,0.4-0.6
		l1-0.9l0.8-0.8l0.5-0.5l0.7-0.6l0.4-0.4l0.2-0.2c0,0,0.3-0.3,0.5-0.4c0.3-0.1,0.5-0.1,0.8-0.1c0.3-0.1,0.5-0.1,0.7-0.2
		c0.3-0.1,0.5-0.3,0.7-0.5c0.1-0.1,0.2-0.2,0.3-0.4c0.1-0.2,0.2-0.5,0.2-0.5l0.4-0.6l1-1.1l0.6-0.4l0.7-0.6l0.5-0.4l0.9-0.6l0.5-0.5
		l0.6-0.5l0.5-0.4l0.6-0.6l1.3-1l0.9-1l0.8-0.6l0.8-0.4l0.8-0.5l0.5-0.6l0.3-0.4l1.1-0.8l0.6-0.4l0.4-0.2L123,82.4L123,82.4z"/>
	<path class="st44" d="M127.3,85.9l0.4-0.3l0.3-0.1l0.1,8.6l-0.2,0.3c0,0-3.9,0.1-6.4,0.1c-0.8,0-2.1,0-2.1,0h-2.3l-0.1-0.2l0.1-0.5
		l0.3-0.4l0.5-0.4l0.7-0.3l0.5-0.1l0.9-0.1l0.3-0.1l0.4-0.4l0.9-0.8l0.9-0.9l0.6-0.8l0.4-0.5l0.7-0.5l0.8-0.5L126,87l0.6-0.4
		l0.3-0.3L127.3,85.9L127.3,85.9z"/>
	<path class="st43" d="M88.6,102.4l0.9-0.6l0.6-0.5c0,0,0.4-0.3,0.7-0.5c0.2-0.1,0.3-0.1,0.6-0.2c0.2,0,0.4,0,0.6,0
		c0.2,0.1,0.2,0.1,0.4,0.2c0.2,0.1,0.3,0.2,0.4,0.4c0.1,0.2,0,0.3,0.1,0.5c0.1,0.2,0.2,0.3,0.2,0.4c0.1,0.3,0.1,0.4,0.1,0.7
		c0,0.2,0.1,0.3,0.1,0.5c0,0.3-0.2,0.4-0.3,0.6c-0.1,0.3,0,0.5-0.2,0.8c-0.1,0.2-0.3,0.3-0.5,0.5c-0.3,0.2-0.5,0.3-0.8,0.4
		c-0.2,0.1-0.3,0.1-0.5,0.2c-0.3,0.2-0.4,0.3-0.6,0.6c-0.1,0.2-0.3,0.5-0.3,0.5l-0.5,0.3l-0.5,0.3l-0.5,0c0,0-0.6,0.1-0.6,0.1
		c-0.1,0-0.6,0.4-0.6,0.4c0,0-0.3,0.3-0.3,0.3s-0.3,0.1-0.4,0.2c-0.2,0.1-0.2,0.2-0.4,0.2c-0.2,0-0.3-0.1-0.6-0.1
		c-0.4-0.1-0.6,0-0.9-0.2c-0.2-0.1-0.3-0.1-0.4-0.3c-0.2-0.2-0.1-0.4-0.1-0.7c0-0.3,0-0.2,0-0.7c0,0,0.2-0.6,0.2-0.6
		s0.3-0.3,0.4-0.5c0.2-0.3,0.4-0.4,0.6-0.6c0.2-0.3,0.2-0.6,0.5-0.9c0.3-0.3,0.8-0.5,0.8-0.5l0.5-0.5l0.6-0.4l0.5-0.3L88.6,102.4
		L88.6,102.4z"/>
	<path class="st2" d="M78.8,26.1c-0.3,0-0.4,0-0.4,0.3c0,0.2,0,0.3,0,0.5c0,1.4-0.1,2.8-0.1,4.9c0,0.3,0,0.8,0,0.9
		c0.1,0.1,0.5,0.4,0.6,0.4c0,0,0.2-0.1,1.8-0.3c0.5-0.1,0.5-0.1,0.5-0.3c0-0.5-0.4-0.8-0.5-0.8c-0.2,0-0.4,0-0.5,0
		c-0.2,0-0.5,0-0.7,0c-0.1,0-0.1,0-0.1-0.1c0-1.7,0-3.3,0-5C79.4,26.3,79.1,26.1,78.8,26.1L78.8,26.1z"/>
	<path class="st13" d="M81.6,33.1c0,0.3,0.5,0.3,0.6,0.3c0.1,0,0.2,0,0.3-0.1c0.3-0.6,0.4-2,0.6-2c0.1,0,0.6-0.1,1.1-0.1
		c0.1,0,0.2,0,0.2,0c0.2,0.6,0.3,1.9,0.8,1.9c0.2,0,0.6,0,0.6-0.2c0-0.6-1.1-6.3-1.1-6.5c0-0.2-1.1-0.3-1.3-0.3
		c-0.1,0-0.2,0-0.2,0.2C82.7,27.4,81.6,32.3,81.6,33.1L81.6,33.1z M83.8,27.8c0.1,1,0.4,2.1,0.4,2.3c0,0.1-0.3,0.1-0.3,0.1
		c-0.2,0-0.5,0-0.6,0c-0.1,0-0.1,0-0.1-0.1C83.2,30,83.6,28.5,83.8,27.8L83.8,27.8L83.8,27.8z"/>
	<path class="st13" d="M90.9,28.2c0-0.2,0-0.4,0-0.6c0-0.1,0-0.2,0-0.4c0-0.1,0.1-0.1,0.2-0.1c0.6,0,0.8,0.4,0.8,1
		c0,0.5-0.4,1.4-0.9,1.4c-0.1,0-0.1-0.1-0.1-0.2V28.2L90.9,28.2z M90.9,26c-0.2,0-0.9,0-1,0.2c0,0.1,0,0.1,0,0.3c0,1.8,0,3.4,0,4.9
		c0,0.2,0,0.5,0,0.7c0,0.6,0,0.7,0,0.8c0.2,0.2,0.6,0.4,0.8,0.4c0.3,0,0.3-0.3,0.3-0.6c0-0.3,0-0.5,0-0.7c0-0.3,0-1.1,0-1.2
		c0,0,0-0.1,0.1-0.1c0.7-0.3,2.1-0.9,2.1-2.6c0-0.7-0.3-1-0.7-1.5C91.9,26.1,91.4,26,90.9,26L90.9,26z"/>
	<path class="st13" d="M95.3,27.6c0-0.3,1-0.4,1.2-0.4c0.3,0,0.5,0,0.5,0.4c0,1.2-1.5,1.9-1.7,1.9c-0.1,0-0.1,0-0.1-0.1
		c0-0.2,0-0.5,0-0.7V27.6L95.3,27.6z M94.1,30.5c0,0.4,0,0.9,0,1.3c0,0.9,0,1,0,1.1c0,0.1,0.4,0.2,0.7,0.2c0.1,0,0.2,0,0.2-0.1
		c0-0.2,0-0.8,0-1.4c0-1.1,0-1.2,0.1-1.2c0,0,0.1,0.2,0.3,0.4c0.1,0.2,1.6,2.4,2,2.4c0.3,0,0.5-0.4,0.5-0.5c0-0.3-1.6-2.5-1.6-2.5
		c0-0.1,0.1-0.2,0.3-0.3c0.3-0.2,1.4-1,1.4-2c0-0.7-0.7-1.9-1.8-1.9c-0.9,0-1.1,0.2-1.3,0.2c-0.2,0-0.3-0.1-0.4-0.1
		c-0.1,0-0.1,0-0.3,0.1c-0.2,0.2-0.2,1.6-0.2,2V30.5L94.1,30.5z"/>
	<path class="st13" d="M101.3,26.9c0.5,0,0.8,1.4,0.8,2.3c0,0.6-0.4,3.1-1.2,3.1c-0.4,0-0.7-1.4-0.7-2.3
		C100.2,29.5,100.6,26.9,101.3,26.9L101.3,26.9z M103.3,29.4c0-0.9-0.2-2.2-1.1-2.9c-0.1-0.1-0.1-0.1-0.4-0.1
		c-0.4-0.1-0.8-0.3-1-0.3c-1.2,0-1.7,2.7-1.7,3.8c0,1.5,0.5,3.5,2.4,3.5C102.8,33.2,103.3,30.3,103.3,29.4L103.3,29.4z"/>
	<path class="st13" d="M105.8,28.4c0-0.2,0-0.7,0-1c0-0.1,0.1-0.1,0.2-0.1c0.8,0,1,1.2,1,1.8c0,0.8-0.4,1.9-0.8,2.4
		c-0.1,0.1-0.4,0.5-0.5,0.5c0,0,0,0,0-0.7V28.4L105.8,28.4z M108.3,29.1c0-1.2-0.4-1.8-1-2.3c-0.4-0.4-1.2-0.6-1.7-0.6
		c-0.1,0-0.9,0-0.9,0.2c0,0.1,0,0.1,0,0.3c0,1.9,0,3.7,0,5.6c0,0.4,0,0.6,0.1,0.7c0.1,0,0.8,0.4,1,0.4c0.3,0,0.8-0.4,0.9-0.5
		C107.7,32,108.3,30.6,108.3,29.1L108.3,29.1z"/>
	<path class="st2" d="M109.8,30.4c0,0.9,0.3,1.9,0.5,2.1c0.5,0.4,1.1,0.7,1.6,0.7c1.3,0,1.5-1.6,1.5-2.8c0-0.8,0-1.6,0-2.4
		c0-0.4,0-0.7,0-1.6c0-0.2-0.6-0.3-0.8-0.3c-0.3,0-0.4,0-0.4,0.7c0,0.4,0,1.1,0,2.3c0,1.3,0,3-0.7,3c-0.6,0-0.7-0.6-0.7-1.8
		c0-1.3,0.1-1.8,0.1-3.8c0-0.1-0.5-0.3-0.8-0.3c-0.2,0-0.2,0.1-0.2,0.7C109.9,27.2,109.8,29.1,109.8,30.4L109.8,30.4z"/>
	<path class="st2" d="M114.7,30.5c0,1.2,0.3,2.8,1.8,2.8c1.3,0,1.7-1.5,1.7-2.3c0-0.5-0.2-0.6-0.6-0.6c-0.5,0-0.5,2.1-1.3,2.1
		c-0.5,0-0.5-1.9-0.5-2.3c0-0.9,0.4-3,0.7-3c0.4,0,0,1.7,1,1.7c0.4,0,0.4-0.2,0.4-1c0-0.7-0.1-1.2-0.7-1.4c-0.1,0-0.5-0.4-0.9-0.4
		C115.1,26,114.7,29.3,114.7,30.5L114.7,30.5z"/>
	<path class="st2" d="M119.3,30.5c0,1.2,0.3,2.8,1.8,2.8c1.3,0,1.7-1.5,1.7-2.3c0-0.5-0.2-0.6-0.6-0.6c-0.6,0-0.6,2.1-1.3,2.1
		c-0.5,0-0.5-1.9-0.5-2.3c0-0.9,0.4-3,0.7-3c0.4,0,0,1.7,1,1.7c0.4,0,0.4-0.2,0.4-1c0-0.7-0.1-1.2-0.7-1.4c-0.1,0-0.5-0.4-0.9-0.4
		C119.7,26,119.3,29.3,119.3,30.5L119.3,30.5z"/>
	<path class="st2" d="M124.3,32.7c0,0.2,0.7,0.5,0.9,0.5c0.3,0,0.3-0.2,0.3-0.6c0-1.5,0-3.1,0-4.6c0-0.5,0-1.1,0-1.6
		c0-0.2-0.3-0.4-0.6-0.4c-0.4,0-0.5,0-0.5,0.6c0,0.6,0,1.2,0,1.8V32.7L124.3,32.7z"/>
	<path class="st13" d="M130.1,24.1c-0.1,0-1.8,0.9-1.9,1c0,0-0.1,0.1-0.1,0.1c0,0.1,0,0.3,0.2,0.3c0.2,0,1.7-0.6,2-0.7
		c0.1,0,0.1-0.1,0.1-0.2C130.4,24.5,130.3,24.1,130.1,24.1L130.1,24.1z M129.2,26.9c0.5,0,0.8,1.4,0.8,2.3c0,0.6-0.4,3.1-1.2,3.1
		c-0.4,0-0.7-1.4-0.7-2.3C128.1,29.5,128.4,26.9,129.2,26.9L129.2,26.9z M131.2,29.4c0-0.9-0.2-2.2-1.1-2.9
		c-0.1-0.1-0.1-0.1-0.4-0.1c-0.4-0.1-0.8-0.3-1-0.3c-1.2,0-1.7,2.7-1.7,3.8c0,1.5,0.6,3.5,2.4,3.5C130.7,33.2,131.2,30.3,131.2,29.4
		L131.2,29.4z"/>
	<path class="st2" d="M76.1,108.8c1.2,0,2.8-0.3,2.8-1.8c0-1.3-1.5-1.7-2.3-1.7c-0.5,0-0.6,0.2-0.6,0.6c0,0.6,2.1,0.6,2.1,1.3
		c0,0.5-1.9,0.5-2.3,0.5c-0.9,0-3-0.4-3-0.7c0-0.4,1.7,0,1.7-1c0-0.4-0.2-0.4-1-0.4c-0.7,0-1.2,0.1-1.4,0.7c0,0.1-0.4,0.5-0.4,0.9
		C71.6,108.4,74.9,108.8,76.1,108.8L76.1,108.8z"/>
	<path class="st13" d="M72.6,102.2c0-0.5,1.4-0.8,2.3-0.8c0.6,0,3.1,0.4,3.1,1.2c0,0.4-1.4,0.7-2.3,0.7
		C75.1,103.3,72.6,102.9,72.6,102.2L72.6,102.2z M75,100.2c-0.9,0-2.2,0.2-2.9,1.1c-0.1,0.1-0.1,0.1-0.1,0.4c-0.1,0.4-0.3,0.8-0.3,1
		c0,1.2,2.7,1.7,3.8,1.7c1.5,0,3.5-0.6,3.5-2.4C78.8,100.7,76,100.2,75,100.2L75,100.2z"/>
	<path class="st2" d="M76.5,97.7c-0.3,0-0.7,0-0.8,0c-0.1,0-0.3,0-0.4,0c-0.3,0-0.3,0-0.3,0c0,0,2.2-1,3.3-1.6
		c0.2-0.1,0.2-0.1,0.2-0.3c0-0.2,0-0.3,0-0.5c0-0.2-0.1-0.3-0.9-0.3h-5.5c-0.3,0-0.4,0-0.5,0.1c-0.1,0.2-0.1,0.5-0.1,0.6
		c0,0.2,0.1,0.3,0.4,0.3c1,0,2.1,0.1,3.1,0.1c0.3,0,0.5,0,0.8,0c0.1,0,0.2,0,0.2,0c0,0-0.4,0.1-0.7,0.3c-1.3,0.6-3.1,1.1-3.2,1.3
		c-0.1,0.4-0.2,0.6-0.2,0.7c0,0.2,0.1,0.2,0.4,0.2c1.1,0,2.2,0.1,3.4,0.1h1.5c0.2,0,0.4,0,0.7,0c0.3,0,0.6,0,0.6-0.1
		c0-0.1,0.2-0.5,0.2-0.6c0-0.3-0.2-0.4-0.5-0.4H76.5L76.5,97.7z"/>
	<path class="st2" d="M73.8,93.5c1.6,0,2.1-1.9,3.3-1.9c0.4,0,0.7,0,0.7,0.5c0,0.6-1.1,1.2-1.1,1.6c0,0.2,0.1,0.2,0.3,0.2
		c1.1,0,1.9-1.1,1.9-2.2c0-0.7-0.9-1.6-1.6-1.6c-1.7,0-2.4,2.1-3.5,2.1c-0.4,0-0.9-0.6-0.9-0.7c0-0.1,0-0.1,0.1-0.1
		c1.1,0,1.4-0.4,1.4-0.9c0-0.4-0.3-0.4-0.7-0.4c-0.9,0-1.3,0.2-1.8,0.9c-0.3,0.4-0.3,0.6-0.3,0.7C71.6,92.2,72.2,93.5,73.8,93.5
		L73.8,93.5z"/>
	<path class="st2" d="M77.9,89c0.6,0,0.9-0.3,0.9-0.9c0-0.3-0.3-1.6-0.3-1.8c0-0.2-0.1-0.2-0.2-0.2c-0.7,0-0.9,0.4-0.9,0.6
		c0,0.1,0.2,1,0.2,1.2c0,0.2-0.1,0.2-0.3,0.2h-1.2c-0.4,0-0.5,0-0.5-0.5c0-0.5-0.1-0.7-0.1-1.1c0-0.1-0.1-0.2-0.2-0.2
		c-0.8,0-0.9,0.2-0.9,0.5c0,0.7,0.1,1,0.1,1.2c0,0,0,0-0.1,0c-0.2,0-0.9,0-1.2,0c-0.3,0-0.3,0-0.3-0.5c0-0.9-0.2-1.1-0.4-1.1
		c-0.4,0-0.7,0.3-0.7,0.6c0,0.5,0.2,1,0.2,1.5c0,0.1,0,0.2,0,0.3c0,0.2,0.2,0.3,0.4,0.3C73.9,89,76.2,89,77.9,89L77.9,89z"/>
	<path class="st2" d="M71.8,83.9c0,0.3,0,0.4,0.3,0.4c0.2,0,0.3,0,0.5,0c1.4,0,2.8,0.1,4.9,0.1c0.3,0,0.8,0,0.9,0
		c0.1-0.1,0.4-0.5,0.4-0.6c0,0-0.1-0.2-0.3-1.8c-0.1-0.5-0.1-0.5-0.3-0.5c-0.5,0-0.8,0.4-0.8,0.5c0,0.2,0,0.4,0,0.5
		c0,0.2,0,0.5,0,0.7c0,0.1,0,0.1-0.1,0.1c-1.7,0-3.3,0-5,0C71.9,83.3,71.8,83.6,71.8,83.9L71.8,83.9z"/>
	<path class="st2" d="M71.8,80.1c0,0.3,0,0.4,0.3,0.4c0.2,0,0.3,0,0.5,0c1.4,0,2.8,0.1,4.9,0.1c0.3,0,0.8,0,0.9,0
		c0.1-0.1,0.4-0.5,0.4-0.6c0,0-0.1-0.2-0.3-1.8c-0.1-0.5-0.1-0.5-0.3-0.5c-0.5,0-0.8,0.4-0.8,0.5c0,0.2,0,0.4,0,0.5
		c0,0.2,0,0.5,0,0.7c0,0.1,0,0.1-0.1,0.1c-1.7,0-3.3,0-5,0C71.9,79.5,71.8,79.8,71.8,80.1L71.8,80.1z"/>
	<path class="st2" d="M76.1,75.4c1.2,0,2.8-0.3,2.8-1.8c0-1.3-1.5-1.7-2.3-1.7c-0.5,0-0.6,0.2-0.6,0.6c0,0.6,2.1,0.6,2.1,1.3
		c0,0.5-1.9,0.5-2.3,0.5c-0.9,0-3-0.4-3-0.7c0-0.4,1.7,0,1.7-1c0-0.4-0.2-0.4-1-0.4c-0.7,0-1.2,0.1-1.4,0.7c0,0.1-0.4,0.5-0.4,0.9
		C71.6,75,74.9,75.4,76.1,75.4L76.1,75.4z"/>
	<path class="st13" d="M78.7,71.1c0.3,0,0.3-0.5,0.3-0.6c0-0.1,0-0.2-0.1-0.3c-0.6-0.3-2-0.4-2-0.6c0-0.1-0.1-0.6-0.1-1.1
		c0-0.1,0-0.2,0-0.2c0.6-0.2,1.9-0.3,1.9-0.8c0-0.2,0-0.6-0.2-0.6c-0.6,0-6.3,1.1-6.5,1.1c-0.2,0-0.3,1.1-0.3,1.3
		c0,0.1,0,0.2,0.2,0.2C73,69.9,77.9,71.1,78.7,71.1L78.7,71.1z M73.4,68.8c1-0.1,2.1-0.4,2.3-0.4c0.1,0,0.1,0.3,0.1,0.3
		c0,0.2,0,0.5,0,0.6c0,0.1,0,0.1-0.1,0.1C75.6,69.4,74.2,69,73.4,68.8L73.4,68.8L73.4,68.8z"/>
	<path class="st2" d="M77,64.1c-3,0-3.5,0-4,0c-0.1,0-0.2,0-0.2-0.1c0-0.2,0-0.8-0.1-0.9c-0.1-0.2-0.4-0.3-0.6-0.3
		c-0.2,0-0.5,0.3-0.5,0.5c0,0.3,0.3,2.7,0.5,3c0,0.1,0.1,0.1,0.2,0.1c0.2,0,0.8-0.2,0.8-0.5c0-0.2-0.1-0.4-0.1-0.6
		c0-0.1,0.1-0.1,0.2-0.1c1.3,0,2.7,0,4,0c0.7,0,1.2,0,1.3-0.1c0,0,0.2-0.3,0.2-0.6c0-0.3-0.1-0.3-0.3-0.3c-0.2,0-0.3,0-0.5,0
		C77.8,64.2,77.6,64.1,77,64.1L77,64.1z"/>
	<path class="st13" d="M78.7,62.7c0.3,0,0.3-0.5,0.3-0.6c0-0.1,0-0.2-0.1-0.3c-0.6-0.3-2-0.4-2-0.6c0-0.1-0.1-0.6-0.1-1.1
		c0-0.1,0-0.2,0-0.2c0.6-0.2,1.9-0.3,1.9-0.8c0-0.2,0-0.6-0.2-0.6c-0.6,0-6.3,1.1-6.5,1.1c-0.2,0-0.3,1.1-0.3,1.3
		c0,0.1,0,0.2,0.2,0.2C73,61.5,77.9,62.7,78.7,62.7L78.7,62.7z M73.4,60.4c1-0.1,2.1-0.4,2.3-0.4c0.1,0,0.1,0.3,0.1,0.3
		c0,0.2,0,0.5,0,0.6c0,0.1,0,0.1-0.1,0.1C75.6,61,74.2,60.6,73.4,60.4L73.4,60.4L73.4,60.4z"/>
	<path class="st2" d="M71.8,56.7c0,0.3,0,0.4,0.3,0.4c0.2,0,0.3,0,0.5,0c1.4,0,2.8,0.1,4.9,0.1c0.3,0,0.8,0,0.9,0
		c0.1-0.1,0.4-0.5,0.4-0.6c0,0-0.1-0.2-0.3-1.8c-0.1-0.5-0.1-0.5-0.3-0.5c-0.5,0-0.8,0.4-0.8,0.5c0,0.2,0,0.4,0,0.5
		c0,0.2,0,0.5,0,0.7c0,0.1,0,0.1-0.1,0.1c-1.7,0-3.3,0-5,0C71.9,56.1,71.8,56.4,71.8,56.7L71.8,56.7z"/>
	<path class="st13" d="M69.7,52.6c0,0.2,0.4,0.3,0.5,0.3c0.1,0,0.1,0,0.2-0.1c0.1-0.3,0.7-1.8,0.7-2c0-0.2-0.2-0.2-0.3-0.2
		c0,0-0.1,0-0.1,0.1C70.6,50.7,69.7,52.5,69.7,52.6L69.7,52.6z M78.7,53.9c0.3,0,0.3-0.5,0.3-0.6c0-0.1,0-0.2-0.1-0.3
		c-0.6-0.3-2-0.4-2-0.6c0-0.1-0.1-0.6-0.1-1.1c0-0.1,0-0.2,0-0.2c0.6-0.2,1.9-0.3,1.9-0.8c0-0.2,0-0.6-0.2-0.6
		c-0.6,0-6.3,1.1-6.5,1.1c-0.2,0-0.3,1.1-0.3,1.3c0,0.1,0,0.2,0.2,0.2C73,52.7,77.9,53.9,78.7,53.9L78.7,53.9z M73.4,51.6
		c1-0.1,2.1-0.4,2.3-0.4c0.1,0,0.1,0.3,0.1,0.3c0,0.2,0,0.5,0,0.6c0,0.1,0,0.1-0.1,0.1C75.6,52.3,74.2,51.9,73.4,51.6L73.4,51.6
		L73.4,51.6z"/>
	<path class="st13" d="M74,44.6c-0.2,0-0.7,0-1,0c-0.1,0-0.1-0.1-0.1-0.2c0-0.8,1.2-1,1.8-1c0.8,0,1.9,0.4,2.4,0.8
		c0.1,0.1,0.5,0.4,0.5,0.5c0,0,0,0-0.7,0H74L74,44.6z M74.7,42.1c-1.2,0-1.8,0.4-2.3,1c-0.4,0.4-0.6,1.2-0.6,1.7
		c0,0.1,0,0.9,0.2,0.9c0.1,0,0.1,0,0.3,0c1.9,0,3.7,0,5.6,0c0.4,0,0.6,0,0.7-0.1c0-0.1,0.4-0.8,0.4-1c0-0.3-0.4-0.8-0.5-0.9
		C77.6,42.7,76.3,42.1,74.7,42.1L74.7,42.1z"/>
	<path class="st2" d="M77.9,40.6c0.6,0,0.9-0.3,0.9-0.9c0-0.3-0.3-1.6-0.3-1.8c0-0.2-0.1-0.2-0.2-0.2c-0.7,0-0.9,0.4-0.9,0.6
		c0,0.1,0.2,1,0.2,1.2c0,0.2-0.1,0.2-0.3,0.2h-1.2c-0.4,0-0.5,0-0.5-0.5c0-0.5-0.1-0.7-0.1-1.1c0-0.1-0.1-0.2-0.2-0.2
		c-0.8,0-0.9,0.2-0.9,0.5c0,0.7,0.1,1,0.1,1.2c0,0,0,0-0.1,0c-0.2,0-0.9,0-1.2,0c-0.3,0-0.3,0-0.3-0.5c0-0.9-0.2-1.1-0.4-1.1
		c-0.4,0-0.7,0.3-0.7,0.6c0,0.5,0.2,1,0.2,1.5c0,0.1,0,0.2,0,0.3c0,0.2,0.2,0.3,0.4,0.3C73.9,40.6,76.2,40.6,77.9,40.6L77.9,40.6z"
		/>
	<path class="st13" d="M130.8,37.3c-0.3,0-0.3,0.5-0.3,0.6c0,0.1,0,0.2,0.1,0.2c0.5,0.2,1.9,0.4,1.9,0.6c0,0.1,0.1,0.6,0.1,1.1
		c0,0.1,0,0.2,0,0.2c-0.6,0.2-1.8,0.3-1.8,0.8c0,0.2,0,0.6,0.2,0.6c0.5,0,5.9-1,6.2-1.1c0.2,0,0.3-1.1,0.3-1.2c0-0.1,0-0.2-0.2-0.2
		C136.3,38.4,131.6,37.3,130.8,37.3L130.8,37.3z M135.9,39.5c-0.9,0.1-2,0.4-2.1,0.4c-0.1,0-0.1-0.2-0.1-0.3c0-0.2,0-0.4,0-0.5
		c0-0.1,0-0.1,0.1-0.1C133.8,38.9,135.1,39.2,135.9,39.5L135.9,39.5L135.9,39.5z"/>
	<path class="st2" d="M133.7,42.2c-1.3,0-3,0.4-3,2c0,1.2,1.8,1.8,2.8,1.8c0.3,0,0.5-0.3,0.5-0.6c0-0.3-0.2-1.9-0.4-1.9
		c-0.1,0-0.7,0.2-0.7,0.8c0,0.1,0,0.2,0,0.3c0,0.1,0,0.2-0.1,0.2c-0.4,0-1.4-0.4-1.4-0.9c0-0.6,1.8-0.6,2.3-0.6
		c1.4,0,2.9,0.8,2.9,1.2c0,0.1-0.1,0.1-0.2,0.1c-0.3,0-0.6,0-1,0c-0.5,0-0.8,0.1-0.8,0.6c0,0.5,0.3,0.5,0.9,0.5c0.8,0,1.3,0,1.6-0.8
		c0.1-0.3,0.3-0.5,0.3-0.7C137.5,43.2,135.5,42.2,133.7,42.2L133.7,42.2z"/>
	<path class="st13" d="M136,48.4c0.3,0,0.4,0.9,0.4,1.1c0,0.3,0,0.5-0.4,0.5c-1.1,0-1.8-1.4-1.8-1.6c0-0.1,0-0.1,0.1-0.1
		c0.2,0,0.4,0,0.6,0H136L136,48.4z M133.3,47.3c-0.4,0-0.8,0-1.2,0c-0.9,0-0.9,0-1,0c-0.1,0-0.2,0.4-0.2,0.7c0,0.1,0,0.2,0.1,0.2
		c0.2,0,0.8,0,1.3,0c1.1,0,1.2,0,1.2,0.1c0,0-0.2,0.1-0.4,0.3c-0.2,0.1-2.2,1.5-2.2,1.9c0,0.2,0.3,0.4,0.4,0.4
		c0.3,0,2.3-1.5,2.4-1.5c0.1,0,0.2,0.1,0.2,0.3c0.2,0.3,0.9,1.3,1.9,1.3c0.6,0,1.8-0.7,1.8-1.7c0-0.9-0.2-1.1-0.2-1.2
		c0-0.2,0.1-0.3,0.1-0.4c0-0.1,0-0.1-0.1-0.3c-0.2-0.2-1.5-0.2-1.9-0.2H133.3L133.3,47.3z"/>
	<path class="st13" d="M139.3,53.1c0-0.2-0.4-0.3-0.5-0.3c-0.1,0-0.1,0-0.2,0.1c-0.1,0.3-0.7,1.7-0.7,1.9c0,0.2,0.2,0.2,0.3,0.2
		c0,0,0.1,0,0.1-0.1C138.5,54.8,139.3,53.2,139.3,53.1L139.3,53.1z M130.8,51.8c-0.3,0-0.3,0.5-0.3,0.6c0,0.1,0,0.2,0.1,0.2
		c0.5,0.2,1.9,0.4,1.9,0.6c0,0.1,0.1,0.6,0.1,1.1c0,0.1,0,0.2,0,0.2c-0.6,0.2-1.8,0.3-1.8,0.8c0,0.2,0,0.6,0.2,0.6
		c0.5,0,5.9-1,6.2-1.1c0.2,0,0.3-1.1,0.3-1.2c0-0.1,0-0.2-0.2-0.2C136.3,52.9,131.6,51.8,130.8,51.8L130.8,51.8z M135.9,53.9
		c-0.9,0.1-2,0.4-2.1,0.4c-0.1,0-0.1-0.2-0.1-0.3c0-0.2,0-0.4,0-0.5c0-0.1,0-0.1,0.1-0.1C133.8,53.3,135.1,53.7,135.9,53.9
		L135.9,53.9L135.9,53.9z"/>
	<path class="st13" d="M136,58c0.3,0,0.4,0.9,0.4,1.1c0,0.3,0,0.5-0.4,0.5c-1.1,0-1.8-1.4-1.8-1.6c0-0.1,0-0.1,0.1-0.1
		c0.2,0,0.4,0,0.6,0H136L136,58z M133.3,57c-0.4,0-0.8,0-1.2,0c-0.9,0-0.9,0-1,0c-0.1,0-0.2,0.4-0.2,0.7c0,0.1,0,0.2,0.1,0.2
		c0.2,0,0.8,0,1.3,0c1.1,0,1.2,0,1.2,0.1c0,0-0.2,0.1-0.4,0.3c-0.2,0.1-2.2,1.5-2.2,1.9c0,0.2,0.3,0.4,0.4,0.4
		c0.3,0,2.3-1.5,2.4-1.5c0.1,0,0.2,0.1,0.2,0.3c0.2,0.3,0.9,1.3,1.9,1.3c0.6,0,1.8-0.7,1.8-1.7c0-0.9-0.2-1.1-0.2-1.2
		c0-0.2,0.1-0.3,0.1-0.4c0-0.1,0-0.1-0.1-0.3c-0.2-0.2-1.5-0.2-1.9-0.2H133.3L133.3,57z"/>
	<path class="st2" d="M131.2,62.1c-0.2,0-0.5,0.7-0.5,0.8c0,0.3,0.2,0.2,0.6,0.2c1.5,0,2.9,0,4.4,0c0.5,0,1,0,1.5,0
		c0.1,0,0.3-0.3,0.3-0.6c0-0.4,0-0.4-0.5-0.4c-0.6,0-1.1,0-1.7,0H131.2L131.2,62.1z"/>
	<path class="st13" d="M130.8,64.3c-0.3,0-0.3,0.5-0.3,0.6c0,0.1,0,0.2,0.1,0.2c0.5,0.2,1.9,0.4,1.9,0.6c0,0.1,0.1,0.6,0.1,1.1
		c0,0.1,0,0.2,0,0.2c-0.6,0.2-1.8,0.3-1.8,0.8c0,0.2,0,0.6,0.2,0.6c0.5,0,5.9-1,6.2-1.1c0.2,0,0.3-1.1,0.3-1.2c0-0.1,0-0.2-0.2-0.2
		C136.3,65.5,131.6,64.3,130.8,64.3L130.8,64.3z M135.9,66.5c-0.9,0.1-2,0.4-2.1,0.4c-0.1,0-0.1-0.2-0.1-0.3c0-0.2,0-0.4,0-0.5
		c0-0.1,0-0.1,0.1-0.1C133.8,65.9,135.1,66.3,135.9,66.5L135.9,66.5L135.9,66.5z"/>
	<path class="st2" d="M131.6,71.2c-0.6,0-0.9,0.3-0.9,0.9c0,0.3,0.3,1.5,0.3,1.7c0,0.1,0.1,0.2,0.2,0.2c0.7,0,0.8-0.4,0.8-0.5
		c0-0.1-0.2-0.9-0.2-1.1c0-0.2,0.1-0.2,0.2-0.2h1.2c0.4,0,0.4,0,0.4,0.4c0,0.4,0.1,0.7,0.1,1c0,0.1,0.1,0.2,0.2,0.2
		c0.8,0,0.9-0.2,0.9-0.5c0-0.7-0.1-1-0.1-1.1c0,0,0,0,0.1,0c0.2,0,0.9,0,1.2,0c0.2,0,0.3,0,0.3,0.5c0,0.8,0.1,1.1,0.4,1.1
		c0.3,0,0.7-0.3,0.7-0.5c0-0.5-0.2-1-0.2-1.4c0-0.1,0-0.2,0-0.3c0-0.2-0.2-0.3-0.4-0.3C135.4,71.2,133.2,71.2,131.6,71.2L131.6,71.2
		z"/>
	<path class="st2" d="M133.3,75.1c-1.1,0-2.6,0.3-2.6,1.7c0,1.3,1.4,1.7,2.2,1.7c0.4,0,0.6-0.2,0.6-0.5c0-0.5-2-0.5-2-1.2
		c0-0.4,1.8-0.4,2.2-0.4c0.9,0,2.9,0.4,2.9,0.7c0,0.4-1.6,0-1.6,0.9c0,0.4,0.2,0.4,1,0.4c0.7,0,1.1-0.1,1.3-0.6
		c0-0.1,0.4-0.5,0.4-0.8C137.5,75.5,134.4,75.1,133.3,75.1L133.3,75.1z"/>
	<path class="st13" d="M136.6,81.6c0,0.4-1.3,0.7-2.2,0.7c-0.5,0-2.9-0.3-2.9-1.2c0-0.4,1.3-0.6,2.2-0.6
		C134.3,80.5,136.6,80.9,136.6,81.6L136.6,81.6z M134.4,83.5c0.8,0,2.1-0.2,2.7-1c0.1-0.1,0.1-0.1,0.1-0.4c0.1-0.4,0.3-0.7,0.3-1
		c0-1.2-2.6-1.6-3.5-1.6c-1.4,0-3.3,0.5-3.3,2.2C130.7,83,133.4,83.5,134.4,83.5L134.4,83.5z"/>
	<path class="st2" d="M137.4,85.2c0-0.3,0-0.4-0.3-0.4c-0.1,0-0.3,0-0.5,0c-1.3,0-2.6-0.1-4.7-0.1c-0.3,0-0.8,0-0.9,0
		c-0.1,0.1-0.4,0.5-0.4,0.5s0.1,0.2,0.3,1.7c0.1,0.4,0.1,0.5,0.3,0.5c0.4,0,0.7-0.4,0.7-0.5c0-0.2,0-0.3,0-0.5c0-0.2,0-0.4,0-0.7
		c0-0.1,0-0.1,0.1-0.1c1.6,0,3.1,0,4.7,0C137.2,85.8,137.4,85.5,137.4,85.2L137.4,85.2z"/>
	<path class="st13" d="M139.3,89.1c0-0.2-0.4-0.3-0.5-0.3c-0.1,0-0.1,0-0.2,0.1c-0.1,0.3-0.7,1.7-0.7,1.9c0,0.2,0.2,0.2,0.3,0.2
		c0,0,0.1,0,0.1-0.1C138.5,90.8,139.3,89.2,139.3,89.1L139.3,89.1z M136.6,90.2c0,0.4-1.3,0.7-2.2,0.7c-0.5,0-2.9-0.3-2.9-1.2
		c0-0.4,1.3-0.6,2.2-0.6C134.3,89.1,136.6,89.5,136.6,90.2L136.6,90.2z M134.4,92.1c0.8,0,2.1-0.2,2.7-1c0.1-0.1,0.1-0.1,0.1-0.4
		c0.1-0.4,0.3-0.7,0.3-1c0-1.2-2.6-1.6-3.5-1.6c-1.4,0-3.3,0.5-3.3,2.2C130.7,91.6,133.4,92.1,134.4,92.1L134.4,92.1z"/>
	<path class="st2" d="M133.7,93c-1.3,0-3,0.4-3,2c0,1.2,1.8,1.8,2.8,1.8c0.3,0,0.5-0.3,0.5-0.6c0-0.3-0.2-1.9-0.4-1.9
		c-0.1,0-0.7,0.2-0.7,0.8c0,0.1,0,0.2,0,0.3c0,0.1,0,0.2-0.1,0.2c-0.4,0-1.4-0.4-1.4-0.9c0-0.6,1.8-0.6,2.3-0.6
		c1.4,0,2.9,0.8,2.9,1.2c0,0.1-0.1,0.1-0.2,0.1c-0.3,0-0.6,0-1,0c-0.5,0-0.8,0.1-0.8,0.6c0,0.5,0.3,0.5,0.9,0.5c0.8,0,1.3,0,1.6-0.8
		c0.1-0.3,0.3-0.5,0.3-0.7C137.5,94,135.5,93,133.7,93L133.7,93z"/>
	<path class="st2" d="M131.2,98.3c-0.2,0-0.5,0.7-0.5,0.8c0,0.3,0.2,0.2,0.6,0.2c1.5,0,2.9,0,4.4,0c0.5,0,1,0,1.5,0
		c0.1,0,0.3-0.3,0.3-0.6c0-0.4,0-0.4-0.5-0.4c-0.6,0-1.1,0-1.7,0H131.2L131.2,98.3z"/>
	<path class="st2" d="M133.3,100.8c-1.1,0-2.6,0.3-2.6,1.7c0,1.3,1.4,1.7,2.2,1.7c0.4,0,0.6-0.2,0.6-0.5c0-0.5-2-0.5-2-1.2
		c0-0.4,1.8-0.4,2.2-0.4c0.9,0,2.9,0.4,2.9,0.7c0,0.4-1.6,0-1.6,0.9c0,0.4,0.2,0.4,1,0.4c0.7,0,1.1-0.1,1.3-0.6
		c0-0.1,0.4-0.5,0.4-0.8C137.5,101.2,134.4,100.8,133.3,100.8L133.3,100.8z"/>
	<path class="st13" d="M130.8,104.9c-0.3,0-0.3,0.5-0.3,0.6c0,0.1,0,0.2,0.1,0.2c0.5,0.2,1.9,0.4,1.9,0.6c0,0.1,0.1,0.6,0.1,1.1
		c0,0.1,0,0.2,0,0.2c-0.6,0.2-1.8,0.3-1.8,0.8c0,0.2,0,0.6,0.2,0.6c0.5,0,5.9-1,6.2-1.1c0.2,0,0.3-1.1,0.3-1.2c0-0.1,0-0.2-0.2-0.2
		C136.3,106,131.6,104.9,130.8,104.9L130.8,104.9z M135.9,107c-0.9,0.1-2,0.4-2.1,0.4c-0.1,0-0.1-0.2-0.1-0.3c0-0.2,0-0.4,0-0.5
		c0-0.1,0-0.1,0.1-0.1C133.8,106.4,135.1,106.8,135.9,107L135.9,107L135.9,107z"/>
	<path class="st2" d="M84.6,120.2c0,2.1,0.6,5,3.3,5c2.4,0,3.2-2.7,3.2-4.2c0-0.9-0.4-1.2-1-1.2c-1,0-1,3.9-2.4,3.9
		c-0.8,0-0.8-3.4-0.8-4.2c0-1.6,0.8-5.5,1.3-5.5c0.8,0,0,3.1,1.8,3.1c0.8,0,0.8-0.4,0.8-1.9c0-1.4-0.2-2.1-1.2-2.5
		c-0.2-0.1-0.9-0.7-1.6-0.7C85.4,112.1,84.6,118.1,84.6,120.2L84.6,120.2z"/>
	<path class="st2" d="M93.8,120.2c0,2.1,0.6,5,3.3,5c2.4,0,3.2-2.7,3.2-4.2c0-0.9-0.4-1.2-1-1.2c-1,0-1,3.9-2.4,3.9
		c-0.8,0-0.8-3.4-0.8-4.2c0-1.6,0.8-5.5,1.3-5.5c0.8,0,0,3.1,1.8,3.1c0.8,0,0.8-0.4,0.8-1.9c0-1.4-0.2-2.1-1.2-2.5
		c-0.2-0.1-0.9-0.7-1.6-0.7C94.5,112.1,93.8,118.1,93.8,120.2L93.8,120.2z"/>
	<path class="st13" d="M105.6,116.2c0-0.4,0-0.8,0-1.2c0-0.2,0-0.4,0-0.7c0-0.2,0.2-0.2,0.4-0.2c1.1,0,1.4,0.6,1.4,1.7
		c0,1-0.7,2.6-1.6,2.6c-0.2,0-0.2-0.1-0.2-0.3V116.2L105.6,116.2z M105.6,112.1c-0.4,0-1.6,0-1.9,0.4c-0.1,0.1-0.1,0.3-0.1,0.6
		c0,3.4,0,6.1,0,8.9c0,0.4,0,0.8,0,1.3c0,1.2,0,1.3,0.1,1.4c0.3,0.4,1,0.7,1.4,0.7c0.5,0,0.5-0.6,0.5-1.1c0-0.6,0-0.9,0-1.3
		c0-0.5,0.1-1.9,0.1-2.2c0-0.1,0.1-0.1,0.2-0.2c1.3-0.6,3.7-1.6,3.7-4.8c0-1.3-0.5-1.9-1.3-2.6C107.4,112.2,106.5,112.1,105.6,112.1
		L105.6,112.1z"/>
	<path class="st13" d="M111.1,125.1c0,0.5,0.9,0.6,1.1,0.6c0.1,0,0.4-0.1,0.5-0.2c0.5-1,0.7-3.7,1.1-3.7c0.2,0,1.2-0.3,2.1-0.3
		c0.1,0,0.3,0,0.4,0c0.4,1.2,0.5,3.5,1.5,3.5c0.4,0,1.1,0,1.1-0.4c0-1-2-11.4-2.1-11.9c-0.1-0.4-2.1-0.6-2.4-0.6
		c-0.2,0-0.3,0.1-0.4,0.3C113.2,114.6,111.1,123.6,111.1,125.1L111.1,125.1z M115.2,115.3c0.2,1.8,0.8,3.8,0.8,4.1
		c0,0.2-0.5,0.2-0.6,0.2c-0.4,0-0.8,0.1-1.1,0.1c-0.1,0-0.2-0.1-0.2-0.1c0-0.2,0.7-2.8,1-4.2L115.2,115.3L115.2,115.3z"/>
	<path class="st2" d="M121.9,123.5c0,1.1,0.6,1.7,1.7,1.7c0.5,0,3-0.5,3.3-0.5c0.3,0,0.4-0.1,0.4-0.4c0-1.3-0.7-1.6-1-1.6
		c-0.2,0-1.8,0.4-2.2,0.4c-0.3,0-0.3-0.1-0.3-0.5v-2.2c0-0.7,0.1-0.9,0.8-0.9c0.9,0,1.3-0.2,2-0.2c0.1,0,0.4-0.1,0.4-0.3
		c0-1.4-0.3-1.7-0.9-1.7c-1.3,0-1.9,0.1-2.2,0.1c-0.1,0-0.1-0.1-0.1-0.1c0-0.4,0.1-1.7,0.1-2.3c0-0.5,0.1-0.6,0.9-0.6
		c1.6,0,2.1-0.3,2.1-0.7c0-0.6-0.6-1.4-1-1.4c-0.9,0-1.8,0.3-2.7,0.3c-0.2,0-0.4-0.1-0.6-0.1c-0.4,0-0.5,0.4-0.5,0.7
		C121.9,116.3,121.9,120.4,121.9,123.5L121.9,123.5z"/>
	<path class="st46" d="M67.4,22c0-1.1,0.9-2,2-2H140c1.1,0,2,0.9,2,2v119.3c0,1.1-0.9,2-2,2H69.5c-1.1,0-2-0.9-2-2V22L67.4,22z"/>
	<path class="st13" d="M86.5,129.7c0-0.3,0.8-0.4,1-0.4c0.2,0,0.4,0,0.4,0.3c0,1-1.2,1.6-1.4,1.6c-0.1,0-0.1,0-0.1-0.1
		c0-0.2,0-0.4,0-0.5V129.7L86.5,129.7z M85.6,132c0,0.4,0,0.7,0,1.1c0,0.7,0,0.8,0,0.9c0,0.1,0.4,0.2,0.6,0.2c0.1,0,0.1,0,0.1-0.1
		c0-0.2,0-0.6,0-1.1c0-0.9,0-1,0.1-1c0,0,0.1,0.1,0.2,0.3c0.1,0.2,1.3,1.9,1.6,1.9c0.2,0,0.4-0.3,0.4-0.4c0-0.2-1.3-2-1.3-2
		c0-0.1,0.1-0.1,0.2-0.2c0.3-0.1,1.1-0.8,1.1-1.6c0-0.5-0.6-1.5-1.5-1.5c-0.7,0-0.9,0.2-1,0.2c-0.1,0-0.2-0.1-0.3-0.1
		c0,0-0.1,0-0.2,0.1c-0.1,0.1-0.1,1.3-0.1,1.6V132L85.6,132z"/>
	<path class="st2" d="M90,133.4c0,0.5,0.3,0.8,0.7,0.8c0.2,0,1.3-0.2,1.4-0.2c0.1,0,0.2,0,0.2-0.2c0-0.6-0.3-0.7-0.4-0.7
		c-0.1,0-0.8,0.2-1,0.2c-0.1,0-0.1-0.1-0.1-0.2v-1c0-0.3,0-0.4,0.4-0.4c0.4,0,0.6-0.1,0.9-0.1c0.1,0,0.2,0,0.2-0.1
		c0-0.6-0.1-0.7-0.4-0.7c-0.6,0-0.8,0.1-1,0.1c0,0,0,0,0-0.1c0-0.2,0-0.8,0-1c0-0.2,0-0.3,0.4-0.3c0.7,0,0.9-0.1,0.9-0.3
		c0-0.3-0.2-0.6-0.5-0.6c-0.4,0-0.8,0.1-1.2,0.1c-0.1,0-0.2,0-0.2,0c-0.2,0-0.2,0.2-0.2,0.3C90,130.2,90,132.1,90,133.4L90,133.4z"
		/>
	<path class="st2" d="M93.6,132c0,1,0.3,2.2,1.5,2.2c1.1,0,1.4-1.2,1.4-1.8c0-0.4-0.2-0.5-0.5-0.5c-0.4,0-0.4,1.7-1.1,1.7
		c-0.4,0-0.4-1.5-0.4-1.8c0-0.7,0.3-2.4,0.6-2.4c0.3,0,0,1.4,0.8,1.4c0.4,0,0.4-0.2,0.4-0.8c0-0.6-0.1-1-0.5-1.1
		c-0.1,0-0.4-0.3-0.7-0.3C93.9,128.4,93.6,131,93.6,132L93.6,132z"/>
	<path class="st13" d="M99.3,129.2c0.4,0,0.6,1.1,0.6,1.8c0,0.5-0.3,2.5-1,2.5c-0.3,0-0.5-1.1-0.5-1.8
		C98.3,131.2,98.6,129.2,99.3,129.2L99.3,129.2z M100.9,131.1c0-0.7-0.2-1.8-0.9-2.3c-0.1,0-0.1-0.1-0.3-0.1
		c-0.3-0.1-0.6-0.3-0.8-0.3c-1,0-1.4,2.2-1.4,3c0,1.2,0.4,2.8,1.9,2.8C100.5,134.2,100.9,131.9,100.9,131.1L100.9,131.1z"/>
	<path class="st2" d="M103,132.3c0-0.2,0-0.5,0-0.7c0-0.1,0-0.3,0-0.3c0-0.2,0-0.2,0-0.2c0,0,0.8,1.8,1.3,2.7
		c0.1,0.1,0.1,0.2,0.2,0.2c0.1,0,0.3,0,0.4,0c0.2,0,0.2-0.1,0.2-0.7v-4.4c0-0.2,0-0.3-0.1-0.4c-0.2-0.1-0.4-0.1-0.5-0.1
		c-0.2,0-0.2,0.1-0.2,0.3c0,0.8-0.1,1.7-0.1,2.5c0,0.2,0,0.4,0,0.6c0,0.1,0,0.1,0,0.1c0,0-0.1-0.3-0.2-0.6c-0.5-1.1-0.8-2.5-1-2.5
		c-0.3-0.1-0.5-0.2-0.6-0.2c-0.2,0-0.2,0.1-0.2,0.3c0,0.9-0.1,1.8-0.1,2.7v1.2c0,0.2,0,0.4,0,0.5c0,0.2,0,0.5,0.1,0.5
		c0.1,0,0.4,0.2,0.5,0.2c0.2,0,0.3-0.1,0.3-0.4V132.3L103,132.3z"/>
	<path class="st2" d="M107.9,134.2c0.2,0,0.2-0.2,0.4-1.1c0.1-0.4,1.1-4.4,1.1-4.5c0-0.3-0.4-0.4-0.5-0.4c-0.1,0-0.1,0.1-0.2,0.2
		c-0.3,0.9-0.8,2.9-0.9,3.5c0,0.1,0,0.2-0.1,0.2c0,0,0-0.1-0.1-0.2c-0.1-0.9-0.3-1.7-0.6-2.6c-0.1-0.3-0.2-0.5-0.5-0.5
		c-0.1,0-0.3,0.1-0.3,0.3c0,0.1,0,0.3,0.1,0.4c0.5,2.1,0.9,4.2,1,4.5C107.4,134.1,107.8,134.2,107.9,134.2L107.9,134.2z"/>
	<path class="st2" d="M110.5,133.4c0,0.5,0.3,0.8,0.7,0.8c0.2,0,1.3-0.2,1.4-0.2c0.1,0,0.2,0,0.2-0.2c0-0.6-0.3-0.7-0.4-0.7
		c-0.1,0-0.8,0.2-1,0.2c-0.1,0-0.1-0.1-0.1-0.2v-1c0-0.3,0-0.4,0.4-0.4c0.4,0,0.6-0.1,0.9-0.1c0.1,0,0.2,0,0.2-0.1
		c0-0.6-0.1-0.7-0.4-0.7c-0.6,0-0.8,0.1-1,0.1c0,0,0,0,0-0.1c0-0.2,0-0.8,0-1c0-0.2,0-0.3,0.4-0.3c0.7,0,0.9-0.1,0.9-0.3
		c0-0.3-0.2-0.6-0.5-0.6c-0.4,0-0.8,0.1-1.2,0.1c-0.1,0-0.2,0-0.2,0c-0.2,0-0.2,0.2-0.2,0.3C110.5,130.2,110.5,132.1,110.5,133.4
		L110.5,133.4z"/>
	<path class="st13" d="M115.2,129.7c0-0.3,0.8-0.4,1-0.4c0.2,0,0.4,0,0.4,0.3c0,1-1.2,1.6-1.4,1.6c-0.1,0-0.1,0-0.1-0.1
		c0-0.2,0-0.4,0-0.5V129.7L115.2,129.7z M114.4,132c0,0.4,0,0.7,0,1.1c0,0.7,0,0.8,0,0.9c0,0.1,0.4,0.2,0.6,0.2c0.1,0,0.1,0,0.1-0.1
		c0-0.2,0-0.6,0-1.1c0-0.9,0-1,0.1-1c0,0,0.1,0.1,0.2,0.3c0.1,0.2,1.3,1.9,1.6,1.9c0.2,0,0.4-0.3,0.4-0.4c0-0.2-1.3-2-1.3-2
		c0-0.1,0.1-0.1,0.2-0.2c0.3-0.1,1.1-0.8,1.1-1.6c0-0.5-0.6-1.5-1.5-1.5c-0.7,0-0.9,0.2-1,0.2c-0.1,0-0.2-0.1-0.3-0.1
		c0,0-0.1,0-0.2,0.1c-0.1,0.1-0.1,1.3-0.1,1.6V132L114.4,132z"/>
	<path class="st2" d="M118.6,130.2c0,1.3,1.5,1.7,1.5,2.7c0,0.3,0,0.5-0.4,0.5c-0.5,0-0.9-0.9-1.3-0.9c-0.1,0-0.2,0.1-0.2,0.2
		c0,0.9,0.9,1.5,1.7,1.5c0.5,0,1.3-0.7,1.3-1.3c0-1.4-1.7-1.9-1.7-2.8c0-0.4,0.4-0.8,0.6-0.8c0,0,0.1,0,0.1,0.1
		c0,0.9,0.3,1.2,0.7,1.2c0.3,0,0.3-0.3,0.3-0.6c0-0.7-0.2-1.1-0.7-1.4c-0.3-0.2-0.5-0.3-0.5-0.3
		C119.7,128.4,118.6,128.9,118.6,130.2L118.6,130.2z"/>
	<path class="st2" d="M122.5,133.8c0,0.2,0.6,0.4,0.7,0.4c0.2,0,0.2-0.2,0.2-0.5c0-1.2,0-2.5,0-3.7c0-0.4,0-0.9,0-1.3
		c0-0.1-0.3-0.3-0.5-0.3c-0.3,0-0.4,0-0.4,0.5c0,0.5,0,1,0,1.5V133.8L122.5,133.8z"/>
	<path class="st13" d="M127.4,126.8c-0.1,0-1.5,0.7-1.5,0.8c0,0-0.1,0.1-0.1,0.1c0,0.1,0,0.3,0.2,0.3c0.1,0,1.3-0.5,1.6-0.6
		c0.1,0,0.1,0,0.1-0.1C127.6,127.2,127.5,126.8,127.4,126.8L127.4,126.8z M126.6,129.2c0.4,0,0.6,1.1,0.6,1.8c0,0.5-0.3,2.5-1,2.5
		c-0.3,0-0.5-1.1-0.5-1.8C125.7,131.2,126,129.2,126.6,129.2L126.6,129.2z M128.3,131.1c0-0.7-0.2-1.8-0.9-2.3
		c-0.1,0-0.1-0.1-0.3-0.1c-0.3-0.1-0.6-0.3-0.8-0.3c-1,0-1.4,2.2-1.4,3c0,1.2,0.4,2.8,1.9,2.8C127.9,134.2,128.3,131.9,128.3,131.1
		L128.3,131.1z"/>
</g>
</svg>
