<?xml version="1.0" encoding="utf-8"?>
<!-- Generator: Adobe Illustrator 26.2.1, SVG Export Plug-In . SVG Version: 6.00 Build 0)  -->
<svg version="1.1" id="Capa_1" xmlns="http://www.w3.org/2000/svg" xmlns:xlink="http://www.w3.org/1999/xlink" x="0px" y="0px"
	 viewBox="0 0 208 161" style="enable-background:new 0 0 208 161;" xml:space="preserve">
<style type="text/css">
	.st0{fill:#95C11F;}
	.st1{fill:#FFFFFF;}
	.st2{fill:#1D1D1B;}
	.st3{fill:#EC9800;}
	.st4{fill:#319131;}
	.st5{fill:#65A92E;}
	.st6{fill:#00823C;}
	.st7{fill:#939596;}
	.st8{fill:#D7BF9F;}
	.st9{fill:none;stroke:#5D3A00;stroke-width:2.0113;stroke-miterlimit:3.864;}
	.st10{fill:#5D3A00;}
	.st11{fill-rule:evenodd;clip-rule:evenodd;fill:#FFE300;}
	.st12{fill-rule:evenodd;clip-rule:evenodd;fill:#008037;}
	.st13{fill-rule:evenodd;clip-rule:evenodd;fill:#1D1D1B;}
	.st14{fill:#BF1433;}
	.st15{clip-path:url(#SVGID_00000097468878076885325930000015637408796539217329_);}
	.st16{fill:none;}
	.st17{fill:#9F8A4F;}
	.st18{fill:#0090D9;}
	.st19{fill:#932F15;}
	.st20{fill-rule:evenodd;clip-rule:evenodd;fill:#FCDA00;}
	.st21{fill-rule:evenodd;clip-rule:evenodd;fill:#FFFFFF;}
	.st22{fill-rule:evenodd;clip-rule:evenodd;fill:#00864F;}
	.st23{fill:#7EB826;}
	.st24{fill:#FDFDFD;}
	.st25{fill:#FDFDFC;}
	.st26{fill:#FCFDFC;}
	.st27{fill:#EEF6E0;}
	.st28{fill:#DDF6B6;}
	.st29{fill:#C9EA95;}
	.st30{fill:#99C750;}
	.st31{fill:#ABCC77;}
	.st32{fill:#DAE6C2;}
	.st33{fill:#AFD277;}
	.st34{fill:#7FB826;}
	.st35{fill:#80B927;}
	.st36{fill:#80B928;}
	.st37{fill-rule:evenodd;clip-rule:evenodd;fill:#FFFFFF;stroke:#00305E;stroke-width:0.9598;stroke-miterlimit:2.6131;}
	.st38{fill:#00AA8D;}
	.st39{fill:#00305D;}
	.st40{fill:#00305E;}
	.st41{fill:#3D97D3;}
	.st42{fill:#FFEC00;}
	.st43{fill:#65B22E;}
	.st44{fill:#CE7400;}
	.st45{fill-rule:evenodd;clip-rule:evenodd;fill:#3D97D3;}
	.st46{fill:none;stroke:#1D1D1B;stroke-width:0.169;stroke-miterlimit:3.8637;}
	.st47{fill-rule:evenodd;clip-rule:evenodd;}
</style>
<g>
	<path class="st47" d="M133.2,115.9c-0.7,0.7-1,1.5-1,2.5c0,1,0.3,1.8,1,2.5c0.7,0.7,1.5,1,2.5,1c1,0,1.8-0.3,2.5-1
		c0.7-0.7,1-1.5,1-2.5c0-1-0.3-1.8-1-2.5c-0.7-0.7-1.5-1-2.5-1C134.7,114.8,133.8,115.2,133.2,115.9z M138.5,121.3
		c-0.8,0.8-1.8,1.2-2.9,1.2c-1.1,0-2.1-0.4-2.9-1.2c-0.8-0.8-1.2-1.8-1.2-2.9c0-1.1,0.4-2.1,1.2-2.9c0.8-0.8,1.8-1.2,2.9-1.2
		c1.1,0,2.1,0.4,2.9,1.2c0.8,0.8,1.2,1.8,1.2,2.9C139.7,119.5,139.3,120.5,138.5,121.3z M136.4,116.8c-0.2-0.1-0.5-0.2-1-0.2h-0.7
		v1.6h0.7c0.3,0,0.6,0,0.8-0.1c0.3-0.1,0.5-0.4,0.5-0.7C136.7,117.1,136.6,116.9,136.4,116.8z M135.6,116.1c0.6,0,1,0.1,1.2,0.2
		c0.5,0.2,0.7,0.6,0.7,1.1c0,0.4-0.1,0.7-0.4,0.9c-0.2,0.1-0.4,0.2-0.7,0.2c0.4,0.1,0.6,0.2,0.8,0.4c0.2,0.2,0.2,0.5,0.2,0.7v0.3
		c0,0.1,0,0.2,0,0.3c0,0.1,0,0.2,0,0.2l0,0.1h-0.7c0,0,0,0,0,0c0,0,0,0,0-0.1l0-0.1V120c0-0.5-0.1-0.9-0.4-1
		c-0.2-0.1-0.5-0.1-0.9-0.1h-0.6v1.8H134v-4.5H135.6z"/>
	<g>
		<path d="M145.7,82.5c0.1,21.5-17.9,39.6-39.2,39.8c-22.4,0.3-40.8-17.6-40.8-40.1c0-21.9,17.9-39.8,40-39.8
			C127.8,42.3,145.7,60.2,145.7,82.5z M72.7,82.4c0,18.6,14.7,33.1,33.5,33.1c17.6,0,32.5-14.9,32.5-32.8
			c0.1-18.3-14.7-33.2-33-33.2C87.5,49.5,72.7,64.1,72.7,82.4z"/>
		<path d="M58.5,133.5c-0.7,0-1.3,0-2,0c0-0.9,0-1.6,0-2.4c1.7,0,3.5,0,5.3,0c0,2.3,0,4.6,0,6.8c0,0.2-0.4,0.6-0.6,0.7
			c-2.7,0.6-5.4,0.8-8-0.2c-2.1-0.8-3.3-2.4-3.7-4.6c-0.8-5.2,1.9-8.6,7.2-8.7c1.6,0,3.2,0.3,4.8,0.4c-0.1,1.1-0.2,2-0.3,2.9
			c-1.7-0.8-3.3-1.1-5-0.7c-2.3,0.6-3.5,2.6-3.2,5.1c0.3,2.4,1.9,3.7,4.3,3.6c0.8,0,1.3-0.2,1.2-1.2
			C58.5,134.7,58.5,134.1,58.5,133.5z"/>
		<path d="M142.8,22.8c1.2,0,2.2,0,3.4,0c0,4.8,0,9.5,0,14.3c-0.9,0-1.9,0-2.9,0c-0.1-0.5-0.1-1-0.1-1.3c-0.8,0.5-1.6,1.1-2.5,1.4
			c-1.5,0.5-2.9,0.1-4-1c-1.9-1.8-2-5.7-0.3-7.7c1.5-1.8,4.1-1.8,6.4,0C142.8,26.5,142.8,24.7,142.8,22.8z M138.7,32.2
			c0,1.6,0.8,2.7,2,2.6c1.2,0,2.1-1.1,2.1-2.6c0-1.6-0.9-2.7-2.1-2.7C139.5,29.6,138.7,30.6,138.7,32.2z"/>
		<path d="M72.4,26.9c-3.1-1.2-5.3-1-6.7,0.7c-1.2,1.4-1.3,3.8-0.2,5.3c1.9,2.5,4.4,1.9,7,1.1c0.1,1,0.2,1.9,0.2,3
			c-3.2,0.7-6.3,0.9-9.1-1.1c-2.1-1.5-3-4.8-2.2-7.7c0.8-2.7,3-4.5,6-4.7c1.3-0.1,2.6,0.1,3.9,0.2c1,0.1,1.6,0.5,1.3,1.6
			C72.5,25.9,72.5,26.4,72.4,26.9z"/>
		<path d="M126.3,138.6c-1.3,0-2.4,0-3.6,0c0-4.5,0-8.9,0-13.3c2.9,0,5.7,0,8.6,0c0,0.8,0,1.6,0,2.5c-1.6,0-3.3,0-5.1,0
			c0,1,0,1.9,0,2.9c1.6,0,3.2,0,4.8,0c0,0.9,0,1.6,0,2.5c-1.6,0-3.2,0-4.9,0C126.3,135,126.3,136.8,126.3,138.6z"/>
		<path d="M70.3,128.7c1,0,2,0,3.2,0c0,1.1,0,2.1,0,3c0,0.6,0,1.1,0,1.7c0,1.7,0.5,2.5,1.6,2.5c1.1,0,1.9-0.9,2-2.4
			c0.1-1.6,0-3.1,0-4.8c1.2,0,2.2,0,3.4,0c0,3.3,0,6.5,0,9.8c-1,0-1.9,0-3,0c0-0.5-0.1-0.9-0.1-1.5c-1,1.1-2.2,1.8-3.6,1.8
			c-1.9-0.1-3.3-1-3.4-2.9C70.2,133.6,70.3,131.2,70.3,128.7z"/>
		<path d="M103.3,128.8c1,0,1.9,0,2.9,0c0,0.4,0.1,0.8,0.1,1.4c0.3-0.3,0.6-0.5,0.8-0.7c1.3-1.1,2.7-1.2,4.2-0.8
			c1.5,0.5,2.1,1.7,2.2,3.2c0.1,2.2,0,4.3,0,6.6c-1.1,0-2.1,0-3.3,0c0-1.4,0-2.7,0-4.1c0-0.5,0-1.1-0.1-1.6
			c-0.1-0.8-0.4-1.5-1.4-1.6c-1-0.1-1.7,0.4-1.9,1.3c-0.2,0.8-0.2,1.7-0.2,2.5c0,1.1,0,2.2,0,3.5c-1.2,0-2.2,0-3.3,0
			C103.3,135.3,103.3,132.2,103.3,128.8z"/>
		<path d="M94.5,134.7c0.6,2.2,1.9,2.5,5.9,1.4c0.4,2.2,0.2,2.5-1.9,2.7c-0.8,0.1-1.6,0.1-2.4,0.1c-3.8-0.3-6-3.6-4.7-7.3
			c0.7-2,2.7-3.2,5.1-3.1c2.4,0.1,4,1.2,4.5,3.4c0.2,0.8,0.2,1.7,0.4,2.8C99.1,134.7,96.9,134.7,94.5,134.7z M98.3,132.7
			c-0.2-1.5-0.9-2.1-2-2.1c-1.1,0-1.7,0.8-1.8,2.1C95.8,132.7,97,132.7,98.3,132.7z"/>
		<path d="M133.8,33.2c-2.3,0-4.5,0-6.8,0c0.5,2.1,2.1,2.5,5.8,1.3c0.5,2.1,0.2,2.5-1.9,2.7c-1,0.1-1.9,0.1-2.9,0
			c-2.3-0.3-4-1.9-4.3-4.1c-0.7-4.4,2.6-7.2,6.8-6C132.8,27.9,134,30,133.8,33.2z M130.7,31.2c-0.2-1.4-0.8-2.1-1.9-2.1
			c-1.1,0-1.7,0.7-1.9,2.1C128.2,31.2,129.4,31.2,130.7,31.2z"/>
		<path d="M162.5,134.7c-2.3,0-4.6,0-6.8,0c0.2,2.1,2.1,2.5,5.8,1.4c0.5,2.1,0.3,2.6-1.8,2.7c-1.3,0.1-2.8,0.1-4.1-0.3
			c-2.1-0.6-3.2-2.2-3.3-4.4c-0.2-2.1,0.4-4,2.4-5c2.1-1,4.2-1,6.1,0.5C162.4,130.8,162.6,132.7,162.5,134.7z M159.4,132.7
			c-0.1-1.4-0.8-2.1-1.9-2.1c-1.1,0-1.7,0.7-1.9,2.1C156.9,132.7,158.2,132.7,159.4,132.7z"/>
		<path d="M77.4,33.2c0.6,2.2,2.2,2.5,5.9,1.4c0,0.1,0.1,0.1,0.1,0.2c0.1,2.3,0,2.4-2.3,2.6c-0.8,0.1-1.5,0.1-2.3,0
			C75.9,37.1,74,35,74,32c0.1-3.1,2-5,5.2-5c3,0,4.9,1.8,5,4.9c0,0.4,0,0.8,0,1.3C82,33.2,79.7,33.2,77.4,33.2z M81.2,31.2
			c-0.2-1.5-0.9-2.2-2-2.1c-1,0.1-1.7,0.9-1.7,2.1C78.7,31.2,79.9,31.2,81.2,31.2z"/>
		<path d="M151.2,134.7c-2.5,0-4.7,0-6.9,0c0.2,2.1,1.7,2.4,5.8,1.4c0,0,0.1,0.1,0.1,0.1c0.2,2.2,0,2.5-2.2,2.7
			c-0.7,0.1-1.4,0.1-2.1,0c-3.8-0.3-5.8-3.2-4.9-6.9c0.6-2.1,2.3-3.4,4.8-3.5c2.5-0.1,4.3,1.1,4.9,3.3
			C151,132.6,151,133.6,151.2,134.7z M147.9,132.7c-0.1-1.3-0.7-2.1-1.8-2.1c-1.1,0-1.7,0.7-1.9,2.1
			C145.5,132.7,146.7,132.7,147.9,132.7z"/>
		<path d="M108.9,27.3c0.6,0,1.2,0,1.9,0c0.1-1.7,0-3.4,1.7-4.3c1.3-0.7,2.6-0.6,4.2-0.2c-0.1,0.7-0.1,1.3-0.2,2
			c-2.1,0.2-2.3,0.5-2.1,2.4c0.7,0,1.4,0,2.2,0c0,0.8,0,1.6,0,2.5c-0.7,0-1.4,0.1-2.3,0.1c0,2.4,0,4.8,0,7.3c-1.2,0-2.2,0-3.4,0
			c0-2.4,0-4.8,0-7.3c-0.8-0.1-1.4-0.1-2-0.1C108.9,28.9,108.9,28.1,108.9,27.3z"/>
		<path d="M87.4,128.7c0.9,0.1,1.7,0.1,2.5,0.1c0,0.8,0,1.5,0,2.3c-0.8,0-1.5,0.1-2.3,0.1c0,1.4-0.1,2.8,0,4.1
			c0.1,1.3,1.2,1.3,2.4,1.2c0,0.5,0.1,1,0,1.5c-0.1,0.3-0.4,0.7-0.6,0.7c-1,0.1-1.9,0.2-2.9,0c-1.3-0.2-2.2-1.3-2.3-2.8
			c-0.1-1.5,0-3.1,0-4.7c-0.7-0.1-1.2-0.1-1.9-0.2c0-0.8,0-1.5,0-2.4c0.6,0,1.2-0.1,1.8-0.1c0.1-0.8,0-1.8,0.4-2.2
			c0.7-0.6,1.8-0.7,2.9-1.1C87.4,126.5,87.4,127.5,87.4,128.7z"/>
		<path d="M96.1,29.8c-0.7,0-1.2-0.1-1.8-0.1c0-0.8,0-1.5,0-2.3c0.6,0,1.3-0.1,1.9-0.1c0.1-0.8,0-1.8,0.4-2.2
			c0.7-0.6,1.8-0.7,2.9-1.1c0,1.2,0,2.2,0,3.3c0.8,0,1.6,0,2.4,0c0,0.9,0,1.6,0,2.5c-0.7,0-1.4,0-2.3,0c0,1.5-0.1,2.9,0,4.3
			c0.1,0.9,0.6,1.2,2.3,1.2c0.3,2.2,0.2,2.2-2,2.2c-2.5,0-3.7-1.1-3.8-3.6C96,32.5,96.1,31.2,96.1,29.8z"/>
		<path d="M67.7,138.6c-1.1,0-2.1,0-3.2,0c0-4.8,0-9.5,0-14.3c1.1,0,2.1,0,3.2,0C67.7,129,67.7,133.8,67.7,138.6z"/>
		<path d="M86.2,37.1c0-3.3,0-6.5,0-9.8c1,0,1.9,0,2.9,0c0.1,0.4,0.1,0.9,0.2,1.4c1.6-1.7,2.2-2,4-1.5c0,0.9-0.1,1.7-0.1,2.7
			c-0.2,0-0.4,0.1-0.5,0.1c-1.9-0.2-2.9,0.6-3,2.6c0,0.8,0,1.5,0,2.3c0,0.7,0,1.4,0,2.2C88.4,37.1,87.3,37.1,86.2,37.1z"/>
		<path d="M139.9,131.4c-2.7-0.1-3.5,0.7-3.5,3.2c0,1.3,0,2.6,0,3.9c-1.2,0-2.2,0-3.3,0c0-3.2,0-6.4,0-9.7c1,0,1.9,0,2.9,0
			c0,0.4,0.1,0.8,0.2,1.4c1-1.5,2.2-2.1,3.8-1.7C139.9,129.5,139.9,130.4,139.9,131.4z"/>
		<path d="M107.1,37.1c-1.1,0-2.1,0-3.2,0c0-3.3,0-6.5,0-9.8c1.1,0,2.1,0,3.2,0C107.1,30.6,107.1,33.8,107.1,37.1z"/>
		<path d="M121.5,27.4c0,3.2,0,6.5,0,9.8c-1.1,0-2.2,0-3.3,0c0-3.3,0-6.5,0-9.8C119.3,27.4,120.4,27.4,121.5,27.4z"/>
		<path d="M120.5,131.9c0,0.8,0,1.6,0,2.4c-1.7,0-3.3,0-5,0c0-0.8,0-1.6,0-2.4C117.2,131.9,118.8,131.9,120.5,131.9z"/>
		<path d="M118.2,22.8c1.1,0,2.1,0,3.2,0c0,0.9,0,1.7,0,2.6c-1.1,0-2.1,0-3.2,0C118.2,24.6,118.2,23.8,118.2,22.8z"/>
		<path d="M107.1,22.9c0,0.9,0,1.7,0,2.6c-1.1,0-2.1,0-3.2,0c0-0.8,0-1.6,0-2.6C104.9,22.9,106,22.9,107.1,22.9z"/>
		<path d="M98.8,90.1c0-1.6,0-3.3,0-5c-1.2,0-2.4,0-3.6,0c0-1.6,0-3,0-4.6c3.2,0,6.4,0,9.7,0c0,0.3,0.1,0.6,0.1,0.9
			c0,3.9,0,7.8,0,11.8c0,0.6-0.1,1.1-0.8,1.2c-4.3,0.9-8.6,1.3-13,0.3c-5.4-1.2-8.5-4.5-9-10c-0.2-2.1-0.1-4.3,0.4-6.4
			c0.8-3.5,3-6,6.3-7.4c5.1-2.2,10.2-1.7,15.5-0.3c-0.2,1.7-0.4,3.3-0.5,4.8c-1.8-0.5-3.4-1.1-5.1-1.3c-1.7-0.1-3.5,0-5.1,0.5
			c-3.9,1.3-5.8,5.4-4.8,9.9C89.9,89.2,94.1,91.5,98.8,90.1z"/>
		<path d="M116.3,80c3,0,6,0,9,0c0,1.6,0,3.1,0,4.7c-3,0-6,0-9.1,0c0,3.4,0,6.6,0,9.9c-2.2,0-4.3,0-6.5,0c0-8.1,0-16.2,0-24.4
			c5.3,0,10.6,0,16,0c0,1.5,0,2.9,0,4.6c-3.1,0-6.2,0-9.4,0C116.3,76.5,116.3,78.1,116.3,80z"/>
	</g>
</g>
</svg>
