<?xml version="1.0" encoding="utf-8"?>
<!-- Generator: Adobe Illustrator 26.2.1, SVG Export Plug-In . SVG Version: 6.00 Build 0)  -->
<svg version="1.1" id="Capa_1" xmlns="http://www.w3.org/2000/svg" xmlns:xlink="http://www.w3.org/1999/xlink" x="0px" y="0px"
	 viewBox="0 0 208 161" style="enable-background:new 0 0 208 161;" xml:space="preserve">
<style type="text/css">
	.st0{fill:#95C11F;}
	.st1{fill:#FFFFFF;}
	.st2{fill:#1D1D1B;}
	.st3{fill:#EC9800;}
	.st4{fill:#319131;}
	.st5{fill:#65A92E;}
	.st6{fill:#00823C;}
	.st7{fill:#939596;}
	.st8{fill:#D7BF9F;}
	.st9{fill:none;stroke:#5D3A00;stroke-width:2.0113;stroke-miterlimit:3.864;}
	.st10{fill:#5D3A00;}
	.st11{fill-rule:evenodd;clip-rule:evenodd;fill:#FFE300;}
	.st12{fill-rule:evenodd;clip-rule:evenodd;fill:#008037;}
	.st13{fill-rule:evenodd;clip-rule:evenodd;fill:#1D1D1B;}
	.st14{fill:#BF1433;}
	.st15{clip-path:url(#SVGID_00000026157624076161406840000006199211424338191788_);}
	.st16{fill:none;}
	.st17{fill:#9F8A4F;}
	.st18{fill:#0090D9;}
	.st19{fill:#932F15;}
	.st20{fill-rule:evenodd;clip-rule:evenodd;fill:#FCDA00;}
	.st21{fill-rule:evenodd;clip-rule:evenodd;fill:#FFFFFF;}
	.st22{fill-rule:evenodd;clip-rule:evenodd;fill:#00864F;}
	.st23{fill:#7EB826;}
	.st24{fill:#FDFDFD;}
	.st25{fill:#FDFDFC;}
	.st26{fill:#FCFDFC;}
	.st27{fill:#EEF6E0;}
	.st28{fill:#DDF6B6;}
	.st29{fill:#C9EA95;}
	.st30{fill:#99C750;}
	.st31{fill:#ABCC77;}
	.st32{fill:#DAE6C2;}
	.st33{fill:#AFD277;}
	.st34{fill:#7FB826;}
	.st35{fill:#80B927;}
	.st36{fill:#80B928;}
	.st37{fill-rule:evenodd;clip-rule:evenodd;fill:#FFFFFF;stroke:#00305E;stroke-width:0.9598;stroke-miterlimit:2.6131;}
	.st38{fill:#00AA8D;}
	.st39{fill:#00305D;}
	.st40{fill:#00305E;}
	.st41{fill:#3D97D3;}
	.st42{fill:#FFEC00;}
	.st43{fill:#65B22E;}
	.st44{fill:#CE7400;}
	.st45{fill-rule:evenodd;clip-rule:evenodd;fill:#3D97D3;}
	.st46{fill:none;stroke:#1D1D1B;stroke-width:0.169;stroke-miterlimit:3.8637;}
	.st47{fill-rule:evenodd;clip-rule:evenodd;}
</style>
<g>
	<rect x="36" y="32.3" class="st0" width="135.2" height="96.7"/>
	<path class="st1" d="M88.7,54.7c1.4,0.1,2.2,0.2,3.6,0.4c0.5,0.1,0.9-0.2,1-0.5c0.2-1,0.4-1.5,0.6-2.6c0.1-0.3,0.3-0.3,0.5,0.1
		c0.6,1.1,0.9,1.7,1.5,2.9c0.2,0.4,0.7,0.8,1.2,0.8c1.3,0.3,1.8,0.4,3.4,0.9c0.4,0.1,0.5,0.3,0.2,0.5c-1,0.4-1.5,0.5-2.5,0.9
		c-0.3,0.1-0.4,0.6-0.3,1c0.6,1.2,0.8,1.8,1.3,3c0.2,0.4,0,0.5-0.4,0.1c-1.1-1-1.7-1.4-2.9-2.3c-0.4-0.3-1-0.4-1.3-0.2
		c-1,0.5-1.5,0.8-2.5,1.3c-0.3,0.2-0.5,0-0.4-0.3c0.3-1,0.4-1.6,0.6-2.6c0.1-0.3-0.2-0.8-0.6-1.1c-1.3-0.8-1.9-1.2-3.2-1.9
		C88.2,54.8,88.2,54.6,88.7,54.7z"/>
	<path class="st1" d="M74.6,65.7c1.7-0.4,2.3-0.5,3.9-0.7c0.5-0.1,1-0.4,1.1-0.7c0.4-1.1,0.5-1.6,0.9-2.6c0.1-0.3,0.3-0.4,0.5,0
		c0.6,1,0.8,1.5,1.4,2.5c0.2,0.3,0.7,0.6,1.2,0.6c1.5-0.1,1.9-0.2,3.4-0.3c0.4,0,0.5,0.2,0.2,0.4c-1.2,0.8-1.6,1.2-2.6,1.8
		c-0.3,0.2-0.5,0.6-0.3,1c0.5,1,0.8,1.5,1.3,2.6c0.2,0.4,0,0.4-0.4,0.2c-1.2-0.7-1.7-1-3-1.6c-0.4-0.2-1-0.2-1.4,0.1
		c-1.1,0.7-1.5,1-3,2c-0.4,0.3-0.6,0.2-0.5-0.2c0.5-1.3,0.7-1.7,1.1-2.7c0.1-0.4-0.1-0.8-0.5-0.9c-1.3-0.4-2-0.6-3.3-0.9
		C74,66,74.1,65.8,74.6,65.7z"/>
	<path class="st1" d="M67.2,79.7c1.6-0.1,2.3-0.2,3.8-0.2c0.5,0,1.1-0.3,1.3-0.6c0.7-1.1,1.1-1.6,1.8-2.7c0.2-0.3,0.5-0.3,0.5,0
		c0.1,1.1,0.2,1.7,0.3,2.8c0,0.4,0.4,0.7,0.8,0.7c1.5,0.2,1.7,0.3,3.2,0.6c0.4,0.1,0.4,0.3,0,0.4c-1.2,0.4-1.8,0.7-3.1,1.2
		c-0.4,0.2-0.8,0.6-0.8,1c0,1.1,0,1.7,0,2.9c0,0.4-0.2,0.5-0.5,0.2c-0.8-0.8-1.2-1.2-2-2c-0.3-0.3-0.9-0.3-1.3-0.1
		c-1.4,0.6-2.1,1-3.5,1.7c-0.5,0.2-0.6,0.1-0.3-0.2c0.8-1.1,1.3-1.7,2.1-2.8c0.3-0.4,0.2-0.8-0.1-1c-1-0.6-1.5-0.9-2.6-1.5
		C66.5,79.9,66.7,79.7,67.2,79.7z"/>
	<path class="st1" d="M92.4,98.3c-1,0.6-1.6,1-2.7,1.9c-0.4,0.3-0.6,0.8-0.5,1.3c0.3,1.3,0.4,2,0.7,3.4c0.1,0.5-0.1,0.6-0.4,0.3
		c-0.9-0.9-1.4-1.3-2.4-2.1c-0.3-0.3-0.9-0.2-1.2,0.1c-1.1,0.9-1.7,1.4-2.8,2.4c-0.4,0.3-0.5,0.2-0.4-0.3c0.5-1.4,0.8-2.2,1.3-3.5
		c0.2-0.4,0.1-1-0.3-1.2c-1-0.7-1.5-1-2.5-1.7c-0.3-0.2-0.2-0.4,0.2-0.5c1.3-0.2,2-0.2,3.3-0.4c0.4,0,0.9-0.4,1.1-0.8
		c0.5-1.3,0.7-1.9,1.2-3.2c0.2-0.4,0.4-0.4,0.5,0c0.3,1.2,0.5,1.8,0.7,3.1c0.1,0.4,0.5,0.7,0.9,0.7c1.3,0,1.9-0.1,3.1,0.1
		C92.7,97.9,92.7,98.1,92.4,98.3z"/>
	<path class="st1" d="M109.4,100.4c-0.9,0.3-1.4,0.5-2.3,0.8c-0.3,0.1-0.4,0.5-0.3,0.9c0.4,1.2,0.6,1.8,1,3c0.1,0.4,0,0.5-0.3,0.2
		c-1-0.9-1.5-1.4-2.4-2.4c-0.3-0.3-0.8-0.5-1.1-0.3c-0.9,0.4-1.4,0.6-2.4,1.1c-0.3,0.2-0.5,0-0.4-0.4c0.4-1.1,0.6-1.6,0.9-2.6
		c0.1-0.3,0-0.9-0.4-1.2c-0.9-1-1.4-1.5-2.3-2.5c-0.3-0.3-0.2-0.5,0.1-0.4c1.2,0.4,1.7,0.6,2.9,1c0.4,0.1,0.8,0,0.9-0.3
		c0.3-1,0.5-1.5,0.8-2.4c0.1-0.3,0.3-0.2,0.4,0.2c0.4,1.2,0.6,1.8,0.9,3c0.1,0.4,0.5,0.8,0.9,0.9c1.2,0.4,1.7,0.6,2.9,1
		C109.6,100.1,109.7,100.3,109.4,100.4z"/>
	<path class="st1" d="M124.6,95.6c-1,0.4-1.5,0.6-2.5,1c-0.3,0.1-0.4,0.5-0.3,0.9c0.5,1.2,0.8,1.7,1.3,2.9c0.2,0.4,0,0.4-0.4,0.2
		c-1.1-0.9-1.7-1.3-2.8-2.4c-0.4-0.3-0.9-0.5-1.2-0.4c-0.9,0.3-1.4,0.5-2.3,0.8c-0.3,0.1-0.5-0.1-0.4-0.4c0.3-1,0.4-1.5,0.7-2.4
		c0.1-0.3-0.1-0.9-0.4-1.2c-1.1-1.1-1.6-1.7-2.6-2.8c-0.3-0.4-0.3-0.5,0.1-0.3c1.2,0.5,1.8,0.8,3,1.3c0.4,0.2,0.8,0.1,0.9-0.3
		c0.3-1,0.4-1.4,0.8-2.4c0.1-0.3,0.3-0.2,0.4,0.2c0.4,1.3,0.7,1.9,1.1,3.1c0.2,0.4,0.6,0.9,1,1c1.3,0.5,1.9,0.5,3.3,0.8
		C124.8,95.3,124.9,95.4,124.6,95.6z"/>
	<path class="st1" d="M134.5,84.7c-1,0.7-1.4,1.1-2.4,1.7c-0.3,0.2-0.4,0.6-0.3,0.9c0.4,0.9,0.6,1.4,1.1,2.3c0.1,0.3,0,0.4-0.3,0.2
		c-1-0.6-1.5-0.9-2.4-1.5c-0.3-0.2-0.8-0.3-1.1-0.2c-0.9,0.4-1.3,0.6-2.1,1c-0.3,0.1-0.4,0-0.3-0.3c0.3-0.8,0.4-1.3,0.7-2.1
		c0.1-0.3-0.1-0.7-0.4-1c-0.9-0.8-1.4-1.3-2.3-2.1c-0.3-0.3-0.2-0.4,0.1-0.3c1.1,0.3,1.6,0.4,2.7,0.6c0.4,0.1,0.7-0.2,0.8-0.5
		c0.3-1,0.5-1.5,0.8-2.5c0.1-0.3,0.3-0.3,0.4,0c0.4,1.1,0.6,1.6,1,2.7c0.1,0.3,0.5,0.7,0.9,0.7c1.2,0.1,1.8,0.1,3,0
		C134.8,84.3,134.8,84.5,134.5,84.7z"/>
	<path class="st1" d="M142.6,68.3c-0.9,1-1.4,1.6-2.3,2.5c-0.3,0.3-0.5,0.8-0.4,1.1c0.3,0.9,0.5,1.3,0.8,2.1c0.1,0.3,0,0.4-0.3,0.4
		c-0.9-0.2-1.3-0.4-2.2-0.7c-0.3-0.1-0.8,0-1,0.3c-0.9,0.9-1.4,1.3-2.2,2.1c-0.3,0.3-0.4,0.2-0.3-0.2c0.3-1,0.5-1.6,0.9-2.7
		c0.1-0.4,0-0.8-0.3-0.9c-0.8-0.4-1.2-0.7-2-1.2c-0.3-0.2-0.2-0.3,0.1-0.4c1-0.2,1.6-0.3,2.6-0.6c0.3-0.1,0.7-0.5,0.8-0.9
		c0.4-1.2,0.6-1.7,1-2.9c0.1-0.4,0.3-0.4,0.4-0.1c0.3,1,0.4,1.5,0.7,2.4c0.1,0.3,0.5,0.4,0.8,0.3c1.1-0.4,1.7-0.6,2.8-1.1
		C142.8,67.8,142.9,68,142.6,68.3z"/>
	<path class="st1" d="M125.1,57.5c1,0.1,1.3,0.1,2.4,0c0.3,0,0.7-0.3,0.8-0.7c0.3-1.1,0.4-1.7,0.7-2.9c0.1-0.4,0.3-0.4,0.4-0.1
		c0.3,1.1,0.5,1.7,0.8,2.7c0.1,0.3,0.5,0.5,0.8,0.5c0.9,0,1.5,0,2.6-0.1c0.3,0,0.4,0.1,0.1,0.4c-0.8,0.7-1.3,0.9-2.1,1.6
		c-0.3,0.2-0.4,0.7-0.3,1c0.3,1,0.5,1.4,0.9,2.4c0.1,0.3,0,0.4-0.3,0.3c-0.8-0.5-1.2-0.7-2-1.2c-0.3-0.2-0.7-0.1-0.9,0.1
		c-0.8,0.7-1.1,1-1.9,1.6c-0.2,0.2-0.4,0.1-0.3-0.2c0.2-0.9,0.4-1.4,0.6-2.4c0.1-0.3-0.1-0.7-0.3-0.9c-0.8-0.6-1.2-1-2-1.7
		C124.7,57.6,124.7,57.4,125.1,57.5z"/>
	<path class="st1" d="M107.4,53.8c1.1,0.3,1.7,0.5,2.8,0.9c0.4,0.1,0.7,0,0.8-0.3c0.3-1,0.4-1.4,0.8-2.4c0.1-0.3,0.3-0.3,0.4,0.1
		c0.4,1.2,0.6,1.8,0.9,3c0.1,0.4,0.5,0.8,0.9,0.9c1.1,0.3,1.7,0.5,2.8,0.9c0.4,0.1,0.4,0.3,0.1,0.4c-0.9,0.4-1.4,0.6-2.2,0.9
		c-0.3,0.1-0.4,0.5-0.3,0.9c0.3,1.1,0.5,1.7,0.8,2.8c0.1,0.4,0,0.4-0.3,0.1c-0.8-0.9-1.3-1.4-2.1-2.3c-0.3-0.3-0.7-0.5-1-0.4
		c-0.8,0.3-1.3,0.4-2.1,0.7c-0.3,0.1-0.4-0.1-0.3-0.3c0.3-0.8,0.4-1.3,0.7-2.1c0.1-0.3-0.1-0.8-0.4-1.1c-0.9-0.9-1.4-1.4-2.3-2.3
		C107,53.8,107,53.7,107.4,53.8z"/>
	<path class="st1" d="M151.3,53.1c-0.8,0.8-1.2,1.2-2.1,2.1c-0.3,0.3-0.4,0.7-0.3,0.9c0.3,0.7,0.5,1.1,0.8,1.7
		c0.1,0.2,0,0.4-0.3,0.3c-0.9-0.1-1.3-0.2-2.2-0.3c-0.3-0.1-0.7,0.1-1.1,0.4c-0.9,0.9-1.4,1.4-2.3,2.3c-0.3,0.3-0.4,0.3-0.3-0.1
		c0.4-1,0.6-1.6,1-2.6c0.1-0.3,0-0.7-0.2-0.8c-0.8-0.3-1.2-0.4-2-0.8c-0.3-0.1-0.2-0.3,0.2-0.4c1.1-0.3,1.6-0.5,2.7-0.9
		c0.3-0.1,0.7-0.5,0.9-0.8c0.4-1.1,0.6-1.6,1-2.7c0.1-0.4,0.3-0.4,0.4-0.1c0.2,0.9,0.3,1.3,0.6,2.1c0.1,0.3,0.4,0.4,0.8,0.3
		c1-0.4,1.6-0.5,2.5-0.9C151.6,52.7,151.6,52.8,151.3,53.1z"/>
	<path class="st1" d="M115.3,72.1c0.6-0.2,0.7-0.5,0-0.5c-1.2,0.1-15.3,3.5-27.5,11.2c-13.3,8.3-17.3,12.4-20.1,14.8
		c-0.8,0.6-1.3,0.6-1.4,0.3c-0.5-1.3-0.7-2-1.1-3.2c-0.1-0.4-0.4-0.3-0.6,0.2c-0.5,1.8-0.7,2.8-1.2,4.4c-0.2,0.5-0.3,1.1-1.2,1.7
		c-1.7,1.3-2.1,1.6-3.2,2.3c-0.4,0.3-0.6,0.6,0.2,0.8c0.8,0.1,0.9,0.2,1.9,0.4c0.8,0.2,0.6,0.8,0.4,1.3c-0.3,1.5-0.5,2.1-0.9,3.6
		c-0.1,0.5,0,0.6,0.4,0.1c1.2-1.3,1.5-1.7,2.8-3.1c0.5-0.5,0.9-1.1,1.4-1c1.2,0.2,1.3,0.3,3,0.6c0.7,0.2,0.7-0.2,0.5-0.7
		c-0.6-1.5-0.5-1.3-0.9-2.6c-0.1-0.4-0.2-1.2,0.3-1.6c7-7.3,9.9-9.7,19.5-16.4C95,79.2,105.1,75,115.3,72.1z"/>
</g>
</svg>
