<?xml version="1.0" encoding="utf-8"?>
<!-- Generator: Adobe Illustrator 26.2.1, SVG Export Plug-In . SVG Version: 6.00 Build 0)  -->
<svg version="1.1" id="Capa_1" xmlns="http://www.w3.org/2000/svg" xmlns:xlink="http://www.w3.org/1999/xlink" x="0px" y="0px"
	 viewBox="0 0 208 161" style="enable-background:new 0 0 208 161;" xml:space="preserve">
<style type="text/css">
	.st0{fill:#95C11F;}
	.st1{fill:#FFFFFF;}
	.st2{fill:#1D1D1B;}
	.st3{fill:#EC9800;}
	.st4{fill:#319131;}
	.st5{fill:#65A92E;}
	.st6{fill:#00823C;}
	.st7{fill:#939596;}
	.st8{fill:#D7BF9F;}
	.st9{fill:none;stroke:#5D3A00;stroke-width:2.0113;stroke-miterlimit:3.864;}
	.st10{fill:#5D3A00;}
	.st11{fill-rule:evenodd;clip-rule:evenodd;fill:#FFE300;}
	.st12{fill-rule:evenodd;clip-rule:evenodd;fill:#008037;}
	.st13{fill-rule:evenodd;clip-rule:evenodd;fill:#1D1D1B;}
	.st14{fill:#BF1433;}
	.st15{clip-path:url(#SVGID_00000084495527009363440400000005199669954670319779_);}
	.st16{fill:none;}
	.st17{fill:#9F8A4F;}
	.st18{fill:#0090D9;}
	.st19{fill:#932F15;}
	.st20{fill-rule:evenodd;clip-rule:evenodd;fill:#FCDA00;}
	.st21{fill-rule:evenodd;clip-rule:evenodd;fill:#FFFFFF;}
	.st22{fill-rule:evenodd;clip-rule:evenodd;fill:#00864F;}
	.st23{fill:#7EB826;}
	.st24{fill:#FDFDFD;}
	.st25{fill:#FDFDFC;}
	.st26{fill:#FCFDFC;}
	.st27{fill:#EEF6E0;}
	.st28{fill:#DDF6B6;}
	.st29{fill:#C9EA95;}
	.st30{fill:#99C750;}
	.st31{fill:#ABCC77;}
	.st32{fill:#DAE6C2;}
	.st33{fill:#AFD277;}
	.st34{fill:#7FB826;}
	.st35{fill:#80B927;}
	.st36{fill:#80B928;}
	.st37{fill-rule:evenodd;clip-rule:evenodd;fill:#FFFFFF;stroke:#00305E;stroke-width:0.9598;stroke-miterlimit:2.6131;}
	.st38{fill:#00AA8D;}
	.st39{fill:#00305D;}
	.st40{fill:#00305E;}
	.st41{fill:#3D97D3;}
	.st42{fill:#FFEC00;}
	.st43{fill:#65B22E;}
	.st44{fill:#CE7400;}
	.st45{fill-rule:evenodd;clip-rule:evenodd;fill:#3D97D3;}
	.st46{fill:none;stroke:#1D1D1B;stroke-width:0.169;stroke-miterlimit:3.8637;}
	.st47{fill-rule:evenodd;clip-rule:evenodd;}
</style>
<g>
	<path class="st18" d="M48.8,77.1c0-29.3,24.2-53.1,54-53.1c29.8,0,54,23.8,54,53.1c0,10.5-3.1,20.4-8.5,28.6h9.8V141H48v-35.2h9.3
		C51.9,97.5,48.8,87.6,48.8,77.1z"/>
	<path class="st19" d="M51,77.7c0-28.4,23.2-51.4,51.9-51.4s51.9,23,51.9,51.4c0,11.3-3.7,21.8-10,30.3l11.2,0v31.1H50.6V108l10.3,0
		l-0.1-0.1C54.6,99.4,51,89,51,77.7z"/>
	<path class="st20" d="M71.7,76.4c0-17.1,13.9-31,31.1-31c17.2,0,31.1,13.9,31.1,31c0,9.6-4.4,18.7-11.2,24.4
		c0.1,2.9,0.1,2.3,0.2,5.1c-9.5-0.1-14.5,0-20,0c-5.6,0-12.4,0-19.7,0c0.3-4.9,0.3-4.9,0.3-5.1C76.4,95.1,71.7,86.1,71.7,76.4z"/>
	<g>
		<path class="st21" d="M71.2,136.2v-4H73c0.4,0,0.8,0.1,1.1,0.2c0.3,0.1,0.5,0.3,0.7,0.7c0.2,0.3,0.3,0.7,0.3,1.1
			c0,0.3,0,0.6-0.1,0.8c-0.1,0.2-0.2,0.4-0.3,0.6c-0.1,0.2-0.2,0.3-0.4,0.4c-0.1,0.1-0.3,0.2-0.5,0.2c-0.2,0.1-0.5,0.1-0.8,0.1H71.2
			z M72.4,135.2l0.3,0c0.2,0,0.4,0,0.6-0.1c0.1-0.1,0.2-0.2,0.3-0.3c0.1-0.2,0.1-0.4,0.1-0.6c0-0.1,0-0.3,0-0.4
			c0-0.1-0.1-0.2-0.1-0.3c-0.1-0.1-0.1-0.1-0.2-0.2c-0.1-0.1-0.3-0.1-0.5-0.1h-0.3V135.2z"/>
		<polygon class="st21" points="75.6,136.2 75.6,132.2 78.9,132.2 78.9,133.2 76.9,133.2 76.9,133.7 78.6,133.7 78.6,134.6 
			76.9,134.6 76.9,135.3 79,135.3 79,136.2 		"/>
		<path class="st21" d="M81.4,134.5h1.2c0,0.1,0,0.1,0,0.2c0,0.2,0,0.3,0,0.4c0,0.1,0.1,0.1,0.1,0.2c0.1,0,0.1,0.1,0.2,0.1
			c0.1,0,0.2,0,0.2-0.1c0.1-0.1,0.1-0.2,0.1-0.3v-2.7h1.3v2.5c0,0.5-0.1,0.9-0.4,1.2c-0.3,0.3-0.7,0.4-1.2,0.4c-0.3,0-0.5,0-0.7-0.1
			c-0.1,0-0.3-0.1-0.4-0.2c-0.1-0.1-0.2-0.2-0.3-0.3c-0.1-0.1-0.1-0.3-0.2-0.4C81.4,135.1,81.4,134.8,81.4,134.5z"/>
		<path class="st21" d="M85.4,132.2h1.3v2.5c0,0.2,0,0.3,0.1,0.4c0,0.1,0.1,0.2,0.2,0.2c0.1,0.1,0.2,0.1,0.4,0.1
			c0.2,0,0.3-0.1,0.5-0.2c0.1-0.1,0.2-0.3,0.2-0.5v-2.5h1.3v2.3c0,0.3,0,0.5-0.1,0.7c0,0.2-0.1,0.3-0.2,0.5
			c-0.1,0.1-0.2,0.2-0.4,0.3c-0.2,0.1-0.3,0.2-0.5,0.2c-0.2,0-0.4,0.1-0.7,0.1c-0.3,0-0.5,0-0.7-0.1c-0.2,0-0.4-0.1-0.5-0.2
			c-0.2-0.1-0.3-0.2-0.4-0.3c-0.1-0.1-0.2-0.3-0.2-0.5c0-0.1-0.1-0.4-0.1-0.6V132.2z"/>
		<polygon class="st21" points="90.1,136.2 90.1,132.2 91.4,132.2 92.8,134.4 92.8,132.2 94,132.2 94,136.2 92.8,136.2 91.4,134.1 
			91.4,136.2 		"/>
		<polygon class="st21" points="94.6,132.2 98.3,132.2 98.3,133.3 97.2,133.3 97.2,136.2 95.8,136.2 95.8,133.3 94.6,133.3 		"/>
		<path class="st21" d="M98.6,136.2l1.4-4h1.3l1.4,4h-1.3l-0.2-0.5H100l-0.1,0.5H98.6z M100.7,133.4l-0.4,1.5h0.8L100.7,133.4z"/>
		<rect x="105.3" y="132.2" class="st21" width="1.3" height="4"/>
		<path class="st21" d="M110.8,133.4h-1.3c0-0.1-0.1-0.2-0.2-0.3c-0.1-0.1-0.2-0.1-0.4-0.1c-0.1,0-0.3,0-0.3,0.1
			c-0.1,0-0.1,0.1-0.1,0.2c0,0.1,0,0.1,0.1,0.2c0.1,0.1,0.2,0.1,0.4,0.2l0.5,0.1c0.5,0.1,0.8,0.3,1,0.5c0.2,0.2,0.3,0.5,0.3,0.7
			c0,0.2,0,0.4-0.2,0.6c-0.1,0.2-0.2,0.3-0.4,0.4c-0.1,0.1-0.3,0.2-0.6,0.2c-0.2,0.1-0.5,0.1-0.7,0.1c-0.3,0-0.5,0-0.8-0.1
			c-0.2-0.1-0.4-0.2-0.6-0.3c-0.2-0.1-0.3-0.3-0.4-0.5c-0.1-0.1-0.1-0.3-0.1-0.5h1.3c0,0.1,0.1,0.2,0.2,0.3c0.1,0.1,0.2,0.1,0.5,0.1
			c0.2,0,0.3,0,0.4-0.1c0.1,0,0.1-0.1,0.1-0.2c0-0.1,0-0.1-0.1-0.2c-0.1,0-0.2-0.1-0.4-0.2l-0.5-0.1c-0.2-0.1-0.5-0.1-0.7-0.2
			c-0.2-0.1-0.4-0.2-0.5-0.4c-0.1-0.2-0.2-0.4-0.2-0.6c0-0.2,0-0.4,0.1-0.6c0.1-0.2,0.2-0.3,0.4-0.4c0.2-0.1,0.3-0.2,0.5-0.2
			c0.2,0,0.4-0.1,0.6-0.1c0.3,0,0.5,0,0.7,0.1c0.2,0,0.4,0.1,0.5,0.2c0.1,0.1,0.2,0.2,0.3,0.3c0.1,0.1,0.1,0.2,0.2,0.3
			C110.8,133.1,110.8,133.2,110.8,133.4z"/>
		<polygon class="st21" points="111.6,136.2 111.6,132.2 112.9,132.2 112.9,135.2 114.7,135.2 114.7,136.2 		"/>
		<path class="st21" d="M115,136.2l1.4-4h1.3l1.4,4h-1.3l-0.2-0.5h-1.3l-0.1,0.5H115z M117.1,133.4l-0.4,1.5h0.8L117.1,133.4z"/>
		<polygon class="st21" points="119.7,136.2 119.7,132.2 121.3,132.2 122,134.7 122.7,132.2 124.3,132.2 124.3,136.2 123.1,136.2 
			123.1,134 122.5,136.2 121.6,136.2 120.9,134 120.9,136.2 		"/>
		<rect x="125.2" y="132.2" class="st21" width="1.3" height="4"/>
		<path class="st21" d="M131.1,133.7h-1.2c0-0.2-0.1-0.4-0.2-0.5c-0.1-0.1-0.3-0.2-0.5-0.2c-0.2,0-0.4,0.1-0.6,0.3
			c-0.1,0.2-0.2,0.5-0.2,0.9c0,0.3,0,0.5,0.1,0.6c0.1,0.1,0.1,0.3,0.3,0.3c0.1,0.1,0.3,0.1,0.4,0.1c0.2,0,0.4-0.1,0.5-0.2
			c0.1-0.1,0.2-0.3,0.2-0.5h1.3c0,0.2-0.1,0.5-0.1,0.6c-0.1,0.2-0.2,0.3-0.4,0.5c-0.2,0.2-0.4,0.3-0.6,0.4c-0.2,0.1-0.5,0.1-0.8,0.1
			c-0.3,0-0.6,0-0.9-0.1c-0.3-0.1-0.5-0.2-0.7-0.4c-0.2-0.2-0.3-0.4-0.4-0.6c-0.1-0.3-0.2-0.6-0.2-1c0-0.3,0.1-0.6,0.2-0.9
			c0.1-0.3,0.2-0.5,0.4-0.7c0.2-0.2,0.4-0.3,0.6-0.4c0.3-0.1,0.6-0.2,0.9-0.2c0.3,0,0.6,0,0.8,0.1c0.3,0.1,0.5,0.2,0.6,0.4
			c0.2,0.2,0.3,0.4,0.4,0.6C131.1,133.3,131.1,133.5,131.1,133.7z"/>
		<path class="st21" d="M131.4,136.2l1.4-4h1.3l1.4,4h-1.3l-0.2-0.5h-1.3l-0.1,0.5H131.4z M133.5,133.4l-0.4,1.5h0.8L133.5,133.4z"
			/>
	</g>
	<g>
		<polygon class="st21" points="62.2,127.2 62.2,110.7 67.6,110.7 67.6,116.3 72.7,116.3 72.7,110.7 78.1,110.7 78.1,127.2 
			72.7,127.2 72.7,120.8 67.6,120.8 67.6,127.2 		"/>
		<path class="st21" d="M80.1,127.2l5.9-16.6h5.5l5.9,16.6h-5.4l-0.6-2.2h-5.4l-0.6,2.2H80.1z M88.8,115.7l-1.7,6h3.5L88.8,115.7z"
			/>
		<polygon class="st21" points="99.8,127.2 99.8,110.7 105.3,110.7 105.3,122.9 112.7,122.9 112.7,127.2 		"/>
		<path class="st21" d="M113.9,127.2l5.9-16.6h5.5l5.9,16.6h-5.4l-0.6-2.2h-5.4l-0.6,2.2H113.9z M122.5,115.7l-1.7,6h3.5
			L122.5,115.7z"/>
		<polygon class="st21" points="133.6,127.2 133.6,110.7 139,110.7 139,122.9 146.5,122.9 146.5,127.2 		"/>
	</g>
	<g>
		<path class="st21" d="M63.3,66.4l-0.9,5.8l2.7,0.4l0.3-1.9c0.8,0.4,1.2,1.6,1.1,2.4c-0.3,2.1-2,2.5-3.8,2.2
			c-2.2-0.4-3.5-1.4-3.3-3.1c0.2-1.1,0.8-1.8,1.9-1.9l0.6-4c-3.1,0-5.1,2.3-5.6,5.4c-0.6,4.2,1.7,7.3,5.7,7.9
			c4.3,0.7,6.8-1.9,7.4-5.2c0.3-2-0.2-3.3-0.9-4.2l1.3,0l0.4-2.7L63.3,66.4z"/>
		<path class="st21" d="M72.1,55l-1.5,2.2l-3-3.8L72.1,55z M73.4,60.9l-1.1-1.4l2.4-3.5l1.6,0.6l2.4-3.5l-12.9-3.7L63.3,53l7.7,11.4
			L73.4,60.9z"/>
		<path class="st21" d="M79.7,40.1l1.7-1c0.8-0.5,1.7-0.5,2.1,0.3c0.4,0.8,0,1.4-1.1,2.1l-1.4,0.9L79.7,40.1z M83.4,44.2
			c1.7-1,2.2-0.7,3,0.8c0.6,1,1.1,1.7,1.3,1.9l3.6-2.2l-0.2-0.3c-0.4,0.3-0.7-0.3-1.5-1.8c-1.3-2.3-2.1-2.2-3.5-1.9
			c1.1-1.1,1-2.6,0.3-3.9c-1.2-2.2-3-2.5-6.6-0.3l-5.2,3.1L80.9,51l3.6-2.2l-2.2-4L83.4,44.2z"/>
		<path class="st21" d="M101.4,39.1l-2.6,0.2l1-4.8L101.4,39.1z M97.8,43.8l0.4-1.8l4.1-0.3l0.6,1.7l4.1-0.3l-5.4-12.8l-4.2,0.3
			l-3.6,13.5L97.8,43.8z"/>
		<polygon class="st21" points="118.6,33.4 115.1,31.8 110.2,44 113.8,45.6 115.4,41.7 116.3,38.9 117.8,47.4 121.4,48.9 
			126.3,36.8 122.6,35.2 121.1,39.1 120.1,41.9 		"/>
		<polygon class="st21" points="131.1,44.9 133.5,47.8 126.5,54.2 129.2,57.4 136.2,51.1 138.7,54 141.2,51.7 133.6,42.6 		"/>
		<polygon class="st21" points="134.5,67.2 146,61.8 144.3,57.9 132.8,63.3 		"/>
		<path class="st21" d="M140.9,77.5l-0.3-2.7l4.6,0.8L140.9,77.5z M136.2,74l1.7,0.3l0.4,4.3l-1.6,0.7l0.4,4.3l12.1-6.1l-0.4-4.4
			l-13-3.3L136.2,74z"/>
	</g>
	<path class="st22" d="M92.4,65.9l5.3-2.5v25.4c0,0-0.5,3-2,4c-1.5,1-2.9,2.3-6.4,1.7c-3.5-0.6-6.3-6.4-6.3-6.4l-0.9-0.7l5.1-4
		l0.4,1.2c0,0-0.4,6.2,2.7,6.3c2.4,0.1,3-1.5,3.4-2.3c0.4-0.8,0.4-21.3,0.4-21.3L92.4,65.9z"/>
	<path class="st22" d="M104.2,81.9l-1.2,1.3l0.1,0.7h3.2L104.2,81.9z M100.8,71.6l3.6-1.4l0.1,7.4l1,1.1l1.3-1.1l0.1-8.1l2.5-1
		l0.3,9.2l-2.9,2.5l3.4,3.6l10.1-0.1c0,0-0.4-1.4-1.7-2.4c-1.3-1.1-1.5-1.2-1.5-1.2s-0.9,1.6-1.5,1.6s-2-0.8-2.3-1.5
		c-0.3-0.7-0.6-1.5,0.1-2.4c0.7-1,2.5-2,4.2-0.9c1.7,1.1,4.5,6.9,4.5,6.9l1-0.3l0.2,5.3l-1.8-1.3L121,87l-19.6,0.4l-1.7-2.7v-1.3
		l3.7-3.2l-2.2-2v-5.4l-1-0.5L100.8,71.6z"/>
</g>
</svg>
