<?xml version="1.0" encoding="utf-8"?>
<!-- Generator: Adobe Illustrator 26.2.1, SVG Export Plug-In . SVG Version: 6.00 Build 0)  -->
<svg version="1.1" id="Capa_1" xmlns="http://www.w3.org/2000/svg" xmlns:xlink="http://www.w3.org/1999/xlink" x="0px" y="0px"
	 viewBox="0 0 208 161" style="enable-background:new 0 0 208 161;" xml:space="preserve">
<style type="text/css">
	.st0{fill:#95C11F;}
	.st1{fill:#FFFFFF;}
	.st2{fill:#1D1D1B;}
	.st3{fill:#EC9800;}
	.st4{fill:#319131;}
	.st5{fill:#65A92E;}
	.st6{fill:#00823C;}
	.st7{fill:#939596;}
	.st8{fill:#D7BF9F;}
	.st9{fill:none;stroke:#5D3A00;stroke-width:2.0113;stroke-miterlimit:3.864;}
	.st10{fill:#5D3A00;}
	.st11{fill-rule:evenodd;clip-rule:evenodd;fill:#FFE300;}
	.st12{fill-rule:evenodd;clip-rule:evenodd;fill:#008037;}
	.st13{fill-rule:evenodd;clip-rule:evenodd;fill:#1D1D1B;}
	.st14{fill:#BF1433;}
	.st15{clip-path:url(#SVGID_00000148661149466566970930000005700570501158703037_);}
	.st16{fill:none;}
	.st17{fill:#9F8A4F;}
	.st18{fill:#0090D9;}
	.st19{fill:#932F15;}
	.st20{fill-rule:evenodd;clip-rule:evenodd;fill:#FCDA00;}
	.st21{fill-rule:evenodd;clip-rule:evenodd;fill:#FFFFFF;}
	.st22{fill-rule:evenodd;clip-rule:evenodd;fill:#00864F;}
	.st23{fill:#7EB826;}
	.st24{fill:#FDFDFD;}
	.st25{fill:#FDFDFC;}
	.st26{fill:#FCFDFC;}
	.st27{fill:#EEF6E0;}
	.st28{fill:#DDF6B6;}
	.st29{fill:#C9EA95;}
	.st30{fill:#99C750;}
	.st31{fill:#ABCC77;}
	.st32{fill:#DAE6C2;}
	.st33{fill:#AFD277;}
	.st34{fill:#7FB826;}
	.st35{fill:#80B927;}
	.st36{fill:#80B928;}
	.st37{fill-rule:evenodd;clip-rule:evenodd;fill:#FFFFFF;stroke:#00305E;stroke-width:0.9598;stroke-miterlimit:2.6131;}
	.st38{fill:#00AA8D;}
	.st39{fill:#00305D;}
	.st40{fill:#00305E;}
	.st41{fill:#3D97D3;}
	.st42{fill:#FFEC00;}
	.st43{fill:#65B22E;}
	.st44{fill:#CE7400;}
	.st45{fill-rule:evenodd;clip-rule:evenodd;fill:#3D97D3;}
	.st46{fill:none;stroke:#1D1D1B;stroke-width:0.169;stroke-miterlimit:3.8637;}
	.st47{fill-rule:evenodd;clip-rule:evenodd;}
</style>
<g>
	<path class="st6" d="M58.2,80.4c0-26.8,21.2-48.6,47.5-48.6s47.5,21.7,47.5,48.6c0,26.8-21.2,48.6-47.5,48.6S58.2,107.3,58.2,80.4
		 M75.6,80.4c0,17,13.5,30.8,30.1,30.8c16.6,0,30.1-13.8,30.1-30.8c0-17-13.5-30.8-30.1-30.8C89.1,49.6,75.6,63.4,75.6,80.4"/>
	<g>
		<path class="st1" d="M61.7,81.5l0-1l10.6-0.2l0,1L61.7,81.5z"/>
	</g>
	<g>
		<path class="st1" d="M61.6,77.6L62,75c0.4-3.1,2.4-3.7,5.8-3.2c3.4,0.5,5.2,1.5,4.7,4.6L72.2,79L61.6,77.6z M71.5,77.9l0.2-1.6
			c0.3-2.1-0.6-3.2-4.1-3.6c-3.5-0.5-4.6,0.3-4.9,2.4l-0.2,1.6L71.5,77.9z"/>
	</g>
	<g>
		<path class="st1" d="M63.5,67.8l1.8-5.1L66,63l-1.5,4.2l3.7,1.3l1.4-3.9l0.8,0.3L69,68.8l4.1,1.5l1.5-4.3l0.8,0.3l-1.8,5.2
			L63.5,67.8z"/>
	</g>
	<g>
		<path class="st1" d="M66.3,59.8l0.7-1.1L77,60l0,0l-8-4.9l0.5-0.8l9.1,5.6L78.1,61L68,59.7l0,0l8,4.9l-0.5,0.8L66.3,59.8z"/>
	</g>
	<g>
		<path class="st1" d="M73.6,50.7l-1.9,2.1l-0.6-0.6l4.4-4.8l0.6,0.6L74.3,50l7.3,6.8l-0.7,0.7L73.6,50.7z"/>
	</g>
	<g>
		<path class="st1" d="M77.1,46.1l0.8-0.7l6.8,8.3l-0.8,0.7L77.1,46.1z"/>
	</g>
	<g>
		<path class="st1" d="M82.2,43.3l-2.3,1.5l-0.4-0.7l5.5-3.5l0.4,0.7L83,42.8l5.3,8.5l-0.8,0.5L82.2,43.3z"/>
	</g>
	<g>
		<path class="st1" d="M91.2,44.8l-5.1-5l0.9-0.4l4.2,4.2l0.2-5.9l0.9-0.4l-0.3,7.2l1.6,4.1l-0.9,0.4L91.2,44.8z"/>
	</g>
	<g>
		<path class="st1" d="M100.5,35.6l2.9-0.2c2.1-0.1,3,1.1,3.1,2.9c0.1,1.7-0.7,3.1-3.1,3.3l-1.6,0.1l0.3,4.7l-1,0.1L100.5,35.6z
			 M101.8,40.9l1.6-0.1c1.3-0.1,2.2-0.7,2.1-2.4c-0.1-1.6-0.9-2.2-2.4-2.1l-1.6,0.1L101.8,40.9z"/>
	</g>
	<g>
		<path class="st1" d="M109.3,35.4l3.1,0.5c1.8,0.3,2.6,1.4,2.3,3.1c-0.2,1.3-0.9,2.4-2.3,2.4l0,0c1.3,0.3,1.6,1.2,1.4,2.8l-0.1,1.2
			c-0.1,0.6-0.1,1.2,0.2,1.6l-1.1-0.2c-0.2-0.4-0.1-1-0.1-1.5l0.1-0.9c0.2-1.9,0-2.6-1.7-2.8l-1.8-0.3l-0.7,4.9l-0.9-0.1L109.3,35.4
			z M109.5,40.6l1.6,0.2c1.5,0.2,2.5-0.3,2.7-1.8c0.2-1.3-0.2-2.2-2-2.4l-1.7-0.3L109.5,40.6z"/>
	</g>
	<g>
		<path class="st1" d="M118.2,37.3l5,1.8l-0.3,0.8l-4.1-1.5l-1.3,3.7l3.8,1.4l-0.3,0.8l-3.8-1.4l-1.5,4.2l4.2,1.5l-0.3,0.8l-5.1-1.9
			L118.2,37.3z"/>
	</g>
	<g>
		<path class="st1" d="M128.4,45.1c0.7-1.2,0.6-2.2-0.6-2.8c-1.1-0.7-2.2-0.3-2.7,0.6c-1.6,2.8,3.7,3.9,1.8,7.2
			c-1.1,1.8-2.7,2.1-4.4,1.1c-1.7-1-2.1-2.6-1.1-4.4l0.2-0.3l0.8,0.5l-0.2,0.4c-0.7,1.2-0.5,2.4,0.7,3.1c1.2,0.7,2.3,0.6,3.1-0.7
			c1.6-2.8-3.8-3.9-1.8-7.3c0.9-1.5,2.4-1.9,4-0.9c1.7,1,2,2.4,1,4.1L128.4,45.1z"/>
	</g>
	<g>
		<path class="st1" d="M133.1,45.1l4,3.6l-0.5,0.6l-3.3-2.9l-2.6,3l3.1,2.8l-0.5,0.6l-3.1-2.8l-2.9,3.3l3.4,3l-0.5,0.6l-4.1-3.7
			L133.1,45.1z"/>
	</g>
	<g>
		<path class="st1" d="M139,51l1.9,2.6c1.1,1.5,0.9,2.9-0.4,3.9c-1,0.8-2.3,1.1-3.3,0.1l0,0c0.7,1.2,0.4,2-0.9,3l-0.9,0.7
			c-0.5,0.4-0.9,0.8-1,1.3l-0.7-0.9c0.2-0.4,0.6-0.8,1-1.1l0.7-0.6c1.5-1.2,1.7-1.9,0.7-3.3l-1.1-1.5l-3.9,3l-0.6-0.8L139,51z
			 M135.6,54.8l1,1.3c0.9,1.2,2,1.5,3.1,0.7c1-0.8,1.3-1.7,0.3-3.2l-1.1-1.4L135.6,54.8z"/>
	</g>
	<g>
		<path class="st1" d="M143.9,57.8l0.4,0.9l-7.7,6.4l0,0l9.7-2.1l0.4,0.9L136,66.2l-0.5-1.1L143.9,57.8z"/>
	</g>
	<g>
		<path class="st1" d="M147.5,66.4l1.4,5.2l-0.8,0.2l-1.1-4.3l-3.7,1l1.1,4l-0.8,0.2l-1.1-4l-4.2,1.1l1.2,4.4l-0.8,0.2l-1.4-5.4
			L147.5,66.4z"/>
	</g>
	<g>
		<path class="st1" d="M149.4,74.6l0.1,2.6c0.2,3.2-1.6,4.1-5.1,4.3s-5.4-0.5-5.5-3.6l-0.1-2.6L149.4,74.6z M139.6,76.2l0.1,1.6
			c0.1,2.1,1.2,3,4.7,2.8c3.5-0.2,4.5-1.2,4.4-3.3l-0.1-1.6L139.6,76.2z"/>
	</g>
	<g>
		<path class="st1" d="M78.9,115.1L78.9,115.1c-1.1,0.4-1.9,0.4-2.9-0.5c-1.9-1.7-1.3-3.7,1.4-6.7c2.7-3.1,4.7-3.7,6.7-1.9
			c2.1,1.9,1,3.9,0.3,4.7l-0.1,0.2l-1.3-1.2l0.2-0.2c0.6-0.6,1-1.6,0-2.5c-1-0.9-2-0.7-4.4,2.1c-2.4,2.8-2.6,3.9-1.6,4.7
			c1,0.9,2.1,0.5,3.7-1.4l-1.4-1.3l0.9-1l2.7,2.4L79,117l-1-0.9L78.9,115.1z"/>
	</g>
	<g>
		<path class="st1" d="M87.1,109.1l2.5,1.2l-1.8,8.6l0,0l5.4-6.8l2.5,1.2l-4.9,10.4l-1.5-0.7l4.1-8.6l0,0l-6.1,7.6l-1.4-0.7l2-9.6
			l0,0l-4.1,8.6l-1.5-0.7L87.1,109.1z"/>
	</g>
	<g>
		<path class="st1" d="M95.4,119c0.7-4,2.1-5.7,4.6-5.3c2.5,0.4,3.4,2.5,2.7,6.5c-0.7,4-2.1,5.7-4.6,5.3
			C95.6,125.1,94.7,123.1,95.4,119z M101,119.9c0.6-3.8-0.1-4.6-1.2-4.8s-2,0.3-2.6,4.2c-0.6,3.9,0.1,4.7,1.1,4.9
			S100.3,123.8,101,119.9z"/>
	</g>
	<g>
		<path class="st1" d="M108.7,114.4l5.9-1.1l0.3,1.5l-4.1,0.7l0.5,3.1l3.9-0.7l0.3,1.5l-3.9,0.7l0.9,5.1l-1.8,0.3L108.7,114.4z"/>
	</g>
	<g>
		<path class="st1" d="M116.4,115.5l1.6-0.6l0.5,1.3l0,0c0-1,0.4-1.8,1.3-2.2c0.2-0.1,0.3-0.1,0.4-0.1l0.6,1.7
			c-0.1,0-0.4,0.1-0.7,0.2c-0.7,0.3-1.5,0.9-0.9,2.4l1.8,4.9l-1.6,0.6L116.4,115.5z"/>
	</g>
	<g>
		<path class="st1" d="M124.9,116.9l0.2,0.4c0.6,1,1.4,2.2,2.5,1.5c1.1-0.6,0.5-1.9,0.2-2.4l1.4-0.8c1,1.7,0.6,3.3-1,4.2
			c-1.2,0.7-2.9,1.2-4.9-2.2c-1.1-2-1.9-4.3,0.4-5.7c2.1-1.2,3.3-0.3,4.5,1.8l0.5,0.8L124.9,116.9z M126.6,114.5l-0.2-0.4
			c-0.5-0.9-1.3-1.5-2.1-1c-0.9,0.6-0.7,1.7-0.1,2.6l0.1,0.2L126.6,114.5z"/>
	</g>
	<g>
		<path class="st1" d="M131.8,112.1l0.3,0.4c0.8,0.9,1.9,1.9,2.8,1c0.9-0.8,0.1-2-0.3-2.4l1.2-1.1c1.3,1.4,1.2,3.1-0.2,4.4
			c-1,1-2.6,1.8-5.2-1.1c-1.5-1.7-2.8-3.8-0.8-5.6c1.8-1.6,3.2-1,4.8,0.8l0.6,0.7L131.8,112.1z M133.1,109.3l-0.3-0.3
			c-0.7-0.8-1.5-1.2-2.3-0.5c-0.8,0.7-0.3,1.8,0.4,2.6l0.1,0.1L133.1,109.3z"/>
	</g>
	<g>
		<path class="st6" d="M88.1,63.3h9.3V94h-9.3V63.3z"/>
	</g>
	<g>
		<path class="st2" d="M102.1,71.3h15.5c8.2,0,11,6.1,11,10.5c0,7.5-4.9,10.9-11.8,10.9h-5.5v9.3h-9.3V71.3z M111.4,85.4h3.6
			c2.4,0,4.9-0.2,4.9-3.3c0-2.8-2.1-3-4.4-3h-4.1V85.4z"/>
	</g>
</g>
</svg>
