<?xml version="1.0" encoding="utf-8"?>
<!-- Generator: Adobe Illustrator 26.2.1, SVG Export Plug-In . SVG Version: 6.00 Build 0)  -->
<svg version="1.1" id="Capa_1" xmlns="http://www.w3.org/2000/svg" xmlns:xlink="http://www.w3.org/1999/xlink" x="0px" y="0px"
	 viewBox="0 0 208 161" style="enable-background:new 0 0 208 161;" xml:space="preserve">
<style type="text/css">
	.st0{fill:#95C11F;}
	.st1{fill:#FFFFFF;}
	.st2{fill:#1D1D1B;}
	.st3{fill:#EC9800;}
	.st4{fill:#319131;}
	.st5{fill:#65A92E;}
	.st6{fill:#00823C;}
	.st7{fill:#939596;}
	.st8{fill:#D7BF9F;}
	.st9{fill:none;stroke:#5D3A00;stroke-width:2.0113;stroke-miterlimit:3.864;}
	.st10{fill:#5D3A00;}
	.st11{fill-rule:evenodd;clip-rule:evenodd;fill:#FFE300;}
	.st12{fill-rule:evenodd;clip-rule:evenodd;fill:#008037;}
	.st13{fill-rule:evenodd;clip-rule:evenodd;fill:#1D1D1B;}
	.st14{fill:#BF1433;}
	.st15{clip-path:url(#SVGID_00000047766607339847915850000017366749068289601171_);}
	.st16{fill:none;}
	.st17{fill:#9F8A4F;}
	.st18{fill:#0090D9;}
	.st19{fill:#932F15;}
	.st20{fill-rule:evenodd;clip-rule:evenodd;fill:#FCDA00;}
	.st21{fill-rule:evenodd;clip-rule:evenodd;fill:#FFFFFF;}
	.st22{fill-rule:evenodd;clip-rule:evenodd;fill:#00864F;}
	.st23{fill:#7EB826;}
	.st24{fill:#FDFDFD;}
	.st25{fill:#FDFDFC;}
	.st26{fill:#FCFDFC;}
	.st27{fill:#EEF6E0;}
	.st28{fill:#DDF6B6;}
	.st29{fill:#C9EA95;}
	.st30{fill:#99C750;}
	.st31{fill:#ABCC77;}
	.st32{fill:#DAE6C2;}
	.st33{fill:#AFD277;}
	.st34{fill:#7FB826;}
	.st35{fill:#80B927;}
	.st36{fill:#80B928;}
	.st37{fill-rule:evenodd;clip-rule:evenodd;fill:#FFFFFF;stroke:#00305E;stroke-width:0.9598;stroke-miterlimit:2.6131;}
	.st38{fill:#00AA8D;}
	.st39{fill:#00305D;}
	.st40{fill:#00305E;}
	.st41{fill:#3D97D3;}
	.st42{fill:#FFEC00;}
	.st43{fill:#65B22E;}
	.st44{fill:#CE7400;}
	.st45{fill-rule:evenodd;clip-rule:evenodd;fill:#3D97D3;}
	.st46{fill:none;stroke:#1D1D1B;stroke-width:0.169;stroke-miterlimit:3.8637;}
	.st47{fill-rule:evenodd;clip-rule:evenodd;}
</style>
<g>
	<path class="st17" d="M164.2,82.4c0,33.2-26.9,60.1-60.1,60.1s-60.1-26.9-60.1-60.1S70.8,22.1,104,22.1S164.2,49.2,164.2,82.4
		L164.2,82.4z M156,82.4c0-28.8-23.3-52-52-52s-52,23.2-52,52s23.3,52,52,52S156,111,156,82.4L156,82.4z"/>
	<path class="st17" d="M115.4,109.8h27.8l-31.6-37.4l25.6-17.2h-18.3L93.5,72.4V55.3H72.3v54.6h21.1l0.1-25.7L115.4,109.8z"/>
</g>
</svg>
