<?xml version="1.0" encoding="utf-8"?>
<!-- Generator: Adobe Illustrator 26.2.1, SVG Export Plug-In . SVG Version: 6.00 Build 0)  -->
<svg version="1.1" id="Capa_1" xmlns="http://www.w3.org/2000/svg" xmlns:xlink="http://www.w3.org/1999/xlink" x="0px" y="0px"
	 viewBox="0 0 208 161" style="enable-background:new 0 0 208 161;" xml:space="preserve">
<style type="text/css">
	.st0{fill:#95C11F;}
	.st1{fill:#FFFFFF;}
	.st2{fill:#1D1D1B;}
	.st3{fill:#EC9800;}
	.st4{fill:#319131;}
	.st5{fill:none;}
	.st6{font-family:'Arial-BoldMT';}
	.st7{font-size:10.4184px;}
	.st8{fill:#65A92E;}
	.st9{fill:#00823C;}
	.st10{fill:#939596;}
	.st11{fill:#D7BF9F;}
	.st12{fill:none;stroke:#5D3A00;stroke-width:2.0113;stroke-miterlimit:3.864;}
	.st13{fill:#5D3A00;}
	.st14{fill-rule:evenodd;clip-rule:evenodd;fill:#FFE300;}
	.st15{fill-rule:evenodd;clip-rule:evenodd;fill:#008037;}
	.st16{fill-rule:evenodd;clip-rule:evenodd;fill:#1D1D1B;}
	.st17{fill:#BF1433;}
	.st18{clip-path:url(#SVGID_00000052791048803227033930000001998153767621196711_);}
	.st19{fill:#9F8A4F;}
	.st20{fill:#0090D9;}
	.st21{fill:#932F15;}
	.st22{fill-rule:evenodd;clip-rule:evenodd;fill:#FCDA00;}
	.st23{fill-rule:evenodd;clip-rule:evenodd;fill:#FFFFFF;}
	.st24{fill-rule:evenodd;clip-rule:evenodd;fill:#00864F;}
	.st25{fill:#7EB826;}
	.st26{fill:#FDFDFD;}
	.st27{fill:#FDFDFC;}
	.st28{fill:#FCFDFC;}
	.st29{fill:#EEF6E0;}
	.st30{fill:#DDF6B6;}
	.st31{fill:#C9EA95;}
	.st32{fill:#99C750;}
	.st33{fill:#ABCC77;}
	.st34{fill:#DAE6C2;}
	.st35{fill:#AFD277;}
	.st36{fill:#7FB826;}
	.st37{fill:#80B927;}
	.st38{fill:#80B928;}
	.st39{fill-rule:evenodd;clip-rule:evenodd;fill:#FFFFFF;stroke:#00305E;stroke-width:0.9598;stroke-miterlimit:2.6131;}
	.st40{fill:#00AA8D;}
	.st41{fill:#00305D;}
	.st42{fill:#00305E;}
	.st43{fill:#3D97D3;}
	.st44{fill:#FFEC00;}
	.st45{fill:#65B22E;}
	.st46{fill:#CE7400;}
	.st47{fill-rule:evenodd;clip-rule:evenodd;fill:#3D97D3;}
	.st48{fill:none;stroke:#1D1D1B;stroke-width:0.169;stroke-miterlimit:3.8637;}
	.st49{fill-rule:evenodd;clip-rule:evenodd;}
</style>
<g>
	<path class="st2" d="M71.7,100.8c-1-1.2-0.8-2.3-0.8-2.3l0.8-0.1c0,0-0.1,1,0.6,1.9c0.9,1.1,2.3,1.1,3.4,0.3
		c1.1-0.8,1.4-2.3,0.5-3.4c-0.8-0.9-1.9-1-1.9-1l0.2-0.8c0,0,1.3,0,2.4,1.3c1.2,1.5,0.9,3.4-0.5,4.6
		C74.9,102.4,72.9,102.2,71.7,100.8"/>
	<polygon class="st2" points="68.4,95.8 66.6,92.6 67.3,92.2 68.6,94.7 70.4,93.7 69.3,91.7 70,91.4 71.1,93.4 72.9,92.4 71.4,89.8 
		72.1,89.4 74,92.8 	"/>
	<path class="st2" d="M67.3,86.2c-0.2-0.7-0.8-0.9-1.5-0.7c-0.4,0.1-0.7,0.4-0.8,0.8c0,0.2,0,0.4,0.1,0.9l0.3,1l2.2-0.7L67.3,86.2z
		 M65.1,89.2l-0.6-1.8c-0.2-0.6-0.3-0.9-0.2-1.2c0-0.7,0.5-1.3,1.3-1.6c0.8-0.3,1.6-0.1,2,0.5l0,0c0,0,0.1-0.1,0.2-0.3l1.9-2.1
		l0.3,0.9l-2,2.1l0.4,1.3l2.4-0.8l0.3,0.8L65.1,89.2z"/>
	<polygon class="st2" points="63.5,80.5 63.8,82.7 63,82.8 62.2,77.7 62.9,77.5 63.3,79.7 68.9,78.8 69,79.6 	"/>
	
		<rect x="62" y="73.7" transform="matrix(0.9996 -2.912191e-02 2.912191e-02 0.9996 -2.1314 1.9308)" class="st2" width="6.4" height="0.9"/>
	<polygon class="st2" points="62.1,69.5 62.5,66.1 63.2,66.2 63,68.7 65.1,69 65.3,66.8 66.1,66.9 65.8,69 68.6,69.3 68.5,70.2 	"/>
	<polygon class="st2" points="63.1,62.9 63.3,62.1 69.6,63.5 69.4,64.4 	"/>
	<polygon class="st2" points="64.4,58.4 65.7,55 66.4,55.3 65.4,57.9 67.3,58.6 68.1,56.5 68.8,56.7 68,58.9 70,59.6 71,56.8 
		71.7,57.1 70.4,60.7 	"/>
	<path class="st2" d="M73.2,52.7c0.8-1.2,0.5-2.4-0.8-3.3c-1.3-0.8-2.6-0.4-3.3,0.8l-0.6,1l4.1,2.5L73.2,52.7z M67.4,51.6l1.1-1.8
		c1-1.6,2.7-2.1,4.4-1.1c1.7,1,2.1,2.7,1,4.4l-1.1,1.8L67.4,51.6z"/>
	<path class="st2" d="M78.2,45.2c0,0,1,0,1.7-0.6c0.4-0.4,0.6-1,0.1-1.4c-1-1-3,1.4-4.4,0c-0.7-0.7-0.6-1.9,0.2-2.7
		c0.9-0.8,1.8-0.8,1.8-0.8l0.2,0.8c0,0-0.8,0-1.4,0.6c-0.5,0.5-0.5,1.1-0.2,1.5c0.9,0.9,2.9-1.4,4.4,0c0.7,0.7,0.7,1.8-0.2,2.7
		c-1,0.9-2.1,0.9-2.1,0.9L78.2,45.2z"/>
	<path class="st2" d="M80.1,37l0.7-0.5l2.3,3.4c0.5,0.8,1.4,0.9,2.2,0.4c0.8-0.5,1-1.4,0.5-2.2l-2.3-3.4l0.7-0.5l2.3,3.4
		c0.8,1.2,0.5,2.5-0.8,3.3c-1.2,0.8-2.6,0.6-3.4-0.6L80.1,37z"/>
	<path class="st2" d="M89.8,36.9c0,0,0.9,0.4,1.8,0c0.5-0.2,0.9-0.7,0.6-1.3c-0.6-1.3-3.3,0.2-4.1-1.5c-0.4-0.9,0.1-2,1.2-2.4
		c1.1-0.5,1.9-0.1,1.9-0.1l-0.1,0.8c0,0-0.8-0.3-1.5,0.1c-0.6,0.3-0.9,0.8-0.7,1.3c0.5,1.2,3.2-0.4,4.1,1.5c0.4,0.9,0,1.9-1.1,2.4
		c-1.2,0.5-2.3,0.1-2.3,0.1L89.8,36.9z"/>
	<polygon class="st2" points="96,30.2 93.9,30.8 93.7,30 98.8,28.7 99,29.5 96.9,30 98.3,35.4 97.4,35.6 	"/>
	<path class="st2" d="M103.3,29c0,0-0.1,0.6-0.2,0.9l-0.5,2.1l1.9-0.2l-0.9-1.9C103.5,29.6,103.3,29,103.3,29L103.3,29z M104.8,32.5
		l-2.4,0.2l-0.5,1.9l-0.9,0.1l1.7-6.5l0.9-0.1l2.9,6.1l-0.9,0.1L104.8,32.5z"/>
	
		<rect x="106.2" y="30.7" transform="matrix(4.162480e-02 -0.9991 0.9991 4.162480e-02 73.6732 139.1514)" class="st2" width="6.3" height="0.9"/>
	<path class="st2" d="M113.9,28.3l0.9,0.2l2,4.6c0.2,0.4,0.3,1,0.3,1l0,0c0,0,0-0.6,0.1-0.9l0.8-4l0.9,0.2l-1.2,6.2l-0.9-0.2l-2-4.6
		c-0.2-0.4-0.3-1-0.3-1l0,0c0,0,0,0.6-0.1,0.9l-0.8,4l-0.9-0.2L113.9,28.3z"/>
	<path class="st2" d="M124.3,32.1c0,0-0.4,0.5-0.6,0.7l-1.4,1.6l1.8,0.7l0.1-2.1C124.3,32.7,124.4,32.1,124.3,32.1L124.3,32.1z
		 M124.1,35.9l-2.2-0.9l-1.3,1.4l-0.9-0.3l4.5-5l0.9,0.3l-0.3,6.7l-0.9-0.3L124.1,35.9z"/>
	<path class="st2" d="M130.6,37.3c0.5,0.3,1,0.2,1.3-0.3c0.3-0.5,0.2-1-0.3-1.3l-1.1-0.7l-1,1.6L130.6,37.3z M129.1,39.7
		c0.6,0.4,1.2,0.2,1.5-0.3c0.3-0.5,0.2-1.1-0.3-1.5l-1.2-0.8l-1.2,1.8L129.1,39.7z M130.1,33.8L132,35c0.9,0.6,1.3,1.5,0.7,2.3
		c-0.3,0.5-0.9,0.8-1.4,0.7l0,0c0.5,0.5,0.4,1.2,0.1,1.8c-0.6,1-1.8,1-2.7,0.4l-1.9-1.2L130.1,33.8z"/>
	<polygon class="st2" points="136.7,38.3 137.4,38.9 133.6,43.1 135.8,44.9 135.3,45.5 132.4,43.1 	"/>
	<polygon class="st2" points="141.7,43.1 144,45.9 143.4,46.4 141.6,44.3 140.1,45.5 141.5,47.3 140.9,47.7 139.5,46 137.9,47.3 
		139.8,49.5 139.2,50 136.7,47.1 	"/>
	<path class="st2" d="M146.1,55.8c0.3,0.7,1,0.9,1.7,0.6c0.7-0.3,0.9-0.9,0.6-1.6l-0.5-1.2l-2.3,1L146.1,55.8z M148.2,52.4l1,2.1
		c0.5,1,0.1,2.1-1,2.6c-1.1,0.5-2.2,0.1-2.7-1l-0.6-1.3l-2.2,1l-0.4-0.8L148.2,52.4z"/>
	<path class="st2" d="M150.6,61.2c0,0-0.6,0-0.9,0l-2.1-0.2l0.5,1.8l1.8-1.2C150.1,61.5,150.6,61.2,150.6,61.2L150.6,61.2z
		 M147.4,63.3l-0.6-2.3l-1.9-0.1l-0.2-0.9l6.8,0.5l0.2,0.9l-5.6,3.9l-0.2-0.9L147.4,63.3z"/>
	<polygon class="st2" points="152.7,67 152.8,67.9 147.2,68.4 147.5,71.2 146.7,71.3 146.4,67.6 	"/>
	<path class="st2" d="M153.2,73.9l-0.1,0.9l-3.6,1.2c-0.4,0.1-0.9,0.2-0.9,0.2l0,0c0,0,0.5,0.2,0.8,0.4l3.3,1.7l-0.1,0.9l-6.4,0
		l0.1-0.9l4.1,0c0.4,0,0.9,0.1,0.9,0.1l0,0c0,0-0.6-0.2-0.9-0.4l-2.8-1.5l0.1-0.8l3-1c0.4-0.1,1-0.3,1-0.3l0,0c0,0-0.6,0-1-0.1
		l-4-0.6l0.1-0.9L153.2,73.9z"/>
	<path class="st2" d="M144.6,87.4c-0.5,1.2,0.1,2.6,1.5,3.1c1.3,0.5,2.7-0.1,3.1-1.3c0.5-1.2-0.1-2.6-1.4-3.1
		C146.5,85.6,145.1,86.2,144.6,87.4 M150,89.5c-0.7,1.7-2.5,2.5-4.2,1.8c-1.8-0.7-2.6-2.5-1.9-4.2c0.7-1.7,2.6-2.5,4.3-1.8
		C149.9,85.9,150.7,87.8,150,89.5"/>
	<polygon class="st2" points="144.1,99.8 143.5,100.5 139.1,97 137.3,99.2 136.7,98.7 139.1,95.8 	"/>
	<path class="st3" d="M93.8,111.8c0.7,0.2,1.2,0,1.5-0.7c0.2-0.6,0.1-1.1-0.9-1.5l-0.7-0.2l-0.7,2.1L93.8,111.8z M92.2,107l3,1
		c0.9,0.3,1.3,0.5,1.6,0.8c0.8,0.7,1.1,1.8,0.7,3c-0.3,0.9-1.1,1.7-2.1,1.9l0,0c0,0,0.1,0.2,0.1,0.6l0.6,3.5l-2.3-0.8l-0.5-3.4
		l-1-0.3l-1,2.8l-2.1-0.7L92.2,107z"/>
	<path class="st3" d="M100.3,115.6c0,0,0.9,1,2,1.2c0.5,0.1,1-0.1,1-0.6c0.1-1.1-3.9-1.5-3.6-4.2c0.2-1.6,1.7-2.5,3.5-2.3
		c1.9,0.2,2.8,1.3,2.8,1.3l-1.1,1.7c0,0-0.8-0.9-1.9-1c-0.5-0.1-1,0.1-1,0.6c-0.1,1.1,3.9,1.4,3.6,4.2c-0.2,1.5-1.5,2.6-3.5,2.4
		c-2.1-0.2-3.1-1.6-3.1-1.6L100.3,115.6z"/>
	<path class="st3" d="M111.8,114.1c0.8-0.1,1.1-0.6,1-1.3c-0.1-0.7-0.5-1.2-1.2-1.1l-1.1,0.1l0.2,2.4L111.8,114.1z M108.1,110.1
		l3.7-0.3c1.8-0.2,3.1,1,3.2,2.8c0.2,1.8-0.9,3.2-2.7,3.3l-1.5,0.1l0.3,2.7l-2.2,0.2L108.1,110.1z"/>
	<path class="st3" d="M122.1,114.7c1.3-0.4,1.9-1.9,1.4-3.3c-0.5-1.4-1.9-2.1-3.1-1.6c-1.3,0.4-2,1.8-1.5,3.2
		C119.4,114.4,120.8,115.2,122.1,114.7 M119.7,107.9c2.6-0.9,5.1,0.4,6,2.8c0.9,2.5-0.4,5.1-2.9,5.9c-2.6,0.9-5.1-0.4-6-2.9
		C115.9,111.3,117.1,108.8,119.7,107.9"/>
	<polygon class="st3" points="84.2,107.5 81.8,107.9 81.5,105.6 83.8,105.2 	"/>
	<polygon class="st3" points="133.9,107.4 131.5,107.1 131.9,104.8 134.2,105.1 	"/>
	<path class="st4" d="M138.8,65.3c-0.8-3.2-2.2-5.7-4-7.8c-0.4-0.5-0.7-1-1.1-1.3c-3.3-3.1-7.5-5.3-12.1-6.8
		c4.1,0.1,7.6,0.9,9.8,2.9c0.9,0.8,1.2,1.9,2.1,2.7c-0.1-0.8-0.6-1.4-1-2c-0.4-0.6-1-1.1-1.4-1.6c-3-3.2-6.9-5.4-12.6-5.6
		c1.1-0.4,1.9-0.7,3-0.6c1.2,0.1,2.7,1.2,2.8,1.2c0,0,0-0.3-0.3-0.5c-0.5-0.4-0.8-0.6-0.8-0.6c-1-0.7-2-1.1-2.6-1.3
		c-1.9-0.8-4.2-1.2-6.4-0.6c-0.2,0.1-0.4,0.1-0.6,0.2c0-0.1,0.1-0.1,0.1-0.1c0.2-0.4,0.5-0.8,0.9-1.1c0.1-0.1,0.3-0.1,0.2-0.3
		c-1.2-0.2-3.5-0.9-5-0.7c-1,0.1-1.3,0.8-1.9,1.3c-0.5-0.7-1.1-1.3-2.1-1.4c-1.2-0.1-3.1,0.3-4.2,0.6c0,0-0.4,0.1-0.5,0.1
		c0,0-0.1,0-0.1,0.1c0,0,0.1,0,0.1,0.1c0,0,0.3,0.1,0.4,0.2c0.4,0.3,0.6,0.8,0.7,1c-4.5-1-7.3,0.3-9.7,1.7c-0.3,0.2-0.5,0.3-1,0.8
		c0,0-0.1,0.2-0.1,0.3c0,0,1.9-1.2,3.1-1.2c1.5,0,2.8,0.8,2.9,0.7c-4,0-7.3,1-9.8,2.7c-2.1,1.4-4.2,3.4-5.4,5.6
		c-0.2,0.3-0.5,0.7-0.3,1.1c0.9-1,1.3-2.2,2.4-3.1c2.4-2.1,6.1-2.8,10.6-2.7c-8.2,2.4-14.8,6.6-17.7,14.2c-1,2.5-1.8,5.5-1.5,8.9
		c0.3-0.2,0.2-0.6,0.3-0.8c0.2-1,0.2-2.1,0.4-3c0.7-4.1,2.6-6.5,5.1-8.6c3.3-2.8,7.5-4.8,12.2-6.2c-4.7,3.2-9.1,7-12.5,11.8
		c-3.3,4.7-5.7,10.9-4.9,18.9c0.4-0.2,0.3-0.7,0.4-1.1c0.1-0.4,0.1-0.9,0.2-1.3c1-5.6,3.6-10.1,6.7-13.6c3.6-4.2,7.9-7.7,12.6-10.7
		c-3.6,4.8-7.1,10.2-9.6,16.3c-2,5-3.9,12.5-3.1,19.7c0.1,0.9,0.1,2,0.7,2.5c0.6-0.6,0.7-1.6,0.9-2.3c0.2-0.9,0.3-2.4,0.6-3.2
		c2.6-10.2,7.4-18.8,12.7-26.3c0.9-1.2,1.8-2.5,2.8-3.6c-1.5,6.2-3,13.2-3.7,20.3c-0.6,6.1-0.9,14.3,0.3,19.9
		c0.2,0.7,0.2,1.7,0.9,2.1c1.1-1.2,1.2-3.2,1.5-4.9c2.6-12.2,4.5-24.9,7.6-36.3c2.3,9.9,4,20.7,5.8,31.2c0.4,2.6,0.8,5.4,1.4,7.9
		c0.2,0.7,0.2,1.7,1,2.1c0.6-0.5,0.7-1.3,0.9-2c0.6-2.5,0.8-5.2,1-8c0.7-11.9-1.5-22.7-3.4-32.3c6.2,8.6,12.2,18.3,14.8,30.4
		c0.3,1.3,0.4,2.8,0.8,4.1c0.1,0.3,0.2,0.9,0.6,1c0.8-1.5,0.8-3.6,0.9-5.5c0.3-6.3-1.1-11.9-2.8-16.3c-1.2-3.1-2.6-6-4.1-8.7
		c-1.6-2.8-3.3-5.4-5-7.8c4.6,3.1,8.7,6.7,12.2,10.9c1.7,2.1,3.3,4.4,4.5,7c1.2,2.7,1.7,5,2.2,8.5c0.5-0.2,0.4-0.9,0.4-1.3
		c0.7-7.8-1.7-13.1-4.7-17.5c-3.4-5-8-9-12.7-12.2c4.7,1.4,9.1,3.3,12.4,6c1.7,1.4,3.2,3.1,4.1,5.1c0.9,2,0.9,4.4,1.2,6.8
		c0,0.3,0,0.7,0.3,0.9C139.9,69.7,139.4,67.5,138.8,65.3"/>
	<polygon class="st2" points="144.6,29.2 143.1,29.2 143.1,28.5 146.9,28.5 146.9,29.2 145.4,29.2 145.4,33.1 144.6,33.1 	"/>
	<path class="st2" d="M147.8,28.5h0.9l0.9,2.3c0.1,0.3,0.2,0.7,0.2,0.7h0c0,0,0.1-0.4,0.2-0.7l0.9-2.3h0.9l0.4,4.6h-0.8l-0.2-2.6
		c0-0.3,0-0.7,0-0.7h0c0,0-0.1,0.4-0.2,0.7l-0.8,1.8h-0.7l-0.7-1.8c-0.1-0.3-0.3-0.7-0.3-0.7h0c0,0,0,0.4,0,0.7l-0.2,2.6h-0.8
		L147.8,28.5z"/>
	<polygon class="st2" points="146.9,95.5 146.5,96.2 141,93 141.4,92.2 	"/>
</g>
<rect x="53.2" y="129.2" class="st5" width="108.8" height="8.4"/>
<text transform="matrix(0.9325 0 0 1 70.585 136.6187)" class="st6 st7">RSPO - 1106263</text>
</svg>
