<?xml version="1.0" encoding="utf-8"?>
<!-- Generator: Adobe Illustrator 26.2.1, SVG Export Plug-In . SVG Version: 6.00 Build 0)  -->
<svg version="1.1" id="Capa_1" xmlns="http://www.w3.org/2000/svg" xmlns:xlink="http://www.w3.org/1999/xlink" x="0px" y="0px"
	 viewBox="0 0 208 161" style="enable-background:new 0 0 208 161;" xml:space="preserve">
<style type="text/css">
	.st0{fill:#95C11F;}
	.st1{fill:#FFFFFF;}
	.st2{fill:#1D1D1B;}
	.st3{fill:#EC9800;}
	.st4{fill:#319131;}
	.st5{fill:#65A92E;}
	.st6{fill:#00823C;}
	.st7{fill:#939596;}
	.st8{fill:#D7BF9F;}
	.st9{fill:none;stroke:#5D3A00;stroke-width:2.0113;stroke-miterlimit:3.864;}
	.st10{fill:#5D3A00;}
	.st11{fill-rule:evenodd;clip-rule:evenodd;fill:#FFE300;}
	.st12{fill-rule:evenodd;clip-rule:evenodd;fill:#008037;}
	.st13{fill-rule:evenodd;clip-rule:evenodd;fill:#1D1D1B;}
	.st14{fill:#BF1433;}
	.st15{clip-path:url(#SVGID_00000157272415845313967350000009319121147512446337_);}
	.st16{fill:none;}
	.st17{fill:#9F8A4F;}
	.st18{fill:#0090D9;}
	.st19{fill:#932F15;}
	.st20{fill-rule:evenodd;clip-rule:evenodd;fill:#FCDA00;}
	.st21{fill-rule:evenodd;clip-rule:evenodd;fill:#FFFFFF;}
	.st22{fill-rule:evenodd;clip-rule:evenodd;fill:#00864F;}
	.st23{fill:#7EB826;}
	.st24{fill:#FDFDFD;}
	.st25{fill:#FDFDFC;}
	.st26{fill:#FCFDFC;}
	.st27{fill:#EEF6E0;}
	.st28{fill:#DDF6B6;}
	.st29{fill:#C9EA95;}
	.st30{fill:#99C750;}
	.st31{fill:#ABCC77;}
	.st32{fill:#DAE6C2;}
	.st33{fill:#AFD277;}
	.st34{fill:#7FB826;}
	.st35{fill:#80B927;}
	.st36{fill:#80B928;}
	.st37{fill-rule:evenodd;clip-rule:evenodd;fill:#FFFFFF;stroke:#00305E;stroke-width:0.9598;stroke-miterlimit:2.6131;}
	.st38{fill:#00AA8D;}
	.st39{fill:#00305D;}
	.st40{fill:#00305E;}
	.st41{fill:#3D97D3;}
	.st42{fill:#FFEC00;}
	.st43{fill:#65B22E;}
	.st44{fill:#CE7400;}
	.st45{fill-rule:evenodd;clip-rule:evenodd;fill:#3D97D3;}
	.st46{fill:none;stroke:#1D1D1B;stroke-width:0.169;stroke-miterlimit:3.8637;}
	.st47{fill-rule:evenodd;clip-rule:evenodd;}
</style>
<g>
	<path class="st11" d="M106.8,113.6c23.4,0,42.4-19.3,42.4-43c0-23.7-19-43-42.4-43c-23.4,0-42.4,19.3-42.4,43
		C64.4,94.3,83.4,113.6,106.8,113.6"/>
	<path class="st12" d="M106.3,102.3c0,0,0.3-1.8,0.4-2.6c0.7-4.6,1.2-9.3,2.3-13.7c1.4-5.1,2.8-10.6,5.2-15.4
		c0.4-0.7,1.1-2.1,2.2-2.1c2.7-0.2,5.5-1.1,7.7-2.8c1.7-1.2,3-2.7,3.9-4.6c0.7-1.9,1-3.8,1-5.9c0-1.9,0.3-3.5,1-5.2
		c0.2-0.5,0.3-0.9,0.3-1.4c-1-0.1-2.4,0.8-3.3,1.2c-2.3,0.8-4.7,1.1-7.1,1.6c-1.9,0.3-3.6,0.9-5.2,2c-2.6,1.8-3.9,4.1-4.8,7.2
		c-0.4,1.7-0.8,3.7-0.6,5.4l0.1,0.2c0.4-0.1,1.2-1.5,1.4-1.9c1.5-2.4,3-4.6,5.4-6.4c0.4-0.2,2.6-1.5,2.9-0.9c0,0.8-1.3,1.9-1.8,2.5
		c-4.5,5.4-7.2,12.7-9.5,19.3c-1.3,3.6-2.1,7.5-3.6,11c-0.1,0.1-0.2,0.4-0.3,0.5c-0.4-0.4-0.7-1.4-0.8-2c-0.7-2.5-1.3-5.1-2-7.6
		c-1.7-6.6-3.8-14.3-7.8-20c-3-4.1-7.1-8.7-12-10.5c-0.1,0-0.2,0-0.3,0c-0.2,0.4,0.2,0.7,0.5,1c5.9,6.1,10.6,14.4,13.2,22.5
		c2.6,8.5,5.1,17.5,6.6,26.3c0.1,0.7,0.3,1.6,0.5,2.3c0,0,1.6,0.1,2.3,0.1C104.7,102.4,106.3,102.3,106.3,102.3"/>
	<path class="st12" d="M73.3,81.6L72.4,82l0,0.1c0,0,0.1,0,0.1,0c0,0,0.1,0.1,0.1,0.2l1.2,3l-1.2,0.5l-0.8-1.9c0-0.1,0-0.1,0-0.2
		c0,0,0-0.1,0-0.1l0-0.1L71,83.9l0,0.1c0,0,0.1,0,0.1,0c0,0,0.1,0.1,0.1,0.1L72,86l-1.1,0.5l-1.2-2.9c0-0.1,0-0.1,0-0.2
		c0,0,0-0.1,0.1-0.1l0-0.1l-0.9,0.4l0,0.1c0,0,0.1,0,0.1,0c0,0,0.1,0.1,0.1,0.2l1.6,4l0.1,0c0-0.1,0-0.1,0-0.1c0,0,0.1-0.1,0.1-0.1
		l3.9-1.6c0.1,0,0.1,0,0.1,0c0,0,0.1,0,0.1,0.1l0.1,0l-1.6-4c0-0.1,0-0.1,0-0.2c0,0,0-0.1,0-0.1L73.3,81.6z"/>
	<path class="st12" d="M68.2,81.4l0.1,0c0-0.1,0-0.1,0-0.2c0,0,0.1,0,0.1-0.1l2.8-0.6c0.6-0.1,1-0.5,1.2-0.9c0.2-0.5,0.2-1.1,0-1.8
		c-0.1-0.7-0.4-1.3-0.7-1.7c-0.3-0.4-0.8-0.5-1.5-0.4l-2.8,0.6c-0.1,0-0.1,0-0.1,0c0,0-0.1-0.1-0.1-0.1l-0.1,0l0.3,1.3l0.1,0
		c0-0.1,0-0.1,0-0.1c0,0,0.1,0,0.1-0.1l2.8-0.6c0.3-0.1,0.6,0,0.8,0.2c0.2,0.2,0.3,0.6,0.4,1c0.1,0.5,0.1,0.9,0,1.1
		c-0.1,0.3-0.3,0.4-0.6,0.5l-2.8,0.6c-0.1,0-0.1,0-0.1,0c0,0-0.1,0-0.1-0.1l-0.1,0L68.2,81.4z"/>
	<path class="st12" d="M67.6,72.6l0-1.8c0-0.3,0-0.6,0.1-0.8c0.1-0.2,0.3-0.3,0.5-0.3c0.2,0,0.4,0,0.5,0.2c0.1,0.1,0.2,0.4,0.2,0.7
		l0,2L67.6,72.6z M69.6,71.1l1.4-1c0.1,0,0.1-0.1,0.2-0.1c0.1,0,0.1-0.1,0.2-0.1c0,0,0,0,0,0c0,0,0,0,0,0l0.1,0l0-1.4l-0.1,0
		c0,0.1,0,0.1,0,0.2c0,0.1-0.1,0.1-0.1,0.1L69.6,70c-0.1-0.4-0.2-0.7-0.4-1c-0.2-0.2-0.5-0.4-0.9-0.4c-0.5,0-0.9,0.2-1.1,0.6
		c-0.2,0.4-0.3,1-0.3,1.7l0,2.7l0.1,0c0-0.1,0-0.1,0-0.1c0,0,0.1,0,0.1,0l4.2-0.1c0.1,0,0.1,0,0.1,0c0,0,0,0.1,0,0.1l0.1,0l0-1.3
		l-0.1,0c0,0.1,0,0.1,0,0.1c0,0-0.1,0-0.1,0l-1.7,0L69.6,71.1z"/>
	<path class="st12" d="M67.3,63.8c-0.1,0.6-0.1,1.1,0.1,1.6c0.1,0.5,0.4,0.9,0.7,1.2c0.3,0.3,0.7,0.5,1.2,0.6c0.5,0.1,0.9,0,1.3-0.2
		c0.4-0.2,0.7-0.5,1-0.9c0.3-0.4,0.5-0.9,0.6-1.5c0.1-0.6,0.1-1.1-0.1-1.6c-0.1-0.5-0.4-0.9-0.7-1.2c-0.3-0.3-0.7-0.5-1.2-0.6
		c-0.5-0.1-0.9,0-1.3,0.2c-0.4,0.2-0.7,0.5-1,0.9C67.6,62.8,67.4,63.3,67.3,63.8 M68,64c0.1-0.6,0.3-1.1,0.7-1.4
		c0.4-0.3,0.8-0.4,1.3-0.4c0.5,0.1,0.9,0.3,1.1,0.8c0.2,0.4,0.3,0.9,0.2,1.5c-0.1,0.6-0.3,1.1-0.7,1.4c-0.4,0.3-0.8,0.4-1.3,0.4
		c-0.5-0.1-0.9-0.3-1.1-0.8C68,65.1,68,64.6,68,64"/>
	<path class="st12" d="M72.1,56.8c0.2-0.5,0.2-1,0-1.3c-0.2-0.3-0.4-0.5-0.8-0.7c-0.5-0.2-0.8-0.1-1.1,0.1c-0.3,0.2-0.5,0.5-0.7,1
		l-1,2.9l0.1,0c0-0.1,0-0.1,0.1-0.1c0,0,0.1,0,0.1,0l3.9,1.4c0.1,0,0.1,0,0.1,0.1c0,0,0,0.1,0,0.1l0.1,0l0.4-1.2l-0.1,0
		c0,0.1,0,0.1-0.1,0.1c0,0-0.1,0-0.1,0l-1.6-0.6L72.1,56.8z M69.5,58.1l0.6-1.7c0.1-0.3,0.2-0.5,0.3-0.6c0.1-0.1,0.3-0.1,0.5,0
		c0.2,0.1,0.4,0.2,0.4,0.3c0,0.1,0,0.4-0.1,0.6l-0.6,1.7L69.5,58.1z"/>
	<path class="st12" d="M77.4,50.9l-0.8-0.5l-0.1,0.1c0,0,0,0,0,0.1c0,0,0,0.1-0.1,0.2l-1.5,2.8L73.8,53l1-1.8c0-0.1,0.1-0.1,0.1-0.1
		c0,0,0.1,0,0.1,0l0.1-0.1l-0.9-0.5l-0.1,0.1c0,0,0,0,0,0.1c0,0,0,0.1-0.1,0.2l-1,1.8l-1-0.6l1.5-2.8c0-0.1,0.1-0.1,0.1-0.1
		c0,0,0.1,0,0.1,0l0.1-0.1l-0.9-0.5L73,48.6c0,0,0,0,0,0.1c0,0,0,0.1-0.1,0.2l-2,3.7l0.1,0.1c0-0.1,0.1-0.1,0.1-0.1c0,0,0.1,0,0.1,0
		l3.6,2c0.1,0,0.1,0.1,0.1,0.1c0,0,0,0.1,0,0.1l0.1,0.1l2.1-3.8c0-0.1,0.1-0.1,0.1-0.1C77.3,51,77.3,51,77.4,50.9L77.4,50.9z"/>
	<path class="st12" d="M78.5,49.2L78.5,49.2c-0.1,0-0.1,0-0.2,0c0,0-0.1,0-0.1,0c0,0,0,0-0.1-0.1c0,0-0.1-0.1-0.1-0.3
		c-0.1-0.1-0.2-0.4-0.3-0.7l1.4-1.8c0.3,0.1,0.6,0.2,0.7,0.2c0.2,0,0.3,0.1,0.3,0.1c0,0,0.1,0,0.1,0c0,0,0,0,0,0.1c0,0,0,0,0,0.1
		l0.1,0.1l0.8-1l-0.1-0.1c0,0-0.1,0-0.1,0c0,0-0.1,0-0.2,0l-4.3-1.1c0,0-0.1,0-0.1,0c0,0-0.1,0-0.1,0c0,0,0,0,0-0.1c0,0,0,0,0-0.1
		l-0.1-0.1l-0.9,1.1l0.1,0.1c0,0,0,0,0.1,0c0,0,0,0,0.1,0c0,0,0,0,0.1,0.1c0,0,0,0.1,0,0.1l1.9,3.9c0.1,0.1,0.1,0.2,0.1,0.3
		c0,0.1,0,0.1,0,0.2l0.1,0.1L78.5,49.2z M78.4,46.2l-1,1.2l-0.8-1.7L78.4,46.2z"/>
	<path class="st12" d="M80.4,41.8l4.3,0.5c0.1,0,0.1,0,0.2,0c0,0,0.1,0,0.1,0c0,0,0,0,0,0.1c0,0,0,0,0,0.1l0.1,0.1l0.9-0.8l-0.1-0.1
		c0,0-0.1,0-0.1,0c0,0-0.1,0-0.1-0.1l-2.7-3.2c0-0.1-0.1-0.1-0.1-0.1c0,0,0-0.1,0.1-0.1l-0.1-0.1L82,38.8l0.1,0.1c0,0,0.1,0,0.1,0
		c0,0,0.1,0,0.1,0.1l1.9,2.4l-4.1-0.5c0,0-0.1,0-0.1,0c0,0-0.1,0-0.1,0c0,0,0,0,0-0.1c0,0,0,0,0,0l-0.1-0.1l-1,0.9l0.1,0.1
		c0,0,0.1,0,0.1,0c0,0,0.1,0,0.1,0.1l2.7,3.2c0,0.1,0.1,0.1,0.1,0.1c0,0,0,0.1,0,0.1l0.1,0.1l0.8-0.7l-0.1-0.1c0,0-0.1,0-0.1,0
		c0,0-0.1,0-0.1-0.1L80.4,41.8z"/>
	<path class="st12" d="M91.2,33.3L91.2,33.3c0.1,0.1,0.1,0.1,0.1,0.1c0,0,0,0,0.1,0c0,0,0,0.2,0,0.4c0,0.2,0,0.5,0,0.8l0.1,2.6
		l-1.9-1.7c-0.3-0.2-0.5-0.4-0.6-0.6c-0.1-0.1-0.2-0.2-0.2-0.2c0,0,0,0,0-0.1c0,0,0,0,0.1-0.1l0-0.1L87.5,35l0,0.1
		c0.1,0,0.1,0,0.2,0c0,0,0.1,0.1,0.1,0.1l3.4,2.9c0,0,0.1,0,0.1,0.1c0,0,0,0,0.1,0.1c0,0,0,0,0,0.1c0,0,0,0-0.1,0.1l0,0.1l1.2-0.5
		l0-0.1c0,0-0.1,0-0.1,0c0,0,0,0,0,0c0,0,0,0,0-0.1c0,0,0-0.1,0-0.1l-0.1-4.5c0-0.1,0-0.1,0-0.2c0-0.1,0.1-0.1,0.1-0.1l0-0.1
		L91.2,33.3z"/>
	<path class="st12" d="M99.7,35.6l-0.2-0.9l-0.1,0c0,0,0,0.1,0,0.1c0,0-0.1,0.1-0.2,0.1l-3.1,0.8l-0.3-1.2l2-0.5c0.1,0,0.1,0,0.2,0
		c0,0,0.1,0,0.1,0.1l0.1,0l-0.3-1l-0.1,0c0,0,0,0.1,0,0.1c0,0-0.1,0.1-0.2,0.1l-2,0.5l-0.3-1.2l3-0.8c0.1,0,0.1,0,0.2,0
		c0,0,0.1,0,0.1,0.1l0.1,0l-0.3-1l-0.1,0c0,0,0,0.1,0,0.1c0,0-0.1,0-0.2,0.1L94,32.1l0,0.1c0.1,0,0.1,0,0.1,0c0,0,0,0.1,0.1,0.1
		l1.1,4.1c0,0.1,0,0.1,0,0.2c0,0,0,0.1-0.1,0.1l0,0.1l4.1-1.1c0.1,0,0.1,0,0.2,0c0,0,0.1,0,0.1,0.1L99.7,35.6z"/>
	<path class="st12" d="M104.9,33.9c-0.1,0.1-0.3,0.2-0.5,0.2c-0.3,0.1-0.5,0.1-0.8,0.2c-0.6,0.1-1.1,0-1.5-0.3
		c-0.4-0.3-0.6-0.7-0.7-1.2c0-0.4,0-0.7,0.2-1c0.2-0.3,0.4-0.5,0.7-0.6c0.3-0.2,0.6-0.3,0.9-0.3c0.3,0,0.6,0,0.9,0.1
		c0.2,0.1,0.4,0.1,0.6,0.2c0.1,0.1,0.2,0.1,0.2,0.2c0,0,0,0,0,0.1c0,0,0,0,0,0l0.1,0l0.5-1.1l-0.1,0c0,0-0.1,0-0.1,0
		c0,0-0.1,0-0.2-0.1c-0.1,0-0.2-0.1-0.4-0.1c-0.2,0-0.4-0.1-0.6-0.1c-0.2,0-0.5,0-0.8,0c-0.5,0-1,0.2-1.4,0.4
		c-0.4,0.2-0.7,0.5-1,0.9c-0.2,0.4-0.3,0.9-0.3,1.4c0.1,0.6,0.2,1,0.5,1.4c0.3,0.3,0.6,0.6,1.1,0.7c0.4,0.1,0.9,0.2,1.5,0.1
		c0.5,0,0.9-0.2,1.3-0.3c0.4-0.2,0.8-0.4,1.1-0.6l0-0.1c0,0-0.1,0-0.1,0c0,0,0-0.1,0-0.1l-0.1-1.3c0-0.1,0-0.1,0-0.1
		c0,0,0,0,0.1-0.1l0-0.1l-2.1,0.2c-0.1,0-0.1,0-0.2,0c0,0-0.1,0-0.1-0.1l-0.1,0l0.1,1l0.1,0c0,0,0-0.1,0-0.1c0,0,0.1-0.1,0.1-0.1
		l1.1-0.1L104.9,33.9z"/>
	<path class="st12" d="M111.9,35.3l0.1-1l-0.1,0c0,0,0,0.1-0.1,0.1c0,0-0.1,0-0.2,0l-3.2-0.3l0.1-1.3l2,0.2c0.1,0,0.1,0,0.2,0.1
		c0,0,0,0.1,0,0.1l0.1,0l0.1-1l-0.1,0c0,0,0,0.1-0.1,0.1c0,0-0.1,0-0.2,0l-2-0.2l0.1-1.2l3.1,0.3c0.1,0,0.1,0,0.2,0.1
		c0,0,0,0.1,0,0.1l0.1,0l0.1-1l-0.1,0c0,0,0,0-0.1,0.1c0,0-0.1,0-0.2,0l-4.2-0.4l0,0.1c0.1,0,0.1,0,0.1,0.1c0,0,0,0.1,0,0.1
		l-0.4,4.2c0,0.1,0,0.1,0,0.1c0,0-0.1,0-0.1,0l0,0.1l4.3,0.4c0.1,0,0.1,0,0.2,0c0,0,0.1,0,0,0.1L111.9,35.3z"/>
	<path class="st12" d="M115.8,36c-0.1,0-0.1,0-0.1-0.1c0,0,0-0.1,0-0.2l0.9-3.6l1.5,0.4c0.1,0,0.1,0,0.2,0.1c0,0,0,0,0,0.1l0.1,0
		l0.2-0.9l-0.1,0c0,0,0,0.1-0.1,0.1c0,0-0.1,0-0.2,0l-3.9-1c-0.1,0-0.1,0-0.2-0.1c0,0,0-0.1,0-0.1l-0.1,0l-0.2,0.9l0.1,0
		c0,0,0-0.1,0.1-0.1c0,0,0.1,0,0.2,0l1.5,0.4l-0.9,3.6c0,0.1,0,0.1-0.1,0.1c0,0-0.1,0-0.1,0l0,0.1l1.2,0.3L115.8,36z"/>
	<path class="st12" d="M119,37.1l0-0.1c0,0-0.1,0-0.1-0.1c0,0,0-0.1,0-0.1c0,0,0,0,0.1-0.1c0,0,0.1-0.1,0.2-0.2
		c0.1-0.1,0.3-0.3,0.5-0.5l2.1,0.9c0,0.4,0,0.6,0,0.8c0,0.2,0,0.3,0,0.3c0,0.1,0,0.1,0,0.1c0,0,0,0,0,0c0,0,0,0-0.1,0l0,0.1l1.2,0.5
		l0-0.1c0,0-0.1,0-0.1-0.1c0,0,0-0.1,0-0.2l-0.2-4.5c0,0,0-0.1,0-0.1c0,0,0-0.1,0-0.1c0,0,0,0,0,0c0,0,0,0,0.1,0l0-0.1l-1.3-0.5
		l0,0.1c0,0,0,0,0,0c0,0,0,0,0,0.1c0,0,0,0.1-0.1,0.1c0,0,0,0-0.1,0.1l-3.1,3c-0.1,0.1-0.2,0.2-0.2,0.2c-0.1,0-0.1,0.1-0.2,0l0,0.1
		L119,37.1z M121.8,36l-1.4-0.6l1.4-1.3L121.8,36z"/>
	<path class="st12" d="M126.9,36.5l1.5,1c0.3,0.2,0.5,0.4,0.5,0.5c0.1,0.2,0.1,0.4,0,0.5c-0.1,0.2-0.2,0.3-0.4,0.3
		c-0.2,0-0.4-0.1-0.7-0.2l-1.6-1.1L126.9,36.5z M127,38.9l0,1.8c0,0.1,0,0.2,0,0.3c0,0.1,0,0.1,0,0.2c0,0,0,0,0,0c0,0,0,0,0,0
		l-0.1,0.1l1.2,0.8l0.1-0.1c0,0-0.1-0.1-0.1-0.1c0-0.1,0-0.1,0-0.2l-0.1-2.1c0.4,0.2,0.7,0.2,1,0.2c0.3-0.1,0.6-0.3,0.8-0.6
		c0.3-0.5,0.3-0.9,0.1-1.3c-0.2-0.4-0.6-0.8-1.2-1.2l-2.2-1.5l-0.1,0.1c0.1,0,0.1,0.1,0.1,0.1c0,0,0,0.1-0.1,0.1l-2.3,3.5
		c0,0.1-0.1,0.1-0.1,0.1c0,0-0.1,0-0.1,0l-0.1,0.1l1,0.7l0.1-0.1c0,0-0.1-0.1-0.1-0.1c0,0,0-0.1,0.1-0.1l0.9-1.4L127,38.9z"/>
	<path class="st12" d="M132.7,40.1c0-0.1,0.1-0.1,0.1-0.1c0,0,0.1,0,0.1,0.1L133,40l-1-0.9l-0.1,0.1c0.1,0.1,0.1,0.1,0.1,0.2
		c0,0,0,0.1-0.1,0.1l-2.7,3.2c0,0.1-0.1,0.1-0.1,0.1c0,0-0.1,0-0.2-0.1l-0.1,0.1l1,0.9l0.1-0.1c-0.1-0.1-0.1-0.1-0.1-0.1
		c0,0,0-0.1,0.1-0.1L132.7,40.1z"/>
	<path class="st12" d="M131.5,45.2L131.5,45.2c0-0.1,0-0.1,0-0.2c0,0,0-0.1,0-0.1c0,0,0,0,0.1,0c0,0,0.1-0.1,0.3-0.1
		c0.1-0.1,0.4-0.1,0.7-0.3l1.5,1.7c-0.1,0.3-0.2,0.6-0.3,0.7c-0.1,0.2-0.1,0.3-0.1,0.3c0,0,0,0.1-0.1,0.1c0,0,0,0-0.1,0
		c0,0,0,0-0.1,0l-0.1,0.1l0.9,0.9l0.1-0.1c0,0,0-0.1,0-0.1c0,0,0-0.1,0.1-0.2l1.7-4.2c0,0,0-0.1,0-0.1c0,0,0-0.1,0-0.1
		c0,0,0,0,0.1,0c0,0,0,0,0.1,0l0.1-0.1l-0.9-1l-0.1,0.1c0,0,0,0,0,0.1c0,0,0,0,0,0.1c0,0,0,0-0.1,0c0,0-0.1,0-0.1,0l-4.1,1.4
		c-0.1,0-0.2,0.1-0.3,0.1c-0.1,0-0.1,0-0.2,0l-0.1,0.1L131.5,45.2z M134.5,45.4l-1.1-1.2l1.8-0.6L134.5,45.4z"/>
	<path class="st12" d="M138.6,48.1l-1.1,4.2c0,0.1,0,0.1,0,0.2c0,0,0,0.1,0,0.1c0,0,0,0-0.1,0c0,0,0,0-0.1-0.1l-0.1,0.1l0.6,1
		l0.1-0.1c0,0,0-0.1,0-0.1c0,0,0-0.1,0.1-0.1l3.5-2.2c0.1,0,0.1-0.1,0.1-0.1c0,0,0.1,0,0.1,0.1l0.1-0.1l-0.6-0.9l-0.1,0.1
		c0,0,0,0.1,0,0.1c0,0-0.1,0.1-0.1,0.1l-2.6,1.6l1-4c0,0,0-0.1,0-0.1c0,0,0-0.1,0-0.1c0,0,0,0,0.1,0c0,0,0,0,0,0l0.1-0.1l-0.7-1.1
		l-0.1,0.1c0,0,0,0.1,0,0.1c0,0-0.1,0.1-0.1,0.1l-3.5,2.2c-0.1,0-0.1,0.1-0.1,0.1c0,0-0.1,0-0.1-0.1l-0.1,0.1l0.6,0.9l0.1-0.1
		c0,0,0-0.1,0-0.1c0,0,0.1-0.1,0.1-0.1L138.6,48.1z"/>
	<path class="st12" d="M144.3,56.6l-0.1,0c0,0.1,0,0.1,0,0.2c0,0-0.1,0.1-0.1,0.1l-2.7,0.8c-0.6,0.2-1,0.5-1.1,1
		c-0.1,0.5-0.1,1.1,0.2,1.8c0.2,0.7,0.5,1.3,0.9,1.6c0.4,0.3,0.9,0.4,1.5,0.2l2.7-0.8c0.1,0,0.1,0,0.1,0c0,0,0.1,0.1,0.1,0.1l0.1,0
		l-0.4-1.2l-0.1,0c0,0.1,0,0.1,0,0.1c0,0-0.1,0.1-0.1,0.1l-2.7,0.8c-0.3,0.1-0.6,0.1-0.8-0.1c-0.2-0.2-0.4-0.5-0.5-1
		c-0.1-0.5-0.2-0.8-0.1-1.1c0.1-0.3,0.3-0.5,0.6-0.6l2.7-0.8c0.1,0,0.1,0,0.1,0c0,0,0.1,0,0.1,0.1l0.1,0L144.3,56.6z"/>
	<path class="st12" d="M145.2,65.4l-2.9,3.3c0,0-0.1,0.1-0.1,0.1c0,0-0.1,0-0.1,0.1c0,0,0,0-0.1,0c0,0,0,0,0-0.1l-0.1,0l0.1,1.2
		l0.1,0c0-0.1,0-0.1,0-0.1c0,0,0.1,0,0.1,0l4.1-0.4c0.1,0,0.1,0,0.1,0c0,0,0,0.1,0,0.1l0.1,0l-0.1-1.1l-0.1,0c0,0,0,0.1,0,0.1
		c0,0-0.1,0-0.1,0l-3,0.3l2.7-3.1c0,0,0.1-0.1,0.1-0.1c0,0,0,0,0.1,0c0,0,0,0,0.1,0c0,0,0,0,0,0.1l0.1,0l-0.1-1.3l-0.1,0
		c0,0,0,0.1,0,0.1c0,0-0.1,0-0.1,0l-4.1,0.4c-0.1,0-0.1,0-0.1,0c0,0,0,0,0-0.1l-0.1,0l0.1,1.1l0.1,0c0,0,0-0.1,0-0.1
		c0,0,0.1,0,0.1,0L145.2,65.4z"/>
	<path class="st12" d="M146.3,72.7c0.1,0,0.1,0,0.1,0c0,0,0,0.1,0,0.2l0.1,0l0-1.4l-0.1,0c0,0.1,0,0.2,0,0.2c0,0-0.1,0-0.1,0
		l-4.2-0.1c-0.1,0-0.1,0-0.1,0c0,0,0-0.1,0-0.2l-0.1,0l0,1.4l0.1,0c0-0.1,0-0.1,0-0.2c0,0,0.1,0,0.1,0L146.3,72.7z"/>
	<path class="st12" d="M146.2,77.6c0.1-0.6,0.1-1.1-0.1-1.6c-0.1-0.5-0.4-0.9-0.7-1.2c-0.3-0.3-0.7-0.5-1.2-0.6
		c-0.5-0.1-0.9,0-1.3,0.2c-0.4,0.2-0.7,0.5-1,0.9c-0.3,0.4-0.5,0.9-0.6,1.5c-0.1,0.6-0.1,1.1,0.1,1.6c0.1,0.5,0.4,0.9,0.7,1.2
		c0.3,0.3,0.7,0.5,1.2,0.6c0.5,0.1,0.9,0,1.3-0.2c0.4-0.2,0.7-0.5,1-0.9C145.9,78.7,146.1,78.2,146.2,77.6 M145.4,77.5
		c-0.1,0.6-0.3,1.1-0.7,1.4c-0.4,0.3-0.8,0.4-1.3,0.4c-0.5-0.1-0.9-0.3-1.1-0.8c-0.2-0.4-0.3-0.9-0.2-1.5c0.1-0.6,0.3-1.1,0.7-1.4
		c0.4-0.3,0.8-0.4,1.3-0.4c0.5,0.1,0.9,0.3,1.1,0.8C145.4,76.4,145.5,76.9,145.4,77.5"/>
	<path class="st12" d="M143.5,83.3l-4,1.6c-0.1,0-0.1,0-0.1,0.1c0,0-0.1,0-0.1,0c0,0,0,0,0,0c0,0,0,0,0-0.1l-0.1,0l-0.4,1.1l0.1,0
		c0,0,0-0.1,0.1-0.1c0,0,0.1,0,0.1,0l3.9,1.5c0.1,0,0.1,0.1,0.1,0.1c0,0,0,0.1,0,0.1l0.1,0l0.4-1l-0.1,0c0,0,0,0.1-0.1,0.1
		c0,0-0.1,0-0.1,0l-2.8-1.1l3.8-1.6c0,0,0.1,0,0.1-0.1c0,0,0.1,0,0.1,0c0,0,0,0,0,0c0,0,0,0,0,0.1l0.1,0l0.5-1.3l-0.1,0
		c0,0,0,0.1-0.1,0.1c0,0-0.1,0-0.1,0l-3.9-1.5c-0.1,0-0.1-0.1-0.1-0.1c0,0,0-0.1,0-0.1l-0.1,0l-0.4,1l0.1,0c0,0,0-0.1,0.1-0.1
		c0,0,0.1,0,0.1,0L143.5,83.3z"/>
	<path class="st12" d="M75.8,90.7c0.6,0,1.1,0.5,1.1,1.1c0,0.6-0.5,1.1-1.1,1.1c-0.6,0-1.1-0.5-1.1-1.1
		C74.8,91.2,75.2,90.7,75.8,90.7"/>
	<path class="st12" d="M137.6,90.6c0.6,0,1.1,0.5,1.1,1.1c0,0.6-0.5,1.1-1.1,1.1c-0.6,0-1.1-0.5-1.1-1.1
		C136.6,91.1,137,90.6,137.6,90.6"/>
	<path class="st12" d="M73.3,81.6L72.4,82l0,0.1c0,0,0.1,0,0.1,0c0,0,0.1,0.1,0.1,0.2l1.2,3l-1.2,0.5l-0.8-1.9c0-0.1,0-0.1,0-0.2
		c0,0,0-0.1,0-0.1l0-0.1L71,83.9l0,0.1c0,0,0.1,0,0.1,0c0,0,0.1,0.1,0.1,0.1L72,86l-1.1,0.5l-1.2-2.9c0-0.1,0-0.1,0-0.2
		c0,0,0-0.1,0.1-0.1l0-0.1l-0.9,0.4l0,0.1c0,0,0.1,0,0.1,0c0,0,0.1,0.1,0.1,0.2l1.6,4l0.1,0c0-0.1,0-0.1,0-0.1c0,0,0.1-0.1,0.1-0.1
		l3.9-1.6c0.1,0,0.1,0,0.1,0c0,0,0.1,0,0.1,0.1l0.1,0l-1.6-4c0-0.1,0-0.1,0-0.2c0,0,0-0.1,0-0.1L73.3,81.6z"/>
	<path class="st12" d="M68.2,81.4l0.1,0c0-0.1,0-0.1,0-0.2c0,0,0.1,0,0.1-0.1l2.8-0.6c0.6-0.1,1-0.5,1.2-0.9c0.2-0.5,0.2-1.1,0-1.8
		c-0.1-0.7-0.4-1.3-0.7-1.7c-0.3-0.4-0.8-0.5-1.5-0.4l-2.8,0.6c-0.1,0-0.1,0-0.1,0c0,0-0.1-0.1-0.1-0.1l-0.1,0l0.3,1.3l0.1,0
		c0-0.1,0-0.1,0-0.1c0,0,0.1,0,0.1-0.1l2.8-0.6c0.3-0.1,0.6,0,0.8,0.2c0.2,0.2,0.3,0.6,0.4,1c0.1,0.5,0.1,0.9,0,1.1
		c-0.1,0.3-0.3,0.4-0.6,0.5l-2.8,0.6c-0.1,0-0.1,0-0.1,0c0,0-0.1,0-0.1-0.1l-0.1,0L68.2,81.4z"/>
	<path class="st12" d="M67.6,72.6l0-1.8c0-0.3,0-0.6,0.1-0.8c0.1-0.2,0.3-0.3,0.5-0.3c0.2,0,0.4,0,0.5,0.2c0.1,0.1,0.2,0.4,0.2,0.7
		l0,2L67.6,72.6z M69.6,71.1l1.4-1c0.1,0,0.1-0.1,0.2-0.1c0.1,0,0.1-0.1,0.2-0.1c0,0,0,0,0,0c0,0,0,0,0,0l0.1,0l0-1.4l-0.1,0
		c0,0.1,0,0.1,0,0.2c0,0.1-0.1,0.1-0.1,0.1L69.6,70c-0.1-0.4-0.2-0.7-0.4-1c-0.2-0.2-0.5-0.4-0.9-0.4c-0.5,0-0.9,0.2-1.1,0.6
		c-0.2,0.4-0.3,1-0.3,1.7l0,2.7l0.1,0c0-0.1,0-0.1,0-0.1c0,0,0.1,0,0.1,0l4.2-0.1c0.1,0,0.1,0,0.1,0c0,0,0,0.1,0,0.1l0.1,0l0-1.3
		l-0.1,0c0,0.1,0,0.1,0,0.1c0,0-0.1,0-0.1,0l-1.7,0L69.6,71.1z"/>
	<path class="st12" d="M67.3,63.8c-0.1,0.6-0.1,1.1,0.1,1.6c0.1,0.5,0.4,0.9,0.7,1.2c0.3,0.3,0.7,0.5,1.2,0.6c0.5,0.1,0.9,0,1.3-0.2
		c0.4-0.2,0.7-0.5,1-0.9c0.3-0.4,0.5-0.9,0.6-1.5c0.1-0.6,0.1-1.1-0.1-1.6c-0.1-0.5-0.4-0.9-0.7-1.2c-0.3-0.3-0.7-0.5-1.2-0.6
		c-0.5-0.1-0.9,0-1.3,0.2c-0.4,0.2-0.7,0.5-1,0.9C67.6,62.8,67.4,63.3,67.3,63.8 M68,64c0.1-0.6,0.3-1.1,0.7-1.4
		c0.4-0.3,0.8-0.4,1.3-0.4c0.5,0.1,0.9,0.3,1.1,0.8c0.2,0.4,0.3,0.9,0.2,1.5c-0.1,0.6-0.3,1.1-0.7,1.4c-0.4,0.3-0.8,0.4-1.3,0.4
		c-0.5-0.1-0.9-0.3-1.1-0.8C68,65.1,68,64.6,68,64"/>
	<path class="st12" d="M72.1,56.8c0.2-0.5,0.2-1,0-1.3c-0.2-0.3-0.4-0.5-0.8-0.7c-0.5-0.2-0.8-0.1-1.1,0.1c-0.3,0.2-0.5,0.5-0.7,1
		l-1,2.9l0.1,0c0-0.1,0-0.1,0.1-0.1c0,0,0.1,0,0.1,0l3.9,1.4c0.1,0,0.1,0,0.1,0.1c0,0,0,0.1,0,0.1l0.1,0l0.4-1.2l-0.1,0
		c0,0.1,0,0.1-0.1,0.1c0,0-0.1,0-0.1,0l-1.6-0.6L72.1,56.8z M69.5,58.1l0.6-1.7c0.1-0.3,0.2-0.5,0.3-0.6c0.1-0.1,0.3-0.1,0.5,0
		c0.2,0.1,0.4,0.2,0.4,0.3c0,0.1,0,0.4-0.1,0.6l-0.6,1.7L69.5,58.1z"/>
	<path class="st12" d="M77.4,50.9l-0.8-0.5l-0.1,0.1c0,0,0,0,0,0.1c0,0,0,0.1-0.1,0.2l-1.5,2.8L73.8,53l1-1.8c0-0.1,0.1-0.1,0.1-0.1
		c0,0,0.1,0,0.1,0l0.1-0.1l-0.9-0.5l-0.1,0.1c0,0,0,0,0,0.1c0,0,0,0.1-0.1,0.2l-1,1.8l-1-0.6l1.5-2.8c0-0.1,0.1-0.1,0.1-0.1
		c0,0,0.1,0,0.1,0l0.1-0.1l-0.9-0.5L73,48.6c0,0,0,0,0,0.1c0,0,0,0.1-0.1,0.2l-2,3.7l0.1,0.1c0-0.1,0.1-0.1,0.1-0.1c0,0,0.1,0,0.1,0
		l3.6,2c0.1,0,0.1,0.1,0.1,0.1c0,0,0,0.1,0,0.1l0.1,0.1l2.1-3.8c0-0.1,0.1-0.1,0.1-0.1C77.3,51,77.3,51,77.4,50.9L77.4,50.9z"/>
	<path class="st12" d="M78.5,49.2L78.5,49.2c-0.1,0-0.1,0-0.2,0c0,0-0.1,0-0.1,0c0,0,0,0-0.1-0.1c0,0-0.1-0.1-0.1-0.3
		c-0.1-0.1-0.2-0.4-0.3-0.7l1.4-1.8c0.3,0.1,0.6,0.2,0.7,0.2c0.2,0,0.3,0.1,0.3,0.1c0,0,0.1,0,0.1,0c0,0,0,0,0,0.1c0,0,0,0,0,0.1
		l0.1,0.1l0.8-1l-0.1-0.1c0,0-0.1,0-0.1,0c0,0-0.1,0-0.2,0l-4.3-1.1c0,0-0.1,0-0.1,0c0,0-0.1,0-0.1,0c0,0,0,0,0-0.1c0,0,0,0,0-0.1
		l-0.1-0.1l-0.9,1.1l0.1,0.1c0,0,0,0,0.1,0c0,0,0,0,0.1,0c0,0,0,0,0.1,0.1c0,0,0,0.1,0,0.1l1.9,3.9c0.1,0.1,0.1,0.2,0.1,0.3
		c0,0.1,0,0.1,0,0.2l0.1,0.1L78.5,49.2z M78.4,46.2l-1,1.2l-0.8-1.7L78.4,46.2z"/>
	<path class="st12" d="M80.4,41.8l4.3,0.5c0.1,0,0.1,0,0.2,0c0,0,0.1,0,0.1,0c0,0,0,0,0,0.1c0,0,0,0,0,0.1l0.1,0.1l0.9-0.8l-0.1-0.1
		c0,0-0.1,0-0.1,0c0,0-0.1,0-0.1-0.1l-2.7-3.2c0-0.1-0.1-0.1-0.1-0.1c0,0,0-0.1,0.1-0.1l-0.1-0.1L82,38.8l0.1,0.1c0,0,0.1,0,0.1,0
		c0,0,0.1,0,0.1,0.1l1.9,2.4l-4.1-0.5c0,0-0.1,0-0.1,0c0,0-0.1,0-0.1,0c0,0,0,0,0-0.1c0,0,0,0,0,0l-0.1-0.1l-1,0.9l0.1,0.1
		c0,0,0.1,0,0.1,0c0,0,0.1,0,0.1,0.1l2.7,3.2c0,0.1,0.1,0.1,0.1,0.1c0,0,0,0.1,0,0.1l0.1,0.1l0.8-0.7l-0.1-0.1c0,0-0.1,0-0.1,0
		c0,0-0.1,0-0.1-0.1L80.4,41.8z"/>
	<path class="st12" d="M91.2,33.3L91.2,33.3c0.1,0.1,0.1,0.1,0.1,0.1c0,0,0,0,0.1,0c0,0,0,0.2,0,0.4c0,0.2,0,0.5,0,0.8l0.1,2.6
		l-1.9-1.7c-0.3-0.2-0.5-0.4-0.6-0.6c-0.1-0.1-0.2-0.2-0.2-0.2c0,0,0,0,0-0.1c0,0,0,0,0.1-0.1l0-0.1L87.5,35l0,0.1
		c0.1,0,0.1,0,0.2,0c0,0,0.1,0.1,0.1,0.1l3.4,2.9c0,0,0.1,0,0.1,0.1c0,0,0,0,0.1,0.1c0,0,0,0,0,0.1c0,0,0,0-0.1,0.1l0,0.1l1.2-0.5
		l0-0.1c0,0-0.1,0-0.1,0c0,0,0,0,0,0c0,0,0,0,0-0.1c0,0,0-0.1,0-0.1l-0.1-4.5c0-0.1,0-0.1,0-0.2c0-0.1,0.1-0.1,0.1-0.1l0-0.1
		L91.2,33.3z"/>
	<path class="st12" d="M99.7,35.6l-0.2-0.9l-0.1,0c0,0,0,0.1,0,0.1c0,0-0.1,0.1-0.2,0.1l-3.1,0.8l-0.3-1.2l2-0.5c0.1,0,0.1,0,0.2,0
		c0,0,0.1,0,0.1,0.1l0.1,0l-0.3-1l-0.1,0c0,0,0,0.1,0,0.1c0,0-0.1,0.1-0.2,0.1l-2,0.5l-0.3-1.2l3-0.8c0.1,0,0.1,0,0.2,0
		c0,0,0.1,0,0.1,0.1l0.1,0l-0.3-1l-0.1,0c0,0,0,0.1,0,0.1c0,0-0.1,0-0.2,0.1L94,32.1l0,0.1c0.1,0,0.1,0,0.1,0c0,0,0,0.1,0.1,0.1
		l1.1,4.1c0,0.1,0,0.1,0,0.2c0,0,0,0.1-0.1,0.1l0,0.1l4.1-1.1c0.1,0,0.1,0,0.2,0c0,0,0.1,0,0.1,0.1L99.7,35.6z"/>
	<path class="st12" d="M104.9,33.9c-0.1,0.1-0.3,0.2-0.5,0.2c-0.3,0.1-0.5,0.1-0.8,0.2c-0.6,0.1-1.1,0-1.5-0.3
		c-0.4-0.3-0.6-0.7-0.7-1.2c0-0.4,0-0.7,0.2-1c0.2-0.3,0.4-0.5,0.7-0.6c0.3-0.2,0.6-0.3,0.9-0.3c0.3,0,0.6,0,0.9,0.1
		c0.2,0.1,0.4,0.1,0.6,0.2c0.1,0.1,0.2,0.1,0.2,0.2c0,0,0,0,0,0.1c0,0,0,0,0,0l0.1,0l0.5-1.1l-0.1,0c0,0-0.1,0-0.1,0
		c0,0-0.1,0-0.2-0.1c-0.1,0-0.2-0.1-0.4-0.1c-0.2,0-0.4-0.1-0.6-0.1c-0.2,0-0.5,0-0.8,0c-0.5,0-1,0.2-1.4,0.4
		c-0.4,0.2-0.7,0.5-1,0.9c-0.2,0.4-0.3,0.9-0.3,1.4c0.1,0.6,0.2,1,0.5,1.4c0.3,0.3,0.6,0.6,1.1,0.7c0.4,0.1,0.9,0.2,1.5,0.1
		c0.5,0,0.9-0.2,1.3-0.3c0.4-0.2,0.8-0.4,1.1-0.6l0-0.1c0,0-0.1,0-0.1,0c0,0,0-0.1,0-0.1l-0.1-1.3c0-0.1,0-0.1,0-0.1
		c0,0,0,0,0.1-0.1l0-0.1l-2.1,0.2c-0.1,0-0.1,0-0.2,0c0,0-0.1,0-0.1-0.1l-0.1,0l0.1,1l0.1,0c0,0,0-0.1,0-0.1c0,0,0.1-0.1,0.1-0.1
		l1.1-0.1L104.9,33.9z"/>
	<path class="st12" d="M111.9,35.3l0.1-1l-0.1,0c0,0,0,0.1-0.1,0.1c0,0-0.1,0-0.2,0l-3.2-0.3l0.1-1.3l2,0.2c0.1,0,0.1,0,0.2,0.1
		c0,0,0,0.1,0,0.1l0.1,0l0.1-1l-0.1,0c0,0,0,0.1-0.1,0.1c0,0-0.1,0-0.2,0l-2-0.2l0.1-1.2l3.1,0.3c0.1,0,0.1,0,0.2,0.1
		c0,0,0,0.1,0,0.1l0.1,0l0.1-1l-0.1,0c0,0,0,0-0.1,0.1c0,0-0.1,0-0.2,0l-4.2-0.4l0,0.1c0.1,0,0.1,0,0.1,0.1c0,0,0,0.1,0,0.1
		l-0.4,4.2c0,0.1,0,0.1,0,0.1c0,0-0.1,0-0.1,0l0,0.1l4.3,0.4c0.1,0,0.1,0,0.2,0c0,0,0.1,0,0,0.1L111.9,35.3z"/>
	<path class="st12" d="M115.8,36c-0.1,0-0.1,0-0.1-0.1c0,0,0-0.1,0-0.2l0.9-3.6l1.5,0.4c0.1,0,0.1,0,0.2,0.1c0,0,0,0,0,0.1l0.1,0
		l0.2-0.9l-0.1,0c0,0,0,0.1-0.1,0.1c0,0-0.1,0-0.2,0l-3.9-1c-0.1,0-0.1,0-0.2-0.1c0,0,0-0.1,0-0.1l-0.1,0l-0.2,0.9l0.1,0
		c0,0,0-0.1,0.1-0.1c0,0,0.1,0,0.2,0l1.5,0.4l-0.9,3.6c0,0.1,0,0.1-0.1,0.1c0,0-0.1,0-0.1,0l0,0.1l1.2,0.3L115.8,36z"/>
	<path class="st12" d="M119,37.1l0-0.1c0,0-0.1,0-0.1-0.1c0,0,0-0.1,0-0.1c0,0,0,0,0.1-0.1c0,0,0.1-0.1,0.2-0.2
		c0.1-0.1,0.3-0.3,0.5-0.5l2.1,0.9c0,0.4,0,0.6,0,0.8c0,0.2,0,0.3,0,0.3c0,0.1,0,0.1,0,0.1c0,0,0,0,0,0c0,0,0,0-0.1,0l0,0.1l1.2,0.5
		l0-0.1c0,0-0.1,0-0.1-0.1c0,0,0-0.1,0-0.2l-0.2-4.5c0,0,0-0.1,0-0.1c0,0,0-0.1,0-0.1c0,0,0,0,0,0c0,0,0,0,0.1,0l0-0.1l-1.3-0.5
		l0,0.1c0,0,0,0,0,0c0,0,0,0,0,0.1c0,0,0,0.1-0.1,0.1c0,0,0,0-0.1,0.1l-3.1,3c-0.1,0.1-0.2,0.2-0.2,0.2c-0.1,0-0.1,0.1-0.2,0l0,0.1
		L119,37.1z M121.8,36l-1.4-0.6l1.4-1.3L121.8,36z"/>
	<path class="st12" d="M126.9,36.5l1.5,1c0.3,0.2,0.5,0.4,0.5,0.5c0.1,0.2,0.1,0.4,0,0.5c-0.1,0.2-0.2,0.3-0.4,0.3
		c-0.2,0-0.4-0.1-0.7-0.2l-1.6-1.1L126.9,36.5z M127,38.9l0,1.8c0,0.1,0,0.2,0,0.3c0,0.1,0,0.1,0,0.2c0,0,0,0,0,0c0,0,0,0,0,0
		l-0.1,0.1l1.2,0.8l0.1-0.1c0,0-0.1-0.1-0.1-0.1c0-0.1,0-0.1,0-0.2l-0.1-2.1c0.4,0.2,0.7,0.2,1,0.2c0.3-0.1,0.6-0.3,0.8-0.6
		c0.3-0.5,0.3-0.9,0.1-1.3c-0.2-0.4-0.6-0.8-1.2-1.2l-2.2-1.5l-0.1,0.1c0.1,0,0.1,0.1,0.1,0.1c0,0,0,0.1-0.1,0.1l-2.3,3.5
		c0,0.1-0.1,0.1-0.1,0.1c0,0-0.1,0-0.1,0l-0.1,0.1l1,0.7l0.1-0.1c0,0-0.1-0.1-0.1-0.1c0,0,0-0.1,0.1-0.1l0.9-1.4L127,38.9z"/>
	<path class="st12" d="M132.7,40.1c0-0.1,0.1-0.1,0.1-0.1c0,0,0.1,0,0.1,0.1L133,40l-1-0.9l-0.1,0.1c0.1,0.1,0.1,0.1,0.1,0.2
		c0,0,0,0.1-0.1,0.1l-2.7,3.2c0,0.1-0.1,0.1-0.1,0.1c0,0-0.1,0-0.2-0.1l-0.1,0.1l1,0.9l0.1-0.1c-0.1-0.1-0.1-0.1-0.1-0.1
		c0,0,0-0.1,0.1-0.1L132.7,40.1z"/>
	<path class="st12" d="M131.5,45.2L131.5,45.2c0-0.1,0-0.1,0-0.2c0,0,0-0.1,0-0.1c0,0,0,0,0.1,0c0,0,0.1-0.1,0.3-0.1
		c0.1-0.1,0.4-0.1,0.7-0.3l1.5,1.7c-0.1,0.3-0.2,0.6-0.3,0.7c-0.1,0.2-0.1,0.3-0.1,0.3c0,0,0,0.1-0.1,0.1c0,0,0,0-0.1,0
		c0,0,0,0-0.1,0l-0.1,0.1l0.9,0.9l0.1-0.1c0,0,0-0.1,0-0.1c0,0,0-0.1,0.1-0.2l1.7-4.2c0,0,0-0.1,0-0.1c0,0,0-0.1,0-0.1
		c0,0,0,0,0.1,0c0,0,0,0,0.1,0l0.1-0.1l-0.9-1l-0.1,0.1c0,0,0,0,0,0.1c0,0,0,0,0,0.1c0,0,0,0-0.1,0c0,0-0.1,0-0.1,0l-4.1,1.4
		c-0.1,0-0.2,0.1-0.3,0.1c-0.1,0-0.1,0-0.2,0l-0.1,0.1L131.5,45.2z M134.5,45.4l-1.1-1.2l1.8-0.6L134.5,45.4z"/>
	<path class="st12" d="M138.6,48.1l-1.1,4.2c0,0.1,0,0.1,0,0.2c0,0,0,0.1,0,0.1c0,0,0,0-0.1,0c0,0,0,0-0.1-0.1l-0.1,0.1l0.6,1
		l0.1-0.1c0,0,0-0.1,0-0.1c0,0,0-0.1,0.1-0.1l3.5-2.2c0.1,0,0.1-0.1,0.1-0.1c0,0,0.1,0,0.1,0.1l0.1-0.1l-0.6-0.9l-0.1,0.1
		c0,0,0,0.1,0,0.1c0,0-0.1,0.1-0.1,0.1l-2.6,1.6l1-4c0,0,0-0.1,0-0.1c0,0,0-0.1,0-0.1c0,0,0,0,0.1,0c0,0,0,0,0,0l0.1-0.1l-0.7-1.1
		l-0.1,0.1c0,0,0,0.1,0,0.1c0,0-0.1,0.1-0.1,0.1l-3.5,2.2c-0.1,0-0.1,0.1-0.1,0.1c0,0-0.1,0-0.1-0.1l-0.1,0.1l0.6,0.9l0.1-0.1
		c0,0,0-0.1,0-0.1c0,0,0.1-0.1,0.1-0.1L138.6,48.1z"/>
	<path class="st12" d="M144.3,56.6l-0.1,0c0,0.1,0,0.1,0,0.2c0,0-0.1,0.1-0.1,0.1l-2.7,0.8c-0.6,0.2-1,0.5-1.1,1
		c-0.1,0.5-0.1,1.1,0.2,1.8c0.2,0.7,0.5,1.3,0.9,1.6c0.4,0.3,0.9,0.4,1.5,0.2l2.7-0.8c0.1,0,0.1,0,0.1,0c0,0,0.1,0.1,0.1,0.1l0.1,0
		l-0.4-1.2l-0.1,0c0,0.1,0,0.1,0,0.1c0,0-0.1,0.1-0.1,0.1l-2.7,0.8c-0.3,0.1-0.6,0.1-0.8-0.1c-0.2-0.2-0.4-0.5-0.5-1
		c-0.1-0.5-0.2-0.8-0.1-1.1c0.1-0.3,0.3-0.5,0.6-0.6l2.7-0.8c0.1,0,0.1,0,0.1,0c0,0,0.1,0,0.1,0.1l0.1,0L144.3,56.6z"/>
	<path class="st12" d="M145.2,65.4l-2.9,3.3c0,0-0.1,0.1-0.1,0.1c0,0-0.1,0-0.1,0.1c0,0,0,0-0.1,0c0,0,0,0,0-0.1l-0.1,0l0.1,1.2
		l0.1,0c0-0.1,0-0.1,0-0.1c0,0,0.1,0,0.1,0l4.1-0.4c0.1,0,0.1,0,0.1,0c0,0,0,0.1,0,0.1l0.1,0l-0.1-1.1l-0.1,0c0,0,0,0.1,0,0.1
		c0,0-0.1,0-0.1,0l-3,0.3l2.7-3.1c0,0,0.1-0.1,0.1-0.1c0,0,0,0,0.1,0c0,0,0,0,0.1,0c0,0,0,0,0,0.1l0.1,0l-0.1-1.3l-0.1,0
		c0,0,0,0.1,0,0.1c0,0-0.1,0-0.1,0l-4.1,0.4c-0.1,0-0.1,0-0.1,0c0,0,0,0,0-0.1l-0.1,0l0.1,1.1l0.1,0c0,0,0-0.1,0-0.1
		c0,0,0.1,0,0.1,0L145.2,65.4z"/>
	<path class="st12" d="M146.3,72.7c0.1,0,0.1,0,0.1,0c0,0,0,0.1,0,0.2l0.1,0l0-1.4l-0.1,0c0,0.1,0,0.2,0,0.2c0,0-0.1,0-0.1,0
		l-4.2-0.1c-0.1,0-0.1,0-0.1,0c0,0,0-0.1,0-0.2l-0.1,0l0,1.4l0.1,0c0-0.1,0-0.1,0-0.2c0,0,0.1,0,0.1,0L146.3,72.7z"/>
	<path class="st12" d="M146.2,77.6c0.1-0.6,0.1-1.1-0.1-1.6c-0.1-0.5-0.4-0.9-0.7-1.2c-0.3-0.3-0.7-0.5-1.2-0.6
		c-0.5-0.1-0.9,0-1.3,0.2c-0.4,0.2-0.7,0.5-1,0.9c-0.3,0.4-0.5,0.9-0.6,1.5c-0.1,0.6-0.1,1.1,0.1,1.6c0.1,0.5,0.4,0.9,0.7,1.2
		c0.3,0.3,0.7,0.5,1.2,0.6c0.5,0.1,0.9,0,1.3-0.2c0.4-0.2,0.7-0.5,1-0.9C145.9,78.7,146.1,78.2,146.2,77.6 M145.4,77.5
		c-0.1,0.6-0.3,1.1-0.7,1.4c-0.4,0.3-0.8,0.4-1.3,0.4c-0.5-0.1-0.9-0.3-1.1-0.8c-0.2-0.4-0.3-0.9-0.2-1.5c0.1-0.6,0.3-1.1,0.7-1.4
		c0.4-0.3,0.8-0.4,1.3-0.4c0.5,0.1,0.9,0.3,1.1,0.8C145.4,76.4,145.5,76.9,145.4,77.5"/>
	<path class="st12" d="M143.5,83.3l-4,1.6c-0.1,0-0.1,0-0.1,0.1c0,0-0.1,0-0.1,0c0,0,0,0,0,0c0,0,0,0,0-0.1l-0.1,0l-0.4,1.1l0.1,0
		c0,0,0-0.1,0.1-0.1c0,0,0.1,0,0.1,0l3.9,1.5c0.1,0,0.1,0.1,0.1,0.1c0,0,0,0.1,0,0.1l0.1,0l0.4-1l-0.1,0c0,0,0,0.1-0.1,0.1
		c0,0-0.1,0-0.1,0l-2.8-1.1l3.8-1.6c0,0,0.1,0,0.1-0.1c0,0,0.1,0,0.1,0c0,0,0,0,0,0c0,0,0,0,0,0.1l0.1,0l0.5-1.3l-0.1,0
		c0,0,0,0.1-0.1,0.1c0,0-0.1,0-0.1,0l-3.9-1.5c-0.1,0-0.1-0.1-0.1-0.1c0,0,0-0.1,0-0.1l-0.1,0l-0.4,1l0.1,0c0,0,0-0.1,0.1-0.1
		c0,0,0.1,0,0.1,0L143.5,83.3z"/>
	<path class="st12" d="M73.3,81.6L72.4,82l0,0.1c0,0,0.1,0,0.1,0c0,0,0.1,0.1,0.1,0.2l1.2,3l-1.2,0.5l-0.8-1.9c0-0.1,0-0.1,0-0.2
		c0,0,0-0.1,0-0.1l0-0.1L71,83.9l0,0.1c0,0,0.1,0,0.1,0c0,0,0.1,0.1,0.1,0.1L72,86l-1.1,0.5l-1.2-2.9c0-0.1,0-0.1,0-0.2
		c0,0,0-0.1,0.1-0.1l0-0.1l-0.9,0.4l0,0.1c0,0,0.1,0,0.1,0c0,0,0.1,0.1,0.1,0.2l1.6,4l0.1,0c0-0.1,0-0.1,0-0.1c0,0,0.1-0.1,0.1-0.1
		l3.9-1.6c0.1,0,0.1,0,0.1,0c0,0,0.1,0,0.1,0.1l0.1,0l-1.6-4c0-0.1,0-0.1,0-0.2c0,0,0-0.1,0-0.1L73.3,81.6z"/>
	<path class="st12" d="M68.2,81.4l0.1,0c0-0.1,0-0.1,0-0.2c0,0,0.1,0,0.1-0.1l2.8-0.6c0.6-0.1,1-0.5,1.2-0.9c0.2-0.5,0.2-1.1,0-1.8
		c-0.1-0.7-0.4-1.3-0.7-1.7c-0.3-0.4-0.8-0.5-1.5-0.4l-2.8,0.6c-0.1,0-0.1,0-0.1,0c0,0-0.1-0.1-0.1-0.1l-0.1,0l0.3,1.3l0.1,0
		c0-0.1,0-0.1,0-0.1c0,0,0.1,0,0.1-0.1l2.8-0.6c0.3-0.1,0.6,0,0.8,0.2c0.2,0.2,0.3,0.6,0.4,1c0.1,0.5,0.1,0.9,0,1.1
		c-0.1,0.3-0.3,0.4-0.6,0.5l-2.8,0.6c-0.1,0-0.1,0-0.1,0c0,0-0.1,0-0.1-0.1l-0.1,0L68.2,81.4z"/>
	<path class="st12" d="M67.6,72.6l0-1.8c0-0.3,0-0.6,0.1-0.8c0.1-0.2,0.3-0.3,0.5-0.3c0.2,0,0.4,0,0.5,0.2c0.1,0.1,0.2,0.4,0.2,0.7
		l0,2L67.6,72.6z M69.6,71.1l1.4-1c0.1,0,0.1-0.1,0.2-0.1c0.1,0,0.1-0.1,0.2-0.1c0,0,0,0,0,0c0,0,0,0,0,0l0.1,0l0-1.4l-0.1,0
		c0,0.1,0,0.1,0,0.2c0,0.1-0.1,0.1-0.1,0.1L69.6,70c-0.1-0.4-0.2-0.7-0.4-1c-0.2-0.2-0.5-0.4-0.9-0.4c-0.5,0-0.9,0.2-1.1,0.6
		c-0.2,0.4-0.3,1-0.3,1.7l0,2.7l0.1,0c0-0.1,0-0.1,0-0.1c0,0,0.1,0,0.1,0l4.2-0.1c0.1,0,0.1,0,0.1,0c0,0,0,0.1,0,0.1l0.1,0l0-1.3
		l-0.1,0c0,0.1,0,0.1,0,0.1c0,0-0.1,0-0.1,0l-1.7,0L69.6,71.1z"/>
	<path class="st12" d="M67.3,63.8c-0.1,0.6-0.1,1.1,0.1,1.6c0.1,0.5,0.4,0.9,0.7,1.2c0.3,0.3,0.7,0.5,1.2,0.6c0.5,0.1,0.9,0,1.3-0.2
		c0.4-0.2,0.7-0.5,1-0.9c0.3-0.4,0.5-0.9,0.6-1.5c0.1-0.6,0.1-1.1-0.1-1.6c-0.1-0.5-0.4-0.9-0.7-1.2c-0.3-0.3-0.7-0.5-1.2-0.6
		c-0.5-0.1-0.9,0-1.3,0.2c-0.4,0.2-0.7,0.5-1,0.9C67.6,62.8,67.4,63.3,67.3,63.8 M68,64c0.1-0.6,0.3-1.1,0.7-1.4
		c0.4-0.3,0.8-0.4,1.3-0.4c0.5,0.1,0.9,0.3,1.1,0.8c0.2,0.4,0.3,0.9,0.2,1.5c-0.1,0.6-0.3,1.1-0.7,1.4c-0.4,0.3-0.8,0.4-1.3,0.4
		c-0.5-0.1-0.9-0.3-1.1-0.8C68,65.1,68,64.6,68,64"/>
	<path class="st12" d="M72.1,56.8c0.2-0.5,0.2-1,0-1.3c-0.2-0.3-0.4-0.5-0.8-0.7c-0.5-0.2-0.8-0.1-1.1,0.1c-0.3,0.2-0.5,0.5-0.7,1
		l-1,2.9l0.1,0c0-0.1,0-0.1,0.1-0.1c0,0,0.1,0,0.1,0l3.9,1.4c0.1,0,0.1,0,0.1,0.1c0,0,0,0.1,0,0.1l0.1,0l0.4-1.2l-0.1,0
		c0,0.1,0,0.1-0.1,0.1c0,0-0.1,0-0.1,0l-1.6-0.6L72.1,56.8z M69.5,58.1l0.6-1.7c0.1-0.3,0.2-0.5,0.3-0.6c0.1-0.1,0.3-0.1,0.5,0
		c0.2,0.1,0.4,0.2,0.4,0.3c0,0.1,0,0.4-0.1,0.6l-0.6,1.7L69.5,58.1z"/>
	<path class="st12" d="M77.4,50.9l-0.8-0.5l-0.1,0.1c0,0,0,0,0,0.1c0,0,0,0.1-0.1,0.2l-1.5,2.8L73.8,53l1-1.8c0-0.1,0.1-0.1,0.1-0.1
		c0,0,0.1,0,0.1,0l0.1-0.1l-0.9-0.5l-0.1,0.1c0,0,0,0,0,0.1c0,0,0,0.1-0.1,0.2l-1,1.8l-1-0.6l1.5-2.8c0-0.1,0.1-0.1,0.1-0.1
		c0,0,0.1,0,0.1,0l0.1-0.1l-0.9-0.5L73,48.6c0,0,0,0,0,0.1c0,0,0,0.1-0.1,0.2l-2,3.7l0.1,0.1c0-0.1,0.1-0.1,0.1-0.1c0,0,0.1,0,0.1,0
		l3.6,2c0.1,0,0.1,0.1,0.1,0.1c0,0,0,0.1,0,0.1l0.1,0.1l2.1-3.8c0-0.1,0.1-0.1,0.1-0.1C77.3,51,77.3,51,77.4,50.9L77.4,50.9z"/>
	<path class="st12" d="M78.5,49.2L78.5,49.2c-0.1,0-0.1,0-0.2,0c0,0-0.1,0-0.1,0c0,0,0,0-0.1-0.1c0,0-0.1-0.1-0.1-0.3
		c-0.1-0.1-0.2-0.4-0.3-0.7l1.4-1.8c0.3,0.1,0.6,0.2,0.7,0.2c0.2,0,0.3,0.1,0.3,0.1c0,0,0.1,0,0.1,0c0,0,0,0,0,0.1c0,0,0,0,0,0.1
		l0.1,0.1l0.8-1l-0.1-0.1c0,0-0.1,0-0.1,0c0,0-0.1,0-0.2,0l-4.3-1.1c0,0-0.1,0-0.1,0c0,0-0.1,0-0.1,0c0,0,0,0,0-0.1c0,0,0,0,0-0.1
		l-0.1-0.1l-0.9,1.1l0.1,0.1c0,0,0,0,0.1,0c0,0,0,0,0.1,0c0,0,0,0,0.1,0.1c0,0,0,0.1,0,0.1l1.9,3.9c0.1,0.1,0.1,0.2,0.1,0.3
		c0,0.1,0,0.1,0,0.2l0.1,0.1L78.5,49.2z M78.4,46.2l-1,1.2l-0.8-1.7L78.4,46.2z"/>
	<path class="st12" d="M80.4,41.8l4.3,0.5c0.1,0,0.1,0,0.2,0c0,0,0.1,0,0.1,0c0,0,0,0,0,0.1c0,0,0,0,0,0.1l0.1,0.1l0.9-0.8l-0.1-0.1
		c0,0-0.1,0-0.1,0c0,0-0.1,0-0.1-0.1l-2.7-3.2c0-0.1-0.1-0.1-0.1-0.1c0,0,0-0.1,0.1-0.1l-0.1-0.1L82,38.8l0.1,0.1c0,0,0.1,0,0.1,0
		c0,0,0.1,0,0.1,0.1l1.9,2.4l-4.1-0.5c0,0-0.1,0-0.1,0c0,0-0.1,0-0.1,0c0,0,0,0,0-0.1c0,0,0,0,0,0l-0.1-0.1l-1,0.9l0.1,0.1
		c0,0,0.1,0,0.1,0c0,0,0.1,0,0.1,0.1l2.7,3.2c0,0.1,0.1,0.1,0.1,0.1c0,0,0,0.1,0,0.1l0.1,0.1l0.8-0.7l-0.1-0.1c0,0-0.1,0-0.1,0
		c0,0-0.1,0-0.1-0.1L80.4,41.8z"/>
	<path class="st12" d="M91.2,33.3L91.2,33.3c0.1,0.1,0.1,0.1,0.1,0.1c0,0,0,0,0.1,0c0,0,0,0.2,0,0.4c0,0.2,0,0.5,0,0.8l0.1,2.6
		l-1.9-1.7c-0.3-0.2-0.5-0.4-0.6-0.6c-0.1-0.1-0.2-0.2-0.2-0.2c0,0,0,0,0-0.1c0,0,0,0,0.1-0.1l0-0.1L87.5,35l0,0.1
		c0.1,0,0.1,0,0.2,0c0,0,0.1,0.1,0.1,0.1l3.4,2.9c0,0,0.1,0,0.1,0.1c0,0,0,0,0.1,0.1c0,0,0,0,0,0.1c0,0,0,0-0.1,0.1l0,0.1l1.2-0.5
		l0-0.1c0,0-0.1,0-0.1,0c0,0,0,0,0,0c0,0,0,0,0-0.1c0,0,0-0.1,0-0.1l-0.1-4.5c0-0.1,0-0.1,0-0.2c0-0.1,0.1-0.1,0.1-0.1l0-0.1
		L91.2,33.3z"/>
	<path class="st12" d="M99.7,35.6l-0.2-0.9l-0.1,0c0,0,0,0.1,0,0.1c0,0-0.1,0.1-0.2,0.1l-3.1,0.8l-0.3-1.2l2-0.5c0.1,0,0.1,0,0.2,0
		c0,0,0.1,0,0.1,0.1l0.1,0l-0.3-1l-0.1,0c0,0,0,0.1,0,0.1c0,0-0.1,0.1-0.2,0.1l-2,0.5l-0.3-1.2l3-0.8c0.1,0,0.1,0,0.2,0
		c0,0,0.1,0,0.1,0.1l0.1,0l-0.3-1l-0.1,0c0,0,0,0.1,0,0.1c0,0-0.1,0-0.2,0.1L94,32.1l0,0.1c0.1,0,0.1,0,0.1,0c0,0,0,0.1,0.1,0.1
		l1.1,4.1c0,0.1,0,0.1,0,0.2c0,0,0,0.1-0.1,0.1l0,0.1l4.1-1.1c0.1,0,0.1,0,0.2,0c0,0,0.1,0,0.1,0.1L99.7,35.6z"/>
	<path class="st12" d="M104.9,33.9c-0.1,0.1-0.3,0.2-0.5,0.2c-0.3,0.1-0.5,0.1-0.8,0.2c-0.6,0.1-1.1,0-1.5-0.3
		c-0.4-0.3-0.6-0.7-0.7-1.2c0-0.4,0-0.7,0.2-1c0.2-0.3,0.4-0.5,0.7-0.6c0.3-0.2,0.6-0.3,0.9-0.3c0.3,0,0.6,0,0.9,0.1
		c0.2,0.1,0.4,0.1,0.6,0.2c0.1,0.1,0.2,0.1,0.2,0.2c0,0,0,0,0,0.1c0,0,0,0,0,0l0.1,0l0.5-1.1l-0.1,0c0,0-0.1,0-0.1,0
		c0,0-0.1,0-0.2-0.1c-0.1,0-0.2-0.1-0.4-0.1c-0.2,0-0.4-0.1-0.6-0.1c-0.2,0-0.5,0-0.8,0c-0.5,0-1,0.2-1.4,0.4
		c-0.4,0.2-0.7,0.5-1,0.9c-0.2,0.4-0.3,0.9-0.3,1.4c0.1,0.6,0.2,1,0.5,1.4c0.3,0.3,0.6,0.6,1.1,0.7c0.4,0.1,0.9,0.2,1.5,0.1
		c0.5,0,0.9-0.2,1.3-0.3c0.4-0.2,0.8-0.4,1.1-0.6l0-0.1c0,0-0.1,0-0.1,0c0,0,0-0.1,0-0.1l-0.1-1.3c0-0.1,0-0.1,0-0.1
		c0,0,0,0,0.1-0.1l0-0.1l-2.1,0.2c-0.1,0-0.1,0-0.2,0c0,0-0.1,0-0.1-0.1l-0.1,0l0.1,1l0.1,0c0,0,0-0.1,0-0.1c0,0,0.1-0.1,0.1-0.1
		l1.1-0.1L104.9,33.9z"/>
	<path class="st12" d="M111.9,35.3l0.1-1l-0.1,0c0,0,0,0.1-0.1,0.1c0,0-0.1,0-0.2,0l-3.2-0.3l0.1-1.3l2,0.2c0.1,0,0.1,0,0.2,0.1
		c0,0,0,0.1,0,0.1l0.1,0l0.1-1l-0.1,0c0,0,0,0.1-0.1,0.1c0,0-0.1,0-0.2,0l-2-0.2l0.1-1.2l3.1,0.3c0.1,0,0.1,0,0.2,0.1
		c0,0,0,0.1,0,0.1l0.1,0l0.1-1l-0.1,0c0,0,0,0-0.1,0.1c0,0-0.1,0-0.2,0l-4.2-0.4l0,0.1c0.1,0,0.1,0,0.1,0.1c0,0,0,0.1,0,0.1
		l-0.4,4.2c0,0.1,0,0.1,0,0.1c0,0-0.1,0-0.1,0l0,0.1l4.3,0.4c0.1,0,0.1,0,0.2,0c0,0,0.1,0,0,0.1L111.9,35.3z"/>
	<path class="st12" d="M115.8,36c-0.1,0-0.1,0-0.1-0.1c0,0,0-0.1,0-0.2l0.9-3.6l1.5,0.4c0.1,0,0.1,0,0.2,0.1c0,0,0,0,0,0.1l0.1,0
		l0.2-0.9l-0.1,0c0,0,0,0.1-0.1,0.1c0,0-0.1,0-0.2,0l-3.9-1c-0.1,0-0.1,0-0.2-0.1c0,0,0-0.1,0-0.1l-0.1,0l-0.2,0.9l0.1,0
		c0,0,0-0.1,0.1-0.1c0,0,0.1,0,0.2,0l1.5,0.4l-0.9,3.6c0,0.1,0,0.1-0.1,0.1c0,0-0.1,0-0.1,0l0,0.1l1.2,0.3L115.8,36z"/>
	<path class="st12" d="M119,37.1l0-0.1c0,0-0.1,0-0.1-0.1c0,0,0-0.1,0-0.1c0,0,0,0,0.1-0.1c0,0,0.1-0.1,0.2-0.2
		c0.1-0.1,0.3-0.3,0.5-0.5l2.1,0.9c0,0.4,0,0.6,0,0.8c0,0.2,0,0.3,0,0.3c0,0.1,0,0.1,0,0.1c0,0,0,0,0,0c0,0,0,0-0.1,0l0,0.1l1.2,0.5
		l0-0.1c0,0-0.1,0-0.1-0.1c0,0,0-0.1,0-0.2l-0.2-4.5c0,0,0-0.1,0-0.1c0,0,0-0.1,0-0.1c0,0,0,0,0,0c0,0,0,0,0.1,0l0-0.1l-1.3-0.5
		l0,0.1c0,0,0,0,0,0c0,0,0,0,0,0.1c0,0,0,0.1-0.1,0.1c0,0,0,0-0.1,0.1l-3.1,3c-0.1,0.1-0.2,0.2-0.2,0.2c-0.1,0-0.1,0.1-0.2,0l0,0.1
		L119,37.1z M121.8,36l-1.4-0.6l1.4-1.3L121.8,36z"/>
	<path class="st12" d="M126.9,36.5l1.5,1c0.3,0.2,0.5,0.4,0.5,0.5c0.1,0.2,0.1,0.4,0,0.5c-0.1,0.2-0.2,0.3-0.4,0.3
		c-0.2,0-0.4-0.1-0.7-0.2l-1.6-1.1L126.9,36.5z M127,38.9l0,1.8c0,0.1,0,0.2,0,0.3c0,0.1,0,0.1,0,0.2c0,0,0,0,0,0c0,0,0,0,0,0
		l-0.1,0.1l1.2,0.8l0.1-0.1c0,0-0.1-0.1-0.1-0.1c0-0.1,0-0.1,0-0.2l-0.1-2.1c0.4,0.2,0.7,0.2,1,0.2c0.3-0.1,0.6-0.3,0.8-0.6
		c0.3-0.5,0.3-0.9,0.1-1.3c-0.2-0.4-0.6-0.8-1.2-1.2l-2.2-1.5l-0.1,0.1c0.1,0,0.1,0.1,0.1,0.1c0,0,0,0.1-0.1,0.1l-2.3,3.5
		c0,0.1-0.1,0.1-0.1,0.1c0,0-0.1,0-0.1,0l-0.1,0.1l1,0.7l0.1-0.1c0,0-0.1-0.1-0.1-0.1c0,0,0-0.1,0.1-0.1l0.9-1.4L127,38.9z"/>
	<path class="st12" d="M132.7,40.1c0-0.1,0.1-0.1,0.1-0.1c0,0,0.1,0,0.1,0.1L133,40l-1-0.9l-0.1,0.1c0.1,0.1,0.1,0.1,0.1,0.2
		c0,0,0,0.1-0.1,0.1l-2.7,3.2c0,0.1-0.1,0.1-0.1,0.1c0,0-0.1,0-0.2-0.1l-0.1,0.1l1,0.9l0.1-0.1c-0.1-0.1-0.1-0.1-0.1-0.1
		c0,0,0-0.1,0.1-0.1L132.7,40.1z"/>
	<path class="st12" d="M131.5,45.2L131.5,45.2c0-0.1,0-0.1,0-0.2c0,0,0-0.1,0-0.1c0,0,0,0,0.1,0c0,0,0.1-0.1,0.3-0.1
		c0.1-0.1,0.4-0.1,0.7-0.3l1.5,1.7c-0.1,0.3-0.2,0.6-0.3,0.7c-0.1,0.2-0.1,0.3-0.1,0.3c0,0,0,0.1-0.1,0.1c0,0,0,0-0.1,0
		c0,0,0,0-0.1,0l-0.1,0.1l0.9,0.9l0.1-0.1c0,0,0-0.1,0-0.1c0,0,0-0.1,0.1-0.2l1.7-4.2c0,0,0-0.1,0-0.1c0,0,0-0.1,0-0.1
		c0,0,0,0,0.1,0c0,0,0,0,0.1,0l0.1-0.1l-0.9-1l-0.1,0.1c0,0,0,0,0,0.1c0,0,0,0,0,0.1c0,0,0,0-0.1,0c0,0-0.1,0-0.1,0l-4.1,1.4
		c-0.1,0-0.2,0.1-0.3,0.1c-0.1,0-0.1,0-0.2,0l-0.1,0.1L131.5,45.2z M134.5,45.4l-1.1-1.2l1.8-0.6L134.5,45.4z"/>
	<path class="st12" d="M138.6,48.1l-1.1,4.2c0,0.1,0,0.1,0,0.2c0,0,0,0.1,0,0.1c0,0,0,0-0.1,0c0,0,0,0-0.1-0.1l-0.1,0.1l0.6,1
		l0.1-0.1c0,0,0-0.1,0-0.1c0,0,0-0.1,0.1-0.1l3.5-2.2c0.1,0,0.1-0.1,0.1-0.1c0,0,0.1,0,0.1,0.1l0.1-0.1l-0.6-0.9l-0.1,0.1
		c0,0,0,0.1,0,0.1c0,0-0.1,0.1-0.1,0.1l-2.6,1.6l1-4c0,0,0-0.1,0-0.1c0,0,0-0.1,0-0.1c0,0,0,0,0.1,0c0,0,0,0,0,0l0.1-0.1l-0.7-1.1
		l-0.1,0.1c0,0,0,0.1,0,0.1c0,0-0.1,0.1-0.1,0.1l-3.5,2.2c-0.1,0-0.1,0.1-0.1,0.1c0,0-0.1,0-0.1-0.1l-0.1,0.1l0.6,0.9l0.1-0.1
		c0,0,0-0.1,0-0.1c0,0,0.1-0.1,0.1-0.1L138.6,48.1z"/>
	<path class="st12" d="M144.3,56.6l-0.1,0c0,0.1,0,0.1,0,0.2c0,0-0.1,0.1-0.1,0.1l-2.7,0.8c-0.6,0.2-1,0.5-1.1,1
		c-0.1,0.5-0.1,1.1,0.2,1.8c0.2,0.7,0.5,1.3,0.9,1.6c0.4,0.3,0.9,0.4,1.5,0.2l2.7-0.8c0.1,0,0.1,0,0.1,0c0,0,0.1,0.1,0.1,0.1l0.1,0
		l-0.4-1.2l-0.1,0c0,0.1,0,0.1,0,0.1c0,0-0.1,0.1-0.1,0.1l-2.7,0.8c-0.3,0.1-0.6,0.1-0.8-0.1c-0.2-0.2-0.4-0.5-0.5-1
		c-0.1-0.5-0.2-0.8-0.1-1.1c0.1-0.3,0.3-0.5,0.6-0.6l2.7-0.8c0.1,0,0.1,0,0.1,0c0,0,0.1,0,0.1,0.1l0.1,0L144.3,56.6z"/>
	<path class="st12" d="M145.2,65.4l-2.9,3.3c0,0-0.1,0.1-0.1,0.1c0,0-0.1,0-0.1,0.1c0,0,0,0-0.1,0c0,0,0,0,0-0.1l-0.1,0l0.1,1.2
		l0.1,0c0-0.1,0-0.1,0-0.1c0,0,0.1,0,0.1,0l4.1-0.4c0.1,0,0.1,0,0.1,0c0,0,0,0.1,0,0.1l0.1,0l-0.1-1.1l-0.1,0c0,0,0,0.1,0,0.1
		c0,0-0.1,0-0.1,0l-3,0.3l2.7-3.1c0,0,0.1-0.1,0.1-0.1c0,0,0,0,0.1,0c0,0,0,0,0.1,0c0,0,0,0,0,0.1l0.1,0l-0.1-1.3l-0.1,0
		c0,0,0,0.1,0,0.1c0,0-0.1,0-0.1,0l-4.1,0.4c-0.1,0-0.1,0-0.1,0c0,0,0,0,0-0.1l-0.1,0l0.1,1.1l0.1,0c0,0,0-0.1,0-0.1
		c0,0,0.1,0,0.1,0L145.2,65.4z"/>
	<path class="st12" d="M146.3,72.7c0.1,0,0.1,0,0.1,0c0,0,0,0.1,0,0.2l0.1,0l0-1.4l-0.1,0c0,0.1,0,0.2,0,0.2c0,0-0.1,0-0.1,0
		l-4.2-0.1c-0.1,0-0.1,0-0.1,0c0,0,0-0.1,0-0.2l-0.1,0l0,1.4l0.1,0c0-0.1,0-0.1,0-0.2c0,0,0.1,0,0.1,0L146.3,72.7z"/>
	<path class="st12" d="M146.2,77.6c0.1-0.6,0.1-1.1-0.1-1.6c-0.1-0.5-0.4-0.9-0.7-1.2c-0.3-0.3-0.7-0.5-1.2-0.6
		c-0.5-0.1-0.9,0-1.3,0.2c-0.4,0.2-0.7,0.5-1,0.9c-0.3,0.4-0.5,0.9-0.6,1.5c-0.1,0.6-0.1,1.1,0.1,1.6c0.1,0.5,0.4,0.9,0.7,1.2
		c0.3,0.3,0.7,0.5,1.2,0.6c0.5,0.1,0.9,0,1.3-0.2c0.4-0.2,0.7-0.5,1-0.9C145.9,78.7,146.1,78.2,146.2,77.6 M145.4,77.5
		c-0.1,0.6-0.3,1.1-0.7,1.4c-0.4,0.3-0.8,0.4-1.3,0.4c-0.5-0.1-0.9-0.3-1.1-0.8c-0.2-0.4-0.3-0.9-0.2-1.5c0.1-0.6,0.3-1.1,0.7-1.4
		c0.4-0.3,0.8-0.4,1.3-0.4c0.5,0.1,0.9,0.3,1.1,0.8C145.4,76.4,145.5,76.9,145.4,77.5"/>
	<path class="st12" d="M143.5,83.3l-4,1.6c-0.1,0-0.1,0-0.1,0.1c0,0-0.1,0-0.1,0c0,0,0,0,0,0c0,0,0,0,0-0.1l-0.1,0l-0.4,1.1l0.1,0
		c0,0,0-0.1,0.1-0.1c0,0,0.1,0,0.1,0l3.9,1.5c0.1,0,0.1,0.1,0.1,0.1c0,0,0,0.1,0,0.1l0.1,0l0.4-1l-0.1,0c0,0,0,0.1-0.1,0.1
		c0,0-0.1,0-0.1,0l-2.8-1.1l3.8-1.6c0,0,0.1,0,0.1-0.1c0,0,0.1,0,0.1,0c0,0,0,0,0,0c0,0,0,0,0,0.1l0.1,0l0.5-1.3l-0.1,0
		c0,0,0,0.1-0.1,0.1c0,0-0.1,0-0.1,0l-3.9-1.5c-0.1,0-0.1-0.1-0.1-0.1c0,0,0-0.1,0-0.1l-0.1,0l-0.4,1l0.1,0c0,0,0-0.1,0.1-0.1
		c0,0,0.1,0,0.1,0L143.5,83.3z"/>
	<path class="st12" d="M75.8,90.7c0.6,0,1.1,0.5,1.1,1.1c0,0.6-0.5,1.1-1.1,1.1c-0.6,0-1.1-0.5-1.1-1.1
		C74.8,91.2,75.2,90.7,75.8,90.7"/>
	<path class="st12" d="M137.6,90.6c0.6,0,1.1,0.5,1.1,1.1c0,0.6-0.5,1.1-1.1,1.1c-0.6,0-1.1-0.5-1.1-1.1
		C136.6,91.1,137,90.6,137.6,90.6"/>
	<path class="st12" d="M85.3,98.7c-0.1-0.1-0.1-0.1-0.2,0c-0.1,0-0.2,0.1-0.4,0.1l-3.7,1.8c-0.2,0.1-0.4,0.2-0.4,0.2
		c-0.1,0.1-0.1,0.2,0.1,0.3l-0.1,0.1l-1.8-1.7l0.1-0.1c0.1,0.1,0.2,0.1,0.3,0.1c0,0,0.1-0.2,0.2-0.5l1.4-3.1
		c0.2-0.5,0.3-0.7,0.3-0.9c0-0.1,0-0.2-0.1-0.3l0.1-0.1l1.6,1.5l-0.1,0.1C82.4,96,82.4,96,82.3,96c0,0-0.1,0.1-0.1,0.2L81,99l0,0
		l2.7-1.3c0.1,0,0.2-0.1,0.2-0.1c0,0,0-0.1-0.1-0.3l0.1-0.1l1.4,1.3L85.3,98.7z"/>
	<polygon class="st12" points="84.6,100.2 87.1,102 86.3,103.2 83.8,101.4 	"/>
	<path class="st12" d="M88.2,100.5 M91.1,108.2l-0.1-0.1c0.1-0.2,0-0.3-0.1-0.4l-4.4-2.3l0.1-0.1c0.2,0.1,0.3,0,0.4-0.1l1.9-3.9
		c0.1-0.1,0-0.3-0.2-0.4l0.1-0.1l1.9,1l-0.1,0.1c-0.2-0.1-0.3,0-0.4,0.1l-1.6,3.2l2.8,1.4c0.2,0.1,0.3,0,0.4-0.1l0.1,0.1L91.1,108.2
		z"/>
	<path class="st12" d="M93.3,103.3 M96.8,107.8L96.8,107.8l-0.4-2.2l0,0l-1.5,1.7l0,0L96.8,107.8z M98.7,110.4l-1.8-0.5l0-0.1
		c0.1,0,0.1,0,0.2-0.1c0,0,0-0.2,0-0.4l-0.1-0.5l0,0l-2.6-0.8l0,0l-0.4,0.5c-0.1,0.1-0.1,0.1-0.1,0.2c0,0.1,0,0.1,0.1,0.1l0,0.1
		l-1.7-0.5l0-0.1c0.1,0,0.2,0,0.3-0.1c0.1-0.1,0.2-0.3,0.4-0.5l2.4-2.9c0.2-0.2,0.3-0.4,0.3-0.4c0-0.1,0-0.1-0.1-0.1l0-0.1l2.3,0.7
		l0,0.1c-0.1,0-0.2,0-0.2,0.1c0,0.1,0,0.2,0,0.4l0.5,3.5c0,0.2,0.1,0.5,0.1,0.8c0,0.3,0.1,0.5,0.2,0.5L98.7,110.4z"/>
	<path class="st12" d="M104.6,109.4c0-0.2,0-0.4-0.2-0.5c-0.1-0.1-0.4-0.2-0.7-0.2l-1.4-0.1l-0.1,1.3l1.2,0.1c0.3,0,0.6,0,0.8-0.1
		C104.5,109.8,104.6,109.6,104.6,109.4z M104.7,107.4c0-0.2,0-0.3-0.1-0.4c-0.1-0.1-0.3-0.2-0.5-0.2l-1.4-0.1l-0.1,1.1l1.3,0.1
		c0.2,0,0.4,0,0.6-0.1C104.6,107.7,104.6,107.6,104.7,107.4z M106,109.7c-0.1,1-0.8,1.4-2.2,1.3l-3.4-0.3l0-0.1c0.1,0,0.2,0,0.2,0
		c0.1,0,0.1-0.1,0.1-0.2l0.4-4.3c0-0.1,0-0.2,0-0.2c0,0-0.1-0.1-0.2-0.1l0-0.1l3.5,0.3c0.7,0.1,1.2,0.2,1.4,0.4
		c0.3,0.2,0.4,0.5,0.3,1c-0.1,0.6-0.3,0.9-0.9,1.1C105.8,108.5,106.1,109,106,109.7z"/>
	<path class="st12" d="M106.4,106 M113.1,110.9l-0.1,0c-0.1-0.1-0.1-0.2-0.1-0.2c0,0-0.1,0-0.3,0l-5,0.4l0-0.1
		c0.2,0,0.3-0.1,0.3-0.3l-0.4-4.3c0-0.2-0.1-0.3-0.3-0.2l0-0.1l5.1-0.4c0.2,0,0.3-0.1,0.3-0.3l0.1,0l0.1,1.6l-0.1,0
		c0-0.2-0.1-0.3-0.3-0.3l-3.2,0.3l0.1,0.9l2-0.2c0.1,0,0.2,0,0.2-0.1c0,0,0.1-0.1,0-0.3l0.1,0l0.1,1.6l-0.1,0c0-0.1,0-0.2-0.1-0.2
		c0,0-0.1,0-0.3,0l-2,0.2l0.1,1.1l3.1-0.3c0.2,0,0.3-0.1,0.4-0.3l0.1,0L113.1,110.9z"/>
	<path class="st12" d="M112.9,105.4 M120.1,109.2l-0.1,0c0-0.2-0.2-0.3-0.4-0.2l-4.8,1.3l0-0.1c0.2-0.1,0.3-0.2,0.2-0.3l-1.1-4.2
		c0-0.2-0.2-0.2-0.4-0.2l0-0.1l2.1-0.6l0,0.1c-0.2,0.1-0.3,0.2-0.2,0.3l0.9,3.4l3-0.8c0.2-0.1,0.3-0.2,0.2-0.4l0.1,0L120.1,109.2z"
		/>
	<path class="st12" d="M121.1,107.5c-0.1-0.2-0.1-0.5,0-0.7c0.1-0.2,0.3-0.4,0.5-0.5c0.2-0.1,0.5-0.1,0.7,0c0.2,0.1,0.4,0.3,0.5,0.5
		c0.1,0.2,0.1,0.5,0,0.7c-0.1,0.2-0.3,0.4-0.5,0.5c-0.2,0.1-0.5,0.1-0.7,0C121.3,107.9,121.2,107.8,121.1,107.5z"/>
	<path class="st12" d="M121.6,102.7 M129.8,104.2l-0.1,0.1c-0.1-0.1-0.2-0.1-0.2-0.1c0,0-0.1,0-0.3,0.1l-4.3,2.6l-0.1-0.1
		c0.2-0.1,0.2-0.2,0.1-0.4l-2.2-3.7c-0.1-0.2-0.2-0.2-0.4-0.1l-0.1-0.1l4.4-2.6c0.2-0.1,0.2-0.2,0.1-0.4l0.1-0.1l0.8,1.4l-0.1,0.1
		c-0.1-0.2-0.2-0.2-0.4-0.1l-2.8,1.7l0.4,0.7l1.7-1.1c0.1-0.1,0.2-0.1,0.2-0.2c0,0,0-0.1-0.1-0.2l0.1-0.1l0.8,1.4l-0.1,0.1
		c-0.1-0.1-0.1-0.2-0.2-0.2c-0.1,0-0.1,0-0.2,0.1l-1.7,1.1l0.6,1l2.7-1.6c0.2-0.1,0.2-0.3,0.2-0.4l0.1-0.1L129.8,104.2z"/>
	<path class="st12" d="M127.1,99.5 M132.4,95c-0.1,0.1-0.2,0.3,0,0.4l1.6,1.8c1.1,1.2,0.9,2.4-0.4,3.6c-1.3,1.2-2.5,1.3-3.6,0.1
		l-1.6-1.8c-0.1-0.1-0.2-0.1-0.4,0l-0.1-0.1l1.6-1.5l0.1,0.1c-0.1,0.1-0.2,0.3,0,0.4l1.8,2c0.2,0.2,0.4,0.3,0.6,0.3
		c0.2,0,0.5-0.1,0.8-0.4c0.3-0.3,0.4-0.5,0.5-0.7c0.1-0.2,0-0.5-0.2-0.7l-1.8-2c-0.1-0.1-0.2-0.1-0.4,0l-0.1-0.1l1.6-1.5L132.4,95z"
		/>
	<path class="st12" d="M111.8,96.8c0.7,0,1.2,0.3,1.6,0.7c0.4,0.4,0.6,1,0.6,1.7c0,0.7-0.2,1.2-0.6,1.7c-0.4,0.4-0.9,0.7-1.6,0.7
		c-0.7,0-1.2-0.2-1.7-0.7c-0.4-0.4-0.6-1-0.7-1.7c0-0.7,0.2-1.2,0.7-1.7C110.6,97.1,111.1,96.8,111.8,96.8L111.8,96.8z M111.8,96.2
		c-0.9,0-1.6,0.3-2.2,0.9c-0.6,0.6-0.9,1.3-0.9,2.1c0,0.9,0.3,1.6,0.9,2.1c0.6,0.6,1.3,0.8,2.2,0.9c0.9,0,1.6-0.3,2.1-0.9
		c0.6-0.6,0.8-1.3,0.9-2.1c0-0.9-0.3-1.6-0.9-2.1C113.4,96.5,112.7,96.2,111.8,96.2L111.8,96.2z M111.3,98.2c0,0,0.1,0,0.1,0
		c0.1,0,0.1,0,0.2,0c0.2,0,0.4,0,0.5,0.1c0.1,0.1,0.2,0.2,0.2,0.3c0,0.2-0.1,0.3-0.2,0.3c-0.1,0.1-0.3,0.1-0.5,0.1h-0.3V98.2z
		 M111.3,99.6h0.3c0.2,0,0.3,0,0.4,0.1c0.1,0.1,0.2,0.2,0.2,0.4c0,0.2,0.1,0.3,0.1,0.4c0,0.1,0.1,0.2,0.1,0.3h0.7
		c0,0-0.1-0.1-0.1-0.2c0-0.1-0.1-0.3-0.1-0.5c0-0.2-0.1-0.4-0.2-0.5c-0.1-0.1-0.2-0.2-0.3-0.2v0c0.2-0.1,0.3-0.1,0.4-0.3
		c0.1-0.1,0.2-0.3,0.2-0.4c0-0.1,0-0.3-0.1-0.4c-0.1-0.1-0.1-0.2-0.2-0.3c-0.1-0.1-0.2-0.1-0.4-0.2c-0.2,0-0.4-0.1-0.6-0.1
		c-0.2,0-0.5,0-0.6,0c-0.2,0-0.4,0-0.5,0.1v3h0.7V99.6z"/>
	<rect x="64.4" y="116.5" class="st11" width="84.8" height="15.8"/>
	<path class="st12" d="M77.4,119.6c-0.1,0-0.3,0.2-0.4,0.6l-3.6,8.6c-0.2,0.3-0.2,0.5-0.2,0.6c0,0.2,0.1,0.2,0.3,0.2v0.2h-4.1v-0.2
		c0.2,0,0.3-0.1,0.3-0.2c0-0.1-0.1-0.3-0.3-0.8l-3.7-8.5c-0.2-0.4-0.3-0.6-0.5-0.6v-0.2h4v0.2c-0.2,0-0.4,0.1-0.4,0.3
		c0,0,0.1,0.2,0.2,0.5l2.6,5.6h0l2.5-5.6c0.1-0.3,0.2-0.5,0.2-0.5c0-0.1-0.1-0.2-0.3-0.2v-0.2h3.4V119.6z"/>
	<path class="st12" d="M77.8,119.3 M89.7,130.3h-0.2c0-0.1-0.1-0.2-0.1-0.3c0-0.1-0.1-0.2-0.3-0.2h-9.8v-0.2c0.4,0,0.6-0.2,0.6-0.5
		V120c0-0.3-0.2-0.4-0.6-0.5v-0.2h9.8c0.2,0,0.3-0.2,0.4-0.5h0.2v3.3h-0.2c0-0.2-0.1-0.3-0.1-0.3c0-0.1-0.1-0.1-0.3-0.1h-6.3v1.6
		h3.6c0.3,0,0.5-0.2,0.6-0.5h0.2v3.1H87c-0.1-0.3-0.3-0.5-0.6-0.5h-3.6v1.8H89c0.2,0,0.3,0,0.3-0.1c0-0.1,0.1-0.2,0.1-0.4h0.2V130.3
		z"/>
	<path class="st12" d="M98.2,129.8 M104.4,128.4c-1.8,1-3.9,1.5-6.3,1.5c-1.9,0-3.5-0.5-4.7-1.5c-1.2-1-1.7-2.3-1.7-3.9
		c0-1.6,0.6-2.9,1.8-3.9c1.2-1,2.8-1.5,4.7-1.5c0.7,0,1.5,0.1,2.2,0.3c0.8,0.2,1.3,0.3,1.5,0.4c0.4,0.2,0.6,0.2,0.7,0.2
		c0.1,0,0.2-0.1,0.3-0.2l0.2,0.1l-1.3,2.6l-0.2-0.1c0-0.1,0-0.1,0-0.2c0-0.2-0.4-0.3-1.1-0.6c-0.7-0.2-1.5-0.4-2.5-0.4
		c-1.1,0-1.9,0.3-2.6,0.9c-0.6,0.6-1,1.3-1,2.3c0,0.9,0.4,1.7,1.1,2.2c0.7,0.5,1.6,0.8,2.6,0.8c1,0,1.9-0.1,2.7-0.4V126h-2.5
		c-0.2,0-0.3,0.1-0.3,0.4H98v-2.8h0.2c0,0.2,0.1,0.3,0.3,0.3h5.8v0.2c-0.2,0-0.3,0.1-0.3,0.4v3.3c0,0.2,0.1,0.3,0.3,0.3V128.4z"/>
	<path class="st12" d="M105.1,119.3 M113.8,125.9L113.8,125.9l-1.9-4.7h0l-1.7,4.7v0H113.8z M118.4,129.8h-3.9v-0.2
		c0.2,0,0.4-0.1,0.4-0.2c0,0-0.1-0.2-0.2-0.5l-0.5-1.4v0h-4.6v0l-0.5,1.4c-0.1,0.3-0.1,0.4-0.1,0.5c0,0.1,0.1,0.2,0.4,0.2v0.2h-3.5
		v-0.2c0.2,0,0.4-0.2,0.6-0.7l3.2-8.5c0.2-0.4,0.2-0.7,0.2-0.7c0-0.1-0.1-0.2-0.4-0.2v-0.2h5.2v0.2c-0.2,0-0.4,0.1-0.4,0.2
		c0,0,0.1,0.3,0.3,0.8l3.2,8.1c0.2,0.6,0.4,0.9,0.7,0.9V129.8z"/>
	<path class="st12" d="M119.4,119.3 M133.2,129.8h-3.7v-0.2c0.3,0,0.5-0.1,0.5-0.2c0-0.1-0.2-0.4-0.7-0.9c-0.7-0.8-2.4-2.6-5-5.5h0
		v6.1c0,0.3,0.2,0.4,0.6,0.5v0.2H121v-0.2c0.4,0,0.6-0.2,0.6-0.5V120c0-0.3-0.2-0.4-0.6-0.5v-0.2h4.8v0.2c-0.4,0-0.6,0.1-0.6,0.3
		c0,0.1,0.3,0.4,0.8,1l4.1,4.4h0V120c0-0.3-0.1-0.4-0.4-0.5v-0.2h3.6v0.2c-0.4,0-0.6,0.2-0.6,0.5v9.1c0,0.2,0,0.3,0.1,0.4
		c0.1,0.1,0.2,0.1,0.5,0.1V129.8z"/>
	<path class="st12" d="M141.8,118.6 M138.6,124.6c0,0.9,0.3,1.6,1,2.1c0.6,0.5,1.4,0.8,2.3,0.8c0.9,0,1.6-0.3,2.3-0.8
		c0.6-0.5,0.9-1.3,0.9-2.2c0-0.9-0.3-1.5-1-2.1c-0.6-0.5-1.4-0.8-2.2-0.8c-1,0-1.8,0.3-2.4,0.8C138.9,123.1,138.6,123.8,138.6,124.6
		z M135.6,124.6c0-1.7,0.6-3,1.8-4c1.2-0.9,2.7-1.4,4.5-1.4c1.8,0,3.2,0.5,4.3,1.5c1.1,1,1.7,2.3,1.7,3.8c0,1.6-0.6,2.9-1.7,3.9
		c-1.1,1-2.6,1.5-4.5,1.5c-1.8,0-3.3-0.5-4.4-1.4C136.2,127.6,135.6,126.3,135.6,124.6z"/>
</g>
</svg>
