<?xml version="1.0" encoding="utf-8"?>
<!-- Generator: Adobe Illustrator 26.5.0, SVG Export Plug-In . SVG Version: 6.00 Build 0)  -->
<svg version="1.1" id="Capa_1" xmlns="http://www.w3.org/2000/svg" xmlns:xlink="http://www.w3.org/1999/xlink" x="0px" y="0px"
	 viewBox="0 0 51.02 51.02" style="enable-background:new 0 0 51.02 51.02;" xml:space="preserve">
<style type="text/css">
	.st0{fill:#D28D0E;}
	.st1{fill:#FFFFFF;}
	.st2{fill:#FBB800;}
	.st3{fill:#931831;}
	.st4{fill:#F59D08;}
	.st5{fill:#4A7634;}
	.st6{fill:#1F3262;}
	.st7{fill:#EC6411;}
	.st8{fill:#E2071F;}
	.st9{fill:none;stroke:#FFFFFF;stroke-width:0.5939;stroke-linecap:round;stroke-miterlimit:10;}
	.st10{fill:#D6A102;}
	.st11{fill:#289438;}
	.st12{fill:#C11728;}
	.st13{fill:#E6331D;}
	.st14{fill:#DD0979;}
	.st15{fill:#0076B8;}
	.st16{fill:#3EA635;}
	.st17{fill:#004C84;}
	.st18{fill:#00A7D7;}
</style>
<g>
	<rect x="0.41" y="0.41" class="st4" width="50.2" height="50.2"/>
	<path class="st1" d="M4.79,6.67C4.7,6.71,4.45,6.81,4.03,6.96C3.7,7.07,3.49,7.15,3.4,7.19V5.83C3.67,5.73,4,5.57,4.38,5.36
		c0.38-0.21,0.65-0.41,0.81-0.58h1.43v9.57H4.79V6.67z"/>
	<path class="st1" d="M8.79,6.67C8.7,6.71,8.45,6.81,8.03,6.96C7.7,7.07,7.5,7.15,7.41,7.19V5.83C7.68,5.73,8,5.57,8.38,5.36
		c0.38-0.21,0.65-0.41,0.81-0.58h1.43v9.57H8.79V6.67z"/>
	<path class="st1" d="M14.87,8.47c-0.64,0-0.98-0.37-1.02-1.12l0.58-0.12c0.01,0.48,0.15,0.73,0.41,0.73c0.1,0,0.18-0.03,0.23-0.09
		c0.05-0.06,0.07-0.14,0.07-0.25c0-0.1-0.02-0.19-0.06-0.28c-0.04-0.08-0.08-0.15-0.13-0.21c-0.05-0.05-0.12-0.12-0.21-0.2
		l-0.48-0.42c-0.14-0.12-0.25-0.25-0.32-0.38c-0.07-0.13-0.1-0.3-0.1-0.5c0-0.28,0.08-0.5,0.25-0.66c0.17-0.16,0.4-0.24,0.69-0.24
		c0.13,0,0.25,0.02,0.36,0.05c0.1,0.03,0.19,0.08,0.26,0.14c0.07,0.06,0.12,0.13,0.17,0.22c0.04,0.09,0.08,0.18,0.1,0.27
		c0.02,0.09,0.04,0.2,0.05,0.31l-0.57,0.11c0-0.07-0.01-0.14-0.01-0.19c-0.01-0.05-0.02-0.11-0.03-0.17
		c-0.02-0.06-0.04-0.1-0.06-0.14c-0.03-0.03-0.06-0.06-0.1-0.08c-0.04-0.02-0.09-0.03-0.15-0.02c-0.1,0.01-0.17,0.04-0.23,0.1
		c-0.05,0.06-0.08,0.14-0.08,0.24c0,0.12,0.02,0.21,0.07,0.29c0.05,0.08,0.12,0.16,0.22,0.24l0.48,0.41
		c0.08,0.07,0.15,0.14,0.21,0.21c0.06,0.07,0.11,0.14,0.17,0.23c0.05,0.09,0.09,0.18,0.12,0.29c0.03,0.1,0.04,0.21,0.04,0.33
		c0,0.27-0.08,0.48-0.25,0.65C15.37,8.39,15.15,8.47,14.87,8.47"/>
	<path class="st1" d="M16.99,8.47c-0.16,0-0.3-0.02-0.42-0.06c-0.12-0.04-0.22-0.09-0.3-0.16c-0.08-0.07-0.14-0.16-0.19-0.27
		c-0.05-0.11-0.08-0.23-0.1-0.35c-0.02-0.13-0.03-0.27-0.03-0.44V4.77h0.65v2.5c0,0.09,0,0.16,0.01,0.22c0,0.06,0.01,0.12,0.03,0.19
		c0.01,0.07,0.04,0.12,0.06,0.16c0.03,0.04,0.06,0.07,0.11,0.1c0.05,0.03,0.11,0.04,0.17,0.04c0.07,0,0.13-0.01,0.17-0.04
		c0.05-0.03,0.08-0.06,0.11-0.1c0.03-0.04,0.05-0.09,0.06-0.16c0.02-0.07,0.02-0.13,0.03-0.19c0-0.06,0.01-0.13,0.01-0.22v-2.5h0.65
		V7.2c0,0.17-0.01,0.31-0.03,0.44c-0.02,0.13-0.05,0.24-0.1,0.35c-0.05,0.11-0.11,0.2-0.18,0.27s-0.17,0.12-0.29,0.16
		C17.3,8.45,17.16,8.47,16.99,8.47"/>
	<path class="st1" d="M19.28,8.47c-0.64,0-0.98-0.37-1.02-1.12l0.58-0.12c0.01,0.48,0.15,0.73,0.41,0.73c0.1,0,0.18-0.03,0.23-0.09
		c0.05-0.06,0.07-0.14,0.07-0.25c0-0.1-0.02-0.19-0.06-0.28c-0.04-0.08-0.08-0.15-0.13-0.21c-0.05-0.05-0.12-0.12-0.21-0.2
		l-0.48-0.42c-0.14-0.12-0.25-0.25-0.32-0.38c-0.07-0.13-0.1-0.3-0.1-0.5c0-0.28,0.08-0.5,0.25-0.66c0.17-0.16,0.4-0.24,0.69-0.24
		c0.13,0,0.25,0.02,0.36,0.05c0.1,0.03,0.19,0.08,0.26,0.14c0.07,0.06,0.12,0.13,0.17,0.22c0.04,0.09,0.08,0.18,0.1,0.27
		c0.02,0.09,0.04,0.2,0.05,0.31l-0.57,0.11c0-0.07-0.01-0.14-0.01-0.19c-0.01-0.05-0.02-0.11-0.03-0.17
		c-0.02-0.06-0.04-0.1-0.06-0.14c-0.03-0.03-0.06-0.06-0.1-0.08c-0.04-0.02-0.09-0.03-0.15-0.02c-0.1,0.01-0.17,0.04-0.23,0.1
		c-0.05,0.06-0.08,0.14-0.08,0.24c0,0.12,0.02,0.21,0.07,0.29C19,5.93,19.08,6.02,19.17,6.1l0.48,0.41
		c0.08,0.07,0.15,0.14,0.21,0.21c0.06,0.07,0.11,0.14,0.17,0.23c0.05,0.09,0.09,0.18,0.12,0.29c0.03,0.1,0.04,0.21,0.04,0.33
		c0,0.27-0.08,0.48-0.25,0.65C19.77,8.39,19.55,8.47,19.28,8.47"/>
	<polygon class="st1" points="20.75,8.43 20.75,5.26 20.14,5.26 20.14,4.77 22.01,4.77 22.01,5.26 21.42,5.26 21.42,8.43 	"/>
	<path class="st1" d="M22.76,7.15h0.49l-0.25-1.5L22.76,7.15z M21.91,8.43l0.74-3.66h0.69l0.74,3.66h-0.62l-0.15-0.85h-0.63
		l-0.15,0.85H21.91z"/>
	<rect x="24.29" y="4.77" class="st1" width="0.66" height="3.66"/>
	<polygon class="st1" points="25.32,8.43 25.32,4.77 25.78,4.77 26.68,6.84 26.68,4.77 27.23,4.77 27.23,8.43 26.79,8.43 
		25.89,6.25 25.89,8.43 	"/>
	<path class="st1" d="M28.25,7.15h0.49l-0.25-1.5L28.25,7.15z M27.4,8.43l0.74-3.66h0.69l0.74,3.66h-0.62l-0.15-0.85h-0.63
		l-0.15,0.85H27.4z"/>
	<path class="st1" d="M30.42,7.96h0.24c0.2,0,0.34-0.05,0.41-0.14c0.08-0.09,0.11-0.25,0.11-0.46c0-0.22-0.04-0.38-0.13-0.48
		c-0.09-0.1-0.23-0.15-0.43-0.15h-0.21V7.96z M30.42,6.26h0.21c0.2,0,0.33-0.04,0.4-0.13c0.07-0.08,0.11-0.23,0.11-0.42
		c0-0.1-0.01-0.19-0.04-0.25c-0.02-0.06-0.07-0.11-0.12-0.14c-0.06-0.03-0.12-0.05-0.19-0.06c-0.07-0.01-0.16-0.02-0.28-0.02h-0.09
		V6.26z M29.75,8.43V4.77h0.9c0.17,0,0.32,0.01,0.44,0.05c0.13,0.03,0.24,0.08,0.34,0.15c0.1,0.07,0.17,0.17,0.22,0.29
		c0.05,0.12,0.07,0.27,0.07,0.45c0,0.45-0.18,0.7-0.54,0.76c0.22,0.04,0.38,0.14,0.48,0.28c0.11,0.15,0.16,0.36,0.16,0.62
		c0,0.35-0.09,0.61-0.26,0.79c-0.18,0.18-0.43,0.27-0.77,0.27H29.75z"/>
	<polygon class="st1" points="32.08,8.43 32.08,4.77 32.74,4.77 32.74,7.97 33.62,7.97 33.62,8.43 	"/>
	<polygon class="st1" points="33.79,8.43 33.79,4.77 35.32,4.77 35.32,5.24 34.45,5.24 34.45,6.29 35.14,6.29 35.14,6.76 
		34.45,6.76 34.45,7.97 35.33,7.97 35.33,8.43 	"/>
	<path class="st1" d="M37.43,8.47c-0.16,0-0.3-0.02-0.42-0.06s-0.22-0.09-0.3-0.17c-0.08-0.07-0.14-0.16-0.19-0.26
		c-0.05-0.1-0.08-0.22-0.1-0.34c-0.02-0.12-0.03-0.25-0.03-0.4V5.97c0-0.16,0.01-0.3,0.03-0.42c0.02-0.12,0.05-0.24,0.1-0.34
		c0.05-0.11,0.11-0.19,0.19-0.26c0.08-0.07,0.18-0.12,0.3-0.16s0.26-0.06,0.42-0.06c0.18,0,0.34,0.02,0.47,0.07
		c0.13,0.05,0.23,0.12,0.31,0.21c0.08,0.09,0.13,0.2,0.16,0.33c0.03,0.13,0.05,0.27,0.05,0.44V6.1h-0.64V5.79
		c0-0.18-0.01-0.31-0.03-0.37c-0.04-0.12-0.13-0.19-0.28-0.2h-0.04c-0.06,0-0.11,0.01-0.15,0.02c-0.04,0.01-0.08,0.03-0.1,0.06
		c-0.03,0.03-0.05,0.06-0.06,0.09c-0.02,0.03-0.03,0.07-0.04,0.13c-0.01,0.05-0.01,0.1-0.01,0.14c0,0.04,0,0.1,0,0.17v1.55
		c0,0.21,0.03,0.37,0.08,0.46c0.05,0.09,0.15,0.14,0.29,0.14c0.05,0,0.09-0.01,0.12-0.02c0.04-0.01,0.07-0.02,0.09-0.04
		c0.02-0.02,0.04-0.04,0.06-0.07c0.02-0.03,0.03-0.06,0.04-0.09c0.01-0.03,0.02-0.06,0.02-0.11c0-0.05,0.01-0.09,0.01-0.12
		c0-0.03,0-0.08,0-0.14V7.06h0.64v0.3c0,0.14-0.01,0.26-0.03,0.37c-0.02,0.11-0.05,0.21-0.1,0.31c-0.05,0.1-0.11,0.17-0.18,0.24
		c-0.07,0.06-0.17,0.11-0.28,0.15C37.71,8.46,37.58,8.47,37.43,8.47"/>
	<rect x="38.71" y="4.77" class="st1" width="0.66" height="3.66"/>
	<polygon class="st1" points="40.1,8.43 40.1,5.26 39.49,5.26 39.49,4.77 41.36,4.77 41.36,5.26 40.77,5.26 40.77,8.43 	"/>
	<rect x="41.49" y="4.77" class="st1" width="0.66" height="3.66"/>
	<polygon class="st1" points="42.53,8.43 42.53,4.77 44.06,4.77 44.06,5.24 43.19,5.24 43.19,6.29 43.88,6.29 43.88,6.76 
		43.19,6.76 43.19,7.97 44.07,7.97 44.07,8.43 	"/>
	<path class="st1" d="M45.19,8.47c-0.64,0-0.98-0.37-1.02-1.12l0.58-0.12c0.01,0.48,0.15,0.73,0.41,0.73c0.1,0,0.18-0.03,0.23-0.09
		c0.05-0.06,0.07-0.14,0.07-0.25c0-0.1-0.02-0.19-0.06-0.28c-0.04-0.08-0.08-0.15-0.13-0.21c-0.05-0.05-0.12-0.12-0.21-0.2
		L44.6,6.52c-0.14-0.12-0.25-0.25-0.32-0.38c-0.07-0.13-0.1-0.3-0.1-0.5c0-0.28,0.08-0.5,0.25-0.66c0.17-0.16,0.4-0.24,0.69-0.24
		c0.13,0,0.25,0.02,0.36,0.05c0.1,0.03,0.19,0.08,0.26,0.14c0.07,0.06,0.12,0.13,0.17,0.22c0.04,0.09,0.08,0.18,0.1,0.27
		c0.02,0.09,0.04,0.2,0.05,0.31l-0.57,0.11c0-0.07-0.01-0.14-0.01-0.19c-0.01-0.05-0.02-0.11-0.03-0.17
		c-0.02-0.06-0.04-0.1-0.06-0.14c-0.03-0.03-0.06-0.06-0.1-0.08c-0.04-0.02-0.09-0.03-0.15-0.02c-0.1,0.01-0.17,0.04-0.23,0.1
		c-0.05,0.06-0.08,0.14-0.08,0.24c0,0.12,0.02,0.21,0.07,0.29c0.05,0.08,0.12,0.16,0.22,0.24l0.48,0.41
		c0.08,0.07,0.15,0.14,0.21,0.21c0.06,0.07,0.11,0.14,0.17,0.23c0.05,0.09,0.09,0.18,0.12,0.29c0.03,0.1,0.04,0.21,0.04,0.33
		c0,0.27-0.08,0.48-0.25,0.65C45.68,8.39,45.46,8.47,45.19,8.47"/>
	<path class="st1" d="M14.61,13.12h0.49l-0.25-1.5L14.61,13.12z M13.76,14.41l0.74-3.66h0.69l0.74,3.66h-0.62l-0.15-0.85h-0.63
		l-0.15,0.85H13.76z"/>
	<polygon class="st1" points="16.11,14.41 16.11,10.75 16.57,10.75 17.47,12.82 17.47,10.75 18.02,10.75 18.02,14.41 17.58,14.41 
		16.68,12.23 16.68,14.41 	"/>
	<path class="st1" d="M19.05,13.94h0.19c0.07,0,0.12-0.01,0.17-0.02c0.05-0.01,0.09-0.03,0.13-0.04c0.03-0.02,0.06-0.04,0.09-0.08
		c0.02-0.04,0.04-0.07,0.05-0.1c0.01-0.03,0.02-0.08,0.03-0.14c0.01-0.06,0.01-0.12,0.01-0.16c0-0.04,0-0.11,0-0.2v-1.34
		c0-0.09,0-0.16,0-0.21c0-0.05-0.01-0.11-0.02-0.16c-0.01-0.05-0.03-0.1-0.05-0.12s-0.05-0.06-0.09-0.08
		c-0.04-0.02-0.08-0.04-0.13-0.05c-0.05-0.01-0.12-0.01-0.19-0.01h-0.18V13.94z M18.38,14.41v-3.66h0.85c0.22,0,0.41,0.02,0.55,0.07
		c0.15,0.04,0.27,0.11,0.36,0.21c0.09,0.1,0.15,0.21,0.19,0.35c0.04,0.14,0.06,0.31,0.06,0.51v1.32c0,0.21-0.02,0.39-0.06,0.53
		c-0.04,0.15-0.1,0.27-0.19,0.37c-0.09,0.1-0.2,0.18-0.35,0.22c-0.15,0.05-0.32,0.07-0.54,0.07H18.38z"/>
	<path class="st1" d="M22.6,14.45c-0.16,0-0.3-0.02-0.42-0.06s-0.22-0.09-0.3-0.17c-0.08-0.07-0.14-0.16-0.19-0.26
		c-0.05-0.1-0.08-0.22-0.1-0.34c-0.02-0.12-0.03-0.25-0.03-0.4v-1.28c0-0.16,0.01-0.3,0.03-0.42c0.02-0.12,0.05-0.24,0.1-0.34
		s0.11-0.19,0.19-0.26c0.08-0.07,0.18-0.12,0.3-0.16c0.12-0.04,0.26-0.06,0.42-0.06c0.18,0,0.34,0.02,0.47,0.07
		c0.13,0.05,0.23,0.12,0.31,0.21c0.08,0.09,0.13,0.2,0.16,0.33c0.03,0.13,0.05,0.27,0.05,0.44v0.31h-0.64v-0.31
		c0-0.18-0.01-0.31-0.03-0.37c-0.04-0.12-0.13-0.19-0.28-0.2H22.6c-0.06,0-0.11,0.01-0.15,0.02c-0.04,0.01-0.08,0.03-0.1,0.06
		c-0.03,0.03-0.05,0.06-0.06,0.09c-0.02,0.03-0.03,0.07-0.04,0.13c-0.01,0.05-0.01,0.1-0.01,0.14c0,0.04,0,0.1,0,0.17v1.55
		c0,0.21,0.03,0.37,0.08,0.46c0.05,0.09,0.15,0.14,0.29,0.14c0.05,0,0.09-0.01,0.12-0.02c0.04-0.01,0.07-0.02,0.09-0.04
		c0.02-0.02,0.04-0.04,0.06-0.07c0.02-0.03,0.03-0.06,0.04-0.09c0.01-0.03,0.02-0.06,0.02-0.11c0-0.05,0.01-0.09,0.01-0.12
		c0-0.03,0-0.08,0-0.14v-0.33h0.64v0.3c0,0.14-0.01,0.26-0.03,0.37c-0.02,0.11-0.05,0.21-0.1,0.31c-0.05,0.1-0.11,0.17-0.18,0.24
		c-0.07,0.06-0.17,0.11-0.28,0.15C22.88,14.43,22.75,14.45,22.6,14.45"/>
	<path class="st1" d="M24.69,13.93c0.05,0.02,0.1,0.03,0.17,0.03s0.12-0.01,0.17-0.03c0.05-0.02,0.08-0.04,0.11-0.08
		c0.03-0.03,0.05-0.07,0.06-0.12c0.01-0.05,0.03-0.1,0.03-0.15c0.01-0.05,0.01-0.11,0.01-0.18v-1.66c0-0.09,0-0.16-0.01-0.22
		c-0.01-0.06-0.03-0.11-0.05-0.17c-0.03-0.05-0.06-0.09-0.12-0.12c-0.05-0.03-0.12-0.04-0.2-0.04c-0.08,0-0.15,0.01-0.2,0.04
		c-0.05,0.03-0.09,0.06-0.12,0.12c-0.03,0.05-0.04,0.11-0.05,0.17c-0.01,0.06-0.01,0.13-0.01,0.22v1.66c0,0.07,0,0.13,0.01,0.18
		c0.01,0.05,0.02,0.1,0.03,0.15c0.02,0.05,0.04,0.09,0.06,0.12C24.61,13.89,24.64,13.91,24.69,13.93 M24.86,14.45
		c-0.38,0-0.65-0.1-0.81-0.31c-0.16-0.2-0.24-0.5-0.24-0.9V11.9c0-0.19,0.02-0.36,0.05-0.51c0.04-0.14,0.1-0.27,0.18-0.37
		c0.08-0.1,0.19-0.18,0.33-0.23c0.14-0.05,0.3-0.08,0.49-0.08c0.38,0,0.64,0.1,0.81,0.3c0.16,0.2,0.25,0.5,0.25,0.89v1.35
		c0,0.19-0.02,0.36-0.06,0.5c-0.04,0.14-0.1,0.27-0.18,0.38c-0.08,0.11-0.19,0.19-0.33,0.24C25.21,14.43,25.05,14.45,24.86,14.45"/>
	<polygon class="st1" points="26.21,14.41 26.27,10.75 26.95,10.75 27.48,13.32 28.02,10.75 28.69,10.75 28.75,14.41 28.25,14.41 
		28.21,11.89 27.68,14.41 27.29,14.41 26.76,11.88 26.72,14.41 	"/>
	<polygon class="st1" points="29.1,14.41 29.16,10.75 29.85,10.75 30.38,13.32 30.92,10.75 31.59,10.75 31.65,14.41 31.15,14.41 
		31.1,11.89 30.58,14.41 30.19,14.41 29.65,11.88 29.61,14.41 	"/>
	<path class="st1" d="M33.01,14.45c-0.16,0-0.3-0.02-0.42-0.06s-0.22-0.09-0.3-0.16c-0.08-0.07-0.14-0.16-0.19-0.27
		c-0.05-0.11-0.08-0.23-0.1-0.35c-0.02-0.13-0.03-0.27-0.03-0.44v-2.43h0.65v2.5c0,0.09,0,0.16,0.01,0.22
		c0,0.06,0.01,0.12,0.03,0.19c0.01,0.07,0.04,0.12,0.06,0.16c0.03,0.04,0.06,0.07,0.11,0.1c0.05,0.03,0.11,0.04,0.17,0.04
		c0.07,0,0.13-0.01,0.17-0.04c0.05-0.03,0.08-0.06,0.11-0.1c0.03-0.04,0.05-0.09,0.06-0.16c0.02-0.07,0.02-0.13,0.03-0.19
		c0-0.06,0.01-0.13,0.01-0.22v-2.5h0.65v2.43c0,0.17-0.01,0.31-0.03,0.44c-0.02,0.13-0.05,0.24-0.1,0.35
		c-0.05,0.11-0.11,0.2-0.18,0.27c-0.08,0.07-0.17,0.12-0.29,0.16C33.31,14.43,33.17,14.45,33.01,14.45"/>
	<polygon class="st1" points="34.37,14.41 34.37,10.75 34.83,10.75 35.72,12.82 35.72,10.75 36.27,10.75 36.27,14.41 35.84,14.41 
		34.93,12.23 34.93,14.41 	"/>
	<rect x="36.66" y="10.75" class="st1" width="0.66" height="3.66"/>
	<polygon class="st1" points="38.05,14.41 38.05,11.24 37.43,11.24 37.43,10.75 39.31,10.75 39.31,11.24 38.71,11.24 38.71,14.41 	
		"/>
	<rect x="39.43" y="10.75" class="st1" width="0.66" height="3.66"/>
	<polygon class="st1" points="40.47,14.41 40.47,10.75 42,10.75 42,11.22 41.13,11.22 41.13,12.27 41.82,12.27 41.82,12.74 
		41.13,12.74 41.13,13.95 42.01,13.95 42.01,14.41 	"/>
	<path class="st1" d="M43.13,14.45c-0.64,0-0.98-0.37-1.02-1.12l0.58-0.12c0.01,0.48,0.15,0.73,0.41,0.73c0.1,0,0.18-0.03,0.23-0.09
		c0.05-0.06,0.07-0.14,0.07-0.25c0-0.1-0.02-0.19-0.06-0.28c-0.04-0.08-0.08-0.15-0.13-0.21c-0.05-0.05-0.12-0.12-0.21-0.2
		l-0.48-0.42c-0.14-0.12-0.25-0.25-0.32-0.38c-0.07-0.13-0.1-0.3-0.1-0.5c0-0.28,0.08-0.5,0.25-0.66c0.17-0.16,0.4-0.24,0.69-0.24
		c0.13,0,0.25,0.02,0.36,0.05c0.1,0.03,0.19,0.08,0.26,0.14c0.07,0.06,0.12,0.13,0.17,0.22c0.04,0.09,0.08,0.18,0.1,0.27
		c0.02,0.09,0.04,0.2,0.05,0.31l-0.57,0.11c0-0.07-0.01-0.14-0.01-0.19c-0.01-0.05-0.02-0.11-0.03-0.17
		c-0.02-0.06-0.04-0.1-0.06-0.14c-0.03-0.03-0.06-0.06-0.1-0.08c-0.04-0.02-0.09-0.03-0.15-0.02c-0.1,0.01-0.17,0.04-0.23,0.1
		c-0.05,0.06-0.08,0.14-0.08,0.24c0,0.12,0.02,0.21,0.07,0.29c0.05,0.08,0.12,0.16,0.22,0.24l0.48,0.41
		c0.08,0.07,0.15,0.14,0.21,0.21c0.06,0.07,0.11,0.14,0.17,0.23c0.05,0.09,0.09,0.18,0.12,0.29c0.03,0.1,0.04,0.21,0.04,0.33
		c0,0.27-0.08,0.48-0.25,0.65C43.63,14.37,43.41,14.45,43.13,14.45"/>
	<path class="st1" d="M8.97,38.69h0.08h7.51c0.1,0,0.19-0.08,0.19-0.19c0-0.05-0.02-0.09-0.05-0.12l-0.01-0.01l-3.77-4.88
		l-0.04-0.04c-0.03-0.04-0.08-0.06-0.14-0.06c-0.05,0-0.09,0.02-0.12,0.05l-0.02,0.03l-0.04,0.04l-3.68,4.83L8.82,38.4
		c-0.02,0.03-0.03,0.07-0.03,0.1C8.79,38.61,8.87,38.69,8.97,38.69"/>
	<path class="st1" d="M16.54,39.38h-7.6c-0.1,0-0.19,0.08-0.19,0.19v5.95c0,0.1,0.08,0.19,0.19,0.19h2.45v-3.74
		c0-0.1,0.08-0.19,0.19-0.19h2.27c0.1,0,0.19,0.08,0.19,0.19v3.74h2.51c0.1,0,0.19-0.08,0.19-0.19v-5.95
		C16.72,39.46,16.64,39.38,16.54,39.38"/>
	<path class="st1" d="M42.12,40.26c0,0.1-0.08,0.18-0.18,0.18h-2.25c-0.1,0-0.18-0.08-0.18-0.18v-1.37c0-0.1,0.08-0.18,0.18-0.18
		h2.25c0.1,0,0.18,0.08,0.18,0.18V40.26z M42.12,42.78c0,0.1-0.08,0.18-0.18,0.18h-2.25c-0.1,0-0.18-0.08-0.18-0.18v-1.37
		c0-0.1,0.08-0.18,0.18-0.18h2.25c0.1,0,0.18,0.08,0.18,0.18V42.78z M38.69,40.26c0,0.1-0.08,0.18-0.18,0.18h-2.25
		c-0.1,0-0.18-0.08-0.18-0.18v-1.37c0-0.1,0.08-0.18,0.18-0.18h2.25c0.1,0,0.18,0.08,0.18,0.18V40.26z M38.69,42.78
		c0,0.1-0.08,0.18-0.18,0.18h-2.25c-0.1,0-0.18-0.08-0.18-0.18v-1.37c0-0.1,0.08-0.18,0.18-0.18h2.25c0.1,0,0.18,0.08,0.18,0.18
		V42.78z M42.81,37.82h-7.52c-0.1,0-0.18,0.08-0.18,0.18v7.6c0,0.1,0.08,0.18,0.18,0.18h7.52c0.1,0,0.18-0.08,0.18-0.18V38
		C42.99,37.9,42.91,37.82,42.81,37.82"/>
	<path class="st1" d="M24.24,25.59c0,0.05-0.04,0.1-0.1,0.1h-1.69c-0.05,0-0.1-0.04-0.1-0.1v-1.88c0-0.05,0.04-0.1,0.1-0.1h1.69
		c0.05,0,0.1,0.04,0.1,0.1V25.59z M24.24,29.9c0,0.05-0.04,0.1-0.1,0.1h-1.69c-0.05,0-0.1-0.04-0.1-0.1v-1.88
		c0-0.05,0.04-0.1,0.1-0.1h1.69c0.05,0,0.1,0.04,0.1,0.1V29.9z M24.24,34.22c0,0.05-0.04,0.1-0.1,0.1h-1.69
		c-0.05,0-0.1-0.04-0.1-0.1v-1.88c0-0.05,0.04-0.1,0.1-0.1h1.69c0.05,0,0.1,0.04,0.1,0.1V34.22z M24.24,38.53
		c0,0.05-0.04,0.1-0.1,0.1h-1.69c-0.05,0-0.1-0.04-0.1-0.1v-1.88c0-0.05,0.04-0.1,0.1-0.1h1.69c0.05,0,0.1,0.04,0.1,0.1V38.53z
		 M24.24,42.84c0,0.05-0.04,0.1-0.1,0.1h-1.69c-0.05,0-0.1-0.04-0.1-0.1v-1.88c0-0.05,0.04-0.1,0.1-0.1h1.69
		c0.05,0,0.1,0.04,0.1,0.1V42.84z M20.94,25.59c0,0.05-0.04,0.1-0.1,0.1h-1.69c-0.05,0-0.1-0.04-0.1-0.1v-1.88
		c0-0.05,0.04-0.1,0.1-0.1h1.69c0.05,0,0.1,0.04,0.1,0.1V25.59z M20.94,29.9c0,0.05-0.04,0.1-0.1,0.1h-1.69
		c-0.05,0-0.1-0.04-0.1-0.1v-1.88c0-0.05,0.04-0.1,0.1-0.1h1.69c0.05,0,0.1,0.04,0.1,0.1V29.9z M20.94,34.22
		c0,0.05-0.04,0.1-0.1,0.1h-1.69c-0.05,0-0.1-0.04-0.1-0.1v-1.88c0-0.05,0.04-0.1,0.1-0.1h1.69c0.05,0,0.1,0.04,0.1,0.1V34.22z
		 M20.94,38.53c0,0.05-0.04,0.1-0.1,0.1h-1.69c-0.05,0-0.1-0.04-0.1-0.1v-1.88c0-0.05,0.04-0.1,0.1-0.1h1.69
		c0.05,0,0.1,0.04,0.1,0.1V38.53z M20.94,42.84c0,0.05-0.04,0.1-0.1,0.1h-1.69c-0.05,0-0.1-0.04-0.1-0.1v-1.88
		c0-0.05,0.04-0.1,0.1-0.1h1.69c0.05,0,0.1,0.04,0.1,0.1V42.84z M25.32,20.19h-7.36c-0.1,0-0.18,0.08-0.18,0.18v25.16
		c0,0.1,0.08,0.18,0.18,0.18h7.36c0.1,0,0.18-0.08,0.18-0.18V20.37C25.5,20.27,25.42,20.19,25.32,20.19"/>
	<path class="st1" d="M42.98,37.06c0,0.08-0.07,0.15-0.15,0.15h-7.57c-0.08,0-0.15-0.07-0.15-0.15v-1.51c0-0.08,0.07-0.15,0.15-0.15
		h7.57c0.08,0,0.15,0.07,0.15,0.15V37.06z"/>
	<path class="st1" d="M33.37,32.63c0,0.1-0.08,0.18-0.18,0.18H31c-0.1,0-0.18-0.08-0.18-0.18v-1.37c0-0.1,0.08-0.18,0.18-0.18h2.19
		c0.1,0,0.18,0.08,0.18,0.18V32.63z M33.37,35.17c0,0.1-0.08,0.18-0.18,0.18H31c-0.1,0-0.18-0.08-0.18-0.18v-1.37
		c0-0.1,0.08-0.18,0.18-0.18h2.19c0.1,0,0.18,0.08,0.18,0.18V35.17z M33.37,37.7c0,0.1-0.08,0.18-0.18,0.18H31
		c-0.1,0-0.18-0.08-0.18-0.18v-1.37c0-0.1,0.08-0.18,0.18-0.18h2.19c0.1,0,0.18,0.08,0.18,0.18V37.7z M33.37,40.24
		c0,0.1-0.08,0.18-0.18,0.18H31c-0.1,0-0.18-0.08-0.18-0.18v-1.37c0-0.1,0.08-0.18,0.18-0.18h2.19c0.1,0,0.18,0.08,0.18,0.18V40.24z
		 M33.37,42.78c0,0.1-0.08,0.18-0.18,0.18H31c-0.1,0-0.18-0.08-0.18-0.18v-1.37c0-0.1,0.08-0.18,0.18-0.18h2.19
		c0.1,0,0.18,0.08,0.18,0.18V42.78z M30.03,32.14v0.07v2.96c0,0.1-0.08,0.18-0.18,0.18h-2.19c-0.1,0-0.18-0.08-0.18-0.18V34.8v-0.01
		c0-0.02,0.01-0.05,0.01-0.07c0-0.01,0-0.01,0.01-0.02c0-0.01,0.01-0.02,0.02-0.02c0.01-0.01,0.01-0.02,0.02-0.03
		c0.28-0.4,1.55-1.96,2.08-2.61l0.05-0.06c0.04-0.05,0.1-0.08,0.16-0.08c0.1,0,0.18,0.07,0.2,0.17V32.14z M30.02,37.7
		c0,0.1-0.08,0.18-0.18,0.18h-2.19c-0.1,0-0.18-0.08-0.18-0.18v-1.37c0-0.1,0.08-0.18,0.18-0.18h2.19c0.1,0,0.18,0.08,0.18,0.18
		V37.7z M30.02,40.24c0,0.1-0.08,0.18-0.18,0.18h-2.19c-0.1,0-0.18-0.08-0.18-0.18v-1.37c0-0.1,0.08-0.18,0.18-0.18h2.19
		c0.1,0,0.18,0.08,0.18,0.18V40.24z M30.02,42.78c0,0.1-0.08,0.18-0.18,0.18h-2.19c-0.1,0-0.18-0.08-0.18-0.18v-1.37
		c0-0.1,0.08-0.18,0.18-0.18h2.19c0.1,0,0.18,0.08,0.18,0.18V42.78z M31.16,29.92l0.05-0.07c0.5-0.64,1.33-1.66,1.74-2.16l0.05-0.06
		c0.04-0.05,0.1-0.08,0.16-0.08c0.1,0,0.18,0.07,0.2,0.17v0.08v0.07v2.17c0,0.11-0.09,0.2-0.2,0.21c0,0-0.01,0-0.01,0
		c0,0-0.01,0-0.01,0h-1.72h-0.09c0,0-0.01,0-0.01,0c0,0-0.01,0-0.01,0c-0.11-0.01-0.2-0.1-0.2-0.21
		C31.12,30,31.14,29.96,31.16,29.92 M34.21,24.94c-0.02-0.08-0.1-0.14-0.18-0.14c-0.04,0-0.07,0.01-0.11,0.03
		c0,0-0.01,0.01-0.01,0.01l-0.06,0.08l-7.24,9.18l-0.03,0.04c-0.04,0.04-0.06,0.09-0.06,0.14v0.01v11.27c0,0.1,0.08,0.18,0.18,0.18
		h7.36c0.1,0,0.18-0.08,0.18-0.18V25.02C34.23,24.99,34.22,24.96,34.21,24.94"/>
</g>
</svg>
