<?xml version="1.0" encoding="utf-8"?>
<!-- Generator: Adobe Illustrator 26.5.0, SVG Export Plug-In . SVG Version: 6.00 Build 0)  -->
<svg version="1.1" id="Capa_1" xmlns="http://www.w3.org/2000/svg" xmlns:xlink="http://www.w3.org/1999/xlink" x="0px" y="0px"
	 viewBox="0 0 51.02 51.02" style="enable-background:new 0 0 51.02 51.02;" xml:space="preserve">
<style type="text/css">
	.st0{fill:#D28D0E;}
	.st1{fill:#FFFFFF;}
	.st2{fill:#FBB800;}
	.st3{fill:#931831;}
	.st4{fill:#F59D08;}
	.st5{fill:#4A7634;}
	.st6{fill:#1F3262;}
	.st7{fill:#EC6411;}
	.st8{fill:#E2071F;}
	.st9{fill:none;stroke:#FFFFFF;stroke-width:0.5939;stroke-linecap:round;stroke-miterlimit:10;}
	.st10{fill:#D6A102;}
	.st11{fill:#289438;}
	.st12{fill:#C11728;}
	.st13{fill:#E6331D;}
	.st14{fill:#DD0979;}
	.st15{fill:#0076B8;}
	.st16{fill:#3EA635;}
	.st17{fill:#004C84;}
	.st18{fill:#00A7D7;}
</style>
<g>
	<rect x="0.41" y="0.41" class="st13" width="50.2" height="50.2"/>
	<path class="st1" d="M5.44,14.15c-0.36-0.23-0.61-0.56-0.74-0.99c-0.13-0.43-0.2-0.96-0.2-1.6h1.77c0,0.55,0.05,0.95,0.15,1.2
		c0.1,0.25,0.3,0.37,0.6,0.37c0.24,0,0.41-0.08,0.52-0.24c0.11-0.16,0.18-0.37,0.21-0.64c0.03-0.27,0.04-0.66,0.04-1.18
		c0-0.58-0.05-1.02-0.16-1.31C7.53,9.49,7.31,9.35,6.98,9.35c-0.43,0-0.7,0.29-0.81,0.86H4.59l0.13-5.44h4.41v1.57H6.22L6.11,8.46
		c0.11-0.13,0.3-0.25,0.57-0.34c0.27-0.09,0.56-0.14,0.86-0.14c0.65,0,1.15,0.26,1.48,0.79c0.33,0.53,0.5,1.27,0.5,2.22
		c0,0.76-0.07,1.38-0.2,1.89c-0.13,0.5-0.39,0.89-0.76,1.18c-0.37,0.29-0.91,0.43-1.6,0.43C6.31,14.5,5.8,14.39,5.44,14.15"/>
	<path class="st1" d="M14.54,8.48c-0.35,0-0.59-0.11-0.75-0.32c-0.15-0.22-0.23-0.53-0.23-0.94V6.02c0-0.21,0.02-0.39,0.05-0.54
		c0.03-0.15,0.09-0.29,0.17-0.4c0.08-0.11,0.19-0.2,0.32-0.26c0.14-0.06,0.3-0.09,0.5-0.09c0.36,0,0.62,0.09,0.78,0.27
		c0.16,0.18,0.24,0.45,0.24,0.81v0.18h-0.64V5.79c0-0.08,0-0.15-0.01-0.2c0-0.05-0.01-0.1-0.03-0.16c-0.01-0.05-0.03-0.09-0.06-0.12
		c-0.03-0.03-0.06-0.05-0.11-0.07c-0.05-0.02-0.1-0.03-0.17-0.03c-0.05,0-0.09,0.01-0.13,0.02c-0.04,0.01-0.07,0.03-0.1,0.05
		c-0.03,0.02-0.05,0.04-0.07,0.08c-0.02,0.03-0.03,0.07-0.04,0.1c-0.01,0.03-0.02,0.07-0.02,0.12c-0.01,0.05-0.01,0.09-0.01,0.13
		c0,0.04,0,0.09,0,0.15v1.48c0,0.22,0.03,0.38,0.08,0.48c0.05,0.1,0.16,0.15,0.31,0.15c0.08,0,0.15-0.01,0.2-0.05
		c0.05-0.03,0.1-0.08,0.13-0.14c0.03-0.06,0.05-0.13,0.06-0.21c0.01-0.08,0.02-0.17,0.02-0.29V7h-0.39V6.57h0.99v1.86H15.2
		l-0.05-0.37C15.05,8.34,14.84,8.48,14.54,8.48"/>
	<polygon class="st1" points="16.12,8.43 16.12,4.77 17.65,4.77 17.65,5.24 16.78,5.24 16.78,6.29 17.47,6.29 17.47,6.76 
		16.78,6.76 16.78,7.97 17.66,7.97 17.66,8.43 	"/>
	<polygon class="st1" points="18.02,8.43 18.02,4.77 18.48,4.77 19.38,6.84 19.38,4.77 19.93,4.77 19.93,8.43 19.49,8.43 
		18.59,6.25 18.59,8.43 	"/>
	<path class="st1" d="M21.12,7.96h0.19c0.07,0,0.12-0.01,0.17-0.02c0.05-0.01,0.09-0.03,0.13-0.04c0.03-0.02,0.06-0.04,0.09-0.08
		c0.02-0.04,0.04-0.07,0.05-0.1c0.01-0.03,0.02-0.08,0.03-0.14c0.01-0.06,0.01-0.12,0.01-0.16c0-0.04,0-0.11,0-0.2V5.89
		c0-0.09,0-0.16,0-0.21c0-0.05-0.01-0.11-0.02-0.16c-0.01-0.05-0.03-0.1-0.05-0.12c-0.02-0.03-0.05-0.06-0.08-0.08
		c-0.04-0.02-0.08-0.04-0.13-0.05c-0.05-0.01-0.12-0.01-0.19-0.01h-0.18V7.96z M20.45,8.43V4.77h0.85c0.22,0,0.41,0.02,0.55,0.07
		c0.15,0.04,0.27,0.11,0.36,0.21c0.09,0.1,0.15,0.21,0.19,0.35c0.04,0.14,0.06,0.31,0.06,0.51v1.32c0,0.21-0.02,0.39-0.06,0.53
		c-0.04,0.15-0.1,0.27-0.19,0.37c-0.09,0.1-0.2,0.18-0.35,0.22c-0.15,0.05-0.32,0.07-0.54,0.07H20.45z"/>
	<polygon class="st1" points="22.93,8.43 22.93,4.77 24.46,4.77 24.46,5.24 23.6,5.24 23.6,6.29 24.28,6.29 24.28,6.76 23.6,6.76 
		23.6,7.97 24.47,7.97 24.47,8.43 	"/>
	<path class="st1" d="M25.5,6.33h0.16c0.2,0,0.34-0.04,0.42-0.13c0.08-0.08,0.12-0.23,0.12-0.43c0-0.2-0.04-0.34-0.11-0.42
		c-0.07-0.08-0.2-0.13-0.4-0.13h-0.2V6.33z M24.83,8.43V4.77h0.84c0.19,0,0.36,0.02,0.5,0.05c0.14,0.03,0.26,0.08,0.36,0.16
		c0.1,0.07,0.18,0.17,0.23,0.3c0.05,0.13,0.08,0.28,0.08,0.47c0,0.23-0.03,0.42-0.1,0.56c-0.07,0.15-0.18,0.25-0.34,0.32l0.51,1.8
		h-0.67l-0.44-1.67h-0.3v1.67H24.83z"/>
	<polygon class="st1" points="13.62,14.41 13.62,10.75 15.15,10.75 15.15,11.22 14.29,11.22 14.29,12.27 14.97,12.27 14.97,12.74 
		14.29,12.74 14.29,13.95 15.16,13.95 15.16,14.41 	"/>
	<path class="st1" d="M16.35,13.93c0.05,0.02,0.1,0.03,0.17,0.03c0.06,0,0.12-0.01,0.17-0.03c0.05-0.02,0.08-0.04,0.11-0.08
		c0.03-0.03,0.05-0.07,0.06-0.12c0.02-0.05,0.03-0.1,0.03-0.15c0.01-0.05,0.01-0.11,0.01-0.18v-1.66c0-0.09,0-0.16-0.01-0.22
		c-0.01-0.06-0.03-0.11-0.05-0.17c-0.03-0.05-0.06-0.09-0.12-0.12c-0.05-0.03-0.12-0.04-0.2-0.04c-0.08,0-0.15,0.01-0.2,0.04
		c-0.05,0.03-0.09,0.06-0.12,0.12c-0.02,0.05-0.04,0.11-0.05,0.17c-0.01,0.06-0.01,0.13-0.01,0.22v1.66c0,0.07,0,0.13,0.01,0.18
		c0.01,0.05,0.02,0.1,0.03,0.15c0.02,0.05,0.04,0.09,0.06,0.12C16.27,13.89,16.31,13.91,16.35,13.93 M17.3,15.14
		c-0.11-0.05-0.23-0.14-0.37-0.28c-0.13-0.13-0.25-0.27-0.34-0.41c-0.02,0-0.04,0-0.07,0c-0.38,0-0.65-0.1-0.81-0.31
		c-0.16-0.2-0.25-0.5-0.25-0.9V11.9c0-0.19,0.02-0.36,0.06-0.51c0.04-0.14,0.1-0.27,0.18-0.37c0.08-0.1,0.19-0.18,0.33-0.23
		c0.14-0.05,0.3-0.08,0.49-0.08c0.38,0,0.64,0.1,0.81,0.3c0.16,0.2,0.25,0.5,0.25,0.89v1.35c0,0.57-0.17,0.93-0.51,1.1
		c0.15,0.17,0.26,0.29,0.36,0.34L17.3,15.14z"/>
	<path class="st1" d="M19.04,14.45c-0.16,0-0.3-0.02-0.42-0.06c-0.12-0.04-0.22-0.09-0.3-0.16c-0.08-0.07-0.14-0.16-0.19-0.27
		c-0.05-0.11-0.08-0.23-0.1-0.35c-0.02-0.13-0.03-0.27-0.03-0.44v-2.43h0.65v2.5c0,0.09,0,0.16,0.01,0.22
		c0,0.06,0.01,0.12,0.03,0.19c0.01,0.07,0.04,0.12,0.06,0.16c0.03,0.04,0.06,0.07,0.11,0.1c0.05,0.03,0.11,0.04,0.17,0.04
		c0.07,0,0.13-0.01,0.17-0.04c0.05-0.03,0.08-0.06,0.11-0.1c0.03-0.04,0.05-0.09,0.06-0.16c0.02-0.07,0.02-0.13,0.03-0.19
		c0-0.06,0.01-0.13,0.01-0.22v-2.5h0.65v2.43c0,0.17-0.01,0.31-0.03,0.44c-0.02,0.13-0.05,0.24-0.1,0.35
		c-0.05,0.11-0.11,0.2-0.18,0.27c-0.08,0.07-0.17,0.12-0.29,0.16C19.34,14.43,19.2,14.45,19.04,14.45"/>
	<path class="st1" d="M21.22,13.12h0.49l-0.25-1.5L21.22,13.12z M20.37,14.41l0.74-3.66h0.7l0.74,3.66h-0.62l-0.15-0.85h-0.63
		L21,14.41H20.37z"/>
	<polygon class="st1" points="22.89,14.41 22.89,10.75 23.56,10.75 23.56,13.95 24.43,13.95 24.43,14.41 	"/>
	<rect x="24.78" y="10.75" class="st1" width="0.66" height="3.66"/>
	<polygon class="st1" points="26.34,14.41 26.34,11.24 25.72,11.24 25.72,10.75 27.6,10.75 27.6,11.24 27,11.24 27,14.41 	"/>
	<polygon class="st1" points="28.38,14.41 28.38,13.02 27.63,10.75 28.26,10.75 28.71,12.21 29.14,10.75 29.76,10.75 29.01,13.02 
		29.01,14.41 	"/>
	<path class="st1" d="M25.42,36.89c-3.33,0-6.04-2.71-6.04-6.04s2.71-6.04,6.04-6.04s6.04,2.71,6.04,6.04S28.76,36.89,25.42,36.89
		 M37.03,19.38h-6.27c-0.04,0-0.08,0.04-0.08,0.08v2.08c0,0.04,0.04,0.08,0.08,0.08h2.5l-2.77,2.77c-1.4-1.1-3.15-1.75-5.06-1.75
		c-4.53,0-8.21,3.68-8.21,8.21c0,4.17,3.12,7.62,7.15,8.14v2.4h-2.47c-0.05,0-0.08,0.04-0.08,0.08v2.23c0,0.04,0.03,0.08,0.08,0.08
		h2.47v2.36c0,0.04,0.04,0.08,0.08,0.08h2.23c0.04,0,0.08-0.04,0.08-0.08v-2.36h2.47c0.04,0,0.08-0.04,0.08-0.08v-2.23
		c0-0.04-0.04-0.08-0.08-0.08h-2.47v-2.44c3.9-0.64,6.88-4.03,6.88-8.1c0-1.76-0.56-3.39-1.5-4.72l2.73-2.73v2.33
		c0,0.04,0.04,0.08,0.08,0.08h2.08c0.04,0,0.08-0.04,0.08-0.08v-6.27C37.11,19.41,37.07,19.38,37.03,19.38"/>
	<path class="st1" d="M29.12,28.37h-7.33c-0.04,0-0.08,0.03-0.08,0.07v1.77c0,0.04,0.04,0.07,0.08,0.07h7.33
		c0.05,0,0.08-0.03,0.08-0.07v-1.77C29.2,28.4,29.16,28.37,29.12,28.37"/>
	<path class="st1" d="M29.12,31.54h-7.33c-0.04,0-0.08,0.03-0.08,0.07v1.77c0,0.04,0.04,0.07,0.08,0.07h7.33
		c0.05,0,0.08-0.03,0.08-0.07v-1.77C29.2,31.57,29.16,31.54,29.12,31.54"/>
</g>
</svg>
