<?xml version="1.0" encoding="utf-8"?>
<!-- Generator: Adobe Illustrator 26.5.0, SVG Export Plug-In . SVG Version: 6.00 Build 0)  -->
<svg version="1.1" id="Capa_1" xmlns="http://www.w3.org/2000/svg" xmlns:xlink="http://www.w3.org/1999/xlink" x="0px" y="0px"
	 viewBox="0 0 51.02 51.02" style="enable-background:new 0 0 51.02 51.02;" xml:space="preserve">
<style type="text/css">
	.st0{fill:#D28D0E;}
	.st1{fill:#FFFFFF;}
	.st2{fill:#FBB800;}
	.st3{fill:#931831;}
	.st4{fill:#F59D08;}
	.st5{fill:#4A7634;}
	.st6{fill:#1F3262;}
	.st7{fill:#EC6411;}
	.st8{fill:#E2071F;}
	.st9{fill:none;stroke:#FFFFFF;stroke-width:0.5939;stroke-linecap:round;stroke-miterlimit:10;}
	.st10{fill:#D6A102;}
	.st11{fill:#289438;}
	.st12{fill:#C11728;}
	.st13{fill:#E6331D;}
	.st14{fill:#DD0979;}
	.st15{fill:#0076B8;}
	.st16{fill:#3EA635;}
	.st17{fill:#004C84;}
	.st18{fill:#00A7D7;}
</style>
<g>
	<rect x="0.41" y="0.41" class="st14" width="50.2" height="50.2"/>
	<path class="st1" d="M4.79,6.67C4.7,6.71,4.45,6.81,4.03,6.96C3.7,7.07,3.49,7.15,3.4,7.19V5.83C3.67,5.73,4,5.57,4.38,5.36
		c0.38-0.21,0.65-0.41,0.81-0.58h1.43v9.57H4.79V6.67z"/>
	<path class="st1" d="M10.82,11.71V7.5c0-0.35-0.05-0.65-0.14-0.89c-0.09-0.24-0.28-0.35-0.56-0.35c-0.3,0-0.49,0.12-0.58,0.35
		C9.46,6.84,9.42,7.13,9.42,7.5v4.22c0,0.8,0.24,1.19,0.71,1.19C10.59,12.91,10.82,12.51,10.82,11.71 M8.22,13.76
		c-0.44-0.5-0.66-1.17-0.66-2.02V7.46c0-0.87,0.21-1.56,0.64-2.06c0.43-0.5,1.07-0.75,1.93-0.75c0.85,0,1.49,0.25,1.91,0.75
		c0.43,0.5,0.64,1.19,0.64,2.06v4.29c0,0.84-0.22,1.51-0.66,2.01c-0.44,0.5-1.07,0.76-1.89,0.76C9.29,14.52,8.66,14.26,8.22,13.76"
		/>
	<path class="st1" d="M17.12,6.33h0.16c0.2,0,0.34-0.04,0.42-0.13c0.08-0.08,0.12-0.23,0.12-0.43c0-0.2-0.04-0.34-0.11-0.42
		c-0.07-0.08-0.2-0.13-0.4-0.13h-0.2V6.33z M16.45,8.43V4.77h0.84c0.19,0,0.36,0.02,0.5,0.05c0.14,0.03,0.26,0.08,0.36,0.16
		c0.1,0.07,0.18,0.17,0.23,0.3c0.05,0.13,0.08,0.28,0.08,0.47c0,0.23-0.03,0.42-0.1,0.56c-0.07,0.15-0.18,0.25-0.34,0.32l0.51,1.8
		h-0.67l-0.44-1.67h-0.3v1.67H16.45z"/>
	<polygon class="st1" points="18.84,8.43 18.84,4.77 20.37,4.77 20.37,5.24 19.51,5.24 19.51,6.29 20.19,6.29 20.19,6.76 
		19.51,6.76 19.51,7.97 20.38,7.97 20.38,8.43 	"/>
	<path class="st1" d="M21.32,7.96h0.19c0.07,0,0.12-0.01,0.17-0.02c0.05-0.01,0.09-0.03,0.13-0.04c0.03-0.02,0.06-0.04,0.09-0.08
		c0.02-0.04,0.04-0.07,0.05-0.1c0.01-0.03,0.02-0.08,0.03-0.14c0.01-0.06,0.01-0.12,0.01-0.16c0-0.04,0-0.11,0-0.2V5.89
		c0-0.09,0-0.16,0-0.21c0-0.05-0.01-0.11-0.02-0.16c-0.01-0.05-0.03-0.1-0.05-0.12c-0.02-0.03-0.05-0.06-0.08-0.08
		c-0.04-0.02-0.08-0.04-0.13-0.05c-0.05-0.01-0.12-0.01-0.19-0.01h-0.18V7.96z M20.65,8.43V4.77h0.85c0.22,0,0.41,0.02,0.55,0.07
		c0.15,0.04,0.27,0.11,0.36,0.21c0.09,0.1,0.15,0.21,0.19,0.35c0.04,0.14,0.06,0.31,0.06,0.51v1.32c0,0.21-0.02,0.39-0.06,0.53
		c-0.04,0.15-0.1,0.27-0.19,0.37c-0.09,0.1-0.2,0.18-0.35,0.22c-0.15,0.05-0.32,0.07-0.54,0.07H20.65z"/>
	<path class="st1" d="M24.04,8.47c-0.16,0-0.3-0.02-0.42-0.06c-0.12-0.04-0.22-0.09-0.3-0.16c-0.08-0.07-0.14-0.16-0.19-0.27
		c-0.05-0.11-0.08-0.23-0.1-0.35C23.01,7.51,23,7.37,23,7.2V4.77h0.65v2.5c0,0.09,0,0.16,0.01,0.22c0,0.06,0.01,0.12,0.03,0.19
		c0.01,0.07,0.04,0.12,0.06,0.16c0.03,0.04,0.06,0.07,0.11,0.1c0.05,0.03,0.11,0.04,0.17,0.04c0.07,0,0.13-0.01,0.17-0.04
		c0.05-0.03,0.08-0.06,0.11-0.1c0.03-0.04,0.05-0.09,0.06-0.16c0.02-0.07,0.03-0.13,0.03-0.19c0-0.06,0.01-0.13,0.01-0.22v-2.5h0.65
		V7.2c0,0.17-0.01,0.31-0.03,0.44c-0.02,0.13-0.05,0.24-0.1,0.35c-0.05,0.11-0.11,0.2-0.18,0.27c-0.08,0.07-0.17,0.12-0.29,0.16
		C24.34,8.45,24.2,8.47,24.04,8.47"/>
	<path class="st1" d="M26.44,8.47c-0.16,0-0.3-0.02-0.42-0.06c-0.12-0.04-0.22-0.09-0.3-0.17c-0.08-0.07-0.14-0.16-0.19-0.26
		c-0.05-0.1-0.08-0.22-0.1-0.34c-0.02-0.12-0.03-0.25-0.03-0.4V5.97c0-0.16,0.01-0.3,0.03-0.42c0.02-0.12,0.05-0.24,0.1-0.34
		c0.05-0.11,0.11-0.19,0.19-0.26c0.08-0.07,0.18-0.12,0.3-0.16c0.12-0.04,0.26-0.06,0.42-0.06c0.18,0,0.34,0.02,0.47,0.07
		c0.13,0.05,0.23,0.12,0.31,0.21c0.08,0.09,0.13,0.2,0.16,0.33c0.03,0.13,0.05,0.27,0.05,0.44V6.1h-0.64V5.79
		c0-0.18-0.01-0.31-0.03-0.37c-0.04-0.12-0.13-0.19-0.28-0.2h-0.04c-0.06,0-0.1,0.01-0.15,0.02c-0.04,0.01-0.08,0.03-0.1,0.06
		c-0.03,0.03-0.05,0.06-0.06,0.09c-0.02,0.03-0.03,0.07-0.04,0.13c-0.01,0.05-0.01,0.1-0.01,0.14c0,0.04,0,0.1,0,0.17v1.55
		c0,0.21,0.03,0.37,0.08,0.46c0.05,0.09,0.15,0.14,0.29,0.14c0.05,0,0.09-0.01,0.12-0.02c0.04-0.01,0.07-0.02,0.09-0.04
		c0.02-0.02,0.05-0.04,0.06-0.07c0.02-0.03,0.03-0.06,0.04-0.09c0.01-0.03,0.02-0.06,0.02-0.11c0-0.05,0.01-0.09,0.01-0.12
		c0-0.03,0-0.08,0-0.14V7.06h0.64v0.3c0,0.14-0.01,0.26-0.03,0.37c-0.02,0.11-0.05,0.21-0.1,0.31c-0.05,0.1-0.11,0.17-0.18,0.24
		c-0.07,0.06-0.17,0.11-0.28,0.15C26.73,8.46,26.6,8.47,26.44,8.47"/>
	<polygon class="st1" points="27.78,8.43 27.78,4.77 29.31,4.77 29.31,5.24 28.44,5.24 28.44,6.29 29.13,6.29 29.13,6.76 
		28.44,6.76 28.44,7.97 29.32,7.97 29.32,8.43 	"/>
	<path class="st1" d="M30.25,7.96h0.19c0.07,0,0.12-0.01,0.17-0.02c0.05-0.01,0.09-0.03,0.13-0.04c0.03-0.02,0.06-0.04,0.09-0.08
		c0.02-0.04,0.04-0.07,0.05-0.1c0.01-0.03,0.02-0.08,0.03-0.14c0.01-0.06,0.01-0.12,0.01-0.16c0-0.04,0-0.11,0-0.2V5.89
		c0-0.09,0-0.16,0-0.21c0-0.05-0.01-0.11-0.02-0.16c-0.01-0.05-0.03-0.1-0.05-0.12c-0.02-0.03-0.05-0.06-0.08-0.08
		c-0.04-0.02-0.08-0.04-0.13-0.05c-0.05-0.01-0.12-0.01-0.19-0.01h-0.18V7.96z M29.59,8.43V4.77h0.85c0.22,0,0.41,0.02,0.55,0.07
		c0.15,0.04,0.27,0.11,0.36,0.21c0.09,0.1,0.15,0.21,0.19,0.35c0.04,0.14,0.06,0.31,0.06,0.51v1.32c0,0.21-0.02,0.39-0.06,0.53
		c-0.04,0.15-0.1,0.27-0.19,0.37c-0.09,0.1-0.2,0.18-0.35,0.22c-0.15,0.05-0.32,0.07-0.54,0.07H29.59z"/>
	<rect x="16.47" y="10.75" class="st1" width="0.66" height="3.66"/>
	<polygon class="st1" points="17.58,14.41 17.58,10.75 18.04,10.75 18.93,12.82 18.93,10.75 19.48,10.75 19.48,14.41 19.05,14.41 
		18.14,12.23 18.14,14.41 	"/>
	<polygon class="st1" points="19.91,14.41 19.91,10.75 21.44,10.75 21.44,11.22 20.58,11.22 20.58,12.27 21.26,12.27 21.26,12.74 
		20.58,12.74 20.58,13.95 21.45,13.95 21.45,14.41 	"/>
	<path class="st1" d="M22.55,13.93c0.05,0.02,0.1,0.03,0.17,0.03s0.12-0.01,0.17-0.03c0.05-0.02,0.08-0.04,0.11-0.08
		c0.03-0.03,0.05-0.07,0.06-0.12c0.02-0.05,0.03-0.1,0.03-0.15c0.01-0.05,0.01-0.11,0.01-0.18v-1.66c0-0.09,0-0.16-0.01-0.22
		c-0.01-0.06-0.03-0.11-0.05-0.17c-0.03-0.05-0.06-0.09-0.12-0.12c-0.05-0.03-0.12-0.04-0.2-0.04c-0.08,0-0.15,0.01-0.2,0.04
		c-0.05,0.03-0.09,0.06-0.12,0.12c-0.02,0.05-0.04,0.11-0.05,0.17c-0.01,0.06-0.01,0.13-0.01,0.22v1.66c0,0.07,0,0.13,0.01,0.18
		c0.01,0.05,0.02,0.1,0.03,0.15c0.02,0.05,0.04,0.09,0.06,0.12C22.47,13.89,22.5,13.91,22.55,13.93 M23.49,15.14
		c-0.11-0.05-0.23-0.14-0.36-0.28c-0.13-0.13-0.25-0.27-0.34-0.41c-0.02,0-0.04,0-0.08,0c-0.38,0-0.65-0.1-0.81-0.31
		c-0.16-0.2-0.25-0.5-0.25-0.9V11.9c0-0.19,0.02-0.36,0.06-0.51c0.04-0.14,0.1-0.27,0.18-0.37c0.08-0.1,0.19-0.18,0.33-0.23
		c0.14-0.05,0.3-0.08,0.49-0.08c0.38,0,0.64,0.1,0.81,0.3c0.16,0.2,0.25,0.5,0.25,0.89v1.35c0,0.57-0.17,0.93-0.51,1.1
		c0.15,0.17,0.26,0.29,0.36,0.34L23.49,15.14z"/>
	<path class="st1" d="M25.14,14.45c-0.16,0-0.3-0.02-0.42-0.06c-0.12-0.04-0.22-0.09-0.3-0.16c-0.08-0.07-0.14-0.16-0.19-0.27
		c-0.05-0.11-0.08-0.23-0.1-0.35c-0.02-0.13-0.03-0.27-0.03-0.44v-2.43h0.65v2.5c0,0.09,0,0.16,0.01,0.22
		c0,0.06,0.01,0.12,0.03,0.19c0.01,0.07,0.04,0.12,0.06,0.16c0.03,0.04,0.06,0.07,0.11,0.1c0.05,0.03,0.11,0.04,0.17,0.04
		c0.07,0,0.13-0.01,0.17-0.04c0.05-0.03,0.08-0.06,0.11-0.1c0.03-0.04,0.05-0.09,0.06-0.16c0.02-0.07,0.02-0.13,0.03-0.19
		c0-0.06,0.01-0.13,0.01-0.22v-2.5h0.65v2.43c0,0.17-0.01,0.31-0.03,0.44c-0.02,0.13-0.05,0.24-0.1,0.35
		c-0.05,0.11-0.11,0.2-0.18,0.27c-0.08,0.07-0.17,0.12-0.29,0.16C25.45,14.43,25.3,14.45,25.14,14.45"/>
	<path class="st1" d="M27.23,13.12h0.49l-0.25-1.5L27.23,13.12z M26.38,14.41l0.74-3.66h0.69l0.74,3.66h-0.62l-0.15-0.85h-0.63
		l-0.15,0.85H26.38z"/>
	<polygon class="st1" points="28.8,14.41 28.8,10.75 29.47,10.75 29.47,13.95 30.34,13.95 30.34,14.41 	"/>
	<rect x="30.6" y="10.75" class="st1" width="0.66" height="3.66"/>
	<polygon class="st1" points="32.06,14.41 32.06,11.24 31.45,11.24 31.45,10.75 33.32,10.75 33.32,11.24 32.73,11.24 32.73,14.41 	
		"/>
	<rect x="33.51" y="10.75" class="st1" width="0.66" height="3.66"/>
	<polygon class="st1" points="34.62,14.41 34.62,10.75 36.15,10.75 36.15,11.22 35.28,11.22 35.28,12.27 35.97,12.27 35.97,12.74 
		35.28,12.74 35.28,13.95 36.16,13.95 36.16,14.41 	"/>
	<path class="st1" d="M37.35,14.45c-0.64,0-0.98-0.37-1.02-1.12l0.58-0.12c0.01,0.48,0.15,0.73,0.41,0.73c0.1,0,0.18-0.03,0.23-0.09
		c0.05-0.06,0.07-0.14,0.07-0.25c0-0.1-0.02-0.19-0.06-0.28c-0.04-0.08-0.08-0.15-0.13-0.21c-0.05-0.05-0.12-0.12-0.21-0.2
		l-0.48-0.42c-0.14-0.12-0.25-0.25-0.32-0.38c-0.07-0.13-0.1-0.3-0.1-0.5c0-0.28,0.08-0.5,0.25-0.66c0.17-0.16,0.4-0.24,0.69-0.24
		c0.13,0,0.25,0.02,0.36,0.05c0.1,0.03,0.19,0.08,0.26,0.14c0.07,0.06,0.12,0.13,0.17,0.22c0.04,0.09,0.08,0.18,0.1,0.27
		c0.02,0.09,0.04,0.2,0.05,0.31l-0.57,0.11c0-0.07-0.01-0.14-0.01-0.19c-0.01-0.05-0.02-0.11-0.03-0.17
		c-0.02-0.06-0.04-0.1-0.06-0.14c-0.03-0.03-0.06-0.06-0.1-0.08c-0.04-0.02-0.09-0.03-0.15-0.02c-0.1,0.01-0.17,0.04-0.23,0.1
		c-0.05,0.06-0.08,0.14-0.08,0.24c0,0.12,0.02,0.21,0.07,0.29c0.05,0.08,0.12,0.16,0.22,0.24l0.48,0.41
		c0.08,0.07,0.15,0.14,0.21,0.21c0.06,0.07,0.11,0.14,0.17,0.23c0.05,0.09,0.09,0.18,0.12,0.29c0.03,0.1,0.04,0.21,0.04,0.33
		c0,0.27-0.08,0.48-0.25,0.65C37.84,14.37,37.62,14.45,37.35,14.45"/>
	<path class="st1" d="M30.17,33.35h-9.25c-0.06,0-0.1,0.05-0.1,0.11v2.78c0,0.06,0.04,0.11,0.1,0.11h9.25c0.06,0,0.1-0.05,0.1-0.11
		v-2.78C30.27,33.4,30.23,33.35,30.17,33.35"/>
	<path class="st1" d="M30.17,27.44h-9.25c-0.06,0-0.1,0.05-0.1,0.11v2.78c0,0.06,0.04,0.11,0.1,0.11h9.25c0.06,0,0.1-0.05,0.1-0.11
		v-2.78C30.27,27.49,30.23,27.44,30.17,27.44"/>
	<path class="st1" d="M30.04,23.24L25.6,18.8c-0.03-0.03-0.08-0.03-0.11,0l-4.44,4.44c-0.05,0.05-0.01,0.13,0.05,0.13h8.88
		C30.05,23.37,30.09,23.29,30.04,23.24"/>
	<path class="st1" d="M34.21,36.39l4.44-4.44c0.03-0.03,0.03-0.08,0-0.11l-4.44-4.44c-0.05-0.05-0.13-0.01-0.13,0.05v8.88
		C34.08,36.41,34.16,36.44,34.21,36.39"/>
	<path class="st1" d="M21.06,40.56L25.49,45c0.03,0.03,0.08,0.03,0.11,0l4.44-4.44c0.05-0.05,0.01-0.13-0.05-0.13h-8.88
		C21.04,40.43,21.01,40.51,21.06,40.56"/>
	<path class="st1" d="M16.89,27.41l-4.44,4.44c-0.03,0.03-0.03,0.08,0,0.11l4.44,4.44c0.05,0.05,0.13,0.01,0.13-0.05v-8.88
		C17.02,27.39,16.94,27.36,16.89,27.41"/>
</g>
</svg>
