<?xml version="1.0" encoding="utf-8"?>
<!-- Generator: Adobe Illustrator 26.5.0, SVG Export Plug-In . SVG Version: 6.00 Build 0)  -->
<svg version="1.1" id="Capa_1" xmlns="http://www.w3.org/2000/svg" xmlns:xlink="http://www.w3.org/1999/xlink" x="0px" y="0px"
	 viewBox="0 0 51.02 51.02" style="enable-background:new 0 0 51.02 51.02;" xml:space="preserve">
<style type="text/css">
	.st0{fill:#D28D0E;}
	.st1{fill:#FFFFFF;}
	.st2{fill:#FBB800;}
	.st3{fill:#931831;}
	.st4{fill:#F59D08;}
	.st5{fill:#4A7634;}
	.st6{fill:#1F3262;}
	.st7{fill:#EC6411;}
	.st8{fill:#E2071F;}
	.st9{fill:none;stroke:#FFFFFF;stroke-width:0.5939;stroke-linecap:round;stroke-miterlimit:10;}
	.st10{fill:#D6A102;}
	.st11{fill:#289438;}
	.st12{fill:#C11728;}
	.st13{fill:#E6331D;}
	.st14{fill:#DD0979;}
	.st15{fill:#0076B8;}
	.st16{fill:#3EA635;}
	.st17{fill:#004C84;}
	.st18{fill:#00A7D7;}
</style>
<g>
	<rect x="0.41" y="0.41" class="st6" width="50.2" height="50.2"/>
	<path class="st1" d="M4.79,6.67C4.7,6.71,4.45,6.81,4.03,6.96C3.7,7.07,3.49,7.15,3.4,7.19V5.83C3.67,5.73,4,5.57,4.38,5.36
		c0.38-0.21,0.65-0.41,0.81-0.58h1.43v9.57H4.79V6.67z"/>
	<polygon class="st1" points="10.3,6.17 7.7,6.17 7.7,4.78 12.09,4.78 12.09,5.97 10.07,14.35 8.3,14.35 	"/>
	<path class="st1" d="M17.12,6.33h0.21c0.19,0,0.32-0.04,0.38-0.11c0.07-0.07,0.1-0.21,0.1-0.41c0-0.11,0-0.2-0.01-0.26
		c-0.01-0.06-0.03-0.12-0.06-0.17c-0.03-0.05-0.08-0.09-0.14-0.11c-0.06-0.02-0.15-0.03-0.26-0.03h-0.22V6.33z M16.45,8.43V4.77
		h1.05c0.62,0,0.94,0.35,0.94,1.04c0,0.34-0.09,0.59-0.26,0.75c-0.17,0.16-0.41,0.24-0.72,0.24h-0.34v1.63H16.45z"/>
	<path class="st1" d="M19.18,7.15h0.49l-0.25-1.5L19.18,7.15z M18.33,8.43l0.74-3.66h0.69l0.74,3.66h-0.62l-0.15-0.85h-0.63
		l-0.15,0.85H18.33z"/>
	<path class="st1" d="M21.44,6.33h0.16c0.2,0,0.34-0.04,0.42-0.13c0.08-0.08,0.12-0.23,0.12-0.43c0-0.2-0.04-0.34-0.11-0.42
		c-0.07-0.08-0.2-0.13-0.4-0.13h-0.2V6.33z M20.77,8.43V4.77h0.84c0.19,0,0.36,0.02,0.5,0.05c0.14,0.03,0.26,0.08,0.36,0.16
		c0.1,0.07,0.18,0.17,0.23,0.3c0.05,0.13,0.08,0.28,0.08,0.47c0,0.23-0.03,0.42-0.1,0.56c-0.07,0.15-0.18,0.25-0.34,0.32l0.51,1.8
		h-0.67l-0.44-1.67h-0.3v1.67H20.77z"/>
	<polygon class="st1" points="23.53,8.43 23.53,5.26 22.92,5.26 22.92,4.77 24.79,4.77 24.79,5.26 24.2,5.26 24.2,8.43 	"/>
	<polygon class="st1" points="24.99,8.43 24.99,4.77 25.44,4.77 26.34,6.84 26.34,4.77 26.89,4.77 26.89,8.43 26.45,8.43 
		25.55,6.25 25.55,8.43 	"/>
	<polygon class="st1" points="27.34,8.43 27.34,4.77 28.87,4.77 28.87,5.24 28.01,5.24 28.01,6.29 28.69,6.29 28.69,6.76 
		28.01,6.76 28.01,7.97 28.88,7.97 28.88,8.43 	"/>
	<path class="st1" d="M29.83,6.33h0.16c0.2,0,0.34-0.04,0.42-0.13c0.08-0.08,0.12-0.23,0.12-0.43c0-0.2-0.04-0.34-0.11-0.42
		c-0.07-0.08-0.2-0.13-0.4-0.13h-0.2V6.33z M29.17,8.43V4.77H30c0.19,0,0.36,0.02,0.5,0.05c0.14,0.03,0.26,0.08,0.36,0.16
		c0.1,0.07,0.18,0.17,0.23,0.3c0.05,0.13,0.08,0.28,0.08,0.47c0,0.23-0.03,0.42-0.1,0.56C31,6.45,30.88,6.56,30.73,6.63l0.51,1.8
		h-0.67l-0.44-1.67h-0.3v1.67H29.17z"/>
	<path class="st1" d="M32.5,8.47c-0.64,0-0.98-0.37-1.02-1.12l0.58-0.12c0.01,0.48,0.15,0.73,0.41,0.73c0.1,0,0.18-0.03,0.23-0.09
		c0.05-0.06,0.07-0.14,0.07-0.25c0-0.1-0.02-0.19-0.06-0.28c-0.04-0.08-0.08-0.15-0.13-0.21c-0.05-0.05-0.12-0.12-0.21-0.2
		L31.9,6.52c-0.14-0.12-0.25-0.25-0.32-0.38c-0.07-0.13-0.1-0.3-0.1-0.5c0-0.28,0.08-0.5,0.25-0.66c0.17-0.16,0.4-0.24,0.69-0.24
		c0.13,0,0.25,0.02,0.36,0.05c0.1,0.03,0.19,0.08,0.26,0.14c0.07,0.06,0.12,0.13,0.17,0.22c0.04,0.09,0.08,0.18,0.1,0.27
		c0.02,0.09,0.04,0.2,0.05,0.31l-0.57,0.11c0-0.07-0.01-0.14-0.01-0.19s-0.02-0.11-0.03-0.17c-0.02-0.06-0.04-0.1-0.06-0.14
		c-0.03-0.03-0.06-0.06-0.1-0.08c-0.04-0.02-0.09-0.03-0.15-0.02c-0.1,0.01-0.17,0.04-0.23,0.1c-0.05,0.06-0.08,0.14-0.08,0.24
		c0,0.12,0.02,0.21,0.07,0.29c0.05,0.08,0.12,0.16,0.22,0.24l0.48,0.41c0.08,0.07,0.15,0.14,0.21,0.21
		c0.06,0.07,0.11,0.15,0.17,0.23c0.05,0.09,0.09,0.18,0.12,0.29c0.03,0.1,0.04,0.21,0.04,0.33c0,0.27-0.08,0.48-0.25,0.65
		C32.99,8.39,32.77,8.47,32.5,8.47"/>
	<polygon class="st1" points="33.71,8.43 33.71,4.77 34.38,4.77 34.38,6.3 35.12,6.3 35.12,4.77 35.79,4.77 35.79,8.43 35.12,8.43 
		35.12,6.78 34.38,6.78 34.38,8.43 	"/>
	<rect x="36.26" y="4.77" class="st1" width="0.66" height="3.66"/>
	<path class="st1" d="M38.05,6.33h0.21c0.19,0,0.32-0.04,0.38-0.11c0.07-0.07,0.1-0.21,0.1-0.41c0-0.11,0-0.2-0.01-0.26
		c-0.01-0.06-0.03-0.12-0.06-0.17c-0.03-0.05-0.08-0.09-0.14-0.11c-0.06-0.02-0.15-0.03-0.26-0.03h-0.22V6.33z M37.38,8.43V4.77
		h1.05c0.62,0,0.94,0.35,0.94,1.04c0,0.34-0.09,0.59-0.26,0.75c-0.17,0.16-0.41,0.24-0.72,0.24h-0.34v1.63H37.38z"/>
	<path class="st1" d="M40.55,8.47c-0.64,0-0.98-0.37-1.02-1.12l0.58-0.12c0.01,0.48,0.15,0.73,0.41,0.73c0.1,0,0.18-0.03,0.23-0.09
		c0.05-0.06,0.07-0.14,0.07-0.25c0-0.1-0.02-0.19-0.06-0.28c-0.04-0.08-0.08-0.15-0.13-0.21c-0.05-0.05-0.12-0.12-0.21-0.2
		l-0.48-0.42c-0.14-0.12-0.25-0.25-0.32-0.38c-0.07-0.13-0.1-0.3-0.1-0.5c0-0.28,0.08-0.5,0.25-0.66c0.17-0.16,0.4-0.24,0.69-0.24
		c0.13,0,0.25,0.02,0.36,0.05c0.1,0.03,0.19,0.08,0.26,0.14c0.07,0.06,0.12,0.13,0.17,0.22c0.04,0.09,0.08,0.18,0.1,0.27
		c0.02,0.09,0.04,0.2,0.05,0.31l-0.57,0.11c0-0.07-0.01-0.14-0.01-0.19c-0.01-0.05-0.02-0.11-0.03-0.17
		c-0.02-0.06-0.04-0.1-0.06-0.14c-0.03-0.03-0.06-0.06-0.1-0.08c-0.04-0.02-0.09-0.03-0.15-0.02c-0.1,0.01-0.17,0.04-0.23,0.1
		c-0.05,0.06-0.08,0.14-0.08,0.24c0,0.12,0.02,0.21,0.07,0.29c0.05,0.08,0.12,0.16,0.22,0.24l0.48,0.41
		c0.08,0.07,0.15,0.14,0.21,0.21c0.06,0.07,0.11,0.15,0.17,0.23c0.05,0.09,0.09,0.18,0.12,0.29c0.03,0.1,0.04,0.21,0.04,0.33
		c0,0.27-0.08,0.48-0.25,0.65C41.04,8.39,40.82,8.47,40.55,8.47"/>
	<polygon class="st1" points="16.45,14.41 16.45,10.75 17.96,10.75 17.96,11.21 17.12,11.21 17.12,12.27 17.79,12.27 17.79,12.74 
		17.12,12.74 17.12,14.41 	"/>
	<path class="st1" d="M19,13.93c0.05,0.02,0.1,0.03,0.17,0.03c0.06,0,0.12-0.01,0.17-0.03c0.05-0.02,0.08-0.04,0.11-0.08
		c0.03-0.03,0.05-0.07,0.06-0.12c0.01-0.05,0.03-0.1,0.03-0.15c0.01-0.05,0.01-0.11,0.01-0.18v-1.66c0-0.09,0-0.16-0.01-0.22
		c-0.01-0.06-0.03-0.11-0.05-0.17c-0.03-0.05-0.06-0.09-0.12-0.12c-0.05-0.03-0.12-0.04-0.2-0.04c-0.08,0-0.15,0.01-0.2,0.04
		c-0.05,0.03-0.09,0.06-0.12,0.12c-0.03,0.05-0.04,0.11-0.05,0.17c-0.01,0.06-0.01,0.13-0.01,0.22v1.66c0,0.07,0,0.13,0.01,0.18
		s0.02,0.1,0.03,0.15c0.02,0.05,0.04,0.09,0.06,0.12C18.92,13.89,18.95,13.91,19,13.93 M19.17,14.45c-0.38,0-0.65-0.1-0.81-0.31
		c-0.16-0.2-0.24-0.5-0.24-0.9V11.9c0-0.19,0.02-0.36,0.05-0.51c0.04-0.14,0.1-0.27,0.18-0.37c0.08-0.1,0.19-0.18,0.33-0.23
		c0.14-0.05,0.3-0.08,0.49-0.08c0.38,0,0.64,0.1,0.81,0.3c0.16,0.2,0.25,0.5,0.25,0.89v1.35c0,0.19-0.02,0.36-0.06,0.5
		c-0.04,0.14-0.1,0.27-0.18,0.38c-0.08,0.11-0.19,0.19-0.33,0.24C19.52,14.43,19.36,14.45,19.17,14.45"/>
	<path class="st1" d="M21.24,12.31h0.16c0.2,0,0.34-0.04,0.42-0.13c0.08-0.08,0.12-0.23,0.12-0.43c0-0.2-0.04-0.34-0.11-0.42
		c-0.07-0.08-0.2-0.13-0.4-0.13h-0.2V12.31z M20.57,14.41v-3.66h0.84c0.19,0,0.36,0.02,0.5,0.05c0.14,0.03,0.26,0.08,0.36,0.16
		c0.1,0.07,0.18,0.17,0.23,0.3c0.05,0.13,0.08,0.28,0.08,0.47c0,0.23-0.03,0.42-0.1,0.56c-0.07,0.15-0.18,0.25-0.34,0.32l0.51,1.8
		h-0.67l-0.44-1.67h-0.3v1.67H20.57z"/>
	<polygon class="st1" points="24.27,14.41 24.27,11.24 23.66,11.24 23.66,10.75 25.53,10.75 25.53,11.24 24.94,11.24 24.94,14.41 	
		"/>
	<polygon class="st1" points="25.69,14.41 25.69,10.75 26.36,10.75 26.36,12.28 27.1,12.28 27.1,10.75 27.77,10.75 27.77,14.41 
		27.1,14.41 27.1,12.75 26.36,12.75 26.36,14.41 	"/>
	<polygon class="st1" points="28.19,14.41 28.19,10.75 29.72,10.75 29.72,11.22 28.85,11.22 28.85,12.27 29.54,12.27 29.54,12.74 
		28.85,12.74 28.85,13.95 29.73,13.95 29.73,14.41 	"/>
	<path class="st1" d="M31.86,14.46c-0.35,0-0.59-0.11-0.75-0.32c-0.15-0.22-0.23-0.53-0.23-0.94V12c0-0.21,0.02-0.39,0.05-0.54
		c0.03-0.15,0.09-0.29,0.17-0.4c0.08-0.11,0.19-0.2,0.32-0.26c0.14-0.06,0.3-0.09,0.5-0.09c0.36,0,0.62,0.09,0.78,0.27
		c0.16,0.18,0.24,0.45,0.24,0.81v0.18H32.3v-0.19c0-0.08,0-0.15-0.01-0.2c0-0.05-0.01-0.1-0.03-0.16c-0.01-0.05-0.03-0.09-0.06-0.12
		c-0.03-0.03-0.06-0.05-0.11-0.07c-0.05-0.02-0.1-0.03-0.17-0.03c-0.05,0-0.09,0.01-0.13,0.02s-0.07,0.03-0.1,0.05
		c-0.03,0.02-0.05,0.04-0.07,0.08c-0.02,0.03-0.03,0.07-0.04,0.1c-0.01,0.03-0.02,0.07-0.02,0.12c-0.01,0.05-0.01,0.09-0.01,0.13
		c0,0.04,0,0.09,0,0.15v1.48c0,0.22,0.03,0.38,0.08,0.48c0.05,0.1,0.16,0.15,0.31,0.15c0.08,0,0.15-0.02,0.2-0.05
		c0.05-0.03,0.1-0.08,0.13-0.14c0.03-0.06,0.05-0.13,0.06-0.21c0.01-0.08,0.02-0.17,0.02-0.29v-0.3h-0.39v-0.43h0.99v1.86h-0.43
		l-0.05-0.37C32.37,14.32,32.16,14.46,31.86,14.46"/>
	<path class="st1" d="M34.16,13.93c0.05,0.02,0.1,0.03,0.17,0.03s0.12-0.01,0.17-0.03c0.05-0.02,0.08-0.04,0.11-0.08
		c0.03-0.03,0.05-0.07,0.06-0.12c0.01-0.05,0.03-0.1,0.03-0.15c0.01-0.05,0.01-0.11,0.01-0.18v-1.66c0-0.09,0-0.16-0.01-0.22
		c-0.01-0.06-0.03-0.11-0.05-0.17c-0.03-0.05-0.06-0.09-0.12-0.12c-0.05-0.03-0.12-0.04-0.2-0.04c-0.08,0-0.15,0.01-0.2,0.04
		c-0.05,0.03-0.09,0.06-0.12,0.12c-0.03,0.05-0.04,0.11-0.05,0.17c-0.01,0.06-0.01,0.13-0.01,0.22v1.66c0,0.07,0,0.13,0.01,0.18
		c0.01,0.05,0.02,0.1,0.03,0.15c0.02,0.05,0.04,0.09,0.06,0.12C34.07,13.89,34.11,13.91,34.16,13.93 M34.32,14.45
		c-0.38,0-0.65-0.1-0.81-0.31c-0.16-0.2-0.24-0.5-0.24-0.9V11.9c0-0.19,0.02-0.36,0.05-0.51c0.04-0.14,0.1-0.27,0.18-0.37
		c0.08-0.1,0.19-0.18,0.33-0.23c0.14-0.05,0.3-0.08,0.49-0.08c0.38,0,0.64,0.1,0.81,0.3c0.16,0.2,0.25,0.5,0.25,0.89v1.35
		c0,0.19-0.02,0.36-0.06,0.5c-0.04,0.14-0.1,0.27-0.18,0.38c-0.08,0.11-0.19,0.19-0.33,0.24C34.68,14.43,34.51,14.45,34.32,14.45"/>
	<path class="st1" d="M36.39,13.12h0.49l-0.25-1.5L36.39,13.12z M35.54,14.41l0.74-3.66h0.69l0.74,3.66H37.1l-0.15-0.85h-0.63
		l-0.15,0.85H35.54z"/>
	<polygon class="st1" points="37.94,14.41 37.94,10.75 38.61,10.75 38.61,13.95 39.49,13.95 39.49,14.41 	"/>
	<path class="st1" d="M40.63,14.45c-0.64,0-0.98-0.37-1.02-1.12l0.58-0.12c0.01,0.48,0.15,0.73,0.41,0.73c0.1,0,0.18-0.03,0.23-0.09
		c0.05-0.06,0.07-0.14,0.07-0.25c0-0.1-0.02-0.19-0.06-0.28c-0.04-0.08-0.08-0.15-0.13-0.21c-0.05-0.05-0.12-0.12-0.21-0.2
		l-0.48-0.42c-0.14-0.12-0.25-0.25-0.32-0.38c-0.07-0.13-0.1-0.3-0.1-0.5c0-0.28,0.08-0.5,0.25-0.66c0.17-0.16,0.4-0.24,0.69-0.24
		c0.13,0,0.25,0.02,0.36,0.05c0.1,0.03,0.19,0.08,0.26,0.14c0.07,0.06,0.12,0.13,0.17,0.22c0.04,0.09,0.08,0.18,0.1,0.27
		c0.02,0.09,0.04,0.2,0.05,0.31l-0.57,0.11c0-0.07-0.01-0.14-0.01-0.19c-0.01-0.05-0.02-0.11-0.03-0.17s-0.04-0.1-0.06-0.14
		c-0.03-0.03-0.06-0.06-0.1-0.08c-0.04-0.02-0.09-0.03-0.15-0.02c-0.1,0.01-0.17,0.04-0.23,0.1c-0.05,0.06-0.08,0.14-0.08,0.24
		c0,0.12,0.02,0.21,0.07,0.29c0.05,0.08,0.12,0.16,0.22,0.24L41,12.5c0.08,0.07,0.15,0.14,0.21,0.21c0.06,0.07,0.11,0.14,0.17,0.23
		c0.05,0.09,0.09,0.18,0.12,0.29c0.03,0.1,0.04,0.21,0.04,0.33c0,0.27-0.08,0.48-0.25,0.65C41.12,14.37,40.9,14.45,40.63,14.45"/>
	<path class="st1" d="M30.27,31.32c1.29-1.2,2.11-2.91,2.11-4.81c0-0.28-0.02-0.56-0.05-0.84c2.63,0.28,4.68,2.51,4.68,5.22
		c0,1.54-0.67,2.92-1.72,3.88C34.3,32.91,32.45,31.58,30.27,31.32 M34.73,37.84c0,2.89-2.35,5.25-5.25,5.25
		c-0.94,0-1.82-0.25-2.59-0.69c1.12-1.18,1.8-2.77,1.8-4.51c0-0.43-0.04-0.85-0.12-1.26c0.94,0.52,2.03,0.82,3.18,0.82
		c1.03,0,2-0.24,2.86-0.66C34.7,37.13,34.73,37.48,34.73,37.84 M16.89,37.88c0-0.37,0.04-0.74,0.11-1.09
		c0.86,0.42,1.83,0.65,2.86,0.65c1.15,0,2.23-0.3,3.17-0.82c-0.07,0.39-0.11,0.8-0.11,1.21c0,1.77,0.71,3.39,1.86,4.57
		c-0.78,0.45-1.68,0.72-2.64,0.72C19.24,43.13,16.89,40.78,16.89,37.88 M14.61,30.88c0-2.7,2.05-4.93,4.68-5.22
		c-0.03,0.28-0.05,0.56-0.05,0.84c0,1.92,0.83,3.65,2.15,4.85c-2.18,0.25-4.04,1.57-5.04,3.41C15.29,33.81,14.61,32.43,14.61,30.88
		 M25.81,21.26c2.15,0,4,1.3,4.81,3.15c-2.13,0.38-3.92,1.78-4.81,3.69c-0.89-1.91-2.67-3.32-4.81-3.69
		C21.81,22.56,23.66,21.26,25.81,21.26 M27.06,33.19c0.73-0.38,1.55-0.6,2.43-0.6c2.06,0,3.85,1.2,4.7,2.93
		c-0.73,0.38-1.55,0.6-2.43,0.6C29.7,36.13,27.91,34.93,27.06,33.19 M24.54,33.23c-0.86,1.72-2.64,2.9-4.69,2.9
		c-0.87,0-1.69-0.22-2.41-0.59c0.86-1.72,2.64-2.9,4.69-2.9C23,32.64,23.82,32.85,24.54,33.23 M20.63,25.7
		c2.53,0.38,4.47,2.55,4.47,5.18c0,0.27-0.03,0.54-0.07,0.81c-2.53-0.38-4.47-2.55-4.47-5.18C20.56,26.23,20.59,25.96,20.63,25.7
		 M25.83,41.6c-0.98-0.95-1.59-2.28-1.59-3.76c0-1.45,0.59-2.76,1.55-3.72c0.98,0.95,1.59,2.29,1.59,3.76
		C27.38,39.33,26.79,40.65,25.83,41.6 M31.06,26.51c0,2.63-1.95,4.81-4.47,5.18c-0.04-0.26-0.07-0.53-0.07-0.81
		c0-2.63,1.95-4.81,4.47-5.18C31.03,25.96,31.06,26.23,31.06,26.51 M38.33,30.88c0-3.54-2.82-6.44-6.33-6.56
		c-0.9-2.55-3.34-4.38-6.19-4.38c-2.85,0-5.29,1.83-6.19,4.38c-3.51,0.13-6.33,3.02-6.33,6.56c0,2.1,0.99,3.97,2.53,5.18
		c-0.17,0.58-0.26,1.19-0.26,1.82c0,3.62,2.95,6.57,6.57,6.57c1.37,0,2.65-0.43,3.71-1.15c1.04,0.7,2.3,1.11,3.64,1.11
		c3.62,0,6.57-2.95,6.57-6.57c0-0.62-0.09-1.22-0.25-1.79C37.34,34.85,38.33,32.98,38.33,30.88"/>
</g>
</svg>
