<?xml version="1.0" encoding="utf-8"?>
<!-- Generator: Adobe Illustrator 26.5.0, SVG Export Plug-In . SVG Version: 6.00 Build 0)  -->
<svg version="1.1" id="Capa_1" xmlns="http://www.w3.org/2000/svg" xmlns:xlink="http://www.w3.org/1999/xlink" x="0px" y="0px"
	 viewBox="0 0 51.02 51.02" style="enable-background:new 0 0 51.02 51.02;" xml:space="preserve">
<style type="text/css">
	.st0{fill:#D28D0E;}
	.st1{fill:#FFFFFF;}
	.st2{fill:#FBB800;}
	.st3{fill:#931831;}
	.st4{fill:#F59D08;}
	.st5{fill:#4A7634;}
	.st6{fill:#1F3262;}
	.st7{fill:#EC6411;}
	.st8{fill:#E2071F;}
	.st9{fill:none;stroke:#FFFFFF;stroke-width:0.5939;stroke-linecap:round;stroke-miterlimit:10;}
	.st10{fill:#D6A102;}
	.st11{fill:#289438;}
	.st12{fill:#C11728;}
	.st13{fill:#E6331D;}
	.st14{fill:#DD0979;}
	.st15{fill:#0076B8;}
	.st16{fill:#3EA635;}
	.st17{fill:#004C84;}
	.st18{fill:#00A7D7;}
</style>
<g>
	<rect x="0.41" y="0.41" class="st7" width="50.2" height="50.2"/>
	<path class="st1" d="M7.63,8.9V7.38c0-0.42-0.05-0.75-0.15-0.99c-0.1-0.24-0.29-0.37-0.56-0.37c-0.28,0-0.47,0.13-0.57,0.4
		C6.26,6.68,6.21,7.1,6.21,7.67c0,0.41,0.01,0.72,0.04,0.94C6.27,8.83,6.33,9,6.44,9.14c0.11,0.13,0.27,0.2,0.49,0.2
		C7.22,9.34,7.45,9.19,7.63,8.9 M5.07,13.87c-0.37-0.41-0.57-1.02-0.57-1.84v-0.14h1.73c0,0.43,0.05,0.74,0.14,0.92
		c0.09,0.18,0.28,0.27,0.56,0.27c0.2,0,0.34-0.06,0.44-0.18c0.1-0.12,0.17-0.31,0.21-0.58c0.04-0.27,0.06-0.66,0.06-1.18v-0.97
		c-0.1,0.17-0.26,0.31-0.48,0.41c-0.22,0.1-0.48,0.15-0.77,0.15c-0.71,0-1.23-0.26-1.55-0.78C4.5,9.43,4.34,8.74,4.34,7.89
		c0-2.15,0.86-3.23,2.58-3.23c0.88,0,1.53,0.27,1.95,0.82c0.42,0.54,0.63,1.29,0.63,2.25v3.49c0,1.03-0.19,1.84-0.57,2.41
		c-0.38,0.57-1.05,0.86-2.02,0.86C6.05,14.48,5.44,14.28,5.07,13.87"/>
	<rect x="11.62" y="4.71" class="st1" width="0.66" height="3.66"/>
	<polygon class="st1" points="12.61,8.36 12.61,4.71 13.07,4.71 13.96,6.78 13.96,4.71 14.51,4.71 14.51,8.36 14.08,8.36 
		13.17,6.19 13.17,8.36 	"/>
	<path class="st1" d="M15.49,7.9h0.19c0.07,0,0.12-0.01,0.17-0.02c0.05-0.01,0.09-0.03,0.13-0.04c0.03-0.02,0.06-0.04,0.08-0.08
		c0.02-0.04,0.04-0.07,0.05-0.1c0.01-0.03,0.02-0.08,0.03-0.14c0.01-0.06,0.01-0.12,0.01-0.16c0-0.04,0-0.11,0-0.2V5.82
		c0-0.09,0-0.16,0-0.21c0-0.05-0.01-0.11-0.02-0.16c-0.01-0.05-0.03-0.1-0.05-0.12C16.06,5.3,16.03,5.27,16,5.25
		c-0.04-0.02-0.08-0.04-0.13-0.05c-0.05-0.01-0.12-0.01-0.19-0.01h-0.18V7.9z M14.83,8.36V4.71h0.85c0.22,0,0.41,0.02,0.55,0.07
		c0.15,0.04,0.27,0.11,0.36,0.21c0.09,0.1,0.15,0.21,0.19,0.35c0.04,0.14,0.06,0.31,0.06,0.51v1.32c0,0.21-0.02,0.39-0.06,0.53
		c-0.04,0.15-0.1,0.27-0.19,0.37c-0.09,0.1-0.2,0.18-0.35,0.22c-0.15,0.05-0.32,0.07-0.54,0.07H14.83z"/>
	<path class="st1" d="M18.09,8.41c-0.16,0-0.3-0.02-0.42-0.06c-0.12-0.04-0.22-0.09-0.3-0.16c-0.08-0.07-0.14-0.16-0.19-0.27
		c-0.05-0.11-0.08-0.23-0.1-0.35c-0.02-0.13-0.03-0.27-0.03-0.44V4.71h0.65v2.5c0,0.09,0,0.16,0.01,0.22c0,0.06,0.01,0.12,0.03,0.19
		c0.01,0.07,0.04,0.12,0.06,0.16c0.03,0.04,0.06,0.07,0.11,0.1c0.05,0.03,0.11,0.04,0.17,0.04c0.07,0,0.13-0.01,0.17-0.04
		c0.05-0.03,0.08-0.06,0.11-0.1c0.03-0.04,0.05-0.09,0.06-0.16c0.01-0.07,0.02-0.13,0.03-0.19c0-0.06,0.01-0.13,0.01-0.22v-2.5h0.65
		v2.43c0,0.17-0.01,0.31-0.03,0.44c-0.02,0.13-0.05,0.24-0.1,0.35c-0.05,0.11-0.11,0.2-0.18,0.27c-0.08,0.07-0.17,0.12-0.29,0.16
		C18.39,8.39,18.25,8.41,18.09,8.41"/>
	<path class="st1" d="M20.32,8.41c-0.64,0-0.98-0.37-1.02-1.12l0.58-0.12C19.9,7.65,20.04,7.9,20.3,7.9c0.1,0,0.18-0.03,0.23-0.09
		c0.05-0.06,0.07-0.14,0.07-0.25c0-0.1-0.02-0.19-0.06-0.28c-0.04-0.08-0.08-0.15-0.13-0.21c-0.05-0.05-0.12-0.12-0.21-0.2
		l-0.48-0.42c-0.14-0.12-0.25-0.25-0.32-0.38c-0.07-0.13-0.1-0.3-0.1-0.5c0-0.28,0.08-0.5,0.25-0.66c0.17-0.16,0.4-0.24,0.69-0.24
		c0.13,0,0.25,0.02,0.36,0.05c0.1,0.03,0.19,0.08,0.25,0.14c0.07,0.06,0.12,0.13,0.17,0.22c0.04,0.09,0.08,0.18,0.1,0.27
		c0.02,0.09,0.04,0.2,0.05,0.31l-0.57,0.11c0-0.07-0.01-0.14-0.01-0.19c-0.01-0.05-0.02-0.11-0.03-0.17
		c-0.02-0.06-0.04-0.1-0.06-0.14c-0.03-0.03-0.06-0.06-0.1-0.08c-0.04-0.02-0.09-0.03-0.15-0.02c-0.1,0.01-0.17,0.04-0.23,0.1
		c-0.05,0.06-0.08,0.14-0.08,0.24c0,0.12,0.02,0.21,0.07,0.29c0.05,0.08,0.12,0.16,0.22,0.24l0.48,0.41
		c0.08,0.07,0.15,0.14,0.21,0.21c0.06,0.07,0.11,0.14,0.17,0.23c0.05,0.09,0.09,0.18,0.12,0.29c0.03,0.1,0.04,0.21,0.04,0.33
		c0,0.27-0.08,0.48-0.25,0.65C20.82,8.33,20.6,8.41,20.32,8.41"/>
	<polygon class="st1" points="21.75,8.36 21.75,5.2 21.14,5.2 21.14,4.71 23.01,4.71 23.01,5.2 22.42,5.2 22.42,8.36 	"/>
	<path class="st1" d="M23.73,6.27h0.16c0.2,0,0.34-0.04,0.42-0.13c0.08-0.08,0.12-0.23,0.12-0.43c0-0.2-0.04-0.34-0.11-0.42
		c-0.07-0.08-0.2-0.13-0.4-0.13h-0.2V6.27z M23.07,8.36V4.71h0.84c0.19,0,0.36,0.02,0.5,0.05c0.14,0.03,0.26,0.08,0.36,0.16
		c0.1,0.07,0.18,0.17,0.23,0.3c0.05,0.13,0.08,0.28,0.08,0.47c0,0.23-0.03,0.42-0.1,0.56c-0.07,0.15-0.18,0.25-0.34,0.32l0.51,1.8
		h-0.67l-0.44-1.67h-0.3v1.67H23.07z"/>
	<polygon class="st1" points="25.85,8.36 25.85,6.97 25.1,4.71 25.72,4.71 26.18,6.16 26.61,4.71 27.22,4.71 26.48,6.97 26.48,8.36 
			"/>
	<path class="st1" d="M27.25,8.98l-0.07-0.23c0.09-0.02,0.16-0.07,0.21-0.13c0.05-0.07,0.08-0.15,0.08-0.25h-0.32v-0.6h0.61v0.56
		C27.76,8.7,27.59,8.92,27.25,8.98"/>
	<rect x="28.85" y="4.71" class="st1" width="0.66" height="3.66"/>
	<polygon class="st1" points="29.83,8.36 29.83,4.71 30.29,4.71 31.19,6.78 31.19,4.71 31.74,4.71 31.74,8.36 31.3,8.36 30.4,6.19 
		30.4,8.36 	"/>
	<polygon class="st1" points="32.05,8.36 32.05,4.71 32.51,4.71 33.41,6.78 33.41,4.71 33.96,4.71 33.96,8.36 33.52,8.36 
		32.62,6.19 32.62,8.36 	"/>
	<path class="st1" d="M35.1,7.89c0.05,0.02,0.1,0.03,0.17,0.03s0.12-0.01,0.17-0.03c0.05-0.02,0.08-0.04,0.11-0.08
		c0.03-0.03,0.05-0.07,0.06-0.12c0.02-0.05,0.03-0.1,0.03-0.15c0.01-0.05,0.01-0.11,0.01-0.18V5.7c0-0.09,0-0.16-0.01-0.22
		c-0.01-0.06-0.03-0.11-0.05-0.17c-0.03-0.05-0.06-0.09-0.12-0.12c-0.05-0.03-0.12-0.04-0.2-0.04c-0.08,0-0.15,0.01-0.2,0.04
		c-0.05,0.03-0.09,0.06-0.12,0.12c-0.02,0.05-0.04,0.11-0.05,0.17c-0.01,0.06-0.01,0.13-0.01,0.22v1.66c0,0.07,0,0.13,0.01,0.18
		c0.01,0.05,0.02,0.1,0.03,0.15c0.02,0.05,0.04,0.09,0.06,0.12C35.02,7.84,35.05,7.87,35.1,7.89 M35.27,8.41
		c-0.38,0-0.65-0.1-0.81-0.31c-0.16-0.2-0.25-0.5-0.25-0.9V5.85c0-0.19,0.02-0.36,0.06-0.51c0.04-0.14,0.1-0.27,0.18-0.37
		c0.08-0.1,0.19-0.18,0.33-0.23c0.14-0.05,0.3-0.08,0.49-0.08c0.38,0,0.64,0.1,0.81,0.3c0.16,0.2,0.25,0.5,0.25,0.89V7.2
		c0,0.19-0.02,0.36-0.06,0.5c-0.04,0.14-0.1,0.27-0.18,0.38C36,8.19,35.9,8.27,35.76,8.33C35.62,8.38,35.46,8.41,35.27,8.41"/>
	<polygon class="st1" points="37.15,8.36 36.4,4.71 37,4.71 37.48,7.25 37.93,4.71 38.54,4.71 37.79,8.36 	"/>
	<path class="st1" d="M39.22,7.08h0.49l-0.25-1.5L39.22,7.08z M38.37,8.36l0.74-3.66h0.69l0.74,3.66h-0.62l-0.15-0.85h-0.63L39,8.36
		H38.37z"/>
	<polygon class="st1" points="40.9,8.36 40.9,5.2 40.29,5.2 40.29,4.71 42.16,4.71 42.16,5.2 41.57,5.2 41.57,8.36 	"/>
	<rect x="42.24" y="4.71" class="st1" width="0.66" height="3.66"/>
	<path class="st1" d="M44.05,7.89c0.05,0.02,0.1,0.03,0.17,0.03s0.12-0.01,0.17-0.03c0.05-0.02,0.08-0.04,0.11-0.08
		c0.03-0.03,0.05-0.07,0.06-0.12c0.02-0.05,0.03-0.1,0.03-0.15c0.01-0.05,0.01-0.11,0.01-0.18V5.7c0-0.09,0-0.16-0.01-0.22
		c-0.01-0.06-0.03-0.11-0.05-0.17c-0.03-0.05-0.06-0.09-0.12-0.12c-0.05-0.03-0.12-0.04-0.2-0.04c-0.08,0-0.15,0.01-0.2,0.04
		c-0.05,0.03-0.09,0.06-0.12,0.12c-0.02,0.05-0.04,0.11-0.05,0.17c-0.01,0.06-0.01,0.13-0.01,0.22v1.66c0,0.07,0,0.13,0.01,0.18
		c0.01,0.05,0.02,0.1,0.03,0.15c0.02,0.05,0.04,0.09,0.06,0.12C43.97,7.84,44,7.87,44.05,7.89 M44.22,8.41
		c-0.38,0-0.65-0.1-0.81-0.31c-0.16-0.2-0.24-0.5-0.24-0.9V5.85c0-0.19,0.02-0.36,0.05-0.51c0.04-0.14,0.1-0.27,0.18-0.37
		c0.08-0.1,0.19-0.18,0.33-0.23c0.14-0.05,0.3-0.08,0.49-0.08c0.38,0,0.64,0.1,0.81,0.3c0.16,0.2,0.25,0.5,0.25,0.89V7.2
		c0,0.19-0.02,0.36-0.06,0.5c-0.04,0.14-0.1,0.27-0.18,0.38c-0.08,0.11-0.19,0.19-0.33,0.24C44.57,8.38,44.41,8.41,44.22,8.41"/>
	<polygon class="st1" points="45.52,8.36 45.52,4.71 45.98,4.71 46.88,6.78 46.88,4.71 47.43,4.71 47.43,8.36 46.99,8.36 
		46.09,6.19 46.09,8.36 	"/>
	<path class="st1" d="M12.26,13.06h0.49l-0.25-1.5L12.26,13.06z M11.41,14.34l0.74-3.66h0.69l0.74,3.66h-0.62l-0.15-0.85h-0.63
		l-0.15,0.85H11.41z"/>
	<polygon class="st1" points="13.78,14.34 13.78,10.68 14.23,10.68 15.13,12.76 15.13,10.68 15.68,10.68 15.68,14.34 15.24,14.34 
		14.34,12.17 14.34,14.34 	"/>
	<path class="st1" d="M16.72,13.87h0.19c0.07,0,0.12-0.01,0.17-0.02c0.05-0.01,0.09-0.03,0.13-0.04c0.03-0.02,0.06-0.04,0.08-0.08
		c0.02-0.04,0.04-0.07,0.05-0.1c0.01-0.03,0.02-0.08,0.03-0.14c0.01-0.06,0.01-0.12,0.01-0.16c0-0.04,0-0.11,0-0.2V11.8
		c0-0.09,0-0.16,0-0.21c0-0.05-0.01-0.11-0.02-0.16s-0.03-0.1-0.05-0.12c-0.02-0.03-0.05-0.06-0.08-0.08
		c-0.04-0.02-0.08-0.04-0.13-0.05c-0.05-0.01-0.12-0.01-0.19-0.01h-0.18V13.87z M16.05,14.34v-3.66h0.85c0.22,0,0.41,0.02,0.55,0.07
		c0.15,0.04,0.27,0.11,0.36,0.21c0.09,0.1,0.15,0.21,0.19,0.35c0.04,0.14,0.06,0.31,0.06,0.51v1.32c0,0.21-0.02,0.39-0.06,0.53
		c-0.04,0.15-0.1,0.27-0.19,0.37c-0.09,0.1-0.2,0.18-0.35,0.22c-0.15,0.05-0.32,0.07-0.54,0.07H16.05z"/>
	<rect x="19.32" y="10.68" class="st1" width="0.66" height="3.66"/>
	<polygon class="st1" points="20.37,14.34 20.37,10.68 20.83,10.68 21.72,12.76 21.72,10.68 22.27,10.68 22.27,14.34 21.84,14.34 
		20.93,12.17 20.93,14.34 	"/>
	<polygon class="st1" points="22.64,14.34 22.64,10.68 24.15,10.68 24.15,11.15 23.31,11.15 23.31,12.21 23.98,12.21 23.98,12.68 
		23.31,12.68 23.31,14.34 	"/>
	<path class="st1" d="M24.99,12.25h0.16c0.2,0,0.34-0.04,0.42-0.13c0.08-0.08,0.12-0.23,0.12-0.43c0-0.2-0.04-0.34-0.11-0.42
		c-0.07-0.08-0.2-0.13-0.4-0.13h-0.2V12.25z M24.32,14.34v-3.66h0.84c0.19,0,0.36,0.02,0.5,0.05c0.14,0.03,0.26,0.08,0.36,0.16
		c0.1,0.07,0.18,0.17,0.23,0.3s0.08,0.28,0.08,0.47c0,0.23-0.03,0.42-0.1,0.56c-0.07,0.15-0.18,0.25-0.34,0.32l0.51,1.8h-0.67
		l-0.44-1.67h-0.3v1.67H24.32z"/>
	<path class="st1" d="M27.31,13.06h0.49l-0.25-1.5L27.31,13.06z M26.46,14.34l0.74-3.66h0.69l0.74,3.66h-0.62l-0.15-0.85h-0.63
		l-0.15,0.85H26.46z"/>
	<path class="st1" d="M29.75,14.39c-0.64,0-0.98-0.37-1.02-1.12l0.58-0.12c0.01,0.48,0.15,0.73,0.41,0.73c0.1,0,0.18-0.03,0.23-0.09
		c0.05-0.06,0.07-0.14,0.07-0.25c0-0.1-0.02-0.19-0.06-0.28c-0.04-0.08-0.08-0.15-0.13-0.21c-0.05-0.05-0.12-0.12-0.21-0.2
		l-0.48-0.42c-0.14-0.12-0.25-0.25-0.32-0.38c-0.07-0.13-0.1-0.3-0.1-0.5c0-0.28,0.08-0.5,0.25-0.66c0.17-0.16,0.4-0.24,0.69-0.24
		c0.13,0,0.25,0.02,0.36,0.05c0.1,0.03,0.19,0.08,0.25,0.14c0.07,0.06,0.12,0.13,0.17,0.22c0.04,0.09,0.08,0.18,0.1,0.27
		c0.02,0.09,0.04,0.2,0.05,0.31l-0.57,0.11c0-0.07-0.01-0.14-0.01-0.19c-0.01-0.05-0.02-0.11-0.03-0.17
		c-0.02-0.06-0.04-0.1-0.06-0.14c-0.03-0.03-0.06-0.06-0.1-0.08c-0.04-0.02-0.09-0.03-0.15-0.02c-0.1,0.01-0.17,0.04-0.23,0.1
		c-0.05,0.06-0.08,0.14-0.08,0.24c0,0.12,0.02,0.21,0.07,0.29c0.05,0.08,0.12,0.16,0.22,0.24l0.48,0.41
		c0.08,0.07,0.15,0.14,0.21,0.21c0.06,0.07,0.11,0.14,0.17,0.23c0.05,0.09,0.09,0.18,0.12,0.29c0.03,0.1,0.04,0.21,0.04,0.33
		c0,0.27-0.08,0.48-0.25,0.65C30.24,14.3,30.02,14.39,29.75,14.39"/>
	<polygon class="st1" points="31.23,14.34 31.23,11.18 30.62,11.18 30.62,10.68 32.49,10.68 32.49,11.18 31.9,11.18 31.9,14.34 	"/>
	<path class="st1" d="M33.28,12.25h0.16c0.2,0,0.34-0.04,0.42-0.13c0.08-0.08,0.12-0.23,0.12-0.43c0-0.2-0.04-0.34-0.11-0.42
		c-0.07-0.08-0.2-0.13-0.4-0.13h-0.2V12.25z M32.61,14.34v-3.66h0.84c0.19,0,0.36,0.02,0.5,0.05c0.14,0.03,0.26,0.08,0.36,0.16
		c0.1,0.07,0.18,0.17,0.23,0.3s0.08,0.28,0.08,0.47c0,0.23-0.03,0.42-0.1,0.56c-0.07,0.15-0.18,0.25-0.34,0.32l0.51,1.8h-0.67
		l-0.44-1.67h-0.3v1.67H32.61z"/>
	<path class="st1" d="M35.94,14.39c-0.16,0-0.3-0.02-0.42-0.06c-0.12-0.04-0.22-0.09-0.3-0.16c-0.08-0.07-0.14-0.16-0.19-0.27
		c-0.05-0.11-0.08-0.23-0.1-0.35c-0.02-0.13-0.03-0.27-0.03-0.44v-2.43h0.65v2.5c0,0.09,0,0.16,0.01,0.22
		c0,0.06,0.01,0.12,0.03,0.19c0.01,0.07,0.04,0.12,0.06,0.16c0.03,0.04,0.06,0.07,0.11,0.1c0.05,0.03,0.11,0.04,0.17,0.04
		c0.07,0,0.13-0.01,0.17-0.04c0.05-0.03,0.08-0.06,0.11-0.1c0.03-0.04,0.05-0.09,0.06-0.16c0.01-0.07,0.02-0.13,0.03-0.19
		c0-0.06,0.01-0.13,0.01-0.22v-2.5h0.65v2.43c0,0.17-0.01,0.31-0.03,0.44c-0.02,0.13-0.05,0.24-0.1,0.35
		c-0.05,0.11-0.11,0.2-0.18,0.27c-0.08,0.07-0.17,0.12-0.29,0.16C36.24,14.37,36.1,14.39,35.94,14.39"/>
	<path class="st1" d="M38.29,14.39c-0.16,0-0.3-0.02-0.42-0.06c-0.12-0.04-0.22-0.09-0.3-0.17c-0.08-0.07-0.14-0.16-0.19-0.26
		c-0.05-0.1-0.08-0.22-0.1-0.34c-0.02-0.12-0.03-0.25-0.03-0.4v-1.28c0-0.16,0.01-0.3,0.03-0.42c0.02-0.12,0.05-0.24,0.1-0.34
		s0.11-0.19,0.19-0.26c0.08-0.07,0.18-0.12,0.3-0.16c0.12-0.04,0.26-0.06,0.42-0.06c0.18,0,0.34,0.02,0.47,0.07
		c0.13,0.05,0.23,0.12,0.31,0.21c0.08,0.09,0.13,0.2,0.16,0.33c0.03,0.13,0.05,0.27,0.05,0.44v0.31h-0.64V11.7
		c0-0.18-0.01-0.31-0.03-0.37c-0.04-0.12-0.13-0.19-0.28-0.2h-0.04c-0.06,0-0.1,0.01-0.15,0.02c-0.04,0.01-0.08,0.03-0.1,0.06
		c-0.03,0.03-0.05,0.06-0.06,0.09c-0.02,0.03-0.03,0.07-0.04,0.13c-0.01,0.05-0.01,0.1-0.02,0.14c0,0.04,0,0.1,0,0.17v1.55
		c0,0.21,0.03,0.37,0.08,0.46c0.05,0.09,0.15,0.14,0.29,0.14c0.05,0,0.09-0.01,0.12-0.02c0.04-0.01,0.07-0.02,0.09-0.04
		c0.02-0.02,0.05-0.04,0.06-0.07c0.02-0.03,0.03-0.06,0.04-0.09c0.01-0.03,0.02-0.06,0.02-0.11c0-0.05,0.01-0.09,0.01-0.12
		c0-0.03,0-0.08,0-0.14v-0.33h0.64v0.3c0,0.14-0.01,0.26-0.03,0.37c-0.02,0.11-0.05,0.21-0.1,0.31c-0.05,0.1-0.11,0.17-0.18,0.24
		c-0.07,0.06-0.17,0.11-0.28,0.15C38.58,14.37,38.44,14.39,38.29,14.39"/>
	<polygon class="st1" points="39.92,14.34 39.92,11.18 39.31,11.18 39.31,10.68 41.18,10.68 41.18,11.18 40.59,11.18 40.59,14.34 	
		"/>
	<path class="st1" d="M42.3,14.39c-0.16,0-0.3-0.02-0.42-0.06s-0.22-0.09-0.3-0.16c-0.08-0.07-0.14-0.16-0.19-0.27
		c-0.05-0.11-0.08-0.23-0.1-0.35c-0.02-0.13-0.03-0.27-0.03-0.44v-2.43h0.65v2.5c0,0.09,0,0.16,0.01,0.22
		c0,0.06,0.01,0.12,0.03,0.19c0.01,0.07,0.04,0.12,0.06,0.16c0.03,0.04,0.06,0.07,0.11,0.1c0.05,0.03,0.11,0.04,0.17,0.04
		c0.07,0,0.13-0.01,0.17-0.04c0.05-0.03,0.08-0.06,0.11-0.1c0.03-0.04,0.05-0.09,0.06-0.16c0.01-0.07,0.02-0.13,0.03-0.19
		c0-0.06,0.01-0.13,0.01-0.22v-2.5h0.65v2.43c0,0.17-0.01,0.31-0.03,0.44c-0.02,0.13-0.05,0.24-0.1,0.35
		c-0.05,0.11-0.11,0.2-0.18,0.27c-0.08,0.07-0.17,0.12-0.29,0.16C42.6,14.37,42.46,14.39,42.3,14.39"/>
	<path class="st1" d="M44.33,12.25h0.16c0.2,0,0.34-0.04,0.42-0.13c0.08-0.08,0.12-0.23,0.12-0.43c0-0.2-0.04-0.34-0.11-0.42
		c-0.07-0.08-0.2-0.13-0.4-0.13h-0.2V12.25z M43.67,14.34v-3.66h0.84c0.19,0,0.36,0.02,0.5,0.05c0.14,0.03,0.26,0.08,0.36,0.16
		c0.1,0.07,0.18,0.17,0.23,0.3c0.05,0.13,0.08,0.28,0.08,0.47c0,0.23-0.03,0.42-0.1,0.56c-0.07,0.15-0.18,0.25-0.34,0.32l0.51,1.8
		h-0.67l-0.44-1.67h-0.3v1.67H43.67z"/>
	<polygon class="st1" points="46,14.34 46,10.68 47.53,10.68 47.53,11.15 46.66,11.15 46.66,12.2 47.35,12.2 47.35,12.67 
		46.66,12.67 46.66,13.88 47.54,13.88 47.54,14.34 	"/>
	<path class="st1" d="M37.78,40.72l-5.38,3.11v-6.21l5.38-3.11V40.72z M20,43.83v-5.74l4.97,2.87L20,43.83z M19.18,43.83l-5.38-3.11
		v-6.21l5.38,3.11V43.83z M24.97,26.64L20,29.51v-5.74L24.97,26.64z M31.58,29.51l-4.97-2.87l4.97-2.87V29.51z M26.61,33.8
		l5.38-3.11l5.38,3.11l-5.38,3.11L26.61,33.8z M25.38,33.09l-4.97-2.87l4.97-2.87V33.09z M31.17,30.22l-4.97,2.87v-5.74L31.17,30.22
		z M25.38,40.25l-4.97-2.87l4.97-2.87V40.25z M38.4,33.44l-6-3.46v-6.92c0-0.15-0.08-0.28-0.2-0.35L26,19.13
		c-0.13-0.07-0.28-0.07-0.41,0l-6.2,3.58c-0.13,0.07-0.2,0.21-0.2,0.35v6.92l-5.99,3.46c-0.13,0.07-0.2,0.21-0.2,0.35v7.16
		c0,0.15,0.08,0.28,0.2,0.35l6.2,3.58c0.06,0.04,0.13,0.05,0.2,0.05c0.07,0,0.14-0.02,0.2-0.05l5.99-3.46l5.99,3.46
		c0.06,0.04,0.13,0.05,0.2,0.05c0.07,0,0.14-0.02,0.2-0.05l6.2-3.58c0.13-0.07,0.2-0.21,0.2-0.35V33.8
		C38.6,33.65,38.52,33.52,38.4,33.44"/>
</g>
</svg>
