<?xml version="1.0" encoding="utf-8"?>
<!-- Generator: Adobe Illustrator 26.5.0, SVG Export Plug-In . SVG Version: 6.00 Build 0)  -->
<svg version="1.1" id="Capa_1" xmlns="http://www.w3.org/2000/svg" xmlns:xlink="http://www.w3.org/1999/xlink" x="0px" y="0px"
	 viewBox="0 0 51.02 51.02" style="enable-background:new 0 0 51.02 51.02;" xml:space="preserve">
<style type="text/css">
	.st0{fill:#D28D0E;}
	.st1{fill:#FFFFFF;}
	.st2{fill:#FBB800;}
	.st3{fill:#931831;}
	.st4{fill:#F59D08;}
	.st5{fill:#4A7634;}
	.st6{fill:#1F3262;}
	.st7{fill:#EC6411;}
	.st8{fill:#E2071F;}
	.st9{fill:none;stroke:#FFFFFF;stroke-width:0.5939;stroke-linecap:round;stroke-miterlimit:10;}
	.st10{fill:#D6A102;}
	.st11{fill:#289438;}
	.st12{fill:#C11728;}
	.st13{fill:#E6331D;}
	.st14{fill:#DD0979;}
	.st15{fill:#0076B8;}
	.st16{fill:#3EA635;}
	.st17{fill:#004C84;}
	.st18{fill:#00A7D7;}
</style>
<g>
	<rect x="0.48" y="0.41" class="st8" width="50.07" height="50.2"/>
	<path class="st1" d="M4.84,6.67C4.76,6.71,4.5,6.81,4.09,6.96C3.76,7.07,3.55,7.15,3.46,7.19V5.83c0.27-0.1,0.59-0.26,0.97-0.47
		c0.38-0.21,0.65-0.41,0.81-0.58h1.43v9.57H4.84V6.67z"/>
	<polygon class="st1" points="10.69,8.43 10.69,4.77 11.15,4.77 12.04,6.84 12.04,4.77 12.59,4.77 12.59,8.43 12.16,8.43 
		11.25,6.25 11.25,8.43 	"/>
	<path class="st1" d="M13.88,7.95c0.05,0.02,0.1,0.03,0.17,0.03c0.06,0,0.12-0.01,0.17-0.03c0.05-0.02,0.08-0.04,0.11-0.08
		c0.03-0.03,0.05-0.07,0.06-0.12c0.02-0.05,0.03-0.1,0.03-0.15c0.01-0.05,0.01-0.11,0.01-0.18V5.76c0-0.09,0-0.16-0.01-0.22
		c-0.01-0.06-0.03-0.11-0.05-0.17c-0.03-0.05-0.06-0.09-0.12-0.12c-0.05-0.03-0.12-0.04-0.2-0.04c-0.08,0-0.15,0.01-0.2,0.04
		c-0.05,0.03-0.09,0.06-0.12,0.12c-0.02,0.05-0.04,0.11-0.05,0.17c-0.01,0.06-0.01,0.13-0.01,0.22v1.66c0,0.07,0,0.13,0.01,0.18
		c0.01,0.05,0.02,0.1,0.03,0.15c0.02,0.05,0.04,0.09,0.06,0.12C13.8,7.91,13.83,7.93,13.88,7.95 M14.05,8.47
		c-0.38,0-0.65-0.1-0.81-0.31c-0.16-0.2-0.25-0.5-0.25-0.9V5.92c0-0.19,0.02-0.36,0.06-0.51c0.04-0.14,0.1-0.27,0.18-0.37
		c0.08-0.1,0.19-0.18,0.33-0.23c0.14-0.05,0.3-0.08,0.49-0.08c0.38,0,0.64,0.1,0.81,0.3c0.16,0.2,0.25,0.5,0.25,0.89v1.35
		c0,0.19-0.02,0.36-0.06,0.5c-0.04,0.14-0.1,0.27-0.18,0.38c-0.08,0.11-0.19,0.19-0.33,0.24C14.4,8.45,14.24,8.47,14.05,8.47"/>
	<path class="st1" d="M11.35,12.31h0.21c0.19,0,0.32-0.04,0.38-0.11c0.07-0.07,0.1-0.21,0.1-0.41c0-0.11,0-0.2-0.01-0.26
		c-0.01-0.06-0.03-0.12-0.06-0.17c-0.03-0.05-0.08-0.09-0.14-0.11c-0.06-0.02-0.15-0.03-0.26-0.03h-0.22V12.31z M10.69,14.41v-3.66
		h1.05c0.62,0,0.94,0.35,0.94,1.04c0,0.34-0.09,0.59-0.26,0.75c-0.17,0.16-0.41,0.24-0.72,0.24h-0.34v1.63H10.69z"/>
	<path class="st1" d="M13.84,13.93c0.05,0.02,0.1,0.03,0.17,0.03c0.06,0,0.12-0.01,0.17-0.03c0.05-0.02,0.08-0.04,0.11-0.08
		c0.03-0.03,0.05-0.07,0.06-0.12c0.02-0.05,0.03-0.1,0.03-0.15c0.01-0.05,0.01-0.11,0.01-0.18v-1.66c0-0.09,0-0.16-0.01-0.22
		c-0.01-0.06-0.03-0.11-0.05-0.17c-0.03-0.05-0.06-0.09-0.12-0.12c-0.05-0.03-0.12-0.04-0.2-0.04c-0.08,0-0.15,0.01-0.2,0.04
		c-0.05,0.03-0.09,0.06-0.12,0.12c-0.02,0.05-0.04,0.11-0.05,0.17c-0.01,0.06-0.01,0.13-0.01,0.22v1.66c0,0.07,0,0.13,0.01,0.18
		c0.01,0.05,0.02,0.1,0.03,0.15c0.02,0.05,0.04,0.09,0.06,0.12C13.75,13.89,13.79,13.91,13.84,13.93 M14,14.45
		c-0.38,0-0.65-0.1-0.81-0.31c-0.16-0.2-0.25-0.5-0.25-0.9V11.9c0-0.19,0.02-0.36,0.06-0.51c0.04-0.14,0.1-0.27,0.18-0.37
		c0.08-0.1,0.19-0.18,0.33-0.23c0.14-0.05,0.3-0.08,0.49-0.08c0.38,0,0.64,0.1,0.81,0.3c0.16,0.2,0.25,0.5,0.25,0.89v1.35
		c0,0.19-0.02,0.36-0.06,0.5c-0.04,0.14-0.1,0.27-0.18,0.38c-0.08,0.11-0.19,0.19-0.33,0.24C14.36,14.43,14.2,14.45,14,14.45"/>
	<polygon class="st1" points="16.09,14.41 15.35,10.75 15.94,10.75 16.43,13.3 16.88,10.75 17.48,10.75 16.74,14.41 	"/>
	<polygon class="st1" points="17.84,14.41 17.84,10.75 19.37,10.75 19.37,11.22 18.5,11.22 18.5,12.27 19.19,12.27 19.19,12.74 
		18.5,12.74 18.5,13.95 19.38,13.95 19.38,14.41 	"/>
	<path class="st1" d="M20.41,12.31h0.16c0.2,0,0.34-0.04,0.42-0.13c0.08-0.08,0.12-0.23,0.12-0.43c0-0.2-0.04-0.34-0.11-0.42
		c-0.07-0.08-0.2-0.13-0.4-0.13h-0.2V12.31z M19.74,14.41v-3.66h0.84c0.19,0,0.36,0.02,0.5,0.05c0.14,0.03,0.26,0.08,0.36,0.16
		c0.1,0.07,0.18,0.17,0.23,0.3c0.05,0.13,0.08,0.28,0.08,0.47c0,0.23-0.03,0.42-0.1,0.56c-0.07,0.15-0.18,0.25-0.34,0.32l0.51,1.8
		h-0.67l-0.44-1.67h-0.3v1.67H19.74z"/>
	<polygon class="st1" points="22.58,14.41 22.58,11.24 21.97,11.24 21.97,10.75 23.84,10.75 23.84,11.24 23.25,11.24 23.25,14.41 	
		"/>
	<polygon class="st1" points="24.62,14.41 24.62,13.02 23.88,10.75 24.5,10.75 24.95,12.21 25.39,10.75 26,10.75 25.26,13.02 
		25.26,14.41 	"/>
	<path class="st1" d="M39.14,24.36c0-0.77,0.63-1.4,1.4-1.4c0.77,0,1.39,0.62,1.39,1.4c0,0.77-0.62,1.4-1.39,1.4
		C39.76,25.75,39.14,25.13,39.14,24.36"/>
	<path class="st1" d="M42.16,26.29c0.95,0.09,1.69,0.88,1.69,1.85v0.46v0.2v3.2c0,0.3-0.24,0.54-0.54,0.54
		c-0.3,0-0.54-0.24-0.54-0.54v-3.32c0-0.12-0.04-0.29-0.26-0.29c-0.16,0-0.19,0.17-0.2,0.27v9.96c0,0.43-0.35,0.78-0.78,0.78
		s-0.78-0.35-0.78-0.78v-5.74c0-0.06-0.02-0.23-0.22-0.23h0c-0.2,0-0.22,0.16-0.22,0.23v5.74c0,0.43-0.35,0.78-0.78,0.78
		c-0.43,0-0.78-0.35-0.78-0.78v-9.96c-0.01-0.11-0.04-0.27-0.2-0.27c-0.23,0-0.26,0.17-0.26,0.29v3.32c0,0.3-0.24,0.54-0.54,0.54
		c-0.3,0-0.54-0.24-0.54-0.54v-3.2v-0.2v-0.46c0-0.97,0.74-1.77,1.69-1.85c0.03,0,0.07-0.01,0.1-0.01h1.53h1.52
		C42.1,26.28,42.13,26.29,42.16,26.29"/>
	<path class="st1" d="M30.83,25.09c0-0.73-0.59-1.32-1.32-1.32c-0.73,0-1.32,0.59-1.32,1.32c0,0.73,0.59,1.32,1.32,1.32
		C30.24,26.41,30.83,25.82,30.83,25.09"/>
	<path class="st1" d="M26.85,28.08l-1.1,3.58c0,0-0.2,0.66,0.36,0.82c0.55,0.16,0.72-0.48,0.72-0.48l0.89-2.99
		c0,0,0.05-0.23,0.22-0.18c0.17,0.05,0.11,0.3,0.11,0.3l-1.54,5.6h1.43v4.01c0,0.38,0.31,0.69,0.69,0.69c0.38,0,0.69-0.31,0.69-0.69
		v-4.01h0.2h0.19v4.01c0,0.38,0.31,0.69,0.69,0.69c0.38,0,0.69-0.31,0.69-0.69v-4.01h1.43l-1.54-5.6c0,0-0.06-0.25,0.11-0.3
		c0.17-0.05,0.22,0.18,0.22,0.18l0.89,2.99c0,0,0.17,0.64,0.72,0.48c0.56-0.16,0.36-0.82,0.36-0.82l-1.1-3.58
		c0,0-0.39-1.03-1.26-1.03h-1.4h-1.4C27.24,27.05,26.85,28.08,26.85,28.08"/>
	<path class="st1" d="M22.91,25.09c0-0.73-0.59-1.32-1.32-1.32c-0.73,0-1.32,0.59-1.32,1.32c0,0.73,0.59,1.32,1.32,1.32
		C22.32,26.41,22.91,25.82,22.91,25.09"/>
	<path class="st1" d="M18.93,28.08l-1.1,3.58c0,0-0.2,0.66,0.36,0.82c0.55,0.16,0.72-0.48,0.72-0.48l0.89-2.99
		c0,0,0.05-0.23,0.22-0.18c0.17,0.05,0.11,0.3,0.11,0.3l-1.54,5.6h1.43v4.01c0,0.38,0.31,0.69,0.69,0.69c0.38,0,0.69-0.31,0.69-0.69
		v-4.01h0.2h0.19v4.01c0,0.38,0.31,0.69,0.69,0.69c0.38,0,0.69-0.31,0.69-0.69v-4.01h1.43l-1.54-5.6c0,0-0.07-0.25,0.11-0.3
		s0.22,0.18,0.22,0.18l0.89,2.99c0,0,0.17,0.64,0.72,0.48c0.56-0.16,0.36-0.82,0.36-0.82l-1.1-3.58c0,0-0.39-1.03-1.26-1.03h-1.4
		h-1.4C19.32,27.05,18.93,28.08,18.93,28.08"/>
	<path class="st1" d="M35.27,32.49c0.61,0,1.1-0.49,1.1-1.1c0-0.61-0.49-1.1-1.1-1.1c-0.61,0-1.1,0.49-1.1,1.1
		C34.17,32,34.66,32.49,35.27,32.49"/>
	<path class="st1" d="M32.63,35.91c-0.05,0.13-0.1,0.4,0.16,0.52c0.3,0.14,0.47-0.15,0.47-0.15l0.6-1.91c0,0,0.1-0.13,0.1,0v4.49h0
		c0,0.31,0.25,0.56,0.56,0.56c0.31,0,0.56-0.25,0.56-0.56v-1.77c0,0-0.03-0.25,0.17-0.25c0.2,0,0.17,0.25,0.17,0.25v1.77
		c0,0.31,0.25,0.56,0.57,0.56c0.31,0,0.57-0.25,0.57-0.56v-4.49c0-0.13,0.07-0.04,0.07-0.04l0.47,1.31c0,0,0.2,0.58,0.27,0.61
		c0.21,0.09,0.46-0.01,0.55-0.23c0.06-0.14,0.04-0.29-0.05-0.4l0,0c-0.01-0.04-0.7-1.73-0.78-1.96c-0.25-0.72-0.7-0.72-1.14-0.73
		c-0.44-0.01-0.69,0-0.69,0s-0.28-0.01-0.85,0.01c-0.57,0.02-0.75,0.31-1.39,1.94C32.94,35.1,32.63,35.86,32.63,35.91L32.63,35.91z"
		/>
	<path class="st1" d="M11.11,24.36c0-0.77-0.63-1.4-1.4-1.4c-0.77,0-1.39,0.62-1.39,1.4c0,0.77,0.62,1.4,1.39,1.4
		C10.48,25.75,11.11,25.13,11.11,24.36"/>
	<path class="st1" d="M8.08,26.29c-0.95,0.09-1.69,0.88-1.69,1.85v0.46v0.2v3.2c0,0.3,0.24,0.54,0.54,0.54
		c0.3,0,0.54-0.24,0.54-0.54v-3.32c0-0.12,0.04-0.29,0.26-0.29c0.16,0,0.19,0.17,0.2,0.27v9.96c0,0.43,0.35,0.78,0.78,0.78
		c0.43,0,0.78-0.35,0.78-0.78v-5.74c0-0.06,0.02-0.23,0.22-0.23h0c0.2,0,0.22,0.16,0.22,0.23v5.74c0,0.43,0.35,0.78,0.78,0.78
		c0.43,0,0.78-0.35,0.78-0.78v-9.96c0-0.11,0.04-0.27,0.2-0.27c0.23,0,0.26,0.17,0.26,0.29v3.32c0,0.3,0.24,0.54,0.54,0.54
		c0.3,0,0.54-0.24,0.54-0.54v-3.2v-0.2v-0.46c0-0.97-0.74-1.77-1.69-1.85c-0.03,0-0.07-0.01-0.1-0.01H9.71H8.19
		C8.14,26.28,8.11,26.29,8.08,26.29"/>
	<line class="st9" x1="6.86" y1="32.58" x2="5.62" y2="39.15"/>
	<path class="st1" d="M13.69,31.91c-0.07-0.11-0.2-0.19-0.34-0.19c-0.22,0-0.4,0.18-0.4,0.4c0,0.06,0.04,0.18,0.04,0.18l1.11,2.01
		c0,0,0.07,0.14,0.07,0.26v4.31h0c0,0.3,0.24,0.54,0.54,0.54c0.3,0,0.54-0.24,0.54-0.54v-1.7c0,0-0.03-0.24,0.16-0.24
		c0.19,0,0.16,0.24,0.16,0.24v1.7c0,0.3,0.24,0.54,0.54,0.54c0.3,0,0.54-0.24,0.54-0.54v-4.31c0-0.13,0.07-0.26,0.07-0.26l1.03-1.85
		c0,0,0.13-0.27,0.13-0.33c0-0.22-0.18-0.4-0.4-0.4c-0.14,0-0.27,0.08-0.34,0.19l0,0c-0.03,0.03-0.55,0.94-0.72,1.11
		c-0.18,0.18-0.34,0.16-0.34,0.16h-0.67h-0.67c0,0-0.16,0.02-0.34-0.16C14.24,32.85,13.73,31.94,13.69,31.91L13.69,31.91z"/>
	<path class="st1" d="M15.42,32.49c0.61,0,1.1-0.49,1.1-1.1c0-0.61-0.49-1.1-1.1-1.1c-0.61,0-1.1,0.49-1.1,1.1
		C14.32,32,14.81,32.49,15.42,32.49"/>
	<polygon class="st1" points="15.42,34.03 16.66,34.94 17.26,37.12 15.42,37.12 13.58,37.12 14.18,34.94 	"/>
</g>
</svg>
