<?xml version="1.0" encoding="utf-8"?>
<!-- Generator: Adobe Illustrator 26.5.0, SVG Export Plug-In . SVG Version: 6.00 Build 0)  -->
<svg version="1.1" id="Capa_1" xmlns="http://www.w3.org/2000/svg" xmlns:xlink="http://www.w3.org/1999/xlink" x="0px" y="0px"
	 viewBox="0 0 51.02 51.02" style="enable-background:new 0 0 51.02 51.02;" xml:space="preserve">
<style type="text/css">
	.st0{fill:#D28D0E;}
	.st1{fill:#FFFFFF;}
	.st2{fill:#FBB800;}
	.st3{fill:#931831;}
	.st4{fill:#F59D08;}
	.st5{fill:#4A7634;}
	.st6{fill:#1F3262;}
	.st7{fill:#EC6411;}
	.st8{fill:#E2071F;}
	.st9{fill:none;stroke:#FFFFFF;stroke-width:0.5939;stroke-linecap:round;stroke-miterlimit:10;}
	.st10{fill:#D6A102;}
	.st11{fill:#289438;}
	.st12{fill:#C11728;}
	.st13{fill:#E6331D;}
	.st14{fill:#DD0979;}
	.st15{fill:#0076B8;}
	.st16{fill:#3EA635;}
	.st17{fill:#004C84;}
	.st18{fill:#00A7D7;}
</style>
<g>
	<rect x="0.41" y="0.41" class="st16" width="50.2" height="50.2"/>
	<path class="st1" d="M4.69,6.67C4.6,6.71,4.35,6.81,3.94,6.96C3.6,7.07,3.4,7.15,3.31,7.19V5.83c0.27-0.1,0.59-0.26,0.98-0.47
		c0.38-0.21,0.65-0.41,0.81-0.58h1.43v9.57H4.69V6.67z"/>
	<path class="st1" d="M8.52,14.15c-0.36-0.23-0.61-0.56-0.74-0.99c-0.13-0.43-0.2-0.96-0.2-1.6h1.77c0,0.55,0.05,0.95,0.15,1.2
		c0.1,0.25,0.3,0.37,0.6,0.37c0.24,0,0.41-0.08,0.52-0.24c0.11-0.16,0.18-0.37,0.21-0.64c0.03-0.27,0.04-0.66,0.04-1.18
		c0-0.58-0.05-1.02-0.16-1.31c-0.11-0.29-0.32-0.43-0.66-0.43c-0.43,0-0.7,0.29-0.82,0.86H7.67L7.8,4.78h4.41v1.57H9.3L9.19,8.46
		c0.11-0.13,0.3-0.25,0.57-0.34s0.56-0.14,0.86-0.14c0.65,0,1.15,0.26,1.48,0.79c0.33,0.53,0.5,1.27,0.5,2.22
		c0,0.76-0.07,1.38-0.2,1.89c-0.13,0.5-0.39,0.89-0.76,1.18c-0.37,0.29-0.91,0.43-1.6,0.43C9.39,14.5,8.88,14.39,8.52,14.15"/>
	<polygon class="st1" points="16.43,8.43 16.43,4.77 17.1,4.77 17.1,7.97 17.97,7.97 17.97,8.43 	"/>
	<rect x="18.21" y="4.77" class="st1" width="0.66" height="3.66"/>
	<polygon class="st1" points="19.29,8.43 19.29,4.77 20.8,4.77 20.8,5.23 19.96,5.23 19.96,6.3 20.63,6.3 20.63,6.77 19.96,6.77 
		19.96,8.43 	"/>
	<polygon class="st1" points="21.01,8.43 21.01,4.77 22.54,4.77 22.54,5.24 21.68,5.24 21.68,6.29 22.36,6.29 22.36,6.76 
		21.68,6.76 21.68,7.97 22.55,7.97 22.55,8.43 	"/>
	<path class="st1" d="M17.26,13.93c0.05,0.02,0.1,0.03,0.17,0.03s0.12-0.01,0.17-0.03c0.05-0.02,0.08-0.04,0.11-0.08
		c0.03-0.03,0.05-0.07,0.06-0.12s0.03-0.1,0.03-0.15s0.01-0.11,0.01-0.18v-1.66c0-0.09,0-0.16-0.01-0.22s-0.03-0.11-0.05-0.17
		c-0.03-0.05-0.06-0.09-0.12-0.12c-0.05-0.03-0.12-0.04-0.2-0.04c-0.08,0-0.15,0.01-0.2,0.04c-0.05,0.03-0.09,0.06-0.12,0.12
		c-0.02,0.05-0.04,0.11-0.05,0.17s-0.01,0.13-0.01,0.22v1.66c0,0.07,0,0.13,0.01,0.18s0.02,0.1,0.03,0.15
		c0.02,0.05,0.04,0.09,0.06,0.12C17.18,13.89,17.21,13.91,17.26,13.93 M17.43,14.45c-0.38,0-0.65-0.1-0.81-0.31
		c-0.16-0.2-0.25-0.5-0.25-0.9V11.9c0-0.19,0.02-0.36,0.06-0.51c0.04-0.14,0.1-0.27,0.18-0.37c0.08-0.1,0.19-0.18,0.33-0.23
		c0.14-0.05,0.3-0.08,0.49-0.08c0.38,0,0.64,0.1,0.81,0.3c0.16,0.2,0.25,0.5,0.25,0.89v1.35c0,0.19-0.02,0.36-0.06,0.5
		c-0.04,0.14-0.1,0.27-0.18,0.38c-0.08,0.11-0.19,0.19-0.33,0.24C17.78,14.43,17.62,14.45,17.43,14.45"/>
	<polygon class="st1" points="18.83,14.41 18.83,10.75 19.29,10.75 20.19,12.82 20.19,10.75 20.74,10.75 20.74,14.41 20.3,14.41 
		19.4,12.23 19.4,14.41 	"/>
	<polygon class="st1" points="22.12,14.41 22.12,10.75 22.78,10.75 22.78,13.95 23.66,13.95 23.66,14.41 	"/>
	<path class="st1" d="M24.54,13.12h0.49l-0.25-1.5L24.54,13.12z M23.69,14.41l0.74-3.66h0.69l0.74,3.66h-0.62l-0.15-0.85h-0.63
		l-0.15,0.85H23.69z"/>
	<polygon class="st1" points="26.09,14.41 26.09,10.75 26.55,10.75 27.45,12.82 27.45,10.75 28,10.75 28,14.41 27.56,14.41 
		26.66,12.23 26.66,14.41 	"/>
	<path class="st1" d="M29.08,13.94h0.19c0.07,0,0.12-0.01,0.17-0.02c0.05-0.01,0.09-0.03,0.13-0.04c0.03-0.02,0.06-0.04,0.08-0.08
		s0.04-0.07,0.05-0.1c0.01-0.03,0.02-0.08,0.03-0.14c0.01-0.06,0.01-0.12,0.01-0.16c0-0.04,0-0.11,0-0.2v-1.34c0-0.09,0-0.16,0-0.21
		c0-0.05-0.01-0.11-0.02-0.16c-0.01-0.05-0.03-0.1-0.05-0.12c-0.02-0.03-0.05-0.06-0.08-0.08c-0.04-0.02-0.08-0.04-0.13-0.05
		c-0.05-0.01-0.12-0.01-0.19-0.01h-0.18V13.94z M28.41,14.41v-3.66h0.85c0.22,0,0.41,0.02,0.55,0.07c0.15,0.04,0.27,0.11,0.36,0.21
		c0.09,0.1,0.15,0.21,0.19,0.35c0.04,0.14,0.06,0.31,0.06,0.51v1.32c0,0.21-0.02,0.39-0.06,0.53c-0.04,0.15-0.1,0.27-0.19,0.37
		c-0.09,0.1-0.2,0.18-0.35,0.22c-0.15,0.05-0.32,0.07-0.54,0.07H28.41z"/>
	<path class="st1" d="M21.18,34.39c0.06,0,0.11,0.05,0.11,0.11v3.67c0,0.06-0.05,0.11-0.11,0.11h-1.49c-0.06,0-0.11-0.05-0.11-0.11
		v-3.67c0-0.06,0.05-0.11,0.11-0.11H21.18z"/>
	<path class="st1" d="M37.5,39.87H13.01c-0.06,0-0.11,0.05-0.11,0.11v1.5c0,0.06,0.05,0.11,0.11,0.11H37.5
		c0.06,0,0.11-0.05,0.11-0.11v-1.5C37.61,39.92,37.56,39.87,37.5,39.87"/>
	<path class="st1" d="M37.5,42.84H13.01c-0.06,0-0.11,0.05-0.11,0.11v1.5c0,0.06,0.05,0.11,0.11,0.11H37.5
		c0.06,0,0.11-0.05,0.11-0.11v-1.5C37.61,42.89,37.56,42.84,37.5,42.84"/>
	<path class="st1" d="M32.84,30.33c-0.31-0.24-1.12-0.8-2.12-0.8c-0.71,0-1.37,0.28-1.97,0.84c-0.04,0.04-0.07,0.09-0.07,0.15v0.13
		c0,0.07,0.02,0.13,0.07,0.17c0.05,0.04,0.11,0.06,0.17,0.04c0.01,0,0.03-0.01,0.05-0.01c0.05-0.02,0.09-0.04,0.12-0.08
		c0.13-0.09,0.48-0.2,0.98-0.2c0.52,0,1.54,0.14,2.52,1.06l0.02,0.02c0.06,0.06,0.13,0.09,0.21,0.09c0.08,0,0.16-0.03,0.21-0.09
		l0.02-0.02c0.99-0.92,2.01-1.06,2.53-1.06c0.5,0,0.85,0.12,0.98,0.2c0.04,0.03,0.08,0.06,0.14,0.08c0.02,0.01,0.08,0.02,0.14,0
		c0.09-0.03,0.15-0.11,0.15-0.2v-0.12c0-0.06-0.02-0.11-0.07-0.15c-0.6-0.57-1.27-0.86-1.99-0.86
		C33.97,29.53,33.15,30.08,32.84,30.33"/>
	<path class="st1" d="M31.32,20.57c-0.05,0.02-0.09,0.07-0.11,0.13l-0.02,0.08c-0.02,0.06-0.01,0.13,0.03,0.18
		c0.04,0.05,0.09,0.08,0.15,0.08c0.01,0,0.02,0,0.03,0c0.04,0,0.08-0.01,0.12-0.03c0.02,0,0.07-0.02,0.15-0.02
		c0.11,0,1.1,0.03,1.75,1.14l0.01,0.02c0.04,0.06,0.09,0.11,0.16,0.13c0.02,0.01,0.06,0.01,0.08,0.01c0.05,0,0.09-0.01,0.12-0.03
		l0.02-0.01c0.36-0.18,0.73-0.27,1.09-0.27c0.62,0,1.02,0.25,1.12,0.36c0.02,0.04,0.05,0.07,0.08,0.09
		c0.02,0.01,0.06,0.03,0.08,0.04c0.01,0,0.02,0,0.04,0.01c0.01,0,0.01,0,0.02,0c0.03,0,0.07-0.01,0.1-0.02
		c0.05-0.02,0.09-0.07,0.1-0.13l0.02-0.07c0.01-0.02,0.01-0.04,0.01-0.06c0-0.04-0.01-0.08-0.03-0.11c-0.48-0.83-1.17-1-1.66-1
		c-0.37,0-0.69,0.1-0.88,0.17c-0.22-0.3-0.79-0.93-1.65-0.93C31.94,20.34,31.63,20.41,31.32,20.57"/>
	<path class="st1" d="M26.15,24.34l0.01,0.11c0,0.07,0.04,0.13,0.1,0.17c0.05,0.03,0.11,0.04,0.16,0.02c0.01,0,0.03-0.01,0.04-0.01
		c0.04-0.02,0.08-0.04,0.11-0.08c0.1-0.08,0.44-0.21,0.93-0.21c0.48,0,1.2,0.13,1.94,0.73l0.02,0.02c0.05,0.05,0.12,0.07,0.19,0.07
		h0.02c0.08-0.01,0.15-0.04,0.19-0.09l0.02-0.02c0.82-0.86,1.7-0.99,2.15-0.99c0.32,0,0.55,0.07,0.64,0.12
		c0.03,0.03,0.08,0.05,0.13,0.07c0.01,0,0.05,0.01,0.09,0.01c0.02,0,0.04-0.01,0.05-0.01c0.09-0.03,0.15-0.12,0.14-0.21l-0.01-0.1
		c0-0.06-0.03-0.11-0.07-0.15c-0.49-0.41-1.01-0.62-1.57-0.62c-0.86,0-1.55,0.51-1.83,0.76c-0.26-0.18-0.89-0.54-1.63-0.54
		c-0.65,0-1.24,0.27-1.74,0.8C26.16,24.22,26.14,24.28,26.15,24.34"/>
	<path class="st1" d="M13.75,26.3c0-1.47,1.19-2.66,2.66-2.66c0.06,0,0.11,0.01,0.17,0.01c0.14-1.86,1.69-3.32,3.58-3.32
		c1.98,0,3.59,1.61,3.59,3.59c0,0.56-0.13,1.09-0.36,1.57c1.8,0.4,3.14,2,3.14,3.92c0,2.22-1.8,4.01-4.01,4.01
		c-0.16,0-5.36-0.03-5.36-0.03c-1.57,0-2.84-1.27-2.84-2.84c0-0.75,0.3-1.44,0.78-1.95C14.29,28.15,13.75,27.29,13.75,26.3"/>
</g>
</svg>
