<?xml version="1.0" encoding="utf-8"?>
<!-- Generator: Adobe Illustrator 26.5.0, SVG Export Plug-In . SVG Version: 6.00 Build 0)  -->
<svg version="1.1" id="Capa_1" xmlns="http://www.w3.org/2000/svg" xmlns:xlink="http://www.w3.org/1999/xlink" x="0px" y="0px"
	 viewBox="0 0 51.02 51.02" style="enable-background:new 0 0 51.02 51.02;" xml:space="preserve">
<style type="text/css">
	.st0{fill:#D28D0E;}
	.st1{fill:#FFFFFF;}
	.st2{fill:#FBB800;}
	.st3{fill:#931831;}
	.st4{fill:#F59D08;}
	.st5{fill:#4A7634;}
	.st6{fill:#1F3262;}
	.st7{fill:#EC6411;}
	.st8{fill:#E2071F;}
	.st9{fill:none;stroke:#FFFFFF;stroke-width:0.5939;stroke-linecap:round;stroke-miterlimit:10;}
	.st10{fill:#D6A102;}
	.st11{fill:#289438;}
	.st12{fill:#C11728;}
	.st13{fill:#E6331D;}
	.st14{fill:#DD0979;}
	.st15{fill:#0076B8;}
	.st16{fill:#3EA635;}
	.st17{fill:#004C84;}
	.st18{fill:#00A7D7;}
</style>
<g>
	<g>
		<rect x="0.41" y="0.41" class="st18" width="50.2" height="50.2"/>
		<path class="st1" d="M7.61,12.72c0.1-0.26,0.15-0.68,0.15-1.26c0-0.4-0.01-0.71-0.04-0.93c-0.02-0.22-0.09-0.4-0.2-0.53
			C7.42,9.87,7.26,9.8,7.04,9.8c-0.17,0-0.31,0.04-0.44,0.13c-0.13,0.09-0.23,0.19-0.3,0.31v1.52c0,0.91,0.25,1.36,0.76,1.36
			C7.32,13.12,7.51,12.99,7.61,12.72 M5.08,13.63c-0.42-0.57-0.63-1.33-0.63-2.29v-3.4c0-1.04,0.19-1.85,0.57-2.42
			c0.38-0.57,1.04-0.86,2-0.86c0.85,0,1.47,0.2,1.84,0.6c0.38,0.4,0.57,1.01,0.58,1.82l0.01,0.17H7.71c0-0.44-0.04-0.75-0.13-0.93
			C7.49,6.14,7.31,6.05,7.04,6.05c-0.2,0-0.35,0.06-0.46,0.18C6.47,6.35,6.4,6.55,6.36,6.82C6.31,7.1,6.29,7.49,6.29,7.99v0.97
			c0.1-0.17,0.27-0.31,0.5-0.41C7.02,8.45,7.28,8.4,7.57,8.4c0.71,0,1.22,0.25,1.54,0.74c0.32,0.49,0.48,1.16,0.48,2.02
			c0,1.06-0.2,1.87-0.59,2.45c-0.39,0.58-1.05,0.87-1.97,0.87C6.15,14.48,5.5,14.2,5.08,13.63"/>
		<path class="st1" d="M14.6,8.47c-0.16,0-0.3-0.02-0.42-0.06c-0.12-0.04-0.22-0.09-0.3-0.17c-0.08-0.07-0.14-0.16-0.19-0.26
			c-0.05-0.1-0.08-0.22-0.1-0.34c-0.02-0.12-0.03-0.25-0.03-0.4V5.97c0-0.16,0.01-0.3,0.03-0.42c0.02-0.12,0.05-0.24,0.1-0.34
			c0.05-0.11,0.11-0.19,0.19-0.26c0.08-0.07,0.18-0.12,0.3-0.16c0.12-0.04,0.26-0.06,0.42-0.06c0.18,0,0.34,0.02,0.47,0.07
			c0.13,0.05,0.23,0.12,0.31,0.21c0.08,0.09,0.13,0.2,0.16,0.33c0.03,0.13,0.05,0.27,0.05,0.44V6.1h-0.64V5.79
			c0-0.18-0.01-0.31-0.03-0.37c-0.04-0.12-0.13-0.19-0.28-0.2H14.6c-0.06,0-0.11,0.01-0.15,0.02c-0.04,0.01-0.08,0.03-0.1,0.06
			c-0.03,0.03-0.05,0.06-0.06,0.09c-0.02,0.03-0.03,0.07-0.04,0.13c-0.01,0.05-0.01,0.1-0.01,0.14c0,0.04,0,0.1,0,0.17v1.55
			c0,0.21,0.03,0.37,0.08,0.46c0.05,0.09,0.15,0.14,0.29,0.14c0.05,0,0.09-0.01,0.12-0.02c0.04-0.01,0.07-0.02,0.09-0.04
			c0.02-0.02,0.04-0.04,0.06-0.07c0.02-0.03,0.03-0.06,0.04-0.09c0.01-0.03,0.02-0.07,0.02-0.11c0-0.05,0.01-0.09,0.01-0.12
			c0-0.03,0-0.08,0-0.14V7.06h0.64v0.3c0,0.14-0.01,0.26-0.03,0.37c-0.02,0.11-0.05,0.21-0.1,0.31c-0.05,0.1-0.11,0.18-0.18,0.24
			C15.21,8.33,15.12,8.38,15,8.42C14.89,8.46,14.75,8.47,14.6,8.47"/>
		<polygon class="st1" points="16.03,8.43 16.03,4.77 16.69,4.77 16.69,7.97 17.57,7.97 17.57,8.43 		"/>
		<polygon class="st1" points="17.9,8.43 17.9,4.77 19.43,4.77 19.43,5.24 18.57,5.24 18.57,6.29 19.25,6.29 19.25,6.76 18.57,6.76 
			18.57,7.97 19.44,7.97 19.44,8.43 		"/>
		<path class="st1" d="M20.46,7.15h0.49l-0.25-1.5L20.46,7.15z M19.61,8.43l0.74-3.66h0.69l0.74,3.66h-0.62l-0.15-0.85h-0.63
			l-0.15,0.85H19.61z"/>
		<polygon class="st1" points="22.13,8.43 22.13,4.77 22.59,4.77 23.49,6.84 23.49,4.77 24.04,4.77 24.04,8.43 23.6,8.43 22.7,6.25 
			22.7,8.43 		"/>
		<polygon class="st1" points="26.04,8.43 25.52,4.77 26.08,4.77 26.38,7.13 26.77,4.77 27.22,4.77 27.62,7.13 27.92,4.77 
			28.47,4.77 27.94,8.43 27.41,8.43 27,5.99 26.59,8.43 		"/>
		<path class="st1" d="M29.41,7.15h0.49l-0.25-1.5L29.41,7.15z M28.56,8.43l0.74-3.66H30l0.74,3.66h-0.62l-0.15-0.85h-0.63
			l-0.15,0.85H28.56z"/>
		<polygon class="st1" points="31.31,8.43 31.31,5.26 30.69,5.26 30.69,4.77 32.57,4.77 32.57,5.26 31.97,5.26 31.97,8.43 		"/>
		<polygon class="st1" points="32.83,8.43 32.83,4.77 34.37,4.77 34.37,5.24 33.5,5.24 33.5,6.29 34.18,6.29 34.18,6.76 33.5,6.76 
			33.5,7.97 34.38,7.97 34.38,8.43 		"/>
		<path class="st1" d="M35.4,6.33h0.16c0.2,0,0.34-0.04,0.42-0.13c0.08-0.08,0.12-0.23,0.12-0.43c0-0.2-0.04-0.34-0.11-0.42
			c-0.07-0.08-0.2-0.13-0.4-0.13h-0.2V6.33z M34.74,8.43V4.77h0.84c0.19,0,0.36,0.02,0.5,0.05c0.14,0.03,0.26,0.08,0.36,0.16
			c0.1,0.07,0.18,0.17,0.23,0.3c0.05,0.13,0.08,0.28,0.08,0.47c0,0.23-0.03,0.42-0.1,0.56c-0.07,0.15-0.18,0.25-0.34,0.32l0.51,1.8
			h-0.67L35.7,6.76h-0.3v1.67H34.74z"/>
		<path class="st1" d="M14.28,13.12h0.49l-0.25-1.5L14.28,13.12z M13.43,14.41l0.74-3.66h0.69l0.74,3.66h-0.62l-0.15-0.85h-0.63
			l-0.15,0.85H13.43z"/>
		<polygon class="st1" points="15.95,14.41 15.95,10.75 16.41,10.75 17.3,12.82 17.3,10.75 17.85,10.75 17.85,14.41 17.42,14.41 
			16.51,12.23 16.51,14.41 		"/>
		<path class="st1" d="M19.04,13.94h0.19c0.07,0,0.12-0.01,0.17-0.02c0.05-0.01,0.09-0.03,0.13-0.04c0.03-0.02,0.06-0.04,0.09-0.08
			c0.02-0.04,0.04-0.07,0.05-0.1c0.01-0.03,0.02-0.08,0.03-0.14c0.01-0.06,0.01-0.12,0.01-0.16c0-0.04,0-0.11,0-0.2v-1.34
			c0-0.09,0-0.16,0-0.21c0-0.05-0.01-0.11-0.02-0.16c-0.01-0.05-0.03-0.1-0.05-0.12c-0.02-0.03-0.05-0.06-0.09-0.08
			c-0.04-0.02-0.08-0.04-0.13-0.05c-0.05-0.01-0.12-0.01-0.19-0.01h-0.18V13.94z M18.38,14.41v-3.66h0.85
			c0.22,0,0.41,0.02,0.55,0.07c0.15,0.04,0.27,0.11,0.36,0.21c0.09,0.1,0.15,0.21,0.19,0.35c0.04,0.14,0.06,0.31,0.06,0.51v1.32
			c0,0.21-0.02,0.39-0.06,0.53c-0.04,0.15-0.1,0.27-0.19,0.37c-0.09,0.1-0.2,0.18-0.35,0.22c-0.15,0.05-0.32,0.07-0.54,0.07H18.38z"
			/>
		<path class="st1" d="M22.86,14.45c-0.64,0-0.98-0.37-1.02-1.12l0.58-0.12c0.01,0.48,0.15,0.73,0.41,0.73
			c0.1,0,0.18-0.03,0.23-0.09c0.05-0.06,0.07-0.14,0.07-0.25c0-0.1-0.02-0.19-0.06-0.28c-0.04-0.08-0.08-0.15-0.13-0.21
			c-0.05-0.05-0.12-0.12-0.21-0.2l-0.48-0.42c-0.14-0.12-0.25-0.25-0.32-0.38c-0.07-0.13-0.1-0.3-0.1-0.5c0-0.28,0.08-0.5,0.25-0.66
			c0.17-0.16,0.4-0.24,0.69-0.24c0.13,0,0.25,0.02,0.36,0.05c0.1,0.03,0.19,0.08,0.26,0.14c0.07,0.06,0.12,0.13,0.17,0.22
			c0.04,0.09,0.08,0.18,0.1,0.27c0.02,0.09,0.04,0.2,0.05,0.31l-0.57,0.11c0-0.07-0.01-0.14-0.01-0.19
			c-0.01-0.05-0.02-0.11-0.03-0.17s-0.04-0.1-0.06-0.14c-0.03-0.03-0.06-0.06-0.1-0.08c-0.04-0.02-0.09-0.03-0.15-0.02
			c-0.1,0.01-0.17,0.04-0.23,0.1c-0.05,0.06-0.08,0.14-0.08,0.24c0,0.12,0.02,0.21,0.07,0.29c0.05,0.08,0.12,0.16,0.22,0.24
			l0.48,0.41c0.08,0.07,0.15,0.14,0.21,0.21c0.06,0.07,0.11,0.14,0.17,0.23c0.05,0.09,0.09,0.18,0.12,0.29
			c0.03,0.1,0.04,0.21,0.04,0.33c0,0.27-0.08,0.48-0.25,0.65C23.35,14.37,23.13,14.45,22.86,14.45"/>
		<path class="st1" d="M24.8,13.12h0.49l-0.25-1.5L24.8,13.12z M23.95,14.41l0.74-3.66h0.7l0.74,3.66h-0.62l-0.15-0.85h-0.63
			l-0.15,0.85H23.95z"/>
		<polygon class="st1" points="26.47,14.41 26.47,10.75 26.93,10.75 27.82,12.82 27.82,10.75 28.38,10.75 28.38,14.41 27.94,14.41 
			27.03,12.23 27.03,14.41 		"/>
		<rect x="28.92" y="10.75" class="st1" width="0.66" height="3.66"/>
		<polygon class="st1" points="30.47,14.41 30.47,11.24 29.86,11.24 29.86,10.75 31.73,10.75 31.73,11.24 31.14,11.24 31.14,14.41 
					"/>
		<path class="st1" d="M32.64,13.12h0.49l-0.25-1.5L32.64,13.12z M31.8,14.41l0.74-3.66h0.69l0.74,3.66h-0.62l-0.15-0.85h-0.63
			l-0.15,0.85H31.8z"/>
		<polygon class="st1" points="34.54,14.41 34.54,11.24 33.93,11.24 33.93,10.75 35.8,10.75 35.8,11.24 35.21,11.24 35.21,14.41 		
			"/>
		<rect x="36.09" y="10.75" class="st1" width="0.66" height="3.66"/>
		<path class="st1" d="M38.12,13.93c0.05,0.02,0.1,0.03,0.17,0.03s0.12-0.01,0.17-0.03c0.05-0.02,0.08-0.04,0.11-0.08
			c0.03-0.03,0.05-0.07,0.06-0.12c0.01-0.05,0.03-0.1,0.03-0.15c0.01-0.05,0.01-0.11,0.01-0.18v-1.66c0-0.09,0-0.16-0.01-0.22
			c-0.01-0.06-0.03-0.11-0.05-0.17c-0.03-0.05-0.06-0.09-0.12-0.12c-0.05-0.03-0.12-0.04-0.2-0.04c-0.08,0-0.15,0.01-0.2,0.04
			c-0.05,0.03-0.09,0.06-0.12,0.12c-0.03,0.05-0.04,0.11-0.05,0.17c-0.01,0.06-0.01,0.13-0.01,0.22v1.66c0,0.07,0,0.13,0.01,0.18
			c0.01,0.05,0.02,0.1,0.03,0.15c0.02,0.05,0.04,0.09,0.06,0.12C38.03,13.89,38.07,13.91,38.12,13.93 M38.28,14.45
			c-0.38,0-0.65-0.1-0.81-0.31c-0.16-0.2-0.24-0.5-0.24-0.9V11.9c0-0.19,0.02-0.36,0.05-0.51c0.04-0.14,0.1-0.27,0.18-0.37
			c0.08-0.1,0.19-0.18,0.33-0.23c0.14-0.05,0.3-0.08,0.49-0.08c0.38,0,0.64,0.1,0.81,0.3c0.16,0.2,0.25,0.5,0.25,0.89v1.35
			c0,0.19-0.02,0.36-0.06,0.5c-0.04,0.14-0.1,0.27-0.18,0.38c-0.08,0.11-0.19,0.19-0.33,0.24C38.64,14.43,38.47,14.45,38.28,14.45"
			/>
		<path class="st1" d="M33.53,24.6c-0.5-0.22-1.12-0.14-1.73,0.1c-2.27,0.92-3.82,1.25-6.2,0.5c-1.5-0.47-2.91-1.46-4.57-0.86
			c-1.1,0.4-2.13,0.78-3.38,0.77l-0.72-3.7h17.12L33.53,24.6z M27.73,35.57c0,0-0.83,0.85-2.18,0.76c-1.36,0.09-2.19-0.76-2.19-0.76
			c-1.37-1.37-0.88-3.07-0.4-3.95c0.29-0.55,2.4-3.71,2.58-3.98v-0.02c0,0,0,0,0.01,0.01l0.01-0.01v0.02
			c0.18,0.27,2.29,3.43,2.58,3.98C28.61,32.5,29.1,34.2,27.73,35.57 M34.8,20.69c-0.04-0.05-0.1-0.07-0.17-0.07h-18.3
			c-0.06,0-0.12,0.03-0.16,0.07c-0.04,0.05-0.06,0.11-0.05,0.17l3.07,18.59c0.02,0.1,0.11,0.18,0.21,0.18h3.77l0.26,3.03l-1.59,0
			l3.69,3.69l3.7-3.7l-1.59,0l0.26-3.02h3.84c0.11,0,0.19-0.08,0.21-0.18l2.88-18.59C34.86,20.8,34.84,20.74,34.8,20.69"/>
	</g>
	<polygon class="st1" points="39.71,14.41 39.71,10.75 40.17,10.75 41.07,12.82 41.07,10.75 41.62,10.75 41.62,14.41 41.18,14.41 
		40.28,12.23 40.28,14.41 	"/>
</g>
</svg>
