<?xml version="1.0" encoding="utf-8"?>
<!-- Generator: Adobe Illustrator 26.5.0, SVG Export Plug-In . SVG Version: 6.00 Build 0)  -->
<svg version="1.1" id="Capa_1" xmlns="http://www.w3.org/2000/svg" xmlns:xlink="http://www.w3.org/1999/xlink" x="0px" y="0px"
	 viewBox="0 0 51.02 51.02" style="enable-background:new 0 0 51.02 51.02;" xml:space="preserve">
<style type="text/css">
	.st0{fill:#D28D0E;}
	.st1{fill:#FFFFFF;}
	.st2{fill:#FBB800;}
	.st3{fill:#931831;}
	.st4{fill:#F59D08;}
	.st5{fill:#4A7634;}
	.st6{fill:#1F3262;}
	.st7{fill:#EC6411;}
	.st8{fill:#E2071F;}
	.st9{fill:none;stroke:#FFFFFF;stroke-width:0.5939;stroke-linecap:round;stroke-miterlimit:10;}
	.st10{fill:#D6A102;}
	.st11{fill:#289438;}
	.st12{fill:#C11728;}
	.st13{fill:#E6331D;}
	.st14{fill:#DD0979;}
	.st15{fill:#0076B8;}
	.st16{fill:#3EA635;}
	.st17{fill:#004C84;}
	.st18{fill:#00A7D7;}
</style>
<g>
	<rect x="0.41" y="0.41" class="st10" width="50.2" height="50.2"/>
	<path class="st1" d="M4.46,13.06l2.32-3.58l0.14-0.21c0.3-0.45,0.52-0.83,0.66-1.13c0.14-0.3,0.21-0.64,0.21-1
		c0-0.31-0.06-0.54-0.18-0.7C7.5,6.28,7.33,6.2,7.11,6.2c-0.33,0-0.56,0.13-0.69,0.38c-0.13,0.25-0.19,0.6-0.19,1.04v0.44H4.46V7.58
		c0-0.9,0.21-1.61,0.63-2.13c0.42-0.52,1.08-0.79,1.98-0.79c0.83,0,1.46,0.22,1.89,0.66C9.38,5.75,9.6,6.37,9.6,7.18
		c0,0.36-0.06,0.71-0.17,1.03C9.32,8.53,9.19,8.81,9.04,9.07c-0.15,0.25-0.38,0.61-0.7,1.08L6.5,12.91h2.85v1.44H4.46V13.06z"/>
	<polygon class="st1" points="13.5,8.43 13.5,7.99 14.48,5.23 13.55,5.23 13.55,4.77 15.16,4.77 15.16,5.1 14.14,7.97 15.16,7.97 
		15.16,8.43 	"/>
	<polygon class="st1" points="15.52,8.43 15.52,4.77 17.05,4.77 17.05,5.24 16.18,5.24 16.18,6.29 16.87,6.29 16.87,6.76 
		16.18,6.76 16.18,7.97 17.06,7.97 17.06,8.43 	"/>
	<path class="st1" d="M18.09,6.33h0.16c0.2,0,0.34-0.04,0.42-0.13c0.08-0.08,0.12-0.23,0.12-0.43c0-0.2-0.04-0.34-0.11-0.42
		c-0.07-0.08-0.2-0.13-0.4-0.13h-0.2V6.33z M17.42,8.43V4.77h0.84c0.19,0,0.36,0.02,0.5,0.05c0.14,0.03,0.26,0.08,0.36,0.16
		c0.1,0.07,0.18,0.17,0.23,0.3c0.05,0.13,0.08,0.28,0.08,0.47c0,0.23-0.03,0.42-0.1,0.56c-0.07,0.15-0.18,0.25-0.34,0.32l0.51,1.8
		h-0.67l-0.44-1.67h-0.3v1.67H17.42z"/>
	<path class="st1" d="M20.73,7.95c0.05,0.02,0.1,0.03,0.17,0.03s0.12-0.01,0.17-0.03c0.05-0.02,0.08-0.04,0.11-0.08
		c0.03-0.03,0.05-0.07,0.06-0.12c0.02-0.05,0.03-0.1,0.03-0.15c0.01-0.05,0.01-0.11,0.01-0.18V5.76c0-0.09,0-0.16-0.01-0.22
		c-0.01-0.06-0.03-0.11-0.05-0.17c-0.03-0.05-0.06-0.09-0.12-0.12c-0.05-0.03-0.12-0.04-0.2-0.04c-0.08,0-0.15,0.01-0.2,0.04
		c-0.05,0.03-0.09,0.06-0.12,0.12c-0.02,0.05-0.04,0.11-0.05,0.17c-0.01,0.06-0.01,0.13-0.01,0.22v1.66c0,0.07,0,0.13,0.01,0.18
		c0.01,0.05,0.02,0.1,0.03,0.15c0.02,0.05,0.04,0.09,0.06,0.12C20.65,7.91,20.69,7.93,20.73,7.95 M20.9,8.47
		c-0.38,0-0.65-0.1-0.81-0.31c-0.16-0.2-0.25-0.5-0.25-0.9V5.92c0-0.19,0.02-0.36,0.06-0.51c0.04-0.14,0.1-0.27,0.18-0.37
		c0.08-0.1,0.19-0.18,0.33-0.23c0.14-0.05,0.3-0.08,0.49-0.08c0.38,0,0.64,0.1,0.81,0.3c0.16,0.2,0.25,0.5,0.25,0.89v1.35
		c0,0.19-0.02,0.36-0.06,0.5c-0.04,0.14-0.1,0.27-0.18,0.38c-0.08,0.11-0.19,0.19-0.33,0.24C21.25,8.45,21.09,8.47,20.9,8.47"/>
	<polygon class="st1" points="13.63,14.41 13.63,10.75 14.29,10.75 14.29,12.28 15.04,12.28 15.04,10.75 15.7,10.75 15.7,14.41 
		15.04,14.41 15.04,12.75 14.29,12.75 14.29,14.41 	"/>
	<path class="st1" d="M17.24,14.45c-0.16,0-0.3-0.02-0.42-0.06c-0.12-0.04-0.22-0.09-0.3-0.16c-0.08-0.07-0.14-0.16-0.19-0.27
		c-0.05-0.11-0.08-0.23-0.1-0.35c-0.02-0.13-0.03-0.27-0.03-0.44v-2.43h0.65v2.5c0,0.09,0,0.16,0.01,0.22
		c0,0.06,0.01,0.12,0.03,0.19c0.02,0.07,0.04,0.12,0.06,0.16c0.03,0.04,0.06,0.07,0.11,0.1c0.05,0.03,0.11,0.04,0.17,0.04
		c0.07,0,0.13-0.01,0.17-0.04c0.05-0.03,0.08-0.06,0.11-0.1c0.03-0.04,0.05-0.09,0.06-0.16c0.01-0.07,0.02-0.13,0.03-0.19
		c0-0.06,0.01-0.13,0.01-0.22v-2.5h0.65v2.43c0,0.17-0.01,0.31-0.03,0.44c-0.02,0.13-0.05,0.24-0.1,0.35
		c-0.05,0.11-0.11,0.2-0.18,0.27c-0.08,0.07-0.17,0.12-0.29,0.16C17.54,14.43,17.4,14.45,17.24,14.45"/>
	<polygon class="st1" points="18.76,14.41 18.76,10.75 19.22,10.75 20.11,12.82 20.11,10.75 20.66,10.75 20.66,14.41 20.23,14.41 
		19.32,12.23 19.32,14.41 	"/>
	<path class="st1" d="M22.1,14.46c-0.35,0-0.59-0.11-0.75-0.32c-0.15-0.22-0.23-0.53-0.23-0.94V12c0-0.21,0.02-0.39,0.05-0.54
		c0.03-0.15,0.09-0.29,0.17-0.4c0.08-0.11,0.19-0.2,0.32-0.26c0.14-0.06,0.3-0.09,0.5-0.09c0.36,0,0.62,0.09,0.78,0.27
		c0.16,0.18,0.24,0.45,0.24,0.81v0.18h-0.64v-0.19c0-0.08,0-0.15-0.01-0.2c0-0.05-0.01-0.1-0.03-0.16
		c-0.01-0.05-0.03-0.09-0.06-0.12c-0.03-0.03-0.06-0.05-0.11-0.07s-0.1-0.03-0.17-0.03c-0.05,0-0.09,0.01-0.13,0.02
		c-0.04,0.01-0.07,0.03-0.1,0.05c-0.03,0.02-0.05,0.04-0.07,0.08c-0.02,0.03-0.03,0.07-0.04,0.1c-0.01,0.03-0.02,0.07-0.02,0.12
		c-0.01,0.05-0.01,0.09-0.01,0.13c0,0.04,0,0.09,0,0.15v1.48c0,0.22,0.03,0.38,0.08,0.48c0.05,0.1,0.16,0.15,0.31,0.15
		c0.08,0,0.15-0.01,0.2-0.05c0.05-0.03,0.1-0.08,0.13-0.14c0.03-0.06,0.05-0.13,0.06-0.21c0.01-0.08,0.02-0.17,0.02-0.29v-0.3h-0.39
		v-0.43h0.99v1.86h-0.43l-0.05-0.37C22.61,14.32,22.41,14.46,22.1,14.46"/>
	<polygon class="st1" points="23.68,14.41 23.68,10.75 25.22,10.75 25.22,11.22 24.35,11.22 24.35,12.27 25.04,12.27 25.04,12.74 
		24.35,12.74 24.35,13.95 25.23,13.95 25.23,14.41 	"/>
	<path class="st1" d="M26.25,12.31h0.16c0.2,0,0.34-0.04,0.42-0.13c0.08-0.08,0.12-0.23,0.12-0.43c0-0.2-0.04-0.34-0.11-0.42
		c-0.07-0.08-0.2-0.13-0.4-0.13h-0.2V12.31z M25.59,14.41v-3.66h0.84c0.19,0,0.36,0.02,0.5,0.05c0.14,0.03,0.26,0.08,0.36,0.16
		c0.1,0.07,0.18,0.17,0.23,0.3c0.05,0.13,0.08,0.28,0.08,0.47c0,0.23-0.03,0.42-0.1,0.56c-0.07,0.15-0.18,0.25-0.34,0.32l0.51,1.8
		h-0.67l-0.44-1.67h-0.3v1.67H25.59z"/>
	<path class="st1" d="M20.41,43.15v0.71c0,0,0,0.01,0,0.02c0,0.01,0,0.01,0,0.02c0.01,0.18,0.15,0.32,0.33,0.32c0,0,0,0,0.01,0
		c0,0,0.01,0,0.01,0h8.32c0,0,0,0,0.01,0c0,0,0,0,0.01,0c0.18,0,0.33-0.15,0.33-0.33l0,0c0,0,0,0,0,0v-0.8
		c4.68-1.54,8.19-5.33,8.96-9.96c0-0.01,0-0.02,0-0.03c0-0.02,0-0.03,0-0.05c0-0.19-0.15-0.34-0.34-0.34H11.69h-0.16
		c-0.19,0-0.34,0.15-0.34,0.34l0.02,0.15C12.03,37.86,15.63,41.68,20.41,43.15"/>
	<path class="st1" d="M29.41,21.39c-0.11,0.16-2.67,3.84,0.06,6.83c1.25,1.37,1.14,2.58,0.79,3.39H32c0.35-1.2,0.21-2.71-1.21-4.27
		c-2.01-2.2,0.03-5.17,0.06-5.21c0.24-0.34,0.11-0.78-0.28-0.98C30.16,20.94,29.65,21.05,29.41,21.39"/>
	<path class="st1" d="M24.98,31.6h1.75c0.35-1.2,0.21-2.71-1.21-4.27c-2.01-2.2,0.02-5.17,0.06-5.22c0.24-0.34,0.11-0.77-0.28-0.98
		c-0.4-0.2-0.91-0.09-1.15,0.24c-0.11,0.16-2.67,3.84,0.06,6.83C25.44,29.58,25.33,30.79,24.98,31.6"/>
	<path class="st1" d="M18.86,21.39c-0.11,0.16-2.67,3.84,0.06,6.83c1.25,1.37,1.14,2.58,0.79,3.39h1.75
		c0.35-1.2,0.21-2.71-1.21-4.27c-2.01-2.2,0.02-5.17,0.06-5.22c0.24-0.34,0.11-0.77-0.29-0.98C19.61,20.94,19.1,21.05,18.86,21.39"
		/>
</g>
</svg>
