<?xml version="1.0" encoding="utf-8"?>
<!-- Generator: Adobe Illustrator 26.5.0, SVG Export Plug-In . SVG Version: 6.00 Build 0)  -->
<svg version="1.1" id="Capa_1" xmlns="http://www.w3.org/2000/svg" xmlns:xlink="http://www.w3.org/1999/xlink" x="0px" y="0px"
	 viewBox="0 0 51.02 51.02" style="enable-background:new 0 0 51.02 51.02;" xml:space="preserve">
<style type="text/css">
	.st0{fill:#D28D0E;}
	.st1{fill:#FFFFFF;}
	.st2{fill:#FBB800;}
	.st3{fill:#931831;}
	.st4{fill:#F59D08;}
	.st5{fill:#4A7634;}
	.st6{fill:#1F3262;}
	.st7{fill:#EC6411;}
	.st8{fill:#E2071F;}
	.st9{fill:none;stroke:#FFFFFF;stroke-width:0.5939;stroke-linecap:round;stroke-miterlimit:10;}
	.st10{fill:#D6A102;}
	.st11{fill:#289438;}
	.st12{fill:#C11728;}
	.st13{fill:#E6331D;}
	.st14{fill:#DD0979;}
	.st15{fill:#0076B8;}
	.st16{fill:#3EA635;}
	.st17{fill:#004C84;}
	.st18{fill:#00A7D7;}
</style>
<g>
	<rect x="0.41" y="0.41" class="st3" width="50.2" height="50.2"/>
	<path class="st1" d="M7.58,7.15c0-0.35-0.06-0.62-0.17-0.82c-0.11-0.2-0.28-0.3-0.51-0.3c-0.23,0-0.4,0.1-0.52,0.3
		c-0.12,0.2-0.18,0.47-0.18,0.82c0,0.99,0.23,1.48,0.7,1.48C7.35,8.63,7.58,8.14,7.58,7.15 M7.53,12.71
		c0.11-0.28,0.16-0.63,0.16-1.06c0-0.47-0.05-0.85-0.16-1.12c-0.11-0.28-0.31-0.41-0.62-0.41c-0.31,0-0.51,0.14-0.62,0.42
		c-0.11,0.28-0.16,0.65-0.16,1.12c0,0.43,0.05,0.78,0.16,1.06c0.11,0.28,0.31,0.42,0.62,0.42C7.21,13.13,7.42,12.99,7.53,12.71
		 M4.34,11.58c0-0.54,0.09-1,0.28-1.39C4.81,9.8,5.09,9.5,5.46,9.32C5.17,9.1,4.94,8.82,4.75,8.46C4.57,8.1,4.48,7.66,4.48,7.15
		c0-0.79,0.21-1.4,0.63-1.84c0.42-0.44,1.02-0.66,1.8-0.66c0.78,0,1.37,0.22,1.78,0.65C9.1,5.74,9.3,6.34,9.3,7.12
		c0,0.54-0.09,0.99-0.26,1.35c-0.17,0.36-0.41,0.65-0.7,0.85C8.72,9.5,9,9.8,9.19,10.21c0.19,0.41,0.28,0.89,0.28,1.45
		c0,0.89-0.2,1.58-0.61,2.08c-0.41,0.5-1.06,0.74-1.95,0.74C5.2,14.49,4.34,13.52,4.34,11.58"/>
	<path class="st1" d="M13.73,7.96h0.19c0.07,0,0.12-0.01,0.17-0.02c0.05-0.01,0.09-0.03,0.13-0.04c0.03-0.02,0.06-0.04,0.08-0.08
		c0.02-0.04,0.04-0.07,0.05-0.1c0.01-0.03,0.02-0.08,0.03-0.14c0.01-0.06,0.01-0.12,0.01-0.16c0-0.04,0-0.11,0-0.2V5.89
		c0-0.09,0-0.16,0-0.21c0-0.05-0.01-0.11-0.02-0.16c-0.01-0.05-0.03-0.1-0.05-0.12c-0.02-0.03-0.05-0.06-0.08-0.08
		c-0.04-0.02-0.08-0.04-0.13-0.05c-0.05-0.01-0.12-0.01-0.19-0.01h-0.18V7.96z M13.06,8.43V4.77h0.85c0.22,0,0.41,0.02,0.55,0.07
		c0.15,0.04,0.27,0.11,0.36,0.21c0.09,0.1,0.15,0.21,0.19,0.35c0.04,0.14,0.06,0.31,0.06,0.51v1.32c0,0.21-0.02,0.39-0.06,0.53
		c-0.04,0.15-0.1,0.27-0.19,0.37c-0.09,0.1-0.2,0.18-0.35,0.22c-0.15,0.05-0.32,0.07-0.54,0.07H13.06z"/>
	<polygon class="st1" points="15.45,8.43 15.45,4.77 16.98,4.77 16.98,5.24 16.11,5.24 16.11,6.29 16.8,6.29 16.8,6.76 16.11,6.76 
		16.11,7.97 16.99,7.97 16.99,8.43 	"/>
	<path class="st1" d="M18.24,8.47c-0.16,0-0.3-0.02-0.42-0.06c-0.12-0.04-0.22-0.09-0.3-0.17c-0.08-0.07-0.14-0.16-0.19-0.26
		c-0.05-0.1-0.08-0.22-0.1-0.34c-0.02-0.12-0.03-0.25-0.03-0.4V5.97c0-0.16,0.01-0.3,0.03-0.42c0.02-0.12,0.05-0.24,0.1-0.34
		c0.05-0.11,0.11-0.19,0.19-0.26c0.08-0.07,0.18-0.12,0.3-0.16c0.12-0.04,0.26-0.06,0.42-0.06c0.18,0,0.34,0.02,0.47,0.07
		c0.13,0.05,0.23,0.12,0.31,0.21c0.08,0.09,0.13,0.2,0.16,0.33c0.03,0.13,0.05,0.27,0.05,0.44V6.1h-0.64V5.79
		c0-0.18-0.01-0.31-0.03-0.37c-0.04-0.12-0.13-0.19-0.28-0.2h-0.04c-0.06,0-0.1,0.01-0.15,0.02c-0.04,0.01-0.08,0.03-0.1,0.06
		c-0.03,0.03-0.05,0.06-0.06,0.09c-0.02,0.03-0.03,0.07-0.04,0.13c-0.01,0.05-0.01,0.1-0.02,0.14c0,0.04,0,0.1,0,0.17v1.55
		c0,0.21,0.03,0.37,0.08,0.46C18,7.93,18.1,7.98,18.24,7.98c0.05,0,0.09-0.01,0.12-0.02c0.04-0.01,0.07-0.02,0.09-0.04
		c0.02-0.02,0.05-0.04,0.06-0.07c0.02-0.03,0.03-0.06,0.04-0.09c0.01-0.03,0.02-0.06,0.02-0.11c0-0.05,0.01-0.09,0.01-0.12
		c0-0.03,0-0.08,0-0.14V7.06h0.64v0.3c0,0.14-0.01,0.26-0.03,0.37c-0.02,0.11-0.05,0.21-0.1,0.31c-0.05,0.1-0.11,0.17-0.18,0.24
		c-0.07,0.06-0.17,0.11-0.28,0.15C18.52,8.46,18.39,8.47,18.24,8.47"/>
	<polygon class="st1" points="19.57,8.43 19.57,4.77 21.1,4.77 21.1,5.24 20.23,5.24 20.23,6.29 20.92,6.29 20.92,6.76 20.23,6.76 
		20.23,7.97 21.11,7.97 21.11,8.43 	"/>
	<polygon class="st1" points="21.38,8.43 21.38,4.77 21.84,4.77 22.73,6.84 22.73,4.77 23.28,4.77 23.28,8.43 22.85,8.43 
		21.94,6.25 21.94,8.43 	"/>
	<polygon class="st1" points="24.07,8.43 24.07,5.26 23.46,5.26 23.46,4.77 25.33,4.77 25.33,5.26 24.74,5.26 24.74,8.43 	"/>
	<polygon class="st1" points="26.89,8.43 26.36,4.77 26.92,4.77 27.22,7.13 27.61,4.77 28.06,4.77 28.46,7.13 28.76,4.77 
		29.31,4.77 28.79,8.43 28.26,8.43 27.84,5.99 27.43,8.43 	"/>
	<path class="st1" d="M30.41,7.95c0.05,0.02,0.1,0.03,0.17,0.03c0.06,0,0.12-0.01,0.17-0.03c0.05-0.02,0.08-0.04,0.11-0.08
		c0.03-0.03,0.05-0.07,0.06-0.12c0.02-0.05,0.03-0.1,0.03-0.15c0.01-0.05,0.01-0.11,0.01-0.18V5.76c0-0.09,0-0.16-0.01-0.22
		c-0.01-0.06-0.03-0.11-0.05-0.17c-0.03-0.05-0.06-0.09-0.12-0.12c-0.05-0.03-0.12-0.04-0.2-0.04c-0.08,0-0.15,0.01-0.2,0.04
		c-0.05,0.03-0.09,0.06-0.12,0.12c-0.02,0.05-0.04,0.11-0.05,0.17C30.21,5.6,30.2,5.68,30.2,5.76v1.66c0,0.07,0,0.13,0.01,0.18
		c0.01,0.05,0.02,0.1,0.03,0.15c0.02,0.05,0.04,0.09,0.06,0.12C30.33,7.91,30.37,7.93,30.41,7.95 M30.58,8.47
		c-0.38,0-0.65-0.1-0.81-0.31c-0.16-0.2-0.25-0.5-0.25-0.9V5.92c0-0.19,0.02-0.36,0.06-0.51c0.04-0.14,0.1-0.27,0.18-0.37
		c0.08-0.1,0.19-0.18,0.33-0.23c0.14-0.05,0.3-0.08,0.49-0.08c0.38,0,0.64,0.1,0.81,0.3c0.16,0.2,0.25,0.5,0.25,0.89v1.35
		c0,0.19-0.02,0.36-0.06,0.5c-0.04,0.14-0.1,0.27-0.18,0.38c-0.08,0.11-0.19,0.19-0.33,0.24C30.94,8.45,30.77,8.47,30.58,8.47"/>
	<path class="st1" d="M32.67,6.33h0.16c0.2,0,0.34-0.04,0.42-0.13c0.08-0.08,0.12-0.23,0.12-0.43c0-0.2-0.04-0.34-0.11-0.42
		c-0.07-0.08-0.2-0.13-0.4-0.13h-0.2V6.33z M32.01,8.43V4.77h0.84c0.19,0,0.36,0.02,0.5,0.05c0.14,0.03,0.26,0.08,0.36,0.16
		c0.1,0.07,0.18,0.17,0.23,0.3c0.05,0.13,0.08,0.28,0.08,0.47c0,0.23-0.03,0.42-0.1,0.56c-0.07,0.15-0.18,0.25-0.34,0.32l0.51,1.8
		h-0.67l-0.44-1.67h-0.3v1.67H32.01z"/>
	<polygon class="st1" points="34.4,8.43 34.4,4.77 35.06,4.77 35.06,6.36 35.78,4.77 36.42,4.77 35.72,6.41 36.49,8.43 35.83,8.43 
		35.19,6.71 35.06,6.95 35.06,8.43 	"/>
	<path class="st1" d="M38.32,7.15h0.49l-0.25-1.5L38.32,7.15z M37.47,8.43l0.74-3.66h0.69l0.74,3.66h-0.62l-0.15-0.85h-0.63
		L38.1,8.43H37.47z"/>
	<polygon class="st1" points="39.89,8.43 39.89,4.77 40.35,4.77 41.24,6.84 41.24,4.77 41.8,4.77 41.8,8.43 41.36,8.43 40.45,6.25 
		40.45,8.43 	"/>
	<path class="st1" d="M42.89,7.96h0.19c0.07,0,0.12-0.01,0.17-0.02c0.05-0.01,0.09-0.03,0.13-0.04c0.03-0.02,0.06-0.04,0.08-0.08
		c0.02-0.04,0.04-0.07,0.05-0.1c0.01-0.03,0.02-0.08,0.03-0.14c0.01-0.06,0.01-0.12,0.01-0.16c0-0.04,0-0.11,0-0.2V5.89
		c0-0.09,0-0.16,0-0.21c0-0.05-0.01-0.11-0.02-0.16c-0.01-0.05-0.03-0.1-0.05-0.12c-0.02-0.03-0.05-0.06-0.08-0.08
		c-0.04-0.02-0.08-0.04-0.13-0.05c-0.05-0.01-0.12-0.01-0.19-0.01h-0.18V7.96z M42.23,8.43V4.77h0.85c0.22,0,0.41,0.02,0.55,0.07
		c0.15,0.04,0.27,0.11,0.36,0.21c0.09,0.1,0.15,0.21,0.19,0.35c0.04,0.14,0.06,0.31,0.06,0.51v1.32c0,0.21-0.02,0.39-0.06,0.53
		c-0.04,0.15-0.1,0.27-0.19,0.37c-0.09,0.1-0.2,0.18-0.35,0.22c-0.15,0.05-0.32,0.07-0.54,0.07H42.23z"/>
	<polygon class="st1" points="13.06,14.41 13.06,10.75 14.59,10.75 14.59,11.22 13.73,11.22 13.73,12.27 14.41,12.27 14.41,12.74 
		13.73,12.74 13.73,13.95 14.61,13.95 14.61,14.41 	"/>
	<path class="st1" d="M15.88,14.45c-0.16,0-0.3-0.02-0.42-0.06c-0.12-0.04-0.22-0.09-0.3-0.17c-0.08-0.07-0.14-0.16-0.19-0.26
		c-0.05-0.1-0.08-0.22-0.1-0.34c-0.02-0.12-0.03-0.25-0.03-0.4v-1.28c0-0.16,0.01-0.3,0.03-0.42c0.02-0.12,0.05-0.24,0.1-0.34
		c0.05-0.11,0.11-0.19,0.19-0.26c0.08-0.07,0.18-0.12,0.3-0.16c0.12-0.04,0.26-0.06,0.42-0.06c0.18,0,0.34,0.02,0.47,0.07
		c0.13,0.05,0.23,0.12,0.31,0.21c0.08,0.09,0.13,0.2,0.16,0.33c0.03,0.13,0.05,0.27,0.05,0.44v0.31h-0.64v-0.31
		c0-0.18-0.01-0.31-0.03-0.37c-0.04-0.12-0.13-0.19-0.28-0.2h-0.04c-0.06,0-0.1,0.01-0.15,0.02c-0.04,0.01-0.08,0.03-0.1,0.06
		c-0.03,0.03-0.05,0.06-0.06,0.09c-0.02,0.03-0.03,0.07-0.04,0.13c-0.01,0.05-0.01,0.1-0.02,0.14c0,0.04,0,0.1,0,0.17v1.55
		c0,0.21,0.03,0.37,0.08,0.46c0.05,0.09,0.15,0.14,0.29,0.14c0.05,0,0.09-0.01,0.12-0.02c0.04-0.01,0.07-0.02,0.09-0.04
		c0.02-0.02,0.05-0.04,0.06-0.07c0.02-0.03,0.03-0.06,0.04-0.09c0.01-0.03,0.02-0.06,0.02-0.11c0-0.05,0.01-0.09,0.01-0.12
		c0-0.03,0-0.08,0-0.14v-0.33h0.64v0.3c0,0.14-0.01,0.26-0.03,0.37c-0.02,0.11-0.05,0.21-0.1,0.31c-0.05,0.1-0.11,0.17-0.18,0.24
		c-0.07,0.06-0.17,0.11-0.28,0.15C16.17,14.43,16.03,14.45,15.88,14.45"/>
	<path class="st1" d="M18.07,13.93c0.05,0.02,0.1,0.03,0.17,0.03s0.12-0.01,0.17-0.03c0.05-0.02,0.08-0.04,0.11-0.08
		c0.03-0.03,0.05-0.07,0.06-0.12c0.02-0.05,0.03-0.1,0.03-0.15c0.01-0.05,0.01-0.11,0.01-0.18v-1.66c0-0.09,0-0.16-0.01-0.22
		c-0.01-0.06-0.03-0.11-0.05-0.17c-0.03-0.05-0.06-0.09-0.12-0.12c-0.05-0.03-0.12-0.04-0.2-0.04c-0.08,0-0.15,0.01-0.2,0.04
		c-0.05,0.03-0.09,0.06-0.12,0.12c-0.02,0.05-0.04,0.11-0.05,0.17c-0.01,0.06-0.01,0.13-0.01,0.22v1.66c0,0.07,0,0.13,0.01,0.18
		c0.01,0.05,0.02,0.1,0.03,0.15c0.02,0.05,0.04,0.09,0.06,0.12C17.99,13.89,18.02,13.91,18.07,13.93 M18.23,14.45
		c-0.38,0-0.65-0.1-0.81-0.31c-0.16-0.2-0.25-0.5-0.25-0.9V11.9c0-0.19,0.02-0.36,0.06-0.51c0.04-0.14,0.1-0.27,0.18-0.37
		c0.08-0.1,0.19-0.18,0.33-0.23c0.14-0.05,0.3-0.08,0.49-0.08c0.38,0,0.64,0.1,0.81,0.3c0.16,0.2,0.25,0.5,0.25,0.89v1.35
		c0,0.19-0.02,0.36-0.06,0.5c-0.04,0.14-0.1,0.27-0.18,0.38c-0.08,0.11-0.19,0.19-0.33,0.24C18.59,14.43,18.43,14.45,18.23,14.45"/>
	<polygon class="st1" points="19.69,14.41 19.69,10.75 20.15,10.75 21.04,12.82 21.04,10.75 21.59,10.75 21.59,14.41 21.16,14.41 
		20.25,12.23 20.25,14.41 	"/>
	<path class="st1" d="M22.88,13.93c0.05,0.02,0.1,0.03,0.17,0.03c0.06,0,0.12-0.01,0.17-0.03c0.05-0.02,0.08-0.04,0.11-0.08
		c0.03-0.03,0.05-0.07,0.06-0.12c0.02-0.05,0.03-0.1,0.03-0.15c0.01-0.05,0.01-0.11,0.01-0.18v-1.66c0-0.09,0-0.16-0.01-0.22
		c-0.01-0.06-0.03-0.11-0.05-0.17c-0.03-0.05-0.06-0.09-0.12-0.12c-0.05-0.03-0.12-0.04-0.2-0.04c-0.08,0-0.15,0.01-0.2,0.04
		c-0.05,0.03-0.09,0.06-0.12,0.12c-0.02,0.05-0.04,0.11-0.05,0.17c-0.01,0.06-0.01,0.13-0.01,0.22v1.66c0,0.07,0,0.13,0.01,0.18
		c0.01,0.05,0.02,0.1,0.03,0.15c0.02,0.05,0.04,0.09,0.06,0.12C22.8,13.89,22.83,13.91,22.88,13.93 M23.04,14.45
		c-0.38,0-0.65-0.1-0.81-0.31c-0.16-0.2-0.25-0.5-0.25-0.9V11.9c0-0.19,0.02-0.36,0.06-0.51c0.04-0.14,0.1-0.27,0.18-0.37
		c0.08-0.1,0.19-0.18,0.33-0.23c0.14-0.05,0.3-0.08,0.49-0.08c0.38,0,0.64,0.1,0.81,0.3c0.16,0.2,0.25,0.5,0.25,0.89v1.35
		c0,0.19-0.02,0.36-0.06,0.5c-0.04,0.14-0.1,0.27-0.18,0.38c-0.08,0.11-0.19,0.19-0.33,0.24C23.4,14.43,23.24,14.45,23.04,14.45"/>
	<polygon class="st1" points="24.49,14.41 24.55,10.75 25.23,10.75 25.76,13.32 26.31,10.75 26.98,10.75 27.04,14.41 26.54,14.41 
		26.49,11.89 25.96,14.41 25.57,14.41 25.04,11.88 25,14.41 	"/>
	<rect x="27.51" y="10.75" class="st1" width="0.66" height="3.66"/>
	<path class="st1" d="M29.62,14.45c-0.16,0-0.3-0.02-0.42-0.06c-0.12-0.04-0.22-0.09-0.3-0.17c-0.08-0.07-0.14-0.16-0.19-0.26
		c-0.05-0.1-0.08-0.22-0.1-0.34c-0.02-0.12-0.03-0.25-0.03-0.4v-1.28c0-0.16,0.01-0.3,0.03-0.42c0.02-0.12,0.05-0.24,0.1-0.34
		s0.11-0.19,0.19-0.26c0.08-0.07,0.18-0.12,0.3-0.16c0.12-0.04,0.26-0.06,0.42-0.06c0.18,0,0.34,0.02,0.47,0.07
		c0.13,0.05,0.23,0.12,0.31,0.21c0.08,0.09,0.13,0.2,0.16,0.33c0.03,0.13,0.05,0.27,0.05,0.44v0.31h-0.64v-0.31
		c0-0.18-0.01-0.31-0.03-0.37c-0.04-0.12-0.13-0.19-0.28-0.2h-0.04c-0.06,0-0.1,0.01-0.15,0.02c-0.04,0.01-0.08,0.03-0.1,0.06
		c-0.03,0.03-0.05,0.06-0.06,0.09c-0.02,0.03-0.03,0.07-0.04,0.13c-0.01,0.05-0.01,0.1-0.02,0.14c0,0.04,0,0.1,0,0.17v1.55
		c0,0.21,0.03,0.37,0.08,0.46c0.05,0.09,0.15,0.14,0.29,0.14c0.05,0,0.09-0.01,0.12-0.02c0.04-0.01,0.07-0.02,0.09-0.04
		c0.02-0.02,0.05-0.04,0.06-0.07c0.02-0.03,0.03-0.06,0.04-0.09c0.01-0.03,0.02-0.06,0.02-0.11c0-0.05,0.01-0.09,0.01-0.12
		c0-0.03,0-0.08,0-0.14v-0.33h0.64v0.3c0,0.14-0.01,0.26-0.03,0.37c-0.02,0.11-0.05,0.21-0.1,0.31c-0.05,0.1-0.11,0.17-0.18,0.24
		c-0.07,0.06-0.17,0.11-0.28,0.15C29.9,14.43,29.77,14.45,29.62,14.45"/>
	<path class="st1" d="M32.91,14.46c-0.35,0-0.59-0.11-0.75-0.32c-0.15-0.22-0.23-0.53-0.23-0.94V12c0-0.21,0.02-0.39,0.05-0.54
		c0.03-0.15,0.09-0.29,0.17-0.4c0.08-0.11,0.19-0.2,0.32-0.26c0.14-0.06,0.3-0.09,0.5-0.09c0.36,0,0.62,0.09,0.78,0.27
		c0.16,0.18,0.24,0.45,0.24,0.81v0.18h-0.64v-0.19c0-0.08,0-0.15-0.01-0.2c0-0.05-0.01-0.1-0.03-0.16
		c-0.01-0.05-0.03-0.09-0.06-0.12c-0.03-0.03-0.06-0.05-0.11-0.07s-0.1-0.03-0.17-0.03c-0.05,0-0.09,0.01-0.13,0.02
		c-0.04,0.01-0.07,0.03-0.1,0.05c-0.03,0.02-0.05,0.04-0.07,0.08c-0.02,0.03-0.03,0.07-0.04,0.1c-0.01,0.03-0.02,0.07-0.02,0.12
		c-0.01,0.05-0.01,0.09-0.01,0.13c0,0.04,0,0.09,0,0.15v1.48c0,0.22,0.03,0.38,0.08,0.48c0.05,0.1,0.16,0.15,0.31,0.15
		c0.08,0,0.15-0.01,0.2-0.05c0.05-0.03,0.1-0.08,0.13-0.14c0.03-0.06,0.05-0.13,0.06-0.21c0.01-0.08,0.02-0.17,0.02-0.29v-0.3h-0.39
		v-0.43h0.99v1.86h-0.43l-0.05-0.37C33.42,14.32,33.21,14.46,32.91,14.46"/>
	<path class="st1" d="M35.09,12.31h0.16c0.2,0,0.34-0.04,0.42-0.13c0.08-0.08,0.12-0.23,0.12-0.43c0-0.2-0.04-0.34-0.11-0.42
		c-0.07-0.08-0.2-0.13-0.4-0.13h-0.2V12.31z M34.42,14.41v-3.66h0.84c0.19,0,0.36,0.02,0.5,0.05c0.14,0.03,0.26,0.08,0.36,0.16
		c0.1,0.07,0.18,0.17,0.23,0.3s0.08,0.28,0.08,0.47c0,0.23-0.03,0.42-0.1,0.56c-0.07,0.15-0.18,0.25-0.34,0.32l0.51,1.8h-0.67
		l-0.44-1.67h-0.3v1.67H34.42z"/>
	<path class="st1" d="M37.67,13.93c0.05,0.02,0.1,0.03,0.17,0.03s0.12-0.01,0.17-0.03c0.05-0.02,0.08-0.04,0.11-0.08
		c0.03-0.03,0.05-0.07,0.06-0.12c0.02-0.05,0.03-0.1,0.03-0.15c0.01-0.05,0.01-0.11,0.01-0.18v-1.66c0-0.09,0-0.16-0.01-0.22
		c-0.01-0.06-0.03-0.11-0.05-0.17c-0.03-0.05-0.06-0.09-0.12-0.12c-0.05-0.03-0.12-0.04-0.2-0.04c-0.08,0-0.15,0.01-0.2,0.04
		c-0.05,0.03-0.09,0.06-0.12,0.12c-0.02,0.05-0.04,0.11-0.05,0.17c-0.01,0.06-0.01,0.13-0.01,0.22v1.66c0,0.07,0,0.13,0.01,0.18
		c0.01,0.05,0.02,0.1,0.03,0.15c0.02,0.05,0.04,0.09,0.06,0.12C37.58,13.89,37.62,13.91,37.67,13.93 M37.83,14.45
		c-0.38,0-0.65-0.1-0.81-0.31c-0.16-0.2-0.25-0.5-0.25-0.9V11.9c0-0.19,0.02-0.36,0.06-0.51c0.04-0.14,0.1-0.27,0.18-0.37
		c0.08-0.1,0.19-0.18,0.33-0.23c0.14-0.05,0.3-0.08,0.49-0.08c0.38,0,0.64,0.1,0.81,0.3c0.16,0.2,0.25,0.5,0.25,0.89v1.35
		c0,0.19-0.02,0.36-0.06,0.5c-0.04,0.14-0.1,0.27-0.18,0.38c-0.08,0.11-0.19,0.19-0.33,0.24C38.19,14.43,38.02,14.45,37.83,14.45"/>
	<polygon class="st1" points="39.68,14.41 39.16,10.75 39.72,10.75 40.02,13.11 40.41,10.75 40.86,10.75 41.26,13.11 41.56,10.75 
		42.11,10.75 41.58,14.41 41.05,14.41 40.64,11.97 40.23,14.41 	"/>
	<polygon class="st1" points="42.8,14.41 42.8,11.24 42.18,11.24 42.18,10.75 44.05,10.75 44.05,11.24 43.46,11.24 43.46,14.41 	"/>
	<polygon class="st1" points="44.26,14.41 44.26,10.75 44.93,10.75 44.93,12.28 45.67,12.28 45.67,10.75 46.34,10.75 46.34,14.41 
		45.67,14.41 45.67,12.75 44.93,12.75 44.93,14.41 	"/>
	<path class="st1" d="M35.08,25.11l-5.13,4.88c-0.19,0.19-0.29,0.33-0.29,0.73v13.67c0,0.16,0.13,0.29,0.29,0.29h5.3
		c0.16,0,0.29-0.13,0.29-0.29V25.23C35.54,25.07,35.42,24.77,35.08,25.11"/>
	<path class="st1" d="M20.31,31.46l-5.13,4.88c-0.19,0.19-0.29,0.33-0.29,0.73v7.32c0,0.16,0.13,0.29,0.29,0.29h5.3
		c0.16,0,0.29-0.13,0.29-0.29v-12.8C20.77,31.42,20.65,31.13,20.31,31.46"/>
	<path class="st1" d="M37.41,19.19c0-0.04-0.01-0.08-0.04-0.11c-0.03-0.03-0.06-0.04-0.09-0.04l-0.03,0l-0.04,0l-3.93,0.89
		l-0.07,0.01c-0.03,0.01-0.05,0.02-0.08,0.04c-0.06,0.06-0.06,0.15,0,0.21l0.04,0.04l0.9,0.9l-8.89,8.89l-4.11-4.11
		c-0.05-0.05-0.12-0.05-0.17,0l-1.11,1.11c0,0,0,0,0,0l-6.59,6.58c-0.05,0.05-0.05,0.12,0,0.17l1.12,1.12
		c0.05,0.05,0.12,0.05,0.17,0l6.5-6.5l2.98,2.98c0,0,0,0.01,0.01,0.01l1.11,1.11c0.05,0.05,0.12,0.05,0.17,0l10.09-10.09l0.94,0.94
		c0.06,0.06,0.15,0.06,0.21,0c0.03-0.03,0.04-0.06,0.04-0.1l0-0.01l0.86-4.01L37.41,19.19z"/>
	<path class="st1" d="M27.73,32.32l-2.48,2.5c-0.05,0.04-0.12,0.04-0.16-0.01l-2.25-2.29c-0.41-0.41-0.5-0.08-0.5,0.08v11.78
		c0,0.16,0.13,0.29,0.29,0.29h5.3c0.16,0,0.29-0.13,0.29-0.29V32.41C28.22,32.25,28.09,31.95,27.73,32.32"/>
</g>
</svg>
