<?xml version="1.0" encoding="utf-8"?>
<!-- Generator: Adobe Illustrator 26.5.0, SVG Export Plug-In . SVG Version: 6.00 Build 0)  -->
<svg version="1.1" id="Capa_1" xmlns="http://www.w3.org/2000/svg" xmlns:xlink="http://www.w3.org/1999/xlink" x="0px" y="0px"
	 viewBox="0 0 51.02 51.02" style="enable-background:new 0 0 51.02 51.02;" xml:space="preserve">
<style type="text/css">
	.st0{fill:#D28D0E;}
	.st1{fill:#FFFFFF;}
	.st2{fill:#FBB800;}
	.st3{fill:#931831;}
	.st4{fill:#F59D08;}
	.st5{fill:#4A7634;}
	.st6{fill:#1F3262;}
	.st7{fill:#EC6411;}
	.st8{fill:#E2071F;}
	.st9{fill:none;stroke:#FFFFFF;stroke-width:0.5939;stroke-linecap:round;stroke-miterlimit:10;}
	.st10{fill:#D6A102;}
	.st11{fill:#289438;}
	.st12{fill:#C11728;}
	.st13{fill:#E6331D;}
	.st14{fill:#DD0979;}
	.st15{fill:#0076B8;}
	.st16{fill:#3EA635;}
	.st17{fill:#004C84;}
	.st18{fill:#00A7D7;}
</style>
<g>
	<rect x="0.41" y="0.41" class="st15" width="50.2" height="50.2"/>
	<path class="st1" d="M4.72,6.67c-0.09,0.05-0.34,0.15-0.76,0.3C3.63,7.07,3.42,7.15,3.33,7.19V5.83c0.27-0.1,0.59-0.26,0.98-0.47
		c0.38-0.21,0.65-0.41,0.81-0.58h1.43v9.57H4.72V6.67z"/>
	<path class="st1" d="M10.23,10.7V6.63L8.78,10.7H10.23z M10.23,12.08H7.35v-1.44l2.49-5.86h2.04v5.92h0.96v1.38h-0.96v2.27h-1.65
		V12.08z"/>
	<polygon class="st1" points="16.45,8.43 16.45,4.77 17.12,4.77 17.12,7.97 18,7.97 18,8.43 	"/>
	<rect x="18.23" y="4.77" class="st1" width="0.66" height="3.66"/>
	<polygon class="st1" points="19.32,8.43 19.32,4.77 20.82,4.77 20.82,5.23 19.98,5.23 19.98,6.3 20.65,6.3 20.65,6.77 19.98,6.77 
		19.98,8.43 	"/>
	<polygon class="st1" points="21.04,8.43 21.04,4.77 22.57,4.77 22.57,5.24 21.7,5.24 21.7,6.29 22.39,6.29 22.39,6.76 21.7,6.76 
		21.7,7.97 22.58,7.97 22.58,8.43 	"/>
	<path class="st1" d="M17.12,13.94h0.24c0.2,0,0.34-0.05,0.41-0.14c0.08-0.09,0.11-0.25,0.11-0.46c0-0.22-0.04-0.38-0.13-0.48
		c-0.09-0.1-0.23-0.15-0.43-0.15h-0.21V13.94z M17.12,12.24h0.21c0.2,0,0.33-0.04,0.4-0.13c0.07-0.08,0.11-0.23,0.11-0.42
		c0-0.1-0.01-0.19-0.04-0.25c-0.02-0.06-0.07-0.11-0.12-0.14c-0.06-0.03-0.12-0.05-0.19-0.06c-0.07-0.01-0.16-0.02-0.28-0.02h-0.09
		V12.24z M16.45,14.41v-3.66h0.9c0.17,0,0.32,0.02,0.44,0.05c0.13,0.03,0.24,0.08,0.34,0.15c0.1,0.07,0.17,0.17,0.22,0.29
		c0.05,0.12,0.07,0.27,0.07,0.45c0,0.45-0.18,0.7-0.54,0.76c0.22,0.04,0.38,0.14,0.48,0.28c0.11,0.15,0.16,0.36,0.16,0.62
		c0,0.35-0.09,0.61-0.26,0.79c-0.17,0.18-0.43,0.27-0.77,0.27H16.45z"/>
	<polygon class="st1" points="18.83,14.41 18.83,10.75 20.36,10.75 20.36,11.22 19.49,11.22 19.49,12.27 20.18,12.27 20.18,12.74 
		19.49,12.74 19.49,13.95 20.37,13.95 20.37,14.41 	"/>
	<polygon class="st1" points="20.62,14.41 20.62,10.75 21.28,10.75 21.28,13.95 22.16,13.95 22.16,14.41 	"/>
	<path class="st1" d="M23.17,13.93c0.05,0.02,0.1,0.03,0.17,0.03s0.12-0.01,0.17-0.03s0.08-0.04,0.11-0.08
		c0.03-0.03,0.05-0.07,0.06-0.12s0.03-0.1,0.03-0.15c0.01-0.05,0.01-0.11,0.01-0.18v-1.66c0-0.09,0-0.16-0.01-0.22
		c-0.01-0.06-0.03-0.11-0.05-0.17c-0.03-0.05-0.06-0.09-0.12-0.12c-0.05-0.03-0.12-0.04-0.2-0.04c-0.08,0-0.15,0.01-0.2,0.04
		c-0.05,0.03-0.09,0.06-0.12,0.12c-0.02,0.05-0.04,0.11-0.05,0.17s-0.01,0.13-0.01,0.22v1.66c0,0.07,0,0.13,0.01,0.18
		c0.01,0.05,0.02,0.1,0.03,0.15c0.02,0.05,0.04,0.09,0.06,0.12C23.08,13.89,23.12,13.91,23.17,13.93 M23.33,14.45
		c-0.38,0-0.65-0.1-0.81-0.31c-0.16-0.2-0.25-0.5-0.25-0.9V11.9c0-0.19,0.02-0.36,0.06-0.51c0.04-0.14,0.1-0.27,0.18-0.37
		c0.08-0.1,0.19-0.18,0.33-0.23c0.14-0.05,0.3-0.08,0.49-0.08c0.38,0,0.64,0.1,0.81,0.3c0.16,0.2,0.25,0.5,0.25,0.89v1.35
		c0,0.19-0.02,0.36-0.06,0.5c-0.04,0.14-0.1,0.27-0.18,0.38c-0.08,0.11-0.19,0.19-0.33,0.24C23.69,14.43,23.52,14.45,23.33,14.45"/>
	<polygon class="st1" points="25.14,14.41 24.61,10.75 25.17,10.75 25.47,13.11 25.86,10.75 26.31,10.75 26.71,13.11 27.01,10.75 
		27.56,10.75 27.04,14.41 26.51,14.41 26.09,11.97 25.68,14.41 	"/>
	<polygon class="st1" points="29.21,14.41 28.69,10.75 29.25,10.75 29.55,13.11 29.94,10.75 30.39,10.75 30.79,13.11 31.09,10.75 
		31.64,10.75 31.11,14.41 30.58,14.41 30.17,11.97 29.76,14.41 	"/>
	<path class="st1" d="M32.47,13.12h0.49l-0.25-1.5L32.47,13.12z M31.62,14.41l0.74-3.66h0.69l0.74,3.66h-0.62l-0.15-0.85H32.4
		l-0.15,0.85H31.62z"/>
	<polygon class="st1" points="34.25,14.41 34.25,11.24 33.64,11.24 33.64,10.75 35.51,10.75 35.51,11.24 34.92,11.24 34.92,14.41 	
		"/>
	<polygon class="st1" points="35.67,14.41 35.67,10.75 37.2,10.75 37.2,11.22 36.33,11.22 36.33,12.27 37.02,12.27 37.02,12.74 
		36.33,12.74 36.33,13.95 37.21,13.95 37.21,14.41 	"/>
	<path class="st1" d="M38.12,12.31h0.16c0.2,0,0.34-0.04,0.42-0.13c0.08-0.08,0.12-0.23,0.12-0.43c0-0.2-0.04-0.34-0.11-0.42
		c-0.07-0.08-0.2-0.13-0.4-0.13h-0.2V12.31z M37.46,14.41v-3.66h0.84c0.19,0,0.36,0.02,0.5,0.05c0.14,0.03,0.26,0.08,0.36,0.16
		c0.1,0.07,0.18,0.17,0.23,0.3c0.05,0.13,0.08,0.28,0.08,0.47c0,0.23-0.03,0.42-0.1,0.56c-0.07,0.15-0.18,0.25-0.34,0.32l0.51,1.8
		h-0.67l-0.44-1.67h-0.3v1.67H37.46z"/>
	<path class="st1" d="M31.73,37.88c-0.93,0-1.68-0.75-1.68-1.68c0-0.93,0.75-1.68,1.68-1.68c0.93,0,1.68,0.75,1.68,1.68
		C33.41,37.12,32.66,37.88,31.73,37.88 M39.02,37.09c-0.63-0.86-4.73-6.08-10.48-6.08c-4.99,0-10.33,4.53-10.33,4.53
		s-2.01-4.11-6.11-4.5c-0.02,0-0.05-0.01-0.08-0.01h-0.03c-0.09,0-0.17,0.09-0.16,0.16c0.01,0.07,0.06,0.15,0.06,0.15
		c0.53,0.88,1.88,3.38,1.88,5.87c0,2.5-1.36,5.01-1.88,5.88l-0.04,0.06c-0.02,0.03-0.03,0.05-0.03,0.09c0,0.09,0.07,0.15,0.15,0.16
		l0.04,0c0.01,0,0.03,0,0.04,0c4.12-0.38,6.13-4.5,6.13-4.5s5.34,4.53,10.33,4.53c5.75,0,9.85-5.23,10.48-6.08
		c0.02-0.02,0.03-0.04,0.04-0.06c0.01-0.02,0.01-0.04,0.01-0.06c0-0.02-0.01-0.05-0.01-0.06C39.05,37.13,39.03,37.11,39.02,37.09"/>
	<path class="st1" d="M17.83,26.32c0.01-0.02,0.03-0.03,0.04-0.05c0.03-0.02,0.06-0.03,0.09-0.03c0.04,0,0.08,0.02,0.11,0.05
		c0,0,0,0.01,0.01,0.01c3.13,2.99,6.42,0.57,7.1,0l0.07-0.06c0.02-0.01,0.04-0.01,0.06-0.01c0.02,0,0.05,0,0.07,0.01l0.07,0.06
		c0.68,0.57,3.97,2.99,7.1,0c0,0,0,0,0.01-0.01c0.03-0.03,0.07-0.05,0.11-0.05c0.03,0,0.07,0.01,0.09,0.03
		c0.02,0.01,0.03,0.03,0.05,0.05c0.61,0.6,3.23,2.86,6.01,0.44c0.03-0.03,0.05-0.07,0.05-0.12V25.5c0-0.09-0.07-0.16-0.16-0.16
		c-0.01,0-0.02,0-0.04,0.01c-0.03,0.01-0.05,0.03-0.08,0.04c-0.85,0.43-3.5,1.44-5.9-0.83c-0.02-0.02-0.05-0.04-0.07-0.07
		c-0.02-0.01-0.04-0.02-0.07-0.02c-0.02,0-0.03,0-0.05,0.01c-0.04,0.01-0.06,0.03-0.08,0.06c-0.72,0.55-4,2.77-6.93,0.04l-0.04-0.04
		c-0.03-0.03-0.07-0.05-0.12-0.05c-0.04,0-0.09,0.02-0.11,0.05l-0.05,0.04c-2.93,2.73-6.22,0.5-6.93-0.04
		c-0.02-0.03-0.05-0.05-0.08-0.06c-0.02-0.01-0.03-0.01-0.05-0.01c-0.02,0-0.05,0-0.07,0.02c-0.02,0.02-0.05,0.04-0.07,0.07
		c-2.4,2.27-5.05,1.26-5.9,0.83c-0.03-0.01-0.06-0.03-0.08-0.04c-0.01,0-0.02-0.01-0.03-0.01c-0.09,0-0.17,0.07-0.17,0.16v1.15
		c0,0.05,0.02,0.09,0.05,0.12C14.59,29.18,17.22,26.92,17.83,26.32"/>
	<path class="st1" d="M11.96,21.18c-0.01,0-0.02-0.01-0.03-0.01c-0.09,0-0.17,0.07-0.17,0.17v1.14c0,0.05,0.02,0.09,0.05,0.12
		c2.77,2.41,5.4,0.15,6.01-0.44c0.01-0.02,0.03-0.04,0.04-0.05c0.03-0.02,0.06-0.03,0.09-0.03c0.04,0,0.08,0.02,0.11,0.04
		c0,0,0.01,0.01,0.01,0.01c3.13,2.99,6.42,0.57,7.1,0l0.07-0.06c0.02-0.01,0.04-0.01,0.06-0.01c0.02,0,0.05,0,0.07,0.01l0.07,0.06
		c0.68,0.57,3.97,2.99,7.1,0c0,0,0,0,0.01-0.01c0.03-0.03,0.07-0.04,0.11-0.04c0.03,0,0.07,0.01,0.09,0.03
		c0.02,0.01,0.03,0.03,0.05,0.05c0.61,0.6,3.23,2.86,6.01,0.44c0.03-0.03,0.05-0.07,0.05-0.12v-1.14c0-0.09-0.07-0.17-0.16-0.17
		c-0.01,0-0.02,0-0.04,0.01c-0.03,0.01-0.05,0.03-0.08,0.04c-0.85,0.43-3.5,1.44-5.9-0.83c-0.02-0.02-0.05-0.04-0.07-0.07
		c-0.02-0.01-0.04-0.02-0.07-0.02c-0.02,0-0.03,0.01-0.05,0.01c-0.04,0.01-0.06,0.04-0.08,0.07c-0.72,0.55-4,2.77-6.93,0.04
		l-0.04-0.04c-0.03-0.03-0.07-0.05-0.12-0.05c-0.04,0-0.09,0.02-0.11,0.05l-0.05,0.04c-2.93,2.73-6.22,0.51-6.93-0.04
		c-0.02-0.03-0.05-0.05-0.08-0.07c-0.02,0-0.03-0.01-0.05-0.01c-0.02,0-0.05,0.01-0.07,0.02c-0.02,0.02-0.05,0.05-0.07,0.07
		c-2.4,2.27-5.05,1.26-5.9,0.83C12.02,21.21,11.99,21.2,11.96,21.18"/>
</g>
</svg>
