<?xml version="1.0" encoding="utf-8"?>
<!-- Generator: Adobe Illustrator 26.5.0, SVG Export Plug-In . SVG Version: 6.00 Build 0)  -->
<svg version="1.1" id="Capa_1" xmlns="http://www.w3.org/2000/svg" xmlns:xlink="http://www.w3.org/1999/xlink" x="0px" y="0px"
	 viewBox="0 0 51.02 51.02" style="enable-background:new 0 0 51.02 51.02;" xml:space="preserve">
<style type="text/css">
	.st0{fill:#D28D0E;}
	.st1{fill:#FFFFFF;}
	.st2{fill:#FBB800;}
	.st3{fill:#931831;}
	.st4{fill:#F59D08;}
	.st5{fill:#4A7634;}
	.st6{fill:#1F3262;}
	.st7{fill:#EC6411;}
	.st8{fill:#E2071F;}
	.st9{fill:none;stroke:#FFFFFF;stroke-width:0.5939;stroke-linecap:round;stroke-miterlimit:10;}
	.st10{fill:#D6A102;}
	.st11{fill:#289438;}
	.st12{fill:#C11728;}
	.st13{fill:#E6331D;}
	.st14{fill:#DD0979;}
	.st15{fill:#0076B8;}
	.st16{fill:#3EA635;}
	.st17{fill:#004C84;}
	.st18{fill:#00A7D7;}
</style>
<g>
	<g>
		<rect x="0.41" y="0.41" class="st0" width="50.2" height="50.2"/>
		<path class="st1" d="M7.56,13.06l2.32-3.58l0.14-0.21c0.3-0.45,0.52-0.82,0.66-1.13c0.14-0.3,0.21-0.64,0.21-1
			c0-0.31-0.06-0.54-0.18-0.7C10.6,6.28,10.43,6.2,10.21,6.2c-0.33,0-0.56,0.13-0.69,0.38C9.4,6.83,9.34,7.17,9.34,7.61v0.44H7.56
			V7.58c0-0.9,0.21-1.61,0.63-2.13c0.42-0.52,1.08-0.79,1.98-0.79c0.83,0,1.46,0.22,1.89,0.66c0.43,0.44,0.64,1.06,0.64,1.86
			c0,0.36-0.06,0.71-0.17,1.03c-0.11,0.32-0.24,0.61-0.39,0.86c-0.15,0.25-0.38,0.61-0.7,1.08l-1.84,2.77h2.85v1.44H7.56V13.06z"/>
		<path class="st1" d="M17.05,6.33h0.16c0.2,0,0.34-0.04,0.42-0.13c0.08-0.08,0.12-0.23,0.12-0.43c0-0.2-0.04-0.34-0.11-0.42
			c-0.07-0.08-0.2-0.13-0.4-0.13h-0.2V6.33z M16.38,8.43V4.77h0.84c0.19,0,0.36,0.02,0.5,0.05c0.14,0.03,0.26,0.08,0.36,0.16
			c0.1,0.07,0.18,0.17,0.23,0.3c0.05,0.13,0.08,0.28,0.08,0.47c0,0.23-0.03,0.42-0.1,0.56c-0.07,0.15-0.18,0.25-0.34,0.32l0.51,1.8
			h-0.67l-0.44-1.67h-0.3v1.67H16.38z"/>
		<polygon class="st1" points="18.75,8.43 18.75,4.77 20.29,4.77 20.29,5.24 19.42,5.24 19.42,6.29 20.11,6.29 20.11,6.76 
			19.42,6.76 19.42,7.97 20.3,7.97 20.3,8.43 		"/>
		<path class="st1" d="M21.47,8.47c-0.64,0-0.98-0.37-1.02-1.12l0.58-0.12c0.01,0.48,0.15,0.73,0.41,0.73c0.1,0,0.18-0.03,0.23-0.09
			c0.05-0.06,0.07-0.14,0.07-0.25c0-0.1-0.02-0.19-0.06-0.28c-0.04-0.08-0.08-0.15-0.13-0.21c-0.05-0.05-0.12-0.12-0.21-0.2
			l-0.48-0.42c-0.14-0.12-0.25-0.25-0.32-0.38c-0.07-0.13-0.1-0.3-0.1-0.5c0-0.28,0.08-0.5,0.25-0.66c0.17-0.16,0.4-0.24,0.69-0.24
			c0.13,0,0.25,0.02,0.36,0.05c0.1,0.03,0.19,0.08,0.26,0.14c0.07,0.06,0.12,0.13,0.17,0.22c0.04,0.09,0.08,0.18,0.1,0.27
			c0.02,0.09,0.04,0.2,0.05,0.31l-0.57,0.11c0-0.07-0.01-0.14-0.01-0.19c-0.01-0.05-0.02-0.11-0.03-0.17
			c-0.02-0.06-0.04-0.1-0.06-0.14c-0.03-0.03-0.06-0.06-0.1-0.08c-0.04-0.02-0.09-0.03-0.15-0.02c-0.1,0.01-0.17,0.04-0.23,0.1
			c-0.05,0.06-0.08,0.14-0.08,0.24c0,0.12,0.02,0.21,0.07,0.29c0.05,0.08,0.12,0.16,0.22,0.24l0.48,0.41
			c0.08,0.07,0.15,0.14,0.21,0.21c0.06,0.07,0.11,0.14,0.17,0.23c0.05,0.09,0.09,0.18,0.12,0.29c0.03,0.1,0.04,0.21,0.04,0.33
			c0,0.27-0.08,0.48-0.25,0.65C21.96,8.39,21.74,8.47,21.47,8.47"/>
		<path class="st1" d="M23.3,6.33h0.21c0.19,0,0.32-0.04,0.38-0.11C23.97,6.14,24,6.01,24,5.81c0-0.11,0-0.2-0.01-0.26
			c-0.01-0.06-0.03-0.12-0.06-0.17c-0.03-0.05-0.08-0.09-0.14-0.11c-0.06-0.02-0.15-0.03-0.26-0.03H23.3V6.33z M22.64,8.43V4.77
			h1.05c0.62,0,0.94,0.35,0.94,1.04c0,0.34-0.09,0.59-0.26,0.75C24.2,6.72,23.96,6.8,23.65,6.8H23.3v1.63H22.64z"/>
		<path class="st1" d="M25.67,7.95c0.05,0.02,0.1,0.03,0.17,0.03s0.12-0.01,0.17-0.03c0.05-0.02,0.08-0.04,0.11-0.08
			c0.03-0.03,0.05-0.07,0.06-0.12c0.01-0.05,0.03-0.1,0.03-0.15c0.01-0.05,0.01-0.11,0.01-0.18V5.76c0-0.09,0-0.16-0.01-0.22
			c-0.01-0.06-0.03-0.11-0.05-0.17c-0.03-0.05-0.06-0.09-0.12-0.12c-0.05-0.03-0.12-0.04-0.2-0.04c-0.08,0-0.15,0.01-0.2,0.04
			c-0.05,0.03-0.09,0.06-0.12,0.12c-0.03,0.05-0.04,0.11-0.05,0.17c-0.01,0.06-0.01,0.13-0.01,0.22v1.66c0,0.07,0,0.13,0.01,0.18
			c0.01,0.05,0.02,0.1,0.03,0.15c0.02,0.05,0.04,0.09,0.06,0.12C25.59,7.91,25.63,7.93,25.67,7.95 M25.84,8.47
			c-0.38,0-0.65-0.1-0.81-0.31c-0.16-0.2-0.24-0.5-0.24-0.9V5.92c0-0.19,0.02-0.36,0.05-0.51c0.04-0.14,0.1-0.27,0.18-0.37
			c0.08-0.1,0.19-0.18,0.33-0.23c0.14-0.05,0.3-0.08,0.49-0.08c0.38,0,0.64,0.1,0.81,0.3c0.16,0.2,0.25,0.5,0.25,0.89v1.35
			c0,0.19-0.02,0.36-0.06,0.5c-0.04,0.14-0.1,0.27-0.18,0.38c-0.08,0.11-0.19,0.19-0.33,0.24C26.2,8.45,26.03,8.47,25.84,8.47"/>
		<polygon class="st1" points="27.25,8.43 27.25,4.77 27.71,4.77 28.6,6.84 28.6,4.77 29.15,4.77 29.15,8.43 28.72,8.43 27.81,6.25 
			27.81,8.43 		"/>
		<path class="st1" d="M30.49,8.47c-0.64,0-0.98-0.37-1.02-1.12l0.58-0.12c0.01,0.48,0.15,0.73,0.41,0.73c0.1,0,0.18-0.03,0.23-0.09
			c0.05-0.06,0.07-0.14,0.07-0.25c0-0.1-0.02-0.19-0.06-0.28c-0.04-0.08-0.08-0.15-0.13-0.21c-0.05-0.05-0.12-0.12-0.21-0.2
			L29.9,6.52c-0.14-0.12-0.25-0.25-0.32-0.38c-0.07-0.13-0.1-0.3-0.1-0.5c0-0.28,0.08-0.5,0.25-0.66c0.17-0.16,0.4-0.24,0.69-0.24
			c0.13,0,0.25,0.02,0.36,0.05c0.1,0.03,0.19,0.08,0.26,0.14c0.07,0.06,0.12,0.13,0.17,0.22c0.04,0.09,0.08,0.18,0.1,0.27
			c0.02,0.09,0.04,0.2,0.05,0.31l-0.57,0.11c0-0.07-0.01-0.14-0.01-0.19c-0.01-0.05-0.02-0.11-0.03-0.17
			c-0.02-0.06-0.04-0.1-0.06-0.14c-0.03-0.03-0.06-0.06-0.1-0.08c-0.04-0.02-0.09-0.03-0.15-0.02c-0.1,0.01-0.17,0.04-0.23,0.1
			c-0.05,0.06-0.08,0.14-0.08,0.24c0,0.12,0.02,0.21,0.07,0.29c0.05,0.08,0.12,0.16,0.22,0.24l0.48,0.41
			c0.08,0.07,0.15,0.14,0.21,0.21c0.06,0.07,0.11,0.14,0.17,0.23c0.05,0.09,0.09,0.18,0.12,0.29c0.03,0.1,0.04,0.21,0.04,0.33
			c0,0.27-0.08,0.48-0.25,0.65C30.98,8.39,30.76,8.47,30.49,8.47"/>
		<rect x="31.68" y="4.77" class="st1" width="0.66" height="3.66"/>
		<path class="st1" d="M33.43,7.96h0.24c0.2,0,0.34-0.05,0.41-0.14c0.08-0.09,0.11-0.25,0.11-0.46c0-0.22-0.04-0.38-0.13-0.48
			c-0.09-0.1-0.23-0.15-0.43-0.15h-0.21V7.96z M33.43,6.26h0.21c0.2,0,0.33-0.04,0.4-0.13c0.07-0.08,0.11-0.23,0.11-0.42
			c0-0.1-0.01-0.19-0.04-0.25c-0.02-0.06-0.07-0.11-0.12-0.14c-0.06-0.03-0.12-0.05-0.19-0.06c-0.07-0.01-0.16-0.02-0.28-0.02h-0.09
			V6.26z M32.76,8.43V4.77h0.9c0.17,0,0.32,0.01,0.44,0.05c0.13,0.03,0.24,0.08,0.34,0.15c0.1,0.07,0.17,0.17,0.22,0.29
			c0.05,0.12,0.07,0.27,0.07,0.45c0,0.45-0.18,0.7-0.54,0.76c0.22,0.04,0.38,0.14,0.48,0.28c0.11,0.15,0.16,0.36,0.16,0.62
			c0,0.35-0.09,0.61-0.26,0.79c-0.18,0.18-0.43,0.27-0.77,0.27H32.76z"/>
		<polygon class="st1" points="35.14,8.43 35.14,4.77 35.8,4.77 35.8,7.97 36.68,7.97 36.68,8.43 		"/>
		<polygon class="st1" points="36.9,8.43 36.9,4.77 38.43,4.77 38.43,5.24 37.56,5.24 37.56,6.29 38.25,6.29 38.25,6.76 37.56,6.76 
			37.56,7.97 38.44,7.97 38.44,8.43 		"/>
		<path class="st1" d="M17.37,14.45c-0.16,0-0.3-0.02-0.42-0.06s-0.22-0.09-0.3-0.17c-0.08-0.07-0.14-0.16-0.19-0.26
			c-0.05-0.1-0.08-0.22-0.1-0.34c-0.02-0.12-0.03-0.25-0.03-0.4v-1.28c0-0.16,0.01-0.3,0.03-0.42c0.02-0.12,0.05-0.24,0.1-0.34
			c0.05-0.11,0.11-0.19,0.19-0.26c0.08-0.07,0.18-0.12,0.3-0.16c0.12-0.04,0.26-0.06,0.42-0.06c0.18,0,0.34,0.02,0.47,0.07
			c0.13,0.05,0.23,0.12,0.31,0.21c0.08,0.09,0.13,0.2,0.16,0.33c0.03,0.13,0.05,0.27,0.05,0.44v0.31h-0.64v-0.31
			c0-0.18-0.01-0.31-0.03-0.37c-0.04-0.12-0.13-0.19-0.28-0.2h-0.04c-0.06,0-0.1,0.01-0.15,0.02c-0.04,0.01-0.08,0.03-0.1,0.06
			c-0.03,0.03-0.05,0.06-0.06,0.09c-0.02,0.03-0.03,0.07-0.04,0.13c-0.01,0.05-0.01,0.1-0.01,0.14c0,0.04,0,0.1,0,0.17v1.55
			c0,0.21,0.03,0.37,0.08,0.46c0.05,0.09,0.15,0.14,0.29,0.14c0.05,0,0.09-0.01,0.12-0.02c0.04-0.01,0.07-0.02,0.09-0.04
			c0.02-0.02,0.04-0.04,0.06-0.07c0.02-0.03,0.03-0.06,0.04-0.09c0.01-0.03,0.02-0.06,0.02-0.11c0-0.05,0.01-0.09,0.01-0.12
			c0-0.03,0-0.08,0-0.14v-0.33h0.64v0.3c0,0.14-0.01,0.26-0.03,0.37c-0.02,0.11-0.05,0.21-0.1,0.31c-0.05,0.1-0.11,0.17-0.18,0.24
			c-0.07,0.06-0.17,0.11-0.28,0.15C17.65,14.43,17.52,14.45,17.37,14.45"/>
		<path class="st1" d="M19.51,13.93c0.05,0.02,0.1,0.03,0.17,0.03s0.12-0.01,0.17-0.03c0.05-0.02,0.08-0.04,0.11-0.08
			c0.03-0.03,0.05-0.07,0.06-0.12c0.01-0.05,0.03-0.1,0.03-0.15c0.01-0.05,0.01-0.11,0.01-0.18v-1.66c0-0.09,0-0.16-0.01-0.22
			c-0.01-0.06-0.03-0.11-0.05-0.17c-0.03-0.05-0.06-0.09-0.12-0.12c-0.05-0.03-0.12-0.04-0.2-0.04c-0.08,0-0.15,0.01-0.2,0.04
			c-0.05,0.03-0.09,0.06-0.12,0.12c-0.03,0.05-0.04,0.11-0.05,0.17c-0.01,0.06-0.01,0.13-0.01,0.22v1.66c0,0.07,0,0.13,0.01,0.18
			c0.01,0.05,0.02,0.1,0.03,0.15c0.02,0.05,0.04,0.09,0.06,0.12C19.43,13.89,19.46,13.91,19.51,13.93 M19.67,14.45
			c-0.38,0-0.65-0.1-0.81-0.31c-0.16-0.2-0.24-0.5-0.24-0.9V11.9c0-0.19,0.02-0.36,0.05-0.51c0.04-0.14,0.1-0.27,0.18-0.37
			c0.08-0.1,0.19-0.18,0.33-0.23c0.14-0.05,0.3-0.08,0.49-0.08c0.38,0,0.64,0.1,0.81,0.3c0.16,0.2,0.25,0.5,0.25,0.89v1.35
			c0,0.19-0.02,0.36-0.06,0.5c-0.04,0.14-0.1,0.27-0.18,0.38c-0.08,0.11-0.19,0.19-0.33,0.24C20.03,14.43,19.87,14.45,19.67,14.45"
			/>
		<polygon class="st1" points="21.08,14.41 21.08,10.75 21.54,10.75 22.44,12.82 22.44,10.75 22.99,10.75 22.99,14.41 22.55,14.41 
			21.65,12.23 21.65,14.41 		"/>
		<path class="st1" d="M24.32,14.45c-0.64,0-0.98-0.37-1.02-1.12l0.58-0.12c0.01,0.48,0.15,0.73,0.41,0.73
			c0.1,0,0.18-0.03,0.23-0.09c0.05-0.06,0.07-0.14,0.07-0.25c0-0.1-0.02-0.19-0.06-0.28c-0.04-0.08-0.08-0.15-0.13-0.21
			c-0.05-0.05-0.12-0.12-0.21-0.2l-0.48-0.42c-0.14-0.12-0.25-0.25-0.32-0.38c-0.07-0.13-0.1-0.3-0.1-0.5c0-0.28,0.08-0.5,0.25-0.66
			c0.17-0.16,0.4-0.24,0.69-0.24c0.13,0,0.25,0.02,0.36,0.05c0.1,0.03,0.19,0.08,0.26,0.14c0.07,0.06,0.12,0.13,0.17,0.22
			c0.04,0.09,0.08,0.18,0.1,0.27c0.02,0.09,0.04,0.2,0.05,0.31l-0.57,0.11c0-0.07-0.01-0.14-0.01-0.19
			c-0.01-0.05-0.02-0.11-0.03-0.17s-0.04-0.1-0.06-0.14c-0.03-0.03-0.06-0.06-0.1-0.08c-0.04-0.02-0.09-0.03-0.15-0.02
			c-0.1,0.01-0.17,0.04-0.23,0.1c-0.05,0.06-0.08,0.14-0.08,0.24c0,0.12,0.02,0.21,0.07,0.29c0.05,0.08,0.12,0.16,0.22,0.24
			l0.48,0.41c0.08,0.07,0.15,0.14,0.21,0.21c0.06,0.07,0.11,0.14,0.17,0.23c0.05,0.09,0.09,0.18,0.12,0.29
			c0.03,0.1,0.04,0.21,0.04,0.33c0,0.27-0.08,0.48-0.25,0.65C24.82,14.37,24.6,14.45,24.32,14.45"/>
		<path class="st1" d="M26.49,14.45c-0.16,0-0.3-0.02-0.42-0.06c-0.12-0.04-0.22-0.09-0.3-0.16c-0.08-0.07-0.14-0.16-0.19-0.27
			c-0.05-0.11-0.08-0.23-0.1-0.35c-0.02-0.13-0.03-0.27-0.03-0.44v-2.43h0.65v2.5c0,0.09,0,0.16,0.01,0.22
			c0,0.06,0.01,0.12,0.03,0.19c0.01,0.07,0.04,0.12,0.06,0.16c0.03,0.04,0.06,0.07,0.11,0.1c0.05,0.03,0.11,0.04,0.17,0.04
			c0.07,0,0.13-0.01,0.17-0.04c0.05-0.03,0.08-0.06,0.11-0.1c0.03-0.04,0.05-0.09,0.06-0.16c0.02-0.07,0.02-0.13,0.03-0.19
			c0-0.06,0.01-0.13,0.01-0.22v-2.5h0.65v2.43c0,0.17-0.01,0.31-0.03,0.44c-0.02,0.13-0.05,0.24-0.1,0.35
			c-0.05,0.11-0.11,0.2-0.18,0.27c-0.08,0.07-0.17,0.12-0.29,0.16C26.8,14.43,26.66,14.45,26.49,14.45"/>
		<polygon class="st1" points="27.9,14.41 27.96,10.75 28.64,10.75 29.17,13.32 29.71,10.75 30.38,10.75 30.44,14.41 29.94,14.41 
			29.9,11.89 29.37,14.41 28.98,14.41 28.45,11.88 28.41,14.41 		"/>
		<path class="st1" d="M31.52,12.31h0.21c0.19,0,0.32-0.04,0.38-0.11c0.07-0.07,0.1-0.21,0.1-0.41c0-0.11,0-0.2-0.01-0.26
			c-0.01-0.06-0.03-0.12-0.06-0.17c-0.03-0.05-0.08-0.09-0.14-0.11c-0.06-0.02-0.15-0.03-0.26-0.03h-0.22V12.31z M30.85,14.41v-3.66
			h1.05c0.62,0,0.94,0.35,0.94,1.04c0,0.34-0.09,0.59-0.26,0.75c-0.17,0.16-0.41,0.24-0.72,0.24h-0.34v1.63H30.85z"/>
		<polygon class="st1" points="33.41,14.41 33.41,11.24 32.8,11.24 32.8,10.75 34.67,10.75 34.67,11.24 34.08,11.24 34.08,14.41 		
			"/>
		<rect x="34.85" y="10.75" class="st1" width="0.66" height="3.66"/>
		<path class="st1" d="M36.76,13.93c0.05,0.02,0.1,0.03,0.17,0.03s0.12-0.01,0.17-0.03c0.05-0.02,0.08-0.04,0.11-0.08
			c0.03-0.03,0.05-0.07,0.06-0.12c0.01-0.05,0.03-0.1,0.03-0.15c0.01-0.05,0.01-0.11,0.01-0.18v-1.66c0-0.09,0-0.16-0.01-0.22
			c-0.01-0.06-0.03-0.11-0.05-0.17c-0.03-0.05-0.06-0.09-0.12-0.12c-0.05-0.03-0.12-0.04-0.2-0.04c-0.08,0-0.15,0.01-0.2,0.04
			c-0.05,0.03-0.09,0.06-0.12,0.12c-0.03,0.05-0.04,0.11-0.05,0.17c-0.01,0.06-0.01,0.13-0.01,0.22v1.66c0,0.07,0,0.13,0.01,0.18
			c0.01,0.05,0.02,0.1,0.03,0.15c0.02,0.05,0.04,0.09,0.06,0.12C36.68,13.89,36.72,13.91,36.76,13.93 M36.93,14.45
			c-0.38,0-0.65-0.1-0.81-0.31c-0.16-0.2-0.24-0.5-0.24-0.9V11.9c0-0.19,0.02-0.36,0.05-0.51c0.04-0.14,0.1-0.27,0.18-0.37
			c0.08-0.1,0.19-0.18,0.33-0.23c0.14-0.05,0.3-0.08,0.49-0.08c0.38,0,0.64,0.1,0.81,0.3c0.16,0.2,0.25,0.5,0.25,0.89v1.35
			c0,0.19-0.02,0.36-0.06,0.5c-0.04,0.14-0.1,0.27-0.18,0.38c-0.08,0.11-0.19,0.19-0.33,0.24C37.29,14.43,37.12,14.45,36.93,14.45"
			/>
		<polygon class="st1" points="38.34,14.41 38.34,10.75 38.8,10.75 39.69,12.82 39.69,10.75 40.24,10.75 40.24,14.41 39.81,14.41 
			38.9,12.23 38.9,14.41 		"/>
		<path class="st1" d="M17.04,19.1h0.49l-0.25-1.5L17.04,19.1z M16.19,20.39l0.74-3.66h0.7l0.74,3.66h-0.62l-0.15-0.85h-0.63
			l-0.15,0.85H16.19z"/>
		<polygon class="st1" points="18.6,20.39 18.6,16.73 19.06,16.73 19.95,18.8 19.95,16.73 20.5,16.73 20.5,20.39 20.07,20.39 
			19.16,18.21 19.16,20.39 		"/>
		<path class="st1" d="M21.58,19.92h0.19c0.07,0,0.12-0.01,0.17-0.02c0.05-0.01,0.09-0.03,0.13-0.04c0.03-0.02,0.06-0.04,0.09-0.08
			c0.02-0.04,0.04-0.07,0.05-0.1c0.01-0.03,0.02-0.08,0.03-0.14c0.01-0.06,0.01-0.12,0.01-0.16c0-0.04,0-0.11,0-0.2v-1.34
			c0-0.09,0-0.16,0-0.21c0-0.05-0.01-0.11-0.02-0.16c-0.01-0.05-0.03-0.1-0.05-0.12c-0.02-0.03-0.05-0.06-0.08-0.08
			c-0.04-0.02-0.08-0.04-0.13-0.05c-0.05-0.01-0.12-0.01-0.19-0.01h-0.18V19.92z M20.92,20.39v-3.66h0.85
			c0.22,0,0.41,0.02,0.55,0.07c0.15,0.04,0.27,0.11,0.36,0.21c0.09,0.1,0.15,0.21,0.19,0.35c0.04,0.14,0.06,0.31,0.06,0.51v1.32
			c0,0.21-0.02,0.39-0.06,0.53c-0.04,0.15-0.1,0.27-0.19,0.37c-0.09,0.1-0.2,0.18-0.35,0.22c-0.15,0.05-0.32,0.07-0.54,0.07H20.92z"
			/>
		<path class="st1" d="M24.91,18.28h0.21c0.19,0,0.32-0.04,0.38-0.11c0.07-0.07,0.1-0.21,0.1-0.41c0-0.11,0-0.2-0.01-0.26
			c-0.01-0.06-0.03-0.12-0.06-0.17c-0.03-0.05-0.08-0.09-0.14-0.11c-0.06-0.02-0.15-0.03-0.26-0.03h-0.22V18.28z M24.25,20.39v-3.66
			h1.05c0.62,0,0.94,0.35,0.94,1.04c0,0.34-0.09,0.59-0.26,0.75c-0.17,0.16-0.41,0.24-0.72,0.24h-0.34v1.63H24.25z"/>
		<path class="st1" d="M27.12,18.29h0.16c0.2,0,0.34-0.04,0.42-0.13c0.08-0.08,0.12-0.23,0.12-0.43c0-0.2-0.04-0.34-0.11-0.42
			c-0.07-0.08-0.2-0.13-0.4-0.13h-0.2V18.29z M26.46,20.39v-3.66h0.84c0.19,0,0.36,0.02,0.5,0.05c0.14,0.03,0.26,0.08,0.36,0.16
			c0.1,0.07,0.18,0.17,0.23,0.3c0.05,0.13,0.08,0.28,0.08,0.47c0,0.23-0.03,0.42-0.1,0.56c-0.07,0.15-0.18,0.25-0.34,0.32l0.51,1.8
			h-0.67l-0.44-1.67h-0.3v1.67H26.46z"/>
		<path class="st1" d="M29.66,19.91c0.05,0.02,0.1,0.03,0.17,0.03s0.12-0.01,0.17-0.03c0.05-0.02,0.08-0.04,0.11-0.08
			c0.03-0.03,0.05-0.07,0.06-0.12c0.01-0.05,0.03-0.1,0.03-0.15c0.01-0.05,0.01-0.11,0.01-0.18v-1.66c0-0.09,0-0.16-0.01-0.22
			c-0.01-0.06-0.03-0.11-0.05-0.17c-0.03-0.05-0.06-0.09-0.12-0.12c-0.05-0.03-0.12-0.04-0.2-0.04c-0.08,0-0.15,0.01-0.2,0.04
			c-0.05,0.03-0.09,0.06-0.12,0.12c-0.03,0.05-0.04,0.11-0.05,0.17c-0.01,0.06-0.01,0.13-0.01,0.22v1.66c0,0.07,0,0.13,0.01,0.18
			c0.01,0.05,0.02,0.1,0.03,0.15c0.02,0.05,0.04,0.09,0.06,0.12C29.57,19.86,29.61,19.89,29.66,19.91 M29.82,20.43
			c-0.38,0-0.65-0.1-0.81-0.31c-0.16-0.2-0.24-0.5-0.24-0.9v-1.35c0-0.19,0.02-0.36,0.05-0.51c0.04-0.14,0.1-0.27,0.18-0.37
			c0.08-0.1,0.19-0.18,0.33-0.23c0.14-0.05,0.3-0.08,0.49-0.08c0.38,0,0.64,0.1,0.81,0.3c0.16,0.2,0.25,0.5,0.25,0.89v1.35
			c0,0.19-0.02,0.36-0.06,0.5c-0.04,0.14-0.1,0.27-0.18,0.38c-0.08,0.11-0.19,0.19-0.33,0.24C30.18,20.4,30.01,20.43,29.82,20.43"/>
		<path class="st1" d="M31.89,19.92h0.19c0.07,0,0.12-0.01,0.17-0.02c0.05-0.01,0.09-0.03,0.13-0.04c0.03-0.02,0.06-0.04,0.09-0.08
			c0.02-0.04,0.04-0.07,0.05-0.1c0.01-0.03,0.02-0.08,0.03-0.14c0.01-0.06,0.01-0.12,0.01-0.16c0-0.04,0-0.11,0-0.2v-1.34
			c0-0.09,0-0.16,0-0.21c0-0.05-0.01-0.11-0.02-0.16c-0.01-0.05-0.03-0.1-0.05-0.12s-0.05-0.06-0.08-0.08
			c-0.04-0.02-0.08-0.04-0.13-0.05c-0.05-0.01-0.12-0.01-0.19-0.01h-0.18V19.92z M31.23,20.39v-3.66h0.85
			c0.22,0,0.41,0.02,0.55,0.07c0.15,0.04,0.27,0.11,0.36,0.21c0.09,0.1,0.15,0.21,0.19,0.35c0.04,0.14,0.06,0.31,0.06,0.51v1.32
			c0,0.21-0.02,0.39-0.06,0.53c-0.04,0.15-0.1,0.27-0.19,0.37c-0.09,0.1-0.2,0.18-0.35,0.22c-0.15,0.05-0.32,0.07-0.54,0.07H31.23z"
			/>
		<path class="st1" d="M34.59,20.43c-0.16,0-0.3-0.02-0.42-0.06s-0.22-0.09-0.3-0.16c-0.08-0.07-0.14-0.16-0.19-0.27
			c-0.05-0.11-0.08-0.23-0.1-0.35c-0.02-0.13-0.03-0.27-0.03-0.44v-2.43h0.65v2.5c0,0.09,0,0.16,0.01,0.22
			c0,0.06,0.01,0.12,0.03,0.19c0.01,0.07,0.04,0.12,0.06,0.16c0.03,0.04,0.06,0.07,0.11,0.1c0.05,0.03,0.11,0.04,0.17,0.04
			c0.07,0,0.13-0.01,0.17-0.04c0.05-0.03,0.08-0.06,0.11-0.1c0.03-0.04,0.05-0.09,0.06-0.16c0.02-0.07,0.02-0.13,0.03-0.19
			c0-0.06,0.01-0.13,0.01-0.22v-2.5h0.65v2.43c0,0.17-0.01,0.31-0.03,0.44c-0.02,0.13-0.05,0.24-0.1,0.35
			c-0.05,0.11-0.11,0.2-0.18,0.27s-0.17,0.12-0.29,0.16C34.9,20.41,34.76,20.43,34.59,20.43"/>
		<path class="st1" d="M36.99,20.43c-0.16,0-0.3-0.02-0.42-0.06c-0.12-0.04-0.22-0.09-0.3-0.17c-0.08-0.07-0.14-0.16-0.19-0.26
			c-0.05-0.1-0.08-0.22-0.1-0.34c-0.02-0.12-0.03-0.25-0.03-0.4v-1.28c0-0.16,0.01-0.3,0.03-0.42c0.02-0.12,0.05-0.24,0.1-0.34
			c0.05-0.11,0.11-0.19,0.19-0.26c0.08-0.07,0.18-0.12,0.3-0.16c0.12-0.04,0.26-0.06,0.42-0.06c0.18,0,0.34,0.02,0.47,0.07
			c0.13,0.05,0.23,0.12,0.31,0.21c0.08,0.09,0.13,0.2,0.16,0.33c0.03,0.13,0.05,0.27,0.05,0.44v0.31h-0.64v-0.31
			c0-0.18-0.01-0.31-0.03-0.37c-0.04-0.12-0.13-0.19-0.28-0.2h-0.04c-0.06,0-0.1,0.01-0.15,0.02c-0.04,0.01-0.08,0.03-0.1,0.06
			c-0.03,0.03-0.05,0.06-0.06,0.09c-0.02,0.03-0.03,0.07-0.04,0.13c-0.01,0.05-0.01,0.1-0.01,0.14c0,0.04,0,0.1,0,0.17v1.55
			c0,0.21,0.03,0.37,0.08,0.46c0.05,0.09,0.15,0.14,0.29,0.14c0.05,0,0.09-0.01,0.12-0.02c0.04-0.01,0.07-0.02,0.09-0.04
			c0.02-0.02,0.04-0.04,0.06-0.07c0.02-0.03,0.03-0.06,0.04-0.09c0.01-0.03,0.02-0.06,0.02-0.11c0-0.05,0.01-0.09,0.01-0.12
			c0-0.03,0-0.08,0-0.14v-0.33h0.64v0.3c0,0.14-0.01,0.26-0.03,0.37c-0.02,0.11-0.05,0.21-0.1,0.31c-0.05,0.1-0.11,0.17-0.18,0.24
			c-0.07,0.06-0.17,0.11-0.28,0.15C37.27,20.41,37.14,20.43,36.99,20.43"/>
		<polygon class="st1" points="38.66,20.39 38.66,17.22 38.04,17.22 38.04,16.73 39.92,16.73 39.92,17.22 39.32,17.22 39.32,20.39 
					"/>
		<rect x="40.09" y="16.73" class="st1" width="0.66" height="3.66"/>
		<path class="st1" d="M42,19.91c0.05,0.02,0.1,0.03,0.17,0.03s0.12-0.01,0.17-0.03c0.05-0.02,0.08-0.04,0.11-0.08
			c0.03-0.03,0.05-0.07,0.06-0.12c0.01-0.05,0.03-0.1,0.03-0.15c0.01-0.05,0.01-0.11,0.01-0.18v-1.66c0-0.09,0-0.16-0.01-0.22
			c-0.01-0.06-0.03-0.11-0.05-0.17c-0.03-0.05-0.06-0.09-0.12-0.12c-0.05-0.03-0.12-0.04-0.2-0.04c-0.08,0-0.15,0.01-0.2,0.04
			c-0.05,0.03-0.09,0.06-0.12,0.12c-0.02,0.05-0.04,0.11-0.05,0.17c-0.01,0.06-0.01,0.13-0.01,0.22v1.66c0,0.07,0,0.13,0.01,0.18
			c0.01,0.05,0.02,0.1,0.03,0.15c0.02,0.05,0.04,0.09,0.06,0.12C41.92,19.86,41.96,19.89,42,19.91 M42.17,20.43
			c-0.38,0-0.65-0.1-0.81-0.31c-0.16-0.2-0.24-0.5-0.24-0.9v-1.35c0-0.19,0.02-0.36,0.05-0.51c0.04-0.14,0.1-0.27,0.18-0.37
			c0.08-0.1,0.19-0.18,0.33-0.23c0.14-0.05,0.3-0.08,0.49-0.08c0.38,0,0.64,0.1,0.81,0.3c0.16,0.2,0.25,0.5,0.25,0.89v1.35
			c0,0.19-0.02,0.36-0.06,0.5c-0.04,0.14-0.1,0.27-0.18,0.38c-0.08,0.11-0.19,0.19-0.33,0.24C42.53,20.4,42.36,20.43,42.17,20.43"/>
		<polygon class="st1" points="43.58,20.39 43.58,16.73 44.04,16.73 44.93,18.8 44.93,16.73 45.48,16.73 45.48,20.39 45.05,20.39 
			44.14,18.21 44.14,20.39 		"/>
		<path class="st1" d="M38.31,26.46c-2.23-1.76-5.18-1.8-6.26-1.54l-0.13,0.03c-1.25,0.29-3.23,0.78-5.55,3.66
			c-0.01,0.02-0.03,0.03-0.04,0.05l-0.03,0.04c-0.02,0.03-0.04,0.07-0.04,0.11c0,0.03,0.01,0.07,0.03,0.1L26.35,29
			c0.29,0.49,0.66,1.11,0.97,1.69c0,0.01,0.01,0.01,0.01,0.02c0.03,0.06,0.1,0.11,0.18,0.11c0.05,0,0.1-0.02,0.14-0.06
			c0.01-0.02,0.03-0.04,0.04-0.06c2.06-2.85,3.68-3.24,4.77-3.5l0.13-0.03c0.57-0.14,2.73-0.13,4.29,1.1
			c1.22,0.96,1.84,2.49,1.84,4.55c0,3.45-1.68,4.8-3.09,5.32c-2.18,0.82-4.27-0.27-4.29-0.28l-0.09-0.05
			c-1.2-0.52-2.99-1.6-4.67-4.99c-3.4-6.82-6.24-7.46-8.11-7.89l-0.1-0.02c-0.86-0.19-3.83-0.33-6.16,1.53
			c-1.22,0.97-2.67,2.87-2.67,6.35c0,2.12,0.44,3.53,1.56,5c0.25,0.34,2.76,3.57,7.62,2.63c0.78-0.15,1.83-0.52,2.99-1.39l1.07,0.96
			c0.07,0.06,0.18,0.06,0.25-0.01c0.03-0.03,0.04-0.07,0.04-0.12v-0.01l0.77-4.75l0-0.05c0-0.05-0.02-0.09-0.06-0.13
			c-0.03-0.03-0.07-0.04-0.11-0.04l-0.03,0l-0.05,0.01l-4.55,1.27l-0.08,0.01c-0.03,0.01-0.06,0.02-0.09,0.05
			c-0.07,0.07-0.06,0.18,0.01,0.25l0.05,0.05l1.02,0.92c-0.66,0.43-1.23,0.62-1.67,0.71c-3.52,0.67-5.25-1.63-5.32-1.72l-0.02-0.03
			c-0.82-1.07-1.09-1.98-1.09-3.61c0-2.06,0.61-3.59,1.81-4.55c1.52-1.21,3.62-1.22,4.21-1.09l0.1,0.02
			c1.54,0.35,3.65,0.83,6.56,6.66c1.51,3.03,3.4,5.01,5.78,6.06c0.3,0.15,1.75,0.84,3.62,0.84c0.78,0,1.64-0.12,2.52-0.45
			c1.38-0.51,4.59-2.27,4.59-7.49C41.02,29.34,39.55,27.44,38.31,26.46"/>
	</g>
	<path class="st1" d="M4.72,6.67c-0.09,0.05-0.34,0.15-0.76,0.3C3.63,7.07,3.42,7.15,3.33,7.19V5.83c0.27-0.1,0.59-0.26,0.97-0.47
		c0.38-0.21,0.65-0.41,0.81-0.58h1.43v9.57H4.72V6.67z"/>
</g>
</svg>
