<?xml version="1.0" encoding="utf-8"?>
<!-- Generator: Adobe Illustrator 26.5.0, SVG Export Plug-In . SVG Version: 6.00 Build 0)  -->
<svg version="1.1" id="Capa_1" xmlns="http://www.w3.org/2000/svg" xmlns:xlink="http://www.w3.org/1999/xlink" x="0px" y="0px"
	 viewBox="0 0 51.02 51.02" style="enable-background:new 0 0 51.02 51.02;" xml:space="preserve">
<style type="text/css">
	.st0{fill:#D28D0E;}
	.st1{fill:#FFFFFF;}
	.st2{fill:#FBB800;}
	.st3{fill:#931831;}
	.st4{fill:#F59D08;}
	.st5{fill:#4A7634;}
	.st6{fill:#1F3262;}
	.st7{fill:#EC6411;}
	.st8{fill:#E2071F;}
	.st9{fill:none;stroke:#FFFFFF;stroke-width:0.5939;stroke-linecap:round;stroke-miterlimit:10;}
	.st10{fill:#D6A102;}
	.st11{fill:#289438;}
	.st12{fill:#C11728;}
	.st13{fill:#E6331D;}
	.st14{fill:#DD0979;}
	.st15{fill:#0076B8;}
	.st16{fill:#3EA635;}
	.st17{fill:#004C84;}
	.st18{fill:#00A7D7;}
</style>
<g>
	<polygon class="st1" points="35.22,8.43 35.22,4.77 35.89,4.77 35.89,6.3 36.63,6.3 36.63,4.77 37.3,4.77 37.3,8.43 36.63,8.43 
		36.63,6.78 35.89,6.78 35.89,8.43 	"/>
	<rect x="36.79" y="10.75" class="st1" width="0.66" height="3.66"/>
	<polygon class="st1" points="37.98,14.41 37.98,10.75 38.44,10.75 39.34,12.82 39.34,10.75 39.89,10.75 39.89,14.41 39.45,14.41 
		38.55,12.23 38.55,14.41 	"/>
	<path class="st1" d="M41.33,14.46c-0.35,0-0.59-0.11-0.75-0.32c-0.15-0.22-0.23-0.53-0.23-0.94V12c0-0.21,0.02-0.39,0.05-0.54
		c0.03-0.15,0.09-0.29,0.17-0.4c0.08-0.11,0.19-0.2,0.32-0.26c0.14-0.06,0.3-0.09,0.5-0.09c0.36,0,0.62,0.09,0.78,0.27
		c0.16,0.18,0.24,0.45,0.24,0.81v0.18h-0.64v-0.19c0-0.08,0-0.15-0.01-0.2c0-0.05-0.01-0.1-0.03-0.16
		c-0.01-0.05-0.03-0.09-0.06-0.12c-0.03-0.03-0.06-0.05-0.11-0.07c-0.05-0.02-0.1-0.03-0.17-0.03c-0.05,0-0.09,0.01-0.13,0.02
		c-0.04,0.01-0.07,0.03-0.1,0.05c-0.03,0.02-0.05,0.04-0.07,0.08c-0.02,0.03-0.03,0.07-0.04,0.1c-0.01,0.03-0.02,0.07-0.02,0.12
		c-0.01,0.05-0.01,0.09-0.01,0.13s0,0.09,0,0.15v1.48c0,0.22,0.03,0.38,0.08,0.48c0.05,0.1,0.16,0.15,0.31,0.15
		c0.08,0,0.15-0.01,0.2-0.05c0.05-0.03,0.1-0.08,0.13-0.14c0.03-0.06,0.05-0.13,0.06-0.21c0.01-0.08,0.02-0.17,0.02-0.29v-0.3h-0.39
		v-0.43h0.99v1.86H42l-0.05-0.37C41.84,14.32,41.63,14.46,41.33,14.46"/>
	<g>
		<rect x="0.41" y="0.41" class="st11" width="50.2" height="50.2"/>
		<path class="st1" d="M4.99,13.76c-0.4-0.5-0.6-1.22-0.6-2.14v-0.33h1.82v0.32c0.01,0.49,0.07,0.84,0.18,1.05
			c0.11,0.21,0.31,0.32,0.6,0.32c0.29,0,0.49-0.11,0.59-0.32c0.1-0.22,0.15-0.57,0.15-1.06c0-0.51-0.08-0.89-0.22-1.14
			c-0.15-0.25-0.43-0.38-0.83-0.38c-0.02-0.01-0.13-0.01-0.33-0.01V8.72h0.3c0.41,0,0.69-0.11,0.85-0.33
			c0.16-0.22,0.24-0.58,0.24-1.09c0-0.41-0.06-0.71-0.17-0.91C7.44,6.2,7.23,6.1,6.94,6.1c-0.28,0-0.47,0.11-0.57,0.32
			c-0.1,0.21-0.16,0.53-0.17,0.95v0.43H4.39V7.27c0-0.84,0.22-1.48,0.67-1.94C5.5,4.88,6.13,4.65,6.94,4.65
			c0.83,0,1.47,0.22,1.91,0.66c0.45,0.44,0.67,1.08,0.67,1.9c0,0.55-0.11,1.01-0.34,1.39C8.96,8.97,8.67,9.21,8.31,9.3
			c0.81,0.3,1.22,1.05,1.22,2.26c0,0.92-0.2,1.64-0.61,2.17c-0.41,0.52-1.06,0.79-1.95,0.79C6.05,14.51,5.39,14.26,4.99,13.76"/>
		<path class="st1" d="M14.54,8.48c-0.35,0-0.59-0.11-0.75-0.32c-0.15-0.22-0.23-0.53-0.23-0.94V6.02c0-0.21,0.02-0.39,0.05-0.54
			c0.03-0.15,0.09-0.29,0.17-0.4c0.08-0.11,0.19-0.2,0.32-0.26c0.14-0.06,0.3-0.09,0.5-0.09c0.36,0,0.62,0.09,0.78,0.27
			c0.16,0.18,0.24,0.45,0.24,0.81v0.18h-0.64V5.79c0-0.08,0-0.15-0.01-0.2c0-0.05-0.01-0.1-0.03-0.16
			c-0.01-0.05-0.03-0.09-0.06-0.12c-0.03-0.03-0.06-0.05-0.11-0.07c-0.05-0.02-0.1-0.03-0.17-0.03c-0.05,0-0.09,0.01-0.13,0.02
			c-0.04,0.01-0.07,0.03-0.1,0.05c-0.03,0.02-0.05,0.04-0.07,0.08c-0.02,0.03-0.03,0.07-0.04,0.1c-0.01,0.03-0.02,0.07-0.02,0.12
			c-0.01,0.05-0.01,0.09-0.01,0.13s0,0.09,0,0.15v1.48c0,0.22,0.03,0.38,0.08,0.48c0.05,0.1,0.16,0.15,0.31,0.15
			c0.08,0,0.15-0.01,0.2-0.05c0.05-0.03,0.1-0.08,0.13-0.14c0.03-0.06,0.05-0.13,0.06-0.21c0.01-0.08,0.02-0.17,0.02-0.29V7h-0.39
			V6.57h0.99v1.86H15.2l-0.05-0.37C15.04,8.34,14.84,8.48,14.54,8.48"/>
		<path class="st1" d="M16.95,7.95c0.05,0.02,0.1,0.03,0.17,0.03s0.12-0.01,0.17-0.03c0.05-0.02,0.08-0.04,0.11-0.08
			c0.03-0.03,0.05-0.07,0.06-0.12c0.02-0.05,0.03-0.1,0.03-0.15c0.01-0.05,0.01-0.11,0.01-0.18V5.76c0-0.09,0-0.16-0.01-0.22
			c-0.01-0.06-0.03-0.11-0.05-0.17c-0.03-0.05-0.06-0.09-0.12-0.12c-0.05-0.03-0.12-0.04-0.2-0.04c-0.08,0-0.15,0.01-0.2,0.04
			c-0.05,0.03-0.09,0.06-0.12,0.12c-0.02,0.05-0.04,0.11-0.05,0.17c-0.01,0.06-0.01,0.13-0.01,0.22v1.66c0,0.07,0,0.13,0.01,0.18
			c0.01,0.05,0.02,0.1,0.03,0.15c0.02,0.05,0.04,0.09,0.06,0.12C16.86,7.91,16.9,7.93,16.95,7.95 M17.11,8.47
			c-0.38,0-0.65-0.1-0.81-0.31c-0.16-0.2-0.24-0.5-0.24-0.9V5.92c0-0.19,0.02-0.36,0.05-0.51c0.04-0.14,0.1-0.27,0.18-0.37
			c0.08-0.1,0.19-0.18,0.33-0.23c0.14-0.05,0.3-0.08,0.49-0.08c0.38,0,0.64,0.1,0.81,0.3c0.16,0.2,0.25,0.5,0.25,0.89v1.35
			c0,0.19-0.02,0.36-0.06,0.5c-0.04,0.14-0.1,0.27-0.18,0.38c-0.08,0.11-0.19,0.19-0.33,0.24C17.47,8.45,17.3,8.47,17.11,8.47"/>
		<path class="st1" d="M19.46,7.95c0.05,0.02,0.1,0.03,0.17,0.03s0.12-0.01,0.17-0.03c0.05-0.02,0.08-0.04,0.11-0.08
			c0.03-0.03,0.05-0.07,0.06-0.12C19.98,7.7,19.99,7.65,20,7.6C20,7.55,20,7.49,20,7.43V5.76c0-0.09,0-0.16-0.01-0.22
			c-0.01-0.06-0.03-0.11-0.05-0.17c-0.03-0.05-0.06-0.09-0.12-0.12c-0.05-0.03-0.12-0.04-0.2-0.04c-0.08,0-0.15,0.01-0.2,0.04
			c-0.05,0.03-0.09,0.06-0.12,0.12c-0.02,0.05-0.04,0.11-0.05,0.17c-0.01,0.06-0.01,0.13-0.01,0.22v1.66c0,0.07,0,0.13,0.01,0.18
			c0.01,0.05,0.02,0.1,0.03,0.15c0.02,0.05,0.04,0.09,0.06,0.12C19.38,7.91,19.41,7.93,19.46,7.95 M19.63,8.47
			c-0.38,0-0.65-0.1-0.81-0.31c-0.16-0.2-0.25-0.5-0.25-0.9V5.92c0-0.19,0.02-0.36,0.06-0.51c0.04-0.14,0.1-0.27,0.18-0.37
			c0.08-0.1,0.19-0.18,0.33-0.23c0.14-0.05,0.3-0.08,0.49-0.08c0.38,0,0.64,0.1,0.81,0.3c0.16,0.2,0.25,0.5,0.25,0.89v1.35
			c0,0.19-0.02,0.36-0.06,0.5c-0.04,0.14-0.1,0.27-0.18,0.38c-0.08,0.11-0.19,0.19-0.33,0.24C19.98,8.45,19.82,8.47,19.63,8.47"/>
		<path class="st1" d="M21.81,7.96H22c0.07,0,0.12-0.01,0.17-0.02c0.05-0.01,0.09-0.03,0.13-0.04c0.03-0.02,0.06-0.04,0.08-0.08
			c0.02-0.04,0.04-0.07,0.05-0.1c0.01-0.03,0.02-0.08,0.03-0.14c0.01-0.06,0.01-0.12,0.01-0.16c0-0.04,0-0.11,0-0.2V5.89
			c0-0.09,0-0.16,0-0.21c0-0.05-0.01-0.11-0.02-0.16c-0.01-0.05-0.03-0.1-0.05-0.12c-0.02-0.03-0.05-0.06-0.08-0.08
			c-0.04-0.02-0.08-0.04-0.13-0.05C22.13,5.25,22.07,5.25,22,5.25h-0.18V7.96z M21.15,8.43V4.77H22c0.22,0,0.41,0.02,0.55,0.07
			c0.15,0.04,0.27,0.11,0.36,0.21C23,5.14,23.06,5.26,23.1,5.4c0.04,0.14,0.06,0.31,0.06,0.51v1.32c0,0.21-0.02,0.39-0.06,0.53
			c-0.04,0.15-0.1,0.27-0.19,0.37c-0.09,0.1-0.2,0.18-0.35,0.22c-0.15,0.05-0.32,0.07-0.54,0.07H21.15z"/>
		<polygon class="st1" points="24.71,8.43 24.71,4.77 25.38,4.77 25.38,6.3 26.12,6.3 26.12,4.77 26.79,4.77 26.79,8.43 26.12,8.43 
			26.12,6.78 25.38,6.78 25.38,8.43 		"/>
		<polygon class="st1" points="27.32,8.43 27.32,4.77 28.85,4.77 28.85,5.24 27.98,5.24 27.98,6.29 28.67,6.29 28.67,6.76 
			27.98,6.76 27.98,7.97 28.86,7.97 28.86,8.43 		"/>
		<path class="st1" d="M29.88,7.15h0.49l-0.25-1.5L29.88,7.15z M29.03,8.43l0.74-3.66h0.69l0.74,3.66h-0.62l-0.15-0.85h-0.63
			l-0.15,0.85H29.03z"/>
		<polygon class="st1" points="31.55,8.43 31.55,4.77 32.22,4.77 32.22,7.97 33.09,7.97 33.09,8.43 		"/>
		<polygon class="st1" points="33.68,8.43 33.68,5.26 33.07,5.26 33.07,4.77 34.94,4.77 34.94,5.26 34.35,5.26 34.35,8.43 		"/>
		<path class="st1" d="M14.28,13.12h0.49l-0.25-1.5L14.28,13.12z M13.43,14.41l0.74-3.66h0.69l0.74,3.66h-0.62l-0.15-0.85h-0.63
			l-0.15,0.85H13.43z"/>
		<polygon class="st1" points="15.95,14.41 15.95,10.75 16.41,10.75 17.3,12.82 17.3,10.75 17.85,10.75 17.85,14.41 17.42,14.41 
			16.51,12.23 16.51,14.41 		"/>
		<path class="st1" d="M19.04,13.94h0.19c0.07,0,0.12-0.01,0.17-0.02c0.05-0.01,0.09-0.03,0.13-0.04c0.03-0.02,0.06-0.04,0.08-0.08
			c0.02-0.04,0.04-0.07,0.05-0.1c0.01-0.03,0.02-0.08,0.03-0.14c0.01-0.06,0.01-0.12,0.01-0.16c0-0.04,0-0.11,0-0.2v-1.34
			c0-0.09,0-0.16,0-0.21c0-0.05-0.01-0.11-0.02-0.16c-0.01-0.05-0.03-0.1-0.05-0.12c-0.02-0.03-0.05-0.06-0.08-0.08
			s-0.08-0.04-0.13-0.05c-0.05-0.01-0.12-0.01-0.19-0.01h-0.18V13.94z M18.38,14.41v-3.66h0.85c0.22,0,0.41,0.02,0.55,0.07
			c0.15,0.04,0.27,0.11,0.36,0.21c0.09,0.1,0.15,0.21,0.19,0.35c0.04,0.14,0.06,0.31,0.06,0.51v1.32c0,0.21-0.02,0.39-0.06,0.53
			c-0.04,0.15-0.1,0.27-0.19,0.37c-0.09,0.1-0.2,0.18-0.35,0.22c-0.15,0.05-0.32,0.07-0.54,0.07H18.38z"/>
		<polygon class="st1" points="22.33,14.41 21.81,10.75 22.37,10.75 22.67,13.11 23.06,10.75 23.51,10.75 23.91,13.11 24.21,10.75 
			24.76,10.75 24.23,14.41 23.7,14.41 23.29,11.97 22.88,14.41 		"/>
		<polygon class="st1" points="25.16,14.41 25.16,10.75 26.69,10.75 26.69,11.22 25.82,11.22 25.82,12.27 26.51,12.27 26.51,12.74 
			25.82,12.74 25.82,13.95 26.7,13.95 26.7,14.41 		"/>
		<polygon class="st1" points="27.06,14.41 27.06,10.75 27.73,10.75 27.73,13.95 28.6,13.95 28.6,14.41 		"/>
		<polygon class="st1" points="28.93,14.41 28.93,10.75 29.6,10.75 29.6,13.95 30.47,13.95 30.47,14.41 		"/>
		<rect x="30.79" y="12.75" class="st1" width="1.09" height="0.43"/>
		<path class="st1" d="M33.04,13.94h0.24c0.2,0,0.34-0.05,0.41-0.14c0.08-0.09,0.11-0.25,0.11-0.46c0-0.22-0.04-0.38-0.13-0.48
			c-0.09-0.1-0.23-0.15-0.43-0.15h-0.21V13.94z M33.04,12.24h0.21c0.2,0,0.33-0.04,0.4-0.13c0.07-0.08,0.11-0.23,0.11-0.42
			c0-0.1-0.01-0.19-0.04-0.25c-0.02-0.06-0.07-0.11-0.12-0.14c-0.06-0.03-0.12-0.05-0.19-0.06c-0.07-0.01-0.16-0.02-0.28-0.02h-0.09
			V12.24z M32.38,14.41v-3.66h0.9c0.17,0,0.32,0.01,0.44,0.05c0.13,0.03,0.24,0.08,0.34,0.15c0.1,0.07,0.17,0.17,0.22,0.29
			c0.05,0.12,0.07,0.27,0.07,0.45c0,0.45-0.18,0.7-0.54,0.76c0.22,0.04,0.38,0.14,0.48,0.28c0.11,0.15,0.16,0.36,0.16,0.62
			c0,0.35-0.09,0.61-0.26,0.79c-0.18,0.18-0.43,0.27-0.77,0.27H32.38z"/>
		<polygon class="st1" points="34.86,14.41 34.86,10.75 36.4,10.75 36.4,11.22 35.53,11.22 35.53,12.27 36.21,12.27 36.21,12.74 
			35.53,12.74 35.53,13.95 36.41,13.95 36.41,14.41 		"/>
		<path class="st1" d="M42.45,31.81c0-1.42-0.91-2.57-2.29-2.57c-0.69,0-1.52,0.76-1.97,1.22c-0.45-0.47-1.23-1.22-1.92-1.22
			c-1.38,0-2.35,1.15-2.35,2.57c0,0.71,0.28,1.35,0.73,1.82l3.54,3.54l3.53-3.54l0,0C42.17,33.17,42.45,32.52,42.45,31.81"/>
		<path class="st1" d="M27.4,42.95c-0.01,0-0.02,0-0.04,0c-0.27-0.02-0.49-0.22-0.54-0.48l-1.8-10.46l-2.72,5.04
			c-0.12,0.22-0.37,0.34-0.61,0.3c-0.25-0.04-0.44-0.24-0.47-0.49l-1.15-8.07l-2.11,4.75c-0.09,0.21-0.3,0.34-0.53,0.34H9.22
			c-0.32,0-0.58-0.26-0.58-0.58c0-0.32,0.26-0.58,0.58-0.58h7.83l2.78-6.24c0.11-0.24,0.35-0.37,0.61-0.34
			c0.26,0.04,0.46,0.24,0.49,0.49l1.19,8.32l2.68-4.97c0.12-0.22,0.36-0.34,0.61-0.3c0.24,0.04,0.44,0.23,0.48,0.47l1.66,9.69
			l6.06-20.13c0.07-0.23,0.27-0.39,0.51-0.41c0.24-0.02,0.46,0.11,0.57,0.33l3.19,6.61c0.14,0.29,0.02,0.64-0.27,0.78
			c-0.29,0.14-0.64,0.02-0.78-0.27l-2.54-5.27l-6.34,21.06C27.88,42.79,27.65,42.95,27.4,42.95"/>
	</g>
</g>
</svg>
