<?xml version="1.0" encoding="utf-8"?>
<!-- Generator: Adobe Illustrator 26.5.0, SVG Export Plug-In . SVG Version: 6.00 Build 0)  -->
<svg version="1.1" id="Capa_1" xmlns="http://www.w3.org/2000/svg" xmlns:xlink="http://www.w3.org/1999/xlink" x="0px" y="0px"
	 viewBox="0 0 51.02 51.02" style="enable-background:new 0 0 51.02 51.02;" xml:space="preserve">
<style type="text/css">
	.st0{fill:#D28D0E;}
	.st1{fill:#FFFFFF;}
	.st2{fill:#FBB800;}
	.st3{fill:#931831;}
	.st4{fill:#F59D08;}
	.st5{fill:#4A7634;}
	.st6{fill:#1F3262;}
	.st7{fill:#EC6411;}
	.st8{fill:#E2071F;}
	.st9{fill:none;stroke:#FFFFFF;stroke-width:0.5939;stroke-linecap:round;stroke-miterlimit:10;}
	.st10{fill:#D6A102;}
	.st11{fill:#289438;}
	.st12{fill:#C11728;}
	.st13{fill:#E6331D;}
	.st14{fill:#DD0979;}
	.st15{fill:#0076B8;}
	.st16{fill:#3EA635;}
	.st17{fill:#004C84;}
	.st18{fill:#00A7D7;}
</style>
<g>
	<rect x="0.41" y="0.41" class="st17" width="50.2" height="50.2"/>
	<path class="st1" d="M4.72,6.67c-0.09,0.05-0.34,0.15-0.76,0.3C3.63,7.07,3.42,7.15,3.33,7.19V5.83c0.27-0.1,0.59-0.26,0.97-0.47
		c0.38-0.21,0.65-0.41,0.81-0.58h1.43v9.57H4.72V6.67z"/>
	<path class="st1" d="M10.71,12.72c0.1-0.26,0.15-0.68,0.15-1.26c0-0.4-0.01-0.71-0.04-0.93c-0.02-0.22-0.09-0.4-0.2-0.53
		c-0.11-0.13-0.27-0.2-0.49-0.2c-0.17,0-0.31,0.04-0.44,0.13c-0.13,0.09-0.23,0.19-0.3,0.31v1.52c0,0.91,0.25,1.36,0.76,1.36
		C10.43,13.12,10.61,12.99,10.71,12.72 M8.18,13.63c-0.42-0.57-0.63-1.33-0.63-2.29v-3.4c0-1.04,0.19-1.85,0.57-2.42
		c0.38-0.57,1.04-0.86,2-0.86c0.85,0,1.47,0.2,1.84,0.6c0.38,0.4,0.57,1.01,0.58,1.82l0.01,0.17h-1.74c0-0.44-0.04-0.75-0.13-0.93
		c-0.09-0.18-0.27-0.27-0.54-0.27c-0.2,0-0.35,0.06-0.46,0.18C9.58,6.35,9.5,6.55,9.46,6.82C9.42,7.1,9.4,7.49,9.4,7.99v0.97
		c0.1-0.17,0.27-0.31,0.5-0.41c0.23-0.1,0.49-0.15,0.78-0.15c0.71,0,1.22,0.25,1.54,0.74c0.32,0.49,0.48,1.16,0.48,2.02
		c0,1.06-0.2,1.87-0.59,2.45c-0.39,0.58-1.05,0.87-1.97,0.87C9.25,14.48,8.61,14.2,8.18,13.63"/>
	<path class="st1" d="M17.12,6.33h0.21c0.19,0,0.32-0.04,0.38-0.11c0.07-0.07,0.1-0.21,0.1-0.41c0-0.11,0-0.2-0.01-0.26
		c-0.01-0.06-0.03-0.12-0.06-0.17c-0.03-0.05-0.08-0.09-0.14-0.11c-0.06-0.02-0.15-0.03-0.26-0.03h-0.22V6.33z M16.45,8.43V4.77
		h1.05c0.62,0,0.94,0.35,0.94,1.04c0,0.34-0.09,0.59-0.26,0.75c-0.17,0.16-0.41,0.24-0.72,0.24h-0.34v1.63H16.45z"/>
	<polygon class="st1" points="18.71,8.43 18.71,4.77 20.24,4.77 20.24,5.24 19.37,5.24 19.37,6.29 20.06,6.29 20.06,6.76 
		19.37,6.76 19.37,7.97 20.25,7.97 20.25,8.43 	"/>
	<path class="st1" d="M21.2,7.15h0.49l-0.25-1.5L21.2,7.15z M20.35,8.43l0.74-3.66h0.69l0.74,3.66h-0.62l-0.15-0.85h-0.63
		l-0.15,0.85H20.35z"/>
	<path class="st1" d="M23.78,8.47c-0.16,0-0.3-0.02-0.42-0.06c-0.12-0.04-0.22-0.09-0.3-0.17c-0.08-0.07-0.14-0.16-0.19-0.26
		c-0.05-0.1-0.08-0.22-0.1-0.34c-0.02-0.12-0.03-0.25-0.03-0.4V5.97c0-0.16,0.01-0.3,0.03-0.42c0.02-0.12,0.05-0.24,0.1-0.34
		c0.05-0.11,0.11-0.19,0.19-0.26c0.08-0.07,0.18-0.12,0.3-0.16c0.12-0.04,0.26-0.06,0.42-0.06c0.18,0,0.34,0.02,0.47,0.07
		c0.13,0.05,0.23,0.12,0.31,0.21c0.08,0.09,0.13,0.2,0.16,0.33c0.03,0.13,0.05,0.27,0.05,0.44V6.1h-0.64V5.79
		c0-0.18-0.01-0.31-0.03-0.37c-0.04-0.12-0.13-0.19-0.28-0.2h-0.04c-0.06,0-0.1,0.01-0.15,0.02c-0.04,0.01-0.08,0.03-0.1,0.06
		c-0.03,0.03-0.05,0.06-0.06,0.09c-0.02,0.03-0.03,0.07-0.04,0.13c-0.01,0.05-0.01,0.1-0.01,0.14c0,0.04,0,0.1,0,0.17v1.55
		c0,0.21,0.03,0.37,0.08,0.46c0.05,0.09,0.15,0.14,0.29,0.14c0.05,0,0.09-0.01,0.12-0.02c0.04-0.01,0.07-0.02,0.09-0.04
		c0.02-0.02,0.05-0.04,0.06-0.07c0.02-0.03,0.03-0.06,0.04-0.09c0.01-0.03,0.02-0.06,0.02-0.11c0-0.05,0.01-0.09,0.01-0.12
		c0-0.03,0-0.08,0-0.14V7.06h0.64v0.3c0,0.14-0.01,0.26-0.03,0.37c-0.02,0.11-0.05,0.21-0.1,0.31c-0.05,0.1-0.11,0.17-0.18,0.24
		c-0.07,0.06-0.17,0.11-0.28,0.15C24.07,8.46,23.94,8.47,23.78,8.47"/>
	<polygon class="st1" points="25.14,8.43 25.14,4.77 26.67,4.77 26.67,5.24 25.81,5.24 25.81,6.29 26.49,6.29 26.49,6.76 
		25.81,6.76 25.81,7.97 26.69,7.97 26.69,8.43 	"/>
	<path class="st1" d="M26.98,9.05l-0.07-0.23C27,8.8,27.07,8.75,27.13,8.68c0.05-0.07,0.08-0.15,0.08-0.25h-0.32v-0.6h0.61v0.56
		C27.49,8.76,27.32,8.98,26.98,9.05"/>
	<path class="st1" d="M28.62,8.51V8.04c0.2,0,0.33-0.03,0.39-0.09c0.06-0.06,0.1-0.18,0.1-0.37V4.77h0.67l0,2.82
		c0,0.16-0.01,0.3-0.04,0.41c-0.03,0.11-0.07,0.2-0.13,0.28c-0.06,0.08-0.15,0.14-0.26,0.17c-0.11,0.04-0.24,0.05-0.4,0.05H28.62z"
		/>
	<path class="st1" d="M31.23,8.47c-0.16,0-0.3-0.02-0.42-0.06c-0.12-0.04-0.22-0.09-0.3-0.16c-0.08-0.07-0.14-0.16-0.19-0.27
		c-0.05-0.11-0.08-0.23-0.1-0.35C30.21,7.51,30.2,7.37,30.2,7.2V4.77h0.65v2.5c0,0.09,0,0.16,0.01,0.22c0,0.06,0.01,0.12,0.03,0.19
		c0.01,0.07,0.04,0.12,0.06,0.16c0.03,0.04,0.06,0.07,0.11,0.1c0.05,0.03,0.11,0.04,0.17,0.04c0.07,0,0.13-0.01,0.17-0.04
		c0.05-0.03,0.08-0.06,0.11-0.1c0.03-0.04,0.05-0.09,0.06-0.16c0.02-0.07,0.02-0.13,0.03-0.19c0-0.06,0.01-0.13,0.01-0.22v-2.5h0.65
		V7.2c0,0.17-0.01,0.31-0.03,0.44c-0.02,0.13-0.05,0.24-0.1,0.35c-0.05,0.11-0.11,0.2-0.18,0.27c-0.08,0.07-0.17,0.12-0.29,0.16
		C31.54,8.45,31.39,8.47,31.23,8.47"/>
	<path class="st1" d="M33.61,8.47c-0.64,0-0.98-0.37-1.02-1.12l0.58-0.12c0.01,0.48,0.15,0.73,0.41,0.73c0.1,0,0.18-0.03,0.23-0.09
		c0.05-0.06,0.07-0.14,0.07-0.25c0-0.1-0.02-0.19-0.06-0.28c-0.04-0.08-0.08-0.15-0.13-0.21c-0.05-0.05-0.12-0.12-0.21-0.2
		l-0.48-0.42c-0.14-0.12-0.25-0.25-0.32-0.38s-0.1-0.3-0.1-0.5c0-0.28,0.08-0.5,0.25-0.66c0.17-0.16,0.4-0.24,0.69-0.24
		c0.13,0,0.25,0.02,0.36,0.05s0.19,0.08,0.26,0.14c0.07,0.06,0.12,0.13,0.17,0.22c0.04,0.09,0.08,0.18,0.1,0.27
		c0.02,0.09,0.04,0.2,0.05,0.31l-0.57,0.11c0-0.07-0.01-0.14-0.01-0.19c-0.01-0.05-0.02-0.11-0.03-0.17
		c-0.02-0.06-0.04-0.1-0.06-0.14c-0.03-0.03-0.06-0.06-0.1-0.08c-0.04-0.02-0.09-0.03-0.15-0.02c-0.1,0.01-0.17,0.04-0.23,0.1
		c-0.05,0.06-0.08,0.14-0.08,0.24c0,0.12,0.02,0.21,0.07,0.29c0.05,0.08,0.12,0.16,0.22,0.24l0.48,0.41
		c0.08,0.07,0.15,0.14,0.21,0.21c0.06,0.07,0.11,0.15,0.17,0.23c0.05,0.09,0.09,0.18,0.12,0.29c0.03,0.1,0.04,0.21,0.04,0.33
		c0,0.27-0.08,0.48-0.25,0.65C34.1,8.39,33.88,8.47,33.61,8.47"/>
	<polygon class="st1" points="35.18,8.43 35.18,5.26 34.57,5.26 34.57,4.77 36.44,4.77 36.44,5.26 35.85,5.26 35.85,8.43 	"/>
	<rect x="36.66" y="4.77" class="st1" width="0.66" height="3.66"/>
	<path class="st1" d="M38.77,8.47c-0.16,0-0.3-0.02-0.42-0.06c-0.12-0.04-0.22-0.09-0.3-0.17c-0.08-0.07-0.14-0.16-0.19-0.26
		c-0.05-0.1-0.08-0.22-0.1-0.34c-0.02-0.12-0.03-0.25-0.03-0.4V5.97c0-0.16,0.01-0.3,0.03-0.42c0.02-0.12,0.05-0.24,0.1-0.34
		c0.05-0.11,0.11-0.19,0.19-0.26c0.08-0.07,0.18-0.12,0.3-0.16s0.26-0.06,0.42-0.06c0.18,0,0.34,0.02,0.47,0.07
		c0.13,0.05,0.23,0.12,0.31,0.21c0.08,0.09,0.13,0.2,0.16,0.33c0.03,0.13,0.05,0.27,0.05,0.44V6.1h-0.64V5.79
		c0-0.18-0.01-0.31-0.03-0.37c-0.04-0.12-0.13-0.19-0.28-0.2h-0.04c-0.06,0-0.1,0.01-0.15,0.02c-0.04,0.01-0.08,0.03-0.1,0.06
		c-0.03,0.03-0.05,0.06-0.06,0.09c-0.02,0.03-0.03,0.07-0.04,0.13c-0.01,0.05-0.01,0.1-0.01,0.14c0,0.04,0,0.1,0,0.17v1.55
		c0,0.21,0.03,0.37,0.08,0.46c0.05,0.09,0.15,0.14,0.29,0.14c0.05,0,0.09-0.01,0.12-0.02c0.04-0.01,0.07-0.02,0.09-0.04
		s0.05-0.04,0.06-0.07c0.02-0.03,0.03-0.06,0.04-0.09c0.01-0.03,0.02-0.06,0.02-0.11c0-0.05,0.01-0.09,0.01-0.12
		c0-0.03,0-0.08,0-0.14V7.06h0.64v0.3c0,0.14-0.01,0.26-0.03,0.37c-0.02,0.11-0.05,0.21-0.1,0.31c-0.05,0.1-0.11,0.17-0.18,0.24
		c-0.07,0.06-0.17,0.11-0.28,0.15C39.06,8.46,38.93,8.47,38.77,8.47"/>
	<polygon class="st1" points="40.13,8.43 40.13,4.77 41.67,4.77 41.67,5.24 40.8,5.24 40.8,6.29 41.48,6.29 41.48,6.76 40.8,6.76 
		40.8,7.97 41.68,7.97 41.68,8.43 	"/>
	<path class="st1" d="M17.11,13.12h0.49l-0.25-1.5L17.11,13.12z M16.26,14.41l0.74-3.66h0.69l0.74,3.66h-0.62l-0.15-0.85h-0.63
		l-0.15,0.85H16.26z"/>
	<polygon class="st1" points="18.71,14.41 18.71,10.75 19.17,10.75 20.07,12.82 20.07,10.75 20.62,10.75 20.62,14.41 20.18,14.41 
		19.28,12.23 19.28,14.41 	"/>
	<path class="st1" d="M21.74,13.94h0.19c0.07,0,0.12-0.01,0.17-0.02c0.05-0.01,0.09-0.03,0.13-0.04c0.03-0.02,0.06-0.04,0.09-0.08
		c0.02-0.04,0.04-0.07,0.05-0.1c0.01-0.03,0.02-0.08,0.03-0.14c0.01-0.06,0.01-0.12,0.01-0.16c0-0.04,0-0.11,0-0.2v-1.34
		c0-0.09,0-0.16,0-0.21c0-0.05-0.01-0.11-0.02-0.16c-0.01-0.05-0.03-0.1-0.05-0.12c-0.02-0.03-0.05-0.06-0.09-0.08
		c-0.04-0.02-0.08-0.04-0.13-0.05c-0.05-0.01-0.12-0.01-0.19-0.01h-0.18V13.94z M21.08,14.41v-3.66h0.85c0.22,0,0.41,0.02,0.55,0.07
		c0.15,0.04,0.27,0.11,0.36,0.21c0.09,0.1,0.15,0.21,0.19,0.35c0.04,0.14,0.06,0.31,0.06,0.51v1.32c0,0.21-0.02,0.39-0.06,0.53
		c-0.04,0.15-0.1,0.27-0.19,0.37c-0.09,0.1-0.2,0.18-0.35,0.22c-0.15,0.05-0.32,0.07-0.54,0.07H21.08z"/>
	<path class="st1" d="M25.42,14.45c-0.64,0-0.98-0.37-1.02-1.12l0.58-0.12c0.01,0.48,0.15,0.73,0.41,0.73c0.1,0,0.18-0.03,0.23-0.09
		c0.05-0.06,0.07-0.14,0.07-0.25c0-0.1-0.02-0.19-0.06-0.28c-0.04-0.08-0.08-0.15-0.13-0.21c-0.05-0.05-0.12-0.12-0.21-0.2
		l-0.48-0.42c-0.14-0.12-0.25-0.25-0.32-0.38c-0.07-0.13-0.1-0.3-0.1-0.5c0-0.28,0.08-0.5,0.25-0.66c0.17-0.16,0.4-0.24,0.69-0.24
		c0.13,0,0.25,0.02,0.36,0.05s0.19,0.08,0.26,0.14c0.07,0.06,0.12,0.13,0.17,0.22c0.04,0.09,0.08,0.18,0.1,0.27
		c0.02,0.09,0.04,0.2,0.05,0.31l-0.57,0.11c0-0.07-0.01-0.14-0.01-0.19s-0.02-0.11-0.03-0.17c-0.02-0.06-0.04-0.1-0.06-0.14
		c-0.03-0.03-0.06-0.06-0.1-0.08c-0.04-0.02-0.09-0.03-0.15-0.02c-0.1,0.01-0.17,0.04-0.23,0.1c-0.05,0.06-0.08,0.14-0.08,0.24
		c0,0.12,0.02,0.21,0.07,0.29c0.05,0.08,0.12,0.16,0.22,0.24l0.48,0.41c0.08,0.07,0.15,0.14,0.21,0.21
		c0.06,0.07,0.11,0.14,0.17,0.23c0.05,0.09,0.09,0.18,0.12,0.29c0.03,0.1,0.04,0.21,0.04,0.33c0,0.27-0.08,0.48-0.25,0.65
		C25.92,14.37,25.69,14.45,25.42,14.45"/>
	<polygon class="st1" points="26.99,14.41 26.99,11.24 26.38,11.24 26.38,10.75 28.25,10.75 28.25,11.24 27.66,11.24 27.66,14.41 	
		"/>
	<path class="st1" d="M29.12,12.31h0.16c0.2,0,0.34-0.04,0.42-0.13c0.08-0.08,0.12-0.23,0.12-0.43c0-0.2-0.04-0.34-0.11-0.42
		c-0.07-0.08-0.2-0.13-0.4-0.13h-0.2V12.31z M28.45,14.41v-3.66h0.84c0.19,0,0.36,0.02,0.5,0.05c0.14,0.03,0.26,0.08,0.36,0.16
		c0.1,0.07,0.18,0.17,0.23,0.3c0.05,0.13,0.08,0.28,0.08,0.47c0,0.23-0.03,0.42-0.1,0.56c-0.07,0.15-0.18,0.25-0.34,0.32l0.51,1.8
		h-0.67l-0.44-1.67h-0.3v1.67H28.45z"/>
	<path class="st1" d="M31.7,13.93c0.05,0.02,0.1,0.03,0.17,0.03s0.12-0.01,0.17-0.03c0.05-0.02,0.08-0.04,0.11-0.08
		c0.03-0.03,0.05-0.07,0.06-0.12c0.01-0.05,0.03-0.1,0.03-0.15c0.01-0.05,0.01-0.11,0.01-0.18v-1.66c0-0.09,0-0.16-0.01-0.22
		c-0.01-0.06-0.03-0.11-0.05-0.17c-0.03-0.05-0.06-0.09-0.12-0.12c-0.05-0.03-0.12-0.04-0.2-0.04c-0.08,0-0.15,0.01-0.2,0.04
		c-0.05,0.03-0.09,0.06-0.12,0.12c-0.02,0.05-0.04,0.11-0.05,0.17c-0.01,0.06-0.01,0.13-0.01,0.22v1.66c0,0.07,0,0.13,0.01,0.18
		c0.01,0.05,0.02,0.1,0.03,0.15c0.02,0.05,0.04,0.09,0.06,0.12C31.62,13.89,31.65,13.91,31.7,13.93 M31.87,14.45
		c-0.38,0-0.65-0.1-0.81-0.31c-0.16-0.2-0.24-0.5-0.24-0.9V11.9c0-0.19,0.02-0.36,0.05-0.51c0.04-0.14,0.1-0.27,0.18-0.37
		c0.08-0.1,0.19-0.18,0.33-0.23c0.14-0.05,0.3-0.08,0.49-0.08c0.38,0,0.64,0.1,0.81,0.3c0.16,0.2,0.25,0.5,0.25,0.89v1.35
		c0,0.19-0.02,0.36-0.06,0.5c-0.04,0.14-0.1,0.27-0.18,0.38c-0.08,0.11-0.19,0.19-0.33,0.24C32.22,14.43,32.06,14.45,31.87,14.45"/>
	<polygon class="st1" points="33.32,14.41 33.32,10.75 33.78,10.75 34.67,12.82 34.67,10.75 35.22,10.75 35.22,14.41 34.79,14.41 
		33.88,12.23 33.88,14.41 	"/>
	<path class="st1" d="M36.6,14.46c-0.35,0-0.59-0.11-0.75-0.32c-0.15-0.22-0.23-0.53-0.23-0.94V12c0-0.21,0.02-0.39,0.05-0.54
		c0.03-0.15,0.09-0.29,0.17-0.4c0.08-0.11,0.19-0.2,0.32-0.26c0.14-0.06,0.3-0.09,0.5-0.09c0.36,0,0.62,0.09,0.78,0.27
		c0.16,0.18,0.24,0.45,0.24,0.81v0.18h-0.64v-0.19c0-0.08,0-0.15-0.01-0.2c0-0.05-0.01-0.1-0.03-0.16
		c-0.01-0.05-0.03-0.09-0.06-0.12c-0.03-0.03-0.06-0.05-0.11-0.07c-0.05-0.02-0.1-0.03-0.17-0.03c-0.05,0-0.09,0.01-0.13,0.02
		c-0.04,0.01-0.07,0.03-0.1,0.05c-0.03,0.02-0.05,0.04-0.07,0.08c-0.02,0.03-0.03,0.07-0.04,0.1c-0.01,0.03-0.02,0.07-0.02,0.12
		c-0.01,0.05-0.01,0.09-0.01,0.13c0,0.04,0,0.09,0,0.15v1.48c0,0.22,0.03,0.38,0.08,0.48c0.05,0.1,0.16,0.15,0.31,0.15
		c0.08,0,0.15-0.02,0.2-0.05c0.05-0.03,0.1-0.08,0.13-0.14c0.03-0.06,0.05-0.13,0.06-0.21c0.01-0.08,0.02-0.17,0.02-0.29v-0.3H36.7
		v-0.43h0.99v1.86h-0.43l-0.05-0.37C37.11,14.32,36.9,14.46,36.6,14.46"/>
	<rect x="16.47" y="16.73" class="st1" width="0.66" height="3.66"/>
	<polygon class="st1" points="17.6,20.39 17.6,16.73 18.06,16.73 18.96,18.8 18.96,16.73 19.51,16.73 19.51,20.39 19.07,20.39 
		18.17,18.21 18.17,20.39 	"/>
	<path class="st1" d="M20.89,20.43c-0.64,0-0.98-0.37-1.02-1.12l0.58-0.12c0.01,0.48,0.15,0.73,0.41,0.73c0.1,0,0.18-0.03,0.23-0.09
		c0.05-0.06,0.07-0.14,0.07-0.25c0-0.1-0.02-0.19-0.06-0.28c-0.04-0.08-0.08-0.15-0.13-0.21c-0.05-0.05-0.12-0.12-0.21-0.2
		l-0.48-0.42c-0.14-0.12-0.25-0.25-0.32-0.38c-0.07-0.13-0.1-0.3-0.1-0.5c0-0.28,0.08-0.5,0.25-0.66c0.17-0.16,0.4-0.24,0.69-0.24
		c0.13,0,0.25,0.02,0.36,0.05s0.19,0.08,0.26,0.14c0.07,0.06,0.12,0.13,0.17,0.22c0.04,0.09,0.08,0.18,0.1,0.27
		c0.02,0.09,0.04,0.2,0.05,0.31l-0.57,0.11c0-0.07-0.01-0.14-0.01-0.19s-0.02-0.11-0.03-0.17c-0.02-0.06-0.04-0.1-0.06-0.14
		c-0.03-0.03-0.06-0.06-0.1-0.08c-0.04-0.02-0.09-0.03-0.15-0.02c-0.1,0.01-0.17,0.04-0.23,0.1c-0.05,0.06-0.08,0.14-0.08,0.24
		c0,0.12,0.02,0.21,0.07,0.29c0.05,0.08,0.12,0.16,0.22,0.24l0.48,0.41c0.08,0.07,0.15,0.14,0.21,0.21
		c0.06,0.07,0.11,0.14,0.17,0.23c0.05,0.09,0.09,0.18,0.12,0.29c0.03,0.1,0.04,0.21,0.04,0.33c0,0.27-0.08,0.48-0.25,0.65
		C21.38,20.35,21.16,20.43,20.89,20.43"/>
	<polygon class="st1" points="22.46,20.39 22.46,17.22 21.85,17.22 21.85,16.73 23.72,16.73 23.72,17.22 23.13,17.22 23.13,20.39 	
		"/>
	<rect x="23.94" y="16.73" class="st1" width="0.66" height="3.66"/>
	<polygon class="st1" points="25.43,20.39 25.43,17.22 24.82,17.22 24.82,16.73 26.69,16.73 26.69,17.22 26.1,17.22 26.1,20.39 	"/>
	<path class="st1" d="M27.89,20.43c-0.16,0-0.3-0.02-0.42-0.06c-0.12-0.04-0.22-0.09-0.3-0.16c-0.08-0.07-0.14-0.16-0.19-0.27
		c-0.05-0.11-0.08-0.23-0.1-0.35c-0.02-0.13-0.03-0.27-0.03-0.44v-2.43h0.65v2.5c0,0.09,0,0.16,0.01,0.22
		c0,0.06,0.01,0.12,0.03,0.19c0.01,0.07,0.04,0.12,0.06,0.16c0.03,0.04,0.06,0.07,0.11,0.1c0.05,0.03,0.11,0.04,0.17,0.04
		c0.07,0,0.13-0.01,0.17-0.04c0.05-0.03,0.08-0.06,0.11-0.1c0.03-0.04,0.05-0.09,0.06-0.16c0.02-0.07,0.02-0.13,0.03-0.19
		c0-0.06,0.01-0.13,0.01-0.22v-2.5h0.65v2.43c0,0.17-0.01,0.31-0.03,0.44c-0.02,0.13-0.05,0.24-0.1,0.35
		c-0.05,0.11-0.11,0.2-0.18,0.27c-0.08,0.07-0.17,0.12-0.29,0.16C28.19,20.41,28.05,20.43,27.89,20.43"/>
	<polygon class="st1" points="29.7,20.39 29.7,17.22 29.09,17.22 29.09,16.73 30.96,16.73 30.96,17.22 30.37,17.22 30.37,20.39 	"/>
	<rect x="31.18" y="16.73" class="st1" width="0.66" height="3.66"/>
	<path class="st1" d="M33.14,19.91c0.05,0.02,0.1,0.03,0.17,0.03s0.12-0.01,0.17-0.03c0.05-0.02,0.08-0.04,0.11-0.08
		c0.03-0.03,0.05-0.07,0.06-0.12c0.01-0.05,0.03-0.1,0.03-0.15c0.01-0.05,0.01-0.11,0.01-0.18v-1.66c0-0.09,0-0.16-0.01-0.22
		c-0.01-0.06-0.03-0.11-0.05-0.17c-0.03-0.05-0.06-0.09-0.12-0.12c-0.05-0.03-0.12-0.04-0.2-0.04c-0.08,0-0.15,0.01-0.2,0.04
		c-0.05,0.03-0.09,0.06-0.12,0.12c-0.02,0.05-0.04,0.11-0.05,0.17c-0.01,0.06-0.01,0.13-0.01,0.22v1.66c0,0.07,0,0.13,0.01,0.18
		c0.01,0.05,0.02,0.1,0.03,0.15c0.02,0.05,0.04,0.09,0.06,0.12C33.06,19.86,33.1,19.89,33.14,19.91 M33.31,20.43
		c-0.38,0-0.65-0.1-0.81-0.31c-0.16-0.2-0.24-0.5-0.24-0.9v-1.35c0-0.19,0.02-0.36,0.05-0.51c0.04-0.14,0.1-0.27,0.18-0.37
		c0.08-0.1,0.19-0.18,0.33-0.23c0.14-0.05,0.3-0.08,0.49-0.08c0.38,0,0.64,0.1,0.81,0.3c0.16,0.2,0.25,0.5,0.25,0.89v1.35
		c0,0.19-0.02,0.36-0.06,0.5c-0.04,0.14-0.1,0.27-0.18,0.38c-0.08,0.11-0.19,0.19-0.33,0.24C33.66,20.4,33.5,20.43,33.31,20.43"/>
	<polygon class="st1" points="34.76,20.39 34.76,16.73 35.22,16.73 36.12,18.8 36.12,16.73 36.67,16.73 36.67,20.39 36.23,20.39 
		35.33,18.21 35.33,20.39 	"/>
	<path class="st1" d="M38.05,20.43c-0.64,0-0.98-0.37-1.02-1.12l0.58-0.12c0.01,0.48,0.15,0.73,0.41,0.73c0.1,0,0.18-0.03,0.23-0.09
		c0.05-0.06,0.07-0.14,0.07-0.25c0-0.1-0.02-0.19-0.06-0.28c-0.04-0.08-0.08-0.15-0.13-0.21c-0.05-0.05-0.12-0.12-0.21-0.2
		l-0.48-0.42c-0.14-0.12-0.25-0.25-0.32-0.38c-0.07-0.13-0.1-0.3-0.1-0.5c0-0.28,0.08-0.5,0.25-0.66c0.17-0.16,0.4-0.24,0.69-0.24
		c0.13,0,0.25,0.02,0.36,0.05s0.19,0.08,0.26,0.14c0.07,0.06,0.12,0.13,0.17,0.22c0.04,0.09,0.08,0.18,0.1,0.27
		c0.02,0.09,0.04,0.2,0.05,0.31l-0.57,0.11c0-0.07-0.01-0.14-0.01-0.19c-0.01-0.05-0.02-0.11-0.03-0.17
		c-0.02-0.06-0.04-0.1-0.06-0.14c-0.03-0.03-0.06-0.06-0.1-0.08c-0.04-0.02-0.09-0.03-0.15-0.02c-0.1,0.01-0.17,0.04-0.23,0.1
		c-0.05,0.06-0.08,0.14-0.08,0.24c0,0.12,0.02,0.21,0.07,0.29c0.05,0.08,0.12,0.16,0.22,0.24l0.48,0.41
		c0.08,0.07,0.15,0.14,0.21,0.21c0.06,0.07,0.11,0.14,0.17,0.23c0.05,0.09,0.09,0.18,0.12,0.29c0.03,0.1,0.04,0.21,0.04,0.33
		c0,0.27-0.08,0.48-0.25,0.65C38.54,20.35,38.32,20.43,38.05,20.43"/>
	<path class="st1" d="M33.77,22.68c0,0-0.49,0.65-0.35,1.28c0.14,0.63,0.87,1.01,0.87,1.01s0.49-0.65,0.35-1.28
		C34.5,23.06,33.77,22.68,33.77,22.68"/>
	<path class="st1" d="M32.98,26.39c0,0,0.49-0.65,0.35-1.28c-0.14-0.63-0.87-1.01-0.87-1.01s-0.49,0.65-0.35,1.28
		C32.25,26.02,32.98,26.39,32.98,26.39"/>
	<path class="st1" d="M34.99,25.7c0,0,0.52,0.52,1.11,0.47c0.59-0.05,1.02-0.66,1.02-0.66s-0.52-0.52-1.11-0.47
		C35.43,25.09,34.99,25.7,34.99,25.7"/>
	<path class="st1" d="M35.84,22.91c-0.48,0.49-0.41,1.35-0.41,1.35s0.84,0.07,1.32-0.41c0.48-0.49,0.41-1.35,0.41-1.35
		S36.32,22.43,35.84,22.91"/>
	<path class="st1" d="M34.78,27.63c0.59,0.07,1.14-0.43,1.14-0.43s-0.4-0.62-0.99-0.69c-0.59-0.07-1.14,0.43-1.14,0.43
		S34.19,27.56,34.78,27.63"/>
	<path class="st1" d="M35.3,37.06h-4.39c-0.34,0-0.62,0.28-0.62,0.62c0,0.34,0.28,0.62,0.62,0.62h4.39c0.34,0,0.62-0.28,0.62-0.62
		C35.92,37.34,35.65,37.06,35.3,37.06"/>
	<path class="st1" d="M35.3,43.9h-4.39c-0.34,0-0.62,0.28-0.62,0.62c0,0.34,0.28,0.62,0.62,0.62h4.39c0.34,0,0.62-0.28,0.62-0.62
		C35.92,44.18,35.65,43.9,35.3,43.9"/>
	<path class="st1" d="M15.58,35.56c-0.1-0.03-0.21-0.06-0.3-0.08C15.27,35.48,15.39,35.51,15.58,35.56"/>
	<path class="st1" d="M22.69,38.24c0.29,0,0.58,0,0.87-0.02v2.29l-0.87-0.02V38.24z M35.14,38.74h-4.06c-0.2,0-0.35,0.16-0.35,0.35
		v1.23l-2.65,0.29l-3.88-0.09v-2.37c0.51-0.07,1.03-0.17,1.54-0.31c3.73-1.05,4.54-3.38,4.46-5.51c-0.08-2.17,0.61-3.02,1.61-3.39
		c0.29-0.11,0.57-0.18,0.83-0.22c0.01,0.53,0.12,1.15,0.36,1.89c0.09-0.01,0.18-0.01,0.26-0.02c-0.25-0.76-0.36-1.38-0.37-1.91
		c0.52-0.06,0.88-0.03,0.88-0.03s-0.35-0.19-0.84-0.6c0.17-1.03,0.78-1.66,1.41-2.31c0.35-0.36,0.71-0.72,0.99-1.16l-0.22-0.14
		c-0.27,0.42-0.62,0.77-0.96,1.12c-0.62,0.63-1.24,1.27-1.45,2.3c-0.2-0.18-0.42-0.39-0.64-0.64c-0.92-1.03-2.1-0.27-3.79,1.3
		c-1.69,1.57-3.81,1.63-5.89-0.5c-2.74-2.8-5.13-2.79-6.76-2.63c1.12,0.48,1.51,1.52,2.08,4.18c0.59,2.79,2.09,4.06,4.14,4.23
		c-0.95,0.15-1.2,0.29-2.72,1.34c-1.19,0.82-2.87,0.56-3.55,0.41c1.25,0.39,2.73,1.7,4.05,2.16c0.77,0.27,1.58,0.43,2.42,0.5v2.27
		l-7.35-0.16v1.58l13.37-0.3l2.65,0.29v1.23c0,0.2,0.16,0.35,0.35,0.35h4.06c0.2,0,0.35-0.16,0.35-0.35v-4.03
		C35.5,38.9,35.34,38.74,35.14,38.74"/>
	<path class="st1" d="M14.32,41.64c0,0.33-0.23,0.6-0.52,0.6h-0.31c-0.29,0-0.52-0.27-0.52-0.6v-1.09c0-0.33,0.23-0.6,0.52-0.6h0.31
		c0.29,0,0.52,0.27,0.52,0.6V41.64z"/>
</g>
</svg>
