<?xml version="1.0" encoding="utf-8"?>
<!-- Generator: Adobe Illustrator 26.5.0, SVG Export Plug-In . SVG Version: 6.00 Build 0)  -->
<svg version="1.1" id="Capa_1" xmlns="http://www.w3.org/2000/svg" xmlns:xlink="http://www.w3.org/1999/xlink" x="0px" y="0px"
	 viewBox="0 0 51.02 51.02" style="enable-background:new 0 0 51.02 51.02;" xml:space="preserve">
<style type="text/css">
	.st0{fill:#D28D0E;}
	.st1{fill:#FFFFFF;}
	.st2{fill:#FBB800;}
	.st3{fill:#931831;}
	.st4{fill:#F59D08;}
	.st5{fill:#4A7634;}
	.st6{fill:#1F3262;}
	.st7{fill:#EC6411;}
	.st8{fill:#E2071F;}
	.st9{fill:none;stroke:#FFFFFF;stroke-width:0.5939;stroke-linecap:round;stroke-miterlimit:10;}
	.st10{fill:#D6A102;}
	.st11{fill:#289438;}
	.st12{fill:#C11728;}
	.st13{fill:#E6331D;}
	.st14{fill:#DD0979;}
	.st15{fill:#0076B8;}
	.st16{fill:#3EA635;}
	.st17{fill:#004C84;}
	.st18{fill:#00A7D7;}
</style>
<g>
	<rect x="0.41" y="0.41" class="st2" width="50.2" height="50.2"/>
	<polygon class="st1" points="7.13,6.17 4.53,6.17 4.53,4.78 8.91,4.78 8.91,5.97 6.89,14.35 5.12,14.35 	"/>
	<path class="st1" d="M13.65,7.15h0.49l-0.25-1.5L13.65,7.15z M12.8,8.43l0.74-3.66h0.69l0.74,3.66h-0.62l-0.15-0.85h-0.63
		l-0.15,0.85H12.8z"/>
	<polygon class="st1" points="15.25,8.43 15.25,4.77 16.76,4.77 16.76,5.23 15.92,5.23 15.92,6.3 16.59,6.3 16.59,6.77 15.92,6.77 
		15.92,8.43 	"/>
	<polygon class="st1" points="17.02,8.43 17.02,4.77 18.52,4.77 18.52,5.23 17.68,5.23 17.68,6.3 18.35,6.3 18.35,6.77 17.68,6.77 
		17.68,8.43 	"/>
	<path class="st1" d="M19.61,7.95c0.05,0.02,0.1,0.03,0.17,0.03s0.12-0.01,0.17-0.03c0.05-0.02,0.08-0.04,0.11-0.08
		c0.03-0.03,0.05-0.07,0.06-0.12c0.02-0.05,0.03-0.1,0.03-0.15c0.01-0.05,0.01-0.11,0.01-0.18V5.76c0-0.09,0-0.16-0.01-0.22
		c-0.01-0.06-0.03-0.11-0.05-0.17c-0.03-0.05-0.06-0.09-0.12-0.12c-0.05-0.03-0.12-0.04-0.2-0.04c-0.08,0-0.15,0.01-0.2,0.04
		c-0.05,0.03-0.09,0.06-0.12,0.12c-0.02,0.05-0.04,0.11-0.05,0.17C19.4,5.6,19.4,5.68,19.4,5.76v1.66c0,0.07,0,0.13,0.01,0.18
		c0.01,0.05,0.02,0.1,0.03,0.15c0.02,0.05,0.04,0.09,0.06,0.12C19.52,7.91,19.56,7.93,19.61,7.95 M19.77,8.47
		c-0.38,0-0.65-0.1-0.81-0.31c-0.16-0.2-0.25-0.5-0.25-0.9V5.92c0-0.19,0.02-0.36,0.06-0.51c0.04-0.14,0.1-0.27,0.18-0.37
		c0.08-0.1,0.19-0.18,0.33-0.23c0.14-0.05,0.3-0.08,0.49-0.08c0.38,0,0.64,0.1,0.81,0.3c0.16,0.2,0.25,0.5,0.25,0.89v1.35
		c0,0.19-0.02,0.36-0.06,0.5c-0.04,0.14-0.1,0.27-0.18,0.38c-0.08,0.11-0.19,0.19-0.33,0.24C20.13,8.45,19.97,8.47,19.77,8.47"/>
	<path class="st1" d="M21.89,6.33h0.16c0.2,0,0.34-0.04,0.42-0.13c0.08-0.08,0.12-0.23,0.12-0.43c0-0.2-0.04-0.34-0.11-0.42
		c-0.07-0.08-0.2-0.13-0.4-0.13h-0.2V6.33z M21.23,8.43V4.77h0.84c0.19,0,0.36,0.02,0.5,0.05c0.14,0.03,0.26,0.08,0.36,0.16
		c0.1,0.07,0.18,0.17,0.23,0.3c0.05,0.13,0.08,0.28,0.08,0.47c0,0.23-0.03,0.42-0.1,0.56c-0.07,0.15-0.18,0.25-0.34,0.32l0.51,1.8
		h-0.67l-0.44-1.67h-0.3v1.67H21.23z"/>
	<path class="st1" d="M24.31,7.96h0.19c0.07,0,0.12-0.01,0.17-0.02c0.05-0.01,0.09-0.03,0.13-0.04c0.03-0.02,0.06-0.04,0.08-0.08
		c0.02-0.04,0.04-0.07,0.05-0.1s0.02-0.08,0.03-0.14c0.01-0.06,0.01-0.12,0.01-0.16c0-0.04,0-0.11,0-0.2V5.89c0-0.09,0-0.16,0-0.21
		c0-0.05-0.01-0.11-0.02-0.16c-0.01-0.05-0.03-0.1-0.05-0.12c-0.02-0.03-0.05-0.06-0.08-0.08c-0.04-0.02-0.08-0.04-0.13-0.05
		c-0.05-0.01-0.12-0.01-0.19-0.01h-0.18V7.96z M23.64,8.43V4.77h0.85c0.22,0,0.41,0.02,0.55,0.07c0.15,0.04,0.27,0.11,0.36,0.21
		c0.09,0.1,0.15,0.21,0.19,0.35c0.04,0.14,0.06,0.31,0.06,0.51v1.32c0,0.21-0.02,0.39-0.06,0.53c-0.04,0.15-0.1,0.27-0.19,0.37
		c-0.09,0.1-0.2,0.18-0.35,0.22c-0.15,0.05-0.32,0.07-0.54,0.07H23.64z"/>
	<path class="st1" d="M26.66,7.15h0.49l-0.25-1.5L26.66,7.15z M25.81,8.43l0.74-3.66h0.69l0.74,3.66h-0.62l-0.15-0.85h-0.63
		l-0.15,0.85H25.81z"/>
	<path class="st1" d="M28.93,7.96h0.24c0.2,0,0.34-0.05,0.41-0.14c0.08-0.09,0.11-0.25,0.11-0.46c0-0.22-0.04-0.38-0.13-0.48
		c-0.09-0.1-0.23-0.15-0.43-0.15h-0.21V7.96z M28.93,6.26h0.21c0.2,0,0.33-0.04,0.4-0.13c0.07-0.08,0.11-0.23,0.11-0.42
		c0-0.1-0.01-0.19-0.04-0.25c-0.02-0.06-0.07-0.11-0.12-0.14c-0.06-0.03-0.12-0.05-0.19-0.06c-0.07-0.01-0.16-0.02-0.28-0.02h-0.09
		V6.26z M28.26,8.43V4.77h0.9c0.17,0,0.32,0.01,0.44,0.05c0.13,0.03,0.24,0.08,0.34,0.15c0.1,0.07,0.17,0.17,0.22,0.29
		c0.05,0.12,0.07,0.27,0.07,0.45c0,0.45-0.18,0.7-0.54,0.76c0.22,0.04,0.38,0.14,0.48,0.28c0.11,0.15,0.16,0.36,0.16,0.62
		c0,0.35-0.09,0.61-0.26,0.79c-0.18,0.18-0.43,0.27-0.77,0.27H28.26z"/>
	<polygon class="st1" points="30.68,8.43 30.68,4.77 31.34,4.77 31.34,7.97 32.22,7.97 32.22,8.43 	"/>
	<polygon class="st1" points="32.48,8.43 32.48,4.77 34.01,4.77 34.01,5.24 33.15,5.24 33.15,6.29 33.83,6.29 33.83,6.76 
		33.15,6.76 33.15,7.97 34.03,7.97 34.03,8.43 	"/>
	<path class="st1" d="M35.99,7.15h0.49l-0.25-1.5L35.99,7.15z M35.14,8.43l0.74-3.66h0.69l0.74,3.66H36.7l-0.15-0.85h-0.63
		l-0.15,0.85H35.14z"/>
	<polygon class="st1" points="37.59,8.43 37.59,4.77 38.05,4.77 38.95,6.84 38.95,4.77 39.5,4.77 39.5,8.43 39.06,8.43 38.16,6.25 
		38.16,8.43 	"/>
	<path class="st1" d="M40.62,7.96h0.19c0.07,0,0.12-0.01,0.17-0.02c0.05-0.01,0.09-0.03,0.13-0.04c0.03-0.02,0.06-0.04,0.08-0.08
		c0.02-0.04,0.04-0.07,0.05-0.1c0.01-0.03,0.02-0.08,0.03-0.14c0.01-0.06,0.01-0.12,0.01-0.16c0-0.04,0-0.11,0-0.2V5.89
		c0-0.09,0-0.16,0-0.21c0-0.05-0.01-0.11-0.02-0.16c-0.01-0.05-0.03-0.1-0.05-0.12s-0.05-0.06-0.08-0.08
		C41.09,5.29,41.05,5.27,41,5.26c-0.05-0.01-0.12-0.01-0.19-0.01h-0.18V7.96z M39.95,8.43V4.77h0.85c0.22,0,0.41,0.02,0.55,0.07
		c0.15,0.04,0.27,0.11,0.36,0.21c0.09,0.1,0.15,0.21,0.19,0.35c0.04,0.14,0.06,0.31,0.06,0.51v1.32c0,0.21-0.02,0.39-0.06,0.53
		c-0.04,0.15-0.1,0.27-0.19,0.37c-0.09,0.1-0.2,0.18-0.35,0.22c-0.15,0.05-0.32,0.07-0.54,0.07H39.95z"/>
	<path class="st1" d="M13.98,14.45c-0.16,0-0.3-0.02-0.42-0.06c-0.12-0.04-0.22-0.09-0.3-0.17c-0.08-0.07-0.14-0.16-0.19-0.26
		c-0.05-0.1-0.08-0.22-0.1-0.34c-0.02-0.12-0.03-0.25-0.03-0.4v-1.28c0-0.16,0.01-0.3,0.03-0.42c0.02-0.12,0.05-0.24,0.1-0.34
		c0.05-0.11,0.11-0.19,0.19-0.26c0.08-0.07,0.18-0.12,0.3-0.16c0.12-0.04,0.26-0.06,0.42-0.06c0.18,0,0.34,0.02,0.47,0.07
		c0.13,0.05,0.23,0.12,0.31,0.21c0.08,0.09,0.13,0.2,0.16,0.33c0.03,0.13,0.05,0.27,0.05,0.44v0.31h-0.64v-0.31
		c0-0.18-0.01-0.31-0.03-0.37c-0.04-0.12-0.13-0.19-0.28-0.2h-0.04c-0.06,0-0.1,0.01-0.15,0.02c-0.04,0.01-0.08,0.03-0.1,0.06
		c-0.03,0.03-0.05,0.06-0.06,0.09c-0.02,0.03-0.03,0.07-0.04,0.13c-0.01,0.05-0.01,0.1-0.02,0.14c0,0.04,0,0.1,0,0.17v1.55
		c0,0.21,0.03,0.37,0.08,0.46c0.05,0.09,0.15,0.14,0.29,0.14c0.05,0,0.09-0.01,0.12-0.02c0.04-0.01,0.07-0.02,0.09-0.04
		c0.02-0.02,0.05-0.04,0.06-0.07c0.02-0.03,0.03-0.06,0.04-0.09c0.01-0.03,0.02-0.06,0.02-0.11c0-0.05,0.01-0.09,0.01-0.12
		c0-0.03,0-0.08,0-0.14v-0.33h0.64v0.3c0,0.14-0.01,0.26-0.03,0.37c-0.02,0.11-0.05,0.21-0.1,0.31c-0.05,0.1-0.11,0.17-0.18,0.24
		c-0.07,0.06-0.17,0.11-0.28,0.15C14.26,14.43,14.13,14.45,13.98,14.45"/>
	<polygon class="st1" points="15.33,14.41 15.33,10.75 16,10.75 16,13.95 16.88,13.95 16.88,14.41 	"/>
	<polygon class="st1" points="17.14,14.41 17.14,10.75 18.67,10.75 18.67,11.22 17.81,11.22 17.81,12.27 18.49,12.27 18.49,12.74 
		17.81,12.74 17.81,13.95 18.68,13.95 18.68,14.41 	"/>
	<path class="st1" d="M19.64,13.12h0.49l-0.25-1.5L19.64,13.12z M18.79,14.41l0.74-3.66h0.69l0.74,3.66h-0.62l-0.15-0.85h-0.63
		l-0.15,0.85H18.79z"/>
	<polygon class="st1" points="21.23,14.41 21.23,10.75 21.69,10.75 22.59,12.82 22.59,10.75 23.14,10.75 23.14,14.41 22.7,14.41 
		21.8,12.23 21.8,14.41 	"/>
	<polygon class="st1" points="24.61,14.41 24.61,10.75 26.14,10.75 26.14,11.22 25.28,11.22 25.28,12.27 25.96,12.27 25.96,12.74 
		25.28,12.74 25.28,13.95 26.15,13.95 26.15,14.41 	"/>
	<polygon class="st1" points="26.45,14.41 26.45,10.75 26.91,10.75 27.8,12.82 27.8,10.75 28.35,10.75 28.35,14.41 27.92,14.41 
		27.01,12.23 27.01,14.41 	"/>
	<polygon class="st1" points="28.81,14.41 28.81,10.75 30.34,10.75 30.34,11.22 29.48,11.22 29.48,12.27 30.16,12.27 30.16,12.74 
		29.48,12.74 29.48,13.95 30.35,13.95 30.35,14.41 	"/>
	<path class="st1" d="M31.31,12.31h0.16c0.2,0,0.34-0.04,0.42-0.13c0.08-0.08,0.12-0.23,0.12-0.43c0-0.2-0.04-0.34-0.11-0.42
		c-0.07-0.08-0.2-0.13-0.4-0.13h-0.2V12.31z M30.65,14.41v-3.66h0.84c0.19,0,0.36,0.02,0.5,0.05c0.14,0.03,0.26,0.08,0.36,0.16
		c0.1,0.07,0.18,0.17,0.23,0.3c0.05,0.13,0.08,0.28,0.08,0.47c0,0.23-0.03,0.42-0.1,0.56c-0.07,0.15-0.18,0.25-0.34,0.32l0.51,1.8
		h-0.67l-0.44-1.67h-0.3v1.67H30.65z"/>
	<path class="st1" d="M33.98,14.46c-0.35,0-0.59-0.11-0.75-0.32C33.08,13.92,33,13.6,33,13.19V12c0-0.21,0.02-0.39,0.05-0.54
		c0.03-0.15,0.09-0.29,0.17-0.4c0.08-0.11,0.19-0.2,0.32-0.26c0.14-0.06,0.3-0.09,0.5-0.09c0.36,0,0.62,0.09,0.78,0.27
		c0.16,0.18,0.24,0.45,0.24,0.81v0.18h-0.64v-0.19c0-0.08,0-0.15-0.01-0.2c0-0.05-0.01-0.1-0.03-0.16
		c-0.01-0.05-0.03-0.09-0.06-0.12c-0.03-0.03-0.06-0.05-0.11-0.07c-0.05-0.02-0.1-0.03-0.17-0.03c-0.05,0-0.09,0.01-0.13,0.02
		c-0.04,0.01-0.07,0.03-0.1,0.05c-0.03,0.02-0.05,0.04-0.07,0.08c-0.02,0.03-0.03,0.07-0.04,0.1c-0.01,0.03-0.02,0.07-0.02,0.12
		c-0.01,0.05-0.01,0.09-0.01,0.13c0,0.04,0,0.09,0,0.15v1.48c0,0.22,0.03,0.38,0.08,0.48c0.05,0.1,0.16,0.15,0.31,0.15
		c0.08,0,0.15-0.01,0.2-0.05c0.05-0.03,0.1-0.08,0.13-0.14c0.03-0.06,0.05-0.13,0.06-0.21c0.01-0.08,0.02-0.17,0.02-0.29v-0.3h-0.39
		v-0.43h0.99v1.86h-0.43l-0.05-0.37C34.49,14.32,34.28,14.46,33.98,14.46"/>
	<polygon class="st1" points="35.98,14.41 35.98,13.02 35.24,10.75 35.86,10.75 36.31,12.21 36.74,10.75 37.36,10.75 36.62,13.02 
		36.62,14.41 	"/>
	<path class="st1" d="M25.53,36.05c-2.12,0-3.84-1.72-3.84-3.84c0-1.73,1.14-3.19,2.7-3.67v1.43c-0.81,0.42-1.37,1.26-1.37,2.24
		c0,1.39,1.13,2.52,2.52,2.52c1.39,0,2.52-1.13,2.52-2.52c0-0.98-0.56-1.83-1.38-2.24v-1.43c1.57,0.48,2.71,1.95,2.71,3.67
		C29.38,34.33,27.66,36.05,25.53,36.05 M24.98,27.79c0-0.25,0.25-0.52,0.55-0.52c0.3,0,0.55,0.27,0.55,0.52v2.54
		c0,0.25-0.24,0.51-0.55,0.51c-0.3,0-0.55-0.27-0.55-0.51V27.79z M25.53,24.87c-4.08,0-7.39,3.31-7.39,7.39
		c0,4.08,3.31,7.39,7.39,7.39s7.39-3.31,7.39-7.39C32.92,28.18,29.61,24.87,25.53,24.87"/>
	<path class="st1" d="M17.05,32.2c0-0.34-0.3-0.61-0.57-0.61h-3.24c-0.27,0-0.57,0.27-0.57,0.61c0,0.34,0.3,0.61,0.57,0.61h3.24
		C16.75,32.8,17.05,32.53,17.05,32.2"/>
	<path class="st1" d="M38.4,32.2c0-0.34-0.3-0.61-0.57-0.61h-3.24c-0.27,0-0.57,0.27-0.57,0.61c0,0.34,0.3,0.61,0.57,0.61h3.24
		C38.1,32.8,38.4,32.53,38.4,32.2"/>
	<path class="st1" d="M25.53,45.06c0.33,0,0.61-0.3,0.61-0.57v-3.24c0-0.27-0.27-0.57-0.61-0.57c-0.34,0-0.61,0.3-0.61,0.57v3.24
		C24.92,44.76,25.2,45.06,25.53,45.06"/>
	<path class="st1" d="M36.7,38.59c0.17-0.29,0.04-0.67-0.19-0.81l-2.81-1.61c-0.24-0.14-0.63-0.05-0.8,0.24
		c-0.17,0.29-0.04,0.68,0.19,0.81l2.81,1.61C36.14,38.97,36.53,38.88,36.7,38.59"/>
	<path class="st1" d="M19.14,43.36c0.29,0.17,0.67,0.04,0.81-0.19l1.61-2.81c0.14-0.24,0.05-0.63-0.24-0.8
		c-0.29-0.17-0.68-0.04-0.81,0.19l-1.61,2.81C18.76,42.8,18.85,43.2,19.14,43.36"/>
	<path class="st1" d="M31.95,43.35c0.29-0.17,0.38-0.56,0.24-0.79l-1.61-2.81c-0.14-0.24-0.52-0.36-0.81-0.19
		c-0.29,0.17-0.38,0.56-0.24,0.8l1.61,2.81C31.27,43.39,31.65,43.52,31.95,43.35"/>
	<path class="st1" d="M14.38,38.61c0.17,0.29,0.56,0.38,0.79,0.24l2.81-1.61c0.24-0.14,0.36-0.52,0.19-0.81
		c-0.17-0.29-0.56-0.38-0.8-0.24l-2.81,1.61C14.34,37.93,14.21,38.32,14.38,38.61"/>
	<path class="st1" d="M25.53,23.71c0.33,0,0.61-0.3,0.61-0.57v-3.24c0-0.27-0.27-0.57-0.61-0.57c-0.34,0-0.61,0.3-0.61,0.57v3.24
		C24.92,23.41,25.2,23.71,25.53,23.71"/>
	<path class="st1" d="M18.17,27.98c0.17-0.29,0.04-0.67-0.19-0.81l-2.81-1.61c-0.24-0.14-0.63-0.05-0.8,0.24
		c-0.17,0.29-0.04,0.68,0.19,0.81l2.81,1.61C17.61,28.36,18,28.27,18.17,27.98"/>
	<path class="st1" d="M29.75,24.83c0.29,0.17,0.67,0.04,0.81-0.19l1.61-2.81c0.14-0.24,0.05-0.63-0.24-0.8
		c-0.29-0.17-0.68-0.04-0.81,0.19l-1.61,2.81C29.37,24.27,29.46,24.67,29.75,24.83"/>
	<path class="st1" d="M21.3,24.84c0.29-0.17,0.38-0.56,0.24-0.79l-1.61-2.81c-0.14-0.24-0.52-0.36-0.81-0.19
		c-0.29,0.17-0.38,0.56-0.24,0.8l1.61,2.81C20.63,24.89,21.01,25.01,21.3,24.84"/>
	<path class="st1" d="M32.89,27.97c0.17,0.29,0.56,0.38,0.79,0.24l2.81-1.61c0.24-0.14,0.36-0.52,0.19-0.81
		c-0.17-0.29-0.56-0.38-0.8-0.24l-2.81,1.61C32.84,27.29,32.72,27.68,32.89,27.97"/>
</g>
</svg>
