<?xml version="1.0" encoding="utf-8"?>
<!-- Generator: Adobe Illustrator 26.5.0, SVG Export Plug-In . SVG Version: 6.00 Build 0)  -->
<svg version="1.1" id="Capa_1" xmlns="http://www.w3.org/2000/svg" xmlns:xlink="http://www.w3.org/1999/xlink" x="0px" y="0px"
	 viewBox="0 0 51.02 51.02" style="enable-background:new 0 0 51.02 51.02;" xml:space="preserve">
<style type="text/css">
	.st0{fill:#D28D0E;}
	.st1{fill:#FFFFFF;}
	.st2{fill:#FBB800;}
	.st3{fill:#931831;}
	.st4{fill:#F59D08;}
	.st5{fill:#4A7634;}
	.st6{fill:#1F3262;}
	.st7{fill:#EC6411;}
	.st8{fill:#E2071F;}
	.st9{fill:none;stroke:#FFFFFF;stroke-width:0.5939;stroke-linecap:round;stroke-miterlimit:10;}
	.st10{fill:#D6A102;}
	.st11{fill:#289438;}
	.st12{fill:#C11728;}
	.st13{fill:#E6331D;}
	.st14{fill:#DD0979;}
	.st15{fill:#0076B8;}
	.st16{fill:#3EA635;}
	.st17{fill:#004C84;}
	.st18{fill:#00A7D7;}
</style>
<g>
	
		<rect x="0.44" y="0.44" transform="matrix(1.362053e-03 -1 1 1.362053e-03 -0.0347 50.9889)" class="st5" width="50.13" height="50.13"/>
	<path class="st1" d="M4.85,6.67C4.77,6.71,4.52,6.81,4.1,6.96C3.77,7.07,3.56,7.15,3.47,7.19V5.83c0.27-0.1,0.59-0.26,0.98-0.47
		C4.83,5.14,5.1,4.95,5.26,4.78h1.43v9.57H4.85V6.67z"/>
	<path class="st1" d="M8.23,13.76c-0.4-0.5-0.6-1.22-0.6-2.14v-0.33h1.82v0.32c0.01,0.49,0.07,0.84,0.18,1.05
		c0.11,0.21,0.31,0.32,0.6,0.32c0.29,0,0.49-0.11,0.59-0.32c0.1-0.22,0.15-0.57,0.15-1.06c0-0.51-0.08-0.89-0.22-1.14
		c-0.15-0.25-0.43-0.38-0.83-0.38c-0.02-0.01-0.13-0.01-0.33-0.01V8.72h0.3c0.41,0,0.69-0.11,0.85-0.33
		c0.16-0.22,0.24-0.58,0.24-1.09c0-0.41-0.06-0.71-0.17-0.91c-0.11-0.2-0.32-0.3-0.61-0.3c-0.28,0-0.47,0.11-0.57,0.32
		c-0.1,0.21-0.16,0.53-0.17,0.95v0.43H7.63V7.27c0-0.84,0.22-1.48,0.67-1.94c0.44-0.46,1.07-0.69,1.88-0.69
		c0.83,0,1.47,0.22,1.91,0.66c0.45,0.44,0.67,1.08,0.67,1.9c0,0.55-0.11,1.01-0.34,1.39c-0.23,0.37-0.52,0.61-0.87,0.7
		c0.81,0.3,1.22,1.05,1.22,2.26c0,0.92-0.21,1.64-0.61,2.17c-0.41,0.52-1.06,0.79-1.95,0.79C9.29,14.51,8.64,14.26,8.23,13.76"/>
	<path class="st1" d="M17.57,8.47c-0.16,0-0.3-0.02-0.42-0.06c-0.12-0.04-0.22-0.09-0.3-0.17c-0.08-0.07-0.14-0.16-0.19-0.26
		c-0.05-0.1-0.08-0.22-0.1-0.34c-0.02-0.12-0.03-0.25-0.03-0.4V5.97c0-0.16,0.01-0.3,0.03-0.42c0.02-0.12,0.05-0.24,0.1-0.34
		c0.05-0.11,0.11-0.19,0.19-0.26c0.08-0.07,0.18-0.12,0.3-0.16c0.12-0.04,0.26-0.06,0.42-0.06c0.18,0,0.34,0.02,0.47,0.07
		c0.13,0.05,0.23,0.12,0.31,0.21c0.08,0.09,0.13,0.2,0.16,0.33c0.03,0.13,0.05,0.27,0.05,0.44V6.1h-0.64V5.79
		c0-0.18-0.01-0.31-0.03-0.37c-0.04-0.12-0.13-0.19-0.28-0.2h-0.04c-0.06,0-0.1,0.01-0.15,0.02c-0.04,0.01-0.08,0.03-0.1,0.06
		c-0.03,0.03-0.05,0.06-0.06,0.09c-0.02,0.03-0.03,0.07-0.04,0.13c-0.01,0.05-0.01,0.1-0.02,0.14c0,0.04,0,0.1,0,0.17v1.55
		c0,0.21,0.03,0.37,0.08,0.46c0.05,0.09,0.15,0.14,0.29,0.14c0.05,0,0.09-0.01,0.12-0.02c0.04-0.01,0.07-0.02,0.09-0.04
		c0.02-0.02,0.05-0.04,0.06-0.07c0.02-0.03,0.03-0.06,0.04-0.09c0.01-0.03,0.02-0.06,0.02-0.11c0-0.05,0.01-0.09,0.01-0.12
		c0-0.03,0-0.08,0-0.14V7.06h0.64v0.3c0,0.14-0.01,0.26-0.03,0.37c-0.02,0.11-0.05,0.21-0.1,0.31c-0.05,0.1-0.11,0.17-0.18,0.24
		c-0.07,0.06-0.17,0.11-0.28,0.15C17.86,8.46,17.73,8.47,17.57,8.47"/>
	<polygon class="st1" points="18.89,8.43 18.89,4.77 19.55,4.77 19.55,7.97 20.43,7.97 20.43,8.43 	"/>
	<rect x="20.67" y="4.77" class="st1" width="0.66" height="3.66"/>
	<polygon class="st1" points="21.75,8.43 21.81,4.77 22.49,4.77 23.02,7.34 23.56,4.77 24.23,4.77 24.29,8.43 23.79,8.43 
		23.75,5.91 23.22,8.43 22.83,8.43 22.3,5.9 22.26,8.43 	"/>
	<path class="st1" d="M25.36,7.15h0.49l-0.25-1.5L25.36,7.15z M24.51,8.43l0.74-3.66h0.69l0.74,3.66h-0.62l-0.15-0.85h-0.63
		l-0.15,0.85H24.51z"/>
	<polygon class="st1" points="27.14,8.43 27.14,5.26 26.53,5.26 26.53,4.77 28.4,4.77 28.4,5.26 27.81,5.26 27.81,8.43 	"/>
	<polygon class="st1" points="28.56,8.43 28.56,4.77 30.09,4.77 30.09,5.24 29.23,5.24 29.23,6.29 29.91,6.29 29.91,6.76 
		29.23,6.76 29.23,7.97 30.1,7.97 30.1,8.43 	"/>
	<path class="st1" d="M17.25,13.12h0.49l-0.25-1.5L17.25,13.12z M16.4,14.41l0.74-3.66h0.69l0.74,3.66h-0.62l-0.15-0.85h-0.63
		l-0.15,0.85H16.4z"/>
	<path class="st1" d="M19.79,14.45c-0.16,0-0.3-0.02-0.42-0.06c-0.12-0.04-0.22-0.09-0.3-0.17c-0.08-0.07-0.14-0.16-0.19-0.26
		c-0.05-0.1-0.08-0.22-0.1-0.34c-0.02-0.12-0.03-0.25-0.03-0.4v-1.28c0-0.16,0.01-0.3,0.03-0.42c0.02-0.12,0.05-0.24,0.1-0.34
		c0.05-0.11,0.11-0.19,0.19-0.26c0.08-0.07,0.18-0.12,0.3-0.16c0.12-0.04,0.26-0.06,0.42-0.06c0.18,0,0.34,0.02,0.47,0.07
		c0.13,0.05,0.23,0.12,0.31,0.21c0.08,0.09,0.13,0.2,0.16,0.33c0.03,0.13,0.05,0.27,0.05,0.44v0.31h-0.64v-0.31
		c0-0.18-0.01-0.31-0.03-0.37c-0.04-0.12-0.13-0.19-0.28-0.2h-0.04c-0.06,0-0.1,0.01-0.15,0.02c-0.04,0.01-0.08,0.03-0.1,0.06
		c-0.03,0.03-0.05,0.06-0.06,0.09c-0.02,0.03-0.03,0.07-0.04,0.13c-0.01,0.05-0.01,0.1-0.02,0.14c0,0.04,0,0.1,0,0.17v1.55
		c0,0.21,0.03,0.37,0.08,0.46c0.05,0.09,0.15,0.14,0.29,0.14c0.05,0,0.09-0.01,0.12-0.02c0.04-0.01,0.07-0.02,0.09-0.04
		c0.02-0.02,0.05-0.04,0.06-0.07c0.02-0.03,0.03-0.06,0.04-0.09c0.01-0.03,0.02-0.07,0.02-0.11c0-0.05,0.01-0.09,0.01-0.12
		c0-0.03,0-0.08,0-0.14v-0.33h0.64v0.3c0,0.14-0.01,0.26-0.03,0.37c-0.02,0.11-0.05,0.21-0.1,0.31c-0.05,0.1-0.11,0.18-0.18,0.24
		c-0.07,0.06-0.17,0.11-0.28,0.15C20.07,14.43,19.94,14.45,19.79,14.45"/>
	<polygon class="st1" points="21.46,14.41 21.46,11.24 20.85,11.24 20.85,10.75 22.72,10.75 22.72,11.24 22.13,11.24 22.13,14.41 	
		"/>
	<rect x="22.9" y="10.75" class="st1" width="0.66" height="3.66"/>
	<path class="st1" d="M24.81,13.93c0.05,0.02,0.1,0.03,0.17,0.03c0.06,0,0.12-0.01,0.17-0.03c0.05-0.02,0.08-0.04,0.11-0.08
		c0.03-0.03,0.05-0.07,0.06-0.12c0.02-0.05,0.03-0.1,0.03-0.15c0.01-0.05,0.01-0.11,0.01-0.18v-1.66c0-0.09,0-0.16-0.01-0.22
		c-0.01-0.06-0.03-0.11-0.05-0.17c-0.03-0.05-0.06-0.09-0.12-0.12c-0.05-0.03-0.12-0.04-0.2-0.04c-0.08,0-0.15,0.01-0.2,0.04
		c-0.05,0.03-0.09,0.06-0.12,0.12c-0.02,0.05-0.04,0.11-0.05,0.17c-0.01,0.06-0.01,0.13-0.01,0.22v1.66c0,0.07,0,0.13,0.01,0.18
		c0.01,0.05,0.02,0.1,0.03,0.15c0.02,0.05,0.04,0.09,0.06,0.12C24.73,13.89,24.76,13.91,24.81,13.93 M24.98,14.45
		c-0.38,0-0.65-0.1-0.81-0.31c-0.16-0.2-0.25-0.5-0.25-0.9V11.9c0-0.19,0.02-0.36,0.06-0.51c0.04-0.14,0.1-0.27,0.18-0.37
		c0.08-0.1,0.19-0.18,0.33-0.23c0.14-0.05,0.3-0.08,0.49-0.08c0.38,0,0.64,0.1,0.81,0.3c0.16,0.2,0.25,0.5,0.25,0.89v1.35
		c0,0.19-0.02,0.36-0.06,0.5c-0.04,0.14-0.1,0.27-0.18,0.38c-0.08,0.11-0.19,0.19-0.33,0.24C25.33,14.43,25.17,14.45,24.98,14.45"/>
	<polygon class="st1" points="26.38,14.41 26.38,10.75 26.84,10.75 27.74,12.82 27.74,10.75 28.29,10.75 28.29,14.41 27.85,14.41 
		26.95,12.23 26.95,14.41 	"/>
	<path class="st1" d="M33.51,33.72c-0.21-0.06-1.08-1.27-0.39-2.06c0.12-0.13-0.23-0.52-0.14-0.52c0.38-0.03,0.58,0.21,0.68,0.54
		c0.01,0.15,0.01,0.3,0.01,0.45C33.68,32.68,33.62,33.21,33.51,33.72 M31.37,37.65c-0.08-0.02-0.16-0.05-0.24-0.09
		c-0.42-0.22-0.37,0.13-0.58,0.05c-0.21-0.08,0.24-0.56-0.39-0.15c-0.63,0.41-0.46-0.06-0.73-0.76c-0.27-0.69,0.32-1.48,0.81-1.66
		c0.68-0.24,1.1-0.29,1.41-0.37c0.94-0.23,1.13-0.79,1.3-0.45c0.03,0.06,0.06,0.12,0.09,0.18c0.05,0.1,0.12,0.31,0.12,0.51
		C32.76,35.94,32.15,36.88,31.37,37.65 M25.88,39.9c-0.76,0-1.49-0.11-2.19-0.32c-0.1-0.08-0.16-0.22-0.09-0.38
		c0.24-0.63,0.96-0.87,1.53-0.93c1.26-0.12,2.92,0.82,3.18,0.67c0.26-0.15,0.8-0.84,1.58-0.81c0.53,0.02,0.53,0.11,0.71,0.18
		C29.29,39.31,27.66,39.91,25.88,39.9 M24.83,34.83c-0.11,0.18-0.4,1.48-0.6,1.33c-0.2-0.15,0.08-1.52,0.14-1.62
		C24.68,33.97,25.34,34,24.83,34.83 M28.01,33.29c-0.15,0.14-0.55,0.09-0.74-0.07c-0.2-0.15,0.12-0.4,0.24-0.41
		C27.77,32.78,28.16,33.15,28.01,33.29 M31.45,33.31c-0.08-0.03-0.16-0.11-0.22-0.3c-0.06-0.19,0.1-0.3,0.25-0.22
		c0.16,0.08,0.37,0.32,0.37,0.45S31.53,33.34,31.45,33.31 M31.78,33.55c0.26-0.02,0.65,0.34,0.5,0.48
		c-0.15,0.14-0.55,0.09-0.74-0.07C31.34,33.81,31.66,33.56,31.78,33.55 M23.42,36.64c-0.15,0.59-0.33,0.81-0.48,1
		c-0.15,0.19-0.71,0.43-1.06,0.4c-0.35-0.03-0.4-0.97-0.4-1.46c0-0.17-0.24,0.33-0.36-0.68c-0.08-0.65-0.49,0.07-0.52-0.37
		c-0.03-0.43-0.24-0.35-0.46-0.61c-0.22-0.27-0.49,0.03-0.79,0.16c-0.3,0.13-0.18,0.2-0.61,0.07c-0.01,0-0.02-0.01-0.03-0.01
		c-0.39-0.93-0.61-1.96-0.61-3.03c0-0.26,0.02-0.52,0.04-0.78c0.01-0.03,0.03-0.05,0.05-0.07c0.41-0.49,0.4-0.6,0.4-0.6l0.46-0.16
		c0,0,0.73,0.11,1.27,0.32c0.45,0.17,1.16,0.55,1.57,0.39c0.3-0.12,0.53-0.29,0.5-0.53c-0.03-0.31-0.28-0.39-0.58-0.18
		c-0.11,0.08-0.34-0.47-0.53-0.44c-0.18,0.03,0.23,0.64,0.07,0.67c-0.16,0.03-0.47-0.64-0.52-0.75c-0.05-0.11-0.29-0.38-0.51-0.17
		c-0.46,0.44-1.21,0.41-1.35,0.52c-0.46,0.34-0.58-0.11-0.57-0.39c0.02-0.06,0.04-0.13,0.06-0.19c0.15-0.16,0.68-0.22,0.87-0.09
		c0.2,0.13,0.35-0.03,0.42-0.12c0.08-0.08,0.05-0.21,0-0.32c-0.05-0.11,0.1-0.19,0.2-0.22c0.11-0.03,0.45-0.27,0.59-0.35
		c0.14-0.08,0.86-0.17,1.18,0c0.32,0.16,0.62,0.03,0.78-0.16c0.2-0.24,0.45-0.42,0.56-0.47c0.11-0.05-0.28-0.42-0.6-0.02
		c-0.32,0.39-0.49,0.43-0.64,0.43c-0.15,0-1.05-0.23-1.16-0.51c-0.11-0.28,0.28-0.5,0.61-0.66c0.33-0.16,1.24-0.15,1.47-0.21
		c0.47-0.1,1.08-0.34,1.38-0.13c0.3,0.2-1.27,0.56-0.75,0.84c0.18,0.1,1.02-0.48,1.3-0.62c0.67-0.34-0.65-0.46-0.48-1.16
		c0.19-0.79-1.62-0.49-2.52-0.42c1.21-0.77,2.65-1.22,4.19-1.22c3.67,0,6.74,2.55,7.56,5.97c0.01,0.17-0.02,0.29-0.04,0.36
		c-0.07,0.28-0.6,0.52-0.91,0.07c-0.08-0.11-0.41-0.43-0.4,0.11c0.01,0.54,0.52,0.6,0.03,0.92c-0.5,0.32-0.59,0.24-0.82,0.33
		c-0.23,0.08-0.45,0.64-0.4,0.93c0.05,0.3,0.76,1.11,0.24,1.08c-0.12-0.01-1.05-0.65-1.21-1.05c-0.16-0.43-0.34-0.85-0.46-1.18
		c-0.13-0.32-0.45-0.41-0.73-0.22c-0.28,0.19,0.08,0.38-0.12,0.78c-0.2,0.4-0.34,0.77-0.63,0.43c-0.76-0.87-1.86-0.44-2.03-1.41
		c-0.09-0.53-0.55-0.48-0.92-0.77c-0.38-0.3-0.59-0.46-0.65-0.24c-0.06,0.19,1.19,1.18,1.28,1.43c0.13,0.38-0.37,0.71-0.74,0.8
		c-0.37,0.09-0.53-0.21-0.89-0.59c-0.36-0.38-0.52-0.65-0.55-0.35c-0.04,0.43,0.34,1.06,0.71,1.29c0.31,0.2,0.67,0.29,0.56,0.61
		c-0.1,0.32,0,0.14-0.36,0.49c-0.35,0.35-0.42,0.46-0.4,0.95c0.02,0.49-0.1,0.51-0.18,0.92C23.75,36.4,23.58,36.05,23.42,36.64
		 M19.25,28.05c0.02-0.02,0.03-0.04,0.04-0.05c0.14-0.16,0.42-0.19,0.61-0.22c0.19-0.03,0.45,0.07,0.48,0.19
		c0.03,0.13-0.49,0.36-0.58,0.45c-0.27,0.25-0.69,0.75-0.94,0.81c-0.08,0.02-0.15,0.01-0.2-0.02
		C18.83,28.81,19.03,28.42,19.25,28.05 M19.65,27.26c0.1-0.15,0.44-0.57,0.48-0.62c0.09-0.11,0.26-0.13,0.38-0.15
		c0.12-0.02,0.28,0.04,0.3,0.13c0.02,0.09-0.05,0.44-0.11,0.49c-0.16,0.17-0.59,0.41-0.83,0.37C19.69,27.46,19.62,27.31,19.65,27.26
		 M44.39,31.89c-1.33-1.87-7.33-9.31-18.5-9.33C14.72,22.55,8.7,29.98,7.37,31.84c-0.06,0.08-0.11,0.15-0.15,0.21
		c0.04,0.06,0.09,0.13,0.14,0.21c1.33,1.86,7.33,9.31,18.5,9.33c11.17,0.02,17.19-7.42,18.52-9.28c0.06-0.08,0.11-0.15,0.14-0.21
		C44.5,32.04,44.45,31.97,44.39,31.89"/>
</g>
</svg>
