<?xml version="1.0" encoding="utf-8"?>
<!-- Generator: Adobe Illustrator 26.5.0, SVG Export Plug-In . SVG Version: 6.00 Build 0)  -->
<svg version="1.1" id="Capa_1" xmlns="http://www.w3.org/2000/svg" xmlns:xlink="http://www.w3.org/1999/xlink" x="0px" y="0px"
	 viewBox="0 0 317.48 317.48" style="enable-background:new 0 0 317.48 317.48;" xml:space="preserve">
<style type="text/css">
	.st0{fill:#64B448;}
	.st1{fill:#D09F29;}
	.st2{fill:#C32033;}
	.st3{fill:#2D9A47;}
	.st4{fill:#48773C;}
	.st5{fill:#FAB61B;}
	.st6{fill:#E8422E;}
	.st7{fill:#F59C28;}
	.st8{fill:#027DBC;}
	.st9{fill:#8F1839;}
	.st10{fill:#01ADD8;}
	.st11{fill:#ED6E28;}
	.st12{fill:#E52430;}
	.st13{fill:#E01C83;}
	.st14{fill:#1E3666;}
	.st15{fill:#CD8B2A;}
	.st16{fill:#00568B;}
</style>
<g>
	<path class="st0" d="M81.8,113.6c3.93-6.69,8.71-12.82,14.18-18.25l-46.51-51C37.78,55.53,27.8,68.5,19.95,82.79L81.8,113.6z"/>
	<path class="st1" d="M195.82,77.57c7.04,3.22,13.59,7.34,19.5,12.22l46.65-50.92c-12.29-10.59-26.22-19.34-41.33-25.79
		L195.82,77.57z"/>
	<path class="st2" d="M302.63,92.9l-61.82,30.82c2.96,6.89,5.05,14.21,6.19,21.84l68.77-6.5
		C313.74,122.79,309.23,107.27,302.63,92.9"/>
	<path class="st3" d="M236.38,114.78l61.81-30.81c-7.66-14.23-17.42-27.15-28.89-38.35l-46.64,50.92
		C227.97,101.99,232.59,108.12,236.38,114.78"/>
	<path class="st4" d="M69.52,158.71c0-1.39,0.05-2.78,0.11-4.16l-68.78-6.16c-0.21,3.41-0.35,6.85-0.35,10.32
		c0,13.19,1.64,26,4.68,38.26l66.43-19.06C70.25,171.73,69.52,165.31,69.52,158.71"/>
	<path class="st5" d="M227.72,215.24c-4.89,5.95-10.53,11.26-16.78,15.77l36.32,58.8c13.48-9.13,25.48-20.29,35.56-33.02
		L227.72,215.24z"/>
	<path class="st6" d="M247.96,158.71c0,6.51-0.7,12.86-2.04,18.97l66.42,19.09c3.03-12.19,4.65-24.95,4.65-38.06
		c0-3.26-0.11-6.5-0.31-9.71l-68.77,6.49C247.94,156.57,247.96,157.63,247.96,158.71"/>
	<path class="st7" d="M90.87,216.56L35.9,258.34c10.23,12.59,22.34,23.57,35.9,32.52l36.31-58.73
		C101.71,227.71,95.92,222.46,90.87,216.56"/>
	<path class="st8" d="M70.63,144.63c1.23-7.77,3.49-15.2,6.59-22.16L15.43,91.68C8.6,106.21,3.92,121.94,1.79,138.46L70.63,144.63z"
		/>
	<path class="st9" d="M238.81,295.14l-36.26-58.72c-6.59,3.73-13.69,6.64-21.16,8.6l12.79,67.93
		C210.11,309.28,225.12,303.21,238.81,295.14"/>
	<path class="st10" d="M243.27,187.31c-2.41,7.06-5.66,13.73-9.66,19.88l55.16,41.6c8.95-12.88,16.03-27.14,20.87-42.41
		L243.27,187.31z"/>
	<path class="st11" d="M171.61,247c-4.19,0.6-8.49,0.94-12.87,0.94c-3.52,0-6.98-0.22-10.39-0.61l-12.79,67.93
		c7.57,1.11,15.31,1.7,23.18,1.7c8.74,0,17.31-0.72,25.66-2.08L171.61,247z"/>
	<path class="st12" d="M164.44,69.67c7.66,0.49,15.07,1.95,22.08,4.26l24.81-64.47c-14.76-5.21-30.5-8.3-46.89-8.87V69.67z"/>
	<path class="st13" d="M138.52,245.62c-7.73-1.8-15.09-4.61-21.9-8.28l-36.33,58.77c13.97,8,29.26,13.92,45.45,17.37L138.52,245.62z
		"/>
	<path class="st14" d="M131.92,73.61c7.17-2.26,14.72-3.64,22.54-4.01V0.53c-16.6,0.44-32.56,3.46-47.52,8.65L131.92,73.61z"/>
	<path class="st15" d="M84.82,208.62c-4.38-6.47-7.96-13.56-10.52-21.1L7.92,206.57c5.02,15.84,12.47,30.59,21.92,43.83
		L84.82,208.62z"/>
	<path class="st16" d="M103.46,88.73c5.83-4.62,12.25-8.52,19.13-11.58L97.63,12.76C82.77,19,69.07,27.45,56.92,37.69L103.46,88.73z
		"/>
</g>
</svg>
