<?xml version="1.0" encoding="utf-8"?>
<!-- Generator: Adobe Illustrator 26.0.0, SVG Export Plug-In . SVG Version: 6.00 Build 0)  -->
<svg version="1.1" id="Layer_1" xmlns="http://www.w3.org/2000/svg" xmlns:xlink="http://www.w3.org/1999/xlink" x="0px" y="0px"
	 viewBox="0 0 133.92 20.6" style="enable-background:new 0 0 133.92 20.6;" xml:space="preserve">
<g>
	<g>
		<path d="M41.58,10.42c0.26-0.43,0.5-0.86,0.78-1.28c0.31-0.47,0.38-0.46,0.74-0.05c0.05,0.06,0.16,0.07,0.25,0.07
			c0.22,0.3,0.06,0.57-0.12,0.86c-0.49,0.76-1,1.5-1.46,2.28c-0.4,0.69-0.51,1.45-0.2,2.25c0.58,0,1.11-0.15,1.56-0.5
			c0.98-0.75,1.93-1.54,2.7-2.52c0.03-0.04,0.09-0.08,0.18-0.15c-0.02,0.15-0.03,0.25-0.04,0.36c0.02,0.01,0.04,0.02,0.06,0.02
			c0.21-0.39,0.42-0.78,0.65-1.16c0.09-0.16,0.23-0.29,0.33-0.45c0.04-0.06,0.04-0.14,0.06-0.21c-0.07-0.01-0.15-0.04-0.22-0.03
			c-0.23,0.03-0.47,0.08-0.7,0.1c-0.66,0.05-0.81-0.06-1-0.69c-0.02-0.06-0.05-0.11-0.12-0.24c0.57-0.1,1.1-0.23,1.65-0.29
			c0.4-0.04,0.66-0.2,0.87-0.55c0.7-1.16,1.43-2.3,2.15-3.45c0.04-0.06,0.01-0.16,0.01-0.24c0-0.05,0-0.12,0.03-0.16
			c0.53-0.71,1.14-1.28,2.1-1.29c0.11,0,0.24,0.04,0.33,0.1c1.08,0.7,1.2,1.71,0.29,2.65c-0.19,0.19-0.51,0.28-0.79,0.34
			c-0.1,0.02-0.3-0.14-0.36-0.26c-0.09-0.17-0.13-0.37,0.08-0.54c0.45-0.35,0.64-0.83,0.65-1.53c-0.4,0.27-0.81,0.41-1.01,0.71
			c-0.89,1.28-1.71,2.61-2.55,3.91c0.6,0,1.14-0.01,1.68,0c0.17,0,0.44-0.07,0.45,0.21c0,0.12-0.18,0.25-0.31,0.43
			c0.01,0.05,0.02,0.18,0.04,0.33c-0.85-0.22-1.63,0.01-2.41,0.18c-0.09,0.02-0.19,0.11-0.23,0.19c-1.42,2.66-2.65,5.42-3.6,8.29
			c-0.21,0.64-0.31,1.32-0.49,1.97c-0.06,0.21-0.1,0.48-0.42,0.5c-0.11-0.13-0.05-0.46-0.37-0.32c-0.02,0.01-0.09-0.07-0.11-0.13
			c-0.16-0.52-0.26-1.11,0.02-1.56c0.27-0.42,0.31-0.9,0.54-1.33c0.24-0.45,0.39-0.94,0.58-1.42c0.19-0.48,0.38-0.97,0.58-1.45
			c0.16-0.37,0.33-0.73,0.5-1.1c0.01-0.03,0.09-0.07,0.11-0.06c0.04,0.02,0.11,0.08,0.11,0.11c-0.01,0.1-0.05,0.21-0.09,0.31
			c-0.54,1.48-1.08,2.97-1.62,4.45c-0.04,0.1-0.06,0.2-0.02,0.35c0.06-0.07,0.15-0.13,0.18-0.22c0.7-1.86,1.4-3.73,2.1-5.6
			c0.06-0.16,0.14-0.32,0.2-0.48c-0.03-0.02-0.06-0.03-0.09-0.05c-0.16,0.3-0.33,0.61-0.51,0.96c-0.04-0.09-0.06-0.15-0.1-0.24
			c-0.67,0.54-1.33,1.07-2.07,1.66c0.5,0.1,0.73-0.29,1.05-0.39c0.02,0.03,0.04,0.06,0.06,0.09c-0.45,0.37-0.9,0.74-1.36,1.11
			c-0.06,0.05-0.15,0.07-0.23,0.1c-0.79,0.3-2.15-0.62-2.16-1.46c0-0.25,0-0.5,0-0.74c-0.52,0.46-1.03,0.92-1.58,1.4
			c0.14,0.05,0.18,0.06,0.22,0.08c-0.01,0.02-0.01,0.04-0.03,0.06c-0.18,0.14-0.35,0.29-0.53,0.42c-0.71,0.52-1.75,0.47-2.26-0.24
			c-0.29-0.39-0.37-0.96-0.45-1.47c-0.11-0.77,0.12-1.51,0.39-2.22c0.24-0.62,0.49-1.24,0.74-1.85c0.03-0.08,0.1-0.14,0.18-0.24
			c0.06,0.11,0.09,0.17,0.15,0.28c0.07-0.39,0.38-0.66,0.2-1.07C37.49,8.24,37.62,8.09,37.71,8c0.1-0.11,0.24-0.18,0.43-0.33
			c-0.15-0.02-0.21-0.02-0.32-0.03c0.58-1.13,1.16-2.24,2.09-3.12c0.24-0.23,0.5-0.43,0.77-0.63c0.3-0.22,0.58-0.1,0.85,0.09
			C41.8,4.17,42,4.39,41.87,4.75c-0.08,0.23-0.18,0.47-0.32,0.67c-0.96,1.33-1.94,2.64-2.91,3.96c-0.05,0.07-0.13,0.14-0.19,0.21
			c-0.03-0.02-0.06-0.03-0.1-0.05c0.1-0.2,0.16-0.45,0.31-0.61c0.98-1.05,1.78-2.23,2.48-3.47c0.07-0.12,0.1-0.27,0.14-0.41
			c-0.04-0.03-0.07-0.07-0.11-0.1c-0.22,0.15-0.5,0.26-0.65,0.46c-0.55,0.71-1.1,1.43-1.56,2.2c-0.48,0.8-0.86,1.67-1.28,2.5
			c-0.03,0.06-0.05,0.12-0.03,0.21c0.18-0.19,0.35-0.38,0.53-0.57c0.03,0.02,0.05,0.04,0.08,0.06c-0.12,0.16-0.23,0.33-0.35,0.48
			c-0.71,0.89-1.08,1.92-1.2,3.04c-0.05,0.48,0.01,0.94,0.49,1.21c0.47,0.27,0.92,0.16,1.32-0.16c0.34-0.26,0.69-0.51,1-0.8
			c0.16-0.15,0.26-0.38,0.39-0.57c0.05-0.07,0.09-0.15,0.15-0.19c0.75-0.53,1.09-1.32,1.38-2.14C41.49,10.6,41.53,10.51,41.58,10.42
			z M48.37,7.51c0.6-0.85,1.15-1.63,1.71-2.41C49.5,5.51,48.74,6.59,48.37,7.51z"/>
		<path d="M63.78,12.93c-0.04,0.36-0.11,0.72-0.13,1.09c-0.02,0.47,0.16,0.61,0.55,0.37c0.59-0.38,1.26-0.75,1.66-1.31
			c0.65-0.92,1.12-1.98,1.65-2.98c0.17-0.31,0.3-0.64,0.46-0.96c0.12-0.24,0.43-0.28,0.63-0.11c0.49,0.43,0.49,0.72,0.11,1.23
			c-0.3,0.4-0.54,0.84-0.76,1.28c-0.28,0.56-0.52,1.14-0.74,1.73c-0.12,0.32,0.02,0.56,0.35,0.6c0.26,0.03,0.57,0.02,0.78-0.11
			c0.86-0.5,1.35-1.23,1.55-2.24c0.19-0.96,0.54-1.9,0.94-2.79c0.51-1.13,1.14-2.21,1.73-3.31c0.11-0.2,0.25-0.37,0.4-0.55
			c0.43-0.51,1.2-0.46,1.52,0.13c0.09,0.17,0.11,0.46,0.03,0.63c-0.38,0.81-0.79,1.62-1.23,2.4c-0.43,0.78-0.91,1.53-1.39,2.28
			c-0.29,0.46-0.62,0.9-0.96,1.32c-0.32,0.39-0.48,0.81-0.42,1.31c0.06,0.5,0.34,0.65,0.78,0.39c0.86-0.51,1.56-1.19,2.17-1.98
			c1.03-1.32,1.94-2.72,2.77-4.17c0.11-0.19,0.23-0.37-0.14-0.51c0.17-0.18,0.32-0.35,0.48-0.51c0.04,0.06,0.09,0.11,0.13,0.17
			c0.15-0.25,0.29-0.49,0.44-0.72c0.24-0.3,0.47-0.61,0.71-0.91c-0.03-0.02-0.07-0.05-0.1-0.07c-0.25,0.3-0.64,0.5-0.6,0.99
			c-0.18,0.14-0.36,0.28-0.54,0.42c0.27-0.44,0.54-0.88,0.82-1.32c0.22-0.34,0.44-0.68,0.67-1.01c0.23-0.33,0.46-0.67,0.74-0.95
			c0.39-0.39,1.13-0.27,1.43,0.2c0.07,0.11,0.13,0.23,0.22,0.39c-0.41,0.56-0.84,1.12-1.26,1.7c-0.32,0.44-0.63,0.88-0.94,1.32
			c-0.01,0.01-0.01,0.02-0.02,0.03c-0.56,0.49-0.84,1.2-1.37,1.71c-0.56,0.53-0.94,1.19-1.37,1.82c-0.09,0.13-0.23,0.23-0.31,0.37
			c-0.53,0.92-1.25,1.73-1.58,2.76c-0.25,0.76-0.44,1.53-0.42,2.33c0.01,0.28,0.08,0.56,0.13,0.84c0.04,0.26,0.2,0.36,0.46,0.32
			c0.15-0.03,0.3-0.08,0.45-0.08c0.17,0,0.35,0.05,0.56,0.08c-0.39,0.75-1.19,0.82-1.55,0.27c-0.66-1-0.75-2.1-0.52-3.25
			c0.02,0.08,0.04,0.16,0.06,0.24c0.02-0.01,0.04-0.02,0.04-0.03c0.01-0.14,0.02-0.28,0.04-0.43c-0.07,0.01-0.17,0-0.22,0.04
			c-0.17,0.14-0.33,0.3-0.48,0.46c-0.45,0.47-1.01,0.32-1.54,0.29c-0.06,0-0.14-0.06-0.18-0.11c-0.26-0.37-0.5-0.75-0.77-1.16
			c-0.22,0.29-0.42,0.63-0.7,0.9c-0.36,0.35-0.73,0.71-1.18,0.91c-0.26,0.12-0.69,0-0.98-0.14c-0.21-0.1-0.33-0.41-0.48-0.62
			c-0.04-0.06-0.06-0.15-0.11-0.28c-0.23,0.27-0.44,0.52-0.64,0.75c-0.18,0.21-0.35,0.42-0.55,0.6c-0.28,0.25-0.6,0.56-1,0.42
			c-0.55-0.2-1.04-0.47-1.15-1.19c-0.16-0.99,0.11-1.87,0.51-2.72c0.42-0.89,0.89-1.76,1.36-2.62c0.19-0.35,0.87-0.41,1.11-0.1
			c0.06,0.08,0.05,0.29-0.01,0.4c-0.52,0.88-1.08,1.73-1.59,2.61C64.07,12.17,63.94,12.56,63.78,12.93
			c0.19-0.57,0.38-1.14,0.58-1.71c-0.02-0.01-0.05-0.02-0.07-0.03c-0.24,0.57-0.48,1.15-0.74,1.76
			C63.69,12.94,63.73,12.94,63.78,12.93z M70.89,10.92c0.04,0.03,0.09,0.06,0.13,0.08c0.4-0.56,0.82-1.11,1.18-1.7
			c0.26-0.42,0.43-0.89,0.67-1.32c0.39-0.7,0.79-1.38,1.19-2.08c-0.03-0.02-0.05-0.03-0.08-0.05C72.95,7.55,71.92,9.23,70.89,10.92z
			 M78.03,6.34c0.19-0.33,0.34-0.63,0.53-0.91c0.2-0.3,0.43-0.57,0.64-0.86c-0.94,0.79-3.05,3.65-3.19,4.25
			c0.24-0.28,0.45-0.59,0.67-0.88c0.37-0.5,0.74-1.01,1.12-1.5C77.87,6.36,78,6.35,78.03,6.34z M72.88,7.06
			C72.85,7.04,72.82,7.02,72.79,7c-0.36,0.59-0.71,1.18-1.07,1.77c0.03,0.02,0.06,0.04,0.09,0.06C72.17,8.24,72.52,7.65,72.88,7.06z
			 M64.83,14.24c0.03,0.03,0.06,0.06,0.08,0.08c0.32-0.3,0.65-0.6,0.97-0.9c-0.02-0.02-0.03-0.04-0.05-0.05
			C65.5,13.66,65.16,13.95,64.83,14.24z"/>
		<path d="M13.5,3.82c0.33-0.01,0.92-0.43,1.17-0.86c-0.22,0.15-0.39,0.27-0.57,0.39c0.26-0.28,0.52-0.57,0.81-0.88
			c-0.81,0.14-1.62,0.26-2.42,0.42c-0.49,0.1-0.96,0.26-1.44,0.39c-0.37,0.1-0.66,0.31-0.87,0.63C9.69,4.61,9.23,5.32,8.74,6.03
			C8.43,6.49,8.06,6.91,7.75,7.37C7.4,7.89,7.08,8.42,6.73,8.97c2.14-0.4,4.21-1.17,6.41-1.5c0.01,0.44-0.23,0.62-0.51,0.73
			c-0.75,0.3-1.5,0.59-2.26,0.86C9,9.54,7.64,10.01,6.26,10.44c-0.49,0.15-0.78,0.46-1.02,0.87c-0.58,1.03-1.18,2.05-1.74,3.1
			c-0.36,0.67-0.67,1.36-1.03,2.11c-0.14-0.09-0.34-0.15-0.41-0.28c-0.15-0.29-0.33-0.59-0.14-0.95c0.64-1.23,1.28-2.46,1.93-3.69
			c0.01-0.03,0.04-0.04,0.12-0.11c-0.04,0.17-0.07,0.27-0.09,0.38c0.02,0.01,0.04,0.01,0.06,0.02c0.09-0.19,0.18-0.38,0.27-0.57
			c-0.02-0.04-0.05-0.08-0.07-0.12c-0.55,0.11-1.1,0.23-1.66,0.32c-0.54,0.09-1.08,0.2-1.62,0.22c-0.25,0.01-0.53-0.17-0.75-0.32
			c-0.1-0.07-0.13-0.32-0.1-0.46c0.02-0.09,0.21-0.18,0.34-0.21c0.49-0.13,0.98-0.25,1.35-0.34c0.29,0,0.49,0.04,0.67-0.01
			c0.71-0.19,1.42-0.38,2.11-0.63C4.78,9.66,5.07,9.45,5.26,9.2c0.46-0.6,0.85-1.26,1.28-1.88c0.44-0.65,0.88-1.3,1.32-1.94
			C8.17,4.93,8.49,4.5,8.84,4c-0.38,0.1-0.71,0.19-1.04,0.28c-1,0.27-1.99,0.53-2.99,0.8C4.77,5.09,4.73,5.09,4.7,5.11
			c-0.49,0.32-1.02,0.15-1.53,0.1c-0.38-0.04-0.59-0.24-0.64-0.6C2.5,4.4,2.54,4.26,2.81,4.21C3.94,4.03,5.08,3.85,6.2,3.62
			c0.86-0.18,1.71-0.41,2.55-0.65c0.62-0.18,1.18-0.46,1.54-1.05c0.18-0.29,0.52-0.54,0.57-0.84c0.08-0.46,0.43-0.62,0.68-0.89
			c0.19-0.21,0.38-0.31,0.53,0.05c0.02,0.05,0.07,0.1,0.12,0.12c0.25,0.13,0.3,0.34,0.18,0.57c-0.22,0.4-0.47,0.79-0.72,1.18
			c-0.06,0.1-0.15,0.18-0.29,0.35c0.28-0.08,0.45-0.13,0.63-0.17c0.84-0.2,1.69-0.39,2.53-0.6c0.34-0.08,0.68-0.21,1.01-0.31
			c0.2-0.06,0.35-0.03,0.48,0.17c0.15,0.24,0.36,0.43,0.53,0.66c0.12,0.16,0.09,0.32-0.06,0.47c-0.5,0.53-1.11,0.82-1.8,1.07
			c-0.32,0.12-0.65,0.21-0.97,0.34L13.5,3.82z M9.42,8.7c0,0.04,0.01,0.09,0.01,0.13c0.82-0.23,1.65-0.47,2.47-0.7
			c-0.01-0.03-0.01-0.05-0.02-0.08C11.06,8.27,10.24,8.48,9.42,8.7z M13.68,2.22c0.49-0.06,0.98-0.12,1.47-0.18
			c0-0.03-0.01-0.06-0.01-0.09c-0.25,0.04-0.51,0.15-0.74,0.09C14.11,1.98,13.89,2,13.68,2.22z"/>
		<path d="M111.78,14.35c0.87-2.04,2.38-3.63,3.69-5.36c-0.08,0.08-0.16,0.17-0.24,0.25c-0.08,0.09-0.16,0.18-0.23,0.27
			c-0.02-0.02-0.05-0.04-0.07-0.06c0.27-0.32,0.52-0.65,0.82-0.95c0.06-0.06,0.28-0.03,0.4,0.03c0.05,0.03,0.06,0.21,0.04,0.32
			c-0.05,0.24,0.04,0.57-0.39,0.56c0-0.07,0-0.16,0-0.36c-0.33,0.35-0.61,0.63-0.88,0.92c0.02,0.02,0.04,0.05,0.05,0.07
			c0.07-0.03,0.15-0.07,0.22-0.1c-0.39,0.51-0.47,1.15-0.88,1.66c-0.5,0.62-0.86,1.36-1.26,2.06c-0.29,0.51-0.54,1.05-0.84,1.56
			c-0.11,0.18-0.3,0.42-0.47,0.44c-0.16,0.01-0.41-0.21-0.49-0.38c-0.19-0.39-0.33-0.8-0.43-1.22c-0.04-0.17,0.06-0.38,0.1-0.58
			c0.02-0.08,0.03-0.16,0.05-0.24c-0.03-0.01-0.05-0.03-0.08-0.04c-0.37,0.42-0.74,0.85-1.11,1.27c-0.02-0.02-0.05-0.03-0.07-0.05
			c0.1-0.04,0.2-0.07,0.3-0.11c-0.29,0.5-1.03,0.84-1.57,0.73c-0.37-0.08-1-0.77-1.07-1.2c-0.04-0.26-0.06-0.52-0.08-0.78
			c-0.02-0.26-0.03-0.51-0.04-0.86c-0.17,0.27-0.33,0.47-0.43,0.69c-0.34,0.76-1.05,1.22-1.55,1.84c-0.04,0.04-0.1,0.06-0.16,0.09
			c0.04,0.04,0.07,0.07,0.11,0.11c0.18-0.17,0.35-0.35,0.52-0.51c-0.12,0.49-0.71,1.15-1.19,1.3c-0.32,0.11-0.84-0.18-0.93-0.57
			c-0.14-0.56-0.31-1.13,0.03-1.69c0.03-0.04,0-0.12,0-0.22c-0.47,0.46-0.98,0.84-1.33,1.34c-0.17,0.25-0.36,0.45-0.59,0.61
			c-0.86,0.6-2.14,0.12-2.42-0.89c-0.25-0.91-0.23-1.81,0.09-2.7c0.27-0.75,0.57-1.48,0.87-2.22c0.04-0.1,0.11-0.18,0.17-0.27
			c0.03,0.01,0.06,0.03,0.1,0.04c-0.04,0.13-0.08,0.26-0.12,0.4c0.29-0.28,0.44-0.78,0.4-1.21c-0.01-0.11,0.1-0.25,0.19-0.35
			c0.1-0.11,0.23-0.18,0.4-0.31c-0.13-0.03-0.18-0.05-0.28-0.08c0.6-1.14,1.18-2.27,2.14-3.14c0.23-0.21,0.47-0.4,0.72-0.58
			c0.25-0.19,0.51-0.14,0.76,0.03c0.27,0.18,0.56,0.37,0.44,0.76c-0.08,0.27-0.19,0.55-0.35,0.77c-0.94,1.3-1.89,2.59-2.84,3.88
			c-0.08,0.1-0.17,0.2-0.25,0.3c-0.04-0.03-0.08-0.05-0.11-0.08c0.14-0.23,0.24-0.49,0.41-0.69c0.95-1.08,1.77-2.23,2.45-3.49
			c0.05-0.09,0.04-0.22,0.06-0.33c-0.12,0.02-0.26,0-0.35,0.06c-0.2,0.14-0.42,0.29-0.56,0.49c-0.52,0.74-1.04,1.47-1.49,2.25
			c-0.43,0.72-0.77,1.5-1.15,2.25c-0.04,0.08-0.07,0.17-0.07,0.27c0.19-0.21,0.38-0.41,0.57-0.62c0.02,0.02,0.05,0.04,0.07,0.06
			c-0.15,0.2-0.29,0.4-0.44,0.6c-0.72,0.96-1.11,2.04-1.1,3.25c0.01,0.86,0.86,1.33,1.59,0.86c0.46-0.29,0.88-0.65,1.29-1
			c0.13-0.11,0.2-0.31,0.3-0.46c0.05-0.08,0.1-0.16,0.16-0.23c0.38-0.45,0.79-0.88,1.14-1.35c0.43-0.58,0.87-1.17,1.22-1.8
			c0.21-0.38,0.52-0.55,0.88-0.69c0.53-0.21,0.79-0.14,1.15,0.3c0.04,0.05,0.1,0.09,0.17,0.16c0.13-0.24,0.28-0.44,0.58-0.3
			c0.36,0.17,0.52,0.43,0.41,0.76c-0.2,0.58-0.48,1.14-0.65,1.73c-0.16,0.55-0.22,1.13-0.3,1.71c-0.02,0.17,0.02,0.36,0.08,0.52
			c0.09,0.26,0.29,0.37,0.56,0.26c0.09-0.03,0.18-0.08,0.25-0.13c0.76-0.51,1.52-1.04,2.03-1.81c0.24-0.37,0.32-0.86,0.41-1.3
			c0.09-0.41,0.26-0.51,0.6-0.28c0.11,0.07,0.22,0.13,0.34,0.19c0.24,0.13,0.38,0.47,0.28,0.74c-0.17,0.45-0.38,0.89-0.52,1.36
			c-0.14,0.46-0.22,0.94-0.33,1.41C111.71,14.31,111.75,14.33,111.78,14.35z M107.79,9.97c-0.35-0.27-0.57-0.06-0.77,0.14
			c-0.86,0.89-1.65,1.84-2.21,2.95c-0.21,0.42-0.27,0.91-0.42,1.43c0.61-0.05,0.71-0.59,1.06-0.81c0.02,0.02,0.05,0.04,0.07,0.06
			c-0.08,0.14-0.16,0.28-0.28,0.5c0.64-0.53,2.15-2.76,2.14-3.11c-0.08,0.08-0.15,0.16-0.23,0.24c-0.02-0.01-0.05-0.03-0.07-0.04
			C107.31,10.87,107.55,10.42,107.79,9.97z M110.02,13.51c0.02,0.02,0.05,0.04,0.07,0.06c0.32-0.35,0.74-0.62,0.89-1.13
			C110.66,12.8,110.34,13.15,110.02,13.51z M103.23,5.86c-0.02-0.02-0.05-0.04-0.07-0.06c-0.24,0.34-0.47,0.67-0.71,1.01
			c0.02,0.02,0.04,0.03,0.07,0.05C102.75,6.52,102.99,6.19,103.23,5.86z"/>
		<path d="M121.98,11.93c0.15-0.34,0.3-0.68,0.45-1.02c-0.03-0.01-0.06-0.03-0.1-0.04c-0.3,0.68-0.6,1.35-0.9,2.03
			c0.04,0.02,0.07,0.04,0.11,0.06c0.05-0.04,0.11-0.08,0.18-0.13c-0.01,0.06-0.02,0.11-0.03,0.15c-0.06,0.34-0.15,0.67-0.17,1.01
			c-0.03,0.49,0.18,0.65,0.6,0.38c0.59-0.39,1.25-0.77,1.64-1.32c0.65-0.92,1.11-1.98,1.65-2.99c0.16-0.29,0.29-0.6,0.43-0.9
			c0.13-0.27,0.42-0.32,0.64-0.12c0.49,0.44,0.44,0.69,0.1,1.24c-0.48,0.76-0.86,1.58-1.27,2.38c-0.1,0.19-0.16,0.39-0.23,0.6
			c-0.1,0.32,0.01,0.57,0.33,0.61c0.26,0.03,0.58,0.04,0.78-0.09c0.37-0.24,0.74-0.53,1-0.89c0.62-0.86,1.21-1.76,1.67-2.73
			c0.09-0.18,0.28-0.34,0.46-0.46c0.2-0.14,0.64-0.01,0.78,0.19c0.04,0.05,0.07,0.15,0.05,0.2c-0.12,0.27-0.23,0.55-0.4,0.79
			c-0.37,0.52-0.55,1.11-0.66,1.75c0.64-0.8,1.27-1.6,1.91-2.41c-0.01-0.01-0.01-0.02-0.02-0.03c-0.11,0.09-0.22,0.19-0.34,0.29
			c0.19-0.53,1.4-1.8,1.93-2.02c0.19,0.29,0.39,0.58,0.56,0.89c0.04,0.08,0.03,0.22-0.02,0.3c-0.18,0.38-0.39,0.75-0.58,1.13
			c-0.09,0.19-0.19,0.14-0.29,0.02c-0.14-0.16-0.26-0.32-0.44-0.54c0.03-0.08,0.1-0.25,0.2-0.49c-0.13,0.08-0.22,0.12-0.29,0.18
			c-0.61,0.48-1.15,1.03-1.56,1.7c-0.39,0.62-0.81,1.22-1.21,1.85c-0.18,0.29-0.31,0.61-0.48,0.9c-0.09,0.16-0.22,0.31-0.36,0.43
			c-0.35,0.3-0.49,0.3-0.89-0.02c-0.25-0.2-0.24-0.48-0.14-0.75c0.06-0.16,0.14-0.3,0.21-0.45c0.06-0.14,0.12-0.28,0.13-0.46
			c-0.08,0.1-0.16,0.2-0.25,0.29c-0.39,0.37-0.77,0.77-1.19,1.11c-0.46,0.37-1.36,0.12-1.62-0.42c-0.06-0.14-0.11-0.28-0.19-0.48
			c-0.25,0.29-0.44,0.56-0.67,0.79c-0.33,0.32-0.66,0.64-1.03,0.92c-0.19,0.14-0.43,0.15-0.66-0.01c-0.3-0.2-0.72-0.24-0.85-0.68
			c-0.17-0.58-0.26-1.16-0.12-1.75c0.02-0.08,0.04-0.16,0.07-0.31c-0.7,0.35-1.37,0.45-2.02,0c-0.34,0.5-0.7,0.96-0.98,1.46
			c-0.32,0.57-0.64,1.13-1.22,1.48c-0.21,0.13-0.66,0.06-0.91-0.18c-0.49-0.46-0.57-1.05-0.47-1.67c0.03-0.21,0.1-0.42,0.18-0.61
			c0.39-0.99,0.91-1.91,1.53-2.76c0.44-0.59,1.04-0.97,1.65-1.33c0.52-0.31,1.32,0.2,1.38,0.85c0.03,0.31-0.03,0.59-0.22,0.87
			c-0.22,0.31-0.36,0.69-0.51,1.05c-0.03,0.07,0.04,0.22,0.12,0.27c0.57,0.41,1.61,0.08,1.92-0.55c0.43-0.87,0.88-1.73,1.34-2.59
			c0.19-0.35,0.87-0.39,1.12-0.08c0.06,0.08,0.07,0.26,0.02,0.34c-0.58,0.93-1.19,1.86-1.78,2.78
			C122,11.93,121.99,11.93,121.98,11.93z M115.93,14.52c0.04,0.03,0.08,0.07,0.13,0.1c0.14-0.08,0.28-0.15,0.4-0.25
			c0.18-0.15,0.32-0.37,0.52-0.48c0.54-0.3,0.73-0.84,1.06-1.3c0.41-0.56,0.19-1.06-0.08-1.62C117,12.02,116.27,13.16,115.93,14.52z
			 M119.36,10.69c-0.04-0.01-0.09-0.02-0.13-0.02c-0.49,0.75-0.49,0.75-0.2,0.97C119.14,11.31,119.25,11,119.36,10.69z
			 M124.45,12.64c0.02,0.01,0.05,0.02,0.07,0.03c0.22-0.44,0.45-0.88,0.66-1.32c0.04-0.07,0.02-0.17,0.03-0.26
			c-0.02,0-0.03,0.01-0.05,0.01C124.92,11.62,124.68,12.13,124.45,12.64z M131.21,10.06C131.22,10.06,131.22,10.06,131.21,10.06
			c0.38-0.35,0.76-0.7,1.13-1.06c-0.03-0.03-0.05-0.06-0.08-0.08C131.91,9.29,131.56,9.68,131.21,10.06z M117.34,14.2
			c0.03,0.02,0.06,0.04,0.09,0.06c0.26-0.26,0.51-0.53,0.61-0.88c-0.03-0.02-0.06-0.04-0.09-0.06
			C117.75,13.61,117.55,13.9,117.34,14.2z M123.89,13.29c-0.02-0.02-0.04-0.04-0.05-0.06c-0.37,0.34-0.74,0.68-1.12,1.02
			c0.02,0.03,0.05,0.05,0.07,0.08C123.16,13.98,123.52,13.63,123.89,13.29z"/>
		<path d="M85.78,13.59c-0.51,0.05-0.99,0.14-1.47,0.13c-0.2-0.01-0.54-0.21-0.56-0.36c-0.04-0.24,0.25-0.33,0.5-0.39
			c0.62-0.14,1.24-0.32,1.85-0.5c0.33-0.09,0.42-0.22,0.51-0.58c-0.88,0.14-1.74,0.11-2.55-0.36c-0.01,0.01-0.06,0.02-0.06,0.04
			c-0.07,0.65-0.74,0.93-0.93,1.53c-0.18,0.57-0.47,1.11-0.75,1.65c-0.22,0.42-0.49,0.81-0.94,1.04c-0.62,0.31-1,0.14-1.2-0.5
			c-0.37-1.18,0.05-2.24,0.57-3.24c0.56-1.08,1.17-2.15,2.05-3.05c-0.08-0.04-0.14-0.08-0.21-0.11C82.6,8.83,82.6,8.8,82.61,8.8
			c0.06-0.03,0.13-0.05,0.19-0.08c0.82-0.46,1.64-0.01,1.67,0.95c0.01,0.24-0.03,0.5-0.1,0.74c-0.06,0.23,0.01,0.36,0.19,0.48
			c0.64,0.44,1.9,0.44,2.51-0.01c0.1-0.07,0.16-0.21,0.22-0.31C88,9.48,88.66,8.38,89.4,7.33c0.29-0.42,0.71-0.77,1.13-1.06
			c0.25-0.18,0.62-0.24,0.94-0.27c0.56-0.05,1.05,0.67,0.82,1.25c-0.16,0.39-0.46,0.72-0.7,1.07c-0.02,0.03-0.1,0.02-0.23,0.05
			c0.18-0.34,0.33-0.6,0.46-0.88c0.05-0.11,0.13-0.31,0.09-0.34c-0.11-0.1-0.29-0.2-0.41-0.17c-0.21,0.05-0.41,0.19-0.58,0.32
			c-0.8,0.61-1.32,1.45-1.86,2.28c-0.15,0.22-0.28,0.46-0.4,0.7c0.99-0.49,1.84-1.15,2.59-1.95c0.03,0.02,0.07,0.04,0.1,0.06
			c-0.06,0.12-0.1,0.27-0.19,0.37c-0.81,0.89-1.65,1.74-2.7,2.36c-0.41,0.24-0.59,0.62-0.79,1.05c0.92,0.03,1.85-0.16,2.64,0.56
			c-0.3,0.04-0.6,0.08-0.91,0.11c-0.58,0.05-1.16,0.09-1.74,0.16c-0.45,0.05-0.77,0.3-0.9,0.75c-0.01,0.04-0.05,0.08-0.08,0.12
			c-0.01,0.02-0.04,0.02-0.08,0.05c-0.08-0.04-0.17-0.09-0.33-0.19c-0.2,0.46-0.39,0.9-0.59,1.37c0.28,0.18,0.24,0.37,0.13,0.66
			c-0.4,1-0.92,1.95-1.04,3.06c-0.03,0.29-0.18,0.6-0.36,0.84c-0.09,0.13-0.41,0.24-0.53,0.18c-0.21-0.1-0.52-0.26-0.42-0.6
			c0.16-0.52,0.31-1.05,0.53-1.55c0.55-1.26,1.12-2.51,1.69-3.77C85.72,13.79,85.75,13.67,85.78,13.59z M80.91,14.82
			c0.9-1.26,1.46-2.69,2.11-4.12C82.2,11.02,81.02,13.32,80.91,14.82z M82.05,13.84c0.36-0.46,0.68-0.94,0.72-1.53
			c-0.04-0.02-0.08-0.03-0.12-0.05C82.45,12.79,82.25,13.31,82.05,13.84z"/>
		<path d="M19.73,10.28c0.04-0.1,0.12-0.26,0.19-0.42c-0.63,0.38-1.17,0.85-1.58,1.45c-0.5,0.72-0.98,1.46-1.45,2.2
			c-0.2,0.31-0.34,0.65-0.52,0.97c-0.07,0.13-0.18,0.25-0.29,0.35c-0.4,0.34-0.56,0.34-0.95,0c-0.26-0.23-0.23-0.53-0.1-0.82
			c0.21-0.47,0.42-0.94,0.68-1.51c-0.78,0.44-1.48,0.59-2.2,0.11c-0.34,0.51-0.7,0.98-0.99,1.49c-0.32,0.56-0.64,1.1-1.21,1.45
			c-0.2,0.12-0.64,0.07-0.88-0.15c-0.48-0.44-0.63-1.01-0.51-1.62c0.07-0.39,0.22-0.78,0.38-1.14c0.41-0.93,0.87-1.84,1.59-2.56
			c0.42-0.42,0.93-0.76,1.43-1.09c0.35-0.23,0.73-0.08,1.1,0.32c0.29,0.33,0.36,0.87,0.16,1.23c-0.24,0.43-0.47,0.87-0.69,1.3
			c0.29,0.37,0.74,0.48,1.26,0.3c0.28-0.1,0.56-0.21,0.84-0.33c0.05-0.02,0.08-0.11,0.11-0.18c0.25-0.5,0.48-1.01,0.74-1.5
			c0.24-0.47,0.6-0.58,1.06-0.33c0.19,0.1,0.3,0.22,0.16,0.45c-0.17,0.26-0.32,0.53-0.45,0.81c-0.24,0.51-0.45,1.03-0.63,1.56
			c1.09-1.23,2.18-2.46,3.27-3.68c0.01,0,0.01,0.01,0.02,0.01c-0.51,0.54-1.01,1.08-1.52,1.62c-0.05-0.05-0.11-0.11-0.16-0.16
			c0.56-0.72,1.11-1.44,1.92-1.96c0.21,0.33,0.41,0.62,0.59,0.93c0.04,0.06,0.04,0.22-0.01,0.25c-0.16,0.11-0.19,0.22-0.21,0.43
			c-0.02,0.27-0.25,0.53-0.41,0.77c-0.03,0.04-0.21,0.04-0.26-0.01C20.03,10.67,19.91,10.5,19.73,10.28z M12.66,10.92
			c-1,1.11-1.75,2.24-2.03,3.66c0.14,0,0.24-0.02,0.32-0.08c0.35-0.28,0.7-0.56,1.03-0.86c0.15-0.13,0.26-0.31,0.37-0.48
			c0.41-0.61,0.83-1.22,0.36-1.98C12.69,11.13,12.69,11.08,12.66,10.92z M13.9,10.64c-0.51,0.78-0.51,0.78-0.21,1
			C13.7,11.28,14.12,11.06,13.9,10.64z M12.74,13.4c-0.04-0.03-0.08-0.06-0.12-0.09c-0.21,0.29-0.41,0.58-0.62,0.87
			c0.04,0.03,0.08,0.06,0.12,0.08C12.32,13.98,12.53,13.69,12.74,13.4z"/>
		<path d="M65.15,4c-0.56,0.11-0.97,0.4-1.24,0.83c-0.77,1.21-1.52,2.43-2.27,3.65c-0.01,0.02,0,0.05,0,0.01
			c0.55,0,1.09-0.01,1.64,0c0.17,0,0.44-0.07,0.44,0.21c0,0.12-0.18,0.25-0.32,0.41c0.01,0.06,0.02,0.19,0.04,0.33
			c-0.87-0.21-1.66,0.02-2.45,0.19c-0.08,0.02-0.16,0.13-0.21,0.22c-1.36,2.51-2.48,5.13-3.44,7.81c-0.24,0.68-0.35,1.4-0.54,2.1
			c-0.08,0.3-0.09,0.66-0.48,0.83c-0.12-0.16-0.11-0.48-0.43-0.37c-0.01,0-0.08-0.11-0.09-0.18c-0.13-0.49-0.23-1.03,0.03-1.46
			c0.31-0.5,0.39-1.07,0.64-1.59c0.27-0.55,0.46-1.15,0.7-1.71c0.25-0.58,0.53-1.15,0.79-1.72c0.05-0.1,0.06-0.22,0.1-0.34
			c0.31-0.02,0.19,0.19,0.14,0.31c-0.29,0.83-0.6,1.65-0.9,2.48c-0.29,0.79-0.57,1.57-0.86,2.36c0.03,0.02,0.05,0.04,0.08,0.06
			c0.06-0.07,0.15-0.14,0.18-0.23c0.66-1.78,1.3-3.57,1.99-5.33c0.33-0.85,0.79-1.65,1.2-2.47c0.05-0.1,0.17-0.16,0.24-0.25
			c0.04-0.05,0.05-0.12,0.07-0.18c-0.07-0.02-0.14-0.07-0.21-0.06c-0.25,0.03-0.49,0.08-0.73,0.1c-0.65,0.05-0.8-0.06-1-0.69
			c-0.02-0.05-0.05-0.1-0.12-0.24c0.57-0.1,1.11-0.23,1.66-0.29c0.38-0.05,0.64-0.18,0.85-0.53c0.7-1.17,1.44-2.32,2.16-3.48
			c0.04-0.06,0-0.16,0.01-0.24c0-0.05,0.01-0.12,0.04-0.16c0.51-0.69,1.11-1.25,2.03-1.28c0.13,0,0.29,0.03,0.4,0.11
			c1.09,0.72,1.19,1.72,0.28,2.65c-0.19,0.19-0.52,0.27-0.8,0.34c-0.1,0.02-0.29-0.14-0.36-0.27c-0.09-0.17-0.12-0.37,0.09-0.54
			C64.95,5.05,65.13,4.57,65.15,4z M61.51,7.48c0.58-0.82,1.14-1.6,1.7-2.4C62.7,5.39,61.84,6.59,61.51,7.48z"/>
		<path d="M92.32,20.59c-0.14-0.14-0.08-0.47-0.4-0.35c-0.02,0.01-0.13-0.12-0.13-0.19c-0.01-0.48-0.16-1.05,0.04-1.42
			c0.25-0.45,0.31-0.94,0.54-1.39c0.26-0.49,0.43-1.03,0.64-1.55c0.2-0.51,0.39-1.02,0.61-1.52c0.14-0.32,0.34-0.61,0.57-1.02
			c0.01,0.16,0.04,0.28,0.01,0.37c-0.36,1.01-0.72,2.01-1.09,3.01c-0.22,0.61-0.44,1.22-0.66,1.83c0.03,0.02,0.06,0.04,0.09,0.06
			c0.06-0.08,0.14-0.14,0.18-0.23c0.67-1.79,1.31-3.59,2.01-5.36c0.33-0.84,0.78-1.63,1.18-2.43c0.04-0.09,0.15-0.14,0.21-0.23
			c0.04-0.06,0.05-0.14,0.07-0.21c-0.07-0.02-0.14-0.05-0.21-0.04c-0.26,0.03-0.51,0.08-0.77,0.1c-0.57,0.05-0.77-0.1-0.93-0.65
			c-0.02-0.07-0.06-0.14-0.12-0.29c0.58-0.1,1.12-0.22,1.67-0.29c0.37-0.05,0.62-0.17,0.82-0.51c0.7-1.17,1.44-2.32,2.17-3.47
			c0.04-0.06,0.01-0.16,0.01-0.24c0-0.04,0-0.09,0.01-0.12c0.24-0.65,1.49-1.41,2.18-1.33c0.72,0.08,1.38,1.24,1.1,1.92
			c-0.23,0.58-0.59,1.03-1.22,1.16c-0.13,0.03-0.36-0.06-0.44-0.17c-0.12-0.17-0.22-0.38,0.02-0.59c0.48-0.41,0.66-0.82,0.66-1.48
			c-0.31,0.17-0.6,0.29-0.84,0.48c-0.23,0.19-0.44,0.44-0.6,0.7c-0.7,1.12-1.39,2.26-2.11,3.44C98,8.53,98.36,8.5,98.71,8.49
			c0.23-0.01,0.46-0.02,0.68,0.02c0.13,0.02,0.24,0.13,0.35,0.21c-0.09,0.09-0.18,0.19-0.27,0.28c-0.02,0.02-0.06,0.04-0.09,0.05
			c0.02,0.13,0.04,0.25,0.07,0.42c-0.77-0.24-1.48,0.01-2.2,0.09C97,9.59,96.83,9.72,96.71,9.98c-0.49,1.03-1.08,2.01-1.52,3.06
			c-0.93,2.24-1.99,4.45-2.43,6.86C92.71,20.17,92.67,20.48,92.32,20.59z M99.28,5c-0.83,0.67-1.35,1.56-1.79,2.51
			C98.09,6.68,98.69,5.84,99.28,5z"/>
		<path d="M28.86,9.32c0.19-0.06,0.41-0.22,0.58-0.18c0.39,0.09,0.56,0.41,0.44,0.76c-0.2,0.58-0.48,1.14-0.65,1.73
			c-0.16,0.55-0.22,1.13-0.3,1.71c-0.02,0.17,0.02,0.36,0.08,0.52c0.09,0.26,0.29,0.37,0.56,0.26c0.08-0.03,0.15-0.07,0.22-0.11
			c0.87-0.57,1.66-1.22,2.28-2.06c0.05-0.07,0.1-0.15,0.17-0.18c0.13-0.05,0.28-0.07,0.42-0.11c0.02,0.17,0.11,0.37,0.05,0.5
			c-0.2,0.44-0.43,0.84-0.9,1.11c-0.45,0.26-0.79,0.72-1.13,1.15c0.09-0.04,0.18-0.08,0.28-0.12c-0.25,0.5-1.15,0.95-1.61,0.71
			c-0.46-0.25-0.93-0.57-1.01-1.16c-0.07-0.51-0.09-1.03-0.14-1.62c-0.15,0.24-0.3,0.43-0.4,0.65c-0.34,0.75-1.02,1.2-1.52,1.82
			c-0.05,0.06-0.1,0.12-0.15,0.17c0.02,0.03,0.05,0.05,0.07,0.08c0.16-0.2,0.32-0.41,0.47-0.61c0.02,0.02,0.05,0.05,0.07,0.07
			c-0.23,0.57-0.61,0.99-1.15,1.28c-0.3,0.16-0.83-0.07-0.96-0.43c-0.27-0.74-0.31-1.46,0.14-2.17c0.12-0.19,0.11-0.46,0.23-0.66
			c0.54-0.9,1.12-1.78,1.66-2.69c0.21-0.35,0.45-0.59,0.85-0.73c0.62-0.21,0.81-0.19,1.24,0.3c0.04,0.04,0.09,0.07,0.13,0.11
			C28.87,9.39,28.86,9.36,28.86,9.32z M28.41,11.18c-0.03-0.02-0.05-0.04-0.08-0.06c-0.08,0.08-0.15,0.16-0.23,0.24
			c-0.03-0.02-0.05-0.03-0.08-0.05c0.24-0.45,0.47-0.89,0.71-1.35C28.4,9.7,28.18,9.9,27.98,10.1c-0.87,0.89-1.64,1.85-2.22,2.94
			c-0.23,0.43-0.32,0.92-0.34,1.41c0.04,0.03,0.08,0.06,0.13,0.09c0.28-0.28,0.57-0.57,0.85-0.85c0.02,0.02,0.05,0.03,0.07,0.05
			c-0.08,0.14-0.15,0.28-0.23,0.42C27.08,13.24,27.8,12.25,28.41,11.18z M30.98,13.51c0.03,0.02,0.06,0.05,0.09,0.07
			c0.37-0.4,0.73-0.79,1.1-1.19c-0.03-0.03-0.07-0.06-0.1-0.09C31.7,12.7,31.34,13.11,30.98,13.51z"/>
		<path d="M50.53,10.84c0.27-0.69,0.7-1.26,1.25-1.75c0.27-0.24,0.59-0.36,0.92-0.21c0.37,0.17,0.54,0.52,0.48,0.92
			c-0.04,0.29-0.14,0.6-0.3,0.84c-0.45,0.63-1.03,1.14-1.71,1.52c-0.29,0.16-0.53,0.33-0.58,0.69c-0.05,0.4-0.14,0.79-0.19,1.18
			c-0.03,0.25,0.12,0.42,0.37,0.43c0.46,0.03,0.88-0.04,1.29-0.3c1.14-0.73,2.05-1.68,2.93-2.68c0.07-0.07,0.2-0.09,0.31-0.13
			c0.03,0.13,0.13,0.3,0.08,0.38c-0.57,1.02-1.33,1.88-2.39,2.43c-0.01,0-0.02,0-0.08-0.02c0.16-0.17,0.31-0.33,0.46-0.48
			c-0.02-0.02-0.03-0.04-0.05-0.06c-0.43,0.4-0.86,0.8-1.3,1.22c0.04,0.03,0.1,0.07,0.18,0.12c-0.02,0.03-0.04,0.06-0.06,0.07
			c-1.38,0.63-2.09-0.04-2.44-1.35c-0.24-0.91,0.01-1.74,0.49-2.51C50.26,11.03,50.41,10.95,50.53,10.84
			c-0.06,0.22-0.12,0.44-0.18,0.67c0.03,0.01,0.06,0.02,0.09,0.03c0.45-0.67,0.91-1.33,1.39-2.05c-0.54,0.31-0.84,0.6-1.06,1.07
			C50.72,10.67,50.61,10.75,50.53,10.84z M52.63,9.65c-0.02-0.02-0.05-0.04-0.07-0.06c-0.37,0.46-0.75,0.91-1.12,1.37
			C52.12,10.76,52.42,10.25,52.63,9.65z"/>
		<path d="M132.85,14.03c0.27-0.04,0.55-0.08,0.82-0.11c0.16-0.02,0.22,0.03,0.24,0.24c0.08,0.76-0.5,1.09-0.93,1.5
			c-0.09,0.09-0.34,0.14-0.44,0.08c-0.12-0.07-0.25-0.29-0.24-0.43c0.04-0.41,0.15-0.81,0.25-1.21c0.02-0.07,0.17-0.11,0.26-0.17
			C132.83,13.96,132.84,13.99,132.85,14.03z"/>
		<path d="M43.21,8.05c-0.04-0.51,0.27-0.82,0.54-1.16c0.34-0.43,0.68-0.55,1.3-0.11c-0.21,0.34-0.41,0.69-0.64,1.01
			C44.04,8.3,43.94,8.31,43.21,8.05z"/>
		<path d="M58.29,12.95c0.11-0.28,0.23-0.56,0.36-0.89c0.15,0.27,0.08,0.48-0.26,0.94C58.36,12.98,58.33,12.97,58.29,12.95z"/>
		<path d="M94.28,12.98c0.12-0.29,0.24-0.58,0.36-0.87c0.04,0.02,0.08,0.03,0.12,0.05c0.03,0.34-0.22,0.58-0.33,0.86
			C94.38,13,94.33,12.99,94.28,12.98z"/>
		<path d="M41.58,10.42c-0.04,0.09-0.09,0.18-0.13,0.27c-0.04-0.28,0.17-0.9,0.47-1.16C41.8,9.82,41.69,10.12,41.58,10.42z"/>
		<path d="M95.82,10.17c-0.16,0.33-0.32,0.65-0.48,0.98c-0.03-0.01-0.06-0.03-0.09-0.04c0.15-0.33,0.31-0.65,0.46-0.98
			C95.75,10.15,95.79,10.16,95.82,10.17z"/>
	</g>
</g>
</svg>
