<?xml version="1.0" encoding="utf-8"?>
<!-- Generator: Adobe Illustrator 26.0.0, SVG Export Plug-In . SVG Version: 6.00 Build 0)  -->
<svg version="1.1" xmlns="http://www.w3.org/2000/svg" xmlns:xlink="http://www.w3.org/1999/xlink" x="0px" y="0px"
	 viewBox="0 0 459.21 116.22" style="enable-background:new 0 0 459.21 116.22;" xml:space="preserve">
<style type="text/css">
	.st0{fill:#EF404A;}
	.st1{fill:#8EB056;}
	.st2{fill:#BDD1D9;}
	.st3{fill:#BA7031;}
	.st4{fill:#FFCC32;}
</style>
<path d="M430.87,59.53v16.5c-5.64,8.02-14.96,13.26-25.51,13.26c-17.22,0-31.18-13.96-31.18-31.18c0-17.22,13.96-31.18,31.18-31.18
	c8.61,0,16.41,3.49,22.05,9.13l-6.01,6.01c-4.1-4.1-9.77-6.64-16.04-6.64c-12.52,0-22.68,10.15-22.68,22.68
	c0,12.52,10.15,22.68,22.68,22.68c6.77,0,12.85-2.97,17.01-7.68v-5.07h-17.01v-8.5H430.87z M367.09,28.35h-8.5v59.53h8.5V28.35z
	 M316.06,79.37V28.35h-8.5v59.53h42.52v-8.5H316.06z M248.03,63.78c0,14.09,11.42,25.51,25.51,25.51s25.51-11.42,25.51-25.51V28.35
	h-8.5v35.43c0,9.39-7.61,17.01-17.01,17.01s-17.01-7.61-17.01-17.01V28.35h-8.5V63.78z M231.02,68.03h-34.02v19.84h-8.5V52.44
	c0-14.09,11.42-25.51,25.51-25.51s25.51,11.42,25.51,25.51l0,35.43h-8.5L231.02,68.03z M231.02,59.53l0-7.09
	c0-9.39-7.61-17.01-17.01-17.01s-17.01,7.61-17.01,17.01v7.09H231.02z M181.42,48.19c0,10.96-8.88,19.84-19.84,19.84h-19.84v19.84
	h-8.5V28.35l28.35,0C172.53,28.35,181.42,37.23,181.42,48.19z M172.91,48.19c0-6.26-5.08-11.34-11.34-11.34l-19.84,0v22.68h19.84
	C167.84,59.53,172.91,54.45,172.91,48.19z"/>
<ellipse transform="matrix(0.9986 -0.0524 0.0524 0.9986 -3.1744 2.6622)" class="st0" cx="49.17" cy="61.85" rx="20.82" ry="20.82"/>
<path class="st1" d="M112.44,43.3c0,9.04-7.33,16.37-16.37,16.37c-9.04,0-16.37-7.33-16.37-16.37c0-9.04,7.33-16.37,16.37-16.37
	C105.11,26.93,112.44,34.26,112.44,43.3z"/>
<path class="st2" d="M96.15,76.42c0,7.11-5.76,12.87-12.87,12.87c-7.11,0-12.87-5.76-12.87-12.87c0-7.11,5.76-12.87,12.87-12.87
	C90.39,63.55,96.15,69.32,96.15,76.42z"/>
<path class="st3" d="M119.06,70.27c0,5.59-4.53,10.12-10.12,10.12c-5.59,0-10.12-4.53-10.12-10.12c0-5.59,4.53-10.12,10.12-10.12
	C114.53,60.16,119.06,64.69,119.06,70.27z"/>
<ellipse transform="matrix(0.8702 -0.4927 0.4927 0.8702 -9.0744 38.8289)" class="st4" cx="69.16" cy="36.64" rx="7.95" ry="7.95"/>
</svg>
