<?xml version="1.0" encoding="utf-8"?>
<!-- Generator: Adobe Illustrator 26.5.0, SVG Export Plug-In . SVG Version: 6.00 Build 0)  -->
<svg version="1.1" id="Capa_1" xmlns="http://www.w3.org/2000/svg" xmlns:xlink="http://www.w3.org/1999/xlink" x="0px" y="0px"
	 viewBox="0 0 51.02 51.02" style="enable-background:new 0 0 51.02 51.02;" xml:space="preserve">
<style type="text/css">
	.st0{fill:#E5273C;}
	.st1{fill:#FFFFFF;}
	.st2{fill:none;stroke:#FFFFFF;stroke-width:0.5952;stroke-linecap:round;stroke-miterlimit:10;}
	.st3{fill:#FCC30C;}
	.st4{fill:#A31B43;}
	.st5{fill:#F59C2D;}
	.st6{fill:#ED692F;}
	.st7{fill:#DDA73A;}
	.st8{fill:#4E9F38;}
	.st9{fill:#C51D2E;}
	.st10{fill:#E8422F;}
	.st11{fill:#2EBCE1;}
	.st12{fill:#DE1868;}
	.st13{fill:#BE8B30;}
	.st14{fill:#61B235;}
	.st15{fill:#02699F;}
	.st16{fill:#1896D4;}
	.st17{fill:#3F7F45;}
	.st18{fill:#1A496A;}
</style>
<g>
	<rect x="0.37" y="0.37" class="st13" width="50.29" height="50.29"/>
	<path class="st1" d="M4.68,6.64c-0.09,0.05-0.34,0.15-0.76,0.3C3.59,7.04,3.38,7.12,3.29,7.16V5.79c0.27-0.1,0.59-0.26,0.98-0.47
		c0.38-0.21,0.65-0.41,0.81-0.58h1.43v9.59H4.68V6.64z"/>
	<path class="st1" d="M7.53,13.04l2.32-3.59l0.14-0.21c0.3-0.45,0.52-0.83,0.66-1.13c0.14-0.3,0.21-0.64,0.21-1
		c0-0.31-0.06-0.54-0.18-0.7c-0.12-0.16-0.29-0.24-0.51-0.24c-0.33,0-0.56,0.13-0.69,0.38c-0.13,0.25-0.19,0.6-0.19,1.04v0.44H7.53
		V7.55c0-0.9,0.21-1.61,0.63-2.14c0.42-0.52,1.08-0.79,1.98-0.79c0.83,0,1.46,0.22,1.89,0.66c0.43,0.44,0.65,1.06,0.65,1.86
		c0,0.36-0.06,0.71-0.17,1.03c-0.11,0.32-0.24,0.61-0.39,0.86c-0.15,0.25-0.38,0.61-0.7,1.08l-1.85,2.77h2.85v1.44h-4.9V13.04z"/>
	<path class="st1" d="M16.37,8.4V4.74h1.05c0.63,0,0.94,0.35,0.94,1.04c0,0.34-0.09,0.59-0.26,0.75c-0.17,0.16-0.41,0.24-0.72,0.24
		h-0.34V8.4H16.37z M17.03,6.29h0.21c0.19,0,0.32-0.04,0.38-0.11c0.07-0.07,0.1-0.21,0.1-0.41c0-0.11,0-0.2-0.01-0.26
		c-0.01-0.06-0.03-0.12-0.06-0.17c-0.03-0.05-0.08-0.09-0.14-0.11c-0.06-0.02-0.15-0.03-0.26-0.03h-0.22V6.29z"/>
	<path class="st1" d="M18.58,8.4V4.74h0.84c0.19,0,0.36,0.02,0.5,0.05c0.14,0.03,0.26,0.08,0.36,0.16c0.1,0.07,0.18,0.18,0.23,0.3
		c0.05,0.13,0.08,0.28,0.08,0.47c0,0.23-0.03,0.42-0.1,0.56c-0.07,0.15-0.18,0.25-0.34,0.32l0.51,1.81h-0.67l-0.44-1.67h-0.3V8.4
		H18.58z M19.25,6.3h0.16c0.2,0,0.34-0.04,0.42-0.13c0.08-0.08,0.13-0.23,0.13-0.43c0-0.2-0.04-0.34-0.11-0.42
		c-0.07-0.09-0.2-0.13-0.4-0.13h-0.2V6.3z"/>
	<path class="st1" d="M21.95,8.44c-0.38,0-0.65-0.1-0.81-0.31c-0.16-0.2-0.25-0.5-0.25-0.9V5.89c0-0.19,0.02-0.36,0.06-0.51
		c0.04-0.14,0.1-0.27,0.18-0.37c0.08-0.1,0.19-0.18,0.33-0.24c0.14-0.05,0.3-0.08,0.5-0.08c0.38,0,0.65,0.1,0.81,0.3
		c0.16,0.2,0.25,0.5,0.25,0.89v1.35c0,0.19-0.02,0.36-0.06,0.5c-0.04,0.15-0.1,0.27-0.18,0.38c-0.08,0.11-0.19,0.19-0.33,0.24
		C22.31,8.42,22.14,8.44,21.95,8.44 M21.78,7.92c0.05,0.02,0.1,0.03,0.17,0.03s0.12-0.01,0.17-0.03c0.05-0.02,0.08-0.04,0.11-0.08
		c0.03-0.03,0.05-0.07,0.06-0.12c0.02-0.05,0.03-0.1,0.03-0.15c0-0.05,0.01-0.11,0.01-0.18V5.73c0-0.09,0-0.16-0.01-0.22
		c-0.01-0.06-0.03-0.11-0.05-0.17c-0.03-0.05-0.06-0.09-0.12-0.12c-0.05-0.03-0.12-0.04-0.2-0.04c-0.08,0-0.15,0.01-0.2,0.04
		c-0.05,0.03-0.09,0.06-0.12,0.12c-0.03,0.05-0.04,0.11-0.05,0.17c-0.01,0.06-0.01,0.13-0.01,0.22v1.66c0,0.07,0,0.13,0.01,0.18
		c0.01,0.05,0.02,0.1,0.03,0.15c0.01,0.05,0.04,0.09,0.06,0.12C21.7,7.88,21.74,7.9,21.78,7.92"/>
	<path class="st1" d="M23.36,8.4V4.74h0.85c0.22,0,0.41,0.02,0.55,0.07c0.15,0.04,0.27,0.11,0.36,0.21c0.09,0.1,0.15,0.21,0.19,0.35
		c0.04,0.14,0.06,0.31,0.06,0.51V7.2c0,0.21-0.02,0.39-0.06,0.53C25.28,7.88,25.21,8,25.13,8.1c-0.09,0.1-0.2,0.18-0.35,0.22
		c-0.15,0.05-0.32,0.07-0.54,0.07H23.36z M24.03,7.93h0.19c0.07,0,0.12-0.01,0.17-0.02c0.05-0.01,0.09-0.03,0.13-0.04
		c0.03-0.02,0.06-0.04,0.09-0.08c0.02-0.04,0.04-0.07,0.05-0.1c0.01-0.03,0.02-0.08,0.03-0.14c0.01-0.06,0.01-0.12,0.01-0.16
		c0-0.04,0-0.11,0-0.2V5.85c0-0.09,0-0.16,0-0.21c0-0.05-0.01-0.11-0.02-0.16c-0.01-0.05-0.03-0.1-0.05-0.12
		c-0.02-0.03-0.05-0.06-0.09-0.08c-0.04-0.02-0.08-0.04-0.13-0.05c-0.05-0.01-0.12-0.01-0.19-0.01h-0.18V7.93z"/>
	<path class="st1" d="M26.73,8.44c-0.16,0-0.31-0.02-0.43-0.06c-0.12-0.04-0.22-0.09-0.3-0.16c-0.08-0.07-0.14-0.16-0.19-0.27
		c-0.05-0.11-0.08-0.23-0.1-0.35c-0.02-0.13-0.03-0.27-0.03-0.44V4.74h0.65v2.5c0,0.09,0,0.16,0.01,0.22c0,0.06,0.01,0.12,0.03,0.19
		c0.01,0.07,0.04,0.12,0.06,0.16c0.03,0.04,0.06,0.07,0.11,0.1c0.05,0.03,0.11,0.04,0.17,0.04c0.07,0,0.13-0.01,0.17-0.04
		c0.05-0.03,0.08-0.06,0.11-0.1c0.03-0.04,0.05-0.09,0.06-0.16c0.02-0.07,0.03-0.13,0.03-0.19c0-0.06,0.01-0.13,0.01-0.22v-2.5h0.65
		v2.43c0,0.17-0.01,0.31-0.03,0.44c-0.02,0.13-0.05,0.24-0.1,0.35c-0.05,0.11-0.11,0.2-0.18,0.27c-0.08,0.07-0.18,0.12-0.3,0.16
		C27.03,8.42,26.89,8.44,26.73,8.44"/>
	<path class="st1" d="M29.13,8.44c-0.16,0-0.3-0.02-0.42-0.06c-0.12-0.04-0.22-0.1-0.3-0.17c-0.08-0.07-0.14-0.16-0.19-0.26
		c-0.05-0.1-0.08-0.22-0.1-0.34c-0.02-0.12-0.03-0.26-0.03-0.41V5.94c0-0.16,0.01-0.3,0.03-0.42c0.02-0.12,0.06-0.24,0.1-0.34
		c0.05-0.11,0.11-0.19,0.19-0.26c0.08-0.07,0.18-0.12,0.3-0.16c0.12-0.04,0.26-0.06,0.42-0.06c0.18,0,0.34,0.02,0.47,0.07
		c0.13,0.05,0.23,0.12,0.31,0.21c0.08,0.09,0.13,0.2,0.16,0.33c0.03,0.13,0.05,0.27,0.05,0.44v0.31h-0.64V5.75
		c0-0.18-0.01-0.31-0.03-0.37c-0.04-0.12-0.13-0.19-0.28-0.2h-0.04c-0.06,0-0.11,0.01-0.15,0.02c-0.04,0.01-0.08,0.03-0.1,0.06
		c-0.03,0.03-0.05,0.06-0.06,0.09c-0.02,0.03-0.03,0.08-0.04,0.13c-0.01,0.05-0.01,0.1-0.02,0.15c0,0.04,0,0.1,0,0.17v1.55
		c0,0.21,0.03,0.37,0.08,0.46c0.05,0.09,0.15,0.14,0.29,0.14c0.05,0,0.09-0.01,0.12-0.02c0.04-0.01,0.07-0.03,0.09-0.04
		c0.02-0.02,0.04-0.04,0.06-0.07s0.03-0.06,0.04-0.09c0.01-0.03,0.02-0.06,0.02-0.11c0-0.05,0.01-0.09,0.01-0.12
		c0-0.03,0-0.08,0-0.14V7.03h0.64v0.3c0,0.14-0.01,0.26-0.03,0.37C30.07,7.8,30.04,7.91,29.99,8c-0.05,0.1-0.11,0.18-0.18,0.24
		c-0.07,0.06-0.17,0.11-0.28,0.15C29.41,8.43,29.28,8.44,29.13,8.44"/>
	<path class="st1" d="M31.43,8.44c-0.16,0-0.3-0.02-0.42-0.06c-0.12-0.04-0.22-0.1-0.3-0.17c-0.08-0.07-0.14-0.16-0.19-0.26
		c-0.05-0.1-0.08-0.22-0.1-0.34c-0.02-0.12-0.03-0.26-0.03-0.41V5.94c0-0.16,0.01-0.3,0.03-0.42c0.02-0.12,0.06-0.24,0.1-0.34
		c0.05-0.11,0.11-0.19,0.19-0.26c0.08-0.07,0.18-0.12,0.3-0.16c0.12-0.04,0.26-0.06,0.42-0.06c0.18,0,0.34,0.02,0.47,0.07
		c0.13,0.05,0.23,0.12,0.31,0.21c0.08,0.09,0.13,0.2,0.16,0.33c0.03,0.13,0.05,0.27,0.05,0.44v0.31h-0.64V5.75
		c0-0.18-0.01-0.31-0.03-0.37c-0.04-0.12-0.13-0.19-0.28-0.2h-0.04c-0.06,0-0.11,0.01-0.15,0.02c-0.04,0.01-0.08,0.03-0.1,0.06
		c-0.03,0.03-0.05,0.06-0.06,0.09c-0.02,0.03-0.03,0.08-0.04,0.13c-0.01,0.05-0.01,0.1-0.02,0.15c0,0.04,0,0.1,0,0.17v1.55
		c0,0.21,0.03,0.37,0.08,0.46c0.05,0.09,0.15,0.14,0.29,0.14c0.05,0,0.09-0.01,0.12-0.02c0.04-0.01,0.07-0.03,0.09-0.04
		c0.02-0.02,0.04-0.04,0.06-0.07c0.02-0.03,0.03-0.06,0.04-0.09c0.01-0.03,0.02-0.06,0.02-0.11c0-0.05,0.01-0.09,0.01-0.12
		c0-0.03,0-0.08,0-0.14V7.03h0.64v0.3c0,0.14-0.01,0.26-0.03,0.37C32.37,7.8,32.34,7.91,32.29,8c-0.05,0.1-0.11,0.18-0.18,0.24
		c-0.07,0.06-0.17,0.11-0.28,0.15C31.71,8.43,31.58,8.44,31.43,8.44"/>
	<rect x="32.76" y="4.74" class="st1" width="0.66" height="3.66"/>
	<path class="st1" d="M34.85,8.44c-0.38,0-0.65-0.1-0.81-0.31c-0.16-0.2-0.25-0.51-0.25-0.9V5.89c0-0.19,0.02-0.36,0.06-0.51
		c0.04-0.14,0.1-0.27,0.18-0.37c0.08-0.1,0.19-0.18,0.33-0.24c0.14-0.05,0.3-0.08,0.5-0.08c0.38,0,0.65,0.1,0.81,0.3
		c0.16,0.2,0.25,0.5,0.25,0.89v1.35c0,0.19-0.02,0.36-0.06,0.5c-0.04,0.15-0.1,0.27-0.18,0.38c-0.08,0.11-0.19,0.19-0.33,0.24
		C35.2,8.42,35.04,8.44,34.85,8.44 M34.68,7.92c0.05,0.02,0.1,0.03,0.17,0.03c0.06,0,0.12-0.01,0.17-0.03
		c0.05-0.02,0.08-0.04,0.11-0.08c0.03-0.03,0.05-0.07,0.06-0.12c0.02-0.05,0.03-0.1,0.03-0.15c0.01-0.05,0.01-0.11,0.01-0.18V5.73
		c0-0.09,0-0.16-0.01-0.22c-0.01-0.06-0.03-0.11-0.05-0.17c-0.03-0.05-0.06-0.09-0.12-0.12c-0.05-0.03-0.12-0.04-0.2-0.04
		c-0.08,0-0.15,0.01-0.2,0.04c-0.05,0.03-0.09,0.06-0.12,0.12c-0.03,0.05-0.04,0.11-0.05,0.17c-0.01,0.06-0.01,0.13-0.01,0.22v1.66
		c0,0.07,0,0.13,0.01,0.18c0.01,0.05,0.02,0.1,0.03,0.15c0.02,0.05,0.04,0.09,0.06,0.12C34.6,7.88,34.63,7.9,34.68,7.92 M34.67,4.42
		l0.27-0.9h0.63l-0.54,0.9H34.67z"/>
	<polygon class="st1" points="36.27,8.4 36.27,4.74 36.73,4.74 37.63,6.81 37.63,4.74 38.18,4.74 38.18,8.4 37.74,8.4 36.84,6.22 
		36.84,8.4 	"/>
	<polygon class="st1" points="16.88,14.39 16.88,12.99 16.14,10.72 16.76,10.72 17.21,12.18 17.64,10.72 18.26,10.72 17.52,12.99 
		17.52,14.39 	"/>
	<path class="st1" d="M20.4,14.43c-0.16,0-0.3-0.02-0.42-0.06c-0.12-0.04-0.22-0.1-0.3-0.17c-0.08-0.07-0.14-0.16-0.19-0.26
		c-0.05-0.1-0.08-0.22-0.1-0.34c-0.02-0.12-0.03-0.26-0.03-0.41v-1.28c0-0.16,0.01-0.3,0.03-0.42c0.02-0.12,0.06-0.24,0.1-0.34
		c0.05-0.11,0.11-0.19,0.19-0.26c0.08-0.07,0.18-0.12,0.3-0.16c0.12-0.04,0.26-0.06,0.42-0.06c0.18,0,0.34,0.02,0.47,0.07
		c0.13,0.05,0.23,0.12,0.31,0.21c0.08,0.09,0.13,0.2,0.16,0.33c0.03,0.13,0.05,0.27,0.05,0.44v0.31h-0.64v-0.31
		c0-0.18-0.01-0.31-0.03-0.37c-0.04-0.12-0.13-0.19-0.28-0.2H20.4c-0.06,0-0.11,0.01-0.15,0.02c-0.04,0.01-0.08,0.03-0.1,0.06
		c-0.03,0.03-0.05,0.06-0.06,0.09c-0.02,0.03-0.03,0.07-0.04,0.13c-0.01,0.05-0.01,0.1-0.02,0.15c0,0.04,0,0.1,0,0.17v1.55
		c0,0.22,0.03,0.37,0.08,0.46c0.05,0.09,0.15,0.14,0.29,0.14c0.05,0,0.09-0.01,0.12-0.02c0.04-0.01,0.07-0.03,0.09-0.04
		c0.02-0.02,0.04-0.04,0.06-0.07c0.02-0.03,0.03-0.06,0.04-0.09c0.01-0.03,0.02-0.07,0.02-0.11c0-0.05,0.01-0.09,0.01-0.12
		c0-0.03,0-0.08,0-0.14v-0.33h0.64v0.3c0,0.14-0.01,0.26-0.03,0.37c-0.02,0.11-0.05,0.21-0.1,0.31c-0.05,0.1-0.11,0.18-0.18,0.24
		c-0.07,0.06-0.17,0.11-0.28,0.15S20.55,14.43,20.4,14.43"/>
	<path class="st1" d="M22.71,14.43c-0.38,0-0.65-0.1-0.81-0.31c-0.16-0.2-0.25-0.5-0.25-0.9v-1.35c0-0.19,0.02-0.36,0.06-0.51
		c0.04-0.14,0.1-0.27,0.18-0.37c0.08-0.1,0.19-0.18,0.33-0.24c0.14-0.05,0.3-0.08,0.5-0.08c0.38,0,0.65,0.1,0.81,0.3
		c0.16,0.2,0.25,0.5,0.25,0.89v1.35c0,0.19-0.02,0.36-0.06,0.5c-0.04,0.15-0.1,0.27-0.18,0.38c-0.08,0.11-0.19,0.19-0.33,0.24
		C23.07,14.41,22.9,14.43,22.71,14.43 M22.54,13.91c0.05,0.02,0.1,0.03,0.17,0.03s0.12-0.01,0.17-0.03
		c0.05-0.02,0.08-0.04,0.11-0.08c0.03-0.03,0.05-0.07,0.06-0.12c0.02-0.05,0.03-0.1,0.03-0.15c0-0.05,0.01-0.11,0.01-0.18v-1.66
		c0-0.09,0-0.16-0.01-0.22c-0.01-0.06-0.03-0.11-0.05-0.17c-0.03-0.05-0.06-0.09-0.12-0.12c-0.05-0.03-0.12-0.04-0.2-0.04
		c-0.08,0-0.15,0.01-0.2,0.04c-0.05,0.03-0.09,0.06-0.12,0.12c-0.03,0.05-0.04,0.11-0.05,0.17c-0.01,0.06-0.01,0.13-0.01,0.22v1.66
		c0,0.07,0,0.13,0.01,0.18c0.01,0.05,0.02,0.1,0.03,0.15c0.01,0.05,0.04,0.09,0.06,0.12C22.46,13.86,22.5,13.89,22.54,13.91"/>
	<polygon class="st1" points="24.12,14.39 24.12,10.72 24.58,10.72 25.48,12.8 25.48,10.72 26.03,10.72 26.03,14.39 25.59,14.39 
		24.68,12.21 24.68,14.39 	"/>
	<path class="st1" d="M27.36,14.43c-0.65,0-0.98-0.37-1.02-1.12l0.58-0.12c0.01,0.48,0.15,0.73,0.42,0.73c0.1,0,0.18-0.03,0.23-0.09
		c0.05-0.06,0.07-0.15,0.07-0.25c0-0.1-0.02-0.2-0.06-0.28c-0.04-0.08-0.08-0.15-0.13-0.21c-0.05-0.05-0.12-0.12-0.21-0.2
		l-0.48-0.42c-0.14-0.12-0.25-0.25-0.32-0.39c-0.07-0.13-0.1-0.3-0.1-0.5c0-0.28,0.08-0.5,0.25-0.66c0.17-0.16,0.4-0.24,0.69-0.24
		c0.13,0,0.25,0.01,0.36,0.05c0.1,0.03,0.19,0.08,0.26,0.14c0.07,0.06,0.12,0.13,0.17,0.22c0.04,0.09,0.08,0.18,0.1,0.27
		c0.02,0.09,0.04,0.2,0.05,0.31l-0.57,0.11c0-0.07-0.01-0.14-0.01-0.19c-0.01-0.05-0.02-0.11-0.03-0.17
		c-0.02-0.06-0.04-0.1-0.06-0.14c-0.03-0.04-0.06-0.06-0.1-0.08c-0.04-0.02-0.09-0.03-0.15-0.02c-0.1,0.01-0.17,0.04-0.23,0.1
		c-0.05,0.06-0.08,0.14-0.08,0.24c0,0.12,0.02,0.22,0.07,0.29c0.05,0.08,0.12,0.16,0.22,0.24l0.48,0.42
		c0.08,0.07,0.15,0.14,0.21,0.21c0.06,0.07,0.12,0.15,0.17,0.23c0.05,0.09,0.09,0.18,0.12,0.29c0.03,0.1,0.04,0.22,0.04,0.33
		c0,0.27-0.08,0.48-0.25,0.65C27.86,14.35,27.64,14.43,27.36,14.43"/>
	<path class="st1" d="M29.54,14.43c-0.16,0-0.31-0.02-0.43-0.06c-0.12-0.04-0.22-0.09-0.3-0.16c-0.08-0.07-0.14-0.16-0.19-0.27
		c-0.05-0.11-0.08-0.23-0.1-0.35c-0.02-0.13-0.03-0.27-0.03-0.44v-2.43h0.65v2.5c0,0.09,0,0.16,0.01,0.22
		c0,0.06,0.01,0.12,0.03,0.19c0.01,0.07,0.04,0.12,0.06,0.16c0.03,0.04,0.06,0.07,0.11,0.1c0.05,0.03,0.11,0.04,0.17,0.04
		c0.07,0,0.13-0.01,0.17-0.04c0.05-0.03,0.08-0.06,0.11-0.1c0.03-0.04,0.05-0.09,0.06-0.16c0.02-0.07,0.02-0.13,0.03-0.19
		c0-0.06,0.01-0.13,0.01-0.22v-2.5h0.65v2.43c0,0.17-0.01,0.31-0.03,0.44c-0.02,0.13-0.05,0.24-0.1,0.35
		c-0.05,0.11-0.11,0.2-0.18,0.27c-0.08,0.07-0.18,0.12-0.29,0.16C29.84,14.41,29.7,14.43,29.54,14.43"/>
	<polygon class="st1" points="30.95,14.39 31.01,10.72 31.69,10.72 32.22,13.3 32.77,10.72 33.44,10.72 33.5,14.39 32.99,14.39 
		32.95,11.86 32.42,14.39 32.03,14.39 31.5,11.86 31.46,14.39 	"/>
	<path class="st1" d="M34.9,14.43c-0.38,0-0.65-0.1-0.81-0.31c-0.16-0.2-0.25-0.5-0.25-0.9v-1.35c0-0.19,0.02-0.36,0.06-0.51
		c0.04-0.14,0.1-0.27,0.18-0.37c0.08-0.1,0.19-0.18,0.33-0.24c0.14-0.05,0.3-0.08,0.5-0.08c0.38,0,0.65,0.1,0.81,0.3
		c0.16,0.2,0.25,0.5,0.25,0.89v1.35c0,0.19-0.02,0.36-0.06,0.5c-0.04,0.15-0.1,0.27-0.18,0.38c-0.08,0.11-0.19,0.19-0.33,0.24
		C35.26,14.41,35.09,14.43,34.9,14.43 M34.73,13.91c0.05,0.02,0.1,0.03,0.17,0.03c0.06,0,0.12-0.01,0.17-0.03
		c0.05-0.02,0.08-0.04,0.11-0.08c0.03-0.03,0.05-0.07,0.06-0.12c0.02-0.05,0.03-0.1,0.03-0.15c0-0.05,0.01-0.11,0.01-0.18v-1.66
		c0-0.09,0-0.16-0.01-0.22c-0.01-0.06-0.03-0.11-0.05-0.17c-0.03-0.05-0.06-0.09-0.12-0.12c-0.05-0.03-0.12-0.04-0.2-0.04
		s-0.15,0.01-0.2,0.04c-0.05,0.03-0.09,0.06-0.12,0.12c-0.03,0.05-0.04,0.11-0.05,0.17c-0.01,0.06-0.01,0.13-0.01,0.22v1.66
		c0,0.07,0,0.13,0.01,0.18c0.01,0.05,0.02,0.1,0.03,0.15c0.01,0.05,0.04,0.09,0.06,0.12C34.65,13.86,34.69,13.89,34.73,13.91"/>
	<path class="st1" d="M16.37,20.38v-3.66h0.84c0.19,0,0.36,0.02,0.5,0.05c0.14,0.03,0.26,0.08,0.36,0.16
		c0.1,0.07,0.18,0.18,0.23,0.3c0.05,0.13,0.08,0.28,0.08,0.47c0,0.23-0.03,0.42-0.1,0.56c-0.07,0.15-0.18,0.25-0.34,0.32l0.51,1.81
		h-0.67l-0.44-1.67h-0.3v1.67H16.37z M17.03,18.28h0.16c0.2,0,0.34-0.04,0.42-0.13c0.08-0.08,0.13-0.23,0.13-0.43
		c0-0.2-0.04-0.34-0.11-0.42c-0.07-0.08-0.2-0.13-0.4-0.13h-0.2V18.28z"/>
	<polygon class="st1" points="18.74,20.38 18.74,16.71 20.28,16.71 20.28,17.18 19.41,17.18 19.41,18.24 20.09,18.24 20.09,18.71 
		19.41,18.71 19.41,19.92 20.29,19.92 20.29,20.38 	"/>
	<path class="st1" d="M21.46,20.42c-0.65,0-0.98-0.37-1.02-1.12l0.58-0.12c0.01,0.48,0.15,0.73,0.42,0.73c0.1,0,0.18-0.03,0.23-0.09
		c0.05-0.06,0.07-0.15,0.07-0.25c0-0.1-0.02-0.2-0.06-0.28c-0.04-0.08-0.08-0.15-0.13-0.21c-0.05-0.05-0.12-0.12-0.21-0.2
		l-0.48-0.42c-0.14-0.12-0.25-0.25-0.32-0.39c-0.07-0.13-0.1-0.3-0.1-0.5c0-0.28,0.08-0.51,0.25-0.66c0.17-0.16,0.4-0.24,0.69-0.24
		c0.13,0,0.25,0.02,0.36,0.05c0.1,0.03,0.19,0.08,0.25,0.14c0.07,0.06,0.12,0.13,0.17,0.22c0.04,0.09,0.08,0.18,0.1,0.27
		c0.02,0.09,0.04,0.2,0.05,0.31l-0.57,0.11c0-0.07-0.01-0.14-0.01-0.19c-0.01-0.05-0.02-0.11-0.03-0.17
		c-0.02-0.06-0.04-0.1-0.06-0.14c-0.03-0.04-0.06-0.06-0.1-0.08c-0.04-0.02-0.09-0.03-0.15-0.02c-0.1,0.01-0.17,0.04-0.23,0.1
		c-0.05,0.06-0.08,0.14-0.08,0.24c0,0.12,0.02,0.22,0.07,0.29c0.05,0.08,0.12,0.16,0.22,0.24l0.48,0.42
		c0.08,0.07,0.15,0.14,0.21,0.21c0.06,0.07,0.12,0.15,0.17,0.23c0.05,0.09,0.09,0.18,0.12,0.29c0.03,0.1,0.04,0.22,0.04,0.33
		c0,0.27-0.08,0.48-0.25,0.65C21.96,20.34,21.73,20.42,21.46,20.42"/>
	<path class="st1" d="M22.63,20.38v-3.66h1.05c0.62,0,0.94,0.35,0.94,1.04c0,0.34-0.09,0.59-0.26,0.75
		c-0.17,0.16-0.41,0.24-0.72,0.24H23.3v1.64H22.63z M23.3,18.27h0.21c0.19,0,0.32-0.04,0.38-0.11c0.07-0.07,0.1-0.21,0.1-0.41
		c0-0.11,0-0.2-0.01-0.26c-0.01-0.06-0.03-0.12-0.06-0.17c-0.03-0.05-0.08-0.09-0.14-0.11c-0.06-0.02-0.15-0.03-0.26-0.03H23.3
		V18.27z"/>
	<path class="st1" d="M25.84,20.42c-0.38,0-0.65-0.1-0.81-0.31c-0.16-0.2-0.25-0.5-0.25-0.9v-1.35c0-0.19,0.02-0.36,0.06-0.51
		c0.04-0.14,0.1-0.27,0.18-0.37c0.08-0.1,0.19-0.18,0.33-0.24c0.14-0.05,0.3-0.08,0.5-0.08c0.38,0,0.65,0.1,0.81,0.3
		c0.16,0.2,0.25,0.5,0.25,0.89v1.35c0,0.19-0.02,0.36-0.06,0.5c-0.04,0.15-0.1,0.27-0.18,0.38c-0.08,0.11-0.19,0.19-0.33,0.24
		C26.2,20.39,26.03,20.42,25.84,20.42 M25.67,19.9c0.05,0.02,0.1,0.03,0.17,0.03s0.12-0.01,0.17-0.03c0.05-0.02,0.08-0.04,0.11-0.08
		c0.03-0.03,0.05-0.07,0.06-0.12c0.02-0.05,0.03-0.1,0.03-0.15c0-0.05,0.01-0.11,0.01-0.18v-1.66c0-0.09,0-0.16-0.01-0.22
		c-0.01-0.06-0.03-0.11-0.05-0.17c-0.03-0.05-0.06-0.09-0.12-0.12c-0.05-0.03-0.12-0.04-0.2-0.04c-0.08,0-0.15,0.01-0.2,0.04
		c-0.05,0.03-0.09,0.06-0.12,0.12c-0.03,0.05-0.04,0.11-0.05,0.17c-0.01,0.06-0.01,0.13-0.01,0.22v1.66c0,0.07,0,0.13,0.01,0.18
		c0.01,0.05,0.02,0.1,0.03,0.15c0.01,0.05,0.04,0.09,0.06,0.12C25.59,19.85,25.63,19.88,25.67,19.9"/>
	<polygon class="st1" points="27.25,20.38 27.25,16.71 27.71,16.71 28.61,18.79 28.61,16.71 29.16,16.71 29.16,20.38 28.72,20.38 
		27.82,18.2 27.82,20.38 	"/>
	<path class="st1" d="M30.5,20.42c-0.65,0-0.98-0.37-1.02-1.12l0.58-0.12c0.01,0.48,0.15,0.73,0.42,0.73c0.1,0,0.18-0.03,0.23-0.09
		c0.05-0.06,0.07-0.15,0.07-0.25c0-0.1-0.02-0.2-0.06-0.28c-0.04-0.08-0.08-0.15-0.13-0.21c-0.05-0.05-0.12-0.12-0.21-0.2
		l-0.48-0.42c-0.14-0.12-0.25-0.25-0.32-0.39c-0.07-0.13-0.1-0.3-0.1-0.5c0-0.28,0.08-0.51,0.25-0.66c0.17-0.16,0.4-0.24,0.69-0.24
		c0.13,0,0.25,0.02,0.36,0.05c0.1,0.03,0.19,0.08,0.26,0.14c0.07,0.06,0.12,0.13,0.17,0.22c0.04,0.09,0.08,0.18,0.1,0.27
		c0.02,0.09,0.04,0.2,0.05,0.31l-0.57,0.11c0-0.07-0.01-0.14-0.01-0.19c-0.01-0.05-0.02-0.11-0.03-0.17
		c-0.02-0.06-0.04-0.1-0.06-0.14c-0.03-0.04-0.06-0.06-0.1-0.08c-0.04-0.02-0.09-0.03-0.15-0.02c-0.1,0.01-0.17,0.04-0.23,0.1
		c-0.05,0.06-0.08,0.14-0.08,0.24c0,0.12,0.02,0.22,0.07,0.29c0.05,0.08,0.12,0.16,0.22,0.24l0.48,0.42
		c0.08,0.07,0.15,0.14,0.21,0.21c0.06,0.07,0.12,0.15,0.17,0.23c0.05,0.09,0.1,0.18,0.12,0.29c0.03,0.1,0.04,0.22,0.04,0.33
		c0,0.27-0.08,0.48-0.25,0.65C30.99,20.34,30.77,20.42,30.5,20.42"/>
	<path class="st1" d="M31.48,20.38l0.74-3.66h0.7l0.74,3.66h-0.62l-0.15-0.85h-0.63l-0.15,0.85H31.48z M32.33,19.09h0.49l-0.25-1.51
		L32.33,19.09z"/>
	<path class="st1" d="M33.89,20.38v-3.66h0.9c0.17,0,0.32,0.01,0.44,0.04c0.13,0.03,0.24,0.08,0.34,0.15
		c0.1,0.07,0.17,0.17,0.22,0.29c0.05,0.12,0.07,0.27,0.07,0.45c0,0.45-0.18,0.71-0.54,0.76c0.22,0.04,0.38,0.14,0.48,0.28
		c0.11,0.15,0.16,0.36,0.16,0.62c0,0.35-0.09,0.61-0.26,0.79c-0.18,0.18-0.43,0.27-0.77,0.27H33.89z M34.55,18.21h0.21
		c0.2,0,0.33-0.04,0.4-0.13c0.07-0.08,0.11-0.23,0.11-0.42c0-0.1-0.01-0.19-0.04-0.25c-0.02-0.06-0.06-0.11-0.12-0.14
		c-0.06-0.03-0.12-0.05-0.19-0.06c-0.07-0.01-0.16-0.02-0.28-0.02h-0.09V18.21z M34.55,19.91h0.25c0.2,0,0.34-0.05,0.41-0.14
		c0.08-0.09,0.11-0.25,0.11-0.46c0-0.22-0.04-0.38-0.13-0.48c-0.09-0.1-0.23-0.15-0.43-0.15h-0.21V19.91z"/>
	<polygon class="st1" points="36.26,20.38 36.26,16.71 36.93,16.71 36.93,19.92 37.81,19.92 37.81,20.38 	"/>
	<polygon class="st1" points="38.03,20.38 38.03,16.71 39.56,16.71 39.56,17.18 38.69,17.18 38.69,18.24 39.38,18.24 39.38,18.71 
		38.69,18.71 38.69,19.92 39.57,19.92 39.57,20.38 	"/>
	<path class="st1" d="M40.74,20.42c-0.65,0-0.98-0.37-1.02-1.12l0.58-0.12c0.01,0.48,0.15,0.73,0.42,0.73c0.1,0,0.18-0.03,0.23-0.09
		c0.05-0.06,0.07-0.15,0.07-0.25c0-0.1-0.02-0.2-0.06-0.28c-0.04-0.08-0.08-0.15-0.13-0.21c-0.05-0.05-0.12-0.12-0.21-0.2
		l-0.48-0.42c-0.14-0.12-0.25-0.25-0.32-0.39c-0.07-0.13-0.1-0.3-0.1-0.5c0-0.28,0.08-0.51,0.25-0.66c0.17-0.16,0.4-0.24,0.69-0.24
		c0.13,0,0.25,0.02,0.36,0.05c0.1,0.03,0.19,0.08,0.26,0.14c0.07,0.06,0.12,0.13,0.17,0.22c0.04,0.09,0.08,0.18,0.1,0.27
		c0.02,0.09,0.04,0.2,0.05,0.31l-0.57,0.11c0-0.07-0.01-0.14-0.01-0.19c-0.01-0.05-0.02-0.11-0.03-0.17
		c-0.02-0.06-0.04-0.1-0.06-0.14c-0.03-0.04-0.06-0.06-0.1-0.08c-0.04-0.02-0.09-0.03-0.15-0.02c-0.1,0.01-0.17,0.04-0.23,0.1
		c-0.05,0.06-0.08,0.14-0.08,0.24c0,0.12,0.02,0.22,0.07,0.29c0.05,0.08,0.12,0.16,0.22,0.24l0.48,0.42
		c0.08,0.07,0.15,0.14,0.21,0.21c0.06,0.07,0.11,0.15,0.17,0.23c0.05,0.09,0.09,0.18,0.12,0.29c0.03,0.1,0.04,0.22,0.04,0.33
		c0,0.27-0.08,0.48-0.25,0.65C41.24,20.34,41.02,20.42,40.74,20.42"/>
	<path class="st1" d="M38.33,26.46c-2.23-1.76-5.19-1.8-6.27-1.54l-0.13,0.03c-1.25,0.3-3.24,0.78-5.56,3.67
		c-0.01,0.02-0.03,0.03-0.04,0.05l-0.03,0.04c-0.02,0.03-0.04,0.07-0.04,0.11c0,0.03,0.01,0.07,0.03,0.1L26.35,29
		c0.29,0.49,0.66,1.12,0.97,1.7c0,0.01,0.01,0.01,0.01,0.02c0.03,0.06,0.1,0.11,0.18,0.11c0.05,0,0.1-0.02,0.14-0.06
		c0.01-0.02,0.03-0.04,0.04-0.06c2.06-2.85,3.69-3.25,4.78-3.51l0.13-0.03c0.57-0.14,2.74-0.13,4.3,1.11
		c1.22,0.96,1.84,2.5,1.84,4.56c0,3.45-1.68,4.81-3.09,5.33c-2.18,0.82-4.28-0.28-4.29-0.28l-0.09-0.05
		c-1.2-0.52-2.99-1.6-4.68-4.99c-3.4-6.83-6.25-7.47-8.13-7.9l-0.1-0.02c-0.86-0.19-3.83-0.33-6.17,1.54
		c-1.22,0.98-2.68,2.87-2.68,6.37c0,2.13,0.44,3.53,1.56,5.01c0.25,0.34,2.77,3.57,7.64,2.64c0.78-0.15,1.84-0.52,3-1.39l1.07,0.97
		c0.07,0.06,0.18,0.06,0.25-0.01c0.03-0.03,0.04-0.08,0.04-0.12v-0.01l0.77-4.76l0-0.05c0-0.05-0.02-0.09-0.06-0.13
		c-0.03-0.03-0.07-0.04-0.11-0.04l-0.03,0l-0.05,0.01l-4.56,1.28l-0.08,0.01c-0.03,0.01-0.06,0.02-0.09,0.05
		c-0.07,0.07-0.06,0.18,0.01,0.25l0.05,0.05l1.02,0.92c-0.66,0.43-1.23,0.62-1.67,0.71c-3.52,0.67-5.26-1.64-5.33-1.73l-0.02-0.03
		c-0.82-1.07-1.09-1.99-1.09-3.62c0-2.07,0.61-3.6,1.81-4.56c1.52-1.22,3.62-1.22,4.22-1.09l0.1,0.02c1.54,0.35,3.66,0.83,6.57,6.68
		c1.51,3.04,3.41,5.02,5.79,6.07c0.3,0.15,1.75,0.84,3.63,0.84c0.79,0,1.65-0.12,2.53-0.45c1.38-0.52,4.6-2.28,4.6-7.5
		C41.05,29.34,39.57,27.44,38.33,26.46"/>
</g>
</svg>
