<?xml version="1.0" encoding="utf-8"?>
<!-- Generator: Adobe Illustrator 26.5.0, SVG Export Plug-In . SVG Version: 6.00 Build 0)  -->
<svg version="1.1" id="Capa_1" xmlns="http://www.w3.org/2000/svg" xmlns:xlink="http://www.w3.org/1999/xlink" x="0px" y="0px"
	 viewBox="0 0 51.02 51.02" style="enable-background:new 0 0 51.02 51.02;" xml:space="preserve">
<style type="text/css">
	.st0{fill:#E5273C;}
	.st1{fill:#FFFFFF;}
	.st2{fill:none;stroke:#FFFFFF;stroke-width:0.5952;stroke-linecap:round;stroke-miterlimit:10;}
	.st3{fill:#FCC30C;}
	.st4{fill:#A31B43;}
	.st5{fill:#F59C2D;}
	.st6{fill:#ED692F;}
	.st7{fill:#DDA73A;}
	.st8{fill:#4E9F38;}
	.st9{fill:#C51D2E;}
	.st10{fill:#E8422F;}
	.st11{fill:#2EBCE1;}
	.st12{fill:#DE1868;}
	.st13{fill:#BE8B30;}
	.st14{fill:#61B235;}
	.st15{fill:#02699F;}
	.st16{fill:#1896D4;}
	.st17{fill:#3F7F45;}
	.st18{fill:#1A496A;}
</style>
<g>
	<path class="st1" d="M36.02,33.33c0-2.92-2.32-5.31-5.22-5.41c-0.75-2.1-2.75-3.61-5.11-3.61c-2.35,0-4.36,1.51-5.11,3.61
		c-2.9,0.11-5.22,2.49-5.22,5.41c0,1.73,0.82,3.28,2.09,4.27c-0.14,0.48-0.21,0.98-0.21,1.5c0,2.99,2.43,5.42,5.42,5.42
		c1.13,0,2.19-0.35,3.06-0.95c0.86,0.58,1.89,0.91,3.01,0.91c2.99,0,5.42-2.43,5.42-5.42c0-0.51-0.07-1.01-0.21-1.47
		C35.21,36.6,36.02,35.06,36.02,33.33 M30.02,29.72c0,2.17-1.61,3.97-3.69,4.28c-0.03-0.22-0.06-0.44-0.06-0.66
		c0-2.17,1.61-3.97,3.69-4.28C30,29.27,30.02,29.49,30.02,29.72 M25.71,42.17c-0.81-0.79-1.32-1.89-1.32-3.1
		c0-1.2,0.49-2.28,1.28-3.07c0.81,0.79,1.32,1.89,1.32,3.1C26.99,40.3,26.5,41.39,25.71,42.17 M21.42,29.05
		c2.08,0.31,3.69,2.11,3.69,4.28c0,0.23-0.02,0.45-0.06,0.66c-2.08-0.31-3.69-2.11-3.69-4.28C21.37,29.49,21.39,29.27,21.42,29.05
		 M24.65,35.27c-0.71,1.42-2.17,2.39-3.86,2.39c-0.72,0-1.39-0.18-1.99-0.49c0.71-1.42,2.18-2.39,3.87-2.39
		C23.38,34.78,24.05,34.96,24.65,35.27 M26.72,35.24c0.6-0.31,1.28-0.49,2-0.49c1.7,0,3.17,0.99,3.88,2.42c-0.6,0.31-1.28,0.5-2,0.5
		C28.9,37.66,27.43,36.67,26.72,35.24 M25.69,25.39c1.77,0,3.3,1.07,3.97,2.6c-1.76,0.31-3.23,1.47-3.97,3.05
		c-0.74-1.57-2.21-2.73-3.97-3.05C22.39,26.46,23.92,25.39,25.69,25.39 M16.46,33.33c0-2.23,1.69-4.07,3.86-4.3
		c-0.03,0.23-0.05,0.46-0.05,0.69c0,1.58,0.68,3.01,1.77,4c-1.8,0.2-3.33,1.29-4.15,2.82C17.01,35.75,16.46,34.6,16.46,33.33
		 M18.33,39.11c0-0.31,0.03-0.61,0.09-0.9c0.71,0.35,1.51,0.54,2.36,0.54c0.95,0,1.84-0.25,2.62-0.68c-0.06,0.32-0.09,0.66-0.09,1
		c0,1.46,0.58,2.79,1.53,3.77c-0.64,0.38-1.38,0.59-2.18,0.59C20.27,43.43,18.33,41.49,18.33,39.11 M33.05,39.07
		c0,2.39-1.94,4.33-4.33,4.33c-0.78,0-1.5-0.21-2.13-0.57c0.92-0.97,1.49-2.28,1.49-3.72c0-0.35-0.04-0.7-0.1-1.04
		c0.78,0.43,1.67,0.68,2.62,0.68c0.85,0,1.65-0.2,2.36-0.54C33.02,38.48,33.05,38.77,33.05,39.07 M29.38,33.69
		c1.07-0.99,1.74-2.4,1.74-3.97c0-0.23-0.02-0.47-0.05-0.69c2.17,0.23,3.86,2.07,3.86,4.3c0,1.27-0.55,2.4-1.42,3.2
		C32.69,35,31.17,33.91,29.38,33.69"/>
	<rect x="0.41" y="0.41" class="st18" width="50.21" height="50.21"/>
	<path class="st1" d="M4.78,6.66c-0.09,0.05-0.34,0.15-0.76,0.3C3.69,7.07,3.48,7.15,3.4,7.19V5.83c0.27-0.1,0.59-0.26,0.98-0.47
		c0.38-0.21,0.65-0.41,0.81-0.58h1.43v9.57H4.78V6.66z"/>
	<polygon class="st1" points="10.3,6.17 7.7,6.17 7.7,4.77 12.08,4.77 12.08,5.97 10.06,14.35 8.29,14.35 	"/>
	<path class="st1" d="M14.65,8.43l0.74-3.66h0.7l0.74,3.66h-0.62l-0.15-0.85h-0.63l-0.15,0.85H14.65z M15.5,7.14h0.49l-0.25-1.5
		L15.5,7.14z"/>
	<polygon class="st1" points="17.19,8.43 17.19,4.77 17.86,4.77 17.86,7.97 18.73,7.97 18.73,8.43 	"/>
	<rect x="19.1" y="4.77" class="st1" width="0.66" height="3.66"/>
	<path class="st1" d="M20.14,8.43l0.74-3.66h0.7l0.74,3.66H21.7l-0.15-0.85h-0.63l-0.15,0.85H20.14z M20.98,7.14h0.49l-0.24-1.5
		L20.98,7.14z"/>
	<polygon class="st1" points="22.68,8.43 22.68,4.77 23.13,4.77 24.03,6.84 24.03,4.77 24.58,4.77 24.58,8.43 24.14,8.43 
		23.24,6.25 23.24,8.43 	"/>
	<polygon class="st1" points="25.01,8.43 25.01,7.99 25.99,5.23 25.06,5.23 25.06,4.77 26.67,4.77 26.67,5.1 25.65,7.97 26.67,7.97 
		26.67,8.43 	"/>
	<path class="st1" d="M26.86,8.43l0.74-3.66h0.7l0.74,3.66h-0.62l-0.15-0.85h-0.63l-0.15,0.85H26.86z M27.71,7.14h0.49l-0.25-1.5
		L27.71,7.14z"/>
	<path class="st1" d="M30.32,8.47c-0.64,0-0.98-0.37-1.01-1.12l0.58-0.12c0.01,0.48,0.15,0.73,0.42,0.73c0.1,0,0.18-0.03,0.23-0.09
		c0.05-0.06,0.07-0.14,0.07-0.25c0-0.1-0.02-0.19-0.06-0.28c-0.04-0.08-0.08-0.15-0.13-0.21c-0.05-0.05-0.12-0.12-0.21-0.2
		l-0.48-0.42c-0.14-0.12-0.25-0.25-0.32-0.39c-0.07-0.13-0.1-0.3-0.1-0.5c0-0.28,0.08-0.5,0.25-0.66c0.17-0.16,0.4-0.24,0.69-0.24
		c0.13,0,0.25,0.02,0.36,0.05c0.1,0.03,0.19,0.08,0.26,0.14c0.07,0.06,0.12,0.13,0.17,0.22c0.04,0.09,0.08,0.18,0.1,0.27
		c0.02,0.09,0.04,0.2,0.05,0.31L30.6,5.83c0-0.07-0.01-0.14-0.01-0.19c-0.01-0.05-0.02-0.11-0.03-0.17
		c-0.02-0.06-0.04-0.1-0.06-0.14c-0.03-0.03-0.06-0.06-0.1-0.08c-0.04-0.02-0.09-0.03-0.15-0.02c-0.1,0.01-0.17,0.04-0.23,0.1
		c-0.05,0.06-0.08,0.14-0.08,0.24c0,0.12,0.02,0.21,0.07,0.29c0.05,0.08,0.12,0.16,0.22,0.24l0.48,0.41
		c0.08,0.07,0.15,0.14,0.21,0.21c0.06,0.07,0.11,0.15,0.17,0.23c0.05,0.09,0.09,0.18,0.12,0.29c0.03,0.1,0.04,0.21,0.04,0.33
		c0,0.27-0.08,0.48-0.25,0.65C30.82,8.39,30.6,8.47,30.32,8.47"/>
	<path class="st1" d="M32.73,8.43V4.77h1.05c0.62,0,0.94,0.35,0.94,1.04c0,0.34-0.09,0.59-0.26,0.75c-0.17,0.16-0.41,0.24-0.72,0.24
		H33.4v1.64H32.73z M33.4,6.32h0.21c0.19,0,0.32-0.04,0.38-0.11c0.07-0.07,0.1-0.21,0.1-0.41c0-0.11,0-0.2-0.01-0.26
		c-0.01-0.06-0.03-0.12-0.06-0.17c-0.03-0.05-0.08-0.09-0.14-0.1c-0.06-0.02-0.15-0.03-0.26-0.03H33.4V6.32z"/>
	<path class="st1" d="M34.71,8.43l0.74-3.66h0.7l0.74,3.66h-0.62l-0.15-0.85h-0.63l-0.15,0.85H34.71z M35.56,7.14h0.49l-0.24-1.5
		L35.56,7.14z"/>
	<path class="st1" d="M37.25,8.43V4.77h0.84c0.19,0,0.36,0.02,0.5,0.05c0.14,0.03,0.26,0.08,0.36,0.16c0.1,0.07,0.18,0.18,0.23,0.3
		c0.05,0.13,0.08,0.28,0.08,0.47c0,0.23-0.03,0.42-0.1,0.56c-0.07,0.15-0.18,0.25-0.34,0.32l0.51,1.8h-0.67l-0.44-1.67h-0.3v1.67
		H37.25z M37.91,6.33h0.16c0.2,0,0.34-0.04,0.42-0.13c0.08-0.08,0.13-0.23,0.13-0.43c0-0.2-0.04-0.34-0.11-0.42
		c-0.07-0.08-0.2-0.13-0.4-0.13h-0.2V6.33z"/>
	<path class="st1" d="M39.56,8.43l0.74-3.66H41l0.74,3.66h-0.62l-0.15-0.85h-0.63l-0.15,0.85H39.56z M40.41,7.14h0.49l-0.25-1.5
		L40.41,7.14z"/>
	<polygon class="st1" points="14.84,14.41 14.84,10.75 15.51,10.75 15.51,13.95 16.38,13.95 16.38,14.41 	"/>
	<path class="st1" d="M17.69,14.45c-0.38,0-0.65-0.1-0.81-0.31c-0.16-0.2-0.24-0.5-0.24-0.9V11.9c0-0.19,0.02-0.36,0.06-0.51
		c0.04-0.14,0.1-0.27,0.18-0.37c0.08-0.1,0.19-0.18,0.33-0.24c0.14-0.05,0.3-0.08,0.49-0.08c0.38,0,0.64,0.1,0.81,0.3
		c0.16,0.2,0.25,0.5,0.25,0.89v1.35c0,0.19-0.02,0.36-0.06,0.5c-0.04,0.14-0.1,0.27-0.18,0.38c-0.08,0.11-0.19,0.19-0.33,0.24
		C18.05,14.42,17.88,14.45,17.69,14.45 M17.52,13.93c0.05,0.02,0.1,0.03,0.17,0.03c0.06,0,0.12-0.01,0.17-0.03
		c0.05-0.02,0.08-0.04,0.11-0.08c0.03-0.03,0.05-0.07,0.06-0.12c0.02-0.05,0.03-0.1,0.03-0.15c0.01-0.05,0.01-0.11,0.01-0.18v-1.66
		c0-0.09,0-0.16-0.01-0.22c-0.01-0.06-0.03-0.11-0.05-0.17c-0.03-0.05-0.06-0.09-0.12-0.12c-0.05-0.03-0.12-0.04-0.2-0.04
		c-0.08,0-0.15,0.01-0.2,0.04c-0.05,0.03-0.09,0.06-0.12,0.12c-0.03,0.05-0.04,0.11-0.05,0.17c-0.01,0.06-0.01,0.13-0.01,0.22v1.66
		c0,0.07,0,0.13,0.01,0.18c0.01,0.05,0.02,0.1,0.03,0.15c0.02,0.05,0.04,0.09,0.06,0.12C17.44,13.88,17.48,13.91,17.52,13.93"/>
	<path class="st1" d="M20.15,14.46c-0.35,0-0.59-0.11-0.75-0.32c-0.15-0.22-0.23-0.53-0.23-0.94v-1.19c0-0.21,0.02-0.39,0.05-0.54
		c0.03-0.15,0.09-0.29,0.17-0.4c0.08-0.11,0.19-0.2,0.32-0.26c0.14-0.06,0.3-0.09,0.5-0.09c0.36,0,0.62,0.09,0.78,0.27
		c0.16,0.18,0.24,0.45,0.24,0.81v0.18h-0.64v-0.19c0-0.08,0-0.15-0.01-0.2c0-0.05-0.01-0.1-0.03-0.16
		c-0.01-0.05-0.03-0.09-0.06-0.12c-0.03-0.03-0.06-0.05-0.11-0.07c-0.05-0.02-0.1-0.03-0.17-0.03c-0.05,0-0.09,0.01-0.13,0.02
		c-0.04,0.01-0.07,0.03-0.1,0.05c-0.03,0.02-0.05,0.04-0.07,0.08c-0.02,0.03-0.03,0.07-0.04,0.1c-0.01,0.03-0.02,0.07-0.02,0.12
		c-0.01,0.05-0.01,0.09-0.01,0.13c0,0.04,0,0.09,0,0.15v1.48c0,0.22,0.03,0.38,0.08,0.48c0.05,0.1,0.16,0.15,0.31,0.15
		c0.08,0,0.15-0.01,0.2-0.04c0.05-0.03,0.1-0.08,0.13-0.14c0.03-0.06,0.05-0.13,0.06-0.21c0.01-0.08,0.02-0.17,0.02-0.29v-0.3h-0.39
		v-0.43h1v1.86h-0.43l-0.05-0.37C20.66,14.32,20.45,14.46,20.15,14.46"/>
	<path class="st1" d="M21.75,14.41v-3.66h0.84c0.19,0,0.36,0.02,0.5,0.05c0.14,0.03,0.26,0.08,0.36,0.16
		c0.1,0.07,0.18,0.18,0.23,0.3c0.05,0.13,0.08,0.28,0.08,0.47c0,0.23-0.03,0.42-0.1,0.56c-0.07,0.15-0.18,0.25-0.34,0.32l0.51,1.8
		h-0.67l-0.44-1.67h-0.3v1.67H21.75z M22.42,12.31h0.16c0.2,0,0.34-0.04,0.42-0.13c0.08-0.08,0.12-0.23,0.12-0.43
		c0-0.2-0.04-0.34-0.11-0.42c-0.07-0.08-0.2-0.13-0.4-0.13h-0.2V12.31z"/>
	<path class="st1" d="M24.07,14.41l0.74-3.66h0.7l0.74,3.66h-0.62l-0.15-0.85h-0.63l-0.15,0.85H24.07z M24.92,13.12h0.49l-0.24-1.5
		L24.92,13.12z"/>
	<path class="st1" d="M26.61,14.41v-3.66h0.84c0.19,0,0.36,0.02,0.5,0.05c0.14,0.03,0.26,0.08,0.36,0.16
		c0.1,0.07,0.18,0.18,0.23,0.3c0.05,0.13,0.08,0.28,0.08,0.47c0,0.23-0.03,0.42-0.1,0.56c-0.07,0.15-0.18,0.25-0.34,0.32l0.51,1.8
		h-0.67l-0.44-1.67h-0.3v1.67H26.61z M27.28,12.31h0.16c0.2,0,0.34-0.04,0.42-0.13c0.08-0.08,0.13-0.23,0.13-0.43
		c0-0.2-0.04-0.34-0.11-0.42c-0.07-0.08-0.2-0.13-0.4-0.13h-0.2V12.31z"/>
	<polygon class="st1" points="14.84,20.39 14.84,16.73 15.51,16.73 15.51,19.93 16.38,19.93 16.38,20.39 	"/>
	<path class="st1" d="M17.75,20.43c-0.38,0-0.65-0.1-0.81-0.31c-0.16-0.2-0.24-0.5-0.24-0.9v-1.35c0-0.19,0.02-0.36,0.06-0.51
		c0.04-0.14,0.1-0.27,0.18-0.37c0.08-0.1,0.19-0.18,0.33-0.24c0.14-0.05,0.3-0.08,0.49-0.08c0.38,0,0.64,0.1,0.81,0.3
		c0.16,0.2,0.25,0.5,0.25,0.89v1.35c0,0.19-0.02,0.36-0.06,0.5c-0.04,0.15-0.1,0.27-0.18,0.38c-0.08,0.11-0.19,0.19-0.33,0.24
		C18.1,20.4,17.94,20.43,17.75,20.43 M17.58,19.91c0.05,0.02,0.1,0.03,0.17,0.03c0.06,0,0.12-0.01,0.17-0.03
		c0.05-0.02,0.08-0.04,0.11-0.08c0.03-0.03,0.05-0.07,0.06-0.12s0.03-0.1,0.03-0.15c0.01-0.05,0.01-0.11,0.01-0.18v-1.66
		c0-0.09,0-0.16-0.01-0.22c-0.01-0.06-0.03-0.11-0.05-0.17c-0.03-0.05-0.06-0.09-0.12-0.12c-0.05-0.03-0.12-0.04-0.2-0.04
		c-0.08,0-0.15,0.01-0.2,0.04c-0.05,0.03-0.09,0.06-0.12,0.12c-0.03,0.05-0.04,0.11-0.05,0.17c-0.01,0.06-0.01,0.13-0.01,0.22v1.66
		c0,0.07,0,0.13,0.01,0.18c0.01,0.05,0.02,0.1,0.03,0.15c0.02,0.05,0.04,0.09,0.06,0.12C17.5,19.86,17.54,19.89,17.58,19.91"/>
	<path class="st1" d="M20.27,20.43c-0.64,0-0.98-0.37-1.02-1.12l0.58-0.12c0.01,0.48,0.15,0.73,0.41,0.73c0.1,0,0.18-0.03,0.23-0.09
		c0.05-0.06,0.07-0.14,0.07-0.25c0-0.1-0.02-0.19-0.06-0.28c-0.04-0.08-0.08-0.15-0.13-0.21c-0.05-0.05-0.12-0.12-0.21-0.2
		l-0.48-0.42c-0.14-0.12-0.25-0.25-0.32-0.39c-0.07-0.13-0.1-0.3-0.1-0.5c0-0.28,0.08-0.5,0.25-0.66c0.17-0.16,0.4-0.24,0.69-0.24
		c0.13,0,0.25,0.02,0.36,0.05c0.1,0.03,0.19,0.08,0.26,0.14c0.07,0.06,0.12,0.13,0.17,0.22c0.04,0.09,0.08,0.18,0.1,0.27
		c0.02,0.09,0.04,0.2,0.05,0.31l-0.57,0.11c0-0.07-0.01-0.14-0.01-0.19c-0.01-0.05-0.02-0.11-0.03-0.17
		c-0.02-0.06-0.04-0.1-0.06-0.14c-0.03-0.03-0.06-0.06-0.1-0.08c-0.04-0.02-0.09-0.03-0.15-0.02c-0.1,0.01-0.17,0.04-0.23,0.1
		c-0.05,0.06-0.08,0.14-0.08,0.24c0,0.12,0.02,0.21,0.07,0.29c0.05,0.08,0.12,0.16,0.22,0.24l0.48,0.42
		c0.08,0.07,0.15,0.14,0.21,0.21c0.06,0.07,0.11,0.14,0.17,0.23c0.05,0.09,0.09,0.18,0.12,0.29c0.03,0.1,0.04,0.22,0.04,0.33
		c0,0.27-0.08,0.48-0.25,0.65C20.77,20.35,20.55,20.43,20.27,20.43"/>
	<path class="st1" d="M23.79,20.43c-0.38,0-0.65-0.1-0.81-0.31c-0.16-0.2-0.24-0.5-0.24-0.9v-1.35c0-0.19,0.02-0.36,0.06-0.51
		c0.04-0.14,0.1-0.27,0.18-0.37c0.08-0.1,0.19-0.18,0.33-0.24c0.14-0.05,0.3-0.08,0.49-0.08c0.38,0,0.64,0.1,0.81,0.3
		c0.16,0.2,0.25,0.5,0.25,0.89v1.35c0,0.19-0.02,0.36-0.06,0.5c-0.04,0.15-0.1,0.27-0.18,0.38c-0.08,0.11-0.19,0.19-0.33,0.24
		C24.15,20.4,23.99,20.43,23.79,20.43 M23.63,19.91c0.05,0.02,0.1,0.03,0.17,0.03c0.06,0,0.12-0.01,0.17-0.03
		c0.05-0.02,0.08-0.04,0.11-0.08c0.03-0.03,0.05-0.07,0.06-0.12c0.02-0.05,0.03-0.1,0.03-0.15c0.01-0.05,0.01-0.11,0.01-0.18v-1.66
		c0-0.09,0-0.16-0.01-0.22c-0.01-0.06-0.03-0.11-0.05-0.17c-0.03-0.05-0.06-0.09-0.12-0.12c-0.05-0.03-0.12-0.04-0.2-0.04
		c-0.08,0-0.15,0.01-0.2,0.04c-0.05,0.03-0.09,0.06-0.12,0.12c-0.03,0.05-0.04,0.11-0.05,0.17c-0.01,0.06-0.01,0.13-0.01,0.22v1.66
		c0,0.07,0,0.13,0.01,0.18c0.01,0.05,0.02,0.1,0.03,0.15c0.02,0.05,0.04,0.09,0.06,0.12C23.55,19.86,23.58,19.89,23.63,19.91"/>
	<path class="st1" d="M25.4,20.39v-3.66h0.9c0.17,0,0.32,0.02,0.44,0.05c0.13,0.03,0.24,0.08,0.34,0.15
		c0.1,0.07,0.17,0.17,0.22,0.29c0.05,0.12,0.07,0.27,0.07,0.45c0,0.45-0.18,0.7-0.54,0.76c0.22,0.04,0.38,0.14,0.48,0.28
		c0.11,0.15,0.16,0.36,0.16,0.62c0,0.35-0.09,0.61-0.26,0.79c-0.17,0.18-0.43,0.27-0.77,0.27H25.4z M26.06,18.22h0.21
		c0.2,0,0.33-0.04,0.4-0.13c0.07-0.08,0.11-0.22,0.11-0.42c0-0.1-0.01-0.19-0.04-0.25c-0.02-0.06-0.06-0.11-0.12-0.15
		c-0.06-0.03-0.12-0.05-0.19-0.06c-0.07-0.01-0.16-0.02-0.28-0.02h-0.09V18.22z M26.06,19.92h0.24c0.2,0,0.34-0.05,0.41-0.14
		c0.08-0.09,0.11-0.25,0.11-0.46c0-0.22-0.04-0.38-0.13-0.48c-0.09-0.1-0.23-0.15-0.43-0.15h-0.21V19.92z"/>
	<path class="st1" d="M27.73,20.46V20c0.2,0,0.33-0.03,0.39-0.09c0.06-0.06,0.1-0.18,0.1-0.37v-2.81h0.67l0,2.82
		c0,0.16-0.02,0.3-0.04,0.41c-0.03,0.11-0.07,0.2-0.13,0.28c-0.06,0.08-0.15,0.14-0.26,0.17c-0.11,0.04-0.24,0.05-0.4,0.05H27.73z"
		/>
	<polygon class="st1" points="29.49,20.39 29.49,16.73 31.03,16.73 31.03,17.2 30.16,17.2 30.16,18.25 30.85,18.25 30.85,18.72 
		30.16,18.72 30.16,19.93 31.04,19.93 31.04,20.39 	"/>
	<polygon class="st1" points="31.84,20.39 31.84,17.22 31.22,17.22 31.22,16.73 33.1,16.73 33.1,17.22 32.5,17.22 32.5,20.39 	"/>
	<rect x="33.47" y="16.73" class="st1" width="0.66" height="3.66"/>
	<polygon class="st1" points="35.32,20.39 34.58,16.73 35.17,16.73 35.65,19.27 36.1,16.73 36.71,16.73 35.96,20.39 	"/>
	<path class="st1" d="M38.11,20.43c-0.38,0-0.65-0.1-0.81-0.31c-0.16-0.2-0.24-0.5-0.24-0.9v-1.35c0-0.19,0.02-0.36,0.06-0.51
		c0.04-0.14,0.1-0.27,0.18-0.37c0.08-0.1,0.19-0.18,0.33-0.24c0.14-0.05,0.3-0.08,0.49-0.08c0.38,0,0.64,0.1,0.81,0.3
		c0.16,0.2,0.25,0.5,0.25,0.89v1.35c0,0.19-0.02,0.36-0.06,0.5c-0.04,0.15-0.1,0.27-0.18,0.38c-0.08,0.11-0.19,0.19-0.33,0.24
		C38.46,20.4,38.3,20.43,38.11,20.43 M37.94,19.91c0.05,0.02,0.1,0.03,0.17,0.03c0.06,0,0.12-0.01,0.17-0.03
		c0.05-0.02,0.08-0.04,0.11-0.08c0.03-0.03,0.05-0.07,0.06-0.12c0.02-0.05,0.03-0.1,0.03-0.15c0.01-0.05,0.01-0.11,0.01-0.18v-1.66
		c0-0.09,0-0.16-0.01-0.22c-0.01-0.06-0.03-0.11-0.05-0.17c-0.03-0.05-0.06-0.09-0.12-0.12c-0.05-0.03-0.12-0.04-0.2-0.04
		c-0.08,0-0.15,0.01-0.2,0.04c-0.05,0.03-0.09,0.06-0.12,0.12c-0.03,0.05-0.04,0.11-0.05,0.17c-0.01,0.06-0.01,0.13-0.01,0.22v1.66
		c0,0.07,0,0.13,0.01,0.18c0.01,0.05,0.02,0.1,0.03,0.15c0.02,0.05,0.04,0.09,0.06,0.12C37.86,19.86,37.89,19.89,37.94,19.91"/>
	<path class="st1" d="M40.63,20.43c-0.64,0-0.98-0.37-1.02-1.12l0.58-0.12c0.01,0.48,0.15,0.73,0.41,0.73c0.1,0,0.18-0.03,0.23-0.09
		c0.05-0.06,0.07-0.14,0.07-0.25c0-0.1-0.02-0.19-0.06-0.28c-0.04-0.08-0.08-0.15-0.13-0.21c-0.05-0.05-0.12-0.12-0.21-0.2
		l-0.48-0.42c-0.14-0.12-0.25-0.25-0.32-0.39c-0.07-0.13-0.1-0.3-0.1-0.5c0-0.28,0.08-0.5,0.25-0.66c0.17-0.16,0.4-0.24,0.69-0.24
		c0.13,0,0.25,0.02,0.36,0.05c0.1,0.03,0.19,0.08,0.25,0.14c0.07,0.06,0.12,0.13,0.17,0.22c0.04,0.09,0.08,0.18,0.1,0.27
		c0.02,0.09,0.04,0.2,0.05,0.31l-0.57,0.11c0-0.07-0.01-0.14-0.01-0.19c-0.01-0.05-0.02-0.11-0.03-0.17
		c-0.02-0.06-0.04-0.1-0.06-0.14c-0.03-0.03-0.06-0.06-0.1-0.08c-0.04-0.02-0.09-0.03-0.15-0.02c-0.1,0.01-0.17,0.04-0.23,0.1
		c-0.05,0.06-0.08,0.14-0.08,0.24c0,0.12,0.02,0.21,0.07,0.29c0.05,0.08,0.12,0.16,0.22,0.24l0.48,0.42
		c0.08,0.07,0.15,0.14,0.21,0.21c0.06,0.07,0.11,0.14,0.17,0.23c0.05,0.09,0.09,0.18,0.12,0.29c0.03,0.1,0.04,0.22,0.04,0.33
		c0,0.27-0.08,0.48-0.25,0.65C41.12,20.35,40.9,20.43,40.63,20.43"/>
	<path class="st1" d="M36.12,33.28c0-2.92-2.32-5.3-5.21-5.41c-0.74-2.1-2.75-3.61-5.1-3.61s-4.36,1.51-5.1,3.61
		c-2.89,0.11-5.21,2.49-5.21,5.41c0,1.73,0.82,3.27,2.09,4.27c-0.14,0.48-0.21,0.98-0.21,1.5c0,2.98,2.43,5.41,5.41,5.41
		c1.13,0,2.18-0.35,3.05-0.95c0.86,0.58,1.89,0.91,3,0.91c2.98,0,5.41-2.43,5.41-5.41c0-0.51-0.07-1-0.2-1.47
		C35.31,36.55,36.12,35.01,36.12,33.28 M30.13,29.67c0,2.17-1.6,3.96-3.68,4.27c-0.03-0.22-0.06-0.44-0.06-0.66
		c0-2.17,1.6-3.96,3.68-4.27C30.11,29.23,30.13,29.45,30.13,29.67 M25.83,42.1c-0.81-0.79-1.31-1.88-1.31-3.1
		c0-1.19,0.49-2.28,1.27-3.06c0.81,0.79,1.31,1.88,1.31,3.1C27.1,40.24,26.62,41.32,25.83,42.1 M21.54,29.01
		c2.08,0.31,3.68,2.1,3.68,4.27c0,0.23-0.02,0.45-0.06,0.66c-2.08-0.31-3.68-2.1-3.68-4.27C21.49,29.45,21.51,29.23,21.54,29.01
		 M24.77,35.21c-0.71,1.41-2.17,2.39-3.86,2.39c-0.72,0-1.39-0.18-1.99-0.49c0.71-1.41,2.17-2.39,3.86-2.39
		C23.5,34.72,24.17,34.9,24.77,35.21 M26.84,35.18c0.6-0.31,1.28-0.49,2-0.49c1.7,0,3.17,0.99,3.87,2.42c-0.6,0.31-1.28,0.49-2,0.49
		C29.01,37.6,27.54,36.61,26.84,35.18 M25.81,25.35c1.77,0,3.29,1.07,3.96,2.6c-1.76,0.31-3.23,1.47-3.96,3.04
		c-0.74-1.57-2.2-2.73-3.96-3.04C22.52,26.42,24.04,25.35,25.81,25.35 M16.59,33.28c0-2.23,1.69-4.06,3.86-4.3
		c-0.03,0.23-0.05,0.46-0.05,0.69c0,1.58,0.68,3.01,1.77,4c-1.79,0.2-3.33,1.29-4.15,2.81C17.14,35.69,16.59,34.55,16.59,33.28
		 M18.46,39.05c0-0.31,0.03-0.61,0.09-0.9c0.71,0.34,1.51,0.54,2.35,0.54c0.95,0,1.84-0.25,2.61-0.67c-0.06,0.32-0.09,0.65-0.09,1
		c0,1.46,0.58,2.79,1.53,3.76c-0.64,0.37-1.38,0.59-2.17,0.59C20.4,43.37,18.46,41.43,18.46,39.05 M33.16,39.01
		c0,2.38-1.94,4.32-4.32,4.32c-0.78,0-1.5-0.21-2.13-0.57c0.92-0.97,1.49-2.28,1.49-3.72c0-0.35-0.04-0.7-0.1-1.04
		c0.78,0.43,1.67,0.68,2.62,0.68c0.85,0,1.65-0.2,2.36-0.54C33.13,38.42,33.16,38.71,33.16,39.01 M29.49,33.64
		c1.07-0.99,1.73-2.4,1.73-3.97c0-0.23-0.02-0.46-0.05-0.69c2.17,0.23,3.86,2.07,3.86,4.3c0,1.26-0.55,2.4-1.42,3.19
		C32.8,34.94,31.28,33.85,29.49,33.64"/>
</g>
</svg>
