<?xml version="1.0" encoding="utf-8"?>
<!-- Generator: Adobe Illustrator 26.5.0, SVG Export Plug-In . SVG Version: 6.00 Build 0)  -->
<svg version="1.1" id="Capa_1" xmlns="http://www.w3.org/2000/svg" xmlns:xlink="http://www.w3.org/1999/xlink" x="0px" y="0px"
	 viewBox="0 0 51.02 51.02" style="enable-background:new 0 0 51.02 51.02;" xml:space="preserve">
<style type="text/css">
	.st0{fill:#E5273C;}
	.st1{fill:#FFFFFF;}
	.st2{fill:none;stroke:#FFFFFF;stroke-width:0.5952;stroke-linecap:round;stroke-miterlimit:10;}
	.st3{fill:#FCC30C;}
	.st4{fill:#A31B43;}
	.st5{fill:#F59C2D;}
	.st6{fill:#ED692F;}
	.st7{fill:#DDA73A;}
	.st8{fill:#4E9F38;}
	.st9{fill:#C51D2E;}
	.st10{fill:#E8422F;}
	.st11{fill:#2EBCE1;}
	.st12{fill:#DE1868;}
	.st13{fill:#BE8B30;}
	.st14{fill:#61B235;}
	.st15{fill:#02699F;}
	.st16{fill:#1896D4;}
	.st17{fill:#3F7F45;}
	.st18{fill:#1A496A;}
</style>
<g>
	<rect x="0.37" y="0.37" class="st6" width="50.29" height="50.29"/>
	<path class="st1" d="M5.03,13.85c-0.37-0.41-0.57-1.02-0.57-1.84v-0.14h1.73c0,0.43,0.05,0.74,0.14,0.92
		c0.09,0.18,0.28,0.27,0.56,0.27c0.2,0,0.34-0.06,0.44-0.18c0.1-0.12,0.17-0.31,0.21-0.59c0.04-0.27,0.06-0.66,0.06-1.18v-0.97
		c-0.1,0.17-0.26,0.31-0.49,0.41c-0.22,0.1-0.48,0.15-0.77,0.15c-0.71,0-1.23-0.26-1.55-0.78C4.47,9.41,4.3,8.71,4.3,7.85
		c0-2.15,0.86-3.23,2.58-3.23c0.88,0,1.53,0.27,1.95,0.82c0.42,0.54,0.63,1.29,0.63,2.25v3.49c0,1.03-0.19,1.84-0.57,2.42
		c-0.38,0.58-1.06,0.86-2.02,0.86C6.02,14.46,5.41,14.26,5.03,13.85 M7.6,8.87V7.35c0-0.42-0.05-0.75-0.15-0.99
		c-0.1-0.24-0.29-0.37-0.56-0.37c-0.28,0-0.47,0.13-0.57,0.4C6.22,6.65,6.17,7.07,6.17,7.64c0,0.41,0.01,0.72,0.04,0.94
		C6.23,8.8,6.3,8.98,6.41,9.11c0.11,0.13,0.27,0.2,0.49,0.2C7.19,9.31,7.42,9.16,7.6,8.87"/>
	<rect x="13.55" y="4.67" class="st1" width="0.66" height="3.66"/>
	<polygon class="st1" points="14.68,8.33 14.68,4.67 15.14,4.67 16.04,6.75 16.04,4.67 16.59,4.67 16.59,8.33 16.15,8.33 
		15.25,6.15 15.25,8.33 	"/>
	<path class="st1" d="M17.05,8.33V4.67h0.85c0.22,0,0.41,0.02,0.55,0.07c0.15,0.04,0.27,0.11,0.36,0.21
		c0.09,0.1,0.15,0.21,0.19,0.35c0.04,0.14,0.06,0.31,0.06,0.51v1.32c0,0.21-0.02,0.39-0.06,0.53c-0.04,0.15-0.1,0.27-0.19,0.37
		c-0.09,0.1-0.2,0.18-0.35,0.22c-0.15,0.05-0.33,0.07-0.54,0.07H17.05z M17.72,7.87h0.19c0.07,0,0.12-0.01,0.17-0.02
		c0.05-0.01,0.09-0.03,0.13-0.04c0.03-0.02,0.06-0.04,0.09-0.08c0.02-0.04,0.04-0.07,0.05-0.1c0.01-0.03,0.02-0.08,0.03-0.14
		c0.01-0.06,0.01-0.12,0.01-0.16c0-0.04,0-0.11,0-0.2V5.79c0-0.09,0-0.16,0-0.21c0-0.05-0.01-0.11-0.02-0.16
		c-0.01-0.05-0.03-0.1-0.05-0.13c-0.02-0.03-0.05-0.06-0.08-0.08c-0.04-0.02-0.08-0.04-0.13-0.05c-0.05-0.01-0.12-0.01-0.19-0.01
		h-0.18V7.87z"/>
	<path class="st1" d="M20.47,8.38c-0.16,0-0.31-0.02-0.43-0.06c-0.12-0.04-0.22-0.09-0.3-0.16C19.67,8.09,19.6,8,19.56,7.89
		c-0.05-0.11-0.08-0.23-0.1-0.35c-0.02-0.13-0.03-0.27-0.03-0.44V4.67h0.65v2.5c0,0.09,0,0.16,0.01,0.22c0,0.06,0.01,0.12,0.03,0.19
		c0.01,0.07,0.04,0.12,0.06,0.16c0.03,0.04,0.06,0.07,0.11,0.1c0.05,0.03,0.11,0.04,0.17,0.04c0.07,0,0.13-0.01,0.17-0.04
		c0.05-0.03,0.08-0.06,0.11-0.1c0.03-0.04,0.05-0.09,0.06-0.16c0.02-0.07,0.03-0.13,0.03-0.19c0-0.06,0.01-0.13,0.01-0.22v-2.5h0.65
		V7.1c0,0.17-0.01,0.31-0.03,0.44c-0.02,0.13-0.05,0.24-0.1,0.35c-0.05,0.11-0.11,0.2-0.18,0.27c-0.08,0.07-0.18,0.12-0.29,0.16
		C20.77,8.36,20.63,8.38,20.47,8.38"/>
	<path class="st1" d="M22.85,8.38c-0.65,0-0.98-0.37-1.02-1.12l0.58-0.12c0.01,0.48,0.15,0.73,0.42,0.73c0.1,0,0.18-0.03,0.23-0.09
		c0.05-0.06,0.07-0.15,0.07-0.25c0-0.1-0.02-0.19-0.06-0.28c-0.04-0.08-0.08-0.15-0.13-0.21c-0.05-0.05-0.12-0.12-0.21-0.2
		l-0.48-0.42c-0.14-0.12-0.25-0.25-0.32-0.39c-0.07-0.13-0.1-0.3-0.1-0.5c0-0.28,0.08-0.51,0.25-0.66c0.17-0.16,0.4-0.24,0.69-0.24
		c0.13,0,0.25,0.02,0.36,0.05c0.1,0.03,0.19,0.08,0.26,0.14c0.07,0.06,0.12,0.13,0.17,0.22c0.04,0.09,0.08,0.18,0.1,0.27
		c0.02,0.09,0.04,0.2,0.05,0.31l-0.57,0.11c0-0.07-0.01-0.14-0.01-0.19c-0.01-0.05-0.02-0.11-0.03-0.17s-0.04-0.1-0.06-0.14
		c-0.03-0.04-0.06-0.06-0.1-0.08c-0.04-0.02-0.09-0.03-0.15-0.02c-0.1,0.01-0.17,0.04-0.23,0.1c-0.05,0.06-0.08,0.14-0.08,0.24
		c0,0.12,0.02,0.22,0.07,0.29c0.05,0.08,0.12,0.16,0.22,0.24l0.48,0.42c0.08,0.07,0.15,0.14,0.21,0.21
		c0.06,0.07,0.11,0.15,0.17,0.23c0.05,0.09,0.1,0.18,0.12,0.29c0.03,0.1,0.04,0.22,0.04,0.33c0,0.27-0.08,0.48-0.25,0.65
		C23.34,8.3,23.12,8.38,22.85,8.38"/>
	<polygon class="st1" points="24.42,8.33 24.42,5.16 23.81,5.16 23.81,4.67 25.68,4.67 25.68,5.16 25.09,5.16 25.09,8.33 	"/>
	<path class="st1" d="M25.88,8.33V4.67h0.84c0.19,0,0.36,0.02,0.5,0.05c0.14,0.03,0.26,0.08,0.36,0.16c0.1,0.07,0.18,0.18,0.23,0.3
		c0.05,0.13,0.08,0.28,0.08,0.47c0,0.23-0.03,0.42-0.1,0.56c-0.07,0.15-0.18,0.25-0.34,0.32l0.51,1.81h-0.67l-0.44-1.67h-0.3v1.67
		H25.88z M26.55,6.23h0.16c0.2,0,0.34-0.04,0.42-0.13c0.08-0.08,0.12-0.23,0.12-0.43c0-0.2-0.04-0.34-0.11-0.42
		c-0.07-0.08-0.2-0.13-0.4-0.13h-0.2V6.23z"/>
	<rect x="28.32" y="4.67" class="st1" width="0.66" height="3.66"/>
	<path class="st1" d="M29.27,8.33l0.74-3.66h0.7l0.74,3.66h-0.62l-0.15-0.85h-0.63L29.9,8.33H29.27z M30.12,7.05h0.49l-0.25-1.51
		L30.12,7.05z"/>
	<path class="st1" d="M31.72,8.96l-0.07-0.23c0.09-0.02,0.16-0.07,0.21-0.13c0.06-0.07,0.08-0.15,0.08-0.26h-0.32v-0.6h0.61v0.56
		C32.23,8.67,32.06,8.89,31.72,8.96"/>
	<rect x="13.55" y="10.66" class="st1" width="0.66" height="3.66"/>
	<polygon class="st1" points="14.68,14.32 14.68,10.66 15.14,10.66 16.04,12.73 16.04,10.66 16.59,10.66 16.59,14.32 16.15,14.32 
		15.25,12.14 15.25,14.32 	"/>
	<polygon class="st1" points="17.05,14.32 17.05,10.66 17.51,10.66 18.41,12.73 18.41,10.66 18.96,10.66 18.96,14.32 18.52,14.32 
		17.61,12.14 17.61,14.32 	"/>
	<path class="st1" d="M20.41,14.37c-0.38,0-0.65-0.1-0.81-0.31c-0.16-0.2-0.25-0.5-0.25-0.9v-1.35c0-0.19,0.02-0.36,0.06-0.51
		c0.04-0.14,0.1-0.27,0.18-0.37c0.08-0.1,0.19-0.18,0.33-0.24c0.14-0.05,0.3-0.08,0.49-0.08c0.38,0,0.65,0.1,0.81,0.3
		c0.16,0.2,0.25,0.5,0.25,0.89v1.35c0,0.19-0.02,0.36-0.06,0.51c-0.04,0.15-0.1,0.27-0.18,0.38c-0.08,0.11-0.19,0.19-0.33,0.24
		C20.77,14.34,20.6,14.37,20.41,14.37 M20.25,13.84c0.05,0.02,0.1,0.03,0.17,0.03c0.06,0,0.12-0.01,0.17-0.03
		c0.05-0.02,0.08-0.04,0.11-0.08c0.03-0.03,0.05-0.07,0.06-0.12c0.02-0.05,0.03-0.1,0.03-0.15c0.01-0.05,0.01-0.11,0.01-0.18v-1.66
		c0-0.09,0-0.16-0.01-0.22c-0.01-0.06-0.03-0.11-0.05-0.17c-0.03-0.05-0.06-0.09-0.12-0.12c-0.05-0.03-0.12-0.04-0.2-0.04
		c-0.08,0-0.15,0.01-0.2,0.04c-0.05,0.03-0.09,0.06-0.12,0.12c-0.03,0.05-0.04,0.11-0.05,0.17c-0.01,0.06-0.01,0.13-0.01,0.22v1.66
		c0,0.07,0,0.13,0.01,0.18c0.01,0.05,0.02,0.1,0.03,0.15c0.02,0.05,0.04,0.09,0.06,0.12C20.16,13.8,20.2,13.82,20.25,13.84"/>
	<polygon class="st1" points="22.44,14.32 21.7,10.66 22.29,10.66 22.77,13.21 23.23,10.66 23.83,10.66 23.08,14.32 	"/>
	<path class="st1" d="M23.81,14.32l0.74-3.66h0.7l0.74,3.66h-0.62l-0.15-0.85h-0.63l-0.15,0.85H23.81z M24.66,13.04h0.49l-0.25-1.51
		L24.66,13.04z"/>
	<path class="st1" d="M27.24,14.37c-0.16,0-0.3-0.02-0.42-0.06c-0.12-0.04-0.22-0.1-0.3-0.17c-0.08-0.07-0.14-0.16-0.19-0.26
		c-0.05-0.1-0.08-0.22-0.1-0.34c-0.02-0.12-0.03-0.26-0.03-0.41v-1.28c0-0.16,0.01-0.3,0.03-0.42c0.02-0.12,0.06-0.24,0.1-0.34
		c0.05-0.11,0.11-0.19,0.19-0.26c0.08-0.07,0.18-0.12,0.3-0.16c0.12-0.04,0.26-0.06,0.42-0.06c0.18,0,0.34,0.02,0.47,0.07
		c0.13,0.05,0.23,0.12,0.31,0.21c0.08,0.09,0.13,0.2,0.16,0.33c0.03,0.13,0.05,0.27,0.05,0.44v0.31h-0.64v-0.31
		c0-0.18-0.01-0.31-0.03-0.37c-0.04-0.12-0.13-0.19-0.28-0.2h-0.04c-0.06,0-0.11,0.01-0.15,0.02c-0.04,0.01-0.08,0.03-0.1,0.06
		c-0.03,0.03-0.05,0.06-0.06,0.09c-0.02,0.03-0.03,0.07-0.04,0.13c-0.01,0.05-0.01,0.1-0.02,0.15c0,0.04,0,0.1,0,0.17v1.55
		c0,0.22,0.03,0.37,0.08,0.46c0.05,0.09,0.15,0.14,0.29,0.14c0.05,0,0.09-0.01,0.12-0.02c0.04-0.01,0.07-0.03,0.09-0.04
		c0.02-0.02,0.04-0.04,0.06-0.07c0.02-0.03,0.03-0.06,0.04-0.09c0.01-0.03,0.02-0.06,0.02-0.11c0-0.05,0.01-0.09,0.01-0.12
		c0-0.03,0-0.08,0-0.14v-0.33h0.64v0.3c0,0.14-0.01,0.26-0.03,0.37c-0.02,0.11-0.05,0.21-0.1,0.31c-0.05,0.1-0.11,0.18-0.18,0.24
		c-0.07,0.06-0.17,0.11-0.28,0.15C27.53,14.35,27.4,14.37,27.24,14.37"/>
	<rect x="28.63" y="10.66" class="st1" width="0.66" height="3.66"/>
	<path class="st1" d="M30.75,14.37c-0.38,0-0.65-0.1-0.81-0.31c-0.16-0.2-0.25-0.5-0.25-0.9v-1.35c0-0.19,0.02-0.36,0.05-0.51
		c0.04-0.14,0.1-0.27,0.18-0.37c0.08-0.1,0.19-0.18,0.33-0.24c0.14-0.05,0.3-0.08,0.5-0.08c0.38,0,0.65,0.1,0.81,0.3
		c0.16,0.2,0.25,0.5,0.25,0.89v1.35c0,0.19-0.02,0.36-0.06,0.5c-0.04,0.15-0.1,0.27-0.18,0.38c-0.08,0.11-0.19,0.19-0.33,0.24
		C31.11,14.34,30.95,14.37,30.75,14.37 M30.59,13.84c0.05,0.02,0.1,0.03,0.17,0.03c0.06,0,0.12-0.01,0.17-0.03
		c0.05-0.02,0.08-0.04,0.11-0.08c0.03-0.03,0.05-0.07,0.06-0.12c0.02-0.05,0.03-0.1,0.03-0.15c0.01-0.05,0.01-0.11,0.01-0.18v-1.66
		c0-0.09,0-0.16-0.01-0.22c-0.01-0.06-0.03-0.11-0.05-0.17c-0.03-0.05-0.06-0.09-0.12-0.12c-0.05-0.03-0.12-0.04-0.2-0.04
		c-0.08,0-0.15,0.01-0.2,0.04c-0.05,0.03-0.09,0.06-0.12,0.12c-0.03,0.05-0.04,0.11-0.05,0.17c-0.01,0.06-0.01,0.13-0.01,0.22v1.66
		c0,0.07,0,0.13,0.01,0.18c0.01,0.05,0.02,0.1,0.03,0.15c0.02,0.05,0.04,0.09,0.06,0.12C30.5,13.8,30.54,13.82,30.59,13.84
		 M30.58,10.35l0.27-0.9h0.63l-0.54,0.9H30.58z"/>
	<polygon class="st1" points="32.21,14.32 32.21,10.66 32.67,10.66 33.57,12.73 33.57,10.66 34.12,10.66 34.12,14.32 33.68,14.32 
		32.77,12.14 32.77,14.32 	"/>
	<polygon class="st1" points="35.59,14.32 35.59,10.66 37.12,10.66 37.12,11.13 36.26,11.13 36.26,12.18 36.94,12.18 36.94,12.65 
		36.26,12.65 36.26,13.86 37.14,13.86 37.14,14.32 	"/>
	<rect x="13.55" y="16.65" class="st1" width="0.66" height="3.66"/>
	<polygon class="st1" points="14.68,20.31 14.68,16.65 15.14,16.65 16.04,18.72 16.04,16.65 16.59,16.65 16.59,20.31 16.15,20.31 
		15.25,18.13 15.25,20.31 	"/>
	<polygon class="st1" points="17.05,20.31 17.05,16.65 18.55,16.65 18.55,17.11 17.72,17.11 17.72,18.17 18.39,18.17 18.39,18.65 
		17.72,18.65 17.72,20.31 	"/>
	<path class="st1" d="M18.81,20.31v-3.66h0.84c0.19,0,0.36,0.02,0.5,0.05c0.14,0.03,0.26,0.08,0.36,0.16
		c0.1,0.07,0.18,0.18,0.23,0.3c0.05,0.13,0.08,0.28,0.08,0.47c0,0.23-0.03,0.42-0.1,0.56c-0.07,0.15-0.18,0.25-0.34,0.32l0.51,1.81
		h-0.67l-0.44-1.67h-0.3v1.67H18.81z M19.48,18.21h0.16c0.2,0,0.34-0.04,0.42-0.13c0.08-0.08,0.12-0.23,0.12-0.43
		c0-0.2-0.04-0.34-0.11-0.42c-0.07-0.08-0.2-0.13-0.4-0.13h-0.2V18.21z"/>
	<path class="st1" d="M21.04,20.31l0.74-3.66h0.7l0.74,3.66h-0.62l-0.15-0.85h-0.63l-0.15,0.85H21.04z M21.9,19.03h0.49l-0.25-1.51
		L21.9,19.03z"/>
	<polygon class="st1" points="23.5,20.31 23.5,16.65 25.03,16.65 25.03,17.12 24.17,17.12 24.17,18.17 24.85,18.17 24.85,18.64 
		24.17,18.64 24.17,19.85 25.04,19.85 25.04,20.31 	"/>
	<path class="st1" d="M26.26,20.36c-0.65,0-0.98-0.37-1.02-1.12l0.58-0.12c0.01,0.48,0.15,0.73,0.42,0.73c0.1,0,0.18-0.03,0.23-0.09
		c0.05-0.06,0.07-0.15,0.07-0.25c0-0.1-0.02-0.19-0.06-0.28c-0.04-0.08-0.08-0.15-0.13-0.21c-0.05-0.05-0.12-0.12-0.21-0.2
		l-0.48-0.42c-0.14-0.12-0.25-0.25-0.32-0.39c-0.07-0.13-0.1-0.3-0.1-0.5c0-0.28,0.08-0.51,0.25-0.66c0.17-0.16,0.4-0.24,0.69-0.24
		c0.13,0,0.25,0.02,0.36,0.05c0.1,0.03,0.19,0.08,0.26,0.14c0.07,0.06,0.12,0.13,0.17,0.22c0.04,0.09,0.08,0.18,0.1,0.27
		c0.02,0.09,0.04,0.2,0.05,0.31l-0.57,0.11c0-0.07-0.01-0.14-0.01-0.19c-0.01-0.05-0.02-0.11-0.03-0.17
		c-0.02-0.06-0.04-0.1-0.06-0.14c-0.03-0.03-0.06-0.06-0.1-0.08c-0.04-0.02-0.09-0.03-0.15-0.02c-0.1,0.01-0.17,0.04-0.23,0.1
		c-0.05,0.06-0.08,0.14-0.08,0.24c0,0.12,0.02,0.22,0.07,0.29c0.05,0.08,0.12,0.16,0.22,0.24l0.48,0.42
		c0.08,0.07,0.15,0.14,0.21,0.21c0.06,0.07,0.12,0.15,0.17,0.23c0.05,0.09,0.1,0.18,0.12,0.29c0.03,0.1,0.04,0.22,0.04,0.33
		c0,0.27-0.08,0.48-0.25,0.65C26.76,20.27,26.53,20.36,26.26,20.36"/>
	<polygon class="st1" points="27.84,20.31 27.84,17.14 27.22,17.14 27.22,16.65 29.1,16.65 29.1,17.14 28.5,17.14 28.5,20.31 	"/>
	<path class="st1" d="M29.3,20.31v-3.66h0.84c0.19,0,0.36,0.02,0.5,0.05c0.14,0.03,0.26,0.08,0.36,0.16c0.1,0.07,0.18,0.18,0.23,0.3
		c0.05,0.13,0.08,0.28,0.08,0.47c0,0.23-0.03,0.42-0.1,0.56c-0.07,0.15-0.18,0.25-0.34,0.32l0.51,1.81H30.7l-0.44-1.67h-0.3v1.67
		H29.3z M29.97,18.21h0.16c0.2,0,0.34-0.04,0.42-0.13c0.08-0.08,0.12-0.23,0.12-0.43c0-0.2-0.04-0.34-0.11-0.42
		c-0.07-0.08-0.2-0.13-0.4-0.13h-0.2V18.21z"/>
	<path class="st1" d="M32.72,20.36c-0.16,0-0.31-0.02-0.43-0.06c-0.12-0.04-0.22-0.09-0.3-0.16c-0.08-0.07-0.14-0.16-0.19-0.27
		c-0.05-0.11-0.08-0.23-0.1-0.35c-0.02-0.13-0.03-0.27-0.03-0.44v-2.43h0.65v2.5c0,0.09,0,0.16,0.01,0.22
		c0,0.06,0.01,0.12,0.03,0.19c0.01,0.07,0.04,0.12,0.06,0.16c0.03,0.04,0.06,0.07,0.11,0.1c0.05,0.03,0.11,0.04,0.17,0.04
		c0.07,0,0.13-0.01,0.17-0.04c0.05-0.03,0.08-0.06,0.11-0.1c0.03-0.04,0.05-0.09,0.06-0.16c0.02-0.07,0.03-0.13,0.03-0.19
		c0-0.06,0.01-0.13,0.01-0.22v-2.5h0.65v2.43c0,0.17-0.01,0.31-0.03,0.44c-0.02,0.13-0.05,0.24-0.1,0.35
		c-0.05,0.11-0.11,0.2-0.18,0.27c-0.08,0.07-0.17,0.12-0.29,0.16C33.03,20.34,32.89,20.36,32.72,20.36"/>
	<path class="st1" d="M35.16,20.36c-0.16,0-0.3-0.02-0.42-0.06c-0.12-0.04-0.22-0.1-0.3-0.17c-0.08-0.07-0.14-0.16-0.19-0.26
		c-0.05-0.1-0.08-0.22-0.1-0.34c-0.02-0.12-0.03-0.26-0.03-0.41v-1.28c0-0.16,0.01-0.3,0.03-0.42c0.02-0.12,0.06-0.24,0.1-0.34
		c0.05-0.11,0.11-0.19,0.19-0.26c0.08-0.07,0.18-0.12,0.3-0.16c0.12-0.04,0.26-0.06,0.42-0.06c0.18,0,0.34,0.02,0.47,0.07
		c0.13,0.05,0.23,0.12,0.31,0.21c0.08,0.09,0.13,0.2,0.16,0.33c0.03,0.13,0.05,0.27,0.05,0.44v0.31h-0.64v-0.31
		c0-0.18-0.01-0.31-0.03-0.37c-0.04-0.12-0.13-0.19-0.28-0.2h-0.04c-0.06,0-0.11,0.01-0.15,0.02c-0.04,0.01-0.08,0.03-0.1,0.06
		c-0.03,0.03-0.05,0.06-0.06,0.09c-0.02,0.03-0.03,0.07-0.04,0.13c-0.01,0.05-0.01,0.1-0.02,0.15c0,0.04,0,0.1,0,0.17v1.55
		c0,0.22,0.03,0.37,0.08,0.46c0.05,0.09,0.15,0.14,0.29,0.14c0.05,0,0.09-0.01,0.12-0.02c0.04-0.01,0.07-0.03,0.09-0.04
		c0.02-0.02,0.04-0.04,0.06-0.07c0.02-0.03,0.03-0.06,0.04-0.09c0.01-0.03,0.02-0.06,0.02-0.11c0-0.05,0.01-0.09,0.01-0.12
		c0-0.03,0-0.08,0-0.14v-0.33h0.64v0.3c0,0.14-0.01,0.26-0.03,0.37c-0.02,0.11-0.05,0.21-0.1,0.31c-0.05,0.1-0.11,0.18-0.18,0.24
		c-0.07,0.06-0.17,0.11-0.28,0.15C35.45,20.34,35.32,20.36,35.16,20.36"/>
	<polygon class="st1" points="36.88,20.31 36.88,17.14 36.27,17.14 36.27,16.65 38.15,16.65 38.15,17.14 37.55,17.14 37.55,20.31 	
		"/>
	<path class="st1" d="M39.35,20.36c-0.16,0-0.31-0.02-0.43-0.06c-0.12-0.04-0.22-0.09-0.3-0.16c-0.08-0.07-0.14-0.16-0.19-0.27
		c-0.05-0.11-0.08-0.23-0.1-0.35c-0.02-0.13-0.03-0.27-0.03-0.44v-2.43h0.65v2.5c0,0.09,0,0.16,0.01,0.22
		c0,0.06,0.01,0.12,0.03,0.19c0.01,0.07,0.04,0.12,0.06,0.16c0.03,0.04,0.06,0.07,0.11,0.1c0.05,0.03,0.11,0.04,0.17,0.04
		c0.07,0,0.13-0.01,0.17-0.04c0.05-0.03,0.08-0.06,0.11-0.1c0.03-0.04,0.05-0.09,0.06-0.16c0.02-0.07,0.03-0.13,0.03-0.19
		c0-0.06,0.01-0.13,0.01-0.22v-2.5h0.65v2.43c0,0.17-0.01,0.31-0.03,0.44c-0.02,0.13-0.05,0.24-0.1,0.35
		c-0.05,0.11-0.11,0.2-0.18,0.27c-0.08,0.07-0.18,0.12-0.3,0.16C39.65,20.34,39.51,20.36,39.35,20.36"/>
	<path class="st1" d="M40.81,20.31v-3.66h0.84c0.19,0,0.36,0.02,0.5,0.05c0.14,0.03,0.26,0.08,0.36,0.16
		c0.1,0.07,0.18,0.18,0.23,0.3c0.05,0.13,0.08,0.28,0.08,0.47c0,0.23-0.03,0.42-0.1,0.56c-0.07,0.15-0.18,0.25-0.34,0.32l0.51,1.81
		h-0.67l-0.44-1.67h-0.3v1.67H40.81z M41.47,18.21h0.16c0.2,0,0.34-0.04,0.42-0.13c0.08-0.08,0.12-0.23,0.12-0.43
		c0-0.2-0.04-0.34-0.11-0.42s-0.2-0.13-0.4-0.13h-0.2V18.21z"/>
	<path class="st1" d="M43.04,20.31l0.74-3.66h0.7l0.74,3.66H44.6l-0.15-0.85h-0.63l-0.15,0.85H43.04z M43.89,19.03h0.49l-0.25-1.51
		L43.89,19.03z"/>
	<path class="st1" d="M36.43,35.27l-5.06-2.92V26.5c0-0.12-0.07-0.24-0.17-0.3l-5.23-3.02c-0.11-0.06-0.24-0.06-0.35,0l-5.23,3.02
		c-0.11,0.06-0.17,0.18-0.17,0.3v5.84l-5.06,2.92c-0.11,0.06-0.17,0.18-0.17,0.3v6.04c0,0.12,0.07,0.24,0.17,0.3l5.23,3.02
		c0.05,0.03,0.11,0.05,0.17,0.05s0.12-0.02,0.17-0.05l5.06-2.92l5.06,2.92c0.05,0.03,0.11,0.05,0.17,0.05
		c0.06,0,0.12-0.02,0.17-0.05l5.23-3.02c0.11-0.06,0.17-0.18,0.17-0.3v-6.04C36.6,35.44,36.54,35.33,36.43,35.27 M25.45,41.01
		l-4.2-2.42l4.2-2.42V41.01z M30.33,32.55l-4.2,2.42v-4.85L30.33,32.55z M25.45,34.97l-4.2-2.42l4.2-2.42V34.97z M26.48,35.57
		l4.54-2.62l4.54,2.62l-4.54,2.62L26.48,35.57z M30.68,31.95l-4.2-2.42l4.2-2.42V31.95z M25.1,29.53l-4.2,2.42V27.1L25.1,29.53z
		 M20.22,44.03l-4.54-2.62v-5.25l4.54,2.62V44.03z M20.91,44.03v-4.85l4.2,2.42L20.91,44.03z M35.91,41.41l-4.54,2.62v-5.24
		l4.54-2.62V41.41z"/>
</g>
</svg>
