<?xml version="1.0" encoding="utf-8"?>
<!-- Generator: Adobe Illustrator 26.5.0, SVG Export Plug-In . SVG Version: 6.00 Build 0)  -->
<svg version="1.1" id="Capa_1" xmlns="http://www.w3.org/2000/svg" xmlns:xlink="http://www.w3.org/1999/xlink" x="0px" y="0px"
	 viewBox="0 0 51.02 51.02" style="enable-background:new 0 0 51.02 51.02;" xml:space="preserve">
<style type="text/css">
	.st0{fill:#E5273C;}
	.st1{fill:#FFFFFF;}
	.st2{fill:none;stroke:#FFFFFF;stroke-width:0.5952;stroke-linecap:round;stroke-miterlimit:10;}
	.st3{fill:#FCC30C;}
	.st4{fill:#A31B43;}
	.st5{fill:#F59C2D;}
	.st6{fill:#ED692F;}
	.st7{fill:#DDA73A;}
	.st8{fill:#4E9F38;}
	.st9{fill:#C51D2E;}
	.st10{fill:#E8422F;}
	.st11{fill:#2EBCE1;}
	.st12{fill:#DE1868;}
	.st13{fill:#BE8B30;}
	.st14{fill:#61B235;}
	.st15{fill:#02699F;}
	.st16{fill:#1896D4;}
	.st17{fill:#3F7F45;}
	.st18{fill:#1A496A;}
</style>
<g>
	<rect x="0.47" y="0.39" class="st0" width="50.15" height="50.18"/>
	<path class="st1" d="M4.86,6.54c-0.09,0.05-0.34,0.15-0.76,0.3C3.77,6.95,3.57,7.03,3.48,7.07V5.7c0.27-0.1,0.59-0.26,0.98-0.47
		c0.38-0.21,0.65-0.41,0.81-0.58H6.7v9.59H4.86V6.54z"/>
	<polygon class="st1" points="10.72,8.31 10.72,4.65 12.22,4.65 12.22,5.11 11.39,5.11 11.39,6.17 12.05,6.17 12.05,6.64 
		11.39,6.64 11.39,8.31 	"/>
	<rect x="12.5" y="4.65" class="st1" width="0.66" height="3.66"/>
	<polygon class="st1" points="13.64,8.31 13.64,4.65 14.1,4.65 14.99,6.72 14.99,4.65 15.55,4.65 15.55,8.31 15.11,8.31 14.2,6.13 
		14.2,8.31 	"/>
	<path class="st1" d="M10.72,14.3v-3.66h0.85c0.22,0,0.41,0.02,0.55,0.07c0.15,0.04,0.27,0.11,0.36,0.21
		c0.09,0.1,0.15,0.21,0.19,0.35c0.04,0.14,0.06,0.31,0.06,0.51v1.32c0,0.21-0.02,0.39-0.06,0.53c-0.04,0.15-0.1,0.27-0.19,0.37
		c-0.09,0.1-0.2,0.18-0.35,0.22c-0.15,0.05-0.32,0.07-0.54,0.07H10.72z M11.39,13.83h0.19c0.07,0,0.12-0.01,0.17-0.02
		c0.05-0.01,0.09-0.03,0.13-0.04c0.03-0.02,0.06-0.04,0.09-0.08c0.02-0.04,0.04-0.07,0.05-0.1c0.01-0.03,0.02-0.08,0.03-0.14
		c0.01-0.06,0.01-0.12,0.01-0.16c0-0.04,0-0.11,0-0.2v-1.34c0-0.09,0-0.16,0-0.21c0-0.05-0.01-0.11-0.02-0.16
		c-0.01-0.05-0.03-0.1-0.05-0.12c-0.02-0.03-0.05-0.06-0.08-0.08c-0.04-0.02-0.08-0.04-0.13-0.05c-0.05-0.01-0.12-0.01-0.19-0.01
		h-0.18V13.83z"/>
	<polygon class="st1" points="13.13,14.3 13.13,10.63 14.67,10.63 14.67,11.11 13.8,11.11 13.8,12.16 14.48,12.16 14.48,12.63 
		13.8,12.63 13.8,13.84 14.68,13.84 14.68,14.3 	"/>
	<polygon class="st1" points="15.99,14.3 15.99,10.63 16.65,10.63 16.65,13.84 17.53,13.84 17.53,14.3 	"/>
	<path class="st1" d="M17.6,14.3l0.74-3.66h0.7l0.74,3.66h-0.62l-0.15-0.85h-0.63l-0.15,0.85H17.6z M18.45,13.01h0.49l-0.25-1.51
		L18.45,13.01z"/>
	<path class="st1" d="M21.07,14.3v-3.66h1.05c0.63,0,0.94,0.35,0.94,1.04c0,0.34-0.09,0.59-0.26,0.75
		c-0.17,0.16-0.41,0.24-0.72,0.24h-0.34v1.64H21.07z M21.74,12.19h0.21c0.19,0,0.32-0.04,0.38-0.11c0.07-0.07,0.1-0.21,0.1-0.41
		c0-0.11,0-0.2-0.01-0.26c-0.01-0.06-0.03-0.12-0.06-0.17c-0.03-0.05-0.08-0.09-0.14-0.11c-0.06-0.02-0.15-0.03-0.26-0.03h-0.22
		V12.19z"/>
	<path class="st1" d="M24.32,14.34c-0.38,0-0.65-0.1-0.81-0.31c-0.16-0.2-0.25-0.5-0.25-0.9v-1.35c0-0.19,0.02-0.36,0.06-0.51
		c0.04-0.14,0.1-0.27,0.18-0.37c0.08-0.1,0.19-0.18,0.33-0.24c0.14-0.05,0.3-0.08,0.49-0.08c0.38,0,0.65,0.1,0.81,0.3
		c0.16,0.2,0.25,0.5,0.25,0.89v1.35c0,0.19-0.02,0.36-0.06,0.5c-0.04,0.15-0.1,0.27-0.18,0.38c-0.08,0.11-0.19,0.19-0.33,0.24
		C24.68,14.32,24.52,14.34,24.32,14.34 M24.16,13.82c0.05,0.02,0.1,0.03,0.17,0.03c0.06,0,0.12-0.01,0.17-0.03
		c0.05-0.02,0.08-0.04,0.11-0.08c0.03-0.03,0.05-0.07,0.06-0.12c0.02-0.05,0.03-0.1,0.03-0.15c0.01-0.05,0.01-0.11,0.01-0.18v-1.66
		c0-0.09,0-0.16-0.01-0.22c-0.01-0.06-0.03-0.11-0.05-0.17c-0.03-0.05-0.06-0.09-0.12-0.12c-0.05-0.03-0.12-0.04-0.2-0.04
		c-0.08,0-0.15,0.01-0.2,0.04c-0.05,0.03-0.09,0.06-0.12,0.12c-0.03,0.05-0.04,0.11-0.05,0.17c-0.01,0.06-0.01,0.13-0.01,0.22v1.66
		c0,0.07,0,0.13,0.01,0.18c0.01,0.05,0.02,0.1,0.03,0.15c0.02,0.05,0.04,0.09,0.06,0.12C24.07,13.77,24.11,13.8,24.16,13.82"/>
	<path class="st1" d="M25.78,14.3v-3.66h0.9c0.17,0,0.32,0.02,0.44,0.04c0.13,0.03,0.24,0.08,0.34,0.15
		c0.1,0.07,0.17,0.17,0.22,0.29c0.05,0.12,0.07,0.27,0.07,0.45c0,0.45-0.18,0.71-0.54,0.76c0.22,0.04,0.38,0.14,0.48,0.28
		c0.11,0.15,0.16,0.36,0.16,0.62c0,0.35-0.09,0.61-0.26,0.79c-0.18,0.18-0.43,0.27-0.77,0.27H25.78z M26.45,12.13h0.21
		c0.2,0,0.33-0.04,0.4-0.13c0.07-0.08,0.11-0.23,0.11-0.42c0-0.1-0.01-0.19-0.04-0.25c-0.02-0.06-0.07-0.11-0.12-0.14
		c-0.06-0.03-0.12-0.05-0.19-0.06c-0.07-0.01-0.16-0.02-0.28-0.02h-0.09V12.13z M26.45,13.83h0.25c0.2,0,0.34-0.05,0.41-0.14
		c0.08-0.09,0.11-0.25,0.11-0.46c0-0.22-0.04-0.38-0.13-0.48c-0.09-0.1-0.23-0.15-0.43-0.15h-0.21V13.83z"/>
	<path class="st1" d="M28.2,14.3v-3.66h0.84c0.19,0,0.36,0.02,0.5,0.05c0.14,0.03,0.26,0.08,0.36,0.16c0.1,0.07,0.18,0.18,0.23,0.3
		c0.05,0.13,0.08,0.28,0.08,0.47c0,0.23-0.03,0.42-0.1,0.56c-0.07,0.15-0.18,0.25-0.34,0.32l0.51,1.81H29.6l-0.44-1.67h-0.3v1.67
		H28.2z M28.87,12.2h0.16c0.2,0,0.34-0.04,0.42-0.13c0.08-0.08,0.12-0.23,0.12-0.43c0-0.2-0.04-0.34-0.11-0.42
		c-0.07-0.09-0.2-0.13-0.4-0.13h-0.2V12.2z"/>
	<polygon class="st1" points="30.62,14.3 30.62,10.63 32.16,10.63 32.16,11.11 31.29,11.11 31.29,12.16 31.97,12.16 31.97,12.63 
		31.29,12.63 31.29,13.84 32.17,13.84 32.17,14.3 	"/>
	<polygon class="st1" points="32.35,14.3 32.35,13.86 33.32,11.1 32.39,11.1 32.39,10.63 34,10.63 34,10.96 32.98,13.84 34,13.84 
		34,14.3 	"/>
	<path class="st1" d="M34.1,14.3l0.74-3.66h0.7l0.74,3.66h-0.62l-0.15-0.85h-0.63l-0.15,0.85H34.1z M34.95,13.01h0.49l-0.25-1.51
		L34.95,13.01z"/>
	<path class="st1" d="M39.19,24.26c0-0.77,0.63-1.4,1.4-1.4c0.77,0,1.4,0.63,1.4,1.4c0,0.77-0.62,1.4-1.4,1.4
		C39.82,25.66,39.19,25.04,39.19,24.26"/>
	<path class="st1" d="M42.23,26.2c0.95,0.09,1.69,0.88,1.69,1.86v0.46v0.2v3.21c0,0.3-0.24,0.54-0.54,0.54
		c-0.3,0-0.54-0.24-0.54-0.54v-3.33c0-0.12-0.04-0.29-0.26-0.29c-0.16,0-0.19,0.17-0.2,0.27v9.98c0,0.43-0.35,0.78-0.78,0.78
		c-0.43,0-0.78-0.35-0.78-0.78v-5.75c0-0.06-0.02-0.23-0.22-0.23h0c-0.2,0-0.22,0.17-0.23,0.23v5.75c0,0.43-0.35,0.78-0.78,0.78
		c-0.43,0-0.78-0.35-0.78-0.78v-9.98c-0.01-0.11-0.04-0.27-0.2-0.27c-0.23,0-0.26,0.17-0.26,0.29v3.33c0,0.3-0.24,0.54-0.54,0.54
		c-0.3,0-0.54-0.24-0.54-0.54v-3.21v-0.2v-0.46c0-0.97,0.74-1.77,1.69-1.86c0.03,0,0.06-0.01,0.1-0.01h1.53h1.53
		C42.16,26.19,42.19,26.2,42.23,26.2"/>
	<path class="st1" d="M30.88,25c0-0.73-0.59-1.33-1.32-1.33c-0.73,0-1.32,0.59-1.32,1.33c0,0.73,0.59,1.32,1.32,1.32
		C30.29,26.32,30.88,25.73,30.88,25"/>
	<path class="st1" d="M26.89,28l-1.1,3.58c0,0-0.2,0.66,0.36,0.82c0.55,0.16,0.72-0.48,0.72-0.48l0.89-2.99c0,0,0.05-0.23,0.22-0.18
		c0.17,0.05,0.11,0.3,0.11,0.3l-1.55,5.61h1.44v4.02c0,0.38,0.31,0.69,0.69,0.69c0.38,0,0.69-0.31,0.69-0.69v-4.02h0.2h0.19v4.02
		c0,0.38,0.31,0.69,0.69,0.69c0.38,0,0.69-0.31,0.69-0.69v-4.02h1.44l-1.54-5.61c0,0-0.06-0.25,0.11-0.3
		c0.17-0.05,0.22,0.18,0.22,0.18l0.89,2.99c0,0,0.17,0.64,0.72,0.48c0.56-0.16,0.36-0.82,0.36-0.82L32.22,28
		c0,0-0.39-1.04-1.26-1.04h-1.4h-1.4C27.28,26.96,26.89,28,26.89,28"/>
	<path class="st1" d="M22.94,25c0-0.73-0.59-1.33-1.32-1.33c-0.73,0-1.32,0.59-1.32,1.33c0,0.73,0.59,1.32,1.32,1.32
		C22.35,26.32,22.94,25.73,22.94,25"/>
	<path class="st1" d="M18.95,28l-1.1,3.58c0,0-0.2,0.66,0.36,0.82c0.55,0.16,0.72-0.48,0.72-0.48l0.89-2.99c0,0,0.05-0.23,0.22-0.18
		c0.17,0.05,0.11,0.3,0.11,0.3l-1.54,5.61h1.44v4.02c0,0.38,0.31,0.69,0.69,0.69c0.38,0,0.69-0.31,0.69-0.69v-4.02h0.2h0.19v4.02
		c0,0.38,0.31,0.69,0.69,0.69c0.38,0,0.69-0.31,0.69-0.69v-4.02h1.44l-1.54-5.61c0,0-0.07-0.25,0.11-0.3
		c0.17-0.05,0.22,0.18,0.22,0.18l0.89,2.99c0,0,0.17,0.64,0.72,0.48c0.56-0.16,0.36-0.82,0.36-0.82L24.29,28
		c0,0-0.39-1.04-1.26-1.04h-1.4h-1.4C19.35,26.96,18.95,28,18.95,28"/>
	<path class="st1" d="M35.33,32.41c0.61,0,1.1-0.49,1.1-1.1c0-0.61-0.49-1.1-1.1-1.1c-0.61,0-1.1,0.49-1.1,1.1
		C34.22,31.92,34.72,32.41,35.33,32.41"/>
	<path class="st1" d="M32.68,35.84c-0.05,0.13-0.1,0.4,0.16,0.52c0.3,0.14,0.47-0.15,0.47-0.15l0.6-1.91c0,0,0.1-0.13,0.1,0v4.5h0
		c0,0.31,0.25,0.57,0.57,0.57c0.31,0,0.57-0.25,0.57-0.57v-1.78c0,0-0.03-0.25,0.17-0.25c0.2,0,0.17,0.25,0.17,0.25v1.78
		c0,0.31,0.25,0.57,0.57,0.57c0.31,0,0.57-0.25,0.57-0.57v-4.5c0-0.13,0.07-0.04,0.07-0.04l0.47,1.31c0,0,0.2,0.58,0.27,0.61
		c0.21,0.09,0.46-0.01,0.55-0.23c0.06-0.14,0.04-0.29-0.04-0.4l0,0c-0.01-0.04-0.7-1.73-0.78-1.97c-0.25-0.73-0.7-0.72-1.14-0.73
		c-0.44-0.01-0.7,0-0.7,0s-0.28-0.01-0.85,0.01c-0.57,0.02-0.76,0.31-1.39,1.94C32.99,35.03,32.68,35.79,32.68,35.84L32.68,35.84z"
		/>
	<path class="st1" d="M11.12,24.26c0-0.77-0.63-1.4-1.4-1.4c-0.77,0-1.4,0.63-1.4,1.4c0,0.77,0.62,1.4,1.4,1.4
		C10.49,25.66,11.12,25.04,11.12,24.26"/>
	<path class="st1" d="M8.08,26.2c-0.95,0.09-1.69,0.88-1.69,1.86v0.46v0.2v3.21c0,0.3,0.24,0.54,0.54,0.54
		c0.3,0,0.54-0.24,0.54-0.54v-3.33c0-0.12,0.04-0.29,0.26-0.29c0.16,0,0.19,0.17,0.2,0.27v9.98c0,0.43,0.35,0.78,0.78,0.78
		c0.43,0,0.78-0.35,0.78-0.78v-5.75c0-0.06,0.02-0.23,0.22-0.23h0c0.2,0,0.22,0.17,0.22,0.23v5.75c0,0.43,0.35,0.78,0.78,0.78
		c0.43,0,0.78-0.35,0.78-0.78v-9.98c0-0.11,0.04-0.27,0.2-0.27c0.23,0,0.26,0.17,0.26,0.29v3.33c0,0.3,0.24,0.54,0.54,0.54
		c0.3,0,0.54-0.24,0.54-0.54v-3.21v-0.2v-0.46c0-0.97-0.74-1.77-1.69-1.86c-0.03,0-0.07-0.01-0.1-0.01H9.72H8.19
		C8.15,26.19,8.12,26.2,8.08,26.2"/>
	<line class="st2" x1="6.86" y1="32.5" x2="5.62" y2="39.08"/>
	<path class="st1" d="M13.71,31.83c-0.07-0.11-0.2-0.19-0.34-0.19c-0.22,0-0.4,0.18-0.4,0.4c0,0.06,0.04,0.18,0.04,0.18l1.11,2.01
		c0,0,0.07,0.14,0.07,0.27v4.32h0c0,0.3,0.24,0.54,0.54,0.54c0.3,0,0.54-0.24,0.54-0.54v-1.7c0,0-0.03-0.24,0.16-0.24
		c0.19,0,0.16,0.24,0.16,0.24v1.7c0,0.3,0.24,0.54,0.54,0.54c0.3,0,0.54-0.24,0.54-0.54V34.5c0-0.13,0.07-0.27,0.07-0.27l1.03-1.86
		c0,0,0.13-0.27,0.13-0.33c0-0.22-0.18-0.4-0.4-0.4c-0.15,0-0.27,0.08-0.34,0.19l0,0c-0.03,0.03-0.55,0.94-0.72,1.11
		c-0.18,0.18-0.34,0.16-0.34,0.16h-0.67h-0.67c0,0-0.16,0.02-0.34-0.16C14.26,32.78,13.74,31.86,13.71,31.83L13.71,31.83z"/>
	<path class="st1" d="M15.44,32.41c0.61,0,1.1-0.49,1.1-1.1c0-0.61-0.49-1.1-1.1-1.1c-0.61,0-1.1,0.49-1.1,1.1
		C14.34,31.92,14.83,32.41,15.44,32.41"/>
	<polygon class="st1" points="15.44,33.96 16.68,34.87 17.28,37.05 15.44,37.05 13.6,37.05 14.19,34.87 	"/>
</g>
</svg>
