<?xml version="1.0" encoding="utf-8"?>
<!-- Generator: Adobe Illustrator 26.5.0, SVG Export Plug-In . SVG Version: 6.00 Build 0)  -->
<svg version="1.1" id="Capa_1" xmlns="http://www.w3.org/2000/svg" xmlns:xlink="http://www.w3.org/1999/xlink" x="0px" y="0px"
	 viewBox="0 0 51.02 51.02" style="enable-background:new 0 0 51.02 51.02;" xml:space="preserve">
<style type="text/css">
	.st0{fill:#E5273C;}
	.st1{fill:#FFFFFF;}
	.st2{fill:none;stroke:#FFFFFF;stroke-width:0.5952;stroke-linecap:round;stroke-miterlimit:10;}
	.st3{fill:#FCC30C;}
	.st4{fill:#A31B43;}
	.st5{fill:#F59C2D;}
	.st6{fill:#ED692F;}
	.st7{fill:#DDA73A;}
	.st8{fill:#4E9F38;}
	.st9{fill:#C51D2E;}
	.st10{fill:#E8422F;}
	.st11{fill:#2EBCE1;}
	.st12{fill:#DE1868;}
	.st13{fill:#BE8B30;}
	.st14{fill:#61B235;}
	.st15{fill:#02699F;}
	.st16{fill:#1896D4;}
	.st17{fill:#3F7F45;}
	.st18{fill:#1A496A;}
</style>
<g>
	<rect x="0.37" y="0.37" class="st14" width="50.29" height="50.29"/>
	<path class="st1" d="M4.8,6.64c-0.09,0.05-0.34,0.15-0.76,0.3C3.71,7.04,3.5,7.12,3.41,7.16V5.79c0.27-0.1,0.59-0.26,0.98-0.47
		C4.77,5.11,5.04,4.91,5.2,4.74h1.43v9.59H4.8V6.64z"/>
	<path class="st1" d="M8.63,14.14c-0.36-0.23-0.61-0.56-0.75-0.99c-0.13-0.43-0.2-0.96-0.2-1.6h1.78c0,0.55,0.05,0.95,0.15,1.2
		c0.1,0.25,0.3,0.37,0.6,0.37c0.24,0,0.41-0.08,0.52-0.24c0.11-0.16,0.18-0.37,0.21-0.65c0.03-0.27,0.04-0.66,0.04-1.18
		c0-0.58-0.05-1.02-0.16-1.31c-0.11-0.29-0.33-0.43-0.66-0.43c-0.43,0-0.7,0.29-0.82,0.86H7.78l0.13-5.45h4.42v1.57H9.41L9.31,8.43
		C9.42,8.3,9.61,8.19,9.88,8.1c0.27-0.09,0.56-0.14,0.86-0.14c0.65,0,1.15,0.26,1.48,0.79c0.33,0.53,0.5,1.27,0.5,2.23
		c0,0.76-0.07,1.39-0.2,1.89c-0.13,0.5-0.39,0.9-0.76,1.18c-0.37,0.29-0.91,0.43-1.6,0.43C9.5,14.48,9,14.37,8.63,14.14"/>
	<polygon class="st1" points="17.13,8.4 16.39,4.74 16.98,4.74 17.46,7.29 17.92,4.74 18.52,4.74 17.77,8.4 	"/>
	<rect x="18.78" y="4.74" class="st1" width="0.66" height="3.66"/>
	<path class="st1" d="M19.87,8.4V4.74h0.85c0.22,0,0.41,0.02,0.56,0.07c0.15,0.04,0.27,0.11,0.36,0.21c0.09,0.1,0.15,0.21,0.19,0.35
		c0.04,0.14,0.06,0.31,0.06,0.51V7.2c0,0.21-0.02,0.39-0.06,0.53C21.78,7.88,21.72,8,21.63,8.1c-0.09,0.1-0.2,0.18-0.35,0.22
		c-0.15,0.05-0.32,0.07-0.54,0.07H19.87z M20.53,7.93h0.19c0.07,0,0.12-0.01,0.17-0.02c0.05-0.01,0.09-0.03,0.13-0.04
		c0.03-0.02,0.06-0.04,0.08-0.08c0.02-0.04,0.04-0.07,0.05-0.1c0.01-0.03,0.02-0.08,0.03-0.14c0.01-0.06,0.01-0.12,0.01-0.16
		c0-0.04,0-0.11,0-0.2V5.85c0-0.09,0-0.16,0-0.21c0-0.05-0.01-0.11-0.02-0.16c-0.01-0.05-0.03-0.1-0.05-0.12
		c-0.02-0.03-0.05-0.06-0.08-0.08c-0.04-0.02-0.08-0.04-0.13-0.05c-0.05-0.01-0.12-0.01-0.19-0.01h-0.18V7.93z"/>
	<path class="st1" d="M21.99,8.4l0.74-3.66h0.7l0.74,3.66h-0.62l-0.15-0.85h-0.63L22.62,8.4H21.99z M22.85,7.11h0.49l-0.25-1.51
		L22.85,7.11z"/>
	<path class="st1" d="M16.56,14.39v-3.66h0.85c0.22,0,0.41,0.02,0.56,0.07c0.15,0.04,0.27,0.11,0.36,0.21
		c0.09,0.1,0.15,0.21,0.19,0.35c0.04,0.14,0.06,0.31,0.06,0.51v1.32c0,0.21-0.02,0.39-0.06,0.53c-0.04,0.15-0.1,0.27-0.19,0.37
		c-0.09,0.1-0.2,0.18-0.35,0.22c-0.15,0.05-0.32,0.07-0.54,0.07H16.56z M17.22,13.92h0.19c0.07,0,0.12-0.01,0.17-0.02
		c0.05-0.01,0.09-0.03,0.13-0.04c0.03-0.02,0.06-0.04,0.08-0.08c0.02-0.04,0.04-0.07,0.05-0.1c0.01-0.03,0.02-0.08,0.03-0.14
		c0.01-0.06,0.01-0.12,0.01-0.16c0-0.04,0-0.11,0-0.2v-1.34c0-0.09,0-0.16,0-0.21c0-0.05-0.01-0.11-0.02-0.16
		c-0.01-0.05-0.03-0.1-0.05-0.12c-0.02-0.03-0.05-0.06-0.08-0.08c-0.04-0.02-0.08-0.04-0.13-0.05c-0.05-0.01-0.12-0.01-0.19-0.01
		h-0.18V13.92z"/>
	<polygon class="st1" points="18.92,14.39 18.92,10.72 20.46,10.72 20.46,11.2 19.59,11.2 19.59,12.25 20.28,12.25 20.28,12.72 
		19.59,12.72 19.59,13.93 20.47,13.93 20.47,14.39 	"/>
	<polygon class="st1" points="21.69,14.39 21.69,10.72 23.22,10.72 23.22,11.2 22.35,11.2 22.35,12.25 23.04,12.25 23.04,12.72 
		22.35,12.72 22.35,13.93 23.23,13.93 23.23,14.39 	"/>
	<path class="st1" d="M24.46,14.43c-0.16,0-0.3-0.02-0.42-0.06c-0.12-0.04-0.22-0.1-0.3-0.17c-0.08-0.07-0.14-0.16-0.19-0.26
		c-0.05-0.1-0.08-0.22-0.1-0.34c-0.02-0.12-0.03-0.26-0.03-0.41v-1.28c0-0.16,0.01-0.3,0.03-0.42c0.02-0.12,0.06-0.24,0.1-0.34
		c0.05-0.11,0.11-0.19,0.19-0.26c0.08-0.07,0.18-0.12,0.3-0.16c0.12-0.04,0.26-0.06,0.42-0.06c0.18,0,0.34,0.02,0.47,0.07
		c0.13,0.05,0.23,0.12,0.31,0.21c0.08,0.09,0.13,0.2,0.16,0.33c0.03,0.13,0.05,0.27,0.05,0.44v0.31h-0.64v-0.31
		c0-0.18-0.01-0.31-0.03-0.37c-0.04-0.12-0.13-0.19-0.28-0.2h-0.04c-0.06,0-0.11,0.01-0.15,0.02c-0.04,0.01-0.08,0.03-0.1,0.06
		c-0.03,0.03-0.05,0.06-0.06,0.09c-0.02,0.03-0.03,0.07-0.04,0.13c-0.01,0.05-0.01,0.1-0.02,0.15c0,0.04,0,0.1,0,0.17v1.55
		c0,0.22,0.03,0.37,0.08,0.46c0.05,0.09,0.15,0.14,0.29,0.14c0.05,0,0.09-0.01,0.12-0.02c0.04-0.01,0.07-0.03,0.09-0.04
		c0.02-0.02,0.04-0.04,0.06-0.07c0.02-0.03,0.03-0.06,0.04-0.09c0.01-0.03,0.02-0.07,0.02-0.11c0-0.05,0.01-0.09,0.01-0.12
		c0-0.03,0-0.08,0-0.14v-0.33h0.64v0.3c0,0.14-0.01,0.26-0.03,0.37c-0.02,0.11-0.05,0.21-0.1,0.31c-0.05,0.1-0.11,0.18-0.18,0.24
		c-0.07,0.06-0.17,0.11-0.28,0.15C24.75,14.42,24.62,14.43,24.46,14.43"/>
	<path class="st1" d="M26.78,14.43c-0.38,0-0.65-0.1-0.81-0.31c-0.16-0.2-0.25-0.5-0.25-0.9v-1.35c0-0.19,0.02-0.36,0.06-0.51
		c0.04-0.14,0.1-0.27,0.18-0.37c0.08-0.1,0.19-0.18,0.33-0.24c0.14-0.05,0.3-0.08,0.5-0.08c0.38,0,0.65,0.1,0.81,0.3
		c0.16,0.2,0.25,0.5,0.25,0.89v1.35c0,0.19-0.02,0.36-0.06,0.5c-0.04,0.15-0.1,0.27-0.18,0.38c-0.08,0.11-0.19,0.19-0.33,0.24
		C27.13,14.41,26.97,14.43,26.78,14.43 M26.61,13.91c0.05,0.02,0.1,0.03,0.17,0.03s0.12-0.01,0.17-0.03
		c0.05-0.02,0.08-0.04,0.11-0.08c0.03-0.03,0.05-0.07,0.06-0.12c0.02-0.05,0.03-0.1,0.03-0.15c0.01-0.05,0.01-0.11,0.01-0.18v-1.66
		c0-0.09,0-0.16-0.01-0.22c-0.01-0.06-0.03-0.11-0.05-0.17c-0.03-0.05-0.06-0.09-0.12-0.12c-0.05-0.03-0.12-0.04-0.2-0.04
		c-0.08,0-0.15,0.01-0.2,0.04c-0.05,0.03-0.09,0.06-0.12,0.12c-0.03,0.05-0.04,0.11-0.05,0.17c-0.01,0.06-0.01,0.13-0.01,0.22v1.66
		c0,0.07,0,0.13,0.01,0.18c0.01,0.05,0.02,0.1,0.03,0.15c0.02,0.05,0.04,0.09,0.06,0.12C26.53,13.87,26.56,13.89,26.61,13.91"/>
	<path class="st1" d="M29.11,14.43c-0.65,0-0.98-0.37-1.02-1.12l0.58-0.12c0.01,0.48,0.15,0.73,0.42,0.73c0.1,0,0.18-0.03,0.23-0.09
		c0.05-0.06,0.07-0.15,0.07-0.25c0-0.1-0.02-0.2-0.06-0.28c-0.04-0.08-0.08-0.15-0.13-0.21c-0.05-0.05-0.12-0.12-0.21-0.2
		l-0.48-0.42c-0.14-0.12-0.25-0.25-0.32-0.39c-0.07-0.13-0.1-0.3-0.1-0.5c0-0.28,0.08-0.5,0.25-0.66c0.17-0.16,0.4-0.24,0.69-0.24
		c0.13,0,0.25,0.01,0.36,0.05c0.1,0.03,0.19,0.08,0.26,0.14c0.07,0.06,0.12,0.13,0.17,0.22c0.04,0.09,0.08,0.18,0.1,0.27
		c0.02,0.09,0.04,0.2,0.05,0.31l-0.57,0.11c0-0.07-0.01-0.14-0.01-0.19c-0.01-0.05-0.02-0.11-0.03-0.17
		c-0.02-0.06-0.04-0.1-0.06-0.14c-0.03-0.04-0.06-0.06-0.1-0.08c-0.04-0.02-0.09-0.03-0.15-0.02c-0.1,0.01-0.17,0.04-0.23,0.1
		c-0.05,0.06-0.08,0.14-0.08,0.24c0,0.12,0.02,0.21,0.07,0.29c0.05,0.08,0.12,0.16,0.22,0.24l0.48,0.42
		c0.08,0.07,0.15,0.14,0.21,0.21c0.06,0.07,0.12,0.15,0.17,0.23c0.05,0.09,0.1,0.18,0.12,0.29c0.03,0.1,0.04,0.22,0.04,0.33
		c0,0.27-0.08,0.48-0.25,0.65C29.61,14.35,29.38,14.43,29.11,14.43"/>
	<rect x="30.3" y="10.72" class="st1" width="0.66" height="3.66"/>
	<path class="st1" d="M32.31,14.43c-0.65,0-0.98-0.37-1.02-1.12l0.58-0.12c0.01,0.48,0.15,0.73,0.42,0.73c0.1,0,0.18-0.03,0.23-0.09
		c0.05-0.06,0.07-0.15,0.07-0.25c0-0.1-0.02-0.2-0.06-0.28c-0.04-0.08-0.08-0.15-0.13-0.21c-0.05-0.05-0.12-0.12-0.21-0.2
		l-0.48-0.42c-0.14-0.12-0.25-0.25-0.32-0.39c-0.07-0.13-0.1-0.3-0.1-0.5c0-0.28,0.08-0.5,0.25-0.66c0.17-0.16,0.4-0.24,0.69-0.24
		c0.13,0,0.25,0.01,0.36,0.05c0.1,0.03,0.19,0.08,0.26,0.14c0.07,0.06,0.12,0.13,0.17,0.22c0.04,0.09,0.08,0.18,0.1,0.27
		c0.02,0.09,0.04,0.2,0.05,0.31l-0.57,0.11c0-0.07-0.01-0.14-0.01-0.19c-0.01-0.05-0.02-0.11-0.03-0.17
		c-0.02-0.06-0.04-0.1-0.06-0.14c-0.03-0.04-0.06-0.06-0.1-0.08c-0.04-0.02-0.09-0.03-0.15-0.02c-0.1,0.01-0.17,0.04-0.23,0.1
		c-0.05,0.06-0.08,0.14-0.08,0.24c0,0.12,0.02,0.21,0.07,0.29c0.05,0.08,0.12,0.16,0.22,0.24l0.48,0.42
		c0.08,0.07,0.15,0.14,0.21,0.21c0.06,0.07,0.12,0.15,0.17,0.23c0.05,0.09,0.1,0.18,0.12,0.29c0.03,0.1,0.04,0.22,0.04,0.33
		c0,0.27-0.08,0.48-0.25,0.65C32.81,14.35,32.59,14.43,32.31,14.43"/>
	<polygon class="st1" points="33.84,14.39 33.84,11.22 33.23,11.22 33.23,10.72 35.11,10.72 35.11,11.22 34.51,11.22 34.51,14.39 	
		"/>
	<polygon class="st1" points="35.26,14.39 35.26,10.72 36.8,10.72 36.8,11.2 35.93,11.2 35.93,12.25 36.61,12.25 36.61,12.72 
		35.93,12.72 35.93,13.93 36.81,13.93 36.81,14.39 	"/>
	<polygon class="st1" points="37.05,14.39 37.11,10.72 37.79,10.72 38.32,13.3 38.87,10.72 39.54,10.72 39.6,14.39 39.1,14.39 
		39.05,11.87 38.53,14.39 38.13,14.39 37.6,11.86 37.56,14.39 	"/>
	<path class="st1" d="M39.82,14.39l0.74-3.66h0.7L42,14.39h-0.62l-0.15-0.85H40.6l-0.15,0.85H39.82z M40.67,13.1h0.49l-0.25-1.51
		L40.67,13.1z"/>
	<path class="st1" d="M43.15,14.43c-0.65,0-0.98-0.37-1.02-1.12l0.58-0.12c0.01,0.48,0.15,0.73,0.42,0.73c0.1,0,0.18-0.03,0.23-0.09
		c0.05-0.06,0.07-0.15,0.07-0.25c0-0.1-0.02-0.2-0.06-0.28c-0.04-0.08-0.08-0.15-0.13-0.21c-0.05-0.05-0.12-0.12-0.21-0.2
		l-0.48-0.42c-0.14-0.12-0.25-0.25-0.32-0.39c-0.07-0.13-0.1-0.3-0.1-0.5c0-0.28,0.08-0.5,0.25-0.66c0.17-0.16,0.4-0.24,0.69-0.24
		c0.13,0,0.25,0.01,0.36,0.05c0.1,0.03,0.19,0.08,0.26,0.14c0.07,0.06,0.12,0.13,0.17,0.22c0.04,0.09,0.08,0.18,0.1,0.27
		c0.02,0.09,0.04,0.2,0.05,0.31l-0.57,0.11c0-0.07-0.01-0.14-0.01-0.19c-0.01-0.05-0.02-0.11-0.03-0.17
		c-0.02-0.06-0.04-0.1-0.06-0.14c-0.03-0.04-0.06-0.06-0.1-0.08c-0.04-0.02-0.09-0.03-0.15-0.02c-0.1,0.01-0.17,0.04-0.23,0.1
		c-0.05,0.06-0.08,0.14-0.08,0.24c0,0.12,0.02,0.21,0.07,0.29c0.05,0.08,0.12,0.16,0.22,0.24l0.48,0.42
		c0.08,0.07,0.15,0.14,0.21,0.21c0.06,0.07,0.12,0.15,0.17,0.23C43.96,13,44,13.1,44.02,13.2c0.03,0.1,0.04,0.22,0.04,0.33
		c0,0.27-0.08,0.48-0.25,0.65C43.64,14.35,43.42,14.43,43.15,14.43"/>
	<polygon class="st1" points="16.91,20.38 16.91,17.21 16.3,17.21 16.3,16.71 18.18,16.71 18.18,17.21 17.58,17.21 17.58,20.38 	"/>
	<polygon class="st1" points="18.33,20.38 18.33,16.71 19.87,16.71 19.87,17.18 19,17.18 19,18.24 19.68,18.24 19.68,18.71 
		19,18.71 19,19.92 19.88,19.92 19.88,20.38 	"/>
	<path class="st1" d="M20.13,20.38v-3.66h0.84c0.19,0,0.36,0.02,0.5,0.05c0.14,0.03,0.26,0.08,0.36,0.16
		c0.1,0.07,0.18,0.18,0.23,0.3c0.05,0.13,0.08,0.28,0.08,0.47c0,0.23-0.03,0.42-0.1,0.56c-0.07,0.15-0.18,0.25-0.34,0.32l0.51,1.8
		h-0.67l-0.44-1.67h-0.3v1.67H20.13z M20.79,18.28h0.16c0.2,0,0.34-0.04,0.42-0.13c0.08-0.08,0.12-0.23,0.12-0.43
		c0-0.2-0.04-0.34-0.11-0.42c-0.07-0.08-0.2-0.13-0.4-0.13h-0.2V18.28z"/>
	<path class="st1" d="M22.5,20.38v-3.66h0.84c0.19,0,0.36,0.02,0.5,0.05c0.14,0.03,0.26,0.08,0.36,0.16c0.1,0.07,0.18,0.18,0.23,0.3
		c0.05,0.13,0.08,0.28,0.08,0.47c0,0.23-0.03,0.42-0.1,0.56c-0.07,0.15-0.18,0.25-0.34,0.32l0.51,1.8H23.9l-0.44-1.67h-0.3v1.67
		H22.5z M23.17,18.28h0.16c0.2,0,0.34-0.04,0.42-0.13c0.08-0.08,0.12-0.23,0.12-0.43c0-0.2-0.04-0.34-0.11-0.42
		c-0.07-0.08-0.2-0.13-0.4-0.13h-0.2V18.28z"/>
	<polygon class="st1" points="24.88,20.38 24.88,16.71 26.41,16.71 26.41,17.18 25.54,17.18 25.54,18.24 26.23,18.24 26.23,18.71 
		25.54,18.71 25.54,19.92 26.42,19.92 26.42,20.38 	"/>
	<path class="st1" d="M27.59,20.42c-0.65,0-0.98-0.37-1.02-1.12l0.58-0.12c0.01,0.48,0.15,0.73,0.42,0.73c0.1,0,0.18-0.03,0.23-0.09
		c0.05-0.06,0.07-0.15,0.07-0.25c0-0.1-0.02-0.2-0.06-0.28c-0.04-0.08-0.08-0.15-0.13-0.21c-0.05-0.05-0.12-0.12-0.21-0.2L27,18.46
		c-0.14-0.12-0.25-0.25-0.32-0.39c-0.07-0.13-0.1-0.3-0.1-0.5c0-0.28,0.08-0.51,0.25-0.66c0.17-0.16,0.4-0.24,0.69-0.24
		c0.13,0,0.25,0.01,0.36,0.05c0.1,0.03,0.19,0.08,0.26,0.14c0.07,0.06,0.12,0.13,0.17,0.22c0.04,0.09,0.08,0.18,0.1,0.27
		c0.02,0.09,0.04,0.2,0.05,0.31l-0.57,0.11c0-0.07-0.01-0.14-0.01-0.19c-0.01-0.05-0.02-0.11-0.03-0.17
		c-0.02-0.06-0.04-0.1-0.06-0.14c-0.03-0.04-0.06-0.06-0.1-0.08c-0.04-0.02-0.09-0.03-0.15-0.02c-0.1,0.01-0.17,0.04-0.23,0.1
		c-0.05,0.06-0.08,0.14-0.08,0.24c0,0.12,0.02,0.22,0.07,0.29c0.05,0.08,0.12,0.16,0.22,0.24l0.48,0.42
		c0.08,0.07,0.15,0.14,0.21,0.21c0.06,0.07,0.11,0.15,0.17,0.23c0.05,0.09,0.1,0.18,0.12,0.29c0.03,0.1,0.04,0.22,0.04,0.33
		c0,0.27-0.08,0.48-0.25,0.65C28.09,20.34,27.87,20.42,27.59,20.42"/>
	<polygon class="st1" points="29.12,20.38 29.12,17.21 28.51,17.21 28.51,16.71 30.39,16.71 30.39,17.21 29.79,17.21 29.79,20.38 	
		"/>
	<path class="st1" d="M30.54,20.38v-3.66h0.84c0.19,0,0.36,0.02,0.5,0.05c0.14,0.03,0.26,0.08,0.36,0.16
		c0.1,0.07,0.18,0.18,0.23,0.3c0.05,0.13,0.08,0.28,0.08,0.47c0,0.23-0.03,0.42-0.1,0.56c-0.07,0.15-0.18,0.25-0.34,0.32l0.51,1.8
		h-0.67l-0.44-1.67h-0.3v1.67H30.54z M31.21,18.28h0.16c0.2,0,0.34-0.04,0.42-0.13c0.08-0.08,0.12-0.23,0.12-0.43
		c0-0.2-0.04-0.34-0.11-0.42c-0.07-0.08-0.2-0.13-0.4-0.13h-0.2V18.28z"/>
	<polygon class="st1" points="32.92,20.38 32.92,16.71 34.45,16.71 34.45,17.18 33.58,17.18 33.58,18.24 34.27,18.24 34.27,18.71 
		33.58,18.71 33.58,19.92 34.46,19.92 34.46,20.38 	"/>
	<path class="st1" d="M35.63,20.42c-0.65,0-0.98-0.37-1.02-1.12l0.58-0.12c0.01,0.48,0.15,0.73,0.42,0.73c0.1,0,0.18-0.03,0.23-0.09
		c0.05-0.06,0.07-0.15,0.07-0.25c0-0.1-0.02-0.2-0.06-0.28c-0.04-0.08-0.08-0.15-0.13-0.21c-0.05-0.05-0.12-0.12-0.21-0.2
		l-0.48-0.42c-0.14-0.12-0.25-0.25-0.32-0.39c-0.07-0.13-0.1-0.3-0.1-0.5c0-0.28,0.08-0.51,0.25-0.66c0.17-0.16,0.4-0.24,0.69-0.24
		c0.13,0,0.25,0.01,0.36,0.05c0.1,0.03,0.19,0.08,0.26,0.14c0.07,0.06,0.12,0.13,0.17,0.22c0.04,0.09,0.08,0.18,0.1,0.27
		c0.02,0.09,0.04,0.2,0.05,0.31l-0.57,0.11c0-0.07-0.01-0.14-0.01-0.19c-0.01-0.05-0.02-0.11-0.03-0.17
		c-0.02-0.06-0.04-0.1-0.06-0.14c-0.03-0.04-0.06-0.06-0.1-0.08c-0.04-0.02-0.09-0.03-0.15-0.02c-0.1,0.01-0.17,0.04-0.23,0.1
		c-0.05,0.06-0.08,0.14-0.08,0.24c0,0.12,0.02,0.22,0.07,0.29c0.05,0.08,0.12,0.16,0.22,0.24l0.48,0.42
		c0.08,0.07,0.15,0.14,0.21,0.21c0.06,0.07,0.12,0.15,0.17,0.23c0.05,0.09,0.1,0.18,0.12,0.29c0.03,0.1,0.04,0.22,0.04,0.33
		c0,0.27-0.08,0.48-0.25,0.65C36.13,20.34,35.91,20.42,35.63,20.42"/>
	<path class="st1" d="M21.68,35.67c0.05,0,0.1,0.04,0.1,0.1v3.22c0,0.05-0.04,0.1-0.1,0.1h-1.3c-0.05,0-0.1-0.04-0.1-0.1v-3.22
		c0-0.05,0.04-0.1,0.1-0.1H21.68z"/>
	<path class="st1" d="M36.01,40.47H14.5c-0.05,0-0.1,0.05-0.1,0.1v1.31c0,0.05,0.04,0.1,0.1,0.1h21.5c0.05,0,0.1-0.04,0.1-0.1v-1.31
		C36.11,40.52,36.06,40.47,36.01,40.47"/>
	<path class="st1" d="M36.01,43.09H14.5c-0.05,0-0.1,0.04-0.1,0.1v1.32c0,0.05,0.04,0.1,0.1,0.1h21.5c0.05,0,0.1-0.04,0.1-0.1v-1.32
		C36.11,43.13,36.06,43.09,36.01,43.09"/>
	<path class="st1" d="M31.91,32.1c-0.27-0.21-0.99-0.7-1.86-0.7c-0.62,0-1.21,0.25-1.73,0.73c-0.04,0.03-0.06,0.08-0.06,0.13v0.12
		c0,0.06,0.02,0.11,0.06,0.15c0.05,0.04,0.1,0.05,0.15,0.04c0.01,0,0.03-0.01,0.04-0.01c0.04-0.01,0.08-0.04,0.11-0.07
		c0.11-0.08,0.42-0.18,0.86-0.18c0.46,0,1.35,0.12,2.22,0.93l0.02,0.02c0.05,0.05,0.12,0.08,0.19,0.08c0.07,0,0.14-0.03,0.18-0.08
		l0.02-0.02c0.87-0.81,1.76-0.93,2.22-0.93c0.44,0,0.75,0.1,0.86,0.18c0.03,0.03,0.07,0.06,0.12,0.07c0.02,0.01,0.07,0.02,0.13,0
		c0.08-0.02,0.14-0.09,0.14-0.18v-0.1c0-0.05-0.02-0.1-0.06-0.13c-0.53-0.5-1.11-0.75-1.75-0.75C32.9,31.4,32.19,31.88,31.91,32.1"
		/>
	<path class="st1" d="M30.58,23.53c-0.05,0.02-0.08,0.06-0.09,0.11l-0.02,0.07c-0.02,0.06-0.01,0.12,0.03,0.16
		c0.03,0.04,0.08,0.07,0.13,0.07c0.01,0,0.02,0,0.03,0c0.04,0,0.07-0.01,0.1-0.03c0.02,0,0.06-0.01,0.13-0.01
		c0.1,0,0.96,0.03,1.54,1l0.01,0.01c0.03,0.06,0.08,0.1,0.14,0.11c0.02,0.01,0.05,0.01,0.07,0.01c0.04,0,0.08-0.01,0.11-0.03
		l0.01-0.01c0.31-0.16,0.64-0.24,0.96-0.24c0.54,0,0.9,0.22,0.98,0.31c0.02,0.03,0.04,0.06,0.07,0.08c0.02,0.01,0.05,0.03,0.07,0.03
		c0.01,0,0.02,0,0.03,0c0.01,0,0.01,0,0.02,0c0.03,0,0.06-0.01,0.09-0.02c0.04-0.02,0.08-0.06,0.09-0.11l0.02-0.06
		c0.01-0.02,0.01-0.03,0.01-0.05c0-0.03-0.01-0.07-0.03-0.09c-0.42-0.72-1.02-0.88-1.46-0.88c-0.32,0-0.61,0.08-0.77,0.15
		c-0.2-0.27-0.69-0.81-1.45-0.81C31.12,23.32,30.85,23.39,30.58,23.53"/>
	<path class="st1" d="M26.04,26.84l0.01,0.1c0,0.06,0.03,0.11,0.09,0.15c0.04,0.03,0.1,0.04,0.14,0.02c0.01,0,0.02-0.01,0.03-0.01
		c0.04-0.02,0.07-0.04,0.09-0.07c0.09-0.07,0.39-0.19,0.82-0.19c0.42,0,1.05,0.11,1.7,0.64l0.02,0.02c0.05,0.04,0.11,0.06,0.17,0.06
		h0.02c0.07-0.01,0.13-0.04,0.17-0.08l0.01-0.02c0.72-0.76,1.49-0.87,1.89-0.87c0.28,0,0.48,0.06,0.56,0.1
		c0.03,0.03,0.07,0.05,0.11,0.06c0.01,0,0.04,0.01,0.08,0.01c0.01,0,0.03-0.01,0.05-0.01c0.08-0.03,0.13-0.1,0.12-0.18l-0.01-0.08
		c0-0.05-0.03-0.1-0.06-0.13c-0.43-0.36-0.89-0.54-1.38-0.54c-0.76,0-1.36,0.45-1.61,0.67c-0.23-0.16-0.78-0.48-1.43-0.48
		c-0.57,0-1.09,0.24-1.53,0.71C26.05,26.74,26.03,26.79,26.04,26.84"/>
	<path class="st1" d="M15.16,28.56c0-1.29,1.04-2.33,2.33-2.33c0.05,0,0.1,0,0.15,0.01c0.12-1.63,1.48-2.91,3.14-2.91
		c1.74,0,3.15,1.41,3.15,3.15c0,0.49-0.12,0.96-0.32,1.37c1.58,0.35,2.76,1.76,2.76,3.44c0,1.95-1.58,3.52-3.52,3.52
		c-0.14,0-4.7-0.03-4.7-0.03c-1.38,0-2.5-1.12-2.5-2.5c0-0.66,0.26-1.26,0.68-1.71C15.63,30.18,15.16,29.43,15.16,28.56"/>
</g>
</svg>
