<?xml version="1.0" encoding="utf-8"?>
<!-- Generator: Adobe Illustrator 26.5.0, SVG Export Plug-In . SVG Version: 6.00 Build 0)  -->
<svg version="1.1" id="Capa_1" xmlns="http://www.w3.org/2000/svg" xmlns:xlink="http://www.w3.org/1999/xlink" x="0px" y="0px"
	 viewBox="0 0 51.02 51.02" style="enable-background:new 0 0 51.02 51.02;" xml:space="preserve">
<style type="text/css">
	.st0{fill:#E5273C;}
	.st1{fill:#FFFFFF;}
	.st2{fill:none;stroke:#FFFFFF;stroke-width:0.5952;stroke-linecap:round;stroke-miterlimit:10;}
	.st3{fill:#FCC30C;}
	.st4{fill:#A31B43;}
	.st5{fill:#F59C2D;}
	.st6{fill:#ED692F;}
	.st7{fill:#DDA73A;}
	.st8{fill:#4E9F38;}
	.st9{fill:#C51D2E;}
	.st10{fill:#E8422F;}
	.st11{fill:#2EBCE1;}
	.st12{fill:#DE1868;}
	.st13{fill:#BE8B30;}
	.st14{fill:#61B235;}
	.st15{fill:#02699F;}
	.st16{fill:#1896D4;}
	.st17{fill:#3F7F45;}
	.st18{fill:#1A496A;}
</style>
<g>
	<rect x="0.37" y="0.37" class="st16" width="50.29" height="50.29"/>
	<path class="st1" d="M4.7,6.64c-0.09,0.05-0.34,0.15-0.76,0.3C3.61,7.04,3.4,7.12,3.32,7.16V5.79c0.27-0.1,0.59-0.26,0.98-0.47
		c0.38-0.21,0.65-0.41,0.81-0.58h1.43v9.59H4.7V6.64z"/>
	<path class="st1" d="M10.23,12.06H7.34v-1.44l2.5-5.87h2.05v5.93h0.96v1.39h-0.96v2.27h-1.66V12.06z M10.23,10.67V6.6l-1.46,4.07
		H10.23z"/>
	<polygon class="st1" points="17.03,8.4 16.29,4.74 16.88,4.74 17.37,7.29 17.82,4.74 18.43,4.74 17.68,8.4 	"/>
	<rect x="18.69" y="4.74" class="st1" width="0.66" height="3.66"/>
	<path class="st1" d="M19.77,8.4V4.74h0.85c0.22,0,0.41,0.02,0.56,0.07c0.15,0.04,0.27,0.11,0.36,0.21c0.09,0.1,0.15,0.21,0.19,0.35
		c0.04,0.14,0.06,0.31,0.06,0.51V7.2c0,0.21-0.02,0.39-0.06,0.53C21.69,7.88,21.63,8,21.54,8.1c-0.09,0.1-0.2,0.18-0.35,0.22
		c-0.15,0.05-0.32,0.07-0.54,0.07H19.77z M20.44,7.93h0.19c0.07,0,0.12-0.01,0.17-0.02c0.05-0.01,0.09-0.03,0.13-0.04
		c0.03-0.02,0.06-0.04,0.08-0.08c0.02-0.04,0.04-0.07,0.05-0.1c0.01-0.03,0.02-0.08,0.03-0.14c0.01-0.06,0.01-0.12,0.01-0.16
		c0-0.04,0-0.11,0-0.2V5.85c0-0.09,0-0.16,0-0.21c0-0.05-0.01-0.11-0.02-0.16c-0.01-0.05-0.03-0.1-0.05-0.12
		c-0.02-0.03-0.05-0.06-0.08-0.08c-0.04-0.02-0.08-0.04-0.13-0.05c-0.05-0.01-0.12-0.01-0.19-0.01h-0.18V7.93z"/>
	<path class="st1" d="M21.9,8.4l0.74-3.66h0.7l0.74,3.66h-0.62l-0.15-0.85h-0.63L22.53,8.4H21.9z M22.75,7.11h0.49L23,5.61
		L22.75,7.11z"/>
	<path class="st1" d="M17.39,14.43c-0.65,0-0.98-0.37-1.02-1.12l0.58-0.12c0.01,0.48,0.15,0.73,0.42,0.73c0.1,0,0.18-0.03,0.23-0.09
		c0.05-0.06,0.07-0.15,0.07-0.25c0-0.1-0.02-0.2-0.06-0.28c-0.04-0.08-0.08-0.15-0.13-0.21c-0.05-0.05-0.12-0.12-0.21-0.2
		l-0.48-0.42c-0.14-0.12-0.25-0.25-0.32-0.39c-0.07-0.13-0.1-0.3-0.1-0.5c0-0.28,0.08-0.5,0.25-0.66c0.17-0.16,0.4-0.24,0.69-0.24
		c0.13,0,0.25,0.01,0.36,0.05c0.1,0.03,0.19,0.08,0.26,0.14c0.07,0.06,0.12,0.13,0.17,0.22c0.04,0.09,0.08,0.18,0.1,0.27
		c0.02,0.09,0.04,0.2,0.05,0.31l-0.57,0.11c0-0.07-0.01-0.14-0.01-0.19c-0.01-0.05-0.02-0.11-0.03-0.17
		c-0.02-0.06-0.04-0.1-0.06-0.14c-0.03-0.04-0.06-0.06-0.1-0.08c-0.04-0.02-0.09-0.03-0.15-0.02c-0.1,0.01-0.17,0.04-0.23,0.1
		C17.02,11.34,17,11.42,17,11.52c0,0.12,0.02,0.21,0.07,0.29c0.05,0.08,0.12,0.16,0.22,0.24l0.48,0.42
		c0.08,0.07,0.15,0.14,0.21,0.21c0.06,0.07,0.12,0.15,0.17,0.23c0.05,0.09,0.1,0.18,0.12,0.29c0.03,0.1,0.04,0.22,0.04,0.33
		c0,0.27-0.08,0.48-0.25,0.65C17.88,14.35,17.66,14.43,17.39,14.43"/>
	<path class="st1" d="M19.56,14.43c-0.16,0-0.31-0.02-0.43-0.06c-0.12-0.04-0.22-0.09-0.3-0.16c-0.08-0.07-0.14-0.16-0.19-0.27
		c-0.05-0.11-0.08-0.23-0.1-0.35c-0.02-0.13-0.03-0.27-0.03-0.44v-2.43h0.65v2.5c0,0.09,0,0.16,0.01,0.22
		c0,0.06,0.01,0.12,0.03,0.19c0.01,0.07,0.04,0.12,0.06,0.16c0.03,0.04,0.06,0.07,0.11,0.1c0.05,0.03,0.11,0.04,0.17,0.04
		c0.07,0,0.13-0.01,0.17-0.04c0.05-0.03,0.08-0.06,0.11-0.1c0.03-0.04,0.05-0.09,0.06-0.16c0.02-0.07,0.03-0.13,0.03-0.19
		c0-0.06,0.01-0.13,0.01-0.22v-2.5h0.65v2.43c0,0.17-0.01,0.31-0.03,0.44c-0.02,0.13-0.05,0.24-0.1,0.35
		c-0.05,0.11-0.11,0.2-0.18,0.27c-0.08,0.07-0.18,0.12-0.3,0.16C19.86,14.41,19.72,14.43,19.56,14.43"/>
	<path class="st1" d="M20.97,14.39v-3.66h0.9c0.17,0,0.32,0.02,0.44,0.04c0.13,0.03,0.24,0.08,0.34,0.15
		c0.1,0.07,0.17,0.17,0.22,0.29c0.05,0.12,0.07,0.27,0.07,0.45c0,0.45-0.18,0.71-0.54,0.76c0.22,0.04,0.38,0.14,0.48,0.28
		c0.11,0.15,0.16,0.36,0.16,0.62c0,0.35-0.09,0.61-0.26,0.79c-0.18,0.18-0.43,0.27-0.77,0.27H20.97z M21.64,12.22h0.21
		c0.2,0,0.33-0.04,0.4-0.13c0.07-0.08,0.11-0.23,0.11-0.42c0-0.1-0.01-0.19-0.04-0.25c-0.02-0.06-0.07-0.11-0.12-0.14
		c-0.06-0.03-0.12-0.05-0.19-0.06c-0.07-0.01-0.16-0.02-0.28-0.02h-0.09V12.22z M21.64,13.92h0.25c0.2,0,0.34-0.05,0.41-0.14
		c0.08-0.09,0.11-0.25,0.11-0.46c0-0.22-0.04-0.38-0.13-0.48c-0.09-0.1-0.23-0.15-0.43-0.15h-0.21V13.92z"/>
	<polygon class="st1" points="23.34,14.39 23.4,10.72 24.09,10.72 24.62,13.3 25.16,10.72 25.83,10.72 25.9,14.39 25.39,14.39 
		25.35,11.87 24.82,14.39 24.43,14.39 23.89,11.86 23.85,14.39 	"/>
	<path class="st1" d="M26.11,14.39l0.74-3.66h0.7l0.74,3.66h-0.62l-0.15-0.85h-0.63l-0.15,0.85H26.11z M26.96,13.1h0.49l-0.25-1.51
		L26.96,13.1z"/>
	<path class="st1" d="M28.52,14.39v-3.66h0.84c0.19,0,0.36,0.02,0.5,0.05c0.14,0.03,0.26,0.08,0.36,0.16
		c0.1,0.07,0.18,0.18,0.23,0.3c0.05,0.13,0.08,0.28,0.08,0.47c0,0.23-0.03,0.42-0.1,0.56c-0.07,0.15-0.18,0.25-0.34,0.32l0.51,1.8
		h-0.67l-0.44-1.67h-0.3v1.67H28.52z M29.19,12.29h0.16c0.2,0,0.34-0.04,0.42-0.13c0.08-0.08,0.12-0.23,0.12-0.43
		c0-0.2-0.04-0.34-0.11-0.42c-0.07-0.09-0.2-0.13-0.4-0.13h-0.2V12.29z"/>
	<rect x="30.91" y="10.72" class="st1" width="0.66" height="3.66"/>
	<polygon class="st1" points="32,14.39 32,10.72 32.46,10.72 33.36,12.8 33.36,10.72 33.91,10.72 33.91,14.39 33.47,14.39 
		32.57,12.21 32.57,14.39 	"/>
	<path class="st1" d="M34.13,14.39l0.74-3.66h0.7l0.74,3.66H35.7l-0.15-0.85h-0.63l-0.15,0.85H34.13z M34.98,13.1h0.49l-0.25-1.51
		L34.98,13.1z"/>
	<path class="st1" d="M39.04,37.11c-0.64-0.86-4.74-6.09-10.5-6.09c-5,0-10.35,4.54-10.35,4.54s-2.01-4.11-6.12-4.51
		c-0.02,0-0.05-0.01-0.08-0.01h-0.03c-0.09,0-0.17,0.09-0.16,0.16c0.01,0.07,0.06,0.15,0.06,0.15c0.53,0.88,1.88,3.38,1.88,5.88
		c0,2.51-1.36,5.02-1.88,5.89l-0.04,0.06c-0.02,0.03-0.03,0.05-0.03,0.09c0,0.09,0.07,0.15,0.15,0.16l0.04,0c0.01,0,0.03,0,0.04,0
		c4.12-0.38,6.14-4.51,6.14-4.51s5.35,4.54,10.35,4.54c5.76,0,9.86-5.24,10.5-6.09c0.02-0.02,0.03-0.04,0.04-0.06
		c0.01-0.02,0.01-0.04,0.01-0.06c0-0.02-0.01-0.05-0.01-0.06C39.07,37.15,39.06,37.13,39.04,37.11 M31.74,37.9
		c-0.93,0-1.68-0.75-1.68-1.68c0-0.93,0.75-1.68,1.68-1.68c0.93,0,1.68,0.75,1.68,1.68C33.42,37.14,32.67,37.9,31.74,37.9"/>
	<path class="st1" d="M17.81,26.32c0.01-0.02,0.03-0.03,0.04-0.05c0.03-0.02,0.06-0.03,0.09-0.03c0.04,0,0.08,0.02,0.11,0.05
		c0,0,0.01,0.01,0.01,0.01c3.14,2.99,6.43,0.57,7.12,0l0.07-0.06c0.02-0.01,0.04-0.01,0.06-0.01c0.02,0,0.05,0,0.07,0.01l0.07,0.06
		c0.68,0.57,3.98,2.99,7.12,0c0,0,0,0,0.01-0.01c0.03-0.03,0.07-0.05,0.11-0.05c0.03,0,0.07,0.01,0.09,0.03
		c0.02,0.01,0.03,0.03,0.05,0.05c0.61,0.6,3.24,2.86,6.02,0.44c0.03-0.03,0.05-0.07,0.05-0.12V25.5c0-0.09-0.07-0.16-0.16-0.16
		c-0.01,0-0.02,0-0.04,0.01c-0.03,0.01-0.05,0.03-0.08,0.04c-0.85,0.43-3.51,1.44-5.91-0.83c-0.02-0.02-0.05-0.04-0.07-0.07
		c-0.02-0.01-0.04-0.02-0.07-0.02c-0.02,0-0.03,0-0.05,0.01c-0.04,0.01-0.06,0.03-0.08,0.06c-0.72,0.55-4.01,2.78-6.94,0.04
		l-0.04-0.04c-0.03-0.03-0.07-0.05-0.12-0.05c-0.04,0-0.09,0.02-0.11,0.05l-0.05,0.04c-2.93,2.74-6.23,0.51-6.94-0.04
		c-0.02-0.03-0.05-0.05-0.08-0.06c-0.02-0.01-0.04-0.01-0.05-0.01c-0.02,0-0.05,0-0.07,0.02c-0.02,0.02-0.05,0.04-0.07,0.07
		c-2.41,2.27-5.06,1.26-5.91,0.83c-0.03-0.01-0.06-0.03-0.08-0.04c-0.01,0-0.02-0.01-0.03-0.01c-0.09,0-0.17,0.07-0.17,0.16v1.15
		c0,0.05,0.02,0.09,0.05,0.12C14.57,29.19,17.2,26.92,17.81,26.32"/>
	<path class="st1" d="M11.94,21.18c-0.01,0-0.02-0.01-0.03-0.01c-0.09,0-0.17,0.07-0.17,0.17v1.15c0,0.05,0.02,0.09,0.05,0.12
		c2.78,2.42,5.41,0.15,6.02-0.45c0.01-0.02,0.03-0.04,0.04-0.05c0.03-0.02,0.06-0.03,0.09-0.03c0.04,0,0.08,0.02,0.11,0.04
		c0,0,0.01,0.01,0.01,0.01c3.14,3,6.43,0.57,7.12,0l0.07-0.06c0.02-0.01,0.04-0.01,0.06-0.01c0.02,0,0.05,0,0.07,0.01l0.07,0.06
		c0.69,0.57,3.98,3,7.12,0c0,0,0,0,0.01-0.01c0.03-0.03,0.07-0.04,0.11-0.04c0.03,0,0.07,0.01,0.09,0.03
		c0.02,0.01,0.03,0.03,0.05,0.05c0.61,0.6,3.24,2.86,6.02,0.45c0.03-0.03,0.05-0.07,0.05-0.12v-1.15c0-0.09-0.07-0.17-0.16-0.17
		c-0.01,0-0.02,0-0.04,0.01c-0.03,0.01-0.05,0.03-0.08,0.04c-0.85,0.43-3.51,1.45-5.91-0.83c-0.02-0.02-0.05-0.04-0.07-0.07
		c-0.02-0.01-0.04-0.02-0.07-0.02c-0.02,0-0.03,0.01-0.05,0.01c-0.04,0.01-0.06,0.04-0.08,0.06c-0.72,0.55-4.01,2.78-6.94,0.04
		l-0.04-0.04c-0.03-0.03-0.07-0.05-0.12-0.05c-0.04,0-0.09,0.02-0.11,0.05l-0.05,0.04c-2.93,2.74-6.23,0.51-6.94-0.04
		c-0.02-0.03-0.05-0.05-0.08-0.06c-0.02,0-0.03-0.01-0.05-0.01c-0.02,0-0.05,0.01-0.07,0.02c-0.02,0.02-0.05,0.05-0.07,0.07
		c-2.41,2.28-5.06,1.26-5.91,0.83C12,21.2,11.97,21.19,11.94,21.18"/>
</g>
</svg>
