<?xml version="1.0" encoding="utf-8"?>
<!-- Generator: Adobe Illustrator 26.5.0, SVG Export Plug-In . SVG Version: 6.00 Build 0)  -->
<svg version="1.1" id="Capa_1" xmlns="http://www.w3.org/2000/svg" xmlns:xlink="http://www.w3.org/1999/xlink" x="0px" y="0px"
	 viewBox="0 0 51.02 51.02" style="enable-background:new 0 0 51.02 51.02;" xml:space="preserve">
<style type="text/css">
	.st0{fill:#E5273C;}
	.st1{fill:#FFFFFF;}
	.st2{fill:none;stroke:#FFFFFF;stroke-width:0.5952;stroke-linecap:round;stroke-miterlimit:10;}
	.st3{fill:#FCC30C;}
	.st4{fill:#A31B43;}
	.st5{fill:#F59C2D;}
	.st6{fill:#ED692F;}
	.st7{fill:#DDA73A;}
	.st8{fill:#4E9F38;}
	.st9{fill:#C51D2E;}
	.st10{fill:#E8422F;}
	.st11{fill:#2EBCE1;}
	.st12{fill:#DE1868;}
	.st13{fill:#BE8B30;}
	.st14{fill:#61B235;}
	.st15{fill:#02699F;}
	.st16{fill:#1896D4;}
	.st17{fill:#3F7F45;}
	.st18{fill:#1A496A;}
</style>
<g>
	<rect x="0.37" y="0.42" class="st8" width="50.29" height="50.18"/>
	<path class="st1" d="M4.96,13.68c-0.4-0.51-0.6-1.22-0.6-2.14v-0.33h1.82v0.32c0.01,0.49,0.07,0.84,0.18,1.05
		c0.11,0.21,0.31,0.32,0.6,0.32c0.29,0,0.49-0.11,0.59-0.33c0.1-0.22,0.15-0.57,0.15-1.06c0-0.51-0.08-0.89-0.22-1.14
		C7.32,10.12,7.04,10,6.64,9.99C6.61,9.98,6.5,9.98,6.31,9.98V8.64h0.3c0.41,0,0.69-0.11,0.85-0.33c0.16-0.22,0.24-0.58,0.24-1.09
		c0-0.41-0.06-0.71-0.17-0.91c-0.11-0.2-0.32-0.3-0.61-0.3c-0.28,0-0.47,0.11-0.57,0.32c-0.1,0.21-0.16,0.53-0.17,0.95V7.7H4.35
		V7.18c0-0.84,0.22-1.48,0.67-1.94C5.47,4.78,6.1,4.55,6.91,4.55c0.83,0,1.47,0.22,1.92,0.66C9.28,5.66,9.5,6.29,9.5,7.12
		c0,0.55-0.11,1.02-0.34,1.39c-0.23,0.37-0.52,0.61-0.88,0.7c0.81,0.3,1.22,1.05,1.22,2.26c0,0.92-0.21,1.65-0.62,2.17
		c-0.41,0.53-1.06,0.79-1.95,0.79C6.02,14.44,5.36,14.19,4.96,13.68"/>
	<path class="st1" d="M14.52,8.39c-0.65,0-0.98-0.37-1.02-1.12l0.58-0.12c0.01,0.48,0.15,0.73,0.42,0.73c0.1,0,0.18-0.03,0.23-0.09
		s0.07-0.15,0.07-0.25c0-0.1-0.02-0.19-0.06-0.28c-0.04-0.08-0.08-0.15-0.13-0.21c-0.05-0.05-0.12-0.12-0.21-0.2l-0.48-0.42
		c-0.14-0.12-0.25-0.25-0.32-0.39c-0.07-0.13-0.1-0.3-0.1-0.5c0-0.28,0.08-0.51,0.25-0.66c0.17-0.16,0.4-0.24,0.69-0.24
		c0.13,0,0.25,0.01,0.36,0.05c0.1,0.03,0.19,0.08,0.26,0.14c0.07,0.06,0.12,0.13,0.17,0.22c0.04,0.09,0.08,0.18,0.1,0.27
		c0.02,0.09,0.04,0.2,0.05,0.31l-0.57,0.11c0-0.07-0.01-0.14-0.01-0.19c-0.01-0.05-0.02-0.11-0.03-0.17
		c-0.02-0.06-0.04-0.1-0.06-0.14c-0.03-0.03-0.06-0.06-0.1-0.08c-0.04-0.02-0.09-0.03-0.15-0.02c-0.1,0.01-0.17,0.04-0.23,0.1
		c-0.05,0.06-0.08,0.14-0.08,0.24c0,0.12,0.02,0.22,0.07,0.29c0.05,0.08,0.12,0.16,0.22,0.24l0.48,0.42
		c0.08,0.07,0.15,0.14,0.21,0.21c0.06,0.07,0.12,0.15,0.17,0.23c0.05,0.09,0.1,0.18,0.12,0.29c0.03,0.1,0.04,0.22,0.04,0.33
		c0,0.27-0.08,0.48-0.25,0.65C15.02,8.31,14.8,8.39,14.52,8.39"/>
	<path class="st1" d="M15.62,8.34l0.74-3.66h0.7l0.74,3.66h-0.62l-0.15-0.85H16.4l-0.15,0.85H15.62z M16.47,7.06h0.49l-0.25-1.51
		L16.47,7.06z"/>
	<polygon class="st1" points="18.14,8.34 18.14,4.68 18.81,4.68 18.81,7.88 19.69,7.88 19.69,8.34 	"/>
	<path class="st1" d="M21.02,8.39c-0.16,0-0.31-0.02-0.43-0.06c-0.12-0.04-0.22-0.09-0.3-0.16c-0.08-0.07-0.14-0.16-0.19-0.27
		c-0.05-0.11-0.08-0.23-0.1-0.35C20,7.43,19.99,7.28,19.99,7.11V4.68h0.65v2.5c0,0.09,0,0.16,0.01,0.22c0,0.06,0.01,0.12,0.03,0.19
		c0.01,0.07,0.04,0.12,0.06,0.16c0.03,0.04,0.06,0.07,0.11,0.1c0.05,0.03,0.11,0.04,0.17,0.04c0.07,0,0.13-0.01,0.17-0.04
		c0.05-0.03,0.08-0.06,0.11-0.1c0.03-0.04,0.05-0.09,0.06-0.16c0.02-0.07,0.03-0.13,0.03-0.19c0-0.06,0.01-0.13,0.01-0.22v-2.5h0.65
		v2.43c0,0.17-0.01,0.31-0.03,0.44C22,7.68,21.97,7.79,21.92,7.9c-0.05,0.11-0.11,0.2-0.18,0.27c-0.08,0.07-0.18,0.12-0.3,0.16
		S21.18,8.39,21.02,8.39"/>
	<path class="st1" d="M22.54,8.34V4.68h0.85c0.22,0,0.41,0.02,0.56,0.07c0.15,0.04,0.27,0.11,0.36,0.21
		c0.09,0.1,0.15,0.21,0.19,0.35c0.04,0.14,0.06,0.31,0.06,0.51v1.32c0,0.21-0.02,0.39-0.06,0.53c-0.04,0.15-0.1,0.27-0.19,0.37
		c-0.09,0.1-0.2,0.18-0.35,0.22c-0.15,0.05-0.33,0.07-0.54,0.07H22.54z M23.21,7.88h0.19c0.07,0,0.12-0.01,0.17-0.02
		c0.05-0.01,0.09-0.03,0.13-0.04c0.03-0.02,0.06-0.04,0.08-0.08c0.02-0.04,0.04-0.07,0.05-0.1c0.01-0.03,0.02-0.08,0.03-0.14
		c0.01-0.06,0.01-0.12,0.01-0.16c0-0.04,0-0.11,0-0.2V5.8c0-0.09,0-0.16,0-0.21c0-0.05-0.01-0.11-0.02-0.16
		c-0.01-0.05-0.03-0.1-0.05-0.12c-0.02-0.03-0.05-0.06-0.08-0.08c-0.04-0.02-0.08-0.04-0.13-0.05c-0.05-0.01-0.12-0.01-0.19-0.01
		h-0.18V7.88z"/>
	<polygon class="st1" points="14.11,14.33 14.11,12.94 13.37,10.67 13.99,10.67 14.44,12.13 14.88,10.67 15.49,10.67 14.75,12.94 
		14.75,14.33 	"/>
	<path class="st1" d="M16.87,14.33v-3.66h0.9c0.17,0,0.32,0.02,0.44,0.04c0.13,0.03,0.24,0.08,0.34,0.15
		c0.1,0.07,0.17,0.17,0.22,0.29c0.05,0.12,0.07,0.27,0.07,0.45c0,0.45-0.18,0.71-0.54,0.76c0.22,0.04,0.38,0.14,0.48,0.28
		c0.11,0.15,0.16,0.36,0.16,0.62c0,0.35-0.09,0.61-0.26,0.79c-0.18,0.18-0.43,0.27-0.77,0.27H16.87z M17.54,12.16h0.21
		c0.2,0,0.33-0.04,0.4-0.13c0.07-0.08,0.11-0.23,0.11-0.42c0-0.1-0.01-0.19-0.04-0.25c-0.02-0.06-0.07-0.11-0.12-0.14
		c-0.06-0.03-0.12-0.05-0.19-0.06c-0.07-0.01-0.16-0.02-0.28-0.02h-0.09V12.16z M17.54,13.86h0.25c0.2,0,0.34-0.05,0.41-0.14
		c0.08-0.09,0.11-0.25,0.11-0.46c0-0.22-0.04-0.38-0.13-0.48c-0.09-0.1-0.23-0.15-0.43-0.15h-0.21V13.86z"/>
	<rect x="19.38" y="10.67" class="st1" width="0.66" height="3.66"/>
	<polygon class="st1" points="20.58,14.33 20.58,10.67 22.12,10.67 22.12,11.14 21.25,11.14 21.25,12.19 21.93,12.19 21.93,12.66 
		21.25,12.66 21.25,13.87 22.13,13.87 22.13,14.33 	"/>
	<polygon class="st1" points="22.49,14.33 22.49,10.67 22.95,10.67 23.85,12.74 23.85,10.67 24.4,10.67 24.4,14.33 23.96,14.33 
		23.05,12.15 23.05,14.33 	"/>
	<polygon class="st1" points="24.92,14.33 24.92,10.67 26.46,10.67 26.46,11.14 25.59,11.14 25.59,12.19 26.28,12.19 26.28,12.66 
		25.59,12.66 25.59,13.87 26.47,13.87 26.47,14.33 	"/>
	<path class="st1" d="M27.75,14.38c-0.65,0-0.98-0.37-1.02-1.12l0.58-0.12c0.01,0.48,0.15,0.73,0.42,0.73c0.1,0,0.18-0.03,0.23-0.09
		c0.05-0.06,0.07-0.15,0.07-0.25c0-0.1-0.02-0.2-0.06-0.28c-0.04-0.08-0.08-0.15-0.13-0.21c-0.05-0.05-0.12-0.12-0.21-0.2
		l-0.48-0.42c-0.14-0.12-0.25-0.25-0.32-0.39c-0.07-0.13-0.1-0.3-0.1-0.5c0-0.28,0.08-0.5,0.25-0.66c0.17-0.16,0.4-0.24,0.69-0.24
		c0.13,0,0.25,0.01,0.36,0.05c0.1,0.03,0.19,0.08,0.26,0.14c0.07,0.06,0.12,0.13,0.17,0.22c0.04,0.09,0.08,0.18,0.1,0.27
		c0.02,0.09,0.04,0.2,0.05,0.31l-0.57,0.11c0-0.07-0.01-0.14-0.01-0.19c-0.01-0.05-0.02-0.11-0.03-0.17
		c-0.02-0.06-0.04-0.1-0.06-0.14c-0.03-0.04-0.06-0.06-0.1-0.08c-0.04-0.02-0.09-0.03-0.15-0.02c-0.1,0.01-0.17,0.04-0.23,0.1
		c-0.05,0.06-0.08,0.14-0.08,0.24c0,0.12,0.02,0.22,0.07,0.29c0.05,0.08,0.12,0.16,0.22,0.24l0.48,0.42
		c0.08,0.07,0.15,0.14,0.21,0.21c0.06,0.07,0.12,0.15,0.17,0.23c0.05,0.09,0.1,0.18,0.12,0.29c0.03,0.1,0.04,0.22,0.04,0.33
		c0,0.27-0.08,0.48-0.25,0.65C28.25,14.29,28.03,14.38,27.75,14.38"/>
	<polygon class="st1" points="29.4,14.33 29.4,11.16 28.78,11.16 28.78,10.67 30.66,10.67 30.66,11.16 30.07,11.16 30.07,14.33 	"/>
	<path class="st1" d="M30.72,14.33l0.74-3.66h0.7l0.74,3.66h-0.62l-0.15-0.85H31.5l-0.15,0.85H30.72z M31.57,13.05h0.49l-0.25-1.51
		L31.57,13.05z"/>
	<path class="st1" d="M33.24,14.33v-3.66h0.84c0.19,0,0.36,0.02,0.5,0.05c0.14,0.03,0.26,0.08,0.36,0.16
		c0.1,0.07,0.18,0.18,0.23,0.3c0.05,0.13,0.08,0.28,0.08,0.47c0,0.23-0.03,0.42-0.1,0.56c-0.07,0.15-0.18,0.25-0.34,0.32l0.51,1.81
		h-0.67l-0.44-1.67h-0.3v1.67H33.24z M33.91,12.23h0.16c0.2,0,0.34-0.04,0.42-0.13c0.08-0.08,0.12-0.23,0.12-0.43
		c0-0.2-0.04-0.34-0.11-0.42c-0.07-0.09-0.2-0.13-0.4-0.13h-0.2V12.23z"/>
	<path class="st1" d="M42.48,31.77c0-1.42-0.91-2.57-2.29-2.57c-0.69,0-1.52,0.76-1.98,1.22c-0.45-0.47-1.23-1.22-1.92-1.22
		c-1.38,0-2.35,1.15-2.35,2.57c0,0.71,0.28,1.35,0.73,1.82l3.54,3.55l3.54-3.54l0,0C42.2,33.12,42.48,32.48,42.48,31.77"/>
	<path class="st1" d="M27.4,42.93c-0.01,0-0.02,0-0.04,0c-0.27-0.02-0.49-0.22-0.54-0.48l-1.8-10.48l-2.73,5.05
		c-0.12,0.22-0.37,0.34-0.61,0.3c-0.25-0.04-0.44-0.24-0.47-0.49l-1.16-8.09l-2.12,4.75c-0.09,0.21-0.3,0.34-0.53,0.34H9.19
		c-0.32,0-0.58-0.26-0.58-0.58s0.26-0.58,0.58-0.58h7.85l2.78-6.25c0.11-0.24,0.35-0.37,0.61-0.34c0.26,0.04,0.46,0.24,0.5,0.49
		l1.19,8.34l2.69-4.98c0.12-0.22,0.36-0.34,0.61-0.3c0.24,0.04,0.44,0.23,0.48,0.48l1.67,9.7l6.07-20.17
		c0.07-0.23,0.27-0.39,0.51-0.41c0.24-0.02,0.47,0.11,0.57,0.33l3.19,6.62c0.14,0.29,0.02,0.64-0.27,0.78
		c-0.29,0.14-0.64,0.02-0.78-0.27l-2.54-5.28l-6.35,21.1C27.89,42.76,27.66,42.93,27.4,42.93"/>
</g>
</svg>
