<?xml version="1.0" encoding="utf-8"?>
<!-- Generator: Adobe Illustrator 26.5.0, SVG Export Plug-In . SVG Version: 6.00 Build 0)  -->
<svg version="1.1" id="Capa_1" xmlns="http://www.w3.org/2000/svg" xmlns:xlink="http://www.w3.org/1999/xlink" x="0px" y="0px"
	 viewBox="0 0 51.02 51.02" style="enable-background:new 0 0 51.02 51.02;" xml:space="preserve">
<style type="text/css">
	.st0{fill:#E5273C;}
	.st1{fill:#FFFFFF;}
	.st2{fill:none;stroke:#FFFFFF;stroke-width:0.5952;stroke-linecap:round;stroke-miterlimit:10;}
	.st3{fill:#FCC30C;}
	.st4{fill:#A31B43;}
	.st5{fill:#F59C2D;}
	.st6{fill:#ED692F;}
	.st7{fill:#DDA73A;}
	.st8{fill:#4E9F38;}
	.st9{fill:#C51D2E;}
	.st10{fill:#E8422F;}
	.st11{fill:#2EBCE1;}
	.st12{fill:#DE1868;}
	.st13{fill:#BE8B30;}
	.st14{fill:#61B235;}
	.st15{fill:#02699F;}
	.st16{fill:#1896D4;}
	.st17{fill:#3F7F45;}
	.st18{fill:#1A496A;}
</style>
<g>
	<rect x="0.37" y="0.42" class="st10" width="50.29" height="50.18"/>
	<path class="st1" d="M5.41,14.08c-0.36-0.23-0.61-0.56-0.75-0.99c-0.13-0.43-0.2-0.96-0.2-1.6h1.78c0,0.55,0.05,0.95,0.15,1.2
		c0.1,0.25,0.3,0.37,0.6,0.37c0.24,0,0.41-0.08,0.52-0.24c0.11-0.16,0.18-0.37,0.21-0.65c0.03-0.27,0.04-0.67,0.04-1.18
		c0-0.58-0.05-1.02-0.16-1.31C7.49,9.41,7.28,9.27,6.94,9.27c-0.43,0-0.7,0.29-0.82,0.86H4.55l0.13-5.45H9.1v1.57H6.19L6.08,8.38
		c0.11-0.13,0.3-0.25,0.57-0.34C6.92,7.95,7.2,7.9,7.51,7.9c0.65,0,1.15,0.26,1.48,0.79c0.33,0.53,0.5,1.27,0.5,2.23
		c0,0.76-0.07,1.39-0.2,1.89c-0.13,0.5-0.39,0.9-0.76,1.18c-0.38,0.29-0.91,0.43-1.6,0.43C6.27,14.43,5.77,14.31,5.41,14.08"/>
	<rect x="13.62" y="4.68" class="st1" width="0.66" height="3.66"/>
	<path class="st1" d="M15.74,8.39c-0.35,0-0.6-0.11-0.75-0.32c-0.15-0.22-0.23-0.53-0.23-0.95V5.93c0-0.21,0.02-0.39,0.05-0.55
		c0.03-0.15,0.09-0.29,0.17-0.4c0.08-0.12,0.19-0.2,0.32-0.26c0.14-0.06,0.31-0.09,0.5-0.09c0.36,0,0.62,0.09,0.78,0.27
		c0.16,0.18,0.24,0.45,0.24,0.81v0.18h-0.64V5.7c0-0.08,0-0.15-0.01-0.2c0-0.05-0.01-0.1-0.03-0.16c-0.01-0.05-0.03-0.09-0.06-0.12
		c-0.03-0.03-0.06-0.05-0.11-0.07c-0.05-0.02-0.1-0.03-0.17-0.03c-0.05,0-0.09,0.01-0.13,0.02c-0.04,0.01-0.07,0.03-0.1,0.05
		c-0.03,0.02-0.05,0.04-0.07,0.08c-0.02,0.03-0.03,0.07-0.04,0.1c-0.01,0.03-0.02,0.07-0.02,0.12c-0.01,0.05-0.01,0.09-0.01,0.13
		c0,0.04,0,0.09,0,0.15v1.48c0,0.22,0.03,0.38,0.08,0.49c0.05,0.1,0.16,0.15,0.31,0.15c0.08,0,0.15-0.01,0.2-0.04
		c0.05-0.03,0.1-0.08,0.13-0.14c0.03-0.06,0.05-0.13,0.06-0.21c0.01-0.08,0.02-0.17,0.02-0.29v-0.3h-0.4V6.48h1v1.86h-0.43
		l-0.05-0.37C16.25,8.25,16.04,8.39,15.74,8.39"/>
	<path class="st1" d="M18.32,8.39c-0.16,0-0.31-0.02-0.43-0.06c-0.12-0.04-0.22-0.09-0.3-0.16c-0.08-0.07-0.14-0.16-0.19-0.27
		c-0.05-0.11-0.08-0.23-0.1-0.35c-0.02-0.13-0.03-0.27-0.03-0.44V4.68h0.65v2.5c0,0.09,0,0.16,0.01,0.22c0,0.06,0.01,0.12,0.03,0.19
		c0.01,0.07,0.04,0.12,0.06,0.16c0.03,0.04,0.06,0.07,0.11,0.1c0.05,0.03,0.11,0.04,0.17,0.04c0.07,0,0.13-0.01,0.17-0.04
		c0.05-0.03,0.08-0.06,0.11-0.1c0.03-0.04,0.05-0.09,0.06-0.16c0.02-0.07,0.03-0.13,0.03-0.19c0-0.06,0.01-0.13,0.01-0.22v-2.5h0.65
		v2.43c0,0.17-0.01,0.31-0.03,0.44c-0.02,0.13-0.05,0.24-0.1,0.35c-0.05,0.11-0.11,0.2-0.18,0.27c-0.08,0.07-0.18,0.12-0.29,0.16
		C18.63,8.37,18.49,8.39,18.32,8.39"/>
	<path class="st1" d="M19.66,8.34l0.74-3.66h0.7l0.74,3.66h-0.62l-0.15-0.85h-0.63l-0.15,0.85H19.66z M20.51,7.06H21l-0.24-1.51
		L20.51,7.06z"/>
	<polygon class="st1" points="22.18,8.34 22.18,4.68 22.85,4.68 22.85,7.88 23.72,7.88 23.72,8.34 	"/>
	<path class="st1" d="M24.05,8.34V4.68h0.85c0.22,0,0.41,0.02,0.56,0.07c0.15,0.04,0.27,0.11,0.36,0.21
		c0.09,0.1,0.15,0.21,0.19,0.35c0.04,0.14,0.06,0.31,0.06,0.51v1.32c0,0.21-0.02,0.39-0.06,0.53c-0.04,0.15-0.1,0.27-0.19,0.37
		c-0.09,0.1-0.2,0.18-0.35,0.22c-0.15,0.05-0.32,0.07-0.54,0.07H24.05z M24.72,7.88h0.19c0.07,0,0.12-0.01,0.17-0.02
		c0.05-0.01,0.09-0.03,0.13-0.04c0.03-0.02,0.06-0.04,0.09-0.08c0.02-0.04,0.04-0.07,0.05-0.1c0.01-0.03,0.02-0.08,0.03-0.14
		c0.01-0.06,0.01-0.12,0.01-0.16c0-0.04,0-0.11,0-0.2V5.8c0-0.09,0-0.16,0-0.21c0-0.05-0.01-0.11-0.02-0.16
		c-0.01-0.05-0.03-0.1-0.05-0.12c-0.02-0.03-0.05-0.06-0.09-0.08C25.2,5.2,25.15,5.18,25.1,5.17c-0.05-0.01-0.12-0.01-0.19-0.01
		h-0.18V7.88z"/>
	<path class="st1" d="M26.3,8.34l0.74-3.66h0.7l0.74,3.66h-0.62l-0.15-0.85h-0.63l-0.15,0.85H26.3z M27.15,7.06h0.49l-0.25-1.51
		L27.15,7.06z"/>
	<path class="st1" d="M28.82,8.34V4.68h0.85c0.22,0,0.41,0.02,0.55,0.07c0.15,0.04,0.27,0.11,0.36,0.21
		c0.09,0.1,0.15,0.21,0.19,0.35c0.04,0.14,0.06,0.31,0.06,0.51v1.32c0,0.21-0.02,0.39-0.06,0.53c-0.04,0.15-0.1,0.27-0.19,0.37
		c-0.09,0.1-0.2,0.18-0.35,0.22c-0.15,0.05-0.32,0.07-0.54,0.07H28.82z M29.48,7.88h0.19c0.07,0,0.12-0.01,0.17-0.02
		c0.05-0.01,0.09-0.03,0.13-0.04c0.03-0.02,0.06-0.04,0.09-0.08c0.02-0.04,0.04-0.07,0.05-0.1c0.01-0.03,0.02-0.08,0.03-0.14
		c0.01-0.06,0.01-0.12,0.01-0.16c0-0.04,0-0.11,0-0.2V5.8c0-0.09,0-0.16,0-0.21c0-0.05-0.01-0.11-0.02-0.16
		c-0.01-0.05-0.03-0.1-0.05-0.12c-0.02-0.03-0.05-0.06-0.09-0.08c-0.04-0.02-0.08-0.04-0.13-0.05c-0.05-0.01-0.12-0.01-0.19-0.01
		h-0.18V7.88z"/>
	<path class="st1" d="M13.6,14.33v-3.66h0.85c0.22,0,0.41,0.02,0.56,0.07c0.15,0.04,0.27,0.11,0.36,0.21
		c0.09,0.1,0.15,0.21,0.19,0.35s0.06,0.31,0.06,0.51v1.32c0,0.21-0.02,0.39-0.06,0.53c-0.04,0.15-0.1,0.27-0.19,0.37
		c-0.09,0.1-0.2,0.18-0.35,0.22c-0.15,0.05-0.32,0.07-0.54,0.07H13.6z M14.27,13.86h0.19c0.07,0,0.12-0.01,0.17-0.02
		c0.05-0.01,0.09-0.03,0.13-0.04c0.03-0.02,0.06-0.04,0.09-0.08c0.02-0.04,0.04-0.07,0.05-0.1c0.01-0.03,0.02-0.08,0.03-0.14
		c0.01-0.06,0.01-0.12,0.01-0.16c0-0.04,0-0.11,0-0.2v-1.34c0-0.09,0-0.16,0-0.21c0-0.05-0.01-0.11-0.02-0.16
		c-0.01-0.05-0.03-0.1-0.05-0.12c-0.02-0.03-0.05-0.06-0.08-0.08c-0.04-0.02-0.08-0.04-0.13-0.05c-0.05-0.01-0.12-0.01-0.19-0.01
		h-0.18V13.86z"/>
	<polygon class="st1" points="16.08,14.33 16.08,10.67 17.61,10.67 17.61,11.14 16.75,11.14 16.75,12.19 17.43,12.19 17.43,12.66 
		16.75,12.66 16.75,13.87 17.63,13.87 17.63,14.33 	"/>
	<path class="st1" d="M19.99,14.38c-0.35,0-0.6-0.11-0.75-0.32c-0.15-0.22-0.23-0.53-0.23-0.95v-1.19c0-0.21,0.02-0.39,0.05-0.55
		c0.03-0.15,0.09-0.29,0.17-0.4c0.08-0.11,0.19-0.2,0.32-0.26c0.14-0.06,0.31-0.09,0.5-0.09c0.36,0,0.62,0.09,0.78,0.27
		c0.16,0.18,0.24,0.45,0.24,0.81v0.18h-0.64v-0.19c0-0.08,0-0.15-0.01-0.2c0-0.05-0.01-0.1-0.03-0.16
		c-0.01-0.05-0.03-0.09-0.06-0.12c-0.03-0.03-0.06-0.05-0.11-0.07c-0.05-0.02-0.1-0.03-0.17-0.03c-0.05,0-0.09,0.01-0.13,0.02
		c-0.04,0.01-0.07,0.03-0.1,0.05c-0.03,0.02-0.05,0.04-0.07,0.08c-0.02,0.03-0.03,0.07-0.04,0.1c-0.01,0.03-0.02,0.07-0.02,0.12
		c-0.01,0.05-0.01,0.09-0.01,0.13c0,0.04,0,0.09,0,0.15v1.48c0,0.22,0.03,0.38,0.08,0.49c0.05,0.1,0.16,0.15,0.31,0.15
		c0.08,0,0.15-0.01,0.2-0.04c0.05-0.03,0.1-0.08,0.13-0.14c0.03-0.06,0.05-0.13,0.06-0.21c0.01-0.08,0.02-0.17,0.02-0.29v-0.3h-0.4
		v-0.43h1v1.86h-0.43l-0.05-0.37C20.5,14.24,20.29,14.38,19.99,14.38"/>
	<path class="st1" d="M21.57,14.33v-3.66h1.53v0.47h-0.87v1.05h0.69v0.47h-0.69v1.21h0.88v0.46H21.57z M22.17,10.36l0.27-0.9h0.63
		l-0.54,0.9H22.17z"/>
	<polygon class="st1" points="23.48,14.33 23.48,10.67 23.94,10.67 24.84,12.74 24.84,10.67 25.39,10.67 25.39,14.33 24.95,14.33 
		24.04,12.15 24.04,14.33 	"/>
	<polygon class="st1" points="25.91,14.33 25.91,10.67 27.45,10.67 27.45,11.14 26.58,11.14 26.58,12.19 27.27,12.19 27.27,12.66 
		26.58,12.66 26.58,13.87 27.46,13.87 27.46,14.33 	"/>
	<path class="st1" d="M27.82,14.33v-3.66h0.84c0.19,0,0.36,0.02,0.5,0.05c0.14,0.03,0.26,0.08,0.36,0.16
		c0.1,0.07,0.18,0.18,0.23,0.3c0.05,0.13,0.08,0.28,0.08,0.47c0,0.23-0.03,0.42-0.1,0.56c-0.07,0.15-0.18,0.25-0.34,0.32l0.51,1.81
		h-0.67l-0.44-1.67h-0.3v1.67H27.82z M28.49,12.23h0.16c0.2,0,0.34-0.04,0.42-0.13c0.08-0.08,0.12-0.23,0.12-0.43
		c0-0.2-0.04-0.34-0.11-0.42c-0.07-0.09-0.2-0.13-0.4-0.13h-0.2V12.23z"/>
	<path class="st1" d="M31.31,14.38c-0.38,0-0.65-0.1-0.81-0.31c-0.16-0.2-0.25-0.5-0.25-0.9v-1.35c0-0.19,0.02-0.36,0.06-0.51
		c0.04-0.14,0.1-0.27,0.18-0.37c0.08-0.1,0.19-0.18,0.33-0.24c0.14-0.05,0.3-0.08,0.5-0.08c0.38,0,0.65,0.1,0.81,0.3
		c0.16,0.2,0.25,0.5,0.25,0.89v1.35c0,0.19-0.02,0.36-0.06,0.5c-0.04,0.15-0.1,0.27-0.18,0.38c-0.08,0.11-0.19,0.19-0.33,0.24
		C31.66,14.35,31.5,14.38,31.31,14.38 M31.14,13.85c0.05,0.02,0.1,0.03,0.17,0.03s0.12-0.01,0.17-0.03
		c0.05-0.02,0.08-0.04,0.11-0.08c0.03-0.03,0.05-0.07,0.06-0.12c0.02-0.05,0.03-0.1,0.03-0.15c0-0.05,0.01-0.11,0.01-0.18v-1.66
		c0-0.09,0-0.16-0.01-0.22c-0.01-0.06-0.03-0.11-0.05-0.17c-0.03-0.05-0.06-0.09-0.12-0.12c-0.05-0.03-0.12-0.04-0.2-0.04
		c-0.08,0-0.15,0.01-0.2,0.04c-0.05,0.03-0.09,0.06-0.12,0.12c-0.03,0.05-0.04,0.11-0.05,0.17c-0.01,0.06-0.01,0.13-0.01,0.22v1.66
		c0,0.07,0,0.13,0.01,0.18c0.01,0.05,0.02,0.1,0.03,0.15c0.02,0.05,0.04,0.09,0.06,0.12C31.06,13.81,31.09,13.83,31.14,13.85"/>
	<path class="st1" d="M37.05,19.31h-6.28c-0.04,0-0.08,0.04-0.08,0.08v2.09c0,0.04,0.04,0.08,0.08,0.08h2.5l-2.78,2.78
		c-1.4-1.1-3.16-1.76-5.07-1.76c-4.53,0-8.22,3.69-8.22,8.22c0,4.17,3.13,7.63,7.16,8.15v2.4h-2.48c-0.05,0-0.08,0.04-0.08,0.08
		v2.24c0,0.04,0.03,0.08,0.08,0.08h2.48v2.37c0,0.04,0.04,0.08,0.08,0.08h2.24c0.04,0,0.08-0.04,0.08-0.08v-2.37h2.48
		c0.04,0,0.08-0.04,0.08-0.08v-2.24c0-0.04-0.04-0.08-0.08-0.08h-2.48v-2.44c3.9-0.64,6.89-4.03,6.89-8.11
		c0-1.76-0.56-3.39-1.5-4.73l2.74-2.74v2.34c0,0.04,0.04,0.08,0.08,0.08h2.09c0.04,0,0.08-0.04,0.08-0.08v-6.28
		C37.13,19.35,37.09,19.31,37.05,19.31 M25.42,36.86c-3.34,0-6.05-2.72-6.05-6.05c0-3.34,2.71-6.05,6.05-6.05
		c3.34,0,6.05,2.72,6.05,6.05C31.48,34.14,28.76,36.86,25.42,36.86"/>
	<path class="st1" d="M29.12,28.32h-7.34c-0.04,0-0.08,0.03-0.08,0.07v1.78c0,0.04,0.04,0.07,0.08,0.07h7.34
		c0.05,0,0.08-0.03,0.08-0.07v-1.78C29.2,28.35,29.17,28.32,29.12,28.32"/>
	<path class="st1" d="M29.12,31.49h-7.34c-0.04,0-0.08,0.03-0.08,0.07v1.78c0,0.04,0.04,0.07,0.08,0.07h7.34
		c0.05,0,0.08-0.03,0.08-0.07v-1.78C29.2,31.52,29.17,31.49,29.12,31.49"/>
</g>
</svg>
