<?xml version="1.0" encoding="utf-8"?>
<!-- Generator: Adobe Illustrator 26.5.0, SVG Export Plug-In . SVG Version: 6.00 Build 0)  -->
<svg version="1.1" id="Capa_1" xmlns="http://www.w3.org/2000/svg" xmlns:xlink="http://www.w3.org/1999/xlink" x="0px" y="0px"
	 viewBox="0 0 51.02 51.02" style="enable-background:new 0 0 51.02 51.02;" xml:space="preserve">
<style type="text/css">
	.st0{fill:#E5273C;}
	.st1{fill:#FFFFFF;}
	.st2{fill:none;stroke:#FFFFFF;stroke-width:0.5952;stroke-linecap:round;stroke-miterlimit:10;}
	.st3{fill:#FCC30C;}
	.st4{fill:#A31B43;}
	.st5{fill:#F59C2D;}
	.st6{fill:#ED692F;}
	.st7{fill:#DDA73A;}
	.st8{fill:#4E9F38;}
	.st9{fill:#C51D2E;}
	.st10{fill:#E8422F;}
	.st11{fill:#2EBCE1;}
	.st12{fill:#DE1868;}
	.st13{fill:#BE8B30;}
	.st14{fill:#61B235;}
	.st15{fill:#02699F;}
	.st16{fill:#1896D4;}
	.st17{fill:#3F7F45;}
	.st18{fill:#1A496A;}
</style>
<g>
	<rect x="0.37" y="0.42" class="st9" width="50.29" height="50.18"/>
	<path class="st1" d="M7.1,12H4.21v-1.44l2.5-5.87h2.05v5.93h0.96V12H8.76v2.27H7.1V12z M7.1,10.62V6.54l-1.46,4.07H7.1z"/>
	<polygon class="st1" points="13.6,8.34 13.6,4.68 15.13,4.68 15.13,5.15 14.27,5.15 14.27,6.2 14.95,6.2 14.95,6.67 14.27,6.67 
		14.27,7.88 15.14,7.88 15.14,8.34 	"/>
	<path class="st1" d="M15.56,8.34V4.68h0.85c0.22,0,0.41,0.02,0.56,0.07c0.15,0.04,0.27,0.11,0.36,0.21
		c0.09,0.1,0.15,0.21,0.19,0.35c0.04,0.14,0.06,0.31,0.06,0.51v1.32c0,0.21-0.02,0.39-0.06,0.53c-0.04,0.15-0.1,0.27-0.19,0.37
		c-0.09,0.1-0.2,0.18-0.35,0.22c-0.15,0.05-0.32,0.07-0.54,0.07H15.56z M16.23,7.88h0.19c0.07,0,0.12-0.01,0.17-0.02
		c0.05-0.01,0.09-0.03,0.13-0.04c0.03-0.02,0.06-0.04,0.09-0.08c0.02-0.04,0.04-0.07,0.05-0.1c0.01-0.03,0.02-0.08,0.03-0.14
		c0.01-0.06,0.01-0.12,0.01-0.16c0-0.04,0-0.11,0-0.2V5.8c0-0.09,0-0.16,0-0.21c0-0.05-0.01-0.11-0.02-0.16
		c-0.01-0.05-0.03-0.1-0.05-0.12c-0.02-0.03-0.05-0.06-0.08-0.08C16.7,5.2,16.66,5.18,16.6,5.17c-0.05-0.01-0.12-0.01-0.19-0.01
		h-0.18V7.88z"/>
	<path class="st1" d="M19.1,8.39c-0.16,0-0.31-0.02-0.43-0.06c-0.12-0.04-0.22-0.09-0.3-0.16C18.3,8.1,18.24,8.01,18.19,7.9
		c-0.05-0.11-0.08-0.23-0.1-0.35c-0.02-0.13-0.03-0.27-0.03-0.44V4.68h0.65v2.5c0,0.09,0,0.16,0.01,0.22c0,0.06,0.01,0.12,0.03,0.19
		c0.01,0.07,0.04,0.12,0.06,0.16c0.03,0.04,0.06,0.07,0.11,0.1c0.05,0.03,0.11,0.04,0.17,0.04c0.07,0,0.13-0.01,0.17-0.04
		c0.05-0.03,0.08-0.06,0.11-0.1c0.03-0.04,0.05-0.09,0.06-0.16c0.02-0.07,0.03-0.13,0.03-0.19c0-0.06,0.01-0.13,0.01-0.22v-2.5h0.65
		v2.43c0,0.17-0.01,0.31-0.03,0.44C20.08,7.68,20.05,7.79,20,7.9c-0.05,0.11-0.11,0.2-0.18,0.27c-0.08,0.07-0.18,0.12-0.29,0.16
		C19.4,8.37,19.26,8.39,19.1,8.39"/>
	<path class="st1" d="M21.66,8.39c-0.16,0-0.3-0.02-0.42-0.06c-0.12-0.04-0.22-0.1-0.3-0.17C20.87,8.09,20.8,8,20.75,7.9
		c-0.05-0.1-0.08-0.22-0.1-0.34s-0.03-0.26-0.03-0.41V5.88c0-0.16,0.01-0.3,0.03-0.42c0.02-0.12,0.06-0.24,0.1-0.34
		c0.05-0.11,0.11-0.19,0.19-0.26c0.08-0.07,0.18-0.12,0.3-0.16c0.12-0.04,0.26-0.06,0.42-0.06c0.18,0,0.34,0.02,0.47,0.07
		c0.13,0.05,0.23,0.12,0.31,0.21c0.08,0.09,0.13,0.2,0.16,0.33c0.03,0.13,0.05,0.27,0.05,0.44v0.31h-0.64V5.7
		c0-0.18-0.01-0.31-0.03-0.37c-0.04-0.12-0.13-0.19-0.28-0.2h-0.04c-0.06,0-0.11,0.01-0.15,0.02c-0.04,0.01-0.08,0.03-0.1,0.06
		c-0.03,0.03-0.05,0.06-0.06,0.09c-0.02,0.03-0.03,0.08-0.04,0.13c-0.01,0.05-0.01,0.1-0.02,0.15c0,0.04,0,0.1,0,0.17V7.3
		c0,0.21,0.03,0.37,0.08,0.46c0.05,0.09,0.15,0.14,0.29,0.14c0.05,0,0.09-0.01,0.12-0.02c0.04-0.01,0.07-0.03,0.09-0.04
		c0.02-0.02,0.04-0.04,0.06-0.07c0.02-0.03,0.03-0.06,0.04-0.09C21.99,7.65,22,7.61,22,7.56c0-0.05,0.01-0.09,0.01-0.12
		c0-0.03,0-0.08,0-0.14V6.97h0.64v0.3c0,0.14-0.01,0.26-0.03,0.37c-0.02,0.11-0.05,0.21-0.1,0.31c-0.05,0.1-0.11,0.18-0.18,0.24
		c-0.07,0.06-0.17,0.11-0.28,0.15C21.95,8.37,21.81,8.39,21.66,8.39"/>
	<path class="st1" d="M22.96,8.34l0.74-3.66h0.7l0.74,3.66h-0.62l-0.15-0.85h-0.63l-0.15,0.85H22.96z M23.81,7.06h0.49l-0.24-1.51
		L23.81,7.06z"/>
	<path class="st1" d="M26.51,8.39c-0.16,0-0.3-0.02-0.42-0.06c-0.12-0.04-0.22-0.1-0.3-0.17C25.72,8.09,25.65,8,25.61,7.9
		c-0.05-0.1-0.08-0.22-0.1-0.34c-0.02-0.12-0.03-0.26-0.03-0.41V5.88c0-0.16,0.01-0.3,0.03-0.42c0.02-0.12,0.06-0.24,0.1-0.34
		c0.05-0.11,0.11-0.19,0.19-0.26c0.08-0.07,0.18-0.12,0.3-0.16c0.12-0.04,0.26-0.06,0.42-0.06c0.18,0,0.34,0.02,0.47,0.07
		c0.13,0.05,0.23,0.12,0.31,0.21c0.08,0.09,0.13,0.2,0.16,0.33c0.03,0.13,0.05,0.27,0.05,0.44v0.31h-0.64V5.7
		c0-0.18-0.01-0.31-0.03-0.37c-0.04-0.12-0.13-0.19-0.28-0.2h-0.04c-0.06,0-0.11,0.01-0.15,0.02c-0.04,0.01-0.08,0.03-0.1,0.06
		c-0.03,0.03-0.05,0.06-0.06,0.09c-0.02,0.03-0.03,0.08-0.04,0.13c-0.01,0.05-0.01,0.1-0.02,0.15c0,0.04,0,0.1,0,0.17V7.3
		c0,0.21,0.03,0.37,0.08,0.46c0.05,0.09,0.15,0.14,0.29,0.14c0.05,0,0.09-0.01,0.12-0.02c0.04-0.01,0.07-0.03,0.09-0.04
		c0.02-0.02,0.04-0.04,0.06-0.07c0.02-0.03,0.03-0.06,0.04-0.09c0.01-0.03,0.02-0.06,0.02-0.11c0-0.05,0.01-0.09,0.01-0.12
		c0-0.03,0-0.08,0-0.14V6.97h0.64v0.3c0,0.14-0.01,0.26-0.03,0.37c-0.02,0.11-0.05,0.21-0.1,0.31c-0.05,0.1-0.11,0.18-0.18,0.24
		c-0.07,0.06-0.17,0.11-0.28,0.15C26.8,8.37,26.67,8.39,26.51,8.39"/>
	<rect x="28.02" y="4.68" class="st1" width="0.66" height="3.66"/>
	<path class="st1" d="M30.27,8.39c-0.38,0-0.65-0.1-0.81-0.31c-0.16-0.2-0.25-0.51-0.25-0.9V5.83c0-0.19,0.02-0.36,0.06-0.51
		c0.04-0.14,0.1-0.27,0.18-0.37c0.08-0.1,0.19-0.18,0.33-0.24c0.14-0.05,0.3-0.08,0.5-0.08c0.38,0,0.65,0.1,0.81,0.3
		c0.16,0.2,0.25,0.5,0.25,0.89v1.35c0,0.19-0.02,0.36-0.06,0.5c-0.04,0.15-0.1,0.27-0.18,0.38c-0.08,0.11-0.19,0.19-0.33,0.24
		C30.62,8.36,30.46,8.39,30.27,8.39 M30.1,7.86c0.05,0.02,0.1,0.03,0.17,0.03c0.06,0,0.12-0.01,0.17-0.03
		c0.05-0.02,0.08-0.04,0.11-0.08c0.03-0.03,0.05-0.07,0.06-0.12c0.02-0.05,0.03-0.1,0.03-0.15c0.01-0.05,0.01-0.11,0.01-0.18V5.67
		c0-0.09,0-0.16-0.01-0.22c-0.01-0.06-0.03-0.11-0.05-0.17c-0.03-0.05-0.06-0.09-0.12-0.12c-0.05-0.03-0.12-0.04-0.2-0.04
		c-0.08,0-0.15,0.01-0.2,0.04c-0.05,0.03-0.09,0.06-0.12,0.12c-0.02,0.05-0.04,0.11-0.05,0.17c-0.01,0.06-0.01,0.13-0.01,0.22v1.66
		c0,0.07,0,0.13,0.01,0.18c0.01,0.05,0.02,0.1,0.03,0.15c0.02,0.05,0.04,0.09,0.06,0.12C30.02,7.82,30.06,7.85,30.1,7.86
		 M30.09,4.37l0.27-0.9h0.63l-0.54,0.9H30.09z"/>
	<polygon class="st1" points="31.85,8.34 31.85,4.68 32.31,4.68 33.2,6.75 33.2,4.68 33.76,4.68 33.76,8.34 33.32,8.34 32.41,6.16 
		32.41,8.34 	"/>
	<path class="st1" d="M13.6,14.33v-3.66h0.85c0.22,0,0.41,0.02,0.56,0.07c0.15,0.04,0.27,0.11,0.36,0.21
		c0.09,0.1,0.15,0.21,0.19,0.35c0.04,0.14,0.06,0.31,0.06,0.51v1.32c0,0.21-0.02,0.39-0.06,0.53c-0.04,0.15-0.1,0.27-0.19,0.37
		c-0.09,0.1-0.2,0.18-0.35,0.22c-0.15,0.05-0.32,0.07-0.54,0.07H13.6z M14.27,13.86h0.19c0.07,0,0.12-0.01,0.17-0.02
		c0.05-0.01,0.09-0.03,0.13-0.04c0.03-0.02,0.06-0.04,0.09-0.08c0.02-0.04,0.04-0.07,0.05-0.1c0.01-0.03,0.02-0.08,0.03-0.14
		c0.01-0.06,0.01-0.12,0.01-0.16c0-0.04,0-0.11,0-0.2v-1.34c0-0.09,0-0.16,0-0.21c0-0.05-0.01-0.11-0.02-0.16
		c-0.01-0.05-0.03-0.1-0.05-0.12c-0.02-0.03-0.05-0.06-0.08-0.08c-0.04-0.02-0.08-0.04-0.13-0.05c-0.05-0.01-0.12-0.01-0.19-0.01
		h-0.18V13.86z"/>
	<polygon class="st1" points="16.08,14.33 16.08,10.67 17.61,10.67 17.61,11.14 16.75,11.14 16.75,12.19 17.43,12.19 17.43,12.66 
		16.75,12.66 16.75,13.87 17.63,13.87 17.63,14.33 	"/>
	<path class="st1" d="M20.05,14.38c-0.16,0-0.3-0.02-0.42-0.06c-0.12-0.04-0.22-0.1-0.3-0.17c-0.08-0.07-0.14-0.16-0.19-0.26
		c-0.05-0.1-0.08-0.22-0.1-0.34c-0.02-0.12-0.03-0.26-0.03-0.41v-1.28c0-0.16,0.01-0.3,0.03-0.42c0.02-0.12,0.06-0.24,0.1-0.34
		c0.05-0.11,0.11-0.19,0.19-0.26c0.08-0.07,0.18-0.12,0.3-0.16c0.12-0.04,0.26-0.06,0.42-0.06c0.18,0,0.34,0.02,0.47,0.07
		c0.13,0.05,0.23,0.12,0.31,0.21c0.08,0.09,0.13,0.2,0.16,0.33c0.03,0.13,0.05,0.27,0.05,0.44V12H20.4v-0.31
		c0-0.18-0.01-0.31-0.03-0.37c-0.04-0.12-0.13-0.19-0.28-0.2h-0.04c-0.06,0-0.11,0.01-0.15,0.02c-0.04,0.01-0.08,0.03-0.1,0.06
		c-0.03,0.03-0.05,0.06-0.06,0.09c-0.02,0.03-0.03,0.07-0.04,0.13c-0.01,0.05-0.01,0.1-0.02,0.15c0,0.04,0,0.1,0,0.17v1.55
		c0,0.22,0.03,0.37,0.08,0.46c0.05,0.09,0.15,0.14,0.29,0.14c0.05,0,0.09-0.01,0.12-0.02c0.04-0.01,0.07-0.03,0.09-0.04
		c0.02-0.02,0.04-0.04,0.06-0.07c0.02-0.03,0.03-0.06,0.04-0.09c0.01-0.03,0.02-0.07,0.02-0.11c0-0.05,0.01-0.09,0.01-0.12
		c0-0.03,0-0.08,0-0.14v-0.33h0.64v0.3c0,0.14-0.01,0.26-0.03,0.37c-0.02,0.11-0.05,0.21-0.1,0.31c-0.05,0.1-0.11,0.18-0.18,0.24
		c-0.07,0.06-0.17,0.11-0.28,0.15C20.34,14.36,20.21,14.38,20.05,14.38"/>
	<path class="st1" d="M21.29,14.33l0.74-3.66h0.7l0.74,3.66h-0.62l-0.15-0.85h-0.63l-0.15,0.85H21.29z M22.14,13.05h0.49l-0.25-1.51
		L22.14,13.05z"/>
	<polygon class="st1" points="23.81,14.33 23.81,10.67 24.48,10.67 24.48,13.87 25.36,13.87 25.36,14.33 	"/>
	<rect x="25.71" y="10.67" class="st1" width="0.66" height="3.66"/>
	<path class="st1" d="M26.91,14.33v-3.66h0.85c0.22,0,0.41,0.02,0.56,0.07c0.15,0.04,0.27,0.11,0.36,0.21
		c0.09,0.1,0.15,0.21,0.19,0.35c0.04,0.14,0.06,0.31,0.06,0.51v1.32c0,0.21-0.02,0.39-0.06,0.53c-0.04,0.15-0.1,0.27-0.19,0.37
		c-0.09,0.1-0.2,0.18-0.35,0.22c-0.15,0.05-0.33,0.07-0.54,0.07H26.91z M27.58,13.86h0.19c0.07,0,0.12-0.01,0.17-0.02
		c0.05-0.01,0.09-0.03,0.13-0.04c0.03-0.02,0.06-0.04,0.08-0.08c0.02-0.04,0.04-0.07,0.05-0.1c0.01-0.03,0.02-0.08,0.03-0.14
		c0.01-0.06,0.01-0.12,0.01-0.16c0-0.04,0-0.11,0-0.2v-1.34c0-0.09,0-0.16,0-0.21c0-0.05-0.01-0.11-0.02-0.16
		c-0.01-0.05-0.03-0.1-0.05-0.12c-0.02-0.03-0.05-0.06-0.08-0.08c-0.04-0.02-0.08-0.04-0.13-0.05c-0.05-0.01-0.12-0.01-0.19-0.01
		h-0.18V13.86z"/>
	<path class="st1" d="M29.15,14.33l0.74-3.66h0.7l0.74,3.66h-0.62l-0.15-0.85h-0.63l-0.15,0.85H29.15z M30,13.05h0.49l-0.25-1.51
		L30,13.05z"/>
	<path class="st1" d="M31.67,14.33v-3.66h0.85c0.22,0,0.41,0.02,0.56,0.07c0.15,0.04,0.27,0.11,0.36,0.21
		c0.09,0.1,0.15,0.21,0.19,0.35c0.04,0.14,0.06,0.31,0.06,0.51v1.32c0,0.21-0.02,0.39-0.06,0.53c-0.04,0.15-0.1,0.27-0.19,0.37
		c-0.09,0.1-0.2,0.18-0.35,0.22c-0.15,0.05-0.32,0.07-0.54,0.07H31.67z M32.34,13.86h0.19c0.07,0,0.12-0.01,0.17-0.02
		c0.05-0.01,0.09-0.03,0.13-0.04c0.03-0.02,0.06-0.04,0.09-0.08c0.02-0.04,0.04-0.07,0.05-0.1c0.01-0.03,0.02-0.08,0.03-0.14
		C33,13.42,33,13.37,33,13.32c0-0.04,0-0.11,0-0.2v-1.34c0-0.09,0-0.16,0-0.21c0-0.05-0.01-0.11-0.02-0.16
		c-0.01-0.05-0.03-0.1-0.05-0.12c-0.02-0.03-0.05-0.06-0.09-0.08c-0.04-0.02-0.08-0.04-0.13-0.05c-0.05-0.01-0.12-0.01-0.19-0.01
		h-0.18V13.86z"/>
	<polygon class="st1" points="22.65,27.28 13.59,22.05 13.59,38.98 22.65,41.71 	"/>
	<polygon class="st1" points="23.65,27.32 23.65,41.72 32.77,38.97 32.77,22.05 	"/>
	<polygon class="st1" points="38.01,38.68 37.74,38.68 38.81,42.42 39.88,38.68 39.62,38.68 39.88,38.68 39.88,23.62 39.62,23.62 
		39.35,23.62 39.07,23.62 38.53,23.62 38.27,23.62 38.01,23.62 37.74,23.62 37.74,38.68 	"/>
	<polygon class="st1" points="34.72,22.78 33.74,22.01 33.74,39.44 23.68,42.69 23.21,42.69 23.12,42.69 22.65,42.69 12.63,39.89 
		12.63,22.01 11.66,22.78 11.66,40.57 22.61,43.6 23.12,43.6 23.21,43.6 23.72,43.6 33.82,40.39 34.72,40.13 	"/>
	<path class="st1" d="M39.88,21.62c0-0.59-0.48-1.07-1.07-1.07c-0.59,0-1.07,0.48-1.07,1.07v1.16h2.14V21.62z"/>
</g>
</svg>
