<?xml version="1.0" encoding="utf-8"?>
<!-- Generator: Adobe Illustrator 26.5.0, SVG Export Plug-In . SVG Version: 6.00 Build 0)  -->
<svg version="1.1" id="Capa_1" xmlns="http://www.w3.org/2000/svg" xmlns:xlink="http://www.w3.org/1999/xlink" x="0px" y="0px"
	 viewBox="0 0 51.02 51.02" style="enable-background:new 0 0 51.02 51.02;" xml:space="preserve">
<style type="text/css">
	.st0{fill:#E5273C;}
	.st1{fill:#FFFFFF;}
	.st2{fill:none;stroke:#FFFFFF;stroke-width:0.5952;stroke-linecap:round;stroke-miterlimit:10;}
	.st3{fill:#FCC30C;}
	.st4{fill:#A31B43;}
	.st5{fill:#F59C2D;}
	.st6{fill:#ED692F;}
	.st7{fill:#DDA73A;}
	.st8{fill:#4E9F38;}
	.st9{fill:#C51D2E;}
	.st10{fill:#E8422F;}
	.st11{fill:#2EBCE1;}
	.st12{fill:#DE1868;}
	.st13{fill:#BE8B30;}
	.st14{fill:#61B235;}
	.st15{fill:#02699F;}
	.st16{fill:#1896D4;}
	.st17{fill:#3F7F45;}
	.st18{fill:#1A496A;}
</style>
<g>
	<rect x="0.37" y="0.37" class="st3" width="50.29" height="50.29"/>
	<polygon class="st1" points="7.1,6.14 4.49,6.14 4.49,4.74 8.89,4.74 8.89,5.94 6.86,14.33 5.09,14.33 	"/>
	<polygon class="st1" points="12.97,8.4 12.97,4.74 14.51,4.74 14.51,5.21 13.64,5.21 13.64,6.26 14.32,6.26 14.32,6.73 13.64,6.73 
		13.64,7.94 14.52,7.94 14.52,8.4 	"/>
	<polygon class="st1" points="14.81,8.4 14.81,4.74 15.27,4.74 16.17,6.81 16.17,4.74 16.72,4.74 16.72,8.4 16.28,8.4 15.38,6.22 
		15.38,8.4 	"/>
	<polygon class="st1" points="17.18,8.4 17.18,4.74 18.71,4.74 18.71,5.21 17.85,5.21 17.85,6.26 18.53,6.26 18.53,6.73 17.85,6.73 
		17.85,7.94 18.72,7.94 18.72,8.4 	"/>
	<path class="st1" d="M19.02,8.4V4.74h0.84c0.19,0,0.36,0.02,0.5,0.05c0.14,0.03,0.26,0.08,0.36,0.16c0.1,0.07,0.18,0.18,0.23,0.3
		c0.05,0.13,0.08,0.28,0.08,0.47c0,0.23-0.03,0.42-0.1,0.56c-0.07,0.15-0.18,0.25-0.34,0.32l0.51,1.81h-0.67l-0.44-1.67h-0.3V8.4
		H19.02z M19.68,6.3h0.16c0.2,0,0.34-0.04,0.42-0.13c0.08-0.08,0.12-0.23,0.12-0.43c0-0.2-0.04-0.34-0.11-0.42
		c-0.07-0.09-0.2-0.13-0.4-0.13h-0.2V6.3z"/>
	<path class="st1" d="M22.35,8.45c-0.35,0-0.6-0.11-0.75-0.32c-0.15-0.22-0.23-0.53-0.23-0.95V5.98c0-0.21,0.02-0.39,0.05-0.55
		c0.03-0.15,0.09-0.29,0.17-0.4c0.08-0.11,0.19-0.2,0.32-0.26c0.14-0.06,0.31-0.09,0.5-0.09c0.36,0,0.62,0.09,0.78,0.27
		c0.16,0.18,0.24,0.45,0.24,0.81v0.18H22.8V5.76c0-0.08,0-0.15-0.01-0.2c0-0.05-0.01-0.1-0.03-0.16c-0.01-0.05-0.03-0.09-0.06-0.12
		c-0.03-0.03-0.06-0.05-0.11-0.07c-0.05-0.02-0.1-0.03-0.17-0.03c-0.05,0-0.09,0.01-0.13,0.02c-0.04,0.01-0.07,0.03-0.1,0.05
		c-0.03,0.02-0.05,0.04-0.07,0.08c-0.02,0.03-0.03,0.07-0.04,0.1c-0.01,0.03-0.02,0.07-0.02,0.12c0,0.05-0.01,0.09-0.01,0.13
		c0,0.04,0,0.09,0,0.15v1.48c0,0.22,0.03,0.38,0.08,0.49c0.05,0.1,0.16,0.15,0.31,0.15c0.08,0,0.15-0.01,0.2-0.04
		c0.05-0.03,0.1-0.08,0.13-0.14c0.03-0.06,0.05-0.13,0.06-0.21c0.01-0.08,0.02-0.17,0.02-0.29v-0.3h-0.4V6.54h1V8.4h-0.43
		l-0.05-0.37C22.87,8.31,22.66,8.45,22.35,8.45"/>
	<path class="st1" d="M23.89,4.74h0.66V8.4h-0.66V4.74z M24.04,4.42l0.27-0.9h0.63l-0.54,0.9H24.04z"/>
	<path class="st1" d="M24.83,8.4l0.74-3.66h0.7l0.74,3.66H26.4l-0.15-0.85h-0.63L25.46,8.4H24.83z M25.68,7.11h0.49l-0.25-1.51
		L25.68,7.11z"/>
	<path class="st1" d="M28.11,8.4l0.74-3.66h0.7l0.74,3.66h-0.62l-0.15-0.85h-0.63L28.74,8.4H28.11z M28.96,7.11h0.49l-0.25-1.51
		L28.96,7.11z"/>
	<path class="st1" d="M31.49,8.44c-0.65,0-0.98-0.37-1.02-1.12l0.58-0.12c0.01,0.48,0.15,0.73,0.42,0.73c0.1,0,0.18-0.03,0.23-0.09
		c0.05-0.06,0.07-0.15,0.07-0.25c0-0.1-0.02-0.19-0.06-0.28c-0.04-0.08-0.08-0.15-0.13-0.21c-0.05-0.05-0.12-0.12-0.21-0.2
		L30.9,6.48c-0.14-0.12-0.25-0.25-0.32-0.39c-0.07-0.13-0.1-0.3-0.1-0.5c0-0.28,0.08-0.51,0.25-0.66c0.17-0.16,0.4-0.24,0.69-0.24
		c0.13,0,0.25,0.01,0.36,0.05c0.1,0.03,0.19,0.08,0.26,0.14c0.07,0.06,0.12,0.13,0.17,0.22c0.04,0.09,0.08,0.18,0.1,0.27
		c0.02,0.09,0.04,0.2,0.05,0.31L31.77,5.8c0-0.07-0.01-0.14-0.01-0.19c-0.01-0.05-0.02-0.11-0.03-0.17
		c-0.02-0.06-0.04-0.1-0.06-0.14c-0.03-0.03-0.06-0.06-0.1-0.08C31.51,5.2,31.46,5.19,31.4,5.2c-0.1,0.01-0.17,0.04-0.23,0.1
		c-0.05,0.06-0.08,0.14-0.08,0.24c0,0.12,0.02,0.22,0.07,0.29c0.05,0.08,0.12,0.16,0.22,0.24l0.48,0.42
		c0.08,0.07,0.15,0.14,0.21,0.21c0.06,0.07,0.11,0.15,0.17,0.23c0.05,0.09,0.1,0.18,0.12,0.29c0.03,0.1,0.04,0.22,0.04,0.33
		c0,0.27-0.08,0.48-0.25,0.65C31.98,8.36,31.76,8.44,31.49,8.44"/>
	<polygon class="st1" points="32.71,8.4 32.71,4.74 34.24,4.74 34.24,5.21 33.37,5.21 33.37,6.26 34.06,6.26 34.06,6.73 33.37,6.73 
		33.37,7.94 34.25,7.94 34.25,8.4 	"/>
	<path class="st1" d="M36.32,9.13c-0.11-0.05-0.23-0.14-0.37-0.28c-0.13-0.13-0.25-0.27-0.34-0.41c-0.02,0-0.04,0-0.08,0
		c-0.38,0-0.65-0.1-0.81-0.31c-0.16-0.2-0.25-0.5-0.25-0.9V5.89c0-0.19,0.02-0.36,0.06-0.51c0.04-0.14,0.1-0.27,0.18-0.37
		c0.08-0.1,0.19-0.18,0.33-0.24c0.14-0.05,0.3-0.08,0.5-0.08c0.38,0,0.65,0.1,0.81,0.3c0.16,0.2,0.25,0.5,0.25,0.89v1.35
		c0,0.57-0.17,0.93-0.51,1.1c0.15,0.17,0.26,0.29,0.36,0.34L36.32,9.13z M35.37,7.92c0.05,0.02,0.1,0.03,0.17,0.03
		s0.12-0.01,0.17-0.03c0.05-0.02,0.08-0.04,0.11-0.08c0.03-0.03,0.05-0.07,0.06-0.12c0.02-0.05,0.03-0.1,0.03-0.15
		c0.01-0.05,0.01-0.11,0.01-0.18V5.73c0-0.09,0-0.16-0.01-0.22c-0.01-0.06-0.03-0.11-0.05-0.17c-0.03-0.05-0.06-0.09-0.12-0.12
		c-0.05-0.03-0.12-0.04-0.2-0.04c-0.08,0-0.15,0.01-0.2,0.04c-0.05,0.03-0.09,0.06-0.12,0.12c-0.03,0.05-0.04,0.11-0.05,0.17
		c-0.01,0.06-0.01,0.13-0.01,0.22v1.66c0,0.07,0,0.13,0.01,0.18c0.01,0.05,0.02,0.1,0.03,0.15c0.02,0.05,0.04,0.09,0.06,0.12
		C35.29,7.88,35.33,7.9,35.37,7.92"/>
	<path class="st1" d="M38,8.44c-0.16,0-0.31-0.02-0.43-0.06c-0.12-0.04-0.22-0.09-0.3-0.16c-0.08-0.07-0.14-0.16-0.19-0.27
		c-0.05-0.11-0.08-0.23-0.1-0.35c-0.02-0.13-0.03-0.27-0.03-0.44V4.74h0.65v2.5c0,0.09,0,0.16,0.01,0.22c0,0.06,0.01,0.12,0.03,0.19
		c0.01,0.07,0.04,0.12,0.06,0.16c0.03,0.04,0.06,0.07,0.11,0.1c0.05,0.03,0.11,0.04,0.17,0.04c0.07,0,0.13-0.01,0.17-0.04
		c0.05-0.03,0.08-0.06,0.11-0.1c0.03-0.04,0.05-0.09,0.06-0.16c0.02-0.07,0.03-0.13,0.03-0.19c0-0.06,0.01-0.13,0.01-0.22v-2.5h0.65
		v2.43c0,0.17-0.01,0.31-0.03,0.44c-0.02,0.13-0.05,0.24-0.1,0.35c-0.05,0.11-0.11,0.2-0.18,0.27c-0.08,0.07-0.18,0.12-0.3,0.16
		C38.3,8.42,38.16,8.44,38,8.44"/>
	<rect x="39.48" y="4.74" class="st1" width="0.66" height="3.66"/>
	<path class="st1" d="M40.61,8.4V4.74h0.9c0.17,0,0.32,0.02,0.44,0.04c0.13,0.03,0.24,0.08,0.34,0.15c0.1,0.07,0.17,0.17,0.22,0.29
		c0.05,0.12,0.07,0.27,0.07,0.45c0,0.45-0.18,0.71-0.54,0.76c0.22,0.04,0.38,0.14,0.48,0.28c0.11,0.15,0.16,0.36,0.16,0.62
		c0,0.35-0.09,0.61-0.26,0.79C42.25,8.31,42,8.4,41.66,8.4H40.61z M41.27,6.23h0.21c0.2,0,0.33-0.04,0.4-0.13
		C41.96,6.02,42,5.88,42,5.68c0-0.1-0.01-0.19-0.04-0.25c-0.02-0.06-0.06-0.11-0.12-0.14c-0.06-0.03-0.12-0.05-0.19-0.06
		c-0.07-0.01-0.16-0.02-0.28-0.02h-0.09V6.23z M41.27,7.93h0.25c0.2,0,0.34-0.05,0.41-0.14c0.08-0.09,0.11-0.25,0.11-0.46
		c0-0.22-0.04-0.38-0.13-0.48c-0.09-0.1-0.23-0.15-0.43-0.15h-0.21V7.93z"/>
	<polygon class="st1" points="43.03,8.4 43.03,4.74 43.7,4.74 43.7,7.94 44.57,7.94 44.57,8.4 	"/>
	<polygon class="st1" points="44.84,8.4 44.84,4.74 46.37,4.74 46.37,5.21 45.51,5.21 45.51,6.26 46.19,6.26 46.19,6.73 45.51,6.73 
		45.51,7.94 46.38,7.94 46.38,8.4 	"/>
	<polygon class="st1" points="13.49,14.39 13.49,12.99 12.74,10.72 13.36,10.72 13.82,12.18 14.25,10.72 14.87,10.72 14.12,12.99 
		14.12,14.39 	"/>
	<polygon class="st1" points="16.11,14.39 16.11,10.72 16.57,10.72 17.47,12.8 17.47,10.72 18.02,10.72 18.02,14.39 17.58,14.39 
		16.67,12.21 16.67,14.39 	"/>
	<path class="st1" d="M19.47,14.43c-0.38,0-0.65-0.1-0.81-0.31c-0.16-0.2-0.25-0.5-0.25-0.9v-1.35c0-0.19,0.02-0.36,0.06-0.51
		c0.04-0.14,0.1-0.27,0.18-0.37c0.08-0.1,0.19-0.18,0.33-0.24c0.14-0.05,0.3-0.08,0.5-0.08c0.38,0,0.65,0.1,0.81,0.3
		c0.16,0.2,0.25,0.5,0.25,0.89v1.35c0,0.19-0.02,0.36-0.06,0.5c-0.04,0.15-0.1,0.27-0.18,0.38c-0.08,0.11-0.19,0.19-0.33,0.24
		C19.83,14.41,19.66,14.43,19.47,14.43 M19.31,13.91c0.05,0.02,0.1,0.03,0.17,0.03c0.06,0,0.12-0.01,0.17-0.03
		c0.05-0.02,0.08-0.04,0.11-0.08c0.03-0.03,0.05-0.07,0.06-0.12c0.02-0.05,0.03-0.1,0.03-0.15c0-0.05,0.01-0.11,0.01-0.18v-1.66
		c0-0.09,0-0.16-0.01-0.22c-0.01-0.06-0.03-0.11-0.05-0.17c-0.03-0.05-0.06-0.09-0.12-0.12c-0.05-0.03-0.12-0.04-0.2-0.04
		c-0.08,0-0.15,0.01-0.2,0.04c-0.05,0.03-0.09,0.06-0.12,0.12c-0.03,0.05-0.04,0.11-0.05,0.17c-0.01,0.06-0.01,0.13-0.01,0.22v1.66
		c0,0.07,0,0.13,0.01,0.18c0.01,0.05,0.02,0.1,0.03,0.15c0.02,0.05,0.04,0.09,0.06,0.12C19.22,13.86,19.26,13.89,19.31,13.91"/>
	<path class="st1" d="M22.93,14.43c-0.16,0-0.3-0.02-0.42-0.06c-0.12-0.04-0.22-0.1-0.3-0.17c-0.08-0.07-0.14-0.16-0.19-0.26
		c-0.05-0.1-0.08-0.22-0.1-0.34c-0.02-0.12-0.03-0.26-0.03-0.41v-1.28c0-0.16,0.01-0.3,0.03-0.42c0.02-0.12,0.06-0.24,0.1-0.34
		c0.05-0.11,0.11-0.19,0.19-0.26c0.08-0.07,0.18-0.12,0.3-0.16c0.12-0.04,0.26-0.06,0.42-0.06c0.18,0,0.34,0.02,0.47,0.07
		c0.13,0.05,0.23,0.12,0.31,0.21c0.08,0.09,0.13,0.2,0.16,0.33c0.03,0.13,0.05,0.27,0.05,0.44v0.31h-0.64v-0.31
		c0-0.18-0.01-0.31-0.03-0.37c-0.04-0.12-0.13-0.19-0.28-0.2h-0.04c-0.06,0-0.11,0.01-0.15,0.02c-0.04,0.01-0.08,0.03-0.1,0.06
		c-0.03,0.03-0.05,0.06-0.06,0.09c-0.02,0.03-0.03,0.07-0.04,0.13c-0.01,0.05-0.01,0.1-0.02,0.15c0,0.04,0,0.1,0,0.17v1.55
		c0,0.22,0.03,0.37,0.08,0.46c0.05,0.09,0.15,0.14,0.29,0.14c0.05,0,0.09-0.01,0.12-0.02c0.04-0.01,0.07-0.03,0.09-0.04
		c0.02-0.02,0.04-0.04,0.06-0.07c0.02-0.03,0.03-0.06,0.04-0.09c0.01-0.03,0.02-0.07,0.02-0.11c0-0.05,0.01-0.09,0.01-0.12
		c0-0.03,0-0.08,0-0.14v-0.33h0.64v0.3c0,0.14-0.01,0.26-0.03,0.37c-0.02,0.11-0.05,0.21-0.1,0.31c-0.05,0.1-0.11,0.18-0.18,0.24
		c-0.07,0.06-0.17,0.11-0.28,0.15C23.21,14.41,23.08,14.43,22.93,14.43"/>
	<path class="st1" d="M25.28,14.43c-0.38,0-0.65-0.1-0.81-0.31c-0.16-0.2-0.25-0.5-0.25-0.9v-1.35c0-0.19,0.02-0.36,0.06-0.51
		c0.04-0.14,0.1-0.27,0.18-0.37c0.08-0.1,0.19-0.18,0.33-0.24c0.14-0.05,0.3-0.08,0.49-0.08c0.38,0,0.65,0.1,0.81,0.3
		c0.16,0.2,0.25,0.5,0.25,0.89v1.35c0,0.19-0.02,0.36-0.06,0.5c-0.04,0.15-0.1,0.27-0.18,0.38c-0.08,0.11-0.19,0.19-0.33,0.24
		C25.64,14.41,25.47,14.43,25.28,14.43 M25.12,13.91c0.05,0.02,0.1,0.03,0.17,0.03c0.06,0,0.12-0.01,0.17-0.03
		c0.05-0.02,0.08-0.04,0.11-0.08c0.03-0.03,0.05-0.07,0.06-0.12c0.02-0.05,0.03-0.1,0.03-0.15c0.01-0.05,0.01-0.11,0.01-0.18v-1.66
		c0-0.09,0-0.16-0.01-0.22c-0.01-0.06-0.03-0.11-0.05-0.17c-0.03-0.05-0.06-0.09-0.12-0.12c-0.05-0.03-0.12-0.04-0.2-0.04
		c-0.08,0-0.15,0.01-0.2,0.04c-0.05,0.03-0.09,0.06-0.12,0.12c-0.03,0.05-0.04,0.11-0.05,0.17c-0.01,0.06-0.01,0.13-0.01,0.22v1.66
		c0,0.07,0,0.13,0.01,0.18c0.01,0.05,0.02,0.1,0.03,0.15c0.02,0.05,0.04,0.09,0.06,0.12C25.03,13.86,25.07,13.89,25.12,13.91"/>
	<polygon class="st1" points="26.74,14.39 26.74,10.72 27.2,10.72 28.09,12.8 28.09,10.72 28.65,10.72 28.65,14.39 28.21,14.39 
		27.3,12.21 27.3,14.39 	"/>
	<polygon class="st1" points="29.46,14.39 29.46,11.22 28.85,11.22 28.85,10.72 30.72,10.72 30.72,11.22 30.13,11.22 30.13,14.39 	
		"/>
	<path class="st1" d="M30.72,14.39l0.74-3.66h0.7l0.74,3.66h-0.62l-0.15-0.85H31.5l-0.15,0.85H30.72z M31.57,13.1h0.49l-0.25-1.51
		L31.57,13.1z"/>
	<polygon class="st1" points="33.17,14.39 33.23,10.72 33.91,10.72 34.44,13.3 34.99,10.72 35.66,10.72 35.72,14.39 35.21,14.39 
		35.17,11.86 34.64,14.39 34.25,14.39 33.72,11.86 33.68,14.39 	"/>
	<rect x="36.19" y="10.72" class="st1" width="0.66" height="3.66"/>
	<polygon class="st1" points="37.32,14.39 37.32,10.72 37.78,10.72 38.68,12.8 38.68,10.72 39.23,10.72 39.23,14.39 38.79,14.39 
		37.89,12.21 37.89,14.39 	"/>
	<path class="st1" d="M39.5,14.39l0.74-3.66h0.7l0.74,3.66h-0.62l-0.15-0.85h-0.63l-0.15,0.85H39.5z M40.35,13.1h0.49l-0.25-1.51
		L40.35,13.1z"/>
	<polygon class="st1" points="41.95,14.39 41.95,10.72 42.41,10.72 43.31,12.8 43.31,10.72 43.86,10.72 43.86,14.39 43.42,14.39 
		42.52,12.21 42.52,14.39 	"/>
	<polygon class="st1" points="44.68,14.39 44.68,11.22 44.06,11.22 44.06,10.72 45.94,10.72 45.94,11.22 45.34,11.22 45.34,14.39 	
		"/>
	<polygon class="st1" points="46.14,14.39 46.14,10.72 47.67,10.72 47.67,11.2 46.81,11.2 46.81,12.25 47.49,12.25 47.49,12.72 
		46.81,12.72 46.81,13.93 47.68,13.93 47.68,14.39 	"/>
	<path class="st1" d="M25.53,27.86c-3.48,0-6.31,2.82-6.31,6.31c0,3.49,2.82,6.31,6.31,6.31s6.31-2.82,6.31-6.31
		C31.84,30.69,29.01,27.86,25.53,27.86 M25.06,30.35c0-0.21,0.21-0.44,0.47-0.44c0.26,0,0.47,0.23,0.47,0.44v2.17
		c0,0.21-0.21,0.44-0.47,0.44c-0.26,0-0.47-0.23-0.47-0.44V30.35z M25.53,37.4c-1.81,0-3.28-1.47-3.28-3.28
		c0-1.47,0.97-2.72,2.31-3.13v1.22c-0.7,0.36-1.17,1.08-1.17,1.91c0,1.19,0.96,2.15,2.15,2.15c1.19,0,2.15-0.96,2.15-2.15
		c0-0.84-0.48-1.56-1.18-1.92v-1.22c1.34,0.41,2.31,1.66,2.31,3.14C28.81,35.93,27.34,37.4,25.53,37.4"/>
	<path class="st1" d="M18.29,34.12c0-0.29-0.25-0.52-0.48-0.52h-2.76c-0.23,0-0.49,0.23-0.49,0.52c0,0.29,0.26,0.52,0.49,0.52h2.76
		C18.04,34.64,18.29,34.4,18.29,34.12"/>
	<path class="st1" d="M36.51,34.12c0-0.29-0.25-0.52-0.48-0.52h-2.76c-0.23,0-0.49,0.23-0.49,0.52c0,0.29,0.26,0.52,0.49,0.52h2.76
		C36.26,34.64,36.51,34.4,36.51,34.12"/>
	<path class="st1" d="M25.53,45.09c0.29,0,0.52-0.25,0.52-0.48v-2.76c0-0.23-0.23-0.49-0.52-0.49c-0.29,0-0.52,0.26-0.52,0.49v2.76
		C25.01,44.84,25.25,45.09,25.53,45.09"/>
	<path class="st1" d="M35.06,39.57c0.14-0.25,0.04-0.58-0.16-0.69l-2.4-1.37c-0.2-0.12-0.54-0.04-0.68,0.21
		c-0.14,0.25-0.04,0.58,0.17,0.69l2.4,1.37C34.58,39.89,34.92,39.82,35.06,39.57"/>
	<path class="st1" d="M20.08,43.65c0.25,0.14,0.57,0.04,0.69-0.16l1.37-2.4c0.12-0.2,0.04-0.54-0.21-0.68
		c-0.25-0.14-0.58-0.04-0.69,0.17l-1.37,2.4C19.75,43.17,19.83,43.5,20.08,43.65"/>
	<path class="st1" d="M31.01,43.63c0.25-0.14,0.32-0.48,0.21-0.68l-1.38-2.4c-0.12-0.2-0.44-0.31-0.69-0.17
		c-0.25,0.14-0.32,0.48-0.21,0.68l1.38,2.39C30.43,43.67,30.76,43.78,31.01,43.63"/>
	<path class="st1" d="M16.02,39.59c0.14,0.25,0.48,0.32,0.68,0.21l2.39-1.38c0.2-0.12,0.31-0.44,0.17-0.69
		c-0.14-0.25-0.48-0.32-0.68-0.21l-2.39,1.38C15.98,39.01,15.87,39.34,16.02,39.59"/>
	<path class="st1" d="M25.53,26.87c0.29,0,0.52-0.25,0.52-0.48v-2.76c0-0.23-0.23-0.49-0.52-0.49c-0.29,0-0.52,0.26-0.52,0.49v2.76
		C25.01,26.62,25.25,26.87,25.53,26.87"/>
	<path class="st1" d="M19.25,30.52c0.14-0.25,0.04-0.58-0.16-0.69l-2.4-1.37c-0.2-0.12-0.54-0.04-0.68,0.21
		c-0.14,0.25-0.04,0.58,0.17,0.69l2.4,1.37C18.77,30.84,19.1,30.77,19.25,30.52"/>
	<path class="st1" d="M29.13,27.83c0.25,0.14,0.57,0.04,0.69-0.16l1.37-2.4c0.12-0.2,0.04-0.54-0.21-0.68
		c-0.25-0.14-0.58-0.04-0.69,0.17l-1.37,2.4C28.81,27.35,28.88,27.69,29.13,27.83"/>
	<path class="st1" d="M21.92,27.84c0.25-0.14,0.32-0.48,0.21-0.68l-1.38-2.39c-0.12-0.2-0.44-0.31-0.69-0.17
		c-0.25,0.14-0.32,0.48-0.21,0.68l1.38,2.39C21.35,27.88,21.67,27.98,21.92,27.84"/>
	<path class="st1" d="M31.81,30.51c0.14,0.25,0.48,0.32,0.68,0.21l2.39-1.38c0.2-0.12,0.31-0.44,0.17-0.69
		c-0.14-0.25-0.48-0.32-0.68-0.21l-2.39,1.38C31.77,29.93,31.67,30.26,31.81,30.51"/>
</g>
</svg>
