<?xml version="1.0" encoding="utf-8"?>
<!-- Generator: Adobe Illustrator 26.5.0, SVG Export Plug-In . SVG Version: 6.00 Build 0)  -->
<svg version="1.1" id="Capa_1" xmlns="http://www.w3.org/2000/svg" xmlns:xlink="http://www.w3.org/1999/xlink" x="0px" y="0px"
	 viewBox="0 0 51.02 51.02" style="enable-background:new 0 0 51.02 51.02;" xml:space="preserve">
<style type="text/css">
	.st0{fill:#E5273C;}
	.st1{fill:#FFFFFF;}
	.st2{fill:none;stroke:#FFFFFF;stroke-width:0.5952;stroke-linecap:round;stroke-miterlimit:10;}
	.st3{fill:#FCC30C;}
	.st4{fill:#A31B43;}
	.st5{fill:#F59C2D;}
	.st6{fill:#ED692F;}
	.st7{fill:#DDA73A;}
	.st8{fill:#4E9F38;}
	.st9{fill:#C51D2E;}
	.st10{fill:#E8422F;}
	.st11{fill:#2EBCE1;}
	.st12{fill:#DE1868;}
	.st13{fill:#BE8B30;}
	.st14{fill:#61B235;}
	.st15{fill:#02699F;}
	.st16{fill:#1896D4;}
	.st17{fill:#3F7F45;}
	.st18{fill:#1A496A;}
</style>
<g>
	<rect x="0.37" y="0.37" class="st15" width="50.29" height="50.29"/>
	<path class="st1" d="M4.89,6.64C4.8,6.68,4.55,6.78,4.13,6.93C3.8,7.04,3.59,7.12,3.5,7.16V5.79c0.27-0.1,0.59-0.26,0.98-0.47
		c0.38-0.21,0.65-0.41,0.81-0.58h1.43v9.59H4.89V6.64z"/>
	<path class="st1" d="M8.36,13.61c-0.42-0.57-0.63-1.33-0.63-2.3V7.9c0-1.04,0.19-1.85,0.57-2.42c0.38-0.57,1.05-0.86,2-0.86
		c0.85,0,1.47,0.2,1.85,0.6c0.38,0.4,0.57,1.01,0.58,1.82l0.01,0.17H11c0-0.44-0.04-0.75-0.13-0.93c-0.09-0.18-0.27-0.27-0.54-0.27
		c-0.2,0-0.35,0.06-0.46,0.18C9.76,6.32,9.68,6.51,9.64,6.79C9.6,7.07,9.58,7.46,9.58,7.96v0.97c0.1-0.17,0.27-0.31,0.5-0.41
		c0.23-0.1,0.49-0.15,0.78-0.15c0.71,0,1.23,0.25,1.54,0.74c0.32,0.49,0.48,1.17,0.48,2.02c0,1.06-0.2,1.88-0.59,2.46
		c-0.39,0.58-1.05,0.87-1.98,0.87C9.43,14.46,8.78,14.18,8.36,13.61 M10.9,12.7c0.1-0.26,0.15-0.68,0.15-1.26
		c0-0.4-0.01-0.71-0.04-0.94c-0.02-0.22-0.09-0.4-0.2-0.53c-0.11-0.13-0.27-0.2-0.49-0.2c-0.17,0-0.31,0.04-0.44,0.13
		c-0.13,0.09-0.23,0.19-0.3,0.31v1.53c0,0.91,0.25,1.36,0.76,1.36C10.61,13.1,10.8,12.97,10.9,12.7"/>
	<path class="st1" d="M16.65,8.4V4.74h1.05c0.62,0,0.94,0.35,0.94,1.04c0,0.34-0.09,0.59-0.26,0.75c-0.17,0.16-0.41,0.24-0.72,0.24
		h-0.34V8.4H16.65z M17.31,6.29h0.21c0.19,0,0.32-0.04,0.38-0.11c0.07-0.07,0.1-0.21,0.1-0.41c0-0.11,0-0.2-0.01-0.26
		c-0.01-0.06-0.03-0.12-0.06-0.17c-0.03-0.05-0.08-0.09-0.14-0.11c-0.06-0.02-0.15-0.03-0.26-0.03h-0.22V6.29z"/>
	<path class="st1" d="M18.62,8.4l0.74-3.66h0.7l0.74,3.66h-0.62l-0.15-0.85H19.4L19.25,8.4H18.62z M19.47,7.11h0.49l-0.25-1.51
		L19.47,7.11z"/>
	<polygon class="st1" points="21.05,8.4 21.05,7.96 22.03,5.2 21.1,5.2 21.1,4.74 22.71,4.74 22.71,5.07 21.69,7.94 22.71,7.94 
		22.71,8.4 	"/>
	<path class="st1" d="M23.09,9.02l-0.07-0.23c0.09-0.02,0.16-0.07,0.21-0.13c0.06-0.07,0.08-0.15,0.08-0.26H23V7.8h0.61v0.56
		C23.6,8.73,23.43,8.95,23.09,9.02"/>
	<path class="st1" d="M24.91,8.48V8.01c0.2,0,0.33-0.03,0.39-0.09c0.06-0.06,0.1-0.18,0.1-0.37V4.74h0.67l0,2.83
		c0,0.16-0.02,0.3-0.04,0.41c-0.03,0.11-0.07,0.2-0.13,0.28c-0.06,0.08-0.15,0.14-0.26,0.17c-0.11,0.04-0.24,0.05-0.4,0.05H24.91z"
		/>
	<path class="st1" d="M27.62,8.44c-0.16,0-0.31-0.02-0.43-0.06c-0.12-0.04-0.22-0.09-0.3-0.16c-0.08-0.07-0.14-0.16-0.19-0.27
		c-0.05-0.11-0.08-0.23-0.1-0.35c-0.02-0.13-0.03-0.27-0.03-0.44V4.74h0.65v2.5c0,0.09,0,0.16,0.01,0.22c0,0.06,0.01,0.12,0.03,0.19
		c0.01,0.07,0.04,0.12,0.06,0.16c0.03,0.04,0.06,0.07,0.11,0.1c0.05,0.03,0.11,0.04,0.17,0.04c0.07,0,0.13-0.01,0.17-0.04
		c0.05-0.03,0.08-0.06,0.11-0.1c0.03-0.04,0.05-0.09,0.06-0.16C27.99,7.58,28,7.52,28,7.46C28,7.4,28,7.32,28,7.24v-2.5h0.65v2.43
		c0,0.17-0.01,0.31-0.03,0.44c-0.02,0.13-0.05,0.24-0.1,0.35c-0.05,0.11-0.11,0.2-0.18,0.27c-0.08,0.07-0.18,0.12-0.29,0.16
		C27.93,8.43,27.79,8.44,27.62,8.44"/>
	<path class="st1" d="M30.09,8.44c-0.65,0-0.98-0.37-1.02-1.12l0.58-0.12c0.01,0.48,0.15,0.73,0.42,0.73c0.1,0,0.18-0.03,0.23-0.09
		c0.05-0.06,0.07-0.15,0.07-0.25c0-0.1-0.02-0.19-0.06-0.28c-0.04-0.08-0.08-0.15-0.13-0.21c-0.05-0.05-0.12-0.12-0.21-0.2
		L29.5,6.48c-0.14-0.12-0.25-0.25-0.32-0.39c-0.07-0.13-0.1-0.3-0.1-0.5c0-0.28,0.08-0.51,0.25-0.66c0.17-0.16,0.4-0.24,0.69-0.24
		c0.13,0,0.25,0.01,0.36,0.05c0.1,0.03,0.19,0.08,0.26,0.14c0.07,0.06,0.12,0.13,0.17,0.22c0.04,0.09,0.08,0.18,0.1,0.27
		c0.02,0.09,0.04,0.2,0.05,0.31L30.38,5.8c0-0.07-0.01-0.14-0.01-0.19c-0.01-0.05-0.02-0.11-0.03-0.17
		c-0.02-0.06-0.04-0.1-0.06-0.14c-0.03-0.03-0.06-0.06-0.1-0.08c-0.04-0.02-0.09-0.03-0.15-0.02c-0.1,0.01-0.17,0.04-0.23,0.1
		c-0.05,0.06-0.08,0.14-0.08,0.24c0,0.12,0.02,0.22,0.07,0.29c0.05,0.08,0.12,0.16,0.22,0.24l0.48,0.42
		c0.08,0.07,0.15,0.14,0.21,0.21c0.06,0.07,0.12,0.15,0.17,0.23c0.05,0.09,0.1,0.18,0.12,0.29c0.03,0.1,0.04,0.22,0.04,0.33
		c0,0.27-0.08,0.48-0.25,0.65C30.59,8.36,30.37,8.44,30.09,8.44"/>
	<polygon class="st1" points="31.76,8.4 31.76,5.23 31.15,5.23 31.15,4.74 33.02,4.74 33.02,5.23 32.43,5.23 32.43,8.4 	"/>
	<rect x="33.33" y="4.74" class="st1" width="0.66" height="3.66"/>
	<path class="st1" d="M35.54,8.44c-0.16,0-0.3-0.02-0.42-0.06c-0.12-0.04-0.22-0.1-0.3-0.17c-0.08-0.07-0.14-0.16-0.19-0.26
		c-0.05-0.1-0.08-0.22-0.1-0.34S34.5,7.36,34.5,7.21V5.94c0-0.16,0.01-0.3,0.03-0.42c0.02-0.12,0.06-0.24,0.1-0.34
		c0.05-0.11,0.11-0.19,0.19-0.26c0.08-0.07,0.18-0.12,0.3-0.16c0.12-0.04,0.26-0.06,0.42-0.06c0.18,0,0.34,0.02,0.47,0.07
		s0.23,0.12,0.31,0.21c0.08,0.09,0.13,0.2,0.16,0.33c0.03,0.13,0.05,0.27,0.05,0.44v0.31h-0.64V5.75c0-0.18-0.01-0.31-0.03-0.37
		c-0.04-0.12-0.13-0.19-0.28-0.2h-0.04c-0.06,0-0.11,0.01-0.15,0.02c-0.04,0.01-0.08,0.03-0.1,0.06c-0.03,0.03-0.05,0.06-0.06,0.09
		c-0.02,0.03-0.03,0.08-0.04,0.13c-0.01,0.05-0.01,0.1-0.02,0.15c0,0.04,0,0.1,0,0.17v1.55c0,0.21,0.03,0.37,0.08,0.46
		c0.05,0.09,0.15,0.14,0.29,0.14c0.05,0,0.09-0.01,0.12-0.02c0.04-0.01,0.07-0.03,0.09-0.04c0.02-0.02,0.04-0.04,0.06-0.07
		c0.02-0.03,0.03-0.06,0.04-0.09c0.01-0.03,0.02-0.06,0.02-0.11c0-0.05,0.01-0.09,0.01-0.12c0-0.03,0-0.08,0-0.14V7.03h0.64v0.3
		c0,0.14-0.01,0.26-0.03,0.37C36.48,7.8,36.45,7.91,36.4,8c-0.05,0.1-0.11,0.18-0.18,0.24c-0.07,0.06-0.17,0.11-0.28,0.15
		C35.83,8.43,35.69,8.44,35.54,8.44"/>
	<rect x="37.01" y="4.74" class="st1" width="0.66" height="3.66"/>
	<path class="st1" d="M38.04,8.4l0.74-3.66h0.7l0.74,3.66h-0.62l-0.15-0.85h-0.63L38.67,8.4H38.04z M38.9,7.11h0.49l-0.24-1.51
		L38.9,7.11z"/>
	<polygon class="st1" points="16.65,14.39 16.65,10.72 18.18,10.72 18.18,11.2 17.31,11.2 17.31,12.25 18,12.25 18,12.72 
		17.31,12.72 17.31,13.93 18.19,13.93 18.19,14.39 	"/>
	<rect x="19.7" y="10.72" class="st1" width="0.66" height="3.66"/>
	<polygon class="st1" points="20.92,14.39 20.92,10.72 21.38,10.72 22.28,12.8 22.28,10.72 22.83,10.72 22.83,14.39 22.39,14.39 
		21.49,12.21 21.49,14.39 	"/>
	<path class="st1" d="M24.3,14.43c-0.65,0-0.98-0.37-1.02-1.12l0.58-0.12c0.01,0.48,0.15,0.73,0.42,0.73c0.1,0,0.18-0.03,0.23-0.09
		c0.05-0.06,0.07-0.15,0.07-0.25c0-0.1-0.02-0.2-0.06-0.28c-0.04-0.08-0.08-0.15-0.13-0.21c-0.05-0.05-0.12-0.12-0.21-0.2
		l-0.48-0.42c-0.14-0.12-0.25-0.25-0.32-0.39c-0.07-0.13-0.1-0.3-0.1-0.5c0-0.28,0.08-0.5,0.25-0.66c0.17-0.16,0.4-0.24,0.69-0.24
		c0.13,0,0.25,0.01,0.36,0.05c0.1,0.03,0.19,0.08,0.26,0.14c0.07,0.06,0.12,0.13,0.17,0.22c0.04,0.09,0.08,0.18,0.1,0.27
		c0.02,0.09,0.04,0.2,0.05,0.31l-0.57,0.11c0-0.07-0.01-0.14-0.01-0.19c-0.01-0.05-0.02-0.11-0.03-0.17
		c-0.02-0.06-0.04-0.1-0.06-0.14c-0.03-0.04-0.06-0.06-0.1-0.08c-0.04-0.02-0.09-0.03-0.15-0.02c-0.1,0.01-0.17,0.04-0.23,0.1
		c-0.05,0.06-0.08,0.14-0.08,0.24c0,0.12,0.02,0.21,0.07,0.29c0.05,0.08,0.12,0.16,0.22,0.24l0.48,0.42
		c0.08,0.07,0.15,0.14,0.21,0.21c0.06,0.07,0.12,0.15,0.17,0.23c0.05,0.09,0.1,0.18,0.12,0.29c0.03,0.1,0.04,0.22,0.04,0.33
		c0,0.27-0.08,0.48-0.25,0.65C24.8,14.35,24.58,14.43,24.3,14.43"/>
	<polygon class="st1" points="25.97,14.39 25.97,11.22 25.36,11.22 25.36,10.72 27.23,10.72 27.23,11.22 26.64,11.22 26.64,14.39 	
		"/>
	<rect x="27.54" y="10.72" class="st1" width="0.66" height="3.66"/>
	<polygon class="st1" points="29.12,14.39 29.12,11.22 28.51,11.22 28.51,10.72 30.39,10.72 30.39,11.22 29.79,11.22 29.79,14.39 	
		"/>
	<path class="st1" d="M31.68,14.43c-0.16,0-0.31-0.02-0.43-0.06c-0.12-0.04-0.22-0.09-0.3-0.16c-0.08-0.07-0.14-0.16-0.19-0.27
		c-0.05-0.11-0.08-0.23-0.1-0.35c-0.02-0.13-0.03-0.27-0.03-0.44v-2.43h0.65v2.5c0,0.09,0,0.16,0.01,0.22
		c0,0.06,0.01,0.12,0.03,0.19c0.01,0.07,0.04,0.12,0.06,0.16c0.03,0.04,0.06,0.07,0.11,0.1c0.05,0.03,0.11,0.04,0.17,0.04
		c0.07,0,0.13-0.01,0.17-0.04c0.05-0.03,0.08-0.06,0.11-0.1c0.03-0.04,0.05-0.09,0.06-0.16c0.02-0.07,0.03-0.13,0.03-0.19
		c0-0.06,0.01-0.13,0.01-0.22v-2.5h0.65v2.43c0,0.17-0.01,0.31-0.03,0.44c-0.02,0.13-0.05,0.24-0.1,0.35
		c-0.05,0.11-0.11,0.2-0.18,0.27c-0.08,0.07-0.18,0.12-0.3,0.16C31.98,14.41,31.84,14.43,31.68,14.43"/>
	<path class="st1" d="M34.21,14.43c-0.16,0-0.3-0.02-0.42-0.06c-0.12-0.04-0.22-0.1-0.3-0.17c-0.08-0.07-0.14-0.16-0.19-0.26
		c-0.05-0.1-0.08-0.22-0.1-0.34c-0.02-0.12-0.03-0.26-0.03-0.41v-1.28c0-0.16,0.01-0.3,0.03-0.42c0.02-0.12,0.06-0.24,0.1-0.34
		c0.05-0.11,0.11-0.19,0.19-0.26c0.08-0.07,0.18-0.12,0.3-0.16c0.12-0.04,0.26-0.06,0.42-0.06c0.18,0,0.34,0.02,0.47,0.07
		c0.13,0.05,0.23,0.12,0.31,0.21c0.08,0.09,0.13,0.2,0.16,0.33c0.03,0.13,0.05,0.27,0.05,0.44v0.31h-0.64v-0.31
		c0-0.18-0.01-0.31-0.03-0.37c-0.04-0.12-0.13-0.19-0.28-0.2h-0.03c-0.06,0-0.11,0.01-0.15,0.02c-0.04,0.01-0.08,0.03-0.1,0.06
		c-0.03,0.03-0.05,0.06-0.06,0.09c-0.02,0.03-0.03,0.07-0.04,0.13c-0.01,0.05-0.01,0.1-0.02,0.15c0,0.04,0,0.1,0,0.17v1.55
		c0,0.22,0.03,0.37,0.08,0.46c0.05,0.09,0.15,0.14,0.29,0.14c0.05,0,0.09-0.01,0.12-0.02c0.04-0.01,0.07-0.03,0.09-0.04
		c0.02-0.02,0.04-0.04,0.06-0.07c0.02-0.03,0.03-0.06,0.04-0.09c0.01-0.03,0.02-0.07,0.02-0.11c0-0.05,0.01-0.09,0.01-0.12
		c0-0.03,0-0.08,0-0.14v-0.33h0.64v0.3c0,0.14-0.01,0.26-0.03,0.37c-0.02,0.11-0.05,0.21-0.1,0.31c-0.05,0.1-0.11,0.18-0.18,0.24
		c-0.07,0.06-0.17,0.11-0.28,0.15C34.5,14.42,34.36,14.43,34.21,14.43"/>
	<rect x="35.68" y="10.72" class="st1" width="0.66" height="3.66"/>
	<path class="st1" d="M37.9,14.43c-0.38,0-0.65-0.1-0.81-0.31c-0.16-0.2-0.25-0.5-0.25-0.9v-1.35c0-0.19,0.02-0.36,0.06-0.51
		c0.04-0.14,0.1-0.27,0.18-0.37c0.08-0.1,0.19-0.18,0.33-0.24c0.14-0.05,0.3-0.08,0.5-0.08c0.38,0,0.65,0.1,0.81,0.3
		c0.16,0.2,0.25,0.5,0.25,0.89v1.35c0,0.19-0.02,0.36-0.06,0.5c-0.04,0.15-0.1,0.27-0.18,0.38c-0.08,0.11-0.19,0.19-0.33,0.24
		C38.26,14.41,38.09,14.43,37.9,14.43 M37.74,13.91c0.05,0.02,0.1,0.03,0.17,0.03c0.06,0,0.12-0.01,0.17-0.03
		c0.05-0.02,0.08-0.04,0.11-0.08c0.03-0.03,0.05-0.07,0.06-0.12c0.02-0.05,0.03-0.1,0.03-0.15c0.01-0.05,0.01-0.11,0.01-0.18v-1.66
		c0-0.09,0-0.16-0.01-0.22c-0.01-0.06-0.03-0.11-0.05-0.17c-0.03-0.05-0.06-0.09-0.12-0.12c-0.05-0.03-0.12-0.04-0.2-0.04
		c-0.08,0-0.15,0.01-0.2,0.04c-0.05,0.03-0.09,0.06-0.12,0.12c-0.03,0.05-0.04,0.11-0.05,0.17c-0.01,0.06-0.01,0.13-0.01,0.22v1.66
		c0,0.07,0,0.13,0.01,0.18c0.01,0.05,0.02,0.1,0.03,0.15c0.02,0.05,0.04,0.09,0.06,0.12C37.65,13.87,37.69,13.89,37.74,13.91"/>
	<polygon class="st1" points="39.45,14.39 39.45,10.72 39.91,10.72 40.81,12.8 40.81,10.72 41.36,10.72 41.36,14.39 40.92,14.39 
		40.01,12.21 40.01,14.39 	"/>
	<polygon class="st1" points="41.91,14.39 41.91,10.72 43.44,10.72 43.44,11.2 42.57,11.2 42.57,12.25 43.26,12.25 43.26,12.72 
		42.57,12.72 42.57,13.93 43.45,13.93 43.45,14.39 	"/>
	<path class="st1" d="M44.76,14.43c-0.65,0-0.98-0.37-1.02-1.12l0.58-0.12c0.01,0.48,0.15,0.73,0.42,0.73c0.1,0,0.18-0.03,0.23-0.09
		c0.05-0.06,0.07-0.15,0.07-0.25c0-0.1-0.02-0.2-0.06-0.28c-0.04-0.08-0.08-0.15-0.13-0.21c-0.05-0.05-0.12-0.12-0.21-0.2
		l-0.48-0.42c-0.14-0.12-0.25-0.25-0.32-0.39c-0.07-0.13-0.1-0.3-0.1-0.5c0-0.28,0.08-0.5,0.25-0.66c0.17-0.16,0.4-0.24,0.69-0.24
		c0.13,0,0.25,0.01,0.36,0.05c0.1,0.03,0.19,0.08,0.26,0.14c0.07,0.06,0.12,0.13,0.17,0.22c0.04,0.09,0.08,0.18,0.1,0.27
		c0.02,0.09,0.04,0.2,0.05,0.31l-0.57,0.11c0-0.07-0.01-0.14-0.01-0.19c-0.01-0.05-0.02-0.11-0.03-0.17
		c-0.02-0.06-0.04-0.1-0.06-0.14c-0.03-0.04-0.06-0.06-0.1-0.08c-0.04-0.02-0.09-0.03-0.15-0.02c-0.1,0.01-0.17,0.04-0.23,0.1
		c-0.05,0.06-0.08,0.14-0.08,0.24c0,0.12,0.02,0.21,0.07,0.29c0.05,0.08,0.12,0.16,0.22,0.24l0.48,0.42
		c0.08,0.07,0.15,0.14,0.21,0.21c0.06,0.07,0.12,0.15,0.17,0.23c0.05,0.09,0.1,0.18,0.12,0.29c0.03,0.1,0.04,0.22,0.04,0.33
		c0,0.27-0.08,0.48-0.25,0.65C45.26,14.35,45.03,14.43,44.76,14.43"/>
	<path class="st1" d="M17.57,20.42c-0.65,0-0.98-0.37-1.02-1.12l0.58-0.12c0.01,0.48,0.15,0.73,0.42,0.73c0.1,0,0.18-0.03,0.23-0.09
		c0.05-0.06,0.07-0.15,0.07-0.25c0-0.1-0.02-0.2-0.06-0.28c-0.04-0.08-0.08-0.15-0.13-0.21c-0.05-0.05-0.12-0.12-0.21-0.2
		l-0.48-0.42c-0.14-0.12-0.25-0.25-0.32-0.39c-0.07-0.13-0.1-0.3-0.1-0.5c0-0.28,0.08-0.51,0.25-0.66c0.17-0.16,0.4-0.24,0.69-0.24
		c0.13,0,0.25,0.01,0.36,0.05c0.1,0.03,0.19,0.08,0.26,0.14c0.07,0.06,0.12,0.13,0.17,0.22c0.04,0.09,0.08,0.18,0.1,0.27
		c0.02,0.09,0.04,0.2,0.05,0.31l-0.57,0.11c0-0.07-0.01-0.14-0.01-0.19c-0.01-0.05-0.02-0.11-0.03-0.17
		c-0.02-0.06-0.04-0.1-0.06-0.14c-0.03-0.04-0.06-0.06-0.1-0.08c-0.04-0.02-0.09-0.03-0.15-0.02c-0.1,0.01-0.17,0.04-0.23,0.1
		c-0.05,0.06-0.08,0.14-0.08,0.24c0,0.12,0.02,0.22,0.07,0.29c0.05,0.08,0.12,0.16,0.22,0.24l0.48,0.42
		c0.08,0.07,0.15,0.14,0.21,0.21c0.06,0.07,0.12,0.15,0.17,0.23c0.05,0.09,0.1,0.18,0.12,0.29c0.03,0.1,0.04,0.22,0.04,0.33
		c0,0.27-0.08,0.48-0.25,0.65C18.07,20.34,17.84,20.42,17.57,20.42"/>
	<path class="st1" d="M19.88,20.42c-0.38,0-0.65-0.1-0.81-0.31c-0.16-0.2-0.25-0.5-0.25-0.9v-1.35c0-0.19,0.02-0.36,0.06-0.51
		c0.04-0.14,0.1-0.27,0.18-0.37c0.08-0.1,0.19-0.18,0.33-0.24c0.14-0.05,0.3-0.08,0.5-0.08c0.38,0,0.65,0.1,0.81,0.3
		c0.16,0.2,0.25,0.5,0.25,0.89v1.35c0,0.19-0.02,0.36-0.06,0.5c-0.04,0.15-0.1,0.27-0.18,0.38c-0.08,0.11-0.19,0.19-0.33,0.24
		C20.23,20.4,20.07,20.42,19.88,20.42 M19.71,19.9c0.05,0.02,0.1,0.03,0.17,0.03c0.06,0,0.12-0.01,0.17-0.03
		c0.05-0.02,0.08-0.04,0.11-0.08c0.03-0.03,0.05-0.07,0.06-0.12c0.02-0.05,0.03-0.1,0.03-0.15c0.01-0.05,0.01-0.11,0.01-0.18v-1.66
		c0-0.09,0-0.16-0.01-0.22c-0.01-0.06-0.03-0.11-0.05-0.17c-0.03-0.05-0.06-0.09-0.12-0.12c-0.05-0.03-0.12-0.04-0.2-0.04
		c-0.08,0-0.15,0.01-0.2,0.04c-0.05,0.03-0.09,0.06-0.12,0.12c-0.02,0.05-0.04,0.11-0.05,0.17c-0.01,0.06-0.01,0.13-0.01,0.22v1.66
		c0,0.07,0,0.13,0.01,0.18c0.01,0.05,0.02,0.1,0.03,0.15c0.02,0.05,0.04,0.09,0.06,0.12C19.63,19.85,19.66,19.88,19.71,19.9
		 M19.7,16.4l0.27-0.9h0.63l-0.54,0.9H19.7z"/>
	<polygon class="st1" points="21.42,20.38 21.42,16.71 22.09,16.71 22.09,19.92 22.96,19.92 22.96,20.38 	"/>
	<rect x="23.34" y="16.71" class="st1" width="0.66" height="3.66"/>
	<path class="st1" d="M24.56,20.38v-3.66h0.85c0.22,0,0.41,0.02,0.56,0.07c0.15,0.04,0.27,0.11,0.36,0.21
		c0.09,0.1,0.15,0.21,0.19,0.35c0.04,0.14,0.06,0.31,0.06,0.51v1.32c0,0.21-0.02,0.39-0.06,0.53c-0.04,0.15-0.1,0.27-0.19,0.37
		c-0.09,0.1-0.2,0.18-0.35,0.22c-0.15,0.05-0.33,0.07-0.54,0.07H24.56z M25.23,19.91h0.19c0.07,0,0.12-0.01,0.17-0.02
		c0.05-0.01,0.09-0.03,0.13-0.04c0.03-0.02,0.06-0.04,0.09-0.08c0.02-0.04,0.04-0.07,0.05-0.1c0.01-0.03,0.02-0.08,0.03-0.14
		c0.01-0.06,0.01-0.12,0.01-0.16c0-0.04,0-0.11,0-0.2v-1.34c0-0.09,0-0.16,0-0.21c0-0.05-0.01-0.11-0.02-0.16
		c-0.01-0.05-0.03-0.1-0.05-0.12c-0.02-0.03-0.05-0.06-0.08-0.08c-0.04-0.02-0.08-0.04-0.13-0.05c-0.05-0.01-0.12-0.01-0.19-0.01
		h-0.18V19.91z"/>
	<path class="st1" d="M26.82,20.38l0.74-3.66h0.7l0.74,3.66h-0.62l-0.15-0.85H27.6l-0.15,0.85H26.82z M27.67,19.09h0.49l-0.25-1.51
		L27.67,19.09z"/>
	<path class="st1" d="M30.29,20.42c-0.65,0-0.98-0.37-1.02-1.12l0.58-0.12c0.01,0.48,0.15,0.73,0.42,0.73c0.1,0,0.18-0.03,0.23-0.09
		c0.05-0.06,0.07-0.15,0.07-0.25c0-0.1-0.02-0.2-0.06-0.28c-0.04-0.08-0.08-0.15-0.13-0.21c-0.05-0.05-0.12-0.12-0.21-0.2
		l-0.48-0.42c-0.14-0.12-0.25-0.25-0.32-0.39c-0.07-0.13-0.1-0.3-0.1-0.5c0-0.28,0.08-0.51,0.25-0.66c0.17-0.16,0.4-0.24,0.69-0.24
		c0.13,0,0.25,0.01,0.36,0.05c0.1,0.03,0.19,0.08,0.26,0.14c0.07,0.06,0.12,0.13,0.17,0.22c0.04,0.09,0.08,0.18,0.1,0.27
		c0.02,0.09,0.04,0.2,0.05,0.31l-0.57,0.11c0-0.07-0.01-0.14-0.01-0.19c-0.01-0.05-0.02-0.11-0.03-0.17
		c-0.02-0.06-0.04-0.1-0.06-0.14c-0.03-0.04-0.06-0.06-0.1-0.08c-0.04-0.02-0.09-0.03-0.15-0.02c-0.1,0.01-0.17,0.04-0.23,0.1
		c-0.05,0.06-0.08,0.14-0.08,0.24c0,0.12,0.02,0.22,0.07,0.29c0.05,0.08,0.12,0.16,0.22,0.24l0.48,0.42
		c0.08,0.07,0.15,0.14,0.21,0.21c0.06,0.07,0.12,0.15,0.17,0.23c0.05,0.09,0.1,0.18,0.12,0.29c0.03,0.1,0.04,0.22,0.04,0.33
		c0,0.27-0.08,0.48-0.25,0.65C30.79,20.34,30.57,20.42,30.29,20.42"/>
	<path class="st1" d="M33.79,22.68c0,0-0.49,0.65-0.35,1.29c0.14,0.64,0.87,1.01,0.87,1.01s0.49-0.65,0.35-1.29
		C34.51,23.05,33.79,22.68,33.79,22.68"/>
	<path class="st1" d="M32.99,26.4c0,0,0.49-0.65,0.35-1.29c-0.14-0.64-0.87-1.01-0.87-1.01s-0.49,0.65-0.35,1.29
		C32.27,26.02,32.99,26.4,32.99,26.4"/>
	<path class="st1" d="M35,25.7c0,0,0.52,0.52,1.11,0.47s1.03-0.66,1.03-0.66s-0.52-0.52-1.11-0.47C35.44,25.09,35,25.7,35,25.7"/>
	<path class="st1" d="M35.85,22.91c-0.48,0.49-0.41,1.35-0.41,1.35s0.85,0.07,1.33-0.41c0.48-0.49,0.41-1.35,0.41-1.35
		S36.33,22.42,35.85,22.91"/>
	<path class="st1" d="M34.79,27.63c0.59,0.07,1.14-0.44,1.14-0.44s-0.4-0.62-0.99-0.69c-0.59-0.07-1.14,0.44-1.14,0.44
		S34.21,27.57,34.79,27.63"/>
	<path class="st1" d="M35.32,37.08h-4.39c-0.34,0-0.62,0.28-0.62,0.62c0,0.34,0.28,0.62,0.62,0.62h4.39c0.34,0,0.62-0.28,0.62-0.62
		C35.94,37.36,35.66,37.08,35.32,37.08"/>
	<path class="st1" d="M35.32,43.93h-4.39c-0.34,0-0.62,0.28-0.62,0.62c0,0.34,0.28,0.62,0.62,0.62h4.39c0.34,0,0.62-0.28,0.62-0.62
		C35.94,44.21,35.66,43.93,35.32,43.93"/>
	<path class="st1" d="M15.56,35.57c-0.1-0.03-0.21-0.06-0.31-0.08C15.26,35.5,15.37,35.53,15.56,35.57"/>
	<path class="st1" d="M35.16,38.76h-4.07c-0.2,0-0.35,0.16-0.35,0.35v1.23l-2.66,0.29l-3.88-0.09v-2.37
		c0.52-0.07,1.03-0.17,1.54-0.31c3.74-1.05,4.55-3.38,4.47-5.52c-0.08-2.18,0.62-3.02,1.62-3.4c0.29-0.11,0.57-0.18,0.83-0.22
		c0.01,0.53,0.12,1.16,0.36,1.9c0.09-0.01,0.18-0.01,0.27-0.02c-0.25-0.76-0.36-1.38-0.37-1.91c0.52-0.06,0.89-0.03,0.89-0.03
		s-0.35-0.19-0.84-0.6c0.17-1.03,0.78-1.66,1.41-2.31c0.35-0.36,0.71-0.72,0.99-1.16l-0.22-0.14c-0.27,0.42-0.62,0.77-0.96,1.12
		c-0.62,0.63-1.24,1.28-1.45,2.3c-0.2-0.18-0.42-0.4-0.64-0.64c-0.92-1.03-2.11-0.27-3.8,1.3c-1.69,1.57-3.82,1.63-5.9-0.5
		c-2.74-2.81-5.14-2.79-6.78-2.63c1.12,0.48,1.51,1.53,2.08,4.19c0.6,2.8,2.1,4.06,4.15,4.24c-0.95,0.15-1.2,0.29-2.73,1.34
		c-1.2,0.82-2.88,0.56-3.56,0.41c1.25,0.39,2.73,1.7,4.06,2.16c0.77,0.27,1.59,0.43,2.42,0.5v2.27l-7.36-0.16v1.58l13.4-0.3
		l2.66,0.29v1.23c0,0.19,0.16,0.35,0.35,0.35h4.07c0.2,0,0.35-0.16,0.35-0.35v-4.04C35.51,38.92,35.35,38.76,35.16,38.76
		 M22.68,38.26c0.29,0.01,0.58,0,0.87-0.02v2.3l-0.87-0.02V38.26z"/>
	<path class="st1" d="M14.3,41.66c0,0.33-0.23,0.6-0.52,0.6h-0.31c-0.29,0-0.52-0.27-0.52-0.6v-1.09c0-0.33,0.23-0.61,0.52-0.61
		h0.31c0.29,0,0.52,0.27,0.52,0.61V41.66z"/>
</g>
</svg>
