<?xml version="1.0" encoding="utf-8"?>
<!-- Generator: Adobe Illustrator 26.5.0, SVG Export Plug-In . SVG Version: 6.00 Build 0)  -->
<svg version="1.1" id="Capa_1" xmlns="http://www.w3.org/2000/svg" xmlns:xlink="http://www.w3.org/1999/xlink" x="0px" y="0px"
	 viewBox="0 0 51.02 51.02" style="enable-background:new 0 0 51.02 51.02;" xml:space="preserve">
<style type="text/css">
	.st0{fill:#E5273C;}
	.st1{fill:#FFFFFF;}
	.st2{fill:none;stroke:#FFFFFF;stroke-width:0.5952;stroke-linecap:round;stroke-miterlimit:10;}
	.st3{fill:#FCC30C;}
	.st4{fill:#A31B43;}
	.st5{fill:#F59C2D;}
	.st6{fill:#ED692F;}
	.st7{fill:#DDA73A;}
	.st8{fill:#4E9F38;}
	.st9{fill:#C51D2E;}
	.st10{fill:#E8422F;}
	.st11{fill:#2EBCE1;}
	.st12{fill:#DE1868;}
	.st13{fill:#BE8B30;}
	.st14{fill:#61B235;}
	.st15{fill:#02699F;}
	.st16{fill:#1896D4;}
	.st17{fill:#3F7F45;}
	.st18{fill:#1A496A;}
</style>
<g>
	<rect x="0.37" y="0.37" class="st12" width="50.29" height="50.29"/>
	<path class="st1" d="M4.61,6.64c-0.09,0.05-0.34,0.15-0.76,0.3C3.52,7.04,3.31,7.12,3.22,7.16V5.79c0.27-0.1,0.59-0.26,0.98-0.47
		s0.65-0.41,0.81-0.58h1.43v9.59H4.61V6.64z"/>
	<path class="st1" d="M8.05,13.74c-0.44-0.5-0.66-1.17-0.66-2.02v-4.3c0-0.88,0.21-1.56,0.64-2.07c0.43-0.5,1.07-0.75,1.93-0.75
		c0.85,0,1.49,0.25,1.92,0.75c0.43,0.5,0.64,1.19,0.64,2.07v4.3c0,0.84-0.22,1.51-0.66,2.01c-0.44,0.51-1.07,0.76-1.89,0.76
		C9.12,14.5,8.49,14.25,8.05,13.74 M10.66,11.69V7.46c0-0.36-0.05-0.65-0.14-0.89c-0.09-0.24-0.28-0.36-0.56-0.36
		c-0.3,0-0.49,0.12-0.58,0.35C9.29,6.8,9.25,7.1,9.25,7.46v4.23c0,0.8,0.24,1.2,0.71,1.2C10.43,12.89,10.66,12.49,10.66,11.69"/>
	<path class="st1" d="M16.3,8.4V4.74h0.84c0.19,0,0.36,0.02,0.5,0.05c0.14,0.03,0.26,0.08,0.36,0.16c0.1,0.07,0.18,0.18,0.23,0.3
		c0.05,0.13,0.08,0.28,0.08,0.47c0,0.23-0.03,0.42-0.1,0.56c-0.07,0.15-0.18,0.25-0.34,0.32l0.51,1.81H17.7l-0.44-1.67h-0.3V8.4
		H16.3z M16.97,6.3h0.16c0.2,0,0.34-0.04,0.42-0.13c0.08-0.08,0.13-0.23,0.13-0.43c0-0.2-0.04-0.34-0.11-0.42
		c-0.07-0.09-0.2-0.13-0.4-0.13h-0.2V6.3z"/>
	<polygon class="st1" points="18.69,8.4 18.69,4.74 20.22,4.74 20.22,5.21 19.36,5.21 19.36,6.26 20.04,6.26 20.04,6.73 19.36,6.73 
		19.36,7.94 20.24,7.94 20.24,8.4 	"/>
	<path class="st1" d="M20.5,8.4V4.74h0.85c0.22,0,0.41,0.02,0.56,0.07c0.15,0.04,0.27,0.11,0.36,0.21c0.09,0.1,0.15,0.21,0.19,0.35
		c0.04,0.14,0.06,0.31,0.06,0.51V7.2c0,0.21-0.02,0.39-0.06,0.53C22.42,7.88,22.36,8,22.27,8.1c-0.09,0.1-0.2,0.18-0.35,0.22
		c-0.15,0.05-0.32,0.07-0.54,0.07H20.5z M21.17,7.93h0.19c0.07,0,0.12-0.01,0.17-0.02c0.05-0.01,0.09-0.03,0.13-0.04
		c0.03-0.02,0.06-0.04,0.09-0.08c0.02-0.04,0.04-0.07,0.05-0.1c0.01-0.03,0.02-0.08,0.03-0.14c0.01-0.06,0.01-0.12,0.01-0.16
		c0-0.04,0-0.11,0-0.2V5.85c0-0.09,0-0.16,0-0.21c0-0.05-0.01-0.11-0.02-0.16c-0.01-0.05-0.03-0.1-0.05-0.12
		c-0.02-0.03-0.05-0.06-0.09-0.08c-0.04-0.02-0.08-0.04-0.13-0.05c-0.05-0.01-0.12-0.01-0.19-0.01h-0.18V7.93z"/>
	<path class="st1" d="M23.89,8.44c-0.16,0-0.31-0.02-0.43-0.06c-0.12-0.04-0.22-0.09-0.3-0.16c-0.08-0.07-0.14-0.16-0.19-0.27
		c-0.05-0.11-0.08-0.23-0.1-0.35c-0.02-0.13-0.03-0.27-0.03-0.44V4.74h0.65v2.5c0,0.09,0,0.16,0.01,0.22c0,0.06,0.01,0.12,0.03,0.19
		c0.01,0.07,0.04,0.12,0.06,0.16c0.03,0.04,0.06,0.07,0.11,0.1c0.05,0.03,0.11,0.04,0.17,0.04c0.07,0,0.13-0.01,0.17-0.04
		c0.05-0.03,0.08-0.06,0.11-0.1c0.03-0.04,0.05-0.09,0.06-0.16c0.02-0.07,0.03-0.13,0.03-0.19c0-0.06,0.01-0.13,0.01-0.22v-2.5h0.65
		v2.43c0,0.17-0.01,0.31-0.03,0.44c-0.02,0.13-0.05,0.24-0.1,0.35c-0.05,0.11-0.11,0.2-0.18,0.27c-0.08,0.07-0.18,0.12-0.29,0.16
		C24.2,8.42,24.06,8.44,23.89,8.44"/>
	<path class="st1" d="M26.31,8.44c-0.16,0-0.3-0.02-0.42-0.06c-0.12-0.04-0.22-0.1-0.3-0.17c-0.08-0.07-0.14-0.16-0.19-0.26
		c-0.05-0.1-0.08-0.22-0.1-0.34s-0.03-0.26-0.03-0.41V5.94c0-0.16,0.01-0.3,0.03-0.42c0.02-0.12,0.06-0.24,0.1-0.34
		c0.05-0.11,0.11-0.19,0.19-0.26c0.08-0.07,0.18-0.12,0.3-0.16c0.12-0.04,0.26-0.06,0.42-0.06c0.18,0,0.34,0.02,0.47,0.07
		c0.13,0.05,0.23,0.12,0.31,0.21c0.08,0.09,0.13,0.2,0.16,0.33c0.03,0.13,0.05,0.27,0.05,0.44v0.31h-0.64V5.75
		c0-0.18-0.01-0.31-0.03-0.37c-0.04-0.12-0.13-0.19-0.28-0.2h-0.04c-0.06,0-0.11,0.01-0.15,0.02c-0.04,0.01-0.08,0.03-0.1,0.06
		c-0.03,0.03-0.05,0.06-0.06,0.09c-0.02,0.03-0.03,0.08-0.04,0.13c-0.01,0.05-0.01,0.1-0.02,0.15c0,0.04,0,0.1,0,0.17v1.55
		c0,0.21,0.03,0.37,0.08,0.46c0.05,0.09,0.15,0.14,0.29,0.14c0.05,0,0.09-0.01,0.12-0.02c0.04-0.01,0.07-0.03,0.09-0.04
		c0.02-0.02,0.04-0.04,0.06-0.07c0.02-0.03,0.03-0.06,0.04-0.09c0.01-0.03,0.02-0.06,0.02-0.11c0-0.05,0.01-0.09,0.01-0.12
		c0-0.03,0-0.08,0-0.14V7.03h0.64v0.3c0,0.14-0.01,0.26-0.03,0.37C27.25,7.8,27.22,7.91,27.17,8c-0.05,0.1-0.11,0.18-0.18,0.24
		c-0.07,0.06-0.17,0.11-0.28,0.15C26.59,8.43,26.46,8.44,26.31,8.44"/>
	<path class="st1" d="M28.62,8.44c-0.16,0-0.3-0.02-0.42-0.06c-0.12-0.04-0.22-0.1-0.3-0.17c-0.08-0.07-0.14-0.16-0.19-0.26
		c-0.05-0.1-0.08-0.22-0.1-0.34s-0.03-0.26-0.03-0.41V5.94c0-0.16,0.01-0.3,0.03-0.42c0.02-0.12,0.06-0.24,0.1-0.34
		c0.05-0.11,0.11-0.19,0.19-0.26c0.08-0.07,0.18-0.12,0.3-0.16c0.12-0.04,0.26-0.06,0.42-0.06c0.18,0,0.34,0.02,0.47,0.07
		c0.13,0.05,0.23,0.12,0.31,0.21c0.08,0.09,0.13,0.2,0.16,0.33c0.03,0.13,0.05,0.27,0.05,0.44v0.31h-0.64V5.75
		c0-0.18-0.01-0.31-0.03-0.37c-0.04-0.12-0.13-0.19-0.28-0.2h-0.04c-0.06,0-0.11,0.01-0.15,0.02c-0.04,0.01-0.08,0.03-0.1,0.06
		c-0.03,0.03-0.05,0.06-0.06,0.09c-0.02,0.03-0.03,0.08-0.04,0.13c-0.01,0.05-0.01,0.1-0.02,0.15c0,0.04,0,0.1,0,0.17v1.55
		c0,0.21,0.03,0.37,0.08,0.46c0.05,0.09,0.15,0.14,0.29,0.14c0.05,0,0.09-0.01,0.12-0.02c0.04-0.01,0.07-0.03,0.09-0.04
		c0.02-0.02,0.04-0.04,0.06-0.07c0.02-0.03,0.03-0.06,0.04-0.09c0.01-0.03,0.02-0.06,0.02-0.11c0-0.05,0.01-0.09,0.01-0.12
		c0-0.03,0-0.08,0-0.14V7.03h0.64v0.3c0,0.14-0.01,0.26-0.03,0.37C29.57,7.8,29.53,7.91,29.49,8c-0.05,0.1-0.11,0.18-0.18,0.24
		c-0.07,0.06-0.17,0.11-0.28,0.15C28.91,8.43,28.78,8.44,28.62,8.44"/>
	<rect x="29.98" y="4.74" class="st1" width="0.66" height="3.66"/>
	<path class="st1" d="M32.08,8.44c-0.38,0-0.65-0.1-0.81-0.31c-0.16-0.2-0.25-0.51-0.25-0.9V5.89c0-0.19,0.02-0.36,0.06-0.51
		c0.04-0.14,0.1-0.27,0.18-0.37c0.08-0.1,0.19-0.18,0.33-0.24c0.14-0.05,0.3-0.08,0.5-0.08c0.38,0,0.65,0.1,0.81,0.3
		c0.16,0.2,0.25,0.5,0.25,0.89v1.35c0,0.19-0.02,0.36-0.06,0.5c-0.04,0.15-0.1,0.27-0.18,0.38c-0.08,0.11-0.19,0.19-0.33,0.24
		C32.44,8.42,32.27,8.44,32.08,8.44 M31.91,7.92c0.05,0.02,0.1,0.03,0.17,0.03c0.06,0,0.12-0.01,0.17-0.03
		c0.05-0.02,0.08-0.04,0.11-0.08c0.03-0.03,0.05-0.07,0.06-0.12c0.02-0.05,0.03-0.1,0.03-0.15c0.01-0.05,0.01-0.11,0.01-0.18V5.73
		c0-0.09,0-0.16-0.01-0.22c-0.01-0.06-0.03-0.11-0.05-0.17c-0.03-0.05-0.06-0.09-0.12-0.12c-0.05-0.03-0.12-0.04-0.2-0.04
		c-0.08,0-0.15,0.01-0.2,0.04c-0.05,0.03-0.09,0.06-0.12,0.12c-0.03,0.05-0.04,0.11-0.05,0.17c-0.01,0.06-0.01,0.13-0.01,0.22v1.66
		c0,0.07,0,0.13,0.01,0.18c0.01,0.05,0.02,0.1,0.03,0.15c0.02,0.05,0.04,0.09,0.06,0.12C31.83,7.88,31.87,7.9,31.91,7.92 M31.9,4.42
		l0.27-0.9h0.63l-0.54,0.9H31.9z"/>
	<polygon class="st1" points="33.51,8.4 33.51,4.74 33.97,4.74 34.86,6.81 34.86,4.74 35.42,4.74 35.42,8.4 34.98,8.4 34.07,6.22 
		34.07,8.4 	"/>
	<path class="st1" d="M36.83,8.4V4.74h0.85c0.22,0,0.41,0.02,0.56,0.07c0.15,0.04,0.27,0.11,0.36,0.21c0.09,0.1,0.15,0.21,0.19,0.35
		c0.04,0.14,0.06,0.31,0.06,0.51V7.2c0,0.21-0.02,0.39-0.06,0.53C38.75,7.88,38.69,8,38.6,8.1c-0.09,0.1-0.2,0.18-0.35,0.22
		c-0.15,0.05-0.32,0.07-0.54,0.07H36.83z M37.5,7.93h0.19c0.07,0,0.12-0.01,0.17-0.02c0.05-0.01,0.09-0.03,0.13-0.04
		c0.03-0.02,0.06-0.04,0.09-0.08c0.02-0.04,0.04-0.07,0.05-0.1c0.01-0.03,0.02-0.08,0.03-0.14c0.01-0.06,0.01-0.12,0.01-0.16
		c0-0.04,0-0.11,0-0.2V5.85c0-0.09,0-0.16,0-0.21c0-0.05-0.01-0.11-0.02-0.16c-0.01-0.05-0.03-0.1-0.05-0.12
		c-0.02-0.03-0.05-0.06-0.09-0.08c-0.04-0.02-0.08-0.04-0.13-0.05c-0.05-0.01-0.12-0.01-0.19-0.01H37.5V7.93z"/>
	<polygon class="st1" points="39.22,8.4 39.22,4.74 40.75,4.74 40.75,5.21 39.89,5.21 39.89,6.26 40.57,6.26 40.57,6.73 39.89,6.73 
		39.89,7.94 40.77,7.94 40.77,8.4 	"/>
	<polygon class="st1" points="42.02,8.4 42.02,4.74 42.69,4.74 42.69,7.94 43.56,7.94 43.56,8.4 	"/>
	<path class="st1" d="M43.61,8.4l0.74-3.66h0.7l0.74,3.66h-0.62l-0.15-0.85h-0.63L44.24,8.4H43.61z M44.46,7.11h0.49l-0.24-1.51
		L44.46,7.11z"/>
	<path class="st1" d="M46.96,8.44c-0.65,0-0.98-0.37-1.02-1.12l0.58-0.12c0.01,0.48,0.15,0.73,0.42,0.73c0.1,0,0.18-0.03,0.23-0.09
		s0.07-0.15,0.07-0.25c0-0.1-0.02-0.19-0.06-0.28c-0.04-0.08-0.08-0.15-0.13-0.21c-0.05-0.05-0.12-0.12-0.21-0.2l-0.48-0.42
		c-0.14-0.12-0.25-0.25-0.32-0.39c-0.07-0.13-0.1-0.3-0.1-0.5c0-0.28,0.08-0.51,0.25-0.66c0.17-0.16,0.4-0.24,0.69-0.24
		c0.13,0,0.25,0.01,0.36,0.05c0.1,0.03,0.19,0.08,0.26,0.14c0.07,0.06,0.12,0.13,0.17,0.22c0.04,0.09,0.08,0.18,0.1,0.27
		c0.02,0.09,0.04,0.2,0.05,0.31L47.24,5.8c0-0.07-0.01-0.14-0.01-0.19c-0.01-0.05-0.02-0.11-0.03-0.17
		c-0.02-0.06-0.04-0.1-0.06-0.14c-0.03-0.03-0.06-0.06-0.1-0.08c-0.04-0.02-0.09-0.03-0.15-0.02c-0.1,0.01-0.17,0.04-0.23,0.1
		c-0.05,0.06-0.08,0.14-0.08,0.24c0,0.12,0.02,0.22,0.07,0.29c0.05,0.08,0.12,0.16,0.22,0.24l0.48,0.42
		c0.08,0.07,0.15,0.14,0.21,0.21c0.06,0.07,0.12,0.15,0.17,0.23c0.05,0.09,0.09,0.18,0.12,0.29c0.03,0.1,0.04,0.22,0.04,0.33
		c0,0.27-0.08,0.48-0.25,0.65C47.46,8.36,47.23,8.44,46.96,8.44"/>
	<path class="st1" d="M16.3,14.39v-3.66h0.85c0.22,0,0.41,0.02,0.55,0.07c0.15,0.04,0.27,0.11,0.36,0.21
		c0.09,0.1,0.15,0.21,0.19,0.35c0.04,0.14,0.06,0.31,0.06,0.51v1.32c0,0.21-0.02,0.39-0.06,0.53c-0.04,0.15-0.1,0.27-0.19,0.37
		c-0.09,0.1-0.2,0.18-0.35,0.22c-0.15,0.05-0.32,0.07-0.54,0.07H16.3z M16.97,13.92h0.19c0.07,0,0.12-0.01,0.17-0.02
		c0.05-0.01,0.09-0.03,0.13-0.04c0.03-0.02,0.06-0.04,0.09-0.08c0.02-0.04,0.04-0.07,0.05-0.1c0.01-0.03,0.02-0.08,0.03-0.14
		c0.01-0.06,0.01-0.12,0.01-0.16c0-0.04,0-0.11,0-0.2v-1.34c0-0.09,0-0.16,0-0.21c0-0.05-0.01-0.11-0.02-0.16
		c-0.01-0.05-0.03-0.1-0.05-0.12c-0.02-0.03-0.05-0.06-0.09-0.08c-0.04-0.02-0.08-0.04-0.13-0.05c-0.05-0.01-0.12-0.01-0.19-0.01
		h-0.18V13.92z"/>
	<polygon class="st1" points="18.68,14.39 18.68,10.72 20.22,10.72 20.22,11.2 19.35,11.2 19.35,12.25 20.04,12.25 20.04,12.72 
		19.35,12.72 19.35,13.93 20.23,13.93 20.23,14.39 	"/>
	<path class="st1" d="M21.42,14.43c-0.65,0-0.98-0.37-1.02-1.12l0.58-0.12c0.01,0.48,0.15,0.73,0.42,0.73c0.1,0,0.18-0.03,0.23-0.09
		c0.05-0.06,0.07-0.15,0.07-0.25c0-0.1-0.02-0.2-0.06-0.28c-0.04-0.08-0.08-0.15-0.13-0.21c-0.05-0.05-0.12-0.12-0.21-0.2
		l-0.48-0.42c-0.14-0.12-0.25-0.25-0.32-0.39c-0.07-0.13-0.1-0.3-0.1-0.5c0-0.28,0.08-0.5,0.25-0.66c0.17-0.16,0.4-0.24,0.69-0.24
		c0.13,0,0.25,0.01,0.36,0.05c0.1,0.03,0.19,0.08,0.26,0.14c0.07,0.06,0.12,0.13,0.17,0.22c0.04,0.09,0.08,0.18,0.1,0.27
		c0.02,0.09,0.04,0.2,0.05,0.31l-0.57,0.11c0-0.07-0.01-0.14-0.01-0.19c-0.01-0.05-0.02-0.11-0.03-0.17
		c-0.02-0.06-0.04-0.1-0.06-0.14c-0.03-0.04-0.06-0.06-0.1-0.08c-0.04-0.02-0.09-0.03-0.15-0.02c-0.1,0.01-0.17,0.04-0.23,0.1
		c-0.05,0.06-0.08,0.14-0.08,0.24c0,0.12,0.02,0.22,0.07,0.29c0.05,0.08,0.12,0.16,0.22,0.24l0.48,0.42
		c0.08,0.07,0.15,0.14,0.21,0.21c0.06,0.07,0.12,0.15,0.17,0.23c0.05,0.09,0.09,0.18,0.12,0.29c0.03,0.1,0.04,0.22,0.04,0.33
		c0,0.27-0.08,0.48-0.25,0.65C21.92,14.35,21.69,14.43,21.42,14.43"/>
	<rect x="22.63" y="10.72" class="st1" width="0.66" height="3.66"/>
	<path class="st1" d="M24.65,14.44c-0.35,0-0.6-0.11-0.75-0.32c-0.15-0.22-0.23-0.53-0.23-0.95v-1.19c0-0.21,0.02-0.39,0.05-0.55
		c0.03-0.15,0.09-0.29,0.17-0.4c0.08-0.11,0.19-0.2,0.32-0.26c0.14-0.06,0.31-0.09,0.5-0.09c0.36,0,0.62,0.09,0.78,0.27
		c0.16,0.18,0.24,0.45,0.24,0.81v0.18H25.1v-0.19c0-0.08,0-0.15-0.01-0.2c0-0.05-0.01-0.1-0.03-0.16c-0.01-0.05-0.03-0.09-0.06-0.12
		c-0.03-0.03-0.06-0.05-0.11-0.07c-0.05-0.02-0.1-0.03-0.17-0.03c-0.05,0-0.09,0.01-0.13,0.02c-0.04,0.01-0.07,0.03-0.1,0.05
		c-0.03,0.02-0.05,0.04-0.07,0.08c-0.02,0.03-0.03,0.07-0.04,0.1c-0.01,0.03-0.02,0.07-0.02,0.12c-0.01,0.05-0.01,0.09-0.01,0.13
		c0,0.04,0,0.09,0,0.15v1.48c0,0.22,0.03,0.38,0.08,0.49c0.05,0.1,0.16,0.15,0.31,0.15c0.08,0,0.15-0.01,0.2-0.04
		c0.05-0.03,0.1-0.08,0.13-0.14c0.03-0.06,0.05-0.13,0.06-0.21c0.01-0.08,0.02-0.17,0.02-0.29v-0.3h-0.4v-0.43h1v1.86h-0.43
		l-0.05-0.37C25.16,14.3,24.96,14.44,24.65,14.44"/>
	<path class="st1" d="M27.15,14.43c-0.16,0-0.31-0.02-0.43-0.06c-0.12-0.04-0.22-0.09-0.3-0.16c-0.08-0.07-0.14-0.16-0.19-0.27
		c-0.05-0.11-0.08-0.23-0.1-0.35c-0.02-0.13-0.03-0.27-0.03-0.44v-2.43h0.65v2.5c0,0.09,0,0.16,0.01,0.22
		c0,0.06,0.01,0.12,0.03,0.19c0.01,0.07,0.04,0.12,0.06,0.16c0.03,0.04,0.06,0.07,0.11,0.1c0.05,0.03,0.11,0.04,0.17,0.04
		c0.07,0,0.13-0.01,0.17-0.04c0.05-0.03,0.08-0.06,0.11-0.1c0.03-0.04,0.05-0.09,0.06-0.16c0.02-0.07,0.02-0.13,0.03-0.19
		c0-0.06,0.01-0.13,0.01-0.22v-2.5h0.65v2.43c0,0.17-0.01,0.31-0.03,0.44c-0.02,0.13-0.05,0.24-0.1,0.35
		c-0.05,0.11-0.11,0.2-0.18,0.27c-0.08,0.07-0.18,0.12-0.29,0.16C27.45,14.41,27.31,14.43,27.15,14.43"/>
	<path class="st1" d="M28.38,14.39l0.74-3.66h0.7l0.74,3.66h-0.62l-0.15-0.85h-0.63l-0.15,0.85H28.38z M29.24,13.1h0.49l-0.25-1.51
		L29.24,13.1z"/>
	<polygon class="st1" points="30.81,14.39 30.81,10.72 31.48,10.72 31.48,13.93 32.36,13.93 32.36,14.39 	"/>
	<path class="st1" d="M32.59,14.39v-3.66h0.85c0.22,0,0.41,0.02,0.56,0.07c0.15,0.04,0.27,0.11,0.36,0.21
		c0.09,0.1,0.15,0.21,0.19,0.35c0.04,0.14,0.06,0.31,0.06,0.51v1.32c0,0.21-0.02,0.39-0.06,0.53c-0.04,0.15-0.1,0.27-0.19,0.37
		c-0.09,0.1-0.2,0.18-0.35,0.22c-0.15,0.05-0.32,0.07-0.54,0.07H32.59z M33.26,13.92h0.19c0.07,0,0.12-0.01,0.17-0.02
		c0.05-0.01,0.09-0.03,0.13-0.04c0.03-0.02,0.06-0.04,0.09-0.08c0.02-0.04,0.04-0.07,0.05-0.1c0.01-0.03,0.02-0.08,0.03-0.14
		c0.01-0.06,0.01-0.12,0.01-0.16c0-0.04,0-0.11,0-0.2v-1.34c0-0.09,0-0.16,0-0.21c0-0.05-0.01-0.11-0.02-0.16
		c-0.01-0.05-0.03-0.1-0.05-0.12c-0.02-0.03-0.05-0.06-0.09-0.08c-0.04-0.02-0.08-0.04-0.13-0.05c-0.05-0.01-0.12-0.01-0.19-0.01
		h-0.18V13.92z"/>
	<path class="st1" d="M34.74,14.39l0.74-3.66h0.7l0.74,3.66H36.3l-0.15-0.85h-0.63l-0.15,0.85H34.74z M35.59,13.1h0.49l-0.25-1.51
		L35.59,13.1z"/>
	<path class="st1" d="M37.16,14.39v-3.66h0.85c0.22,0,0.41,0.02,0.56,0.07c0.15,0.04,0.27,0.11,0.36,0.21
		c0.09,0.1,0.15,0.21,0.19,0.35c0.04,0.14,0.06,0.31,0.06,0.51v1.32c0,0.21-0.02,0.39-0.06,0.53c-0.04,0.15-0.1,0.27-0.19,0.37
		c-0.09,0.1-0.2,0.18-0.35,0.22c-0.15,0.05-0.32,0.07-0.54,0.07H37.16z M37.83,13.92h0.19c0.07,0,0.12-0.01,0.17-0.02
		c0.05-0.01,0.09-0.03,0.13-0.04c0.03-0.02,0.06-0.04,0.09-0.08c0.02-0.04,0.04-0.07,0.05-0.1c0.01-0.03,0.02-0.08,0.03-0.14
		c0.01-0.06,0.01-0.12,0.01-0.16c0-0.04,0-0.11,0-0.2v-1.34c0-0.09,0-0.16,0-0.21c0-0.05-0.01-0.11-0.02-0.16
		c-0.01-0.05-0.03-0.1-0.05-0.12c-0.02-0.03-0.05-0.06-0.09-0.08c-0.04-0.02-0.08-0.04-0.13-0.05c-0.05-0.01-0.12-0.01-0.19-0.01
		h-0.18V13.92z"/>
	<polygon class="st1" points="39.55,14.39 39.55,10.72 41.08,10.72 41.08,11.2 40.22,11.2 40.22,12.25 40.9,12.25 40.9,12.72 
		40.22,12.72 40.22,13.93 41.09,13.93 41.09,14.39 	"/>
	<path class="st1" d="M42.29,14.43c-0.65,0-0.98-0.37-1.02-1.12l0.58-0.12c0.01,0.48,0.15,0.73,0.42,0.73c0.1,0,0.18-0.03,0.23-0.09
		c0.05-0.06,0.07-0.15,0.07-0.25c0-0.1-0.02-0.2-0.06-0.28c-0.04-0.08-0.08-0.15-0.13-0.21c-0.05-0.05-0.12-0.12-0.21-0.2
		l-0.48-0.42c-0.14-0.12-0.25-0.25-0.32-0.39c-0.07-0.13-0.1-0.3-0.1-0.5c0-0.28,0.08-0.5,0.25-0.66c0.17-0.16,0.4-0.24,0.69-0.24
		c0.13,0,0.25,0.01,0.36,0.05c0.1,0.03,0.19,0.08,0.26,0.14c0.07,0.06,0.12,0.13,0.17,0.22c0.04,0.09,0.08,0.18,0.1,0.27
		c0.02,0.09,0.04,0.2,0.05,0.31l-0.57,0.11c0-0.07-0.01-0.14-0.01-0.19c-0.01-0.05-0.02-0.11-0.03-0.17
		c-0.02-0.06-0.04-0.1-0.06-0.14c-0.03-0.04-0.06-0.06-0.1-0.08c-0.04-0.02-0.09-0.03-0.15-0.02c-0.1,0.01-0.17,0.04-0.23,0.1
		c-0.05,0.06-0.08,0.14-0.08,0.24c0,0.12,0.02,0.22,0.07,0.29c0.05,0.08,0.12,0.16,0.22,0.24l0.48,0.42
		c0.08,0.07,0.15,0.14,0.21,0.21c0.06,0.07,0.12,0.15,0.17,0.23c0.05,0.09,0.09,0.18,0.12,0.29c0.03,0.1,0.04,0.22,0.04,0.33
		c0,0.27-0.08,0.48-0.25,0.65C42.78,14.35,42.56,14.43,42.29,14.43"/>
	<path class="st1" d="M30.18,33.37h-9.26c-0.06,0-0.1,0.05-0.1,0.11v2.78c0,0.06,0.04,0.11,0.1,0.11h9.26c0.06,0,0.1-0.05,0.1-0.11
		v-2.78C30.28,33.42,30.24,33.37,30.18,33.37"/>
	<path class="st1" d="M30.18,27.44h-9.26c-0.06,0-0.1,0.05-0.1,0.11v2.78c0,0.06,0.04,0.11,0.1,0.11h9.26c0.06,0,0.1-0.05,0.1-0.11
		v-2.78C30.28,27.49,30.24,27.44,30.18,27.44"/>
	<path class="st1" d="M30.05,23.24l-4.45-4.45c-0.03-0.03-0.08-0.03-0.11,0l-4.45,4.45c-0.05,0.05-0.01,0.13,0.05,0.13h8.89
		C30.06,23.37,30.1,23.28,30.05,23.24"/>
	<path class="st1" d="M34.22,36.41l4.45-4.45c0.03-0.03,0.03-0.08,0-0.11l-4.45-4.45c-0.05-0.05-0.13-0.01-0.13,0.05v8.89
		C34.09,36.42,34.17,36.46,34.22,36.41"/>
	<path class="st1" d="M21.05,40.58l4.45,4.45c0.03,0.03,0.08,0.03,0.11,0l4.45-4.45c0.05-0.05,0.01-0.13-0.05-0.13H21.1
		C21.03,40.45,21,40.54,21.05,40.58"/>
	<path class="st1" d="M16.87,27.41l-4.45,4.45c-0.03,0.03-0.03,0.08,0,0.11l4.45,4.45c0.05,0.05,0.13,0.01,0.13-0.05v-8.89
		C17.01,27.4,16.92,27.36,16.87,27.41"/>
</g>
</svg>
