<?xml version="1.0" encoding="utf-8"?>
<!-- Generator: Adobe Illustrator 26.5.0, SVG Export Plug-In . SVG Version: 6.00 Build 0)  -->
<svg version="1.1" id="Capa_1" xmlns="http://www.w3.org/2000/svg" xmlns:xlink="http://www.w3.org/1999/xlink" x="0px" y="0px"
	 viewBox="0 0 51.02 51.02" style="enable-background:new 0 0 51.02 51.02;" xml:space="preserve">
<style type="text/css">
	.st0{fill:#E5273C;}
	.st1{fill:#FFFFFF;}
	.st2{fill:none;stroke:#FFFFFF;stroke-width:0.5952;stroke-linecap:round;stroke-miterlimit:10;}
	.st3{fill:#FCC30C;}
	.st4{fill:#A31B43;}
	.st5{fill:#F59C2D;}
	.st6{fill:#ED692F;}
	.st7{fill:#DDA73A;}
	.st8{fill:#4E9F38;}
	.st9{fill:#C51D2E;}
	.st10{fill:#E8422F;}
	.st11{fill:#2EBCE1;}
	.st12{fill:#DE1868;}
	.st13{fill:#BE8B30;}
	.st14{fill:#61B235;}
	.st15{fill:#02699F;}
	.st16{fill:#1896D4;}
	.st17{fill:#3F7F45;}
	.st18{fill:#1A496A;}
</style>
<g>
	<rect x="0.37" y="0.37" class="st5" width="50.29" height="50.29"/>
	<path class="st1" d="M4.72,6.64c-0.09,0.05-0.34,0.15-0.76,0.3C3.63,7.04,3.42,7.12,3.33,7.16V5.79c0.27-0.1,0.59-0.26,0.98-0.47
		c0.38-0.21,0.65-0.41,0.81-0.58h1.43v9.59H4.72V6.64z"/>
	<path class="st1" d="M8.73,6.64c-0.09,0.05-0.34,0.15-0.76,0.3C7.64,7.04,7.43,7.12,7.35,7.16V5.79c0.27-0.1,0.59-0.26,0.98-0.47
		c0.38-0.21,0.65-0.41,0.81-0.58h1.43v9.59H8.73V6.64z"/>
	<path class="st1" d="M15.37,8.44c-0.16,0-0.3-0.02-0.42-0.06c-0.12-0.04-0.22-0.1-0.3-0.17c-0.08-0.07-0.14-0.16-0.19-0.26
		c-0.05-0.1-0.08-0.22-0.1-0.34c-0.02-0.12-0.03-0.26-0.03-0.41V5.94c0-0.16,0.01-0.3,0.03-0.42c0.02-0.12,0.06-0.24,0.1-0.34
		c0.05-0.11,0.11-0.19,0.19-0.26c0.08-0.07,0.18-0.12,0.3-0.16c0.12-0.04,0.26-0.06,0.42-0.06c0.18,0,0.34,0.02,0.47,0.07
		c0.13,0.05,0.23,0.12,0.31,0.21c0.08,0.09,0.13,0.2,0.16,0.33c0.03,0.13,0.05,0.27,0.05,0.44v0.31h-0.64V5.75
		c0-0.18-0.01-0.31-0.03-0.37c-0.04-0.12-0.13-0.19-0.28-0.2h-0.03c-0.06,0-0.11,0.01-0.15,0.02c-0.04,0.01-0.08,0.03-0.1,0.06
		c-0.03,0.03-0.05,0.06-0.06,0.09c-0.02,0.03-0.03,0.08-0.04,0.13c-0.01,0.05-0.01,0.1-0.02,0.15c0,0.04,0,0.1,0,0.17v1.55
		c0,0.21,0.03,0.37,0.08,0.46c0.05,0.09,0.15,0.14,0.29,0.14c0.05,0,0.09-0.01,0.12-0.02c0.04-0.01,0.07-0.03,0.09-0.04
		c0.02-0.02,0.04-0.04,0.06-0.07c0.02-0.03,0.03-0.06,0.04-0.09c0.01-0.03,0.02-0.06,0.02-0.11c0-0.05,0.01-0.09,0.01-0.12
		c0-0.03,0-0.08,0-0.14V7.03h0.64v0.3c0,0.14-0.01,0.26-0.03,0.37C16.31,7.8,16.28,7.91,16.23,8c-0.05,0.1-0.11,0.18-0.18,0.24
		c-0.07,0.06-0.17,0.11-0.28,0.15C15.66,8.43,15.52,8.44,15.37,8.44"/>
	<rect x="16.66" y="4.74" class="st1" width="0.66" height="3.66"/>
	<path class="st1" d="M18.7,8.44c-0.16,0-0.31-0.02-0.43-0.06c-0.12-0.04-0.22-0.09-0.3-0.16c-0.08-0.07-0.14-0.16-0.19-0.27
		c-0.05-0.11-0.08-0.23-0.1-0.35c-0.02-0.13-0.03-0.27-0.03-0.44V4.74h0.65v2.5c0,0.09,0,0.16,0.01,0.22c0,0.06,0.01,0.12,0.03,0.19
		c0.01,0.07,0.04,0.12,0.06,0.16c0.03,0.04,0.06,0.07,0.11,0.1c0.05,0.03,0.11,0.04,0.17,0.04c0.07,0,0.13-0.01,0.17-0.04
		c0.05-0.03,0.08-0.06,0.11-0.1c0.03-0.04,0.05-0.09,0.06-0.16c0.02-0.07,0.03-0.13,0.03-0.19c0-0.06,0.01-0.13,0.01-0.22v-2.5h0.65
		v2.43c0,0.17-0.01,0.31-0.03,0.44c-0.02,0.13-0.05,0.24-0.1,0.35c-0.05,0.11-0.11,0.2-0.18,0.27c-0.08,0.07-0.18,0.12-0.29,0.16
		C19,8.42,18.86,8.44,18.7,8.44"/>
	<path class="st1" d="M20.06,8.4V4.74h0.85c0.22,0,0.41,0.02,0.56,0.07c0.15,0.04,0.27,0.11,0.36,0.21c0.09,0.1,0.15,0.21,0.19,0.35
		c0.04,0.14,0.06,0.31,0.06,0.51V7.2c0,0.21-0.02,0.39-0.06,0.53C21.98,7.88,21.91,8,21.83,8.1c-0.09,0.1-0.2,0.18-0.35,0.22
		c-0.15,0.05-0.33,0.07-0.54,0.07H20.06z M20.73,7.93h0.19c0.07,0,0.12-0.01,0.17-0.02c0.05-0.01,0.09-0.03,0.13-0.04
		c0.03-0.02,0.06-0.04,0.09-0.08c0.02-0.04,0.04-0.07,0.05-0.1c0.01-0.03,0.02-0.08,0.03-0.14c0.01-0.06,0.01-0.12,0.01-0.16
		c0-0.04,0-0.11,0-0.2V5.85c0-0.09,0-0.16,0-0.21c0-0.05-0.01-0.11-0.02-0.16c-0.01-0.05-0.03-0.1-0.05-0.12
		c-0.02-0.03-0.05-0.06-0.08-0.08c-0.04-0.02-0.08-0.04-0.13-0.05s-0.12-0.01-0.19-0.01h-0.18V7.93z"/>
	<path class="st1" d="M22.14,8.4l0.74-3.66h0.7l0.74,3.66H23.7l-0.15-0.85h-0.63L22.77,8.4H22.14z M22.99,7.11h0.49l-0.25-1.51
		L22.99,7.11z"/>
	<path class="st1" d="M24.49,8.4V4.74h0.85c0.22,0,0.41,0.02,0.56,0.07c0.15,0.04,0.27,0.11,0.36,0.21c0.09,0.1,0.15,0.21,0.19,0.35
		c0.04,0.14,0.06,0.31,0.06,0.51V7.2c0,0.21-0.02,0.39-0.06,0.53C26.41,7.88,26.35,8,26.26,8.1c-0.09,0.1-0.2,0.18-0.35,0.22
		c-0.15,0.05-0.32,0.07-0.54,0.07H24.49z M25.16,7.93h0.19c0.07,0,0.12-0.01,0.17-0.02c0.05-0.01,0.09-0.03,0.13-0.04
		c0.03-0.02,0.06-0.04,0.09-0.08c0.02-0.04,0.04-0.07,0.05-0.1c0.01-0.03,0.02-0.08,0.03-0.14c0.01-0.06,0.01-0.12,0.01-0.16
		c0-0.04,0-0.11,0-0.2V5.85c0-0.09,0-0.16,0-0.21c0-0.05-0.01-0.11-0.02-0.16c-0.01-0.05-0.03-0.1-0.05-0.12
		c-0.02-0.03-0.05-0.06-0.08-0.08c-0.04-0.02-0.08-0.04-0.13-0.05s-0.12-0.01-0.19-0.01h-0.18V7.93z"/>
	<polygon class="st1" points="26.81,8.4 26.81,4.74 28.35,4.74 28.35,5.21 27.48,5.21 27.48,6.26 28.17,6.26 28.17,6.73 27.48,6.73 
		27.48,7.94 28.36,7.94 28.36,8.4 	"/>
	<path class="st1" d="M29.48,8.44c-0.65,0-0.98-0.37-1.02-1.12l0.58-0.12c0.01,0.48,0.15,0.73,0.42,0.73c0.1,0,0.18-0.03,0.23-0.09
		c0.05-0.06,0.07-0.15,0.07-0.25c0-0.1-0.02-0.19-0.06-0.28c-0.04-0.08-0.08-0.15-0.13-0.21c-0.05-0.05-0.12-0.12-0.21-0.2
		l-0.48-0.42c-0.14-0.12-0.25-0.25-0.32-0.39c-0.07-0.13-0.1-0.3-0.1-0.5c0-0.28,0.08-0.51,0.25-0.66c0.17-0.16,0.4-0.24,0.69-0.24
		c0.13,0,0.25,0.01,0.36,0.05c0.1,0.03,0.19,0.08,0.26,0.14c0.07,0.06,0.12,0.13,0.17,0.22c0.04,0.09,0.08,0.18,0.1,0.27
		c0.02,0.09,0.04,0.2,0.05,0.31L29.76,5.8c0-0.07-0.01-0.14-0.01-0.19c-0.01-0.05-0.02-0.11-0.03-0.17
		c-0.02-0.06-0.04-0.1-0.06-0.14c-0.03-0.03-0.06-0.06-0.1-0.08C29.5,5.2,29.45,5.19,29.4,5.2c-0.1,0.01-0.17,0.04-0.23,0.1
		c-0.05,0.06-0.08,0.14-0.08,0.24c0,0.12,0.02,0.22,0.07,0.29c0.05,0.08,0.12,0.16,0.22,0.24l0.48,0.42
		c0.08,0.07,0.15,0.14,0.21,0.21c0.06,0.07,0.12,0.15,0.17,0.23c0.05,0.09,0.1,0.18,0.12,0.29c0.03,0.1,0.04,0.22,0.04,0.33
		c0,0.27-0.08,0.48-0.25,0.65C29.98,8.36,29.76,8.44,29.48,8.44"/>
	<polygon class="st1" points="32.04,8.4 32.04,7.01 31.29,4.74 31.91,4.74 32.37,6.19 32.8,4.74 33.42,4.74 32.67,7.01 32.67,8.4 	
		"/>
	<path class="st1" d="M15.37,14.43c-0.16,0-0.3-0.02-0.42-0.06c-0.12-0.04-0.22-0.1-0.3-0.17c-0.08-0.07-0.14-0.16-0.19-0.26
		c-0.05-0.1-0.08-0.22-0.1-0.34c-0.02-0.12-0.03-0.26-0.03-0.41v-1.28c0-0.16,0.01-0.3,0.03-0.42c0.02-0.12,0.06-0.24,0.1-0.34
		c0.05-0.11,0.11-0.19,0.19-0.26s0.18-0.12,0.3-0.16c0.12-0.04,0.26-0.06,0.42-0.06c0.18,0,0.34,0.02,0.47,0.07
		c0.13,0.05,0.23,0.12,0.31,0.21c0.08,0.09,0.13,0.2,0.16,0.33c0.03,0.13,0.05,0.27,0.05,0.44v0.31h-0.64v-0.31
		c0-0.18-0.01-0.31-0.03-0.37c-0.04-0.12-0.13-0.19-0.28-0.2h-0.03c-0.06,0-0.11,0.01-0.15,0.02c-0.04,0.01-0.08,0.03-0.1,0.06
		c-0.03,0.03-0.05,0.06-0.06,0.09c-0.02,0.03-0.03,0.07-0.04,0.13c-0.01,0.05-0.01,0.1-0.02,0.15c0,0.04,0,0.1,0,0.17v1.55
		c0,0.22,0.03,0.37,0.08,0.46c0.05,0.09,0.15,0.14,0.29,0.14c0.05,0,0.09-0.01,0.12-0.02c0.04-0.01,0.07-0.03,0.09-0.04
		c0.02-0.02,0.04-0.04,0.06-0.07c0.02-0.03,0.03-0.06,0.04-0.09c0.01-0.03,0.02-0.07,0.02-0.11c0-0.05,0.01-0.09,0.01-0.12
		c0-0.03,0-0.08,0-0.14v-0.33h0.64v0.3c0,0.14-0.01,0.26-0.03,0.37c-0.02,0.11-0.05,0.21-0.1,0.31c-0.05,0.1-0.11,0.18-0.18,0.24
		c-0.07,0.06-0.17,0.11-0.28,0.15C15.66,14.41,15.52,14.43,15.37,14.43"/>
	<path class="st1" d="M17.63,14.43c-0.38,0-0.65-0.1-0.81-0.31c-0.16-0.2-0.25-0.5-0.25-0.9v-1.35c0-0.19,0.02-0.36,0.06-0.51
		c0.04-0.14,0.1-0.27,0.18-0.37c0.08-0.1,0.19-0.18,0.33-0.24c0.14-0.05,0.3-0.08,0.5-0.08c0.38,0,0.65,0.1,0.81,0.3
		c0.16,0.2,0.25,0.5,0.25,0.89v1.35c0,0.19-0.02,0.36-0.06,0.5c-0.04,0.15-0.1,0.27-0.18,0.38c-0.08,0.11-0.19,0.19-0.33,0.24
		C17.99,14.41,17.83,14.43,17.63,14.43 M17.47,13.91c0.05,0.02,0.1,0.03,0.17,0.03s0.12-0.01,0.17-0.03
		c0.05-0.02,0.08-0.04,0.11-0.08c0.03-0.03,0.05-0.07,0.06-0.12c0.02-0.05,0.03-0.1,0.03-0.15c0-0.05,0.01-0.11,0.01-0.18v-1.66
		c0-0.09,0-0.16-0.01-0.22c-0.01-0.06-0.03-0.11-0.05-0.17c-0.03-0.05-0.06-0.09-0.12-0.12c-0.05-0.03-0.12-0.04-0.2-0.04
		c-0.08,0-0.15,0.01-0.2,0.04c-0.05,0.03-0.09,0.06-0.12,0.12c-0.03,0.05-0.04,0.11-0.05,0.17c-0.01,0.06-0.01,0.13-0.01,0.22v1.66
		c0,0.07,0,0.13,0.01,0.18c0.01,0.05,0.02,0.1,0.03,0.15c0.02,0.05,0.04,0.09,0.06,0.12C17.38,13.86,17.42,13.89,17.47,13.91"/>
	<polygon class="st1" points="18.99,14.39 19.05,10.72 19.73,10.72 20.26,13.3 20.81,10.72 21.48,10.72 21.54,14.39 21.04,14.39 
		20.99,11.86 20.46,14.39 20.07,14.39 19.54,11.86 19.5,14.39 	"/>
	<path class="st1" d="M22.9,14.43c-0.16,0-0.31-0.02-0.43-0.06c-0.12-0.04-0.22-0.09-0.3-0.16c-0.08-0.07-0.14-0.16-0.19-0.27
		c-0.05-0.11-0.08-0.23-0.1-0.35c-0.02-0.13-0.03-0.27-0.03-0.44v-2.43h0.65v2.5c0,0.09,0,0.16,0.01,0.22
		c0,0.06,0.01,0.12,0.03,0.19c0.01,0.07,0.04,0.12,0.06,0.16c0.03,0.04,0.06,0.07,0.11,0.1c0.05,0.03,0.11,0.04,0.17,0.04
		c0.07,0,0.13-0.01,0.17-0.04c0.05-0.03,0.08-0.06,0.11-0.1c0.03-0.04,0.05-0.09,0.06-0.16s0.03-0.13,0.03-0.19
		c0-0.06,0.01-0.13,0.01-0.22v-2.5h0.65v2.43c0,0.17-0.01,0.31-0.03,0.44c-0.02,0.13-0.05,0.24-0.1,0.35
		c-0.05,0.11-0.11,0.2-0.18,0.27c-0.08,0.07-0.18,0.12-0.29,0.16C23.2,14.41,23.06,14.43,22.9,14.43"/>
	<polygon class="st1" points="24.26,14.39 24.26,10.72 24.72,10.72 25.62,12.8 25.62,10.72 26.17,10.72 26.17,14.39 25.73,14.39 
		24.83,12.21 24.83,14.39 	"/>
	<rect x="26.55" y="10.72" class="st1" width="0.66" height="3.66"/>
	<path class="st1" d="M27.59,14.39v-3.66h0.85c0.22,0,0.41,0.02,0.55,0.07c0.15,0.04,0.27,0.11,0.36,0.21
		c0.09,0.1,0.15,0.21,0.19,0.35c0.04,0.14,0.06,0.31,0.06,0.51v1.32c0,0.21-0.02,0.39-0.06,0.53c-0.04,0.15-0.1,0.27-0.19,0.37
		c-0.09,0.1-0.2,0.18-0.35,0.22c-0.15,0.05-0.32,0.07-0.54,0.07H27.59z M28.26,13.92h0.19c0.07,0,0.12-0.01,0.17-0.02
		c0.05-0.01,0.09-0.03,0.13-0.04c0.03-0.02,0.06-0.04,0.09-0.08c0.02-0.04,0.04-0.07,0.05-0.1c0.01-0.03,0.02-0.08,0.03-0.14
		c0.01-0.06,0.01-0.12,0.01-0.16c0-0.04,0-0.11,0-0.2v-1.34c0-0.09,0-0.16,0-0.21c0-0.05-0.01-0.11-0.02-0.16
		c-0.01-0.05-0.03-0.1-0.05-0.12c-0.02-0.03-0.05-0.06-0.09-0.08c-0.04-0.02-0.08-0.04-0.13-0.05c-0.05-0.01-0.12-0.01-0.19-0.01
		h-0.18V13.92z"/>
	<path class="st1" d="M29.67,14.39l0.74-3.66h0.7l0.74,3.66h-0.62l-0.15-0.85h-0.63l-0.15,0.85H29.67z M30.52,13.1h0.49l-0.25-1.51
		L30.52,13.1z"/>
	<path class="st1" d="M32.02,14.39v-3.66h0.85c0.22,0,0.41,0.02,0.55,0.07c0.15,0.04,0.27,0.11,0.36,0.21
		c0.09,0.1,0.15,0.21,0.19,0.35c0.04,0.14,0.06,0.31,0.06,0.51v1.32c0,0.21-0.02,0.39-0.06,0.53c-0.04,0.15-0.1,0.27-0.19,0.37
		c-0.09,0.1-0.2,0.18-0.35,0.22c-0.15,0.05-0.32,0.07-0.54,0.07H32.02z M32.69,13.92h0.19c0.07,0,0.12-0.01,0.17-0.02
		c0.05-0.01,0.09-0.03,0.13-0.04c0.03-0.02,0.06-0.04,0.09-0.08c0.02-0.04,0.04-0.07,0.05-0.1c0.01-0.03,0.02-0.08,0.03-0.14
		c0.01-0.06,0.01-0.12,0.01-0.16c0-0.04,0-0.11,0-0.2v-1.34c0-0.09,0-0.16,0-0.21c0-0.05-0.01-0.11-0.02-0.16
		c-0.01-0.05-0.03-0.1-0.05-0.12c-0.02-0.03-0.05-0.06-0.09-0.08c-0.04-0.02-0.08-0.04-0.13-0.05c-0.05-0.01-0.12-0.01-0.19-0.01
		h-0.18V13.92z"/>
	<polygon class="st1" points="34.34,14.39 34.34,10.72 35.88,10.72 35.88,11.2 35.01,11.2 35.01,12.25 35.7,12.25 35.7,12.72 
		35.01,12.72 35.01,13.93 35.89,13.93 35.89,14.39 	"/>
	<path class="st1" d="M37.01,14.43c-0.65,0-0.98-0.37-1.02-1.12l0.58-0.12c0.01,0.48,0.15,0.73,0.42,0.73c0.1,0,0.18-0.03,0.23-0.09
		c0.05-0.06,0.07-0.15,0.07-0.25c0-0.1-0.02-0.2-0.06-0.28c-0.04-0.08-0.08-0.15-0.13-0.21c-0.05-0.05-0.12-0.12-0.21-0.2
		l-0.48-0.42c-0.14-0.12-0.25-0.25-0.32-0.39c-0.07-0.13-0.1-0.3-0.1-0.5c0-0.28,0.08-0.5,0.25-0.66c0.17-0.16,0.4-0.24,0.69-0.24
		c0.13,0,0.25,0.01,0.36,0.05c0.1,0.03,0.19,0.08,0.26,0.14c0.07,0.06,0.12,0.13,0.17,0.22c0.04,0.09,0.08,0.18,0.1,0.27
		c0.02,0.09,0.04,0.2,0.05,0.31l-0.57,0.11c0-0.07-0.01-0.14-0.01-0.19c-0.01-0.05-0.02-0.11-0.03-0.17
		c-0.02-0.06-0.04-0.1-0.06-0.14c-0.03-0.04-0.06-0.06-0.1-0.08c-0.04-0.02-0.09-0.03-0.15-0.02c-0.1,0.01-0.17,0.04-0.23,0.1
		c-0.05,0.06-0.08,0.14-0.08,0.24c0,0.12,0.02,0.22,0.07,0.29c0.05,0.08,0.12,0.16,0.22,0.24l0.48,0.42
		c0.08,0.07,0.15,0.14,0.21,0.21c0.06,0.07,0.12,0.15,0.17,0.23c0.05,0.09,0.09,0.18,0.12,0.29c0.03,0.1,0.04,0.22,0.04,0.33
		c0,0.27-0.08,0.48-0.25,0.65C37.51,14.35,37.29,14.43,37.01,14.43"/>
	<path class="st1" d="M15.31,20.42c-0.65,0-0.98-0.37-1.02-1.12l0.58-0.12c0.01,0.48,0.15,0.73,0.42,0.73c0.1,0,0.18-0.03,0.23-0.09
		c0.05-0.06,0.07-0.15,0.07-0.25c0-0.1-0.02-0.2-0.06-0.28c-0.04-0.08-0.08-0.15-0.13-0.21c-0.05-0.05-0.12-0.12-0.21-0.2
		l-0.48-0.42c-0.14-0.12-0.25-0.25-0.32-0.39c-0.07-0.13-0.1-0.3-0.1-0.5c0-0.28,0.08-0.51,0.25-0.66c0.17-0.16,0.4-0.24,0.69-0.24
		c0.13,0,0.25,0.02,0.36,0.05c0.1,0.03,0.19,0.08,0.26,0.14c0.07,0.06,0.12,0.13,0.17,0.22c0.04,0.09,0.08,0.18,0.1,0.27
		c0.02,0.09,0.04,0.2,0.05,0.31l-0.57,0.11c0-0.07-0.01-0.14-0.01-0.19c-0.01-0.05-0.02-0.11-0.03-0.17
		c-0.02-0.06-0.04-0.1-0.06-0.14c-0.03-0.04-0.06-0.06-0.1-0.08c-0.04-0.02-0.09-0.03-0.15-0.02c-0.1,0.01-0.17,0.04-0.23,0.1
		c-0.05,0.06-0.08,0.14-0.08,0.24c0,0.12,0.02,0.22,0.07,0.29c0.05,0.08,0.12,0.16,0.22,0.24l0.48,0.42
		c0.08,0.07,0.15,0.14,0.21,0.21c0.06,0.07,0.12,0.15,0.17,0.23c0.05,0.09,0.1,0.18,0.12,0.29c0.03,0.1,0.04,0.22,0.04,0.33
		c0,0.27-0.08,0.48-0.25,0.65C15.81,20.34,15.59,20.42,15.31,20.42"/>
	<path class="st1" d="M17.43,20.42c-0.38,0-0.65-0.1-0.81-0.31c-0.16-0.2-0.25-0.5-0.25-0.9v-1.35c0-0.19,0.02-0.36,0.06-0.51
		c0.04-0.14,0.1-0.27,0.18-0.37c0.08-0.1,0.19-0.18,0.33-0.24c0.14-0.05,0.3-0.08,0.5-0.08c0.38,0,0.65,0.1,0.81,0.3
		c0.16,0.2,0.25,0.5,0.25,0.89v1.35c0,0.19-0.02,0.36-0.06,0.5c-0.04,0.15-0.1,0.27-0.18,0.38c-0.08,0.11-0.19,0.19-0.33,0.24
		C17.79,20.39,17.62,20.42,17.43,20.42 M17.26,19.9c0.05,0.02,0.1,0.03,0.17,0.03s0.12-0.01,0.17-0.03
		c0.05-0.02,0.08-0.04,0.11-0.08c0.03-0.03,0.05-0.07,0.06-0.12c0.02-0.05,0.03-0.1,0.03-0.15c0.01-0.05,0.01-0.11,0.01-0.18v-1.66
		c0-0.09,0-0.16-0.01-0.22c-0.01-0.06-0.03-0.11-0.05-0.17c-0.03-0.05-0.06-0.09-0.12-0.12c-0.05-0.03-0.12-0.04-0.2-0.04
		c-0.08,0-0.15,0.01-0.2,0.04c-0.05,0.03-0.09,0.06-0.12,0.12c-0.03,0.05-0.04,0.11-0.05,0.17c-0.01,0.06-0.01,0.13-0.01,0.22v1.66
		c0,0.07,0,0.13,0.01,0.18c0.01,0.05,0.02,0.1,0.03,0.15c0.02,0.05,0.04,0.09,0.06,0.12C17.18,19.85,17.22,19.88,17.26,19.9"/>
	<path class="st1" d="M19.71,20.42c-0.65,0-0.98-0.37-1.02-1.12l0.58-0.12c0.01,0.48,0.15,0.73,0.42,0.73c0.1,0,0.18-0.03,0.23-0.09
		c0.05-0.06,0.07-0.15,0.07-0.25c0-0.1-0.02-0.2-0.06-0.28c-0.04-0.08-0.08-0.15-0.13-0.21c-0.05-0.05-0.12-0.12-0.21-0.2
		l-0.48-0.42c-0.14-0.12-0.25-0.25-0.32-0.39c-0.07-0.13-0.1-0.3-0.1-0.5c0-0.28,0.08-0.51,0.25-0.66c0.17-0.16,0.4-0.24,0.69-0.24
		c0.13,0,0.25,0.02,0.36,0.05c0.1,0.03,0.19,0.08,0.26,0.14c0.07,0.06,0.12,0.13,0.17,0.22c0.04,0.09,0.08,0.18,0.1,0.27
		c0.02,0.09,0.04,0.2,0.05,0.31L20,17.77c0-0.07-0.01-0.14-0.01-0.19c-0.01-0.05-0.02-0.11-0.03-0.17c-0.02-0.06-0.04-0.1-0.06-0.14
		c-0.03-0.04-0.06-0.06-0.1-0.08c-0.04-0.02-0.09-0.03-0.15-0.02c-0.1,0.01-0.17,0.04-0.23,0.1c-0.05,0.06-0.08,0.14-0.08,0.24
		c0,0.12,0.02,0.22,0.07,0.29c0.05,0.08,0.12,0.16,0.22,0.24l0.48,0.42c0.08,0.07,0.15,0.14,0.21,0.21
		c0.06,0.07,0.12,0.15,0.17,0.23c0.05,0.09,0.1,0.18,0.12,0.29c0.03,0.1,0.04,0.22,0.04,0.33c0,0.27-0.08,0.48-0.25,0.65
		C20.21,20.34,19.99,20.42,19.71,20.42"/>
	<polygon class="st1" points="21.19,20.38 21.19,17.21 20.58,17.21 20.58,16.71 22.46,16.71 22.46,17.21 21.86,17.21 21.86,20.38 	
		"/>
	<polygon class="st1" points="22.56,20.38 22.56,16.71 24.1,16.71 24.1,17.18 23.23,17.18 23.23,18.24 23.92,18.24 23.92,18.71 
		23.23,18.71 23.23,19.92 24.11,19.92 24.11,20.38 	"/>
	<polygon class="st1" points="24.31,20.38 24.31,16.71 24.77,16.71 25.66,18.79 25.66,16.71 26.22,16.71 26.22,20.38 25.78,20.38 
		24.87,18.2 24.87,20.38 	"/>
	<rect x="26.6" y="16.71" class="st1" width="0.66" height="3.66"/>
	<path class="st1" d="M27.64,20.38v-3.66h0.9c0.17,0,0.32,0.01,0.44,0.04c0.13,0.03,0.24,0.08,0.34,0.15
		c0.1,0.07,0.17,0.17,0.22,0.29c0.05,0.12,0.07,0.27,0.07,0.45c0,0.45-0.18,0.71-0.54,0.76c0.22,0.04,0.38,0.14,0.48,0.28
		c0.11,0.15,0.16,0.36,0.16,0.62c0,0.35-0.09,0.61-0.26,0.79c-0.18,0.18-0.43,0.27-0.77,0.27H27.64z M28.3,18.21h0.21
		c0.2,0,0.33-0.04,0.4-0.13c0.07-0.08,0.11-0.23,0.11-0.42c0-0.1-0.01-0.19-0.04-0.25c-0.02-0.06-0.07-0.11-0.12-0.14
		c-0.06-0.03-0.12-0.05-0.19-0.06c-0.07-0.01-0.16-0.02-0.28-0.02H28.3V18.21z M28.3,19.91h0.25c0.2,0,0.34-0.05,0.41-0.14
		c0.08-0.09,0.11-0.25,0.11-0.46c0-0.22-0.04-0.38-0.13-0.48c-0.09-0.1-0.23-0.15-0.43-0.15H28.3V19.91z"/>
	<polygon class="st1" points="29.96,20.38 29.96,16.71 30.63,16.71 30.63,19.92 31.51,19.92 31.51,20.38 	"/>
	<polygon class="st1" points="31.68,20.38 31.68,16.71 33.21,16.71 33.21,17.18 32.34,17.18 32.34,18.24 33.03,18.24 33.03,18.71 
		32.34,18.71 32.34,19.92 33.22,19.92 33.22,20.38 	"/>
	<path class="st1" d="M34.34,20.42c-0.65,0-0.98-0.37-1.02-1.12l0.58-0.12c0.01,0.48,0.15,0.73,0.42,0.73c0.1,0,0.18-0.03,0.23-0.09
		c0.05-0.06,0.07-0.15,0.07-0.25c0-0.1-0.02-0.2-0.06-0.28c-0.04-0.08-0.08-0.15-0.13-0.21c-0.05-0.05-0.12-0.12-0.21-0.2
		l-0.48-0.42c-0.14-0.12-0.25-0.25-0.32-0.39c-0.07-0.13-0.1-0.3-0.1-0.5c0-0.28,0.08-0.51,0.25-0.66c0.17-0.16,0.4-0.24,0.69-0.24
		c0.13,0,0.25,0.02,0.36,0.05c0.1,0.03,0.19,0.08,0.26,0.14c0.07,0.06,0.12,0.13,0.17,0.22c0.04,0.09,0.08,0.18,0.1,0.27
		c0.02,0.09,0.04,0.2,0.05,0.31l-0.57,0.11c0-0.07-0.01-0.14-0.01-0.19c-0.01-0.05-0.02-0.11-0.03-0.17
		c-0.02-0.06-0.04-0.1-0.06-0.14c-0.03-0.04-0.06-0.06-0.1-0.08c-0.04-0.02-0.09-0.03-0.15-0.02c-0.1,0.01-0.17,0.04-0.23,0.1
		c-0.05,0.06-0.08,0.14-0.08,0.24c0,0.12,0.02,0.22,0.07,0.29c0.05,0.08,0.12,0.16,0.22,0.24l0.48,0.42
		c0.08,0.07,0.15,0.14,0.21,0.21c0.06,0.07,0.12,0.15,0.17,0.23c0.05,0.09,0.1,0.18,0.12,0.29c0.03,0.1,0.04,0.22,0.04,0.33
		c0,0.27-0.08,0.48-0.25,0.65C34.84,20.34,34.62,20.42,34.34,20.42"/>
	<path class="st1" d="M11.27,39.69h0.07h6.49c0.09,0,0.16-0.07,0.16-0.16c0-0.04-0.02-0.08-0.04-0.11l-0.01-0.01l-3.26-4.22
		l-0.03-0.03c-0.03-0.03-0.07-0.05-0.12-0.05c-0.04,0-0.08,0.02-0.11,0.04l-0.02,0.02l-0.03,0.03l-3.18,4.17l-0.05,0.06
		c-0.02,0.03-0.03,0.06-0.03,0.09C11.11,39.62,11.18,39.69,11.27,39.69"/>
	<path class="st1" d="M17.81,40.28h-6.57c-0.09,0-0.16,0.07-0.16,0.16v5.14c0,0.09,0.07,0.16,0.16,0.16h2.11v-3.23
		c0-0.09,0.07-0.16,0.16-0.16h1.96c0.09,0,0.16,0.07,0.16,0.16v3.23h2.17c0.09,0,0.16-0.07,0.16-0.16v-5.14
		C17.97,40.36,17.89,40.28,17.81,40.28"/>
	<path class="st1" d="M40.5,38.94H34c-0.09,0-0.16,0.07-0.16,0.15v6.56c0,0.08,0.07,0.15,0.16,0.15h6.5c0.09,0,0.16-0.07,0.16-0.15
		v-6.56C40.66,39.01,40.59,38.94,40.5,38.94 M36.95,43.22c0,0.09-0.07,0.16-0.16,0.16h-1.94c-0.09,0-0.16-0.07-0.16-0.16v-1.18
		c0-0.09,0.07-0.15,0.16-0.15h1.94c0.09,0,0.16,0.07,0.16,0.15V43.22z M36.95,41.04c0,0.09-0.07,0.15-0.16,0.15h-1.94
		c-0.09,0-0.16-0.07-0.16-0.15v-1.18c0-0.09,0.07-0.15,0.16-0.15h1.94c0.09,0,0.16,0.07,0.16,0.15V41.04z M39.91,43.22
		c0,0.09-0.07,0.16-0.16,0.16h-1.94c-0.09,0-0.16-0.07-0.16-0.16v-1.18c0-0.09,0.07-0.15,0.16-0.15h1.94c0.09,0,0.16,0.07,0.16,0.15
		V43.22z M39.91,41.04c0,0.09-0.07,0.15-0.16,0.15h-1.94c-0.09,0-0.16-0.07-0.16-0.15v-1.18c0-0.09,0.07-0.15,0.16-0.15h1.94
		c0.09,0,0.16,0.07,0.16,0.15V41.04z"/>
	<path class="st1" d="M25.39,23.7h-6.36c-0.09,0-0.16,0.07-0.16,0.16V45.6c0,0.09,0.07,0.16,0.16,0.16h6.36
		c0.09,0,0.16-0.07,0.16-0.16V23.86C25.55,23.77,25.48,23.7,25.39,23.7 M21.61,43.28c0,0.05-0.04,0.08-0.08,0.08h-1.46
		c-0.05,0-0.08-0.04-0.08-0.08v-1.62c0-0.05,0.04-0.08,0.08-0.08h1.46c0.05,0,0.08,0.04,0.08,0.08V43.28z M21.61,39.55
		c0,0.05-0.04,0.08-0.08,0.08h-1.46c-0.05,0-0.08-0.04-0.08-0.08v-1.62c0-0.05,0.04-0.08,0.08-0.08h1.46c0.05,0,0.08,0.04,0.08,0.08
		V39.55z M21.61,35.82c0,0.05-0.04,0.08-0.08,0.08h-1.46c-0.05,0-0.08-0.04-0.08-0.08V34.2c0-0.05,0.04-0.08,0.08-0.08h1.46
		c0.05,0,0.08,0.04,0.08,0.08V35.82z M21.61,32.1c0,0.05-0.04,0.08-0.08,0.08h-1.46c-0.05,0-0.08-0.04-0.08-0.08v-1.62
		c0-0.05,0.04-0.08,0.08-0.08h1.46c0.05,0,0.08,0.04,0.08,0.08V32.1z M21.61,28.37c0,0.05-0.04,0.08-0.08,0.08h-1.46
		c-0.05,0-0.08-0.04-0.08-0.08v-1.62c0-0.05,0.04-0.08,0.08-0.08h1.46c0.05,0,0.08,0.04,0.08,0.08V28.37z M24.46,43.28
		c0,0.05-0.04,0.08-0.08,0.08h-1.46c-0.05,0-0.08-0.04-0.08-0.08v-1.62c0-0.05,0.04-0.08,0.08-0.08h1.46c0.05,0,0.08,0.04,0.08,0.08
		V43.28z M24.46,39.55c0,0.05-0.04,0.08-0.08,0.08h-1.46c-0.05,0-0.08-0.04-0.08-0.08v-1.62c0-0.05,0.04-0.08,0.08-0.08h1.46
		c0.05,0,0.08,0.04,0.08,0.08V39.55z M24.46,35.82c0,0.05-0.04,0.08-0.08,0.08h-1.46c-0.05,0-0.08-0.04-0.08-0.08V34.2
		c0-0.05,0.04-0.08,0.08-0.08h1.46c0.05,0,0.08,0.04,0.08,0.08V35.82z M24.46,32.1c0,0.05-0.04,0.08-0.08,0.08h-1.46
		c-0.05,0-0.08-0.04-0.08-0.08v-1.62c0-0.05,0.04-0.08,0.08-0.08h1.46c0.05,0,0.08,0.04,0.08,0.08V32.1z M24.46,28.37
		c0,0.05-0.04,0.08-0.08,0.08h-1.46c-0.05,0-0.08-0.04-0.08-0.08v-1.62c0-0.05,0.04-0.08,0.08-0.08h1.46c0.05,0,0.08,0.04,0.08,0.08
		V28.37z"/>
	<path class="st1" d="M40.65,38.28c0,0.07-0.06,0.13-0.13,0.13h-6.54c-0.07,0-0.13-0.06-0.13-0.13v-1.31c0-0.07,0.06-0.13,0.13-0.13
		h6.54c0.07,0,0.13,0.06,0.13,0.13V38.28z"/>
	<path class="st1" d="M33.08,27.81c-0.02-0.07-0.08-0.12-0.16-0.12c-0.03,0-0.06,0.01-0.09,0.03c0,0-0.01,0-0.01,0.01l-0.05,0.07
		l-6.25,7.93l-0.03,0.04c-0.03,0.03-0.05,0.08-0.05,0.12v0.01v9.73c0,0.09,0.07,0.15,0.16,0.15h6.35c0.09,0,0.16-0.07,0.16-0.15
		V27.87C33.09,27.85,33.08,27.83,33.08,27.81 M30.44,32.12l0.04-0.06c0.43-0.55,1.15-1.44,1.5-1.87l0.05-0.05
		c0.03-0.04,0.08-0.07,0.14-0.07c0.09,0,0.16,0.06,0.17,0.15v0.07v0.06v1.88c0,0.1-0.08,0.17-0.17,0.18c0,0-0.01,0-0.01,0
		s-0.01,0-0.01,0h-1.48H30.6c0,0-0.01,0-0.01,0c0,0,0,0-0.01,0c-0.1,0-0.17-0.08-0.17-0.18C30.41,32.18,30.42,32.15,30.44,32.12
		 M29.45,43.22c0,0.09-0.07,0.16-0.16,0.16h-1.9c-0.09,0-0.16-0.07-0.16-0.16v-1.19c0-0.09,0.07-0.16,0.16-0.16h1.9
		c0.09,0,0.16,0.07,0.16,0.16V43.22z M29.45,41.03c0,0.09-0.07,0.16-0.16,0.16h-1.9c-0.09,0-0.16-0.07-0.16-0.16v-1.19
		c0-0.09,0.07-0.16,0.16-0.16h1.9c0.09,0,0.16,0.07,0.16,0.16V41.03z M29.45,38.84c0,0.08-0.07,0.15-0.16,0.15h-1.9
		c-0.09,0-0.16-0.07-0.16-0.15v-1.19c0-0.09,0.07-0.16,0.16-0.16h1.9c0.09,0,0.16,0.07,0.16,0.16V38.84z M29.46,34.03v0.06v2.56
		c0,0.09-0.07,0.16-0.16,0.16h-1.9c-0.09,0-0.16-0.07-0.16-0.16v-0.32v-0.01c0-0.02,0.01-0.04,0.01-0.06c0-0.01,0-0.01,0.01-0.02
		c0-0.01,0.01-0.01,0.01-0.02c0-0.01,0.01-0.02,0.02-0.03c0.24-0.35,1.34-1.69,1.8-2.26l0.05-0.06c0.03-0.04,0.08-0.07,0.14-0.07
		c0.09,0,0.16,0.06,0.17,0.15V34.03z M32.35,43.22c0,0.09-0.07,0.16-0.16,0.16h-1.9c-0.09,0-0.16-0.07-0.16-0.16v-1.19
		c0-0.09,0.07-0.16,0.16-0.16h1.9c0.09,0,0.16,0.07,0.16,0.16V43.22z M32.35,41.03c0,0.09-0.07,0.16-0.16,0.16h-1.9
		c-0.09,0-0.16-0.07-0.16-0.16v-1.19c0-0.09,0.07-0.16,0.16-0.16h1.9c0.09,0,0.16,0.07,0.16,0.16V41.03z M32.35,38.84
		c0,0.08-0.07,0.15-0.16,0.15h-1.9c-0.09,0-0.16-0.07-0.16-0.15v-1.19c0-0.09,0.07-0.16,0.16-0.16h1.9c0.09,0,0.16,0.07,0.16,0.16
		V38.84z M32.35,36.64c0,0.09-0.07,0.16-0.16,0.16h-1.9c-0.09,0-0.16-0.07-0.16-0.16v-1.19c0-0.09,0.07-0.16,0.16-0.16h1.9
		c0.09,0,0.16,0.07,0.16,0.16V36.64z M32.35,34.45c0,0.09-0.07,0.16-0.16,0.16h-1.9c-0.09,0-0.16-0.07-0.16-0.16v-1.19
		c0-0.09,0.07-0.16,0.16-0.16h1.9c0.09,0,0.16,0.07,0.16,0.16V34.45z"/>
</g>
</svg>
