<?xml version="1.0" encoding="utf-8"?>
<!-- Generator: Adobe Illustrator 26.5.0, SVG Export Plug-In . SVG Version: 6.00 Build 0)  -->
<svg version="1.1" id="Capa_1" xmlns="http://www.w3.org/2000/svg" xmlns:xlink="http://www.w3.org/1999/xlink" x="0px" y="0px"
	 viewBox="0 0 51.02 51.02" style="enable-background:new 0 0 51.02 51.02;" xml:space="preserve">
<style type="text/css">
	.st0{fill:#E5273C;}
	.st1{fill:#FFFFFF;}
	.st2{fill:none;stroke:#FFFFFF;stroke-width:0.5952;stroke-linecap:round;stroke-miterlimit:10;}
	.st3{fill:#FCC30C;}
	.st4{fill:#A31B43;}
	.st5{fill:#F59C2D;}
	.st6{fill:#ED692F;}
	.st7{fill:#DDA73A;}
	.st8{fill:#4E9F38;}
	.st9{fill:#C51D2E;}
	.st10{fill:#E8422F;}
	.st11{fill:#2EBCE1;}
	.st12{fill:#DE1868;}
	.st13{fill:#BE8B30;}
	.st14{fill:#61B235;}
	.st15{fill:#02699F;}
	.st16{fill:#1896D4;}
	.st17{fill:#3F7F45;}
	.st18{fill:#1A496A;}
</style>
<g>
	<rect x="0.37" y="0.42" class="st11" width="50.29" height="50.18"/>
	<path class="st1" d="M5.04,13.55c-0.42-0.57-0.63-1.33-0.63-2.3V7.85C4.41,6.8,4.6,6,4.98,5.42c0.38-0.57,1.05-0.86,2-0.86
		c0.85,0,1.47,0.2,1.85,0.6c0.38,0.4,0.57,1.01,0.58,1.82l0.01,0.17H7.68c0-0.44-0.04-0.75-0.13-0.93C7.46,6.05,7.28,5.96,7,5.96
		c-0.2,0-0.35,0.06-0.46,0.18C6.44,6.26,6.37,6.46,6.32,6.73C6.28,7.01,6.26,7.4,6.26,7.9v0.97c0.1-0.17,0.27-0.31,0.5-0.41
		c0.23-0.1,0.49-0.15,0.78-0.15c0.71,0,1.23,0.25,1.55,0.74c0.32,0.49,0.48,1.17,0.48,2.02c0,1.06-0.2,1.88-0.59,2.46
		c-0.39,0.58-1.05,0.87-1.98,0.87C6.12,14.4,5.47,14.12,5.04,13.55 M7.58,12.65c0.1-0.26,0.15-0.68,0.15-1.26
		c0-0.4-0.01-0.71-0.04-0.94c-0.02-0.22-0.09-0.4-0.2-0.53C7.39,9.78,7.22,9.72,7,9.72c-0.17,0-0.31,0.04-0.44,0.13
		c-0.13,0.09-0.23,0.19-0.3,0.31v1.53c0,0.91,0.25,1.36,0.76,1.36C7.29,13.04,7.48,12.91,7.58,12.65"/>
	<path class="st1" d="M13.41,8.34l0.74-3.66h0.7l0.74,3.66h-0.62l-0.15-0.85h-0.63l-0.15,0.85H13.41z M14.26,7.06h0.49l-0.24-1.51
		L14.26,7.06z"/>
	<path class="st1" d="M16.84,8.39c-0.35,0-0.6-0.11-0.75-0.32c-0.15-0.22-0.23-0.53-0.23-0.95V5.93c0-0.21,0.02-0.39,0.05-0.55
		c0.03-0.15,0.09-0.29,0.17-0.4c0.08-0.12,0.19-0.2,0.32-0.26c0.14-0.06,0.31-0.09,0.5-0.09c0.36,0,0.62,0.09,0.78,0.27
		c0.16,0.18,0.24,0.45,0.24,0.81v0.18h-0.64V5.7c0-0.08,0-0.15-0.01-0.2c0-0.05-0.01-0.1-0.03-0.16c-0.01-0.05-0.03-0.09-0.06-0.12
		c-0.03-0.03-0.06-0.05-0.11-0.07c-0.05-0.02-0.1-0.03-0.17-0.03c-0.05,0-0.09,0.01-0.13,0.02c-0.04,0.01-0.07,0.03-0.1,0.05
		c-0.03,0.02-0.05,0.04-0.07,0.08c-0.02,0.03-0.03,0.07-0.04,0.1c-0.01,0.03-0.02,0.07-0.02,0.12c-0.01,0.05-0.01,0.09-0.01,0.13
		c0,0.04,0,0.09,0,0.15v1.48c0,0.22,0.03,0.38,0.08,0.49c0.05,0.1,0.16,0.15,0.31,0.15c0.08,0,0.15-0.01,0.2-0.04
		c0.05-0.03,0.1-0.08,0.13-0.14c0.03-0.06,0.05-0.13,0.06-0.21c0.01-0.08,0.02-0.17,0.02-0.29v-0.3h-0.4V6.48h1v1.86h-0.43
		l-0.05-0.37C17.35,8.25,17.14,8.39,16.84,8.39"/>
	<path class="st1" d="M19.42,8.39c-0.16,0-0.31-0.02-0.43-0.06c-0.12-0.04-0.22-0.09-0.3-0.16c-0.08-0.07-0.14-0.16-0.19-0.27
		c-0.05-0.11-0.08-0.23-0.1-0.35c-0.02-0.13-0.03-0.27-0.03-0.44V4.68h0.65v2.5c0,0.09,0,0.16,0.01,0.22c0,0.06,0.01,0.12,0.03,0.19
		c0.01,0.07,0.04,0.12,0.06,0.16c0.03,0.04,0.06,0.07,0.11,0.1c0.05,0.03,0.11,0.04,0.17,0.04c0.07,0,0.13-0.01,0.17-0.04
		c0.05-0.03,0.08-0.06,0.11-0.1c0.03-0.04,0.05-0.09,0.06-0.16c0.02-0.07,0.03-0.13,0.03-0.19c0-0.06,0.01-0.13,0.01-0.22v-2.5h0.65
		v2.43c0,0.17-0.01,0.31-0.03,0.44c-0.02,0.13-0.05,0.24-0.1,0.35c-0.05,0.11-0.11,0.2-0.18,0.27c-0.08,0.07-0.18,0.12-0.3,0.16
		C19.73,8.37,19.59,8.39,19.42,8.39"/>
	<path class="st1" d="M20.76,8.34l0.74-3.66h0.7l0.74,3.66h-0.62l-0.15-0.85h-0.63l-0.15,0.85H20.76z M21.61,7.06h0.49l-0.25-1.51
		L21.61,7.06z"/>
	<polygon class="st1" points="24.36,8.34 24.36,4.68 25.03,4.68 25.03,7.88 25.91,7.88 25.91,8.34 	"/>
	<rect x="26.26" y="4.68" class="st1" width="0.66" height="3.66"/>
	<polygon class="st1" points="27.45,8.34 27.51,4.68 28.2,4.68 28.73,7.25 29.27,4.68 29.94,4.68 30,8.34 29.5,8.34 29.46,5.82 
		28.93,8.34 28.54,8.34 28,5.81 27.96,8.34 	"/>
	<path class="st1" d="M30.52,8.34V4.68h1.05c0.62,0,0.94,0.35,0.94,1.04c0,0.34-0.09,0.59-0.26,0.75c-0.17,0.16-0.41,0.24-0.72,0.24
		h-0.34v1.64H30.52z M31.19,6.24h0.21c0.19,0,0.32-0.04,0.38-0.11c0.07-0.07,0.1-0.21,0.1-0.41c0-0.11,0-0.2-0.01-0.26
		c-0.01-0.06-0.03-0.12-0.06-0.17c-0.03-0.05-0.08-0.09-0.14-0.11c-0.06-0.02-0.15-0.03-0.26-0.03h-0.22V6.24z"/>
	<rect x="32.87" y="4.68" class="st1" width="0.66" height="3.66"/>
	<path class="st1" d="M33.88,8.34l0.74-3.66h0.7l0.74,3.66h-0.62l-0.15-0.85h-0.63l-0.15,0.85H33.88z M34.73,7.06h0.49l-0.24-1.51
		L34.73,7.06z"/>
	<polygon class="st1" points="14.11,14.33 14.11,12.94 13.37,10.67 13.99,10.67 14.44,12.13 14.88,10.67 15.49,10.67 14.75,12.94 
		14.75,14.33 	"/>
	<path class="st1" d="M17.8,14.38c-0.65,0-0.98-0.37-1.02-1.12l0.58-0.12c0.01,0.48,0.15,0.73,0.42,0.73c0.1,0,0.18-0.03,0.23-0.09
		c0.05-0.06,0.07-0.15,0.07-0.25c0-0.1-0.02-0.2-0.06-0.28c-0.04-0.08-0.08-0.15-0.13-0.21c-0.05-0.05-0.12-0.12-0.21-0.2
		l-0.48-0.42c-0.14-0.12-0.25-0.25-0.32-0.39c-0.07-0.13-0.1-0.3-0.1-0.5c0-0.28,0.08-0.5,0.25-0.66c0.17-0.16,0.4-0.24,0.69-0.24
		c0.13,0,0.25,0.01,0.36,0.05c0.1,0.03,0.19,0.08,0.26,0.14c0.07,0.06,0.12,0.13,0.17,0.22c0.04,0.09,0.08,0.18,0.1,0.27
		c0.02,0.09,0.04,0.2,0.05,0.31l-0.57,0.11c0-0.07-0.01-0.14-0.01-0.19c-0.01-0.05-0.02-0.11-0.03-0.17
		c-0.02-0.06-0.04-0.1-0.06-0.14c-0.03-0.04-0.06-0.06-0.1-0.08c-0.04-0.02-0.09-0.03-0.15-0.02c-0.1,0.01-0.17,0.04-0.23,0.1
		c-0.05,0.06-0.08,0.14-0.08,0.24c0,0.12,0.02,0.22,0.07,0.29c0.05,0.08,0.12,0.16,0.22,0.24l0.48,0.42
		c0.08,0.07,0.15,0.14,0.21,0.21c0.06,0.07,0.12,0.15,0.17,0.23c0.05,0.09,0.1,0.18,0.12,0.29c0.03,0.1,0.04,0.22,0.04,0.33
		c0,0.27-0.08,0.48-0.25,0.65C18.29,14.29,18.07,14.38,17.8,14.38"/>
	<path class="st1" d="M18.89,14.33l0.74-3.66h0.7l0.74,3.66h-0.62l-0.15-0.85h-0.63l-0.15,0.85H18.89z M19.74,13.05h0.49l-0.25-1.51
		L19.74,13.05z"/>
	<polygon class="st1" points="21.41,14.33 21.41,10.67 21.87,10.67 22.77,12.74 22.77,10.67 23.32,10.67 23.32,14.33 22.88,14.33 
		21.98,12.15 21.98,14.33 	"/>
	<polygon class="st1" points="23.85,14.33 23.85,10.67 25.38,10.67 25.38,11.14 24.52,11.14 24.52,12.19 25.2,12.19 25.2,12.66 
		24.52,12.66 24.52,13.87 25.39,13.87 25.39,14.33 	"/>
	<path class="st1" d="M25.56,14.33l0.74-3.66h0.7l0.74,3.66h-0.62l-0.15-0.85h-0.63l-0.15,0.85H25.56z M26.42,13.05h0.49l-0.25-1.51
		L26.42,13.05z"/>
	<polygon class="st1" points="28.08,14.33 28.14,10.67 28.82,10.67 29.35,13.24 29.9,10.67 30.57,10.67 30.63,14.33 30.13,14.33 
		30.08,11.81 29.55,14.33 29.16,14.33 28.63,11.8 28.59,14.33 	"/>
	<rect x="31.17" y="10.67" class="st1" width="0.66" height="3.66"/>
	<polygon class="st1" points="32.37,14.33 32.37,10.67 33.9,10.67 33.9,11.14 33.04,11.14 33.04,12.19 33.72,12.19 33.72,12.66 
		33.04,12.66 33.04,13.87 33.92,13.87 33.92,14.33 	"/>
	<polygon class="st1" points="34.28,14.33 34.28,10.67 34.74,10.67 35.63,12.74 35.63,10.67 36.19,10.67 36.19,14.33 35.75,14.33 
		34.84,12.15 34.84,14.33 	"/>
	<polygon class="st1" points="37.07,14.33 37.07,11.16 36.46,11.16 36.46,10.67 38.33,10.67 38.33,11.16 37.74,11.16 37.74,14.33 	
		"/>
	<path class="st1" d="M39.6,14.38c-0.38,0-0.65-0.1-0.81-0.31c-0.16-0.2-0.25-0.5-0.25-0.9v-1.35c0-0.19,0.02-0.36,0.06-0.51
		c0.04-0.14,0.1-0.27,0.18-0.37c0.08-0.1,0.19-0.18,0.33-0.24c0.14-0.05,0.3-0.08,0.5-0.08c0.38,0,0.65,0.1,0.81,0.3
		c0.16,0.2,0.25,0.5,0.25,0.89v1.35c0,0.19-0.02,0.36-0.06,0.5c-0.04,0.15-0.1,0.27-0.18,0.38c-0.08,0.11-0.19,0.19-0.33,0.24
		C39.95,14.35,39.79,14.38,39.6,14.38 M39.43,13.85c0.05,0.02,0.1,0.03,0.17,0.03c0.06,0,0.12-0.01,0.17-0.03
		c0.05-0.02,0.08-0.04,0.11-0.08c0.03-0.03,0.05-0.07,0.06-0.12c0.02-0.05,0.03-0.1,0.03-0.15c0.01-0.05,0.01-0.11,0.01-0.18v-1.66
		c0-0.09,0-0.16-0.01-0.22c-0.01-0.06-0.03-0.11-0.05-0.17c-0.03-0.05-0.06-0.09-0.12-0.12c-0.05-0.03-0.12-0.04-0.2-0.04
		c-0.08,0-0.15,0.01-0.2,0.04c-0.05,0.03-0.09,0.06-0.12,0.12c-0.03,0.05-0.04,0.11-0.05,0.17c-0.01,0.06-0.01,0.13-0.01,0.22v1.66
		c0,0.07,0,0.13,0.01,0.18c0.01,0.05,0.02,0.1,0.03,0.15c0.02,0.05,0.04,0.09,0.06,0.12C39.35,13.81,39.38,13.83,39.43,13.85"/>
	<path class="st1" d="M34.82,20.62c-0.04-0.05-0.1-0.07-0.17-0.07H16.32c-0.06,0-0.12,0.03-0.16,0.07
		c-0.04,0.05-0.06,0.11-0.05,0.17l3.08,18.62c0.02,0.1,0.11,0.18,0.21,0.18h3.78l0.26,3.03l-1.59,0l3.7,3.7l3.71-3.71l-1.59,0
		l0.26-3.03h3.85c0.11,0,0.19-0.08,0.21-0.18l2.88-18.62C34.87,20.73,34.86,20.67,34.82,20.62 M27.73,35.53c0,0-0.83,0.86-2.19,0.76
		c-1.36,0.09-2.19-0.76-2.19-0.76c-1.37-1.37-0.88-3.08-0.41-3.96c0.3-0.55,2.4-3.72,2.59-3.99v-0.02c0,0,0,0,0.01,0.01l0.01-0.01
		v0.02c0.18,0.27,2.29,3.44,2.59,3.99C28.62,32.45,29.1,34.16,27.73,35.53 M33.55,24.54c-0.5-0.22-1.13-0.14-1.73,0.1
		c-2.27,0.92-3.82,1.25-6.21,0.5c-1.51-0.47-2.92-1.46-4.58-0.86c-1.11,0.4-2.14,0.78-3.39,0.77l-0.72-3.7h17.15L33.55,24.54z"/>
</g>
</svg>
