<?xml version="1.0" encoding="utf-8"?>
<!-- Generator: Adobe Illustrator 26.5.0, SVG Export Plug-In . SVG Version: 6.00 Build 0)  -->
<svg version="1.1" id="Capa_1" xmlns="http://www.w3.org/2000/svg" xmlns:xlink="http://www.w3.org/1999/xlink" x="0px" y="0px"
	 viewBox="0 0 51.02 51.02" style="enable-background:new 0 0 51.02 51.02;" xml:space="preserve">
<style type="text/css">
	.st0{fill:#E5273C;}
	.st1{fill:#FFFFFF;}
	.st2{fill:none;stroke:#FFFFFF;stroke-width:0.5952;stroke-linecap:round;stroke-miterlimit:10;}
	.st3{fill:#FCC30C;}
	.st4{fill:#A31B43;}
	.st5{fill:#F59C2D;}
	.st6{fill:#ED692F;}
	.st7{fill:#DDA73A;}
	.st8{fill:#4E9F38;}
	.st9{fill:#C51D2E;}
	.st10{fill:#E8422F;}
	.st11{fill:#2EBCE1;}
	.st12{fill:#DE1868;}
	.st13{fill:#BE8B30;}
	.st14{fill:#61B235;}
	.st15{fill:#02699F;}
	.st16{fill:#1896D4;}
	.st17{fill:#3F7F45;}
	.st18{fill:#1A496A;}
</style>
<g>
	<rect x="0.37" y="0.37" class="st4" width="50.29" height="50.29"/>
	<path class="st1" d="M4.3,11.56c0-0.54,0.09-1,0.28-1.4c0.19-0.39,0.47-0.69,0.84-0.88C5.14,9.07,4.9,8.79,4.72,8.43
		C4.54,8.07,4.45,7.63,4.45,7.12c0-0.79,0.21-1.4,0.63-1.84c0.42-0.44,1.02-0.66,1.8-0.66s1.38,0.22,1.79,0.65
		c0.41,0.43,0.62,1.04,0.62,1.81c0,0.54-0.09,0.99-0.26,1.35C8.84,8.8,8.61,9.08,8.32,9.29c0.37,0.19,0.65,0.49,0.84,0.9
		c0.19,0.41,0.28,0.9,0.28,1.46c0,0.89-0.21,1.59-0.62,2.08c-0.41,0.5-1.06,0.75-1.95,0.75C5.16,14.47,4.3,13.5,4.3,11.56
		 M7.49,12.69c0.11-0.28,0.16-0.63,0.16-1.06c0-0.47-0.05-0.85-0.16-1.12c-0.11-0.28-0.31-0.41-0.62-0.41
		c-0.31,0-0.51,0.14-0.62,0.42c-0.11,0.28-0.16,0.65-0.16,1.12c0,0.43,0.05,0.78,0.16,1.06c0.11,0.28,0.31,0.42,0.62,0.42
		C7.18,13.11,7.39,12.97,7.49,12.69 M7.55,7.12c0-0.35-0.06-0.62-0.17-0.82C7.27,6.1,7.1,6,6.87,6c-0.23,0-0.4,0.1-0.52,0.3
		C6.23,6.5,6.17,6.77,6.17,7.12c0,0.99,0.23,1.48,0.7,1.48C7.32,8.6,7.55,8.11,7.55,7.12"/>
	<polygon class="st1" points="13.4,8.4 13.4,5.23 12.79,5.23 12.79,4.74 14.66,4.74 14.66,5.23 14.07,5.23 14.07,8.4 	"/>
	<path class="st1" d="M14.84,8.4V4.74h0.84c0.19,0,0.36,0.02,0.5,0.05c0.14,0.03,0.26,0.08,0.36,0.16c0.1,0.07,0.18,0.18,0.23,0.3
		c0.05,0.13,0.08,0.28,0.08,0.47c0,0.23-0.03,0.42-0.1,0.56c-0.07,0.15-0.18,0.25-0.34,0.32l0.51,1.81h-0.67L15.8,6.73h-0.3V8.4
		H14.84z M15.5,6.3h0.16c0.2,0,0.34-0.04,0.42-0.13c0.08-0.08,0.12-0.23,0.12-0.43c0-0.2-0.04-0.34-0.11-0.42
		c-0.07-0.09-0.2-0.13-0.4-0.13h-0.2V6.3z"/>
	<path class="st1" d="M17.04,8.4l0.74-3.66h0.7l0.74,3.66H18.6l-0.15-0.85h-0.63L17.67,8.4H17.04z M17.89,7.11h0.49l-0.25-1.51
		L17.89,7.11z"/>
	<path class="st1" d="M19.47,8.4V4.74h0.9c0.17,0,0.32,0.02,0.44,0.04c0.13,0.03,0.24,0.08,0.34,0.15c0.1,0.07,0.17,0.17,0.22,0.29
		c0.05,0.12,0.07,0.27,0.07,0.45c0,0.45-0.18,0.71-0.54,0.76c0.22,0.04,0.38,0.14,0.48,0.28c0.11,0.15,0.16,0.36,0.16,0.62
		c0,0.35-0.09,0.61-0.26,0.79c-0.18,0.18-0.43,0.27-0.77,0.27H19.47z M20.13,6.23h0.21c0.2,0,0.33-0.04,0.4-0.13
		c0.07-0.08,0.11-0.23,0.11-0.42c0-0.1-0.01-0.19-0.04-0.25c-0.02-0.06-0.07-0.11-0.12-0.14c-0.06-0.03-0.12-0.05-0.19-0.06
		c-0.07-0.01-0.16-0.02-0.28-0.02h-0.09V6.23z M20.13,7.93h0.25c0.2,0,0.34-0.05,0.41-0.14c0.08-0.09,0.11-0.25,0.11-0.46
		c0-0.22-0.04-0.38-0.13-0.48c-0.09-0.1-0.23-0.15-0.43-0.15h-0.21V7.93z"/>
	<path class="st1" d="M21.67,8.4l0.74-3.66h0.7l0.74,3.66h-0.62l-0.15-0.85h-0.63L22.3,8.4H21.67z M22.52,7.11h0.49l-0.25-1.51
		L22.52,7.11z"/>
	<path class="st1" d="M23.86,8.48V8.01c0.2,0,0.33-0.03,0.39-0.09c0.06-0.06,0.1-0.18,0.1-0.37V4.74h0.67l0,2.83
		c0,0.16-0.02,0.3-0.04,0.41c-0.03,0.11-0.07,0.2-0.13,0.28c-0.06,0.08-0.15,0.14-0.26,0.17c-0.11,0.04-0.24,0.05-0.4,0.05H23.86z"
		/>
	<path class="st1" d="M26.45,8.44c-0.38,0-0.65-0.1-0.81-0.31c-0.16-0.2-0.25-0.5-0.25-0.9V5.89c0-0.19,0.02-0.36,0.06-0.51
		c0.04-0.14,0.1-0.27,0.18-0.37c0.08-0.1,0.19-0.18,0.33-0.24c0.14-0.05,0.3-0.08,0.5-0.08c0.38,0,0.65,0.1,0.81,0.3
		c0.16,0.2,0.25,0.5,0.25,0.89v1.35c0,0.19-0.02,0.36-0.06,0.5c-0.04,0.15-0.1,0.27-0.18,0.38c-0.08,0.11-0.19,0.19-0.33,0.24
		C26.8,8.42,26.64,8.44,26.45,8.44 M26.28,7.92c0.05,0.02,0.1,0.03,0.17,0.03c0.06,0,0.12-0.01,0.17-0.03
		c0.05-0.02,0.08-0.04,0.11-0.08c0.03-0.03,0.05-0.07,0.06-0.12c0.02-0.05,0.03-0.1,0.03-0.15c0.01-0.05,0.01-0.11,0.01-0.18V5.73
		c0-0.09,0-0.16-0.01-0.22c-0.01-0.06-0.03-0.11-0.05-0.17c-0.03-0.05-0.06-0.09-0.12-0.12c-0.05-0.03-0.12-0.04-0.2-0.04
		c-0.08,0-0.15,0.01-0.2,0.04c-0.05,0.03-0.09,0.06-0.12,0.12c-0.03,0.05-0.04,0.11-0.05,0.17c-0.01,0.06-0.01,0.13-0.01,0.22v1.66
		c0,0.07,0,0.13,0.01,0.18c0.01,0.05,0.02,0.1,0.03,0.15c0.02,0.05,0.04,0.09,0.06,0.12C26.2,7.88,26.23,7.9,26.28,7.92"/>
	<path class="st1" d="M28.86,8.4V4.74h0.85c0.22,0,0.41,0.02,0.56,0.07c0.15,0.04,0.27,0.11,0.36,0.21c0.09,0.1,0.15,0.21,0.19,0.35
		c0.04,0.14,0.06,0.31,0.06,0.51V7.2c0,0.21-0.02,0.39-0.06,0.53C30.78,7.88,30.71,8,30.63,8.1c-0.09,0.1-0.2,0.18-0.35,0.22
		c-0.15,0.05-0.33,0.07-0.54,0.07H28.86z M29.53,7.93h0.19c0.07,0,0.12-0.01,0.17-0.02c0.05-0.01,0.09-0.03,0.13-0.04
		c0.03-0.02,0.06-0.04,0.08-0.08c0.02-0.04,0.04-0.07,0.05-0.1c0.01-0.03,0.02-0.08,0.03-0.14c0.01-0.06,0.01-0.12,0.01-0.16
		c0-0.04,0-0.11,0-0.2V5.85c0-0.09,0-0.16,0-0.21c0-0.05-0.01-0.11-0.02-0.16s-0.03-0.1-0.05-0.12c-0.02-0.03-0.05-0.06-0.08-0.08
		C30,5.25,29.96,5.24,29.9,5.23c-0.05-0.01-0.12-0.01-0.19-0.01h-0.18V7.93z"/>
	<polygon class="st1" points="31.25,8.4 31.25,4.74 32.78,4.74 32.78,5.21 31.91,5.21 31.91,6.26 32.6,6.26 32.6,6.73 31.91,6.73 
		31.91,7.94 32.79,7.94 32.79,8.4 	"/>
	<path class="st1" d="M34.04,8.44c-0.16,0-0.3-0.02-0.42-0.06c-0.12-0.04-0.22-0.1-0.3-0.17c-0.08-0.07-0.14-0.16-0.19-0.26
		c-0.05-0.1-0.08-0.22-0.1-0.34C33.01,7.5,33,7.36,33,7.21V5.94c0-0.16,0.01-0.3,0.03-0.42c0.02-0.12,0.06-0.24,0.1-0.34
		c0.05-0.11,0.11-0.19,0.19-0.26c0.08-0.07,0.18-0.12,0.3-0.16c0.12-0.04,0.26-0.06,0.42-0.06c0.18,0,0.34,0.02,0.47,0.07
		c0.13,0.05,0.23,0.12,0.31,0.21c0.08,0.09,0.13,0.2,0.16,0.33c0.03,0.13,0.05,0.27,0.05,0.44v0.31h-0.64V5.75
		c0-0.18-0.01-0.31-0.03-0.37c-0.04-0.12-0.13-0.19-0.28-0.2h-0.04c-0.06,0-0.11,0.01-0.15,0.02c-0.04,0.01-0.08,0.03-0.1,0.06
		c-0.03,0.03-0.05,0.06-0.06,0.09c-0.02,0.03-0.03,0.08-0.04,0.13c-0.01,0.05-0.01,0.1-0.02,0.15c0,0.04,0,0.1,0,0.17v1.55
		c0,0.21,0.03,0.37,0.08,0.46c0.05,0.09,0.15,0.14,0.29,0.14c0.05,0,0.09-0.01,0.12-0.02c0.04-0.01,0.07-0.03,0.09-0.04
		c0.02-0.02,0.04-0.04,0.06-0.07c0.02-0.03,0.03-0.06,0.04-0.09c0.01-0.03,0.02-0.06,0.02-0.11c0-0.05,0.01-0.09,0.01-0.12
		c0-0.03,0-0.08,0-0.14V7.03h0.64v0.3c0,0.14-0.01,0.26-0.03,0.37C34.98,7.8,34.95,7.91,34.91,8c-0.05,0.1-0.11,0.18-0.18,0.24
		c-0.07,0.06-0.17,0.11-0.28,0.15C34.33,8.43,34.19,8.44,34.04,8.44"/>
	<polygon class="st1" points="35.38,8.4 35.38,4.74 36.91,4.74 36.91,5.21 36.04,5.21 36.04,6.26 36.73,6.26 36.73,6.73 36.04,6.73 
		36.04,7.94 36.92,7.94 36.92,8.4 	"/>
	<polygon class="st1" points="37.19,8.4 37.19,4.74 37.65,4.74 38.54,6.81 38.54,4.74 39.1,4.74 39.1,8.4 38.66,8.4 37.75,6.22 
		37.75,8.4 	"/>
	<polygon class="st1" points="39.89,8.4 39.89,5.23 39.27,5.23 39.27,4.74 41.15,4.74 41.15,5.23 40.55,5.23 40.55,8.4 	"/>
	<polygon class="st1" points="41.32,8.4 41.32,4.74 42.86,4.74 42.86,5.21 41.99,5.21 41.99,6.26 42.67,6.26 42.67,6.73 41.99,6.73 
		41.99,7.94 42.87,7.94 42.87,8.4 	"/>
	<polygon class="st1" points="13.56,14.39 13.56,12.99 12.81,10.72 13.43,10.72 13.89,12.18 14.32,10.72 14.94,10.72 14.19,12.99 
		14.19,14.39 	"/>
	<path class="st1" d="M17.11,14.43c-0.16,0-0.3-0.02-0.42-0.06c-0.12-0.04-0.22-0.1-0.3-0.17c-0.08-0.07-0.14-0.16-0.19-0.26
		c-0.05-0.1-0.08-0.22-0.1-0.34c-0.02-0.12-0.03-0.26-0.03-0.41v-1.28c0-0.16,0.01-0.3,0.03-0.42c0.02-0.12,0.06-0.24,0.1-0.34
		c0.05-0.11,0.11-0.19,0.19-0.26c0.08-0.07,0.18-0.12,0.3-0.16c0.12-0.04,0.26-0.06,0.42-0.06c0.18,0,0.34,0.02,0.47,0.07
		c0.13,0.05,0.23,0.12,0.31,0.21c0.08,0.09,0.13,0.2,0.16,0.33c0.03,0.13,0.05,0.27,0.05,0.44v0.31h-0.64v-0.31
		c0-0.18-0.01-0.31-0.03-0.37c-0.04-0.12-0.13-0.19-0.28-0.2h-0.04c-0.06,0-0.11,0.01-0.15,0.02c-0.04,0.01-0.08,0.03-0.1,0.06
		c-0.03,0.03-0.05,0.06-0.06,0.09c-0.02,0.03-0.03,0.07-0.04,0.13c-0.01,0.05-0.01,0.1-0.02,0.15c0,0.04,0,0.1,0,0.17v1.55
		c0,0.22,0.03,0.37,0.08,0.46c0.05,0.09,0.15,0.14,0.29,0.14c0.05,0,0.09-0.01,0.12-0.02c0.04-0.01,0.07-0.03,0.09-0.04
		c0.02-0.02,0.04-0.04,0.06-0.07c0.02-0.03,0.03-0.06,0.04-0.09c0.01-0.03,0.02-0.07,0.02-0.11c0-0.05,0.01-0.09,0.01-0.12
		c0-0.03,0-0.08,0-0.14v-0.33h0.64v0.3c0,0.14-0.01,0.26-0.03,0.37c-0.02,0.11-0.05,0.21-0.1,0.31c-0.05,0.1-0.11,0.18-0.18,0.24
		c-0.07,0.06-0.17,0.11-0.28,0.15C17.39,14.41,17.26,14.43,17.11,14.43"/>
	<path class="st1" d="M18.44,14.39v-3.66h0.84c0.19,0,0.36,0.02,0.5,0.05c0.14,0.03,0.26,0.08,0.36,0.16
		c0.1,0.07,0.18,0.18,0.23,0.3c0.05,0.13,0.08,0.28,0.08,0.47c0,0.23-0.03,0.42-0.1,0.56c-0.07,0.15-0.18,0.25-0.34,0.32l0.51,1.81
		h-0.67l-0.44-1.67h-0.3v1.67H18.44z M19.11,12.29h0.16c0.2,0,0.34-0.04,0.42-0.13c0.08-0.08,0.12-0.23,0.12-0.43
		c0-0.2-0.04-0.34-0.11-0.42c-0.07-0.09-0.2-0.13-0.4-0.13h-0.2V12.29z"/>
	<polygon class="st1" points="20.83,14.39 20.83,10.72 22.37,10.72 22.37,11.2 21.5,11.2 21.5,12.25 22.19,12.25 22.19,12.72 
		21.5,12.72 21.5,13.93 22.38,13.93 22.38,14.39 	"/>
	<path class="st1" d="M23.63,14.43c-0.16,0-0.3-0.02-0.42-0.06c-0.12-0.04-0.22-0.1-0.3-0.17c-0.08-0.07-0.14-0.16-0.19-0.26
		c-0.05-0.1-0.08-0.22-0.1-0.34c-0.02-0.12-0.03-0.26-0.03-0.41v-1.28c0-0.16,0.01-0.3,0.03-0.42c0.02-0.12,0.06-0.24,0.1-0.34
		c0.05-0.11,0.11-0.19,0.19-0.26c0.08-0.07,0.18-0.12,0.3-0.16c0.12-0.04,0.26-0.06,0.42-0.06c0.18,0,0.34,0.02,0.47,0.07
		c0.13,0.05,0.23,0.12,0.31,0.21c0.08,0.09,0.13,0.2,0.16,0.33c0.03,0.13,0.05,0.27,0.05,0.44v0.31h-0.64v-0.31
		c0-0.18-0.01-0.31-0.03-0.37c-0.04-0.12-0.13-0.19-0.28-0.2h-0.04c-0.06,0-0.11,0.01-0.15,0.02c-0.04,0.01-0.08,0.03-0.1,0.06
		c-0.03,0.03-0.05,0.06-0.06,0.09c-0.02,0.03-0.03,0.07-0.04,0.13s-0.01,0.1-0.02,0.15c0,0.04,0,0.1,0,0.17v1.55
		c0,0.22,0.03,0.37,0.08,0.46c0.05,0.09,0.15,0.14,0.29,0.14c0.05,0,0.09-0.01,0.12-0.02c0.04-0.01,0.07-0.03,0.09-0.04
		c0.02-0.02,0.04-0.04,0.06-0.07c0.02-0.03,0.03-0.06,0.04-0.09c0.01-0.03,0.02-0.07,0.02-0.11c0-0.05,0.01-0.09,0.01-0.12
		c0-0.03,0-0.08,0-0.14v-0.33h0.64v0.3c0,0.14-0.01,0.26-0.03,0.37c-0.02,0.11-0.05,0.21-0.1,0.31c-0.05,0.1-0.11,0.18-0.18,0.24
		c-0.07,0.06-0.17,0.11-0.28,0.15C23.92,14.41,23.78,14.43,23.63,14.43"/>
	<rect x="24.98" y="10.72" class="st1" width="0.66" height="3.66"/>
	<polygon class="st1" points="26.08,14.39 26.14,10.72 26.83,10.72 27.36,13.3 27.9,10.72 28.57,10.72 28.64,14.39 28.13,14.39 
		28.09,11.86 27.56,14.39 27.17,14.39 26.63,11.86 26.59,14.39 	"/>
	<rect x="29.08" y="10.72" class="st1" width="0.66" height="3.66"/>
	<polygon class="st1" points="30.18,14.39 30.18,10.72 31.72,10.72 31.72,11.2 30.85,11.2 30.85,12.25 31.54,12.25 31.54,12.72 
		30.85,12.72 30.85,13.93 31.73,13.93 31.73,14.39 	"/>
	<polygon class="st1" points="32,14.39 32,10.72 32.45,10.72 33.35,12.8 33.35,10.72 33.91,10.72 33.91,14.39 33.47,14.39 
		32.56,12.21 32.56,14.39 	"/>
	<polygon class="st1" points="34.69,14.39 34.69,11.22 34.08,11.22 34.08,10.72 35.96,10.72 35.96,11.22 35.36,11.22 35.36,14.39 	
		"/>
	<path class="st1" d="M37.13,14.43c-0.38,0-0.65-0.1-0.81-0.31c-0.16-0.2-0.25-0.5-0.25-0.9v-1.35c0-0.19,0.02-0.36,0.06-0.51
		c0.04-0.14,0.1-0.27,0.18-0.37c0.08-0.1,0.19-0.18,0.33-0.24c0.14-0.05,0.3-0.08,0.5-0.08c0.38,0,0.65,0.1,0.81,0.3
		c0.16,0.2,0.25,0.5,0.25,0.89v1.35c0,0.19-0.02,0.36-0.06,0.5c-0.04,0.15-0.1,0.27-0.18,0.38c-0.08,0.11-0.19,0.19-0.33,0.24
		C37.48,14.41,37.32,14.43,37.13,14.43 M36.96,13.91c0.05,0.02,0.1,0.03,0.17,0.03c0.06,0,0.12-0.01,0.17-0.03
		c0.05-0.02,0.08-0.04,0.11-0.08c0.03-0.03,0.05-0.07,0.06-0.12c0.02-0.05,0.03-0.1,0.03-0.15c0.01-0.05,0.01-0.11,0.01-0.18v-1.66
		c0-0.09,0-0.16-0.01-0.22c-0.01-0.06-0.03-0.11-0.05-0.17c-0.03-0.05-0.06-0.09-0.12-0.12c-0.05-0.03-0.12-0.04-0.2-0.04
		c-0.08,0-0.15,0.01-0.2,0.04c-0.05,0.03-0.09,0.06-0.12,0.12c-0.03,0.05-0.04,0.11-0.05,0.17c-0.01,0.06-0.01,0.13-0.01,0.22v1.66
		c0,0.07,0,0.13,0.01,0.18c0.01,0.05,0.02,0.1,0.03,0.15c0.02,0.05,0.04,0.09,0.06,0.12C36.88,13.86,36.91,13.89,36.96,13.91"/>
	<polygon class="st1" points="13.04,20.38 13.04,16.71 14.58,16.71 14.58,17.18 13.71,17.18 13.71,18.24 14.39,18.24 14.39,18.71 
		13.71,18.71 13.71,19.92 14.59,19.92 14.59,20.38 	"/>
	<path class="st1" d="M15.84,20.42c-0.16,0-0.3-0.02-0.42-0.06c-0.12-0.04-0.22-0.1-0.3-0.17c-0.08-0.07-0.14-0.16-0.19-0.26
		c-0.05-0.1-0.08-0.22-0.1-0.34c-0.02-0.12-0.03-0.26-0.03-0.41v-1.28c0-0.16,0.01-0.3,0.03-0.42c0.02-0.12,0.06-0.24,0.1-0.34
		c0.05-0.11,0.11-0.19,0.19-0.26c0.08-0.07,0.18-0.12,0.3-0.16c0.12-0.04,0.26-0.06,0.42-0.06c0.18,0,0.34,0.02,0.47,0.07
		c0.13,0.05,0.23,0.12,0.31,0.21c0.08,0.09,0.13,0.2,0.16,0.33c0.03,0.13,0.05,0.27,0.05,0.44v0.31h-0.64v-0.31
		c0-0.18-0.01-0.31-0.03-0.37c-0.04-0.12-0.13-0.19-0.28-0.2h-0.04c-0.06,0-0.11,0.01-0.15,0.02c-0.04,0.01-0.08,0.03-0.1,0.06
		c-0.03,0.03-0.05,0.06-0.06,0.09c-0.02,0.03-0.03,0.07-0.04,0.13c-0.01,0.05-0.01,0.1-0.02,0.14c0,0.04,0,0.1,0,0.17v1.55
		c0,0.22,0.03,0.37,0.08,0.46c0.05,0.09,0.15,0.14,0.29,0.14c0.05,0,0.09-0.01,0.12-0.02c0.04-0.01,0.07-0.03,0.09-0.04
		c0.02-0.02,0.04-0.04,0.06-0.07c0.02-0.03,0.03-0.06,0.04-0.09c0.01-0.03,0.02-0.07,0.02-0.11c0-0.05,0.01-0.09,0.01-0.12
		c0-0.03,0-0.08,0-0.14V19h0.64v0.3c0,0.14-0.01,0.26-0.03,0.37c-0.02,0.11-0.05,0.21-0.1,0.31c-0.05,0.1-0.11,0.18-0.18,0.24
		c-0.07,0.06-0.17,0.11-0.28,0.15C16.12,20.4,15.99,20.42,15.84,20.42"/>
	<path class="st1" d="M18.17,20.42c-0.38,0-0.65-0.1-0.81-0.31c-0.16-0.2-0.25-0.5-0.25-0.9v-1.35c0-0.19,0.02-0.36,0.06-0.51
		c0.04-0.14,0.1-0.27,0.18-0.37c0.08-0.1,0.19-0.18,0.33-0.24c0.14-0.05,0.3-0.08,0.49-0.08c0.38,0,0.65,0.1,0.81,0.3
		c0.16,0.2,0.25,0.5,0.25,0.89v1.35c0,0.19-0.02,0.36-0.06,0.5c-0.04,0.15-0.1,0.27-0.18,0.38c-0.08,0.11-0.19,0.19-0.33,0.24
		C18.52,20.39,18.36,20.42,18.17,20.42 M18,19.9c0.05,0.02,0.1,0.03,0.17,0.03c0.06,0,0.12-0.01,0.17-0.03
		c0.05-0.02,0.08-0.04,0.11-0.08c0.03-0.03,0.05-0.07,0.06-0.12c0.02-0.05,0.03-0.1,0.03-0.15c0.01-0.05,0.01-0.11,0.01-0.18v-1.66
		c0-0.09,0-0.16-0.01-0.22c-0.01-0.06-0.03-0.11-0.05-0.17c-0.03-0.05-0.06-0.09-0.12-0.12c-0.05-0.03-0.12-0.04-0.2-0.04
		c-0.08,0-0.15,0.01-0.2,0.04c-0.05,0.03-0.09,0.06-0.12,0.12c-0.03,0.05-0.04,0.11-0.05,0.17c-0.01,0.06-0.01,0.13-0.01,0.22v1.66
		c0,0.07,0,0.13,0.01,0.18c0.01,0.05,0.02,0.1,0.03,0.15c0.02,0.05,0.04,0.09,0.06,0.12C17.92,19.85,17.96,19.88,18,19.9"/>
	<polygon class="st1" points="19.6,20.38 19.6,16.71 20.06,16.71 20.95,18.79 20.95,16.71 21.51,16.71 21.51,20.38 21.07,20.38 
		20.16,18.2 20.16,20.38 	"/>
	<path class="st1" d="M22.93,20.42c-0.38,0-0.65-0.1-0.81-0.31c-0.16-0.2-0.25-0.5-0.25-0.9v-1.35c0-0.19,0.02-0.36,0.05-0.51
		c0.04-0.14,0.1-0.27,0.18-0.37c0.08-0.1,0.19-0.18,0.33-0.24c0.14-0.05,0.3-0.08,0.5-0.08c0.38,0,0.65,0.1,0.81,0.3
		c0.16,0.2,0.25,0.5,0.25,0.89v1.35c0,0.19-0.02,0.36-0.06,0.5c-0.04,0.15-0.1,0.27-0.18,0.38c-0.08,0.11-0.19,0.19-0.33,0.24
		C23.29,20.39,23.12,20.42,22.93,20.42 M22.77,19.9c0.05,0.02,0.1,0.03,0.17,0.03c0.06,0,0.12-0.01,0.17-0.03
		c0.05-0.02,0.08-0.04,0.11-0.08c0.03-0.03,0.05-0.07,0.06-0.12c0.02-0.05,0.03-0.1,0.03-0.15c0.01-0.05,0.01-0.11,0.01-0.18v-1.66
		c0-0.09,0-0.16-0.01-0.22c-0.01-0.06-0.03-0.11-0.05-0.17c-0.03-0.05-0.06-0.09-0.12-0.12c-0.05-0.03-0.12-0.04-0.2-0.04
		c-0.08,0-0.15,0.01-0.2,0.04c-0.05,0.03-0.09,0.06-0.12,0.12c-0.03,0.05-0.04,0.11-0.05,0.17c-0.01,0.06-0.01,0.13-0.01,0.22v1.66
		c0,0.07,0,0.13,0.01,0.18c0.01,0.05,0.02,0.1,0.03,0.15c0.02,0.05,0.04,0.09,0.06,0.12C22.68,19.85,22.72,19.88,22.77,19.9
		 M22.76,16.4l0.27-0.9h0.63l-0.54,0.9H22.76z"/>
	<polygon class="st1" points="24.35,20.38 24.41,16.71 25.1,16.71 25.63,19.29 26.17,16.71 26.84,16.71 26.91,20.38 26.4,20.38 
		26.36,17.85 25.83,20.38 25.44,20.38 24.9,17.85 24.86,20.38 	"/>
	<rect x="27.35" y="16.71" class="st1" width="0.66" height="3.66"/>
	<path class="st1" d="M29.44,20.42c-0.16,0-0.3-0.02-0.42-0.06c-0.12-0.04-0.22-0.1-0.3-0.17c-0.08-0.07-0.14-0.16-0.19-0.26
		c-0.05-0.1-0.08-0.22-0.1-0.34c-0.02-0.12-0.03-0.26-0.03-0.41v-1.28c0-0.16,0.01-0.3,0.03-0.42c0.02-0.12,0.06-0.24,0.1-0.34
		c0.05-0.11,0.11-0.19,0.19-0.26c0.08-0.07,0.18-0.12,0.3-0.16c0.12-0.04,0.26-0.06,0.42-0.06c0.18,0,0.34,0.02,0.47,0.07
		c0.13,0.05,0.23,0.12,0.31,0.21c0.08,0.09,0.13,0.2,0.16,0.33c0.03,0.13,0.05,0.27,0.05,0.44v0.31h-0.64v-0.31
		c0-0.18-0.01-0.31-0.03-0.37c-0.04-0.12-0.13-0.19-0.28-0.2h-0.04c-0.06,0-0.11,0.01-0.15,0.02c-0.04,0.01-0.08,0.03-0.1,0.06
		c-0.03,0.03-0.05,0.06-0.06,0.09c-0.02,0.03-0.03,0.07-0.04,0.13c-0.01,0.05-0.01,0.1-0.02,0.14c0,0.04,0,0.1,0,0.17v1.55
		c0,0.22,0.03,0.37,0.08,0.46c0.05,0.09,0.15,0.14,0.29,0.14c0.05,0,0.09-0.01,0.12-0.02c0.04-0.01,0.07-0.03,0.09-0.04
		c0.02-0.02,0.04-0.04,0.06-0.07c0.02-0.03,0.03-0.06,0.04-0.09c0.01-0.03,0.02-0.07,0.02-0.11c0-0.05,0.01-0.09,0.01-0.12
		c0-0.03,0-0.08,0-0.14V19h0.64v0.3c0,0.14-0.01,0.26-0.03,0.37c-0.02,0.11-0.05,0.21-0.1,0.31c-0.05,0.1-0.11,0.18-0.18,0.24
		c-0.07,0.06-0.17,0.11-0.28,0.15C29.72,20.4,29.59,20.42,29.44,20.42"/>
	<path class="st1" d="M31.77,20.42c-0.38,0-0.65-0.1-0.81-0.31c-0.16-0.2-0.25-0.5-0.25-0.9v-1.35c0-0.19,0.02-0.36,0.06-0.51
		c0.04-0.14,0.1-0.27,0.18-0.37c0.08-0.1,0.19-0.18,0.33-0.24c0.14-0.05,0.3-0.08,0.5-0.08c0.38,0,0.65,0.1,0.81,0.3
		c0.16,0.2,0.25,0.5,0.25,0.89v1.35c0,0.19-0.02,0.36-0.06,0.5c-0.04,0.15-0.1,0.27-0.18,0.38c-0.08,0.11-0.19,0.19-0.33,0.24
		C32.12,20.39,31.96,20.42,31.77,20.42 M31.6,19.9c0.05,0.02,0.1,0.03,0.17,0.03c0.06,0,0.12-0.01,0.17-0.03
		c0.05-0.02,0.08-0.04,0.11-0.08c0.03-0.03,0.05-0.07,0.06-0.12c0.02-0.05,0.03-0.1,0.03-0.15c0-0.05,0.01-0.11,0.01-0.18v-1.66
		c0-0.09,0-0.16-0.01-0.22c-0.01-0.06-0.03-0.11-0.05-0.17c-0.03-0.05-0.06-0.09-0.12-0.12c-0.05-0.03-0.12-0.04-0.2-0.04
		c-0.08,0-0.15,0.01-0.2,0.04c-0.05,0.03-0.09,0.06-0.12,0.12c-0.03,0.05-0.04,0.11-0.05,0.17c-0.01,0.06-0.01,0.13-0.01,0.22v1.66
		c0,0.07,0,0.13,0.01,0.18c0.01,0.05,0.02,0.1,0.03,0.15c0.02,0.05,0.04,0.09,0.06,0.12C31.52,19.85,31.56,19.88,31.6,19.9"/>
	<path class="st1" d="M33.53,28.24l-4.31,4.1c-0.16,0.16-0.25,0.28-0.25,0.62v11.5c0,0.13,0.11,0.25,0.25,0.25h4.46
		c0.14,0,0.25-0.11,0.25-0.25V28.35C33.92,28.21,33.81,27.96,33.53,28.24"/>
	<path class="st1" d="M21.1,33.59l-4.31,4.1c-0.16,0.16-0.25,0.28-0.25,0.62v6.15c0,0.13,0.11,0.24,0.25,0.24h4.46
		c0.14,0,0.25-0.11,0.25-0.24V33.69C21.49,33.56,21.38,33.31,21.1,33.59"/>
	<path class="st1" d="M35.49,23.27c0-0.03-0.01-0.07-0.04-0.09c-0.02-0.02-0.05-0.03-0.08-0.03l-0.02,0l-0.04,0l-3.3,0.74
		l-0.06,0.01c-0.02,0-0.05,0.02-0.06,0.03c-0.05,0.05-0.05,0.13,0,0.18l0.04,0.04l0.75,0.75l-7.48,7.48l-3.46-3.46
		c-0.04-0.04-0.1-0.04-0.14,0l-0.94,0.94c0,0,0,0,0,0l-5.54,5.54c-0.04,0.04-0.04,0.1,0,0.14l0.94,0.94c0.04,0.04,0.1,0.04,0.14,0
		l5.47-5.47l2.51,2.51c0,0,0,0.01,0.01,0.01l0.94,0.94c0.04,0.04,0.1,0.04,0.14,0l8.49-8.49l0.79,0.79c0.05,0.05,0.13,0.05,0.18,0
		c0.02-0.02,0.03-0.05,0.04-0.08l0-0.01l0.73-3.37L35.49,23.27z"/>
	<path class="st1" d="M27.34,34.31l-2.09,2.1c-0.04,0.03-0.1,0.03-0.13-0.01l-1.89-1.93c-0.35-0.34-0.42-0.07-0.42,0.07v9.91
		c0,0.13,0.11,0.25,0.24,0.25h4.46c0.14,0,0.25-0.11,0.25-0.25V34.39C27.75,34.25,27.65,34,27.34,34.31"/>
</g>
</svg>
