<?xml version="1.0" encoding="utf-8"?>
<!-- Generator: Adobe Illustrator 26.5.0, SVG Export Plug-In . SVG Version: 6.00 Build 0)  -->
<svg version="1.1" id="Capa_1" xmlns="http://www.w3.org/2000/svg" xmlns:xlink="http://www.w3.org/1999/xlink" x="0px" y="0px"
	 viewBox="0 0 51.02 51.02" style="enable-background:new 0 0 51.02 51.02;" xml:space="preserve">
<style type="text/css">
	.st0{fill:#E5273C;}
	.st1{fill:#FFFFFF;}
	.st2{fill:none;stroke:#FFFFFF;stroke-width:0.5952;stroke-linecap:round;stroke-miterlimit:10;}
	.st3{fill:#FCC30C;}
	.st4{fill:#A31B43;}
	.st5{fill:#F59C2D;}
	.st6{fill:#ED692F;}
	.st7{fill:#DDA73A;}
	.st8{fill:#4E9F38;}
	.st9{fill:#C51D2E;}
	.st10{fill:#E8422F;}
	.st11{fill:#2EBCE1;}
	.st12{fill:#DE1868;}
	.st13{fill:#BE8B30;}
	.st14{fill:#61B235;}
	.st15{fill:#02699F;}
	.st16{fill:#1896D4;}
	.st17{fill:#3F7F45;}
	.st18{fill:#1A496A;}
</style>
<g>
	<rect x="0.37" y="0.42" class="st7" width="50.29" height="50.18"/>
	<path class="st1" d="M4.42,12.98L6.74,9.4l0.14-0.21c0.3-0.45,0.52-0.83,0.66-1.13c0.14-0.3,0.21-0.64,0.21-1
		c0-0.31-0.06-0.54-0.18-0.7C7.47,6.19,7.3,6.11,7.07,6.11c-0.33,0-0.56,0.13-0.69,0.38C6.26,6.74,6.2,7.08,6.2,7.53v0.44H4.42V7.49
		c0-0.9,0.21-1.61,0.63-2.14c0.42-0.52,1.08-0.79,1.98-0.79c0.83,0,1.46,0.22,1.89,0.66c0.43,0.44,0.65,1.06,0.65,1.86
		c0,0.36-0.06,0.71-0.17,1.03C9.3,8.44,9.17,8.73,9.02,8.98c-0.15,0.25-0.38,0.61-0.7,1.08l-1.85,2.77h2.85v1.44h-4.9V12.98z"/>
	<polygon class="st1" points="13.61,8.34 13.61,4.68 14.27,4.68 14.27,6.21 15.02,6.21 15.02,4.68 15.69,4.68 15.69,8.34 
		15.02,8.34 15.02,6.69 14.27,6.69 14.27,8.34 	"/>
	<path class="st1" d="M16.03,8.34l0.74-3.66h0.7l0.74,3.66h-0.62l-0.15-0.85h-0.63l-0.15,0.85H16.03z M16.88,7.06h0.49l-0.25-1.51
		L16.88,7.06z"/>
	<polygon class="st1" points="18.54,8.34 18.6,4.68 19.29,4.68 19.82,7.25 20.36,4.68 21.03,4.68 21.1,8.34 20.59,8.34 20.55,5.82 
		20.02,8.34 19.63,8.34 19.09,5.81 19.05,8.34 	"/>
	<path class="st1" d="M21.61,8.34V4.68h0.9c0.17,0,0.32,0.02,0.44,0.04c0.13,0.03,0.24,0.08,0.34,0.15c0.1,0.07,0.17,0.17,0.22,0.29
		c0.05,0.12,0.07,0.27,0.07,0.45c0,0.45-0.18,0.71-0.54,0.76c0.22,0.04,0.38,0.14,0.48,0.28c0.11,0.15,0.16,0.36,0.16,0.62
		c0,0.35-0.09,0.61-0.26,0.79C23.26,8.25,23,8.34,22.67,8.34H21.61z M22.28,6.17h0.21c0.2,0,0.33-0.04,0.4-0.13
		C22.97,5.96,23,5.82,23,5.62c0-0.1-0.01-0.19-0.04-0.25c-0.02-0.06-0.06-0.11-0.12-0.14c-0.06-0.03-0.12-0.05-0.19-0.06
		c-0.07-0.01-0.16-0.02-0.28-0.02h-0.09V6.17z M22.28,7.87h0.25c0.2,0,0.34-0.05,0.41-0.14c0.08-0.09,0.11-0.25,0.11-0.46
		c0-0.22-0.04-0.38-0.13-0.48c-0.09-0.1-0.23-0.15-0.43-0.15h-0.21V7.87z"/>
	<path class="st1" d="M24.1,8.34V4.68h0.84c0.19,0,0.36,0.02,0.5,0.05s0.26,0.08,0.36,0.16c0.1,0.07,0.18,0.18,0.23,0.3
		c0.05,0.13,0.08,0.28,0.08,0.47c0,0.23-0.03,0.42-0.1,0.56c-0.07,0.15-0.18,0.25-0.34,0.32l0.51,1.81h-0.67l-0.44-1.67h-0.3v1.67
		H24.1z M24.77,6.24h0.16c0.2,0,0.34-0.04,0.42-0.13c0.08-0.08,0.12-0.23,0.12-0.43c0-0.2-0.04-0.34-0.11-0.42
		c-0.07-0.09-0.2-0.13-0.4-0.13h-0.2V6.24z"/>
	<polygon class="st1" points="26.59,8.34 26.59,4.68 28.13,4.68 28.13,5.15 27.26,5.15 27.26,6.2 27.95,6.2 27.95,6.67 27.26,6.67 
		27.26,7.88 28.14,7.88 28.14,8.34 	"/>
	<path class="st1" d="M14.58,14.38c-0.16,0-0.3-0.02-0.42-0.06c-0.12-0.04-0.22-0.1-0.3-0.17c-0.08-0.07-0.14-0.16-0.19-0.26
		c-0.05-0.1-0.08-0.22-0.1-0.34c-0.02-0.12-0.03-0.26-0.03-0.41v-1.28c0-0.16,0.01-0.3,0.03-0.42c0.02-0.12,0.06-0.24,0.1-0.34
		c0.05-0.11,0.11-0.19,0.19-0.26c0.08-0.07,0.18-0.12,0.3-0.16c0.12-0.04,0.26-0.06,0.42-0.06c0.18,0,0.34,0.02,0.47,0.07
		c0.13,0.05,0.23,0.12,0.31,0.21c0.08,0.09,0.13,0.2,0.16,0.33c0.03,0.13,0.05,0.27,0.05,0.44V12h-0.64v-0.31
		c0-0.18-0.01-0.31-0.03-0.37c-0.04-0.12-0.13-0.19-0.28-0.2h-0.04c-0.06,0-0.11,0.01-0.15,0.02c-0.04,0.01-0.08,0.03-0.1,0.06
		c-0.03,0.03-0.05,0.06-0.06,0.09c-0.02,0.03-0.03,0.07-0.04,0.13c-0.01,0.05-0.01,0.1-0.02,0.15c0,0.04,0,0.1,0,0.17v1.55
		c0,0.22,0.03,0.37,0.08,0.46c0.05,0.09,0.15,0.14,0.29,0.14c0.05,0,0.09-0.01,0.12-0.02c0.04-0.01,0.07-0.03,0.09-0.04
		c0.02-0.02,0.04-0.04,0.06-0.07c0.02-0.03,0.03-0.06,0.04-0.09c0.01-0.03,0.02-0.07,0.02-0.11c0-0.05,0.01-0.09,0.01-0.12
		c0-0.03,0-0.08,0-0.14v-0.33h0.64v0.3c0,0.14-0.01,0.26-0.03,0.37c-0.02,0.11-0.05,0.21-0.1,0.31c-0.05,0.1-0.11,0.18-0.18,0.24
		c-0.07,0.06-0.17,0.11-0.28,0.15C14.87,14.36,14.73,14.38,14.58,14.38"/>
	<polygon class="st1" points="16.01,14.33 16.01,10.67 17.55,10.67 17.55,11.14 16.68,11.14 16.68,12.19 17.36,12.19 17.36,12.66 
		16.68,12.66 16.68,13.87 17.56,13.87 17.56,14.33 	"/>
	<path class="st1" d="M17.92,14.33v-3.66h0.84c0.19,0,0.36,0.02,0.5,0.05c0.14,0.03,0.26,0.08,0.36,0.16
		c0.1,0.07,0.18,0.18,0.23,0.3c0.05,0.13,0.08,0.28,0.08,0.47c0,0.23-0.03,0.42-0.1,0.56c-0.07,0.15-0.18,0.25-0.34,0.32l0.51,1.81
		h-0.67l-0.44-1.67h-0.3v1.67H17.92z M18.59,12.23h0.16c0.2,0,0.34-0.04,0.42-0.13c0.08-0.08,0.12-0.23,0.12-0.43
		c0-0.2-0.04-0.34-0.11-0.42c-0.07-0.09-0.2-0.13-0.4-0.13h-0.2V12.23z"/>
	<path class="st1" d="M21.4,14.38c-0.38,0-0.65-0.1-0.81-0.31c-0.16-0.2-0.25-0.5-0.25-0.9v-1.35c0-0.19,0.02-0.36,0.06-0.51
		c0.04-0.14,0.1-0.27,0.18-0.37c0.08-0.1,0.19-0.18,0.33-0.24c0.14-0.05,0.3-0.08,0.49-0.08c0.38,0,0.65,0.1,0.81,0.3
		c0.16,0.2,0.25,0.5,0.25,0.89v1.35c0,0.19-0.02,0.36-0.06,0.5c-0.04,0.15-0.1,0.27-0.18,0.38c-0.08,0.11-0.19,0.19-0.33,0.24
		C21.76,14.35,21.6,14.38,21.4,14.38 M21.24,13.85c0.05,0.02,0.1,0.03,0.17,0.03c0.06,0,0.12-0.01,0.17-0.03
		c0.05-0.02,0.08-0.04,0.11-0.08c0.03-0.03,0.05-0.07,0.06-0.12c0.02-0.05,0.03-0.1,0.03-0.15c0.01-0.05,0.01-0.11,0.01-0.18v-1.66
		c0-0.09,0-0.16-0.01-0.22c-0.01-0.06-0.03-0.11-0.05-0.17c-0.03-0.05-0.06-0.09-0.12-0.12c-0.05-0.03-0.12-0.04-0.2-0.04
		c-0.08,0-0.15,0.01-0.2,0.04c-0.05,0.03-0.09,0.06-0.12,0.12c-0.03,0.05-0.04,0.11-0.05,0.17c-0.01,0.06-0.01,0.13-0.01,0.22v1.66
		c0,0.07,0,0.13,0.01,0.18c0.01,0.05,0.02,0.1,0.03,0.15c0.02,0.05,0.04,0.09,0.06,0.12C21.15,13.81,21.19,13.83,21.24,13.85"/>
	<path class="st1" d="M20.4,43.12v0.71c0,0.01,0,0.01,0,0.02c0,0.01,0,0.01,0,0.02c0.01,0.18,0.15,0.32,0.33,0.32c0,0,0,0,0.01,0
		c0,0,0.01,0,0.01,0h8.33c0,0,0,0,0.01,0c0,0,0,0,0.01,0c0.18,0,0.33-0.15,0.33-0.33c0,0,0,0,0,0l0,0v-0.8
		c4.69-1.54,8.21-5.34,8.98-9.97c0-0.01,0-0.02,0-0.03c0-0.02,0.01-0.03,0.01-0.05c0-0.19-0.15-0.34-0.34-0.34h-26.4h-0.16
		c-0.19,0-0.34,0.15-0.34,0.34l0.02,0.15C12,37.82,15.62,41.65,20.4,43.12"/>
	<path class="st1" d="M29.41,21.32c-0.11,0.16-2.68,3.85,0.06,6.84c1.25,1.37,1.14,2.58,0.79,3.4h1.75
		c0.35-1.21,0.21-2.72-1.21-4.27c-2.01-2.2,0.03-5.18,0.06-5.22c0.24-0.34,0.11-0.78-0.28-0.98C30.17,20.88,29.66,20.99,29.41,21.32
		"/>
	<path class="st1" d="M24.97,31.56h1.75c0.35-1.21,0.21-2.72-1.22-4.27c-2.01-2.2,0.02-5.18,0.06-5.22
		c0.24-0.34,0.11-0.77-0.28-0.98c-0.4-0.2-0.91-0.1-1.15,0.24c-0.11,0.16-2.68,3.85,0.06,6.84C25.44,29.53,25.33,30.74,24.97,31.56"
		/>
	<path class="st1" d="M18.85,21.32c-0.11,0.16-2.68,3.85,0.06,6.84c1.25,1.37,1.15,2.58,0.79,3.4h1.75
		c0.35-1.21,0.21-2.72-1.22-4.27c-2.01-2.2,0.03-5.18,0.06-5.22c0.24-0.34,0.11-0.78-0.29-0.98C19.6,20.88,19.09,20.98,18.85,21.32"
		/>
</g>
</svg>
