<?xml version="1.0" encoding="utf-8"?>
<!-- Generator: Adobe Illustrator 26.5.0, SVG Export Plug-In . SVG Version: 6.00 Build 0)  -->
<svg version="1.1" id="Capa_1" xmlns="http://www.w3.org/2000/svg" xmlns:xlink="http://www.w3.org/1999/xlink" x="0px" y="0px"
	 viewBox="0 0 51.02 51.02" style="enable-background:new 0 0 51.02 51.02;" xml:space="preserve">
<style type="text/css">
	.st0{fill:#E5273C;}
	.st1{fill:#FFFFFF;}
	.st2{fill:none;stroke:#FFFFFF;stroke-width:0.5952;stroke-linecap:round;stroke-miterlimit:10;}
	.st3{fill:#FCC30C;}
	.st4{fill:#A31B43;}
	.st5{fill:#F59C2D;}
	.st6{fill:#ED692F;}
	.st7{fill:#DDA73A;}
	.st8{fill:#4E9F38;}
	.st9{fill:#C51D2E;}
	.st10{fill:#E8422F;}
	.st11{fill:#2EBCE1;}
	.st12{fill:#DE1868;}
	.st13{fill:#BE8B30;}
	.st14{fill:#61B235;}
	.st15{fill:#02699F;}
	.st16{fill:#1896D4;}
	.st17{fill:#3F7F45;}
	.st18{fill:#1A496A;}
</style>
<g>
	
		<rect x="0.4" y="0.4" transform="matrix(1.366030e-03 -1 1 1.366030e-03 -0.0348 50.989)" class="st17" width="50.22" height="50.22"/>
	<path class="st1" d="M4.68,6.64c-0.09,0.05-0.34,0.15-0.76,0.3C3.59,7.04,3.38,7.12,3.29,7.16V5.79c0.27-0.1,0.59-0.26,0.98-0.47
		c0.38-0.21,0.65-0.41,0.81-0.58h1.43v9.59H4.68V6.64z"/>
	<path class="st1" d="M8.06,13.74c-0.4-0.51-0.6-1.22-0.6-2.14v-0.33h1.82v0.32c0.01,0.49,0.07,0.84,0.18,1.05
		c0.11,0.21,0.31,0.32,0.6,0.32c0.29,0,0.49-0.11,0.59-0.33c0.1-0.22,0.15-0.57,0.15-1.06c0-0.51-0.07-0.89-0.22-1.14
		c-0.15-0.25-0.43-0.38-0.83-0.39c-0.02-0.01-0.13-0.01-0.33-0.01V8.7h0.3c0.41,0,0.69-0.11,0.85-0.33
		c0.16-0.22,0.24-0.58,0.24-1.09c0-0.41-0.06-0.71-0.17-0.91c-0.11-0.2-0.32-0.3-0.61-0.3c-0.28,0-0.47,0.11-0.57,0.32
		C9.35,6.6,9.29,6.92,9.28,7.33v0.43H7.46V7.24c0-0.84,0.22-1.48,0.67-1.94c0.45-0.46,1.08-0.69,1.89-0.69
		c0.83,0,1.47,0.22,1.92,0.66c0.45,0.44,0.67,1.08,0.67,1.91c0,0.55-0.11,1.02-0.34,1.39c-0.23,0.38-0.52,0.61-0.88,0.7
		c0.81,0.3,1.22,1.05,1.22,2.26c0,0.92-0.21,1.65-0.62,2.17c-0.41,0.53-1.06,0.79-1.95,0.79C9.13,14.5,8.47,14.24,8.06,13.74"/>
	<path class="st1" d="M16.45,8.4l0.74-3.66h0.7l0.74,3.66h-0.62l-0.15-0.85h-0.63L17.08,8.4H16.45z M17.31,7.11h0.49l-0.25-1.51
		L17.31,7.11z"/>
	<path class="st1" d="M19.98,8.44c-0.16,0-0.3-0.02-0.42-0.06c-0.12-0.04-0.22-0.1-0.3-0.17c-0.08-0.07-0.14-0.16-0.19-0.26
		c-0.05-0.1-0.08-0.22-0.1-0.34c-0.02-0.12-0.03-0.26-0.03-0.41V5.94c0-0.16,0.01-0.3,0.03-0.42c0.02-0.12,0.06-0.24,0.1-0.34
		c0.05-0.11,0.11-0.19,0.19-0.26c0.08-0.07,0.18-0.12,0.3-0.16c0.12-0.04,0.26-0.06,0.42-0.06c0.18,0,0.34,0.02,0.47,0.07
		c0.13,0.05,0.23,0.12,0.31,0.21c0.08,0.09,0.13,0.2,0.16,0.33c0.03,0.13,0.05,0.27,0.05,0.44v0.31h-0.64V5.75
		c0-0.18-0.01-0.31-0.03-0.37c-0.04-0.12-0.13-0.19-0.28-0.2h-0.04c-0.06,0-0.11,0.01-0.15,0.02c-0.04,0.01-0.08,0.03-0.1,0.06
		s-0.05,0.06-0.06,0.09c-0.02,0.03-0.03,0.08-0.04,0.13c-0.01,0.05-0.01,0.1-0.02,0.15c0,0.04,0,0.1,0,0.17v1.55
		c0,0.21,0.03,0.37,0.08,0.46c0.05,0.09,0.15,0.14,0.29,0.14c0.05,0,0.09-0.01,0.12-0.02c0.04-0.01,0.07-0.03,0.09-0.04
		c0.02-0.02,0.04-0.04,0.06-0.07c0.02-0.03,0.03-0.06,0.04-0.09c0.01-0.03,0.02-0.06,0.02-0.11c0-0.05,0.01-0.09,0.01-0.12
		c0-0.03,0-0.08,0-0.14V7.03h0.64v0.3c0,0.14-0.01,0.26-0.03,0.37S20.89,7.91,20.84,8c-0.05,0.1-0.11,0.18-0.18,0.24
		c-0.07,0.06-0.17,0.11-0.28,0.15C20.27,8.43,20.13,8.44,19.98,8.44"/>
	<path class="st1" d="M22.42,8.44c-0.16,0-0.3-0.02-0.42-0.06c-0.12-0.04-0.22-0.1-0.3-0.17c-0.08-0.07-0.14-0.16-0.19-0.26
		c-0.05-0.1-0.08-0.22-0.1-0.34c-0.02-0.12-0.03-0.26-0.03-0.41V5.94c0-0.16,0.01-0.3,0.03-0.42c0.02-0.12,0.06-0.24,0.1-0.34
		c0.05-0.11,0.11-0.19,0.19-0.26c0.08-0.07,0.18-0.12,0.3-0.16c0.12-0.04,0.26-0.06,0.42-0.06c0.18,0,0.34,0.02,0.47,0.07
		c0.13,0.05,0.23,0.12,0.31,0.21c0.08,0.09,0.13,0.2,0.16,0.33c0.03,0.13,0.05,0.27,0.05,0.44v0.31h-0.64V5.75
		c0-0.18-0.01-0.31-0.03-0.37c-0.04-0.12-0.13-0.19-0.28-0.2h-0.04c-0.06,0-0.11,0.01-0.15,0.02c-0.04,0.01-0.08,0.03-0.1,0.06
		c-0.03,0.03-0.05,0.06-0.06,0.09c-0.02,0.03-0.03,0.08-0.04,0.13c-0.01,0.05-0.01,0.1-0.02,0.15c0,0.04,0,0.1,0,0.17v1.55
		c0,0.21,0.03,0.37,0.08,0.46c0.05,0.09,0.15,0.14,0.29,0.14c0.05,0,0.09-0.01,0.12-0.02c0.04-0.01,0.07-0.03,0.09-0.04
		c0.02-0.02,0.04-0.04,0.06-0.07c0.02-0.03,0.03-0.06,0.04-0.09c0.01-0.03,0.02-0.06,0.02-0.11c0-0.05,0.01-0.09,0.01-0.12
		c0-0.03,0-0.08,0-0.14V7.03h0.64v0.3c0,0.14-0.01,0.26-0.03,0.37S23.33,7.91,23.28,8c-0.05,0.1-0.11,0.18-0.18,0.24
		c-0.07,0.06-0.17,0.11-0.28,0.15C22.7,8.43,22.57,8.44,22.42,8.44"/>
	<rect x="23.89" y="4.74" class="st1" width="0.66" height="3.66"/>
	<path class="st1" d="M26.11,8.44c-0.38,0-0.65-0.1-0.81-0.31c-0.16-0.2-0.25-0.51-0.25-0.9V5.89c0-0.19,0.02-0.36,0.05-0.51
		c0.04-0.14,0.1-0.27,0.18-0.37c0.08-0.1,0.19-0.18,0.33-0.24c0.14-0.05,0.3-0.08,0.5-0.08c0.38,0,0.65,0.1,0.81,0.3
		c0.16,0.2,0.25,0.5,0.25,0.89v1.35c0,0.19-0.02,0.36-0.06,0.5c-0.04,0.15-0.1,0.27-0.18,0.38c-0.08,0.11-0.19,0.19-0.33,0.24
		C26.46,8.42,26.3,8.44,26.11,8.44 M25.94,7.92c0.05,0.02,0.1,0.03,0.17,0.03c0.06,0,0.12-0.01,0.17-0.03
		c0.05-0.02,0.08-0.04,0.11-0.08c0.03-0.03,0.05-0.07,0.06-0.12c0.02-0.05,0.03-0.1,0.03-0.15c0.01-0.05,0.01-0.11,0.01-0.18V5.73
		c0-0.09,0-0.16-0.01-0.22c-0.01-0.06-0.03-0.11-0.05-0.17c-0.03-0.05-0.06-0.09-0.12-0.12c-0.05-0.03-0.12-0.04-0.2-0.04
		c-0.08,0-0.15,0.01-0.2,0.04c-0.05,0.03-0.09,0.06-0.12,0.12c-0.03,0.05-0.04,0.11-0.05,0.17c-0.01,0.06-0.01,0.13-0.01,0.22V7.4
		c0,0.07,0,0.13,0.01,0.18c0.01,0.05,0.02,0.1,0.03,0.15c0.02,0.05,0.04,0.09,0.06,0.12C25.86,7.88,25.9,7.9,25.94,7.92 M25.93,4.42
		l0.27-0.9h0.63l-0.54,0.9H25.93z"/>
	<polygon class="st1" points="27.65,8.4 27.65,4.74 28.11,4.74 29.01,6.81 29.01,4.74 29.56,4.74 29.56,8.4 29.13,8.4 28.22,6.22 
		28.22,8.4 	"/>
	<path class="st1" d="M16.64,14.39v-3.66h1.05c0.62,0,0.94,0.35,0.94,1.04c0,0.34-0.09,0.59-0.26,0.75
		c-0.17,0.16-0.41,0.24-0.72,0.24h-0.34v1.64H16.64z M17.31,12.28h0.21c0.19,0,0.32-0.04,0.38-0.11c0.07-0.07,0.1-0.21,0.1-0.41
		c0-0.11,0-0.2-0.01-0.26c-0.01-0.06-0.03-0.12-0.06-0.17c-0.03-0.05-0.08-0.09-0.14-0.11c-0.06-0.02-0.15-0.03-0.26-0.03h-0.22
		V12.28z"/>
	<path class="st1" d="M19.99,14.43c-0.38,0-0.65-0.1-0.81-0.31c-0.16-0.2-0.25-0.5-0.25-0.9v-1.35c0-0.19,0.02-0.36,0.06-0.51
		c0.04-0.14,0.1-0.27,0.18-0.37c0.08-0.1,0.19-0.18,0.33-0.24c0.14-0.05,0.3-0.08,0.49-0.08c0.38,0,0.65,0.1,0.81,0.3
		c0.16,0.2,0.25,0.5,0.25,0.89v1.35c0,0.19-0.02,0.36-0.06,0.5c-0.04,0.15-0.1,0.27-0.18,0.38c-0.08,0.11-0.19,0.19-0.33,0.24
		C20.34,14.41,20.18,14.43,19.99,14.43 M19.82,13.91c0.05,0.02,0.1,0.03,0.17,0.03c0.06,0,0.12-0.01,0.17-0.03
		c0.05-0.02,0.08-0.04,0.11-0.08c0.03-0.03,0.05-0.07,0.06-0.12c0.02-0.05,0.03-0.1,0.03-0.15c0.01-0.05,0.01-0.11,0.01-0.18v-1.66
		c0-0.09,0-0.16-0.01-0.22c-0.01-0.06-0.03-0.11-0.05-0.17c-0.03-0.05-0.06-0.09-0.12-0.12c-0.05-0.03-0.12-0.04-0.2-0.04
		c-0.08,0-0.15,0.01-0.2,0.04c-0.05,0.03-0.09,0.06-0.12,0.12c-0.03,0.05-0.04,0.11-0.05,0.17c-0.01,0.06-0.01,0.13-0.01,0.22v1.66
		c0,0.07,0,0.13,0.01,0.18c0.01,0.05,0.02,0.1,0.03,0.15c0.02,0.05,0.04,0.09,0.06,0.12C19.74,13.87,19.78,13.89,19.82,13.91"/>
	<path class="st1" d="M21.53,14.39v-3.66h0.84c0.19,0,0.36,0.02,0.5,0.05c0.14,0.03,0.26,0.08,0.36,0.16
		c0.1,0.07,0.18,0.18,0.23,0.3c0.05,0.13,0.08,0.28,0.08,0.47c0,0.23-0.03,0.42-0.1,0.56c-0.07,0.15-0.18,0.25-0.34,0.32l0.51,1.8
		h-0.67l-0.44-1.67h-0.3v1.67H21.53z M22.2,12.29h0.16c0.2,0,0.34-0.04,0.42-0.13c0.08-0.08,0.12-0.23,0.12-0.43
		c0-0.2-0.04-0.34-0.11-0.42c-0.07-0.09-0.2-0.13-0.4-0.13h-0.2V12.29z"/>
	<polygon class="st1" points="25.15,14.39 25.15,10.72 26.68,10.72 26.68,11.2 25.82,11.2 25.82,12.25 26.5,12.25 26.5,12.72 
		25.82,12.72 25.82,13.93 26.69,13.93 26.69,14.39 	"/>
	<polygon class="st1" points="27.08,14.39 27.08,10.72 27.75,10.72 27.75,13.93 28.62,13.93 28.62,14.39 	"/>
	<path class="st1" d="M31.07,14.43c-0.16,0-0.3-0.02-0.42-0.06c-0.12-0.04-0.22-0.1-0.3-0.17c-0.08-0.07-0.14-0.16-0.19-0.26
		c-0.05-0.1-0.08-0.22-0.1-0.34c-0.02-0.12-0.03-0.26-0.03-0.41v-1.28c0-0.16,0.01-0.3,0.03-0.42c0.02-0.12,0.06-0.24,0.1-0.34
		c0.05-0.11,0.11-0.19,0.19-0.26c0.08-0.07,0.18-0.12,0.3-0.16c0.12-0.04,0.26-0.06,0.42-0.06c0.18,0,0.34,0.02,0.47,0.07
		c0.13,0.05,0.23,0.12,0.31,0.21c0.08,0.09,0.13,0.2,0.16,0.33c0.03,0.13,0.05,0.27,0.05,0.44v0.31h-0.64v-0.31
		c0-0.18-0.01-0.31-0.03-0.37c-0.04-0.12-0.13-0.19-0.28-0.2h-0.04c-0.06,0-0.11,0.01-0.15,0.02c-0.04,0.01-0.08,0.03-0.1,0.06
		c-0.03,0.03-0.05,0.06-0.06,0.09c-0.02,0.03-0.03,0.07-0.04,0.13c-0.01,0.05-0.01,0.1-0.02,0.15c0,0.04,0,0.1,0,0.17v1.55
		c0,0.22,0.03,0.37,0.08,0.46c0.05,0.09,0.15,0.14,0.29,0.14c0.05,0,0.09-0.01,0.12-0.02c0.04-0.01,0.07-0.03,0.09-0.04
		c0.02-0.02,0.04-0.04,0.06-0.07c0.02-0.03,0.03-0.06,0.04-0.09c0.01-0.03,0.02-0.07,0.02-0.11c0-0.05,0.01-0.09,0.01-0.12
		c0-0.03,0-0.08,0-0.14v-0.33h0.64v0.3c0,0.14-0.01,0.26-0.03,0.37c-0.02,0.11-0.05,0.21-0.1,0.31c-0.05,0.1-0.11,0.18-0.18,0.24
		c-0.07,0.06-0.17,0.11-0.28,0.15C31.35,14.42,31.22,14.43,31.07,14.43"/>
	<polygon class="st1" points="32.52,14.39 32.52,10.72 33.19,10.72 33.19,13.93 34.06,13.93 34.06,14.39 	"/>
	<rect x="34.44" y="10.72" class="st1" width="0.66" height="3.66"/>
	<polygon class="st1" points="35.65,14.39 35.71,10.72 36.4,10.72 36.93,13.3 37.47,10.72 38.14,10.72 38.21,14.39 37.7,14.39 
		37.66,11.87 37.13,14.39 36.74,14.39 36.2,11.86 36.16,14.39 	"/>
	<path class="st1" d="M38.56,14.39l0.74-3.66H40l0.74,3.66h-0.62l-0.15-0.85h-0.63l-0.15,0.85H38.56z M39.41,13.1h0.49l-0.25-1.51
		L39.41,13.1z"/>
	<path class="st1" d="M44.42,31.91c-1.33-1.87-7.34-9.33-18.53-9.35c-11.19-0.02-17.22,7.43-18.56,9.3
		C7.28,31.93,7.23,32,7.19,32.06c0.04,0.06,0.09,0.13,0.15,0.21c1.33,1.87,7.34,9.33,18.53,9.35c11.19,0.02,17.22-7.43,18.56-9.3
		c0.06-0.08,0.11-0.15,0.14-0.21C44.53,32.05,44.48,31.99,44.42,31.91 M19.64,27.26c0.1-0.15,0.44-0.57,0.48-0.62
		c0.09-0.11,0.26-0.13,0.38-0.15c0.12-0.02,0.28,0.04,0.3,0.13c0.02,0.09-0.05,0.44-0.11,0.5c-0.16,0.17-0.59,0.41-0.83,0.37
		C19.68,27.46,19.61,27.32,19.64,27.26 M19.24,28.06c0.02-0.02,0.03-0.04,0.04-0.05c0.14-0.16,0.42-0.19,0.62-0.22
		c0.19-0.03,0.45,0.07,0.48,0.19c0.03,0.13-0.49,0.36-0.58,0.45c-0.27,0.25-0.69,0.75-0.94,0.81c-0.08,0.02-0.15,0.01-0.2-0.02
		C18.82,28.81,19.02,28.43,19.24,28.06 M23.42,36.66c-0.15,0.6-0.33,0.81-0.48,1c-0.15,0.19-0.71,0.43-1.06,0.41
		c-0.36-0.03-0.4-0.97-0.4-1.46c0-0.17-0.24,0.33-0.36-0.68c-0.08-0.65-0.5,0.07-0.52-0.37c-0.03-0.43-0.24-0.35-0.46-0.62
		c-0.22-0.27-0.49,0.03-0.79,0.16c-0.3,0.13-0.18,0.2-0.61,0.07c-0.01,0-0.02-0.01-0.03-0.01c-0.39-0.93-0.61-1.96-0.61-3.04
		c0-0.26,0.01-0.52,0.04-0.78c0.01-0.03,0.03-0.05,0.05-0.07c0.41-0.49,0.4-0.6,0.4-0.6l0.46-0.16c0,0,0.73,0.11,1.28,0.32
		c0.45,0.17,1.16,0.55,1.58,0.39c0.3-0.12,0.53-0.29,0.51-0.54c-0.03-0.31-0.28-0.39-0.58-0.18c-0.11,0.08-0.34-0.47-0.53-0.44
		c-0.18,0.03,0.23,0.65,0.07,0.67c-0.16,0.03-0.47-0.64-0.52-0.75c-0.05-0.11-0.29-0.38-0.51-0.17c-0.46,0.44-1.21,0.41-1.36,0.52
		c-0.46,0.34-0.58-0.11-0.57-0.39c0.02-0.06,0.04-0.13,0.06-0.19c0.15-0.16,0.68-0.22,0.87-0.1c0.2,0.13,0.35-0.03,0.43-0.12
		c0.08-0.08,0.05-0.21,0-0.32c-0.05-0.11,0.1-0.19,0.21-0.22c0.11-0.03,0.45-0.27,0.59-0.35c0.14-0.08,0.86-0.17,1.18,0
		c0.32,0.16,0.62,0.03,0.78-0.16c0.2-0.24,0.45-0.42,0.57-0.47c0.11-0.05-0.28-0.42-0.6-0.02c-0.32,0.4-0.49,0.43-0.64,0.43
		c-0.15,0-1.05-0.23-1.16-0.51c-0.11-0.28,0.28-0.5,0.61-0.66c0.33-0.16,1.24-0.15,1.47-0.21c0.47-0.1,1.08-0.34,1.38-0.13
		c0.3,0.2-1.27,0.56-0.75,0.84c0.18,0.1,1.02-0.48,1.3-0.63c0.67-0.34-0.65-0.46-0.48-1.16c0.19-0.79-1.62-0.49-2.52-0.42
		c1.21-0.78,2.65-1.23,4.2-1.22c3.68,0,6.76,2.56,7.57,5.98c0.01,0.17-0.02,0.29-0.04,0.36c-0.07,0.28-0.6,0.52-0.91,0.07
		c-0.08-0.11-0.41-0.43-0.4,0.11c0.01,0.54,0.52,0.6,0.03,0.92c-0.5,0.32-0.59,0.25-0.82,0.33c-0.23,0.08-0.45,0.64-0.4,0.93
		c0.06,0.3,0.76,1.11,0.24,1.08c-0.12-0.01-1.05-0.65-1.21-1.06c-0.16-0.43-0.34-0.85-0.46-1.18c-0.13-0.32-0.46-0.41-0.73-0.22
		c-0.28,0.19,0.08,0.38-0.12,0.79c-0.2,0.41-0.34,0.77-0.64,0.43c-0.76-0.87-1.87-0.44-2.04-1.42c-0.09-0.53-0.55-0.48-0.92-0.77
		c-0.38-0.3-0.59-0.46-0.66-0.24c-0.06,0.19,1.19,1.18,1.28,1.43c0.13,0.38-0.37,0.71-0.75,0.8c-0.37,0.09-0.53-0.21-0.89-0.59
		c-0.36-0.38-0.52-0.65-0.55-0.35c-0.04,0.43,0.34,1.06,0.71,1.3c0.32,0.2,0.67,0.29,0.57,0.62c-0.1,0.32,0,0.14-0.36,0.49
		c-0.35,0.35-0.42,0.46-0.4,0.95c0.03,0.49-0.1,0.51-0.18,0.92C23.75,36.41,23.57,36.06,23.42,36.66 M31.79,33.56
		c0.26-0.02,0.65,0.34,0.5,0.48c-0.15,0.14-0.55,0.09-0.74-0.07C31.35,33.82,31.67,33.57,31.79,33.56 M31.46,33.32
		c-0.08-0.03-0.16-0.11-0.22-0.3c-0.06-0.19,0.1-0.3,0.25-0.22c0.16,0.08,0.37,0.32,0.37,0.45C31.86,33.37,31.54,33.35,31.46,33.32
		 M28.02,33.3c-0.15,0.14-0.55,0.09-0.75-0.07c-0.2-0.15,0.13-0.41,0.24-0.41C27.78,32.8,28.17,33.16,28.02,33.3 M24.83,34.85
		c-0.11,0.18-0.4,1.49-0.6,1.33c-0.2-0.15,0.08-1.52,0.14-1.62C24.68,33.99,25.34,34.02,24.83,34.85 M25.88,39.93
		c-0.76,0-1.5-0.11-2.19-0.32c-0.1-0.08-0.16-0.22-0.09-0.38c0.24-0.63,0.96-0.87,1.53-0.93c1.26-0.12,2.93,0.83,3.19,0.67
		c0.27-0.15,0.8-0.85,1.58-0.82c0.54,0.02,0.53,0.11,0.71,0.18C29.3,39.34,27.66,39.93,25.88,39.93 M31.38,37.67
		c-0.08-0.02-0.16-0.05-0.25-0.09c-0.42-0.22-0.37,0.13-0.58,0.05c-0.21-0.08,0.24-0.56-0.39-0.15c-0.63,0.41-0.46-0.06-0.73-0.76
		c-0.27-0.69,0.32-1.49,0.81-1.67c0.68-0.24,1.1-0.29,1.42-0.37c0.94-0.23,1.14-0.79,1.31-0.45c0.03,0.06,0.06,0.12,0.09,0.18
		c0.05,0.1,0.12,0.31,0.12,0.51C32.78,35.96,32.16,36.9,31.38,37.67 M33.53,33.73c-0.21-0.06-1.08-1.27-0.39-2.06
		c0.11-0.13-0.23-0.52-0.14-0.52c0.38-0.03,0.58,0.21,0.68,0.55c0.01,0.15,0.01,0.3,0.01,0.45C33.69,32.69,33.63,33.22,33.53,33.73"
		/>
</g>
</svg>
